<?xml version="1.0" standalone="no"?>
<svg xmlns:xlink="http://www.w3.org/1999/xlink" id="wave" style="transform:rotate(0deg); transition: 0.3s" viewBox="0 0 1440 490" version="1.1" xmlns="http://www.w3.org/2000/svg"><defs><linearGradient id="sw-gradient-0" x1="0" x2="0" y1="1" y2="0"><stop stop-color="rgba(244, 247, 245, 0.12549019607843137)" offset="0%"/><stop stop-color="rgba(244, 247, 245, 0.12549019607843137)" offset="100%"/></linearGradient></defs><path style="transform:translate(0, 0px); opacity:1" fill="url(#sw-gradient-0)" d="M0,147L26.7,138.8C53.3,131,107,114,160,147C213.3,180,267,261,320,285.8C373.3,310,427,278,480,236.8C533.3,196,587,147,640,122.5C693.3,98,747,98,800,130.7C853.3,163,907,229,960,253.2C1013.3,278,1067,261,1120,220.5C1173.3,180,1227,114,1280,138.8C1333.3,163,1387,278,1440,294C1493.3,310,1547,229,1600,179.7C1653.3,131,1707,114,1760,114.3C1813.3,114,1867,131,1920,147C1973.3,163,2027,180,2080,220.5C2133.3,261,2187,327,2240,318.5C2293.3,310,2347,229,2400,228.7C2453.3,229,2507,310,2560,326.7C2613.3,343,2667,294,2720,302.2C2773.3,310,2827,376,2880,334.8C2933.3,294,2987,147,3040,114.3C3093.3,82,3147,163,3200,171.5C3253.3,180,3307,114,3360,89.8C3413.3,65,3467,82,3520,98C3573.3,114,3627,131,3680,138.8C3733.3,147,3787,147,3813,147L3840,147L3840,490L3813.3,490C3786.7,490,3733,490,3680,490C3626.7,490,3573,490,3520,490C3466.7,490,3413,490,3360,490C3306.7,490,3253,490,3200,490C3146.7,490,3093,490,3040,490C2986.7,490,2933,490,2880,490C2826.7,490,2773,490,2720,490C2666.7,490,2613,490,2560,490C2506.7,490,2453,490,2400,490C2346.7,490,2293,490,2240,490C2186.7,490,2133,490,2080,490C2026.7,490,1973,490,1920,490C1866.7,490,1813,490,1760,490C1706.7,490,1653,490,1600,490C1546.7,490,1493,490,1440,490C1386.7,490,1333,490,1280,490C1226.7,490,1173,490,1120,490C1066.7,490,1013,490,960,490C906.7,490,853,490,800,490C746.7,490,693,490,640,490C586.7,490,533,490,480,490C426.7,490,373,490,320,490C266.7,490,213,490,160,490C106.7,490,53,490,27,490L0,490Z"/><defs><linearGradient id="sw-gradient-1" x1="0" x2="0" y1="1" y2="0"><stop stop-color="rgba(244, 247, 245, 1)" offset="0%"/><stop stop-color="rgba(244, 247, 245, 1)" offset="100%"/></linearGradient></defs><path style="transform:translate(0, 50px); opacity:0.9" fill="url(#sw-gradient-1)" d="M0,147L26.7,179.7C53.3,212,107,278,160,302.2C213.3,327,267,310,320,294C373.3,278,427,261,480,245C533.3,229,587,212,640,220.5C693.3,229,747,261,800,228.7C853.3,196,907,98,960,73.5C1013.3,49,1067,98,1120,114.3C1173.3,131,1227,114,1280,155.2C1333.3,196,1387,294,1440,343C1493.3,392,1547,392,1600,375.7C1653.3,359,1707,327,1760,310.3C1813.3,294,1867,294,1920,285.8C1973.3,278,2027,261,2080,236.8C2133.3,212,2187,180,2240,212.3C2293.3,245,2347,343,2400,383.8C2453.3,425,2507,408,2560,383.8C2613.3,359,2667,327,2720,285.8C2773.3,245,2827,196,2880,187.8C2933.3,180,2987,212,3040,187.8C3093.3,163,3147,82,3200,49C3253.3,16,3307,33,3360,65.3C3413.3,98,3467,147,3520,147C3573.3,147,3627,98,3680,81.7C3733.3,65,3787,82,3813,89.8L3840,98L3840,490L3813.3,490C3786.7,490,3733,490,3680,490C3626.7,490,3573,490,3520,490C3466.7,490,3413,490,3360,490C3306.7,490,3253,490,3200,490C3146.7,490,3093,490,3040,490C2986.7,490,2933,490,2880,490C2826.7,490,2773,490,2720,490C2666.7,490,2613,490,2560,490C2506.7,490,2453,490,2400,490C2346.7,490,2293,490,2240,490C2186.7,490,2133,490,2080,490C2026.7,490,1973,490,1920,490C1866.7,490,1813,490,1760,490C1706.7,490,1653,490,1600,490C1546.7,490,1493,490,1440,490C1386.7,490,1333,490,1280,490C1226.7,490,1173,490,1120,490C1066.7,490,1013,490,960,490C906.7,490,853,490,800,490C746.7,490,693,490,640,490C586.7,490,533,490,480,490C426.7,490,373,490,320,490C266.7,490,213,490,160,490C106.7,490,53,490,27,490L0,490Z"/></svg>