<?xml version="1.0" encoding="utf-8"?>
<!-- Generator: Adobe Illustrator 19.0.0, SVG Export Plug-In . SVG Version: 6.00 Build 0)  -->
<svg version="1.1" id="Layer_1" xmlns="http://www.w3.org/2000/svg" xmlns:xlink="http://www.w3.org/1999/xlink" x="0px" y="0px"
	 viewBox="0 0 256 256" style="enable-background:new 0 0 256 256;" xml:space="preserve">
<style type="text/css">
	.st0{fill:url(#XMLID_101_);}
	.st1{opacity:0.3;}
	.st2{opacity:0;fill:#3C5185;}
	.st3{opacity:2.439000e-002;fill:#3C5185;}
	.st4{opacity:4.878000e-002;fill:#3C5185;}
	.st5{opacity:7.317100e-002;fill:#3C5185;}
	.st6{opacity:9.756100e-002;fill:#3C5185;}
	.st7{opacity:0.122;fill:#3C5185;}
	.st8{opacity:0.1463;fill:#3C5185;}
	.st9{opacity:0.1707;fill:#3C5185;}
	.st10{opacity:0.1951;fill:#3C5185;}
	.st11{opacity:0.2195;fill:#3C5185;}
	.st12{opacity:0.2439;fill:#3C5185;}
	.st13{opacity:0.2683;fill:#3C5185;}
	.st14{opacity:0.2927;fill:#3C5185;}
	.st15{opacity:0.3171;fill:#3C5185;}
	.st16{opacity:0.3415;fill:#3C5185;}
	.st17{opacity:0.3659;fill:#3C5185;}
	.st18{opacity:0.3902;fill:#3C5185;}
	.st19{opacity:0.4146;fill:#3C5185;}
	.st20{opacity:0.439;fill:#3C5185;}
	.st21{opacity:0.4634;fill:#3C5185;}
	.st22{opacity:0.4878;fill:#3C5185;}
	.st23{opacity:0.5122;fill:#3C5185;}
	.st24{opacity:0.5366;fill:#3C5185;}
	.st25{opacity:0.561;fill:#3C5185;}
	.st26{opacity:0.5854;fill:#3C5185;}
	.st27{opacity:0.6098;fill:#3C5185;}
	.st28{opacity:0.6341;fill:#3C5185;}
	.st29{opacity:0.6585;fill:#3C5185;}
	.st30{opacity:0.6829;fill:#3C5185;}
	.st31{opacity:0.7073;fill:#3C5185;}
	.st32{opacity:0.7317;fill:#3C5185;}
	.st33{opacity:0.7561;fill:#3C5185;}
	.st34{opacity:0.7805;fill:#3C5185;}
	.st35{opacity:0.8049;fill:#3C5185;}
	.st36{opacity:0.8293;fill:#3C5185;}
	.st37{opacity:0.8537;fill:#3C5185;}
	.st38{opacity:0.878;fill:#3C5185;}
	.st39{opacity:0.9024;fill:#3C5185;}
	.st40{opacity:0.9268;fill:#3C5185;}
	.st41{opacity:0.9512;fill:#3C5185;}
	.st42{opacity:0.9756;fill:#3C5185;}
	.st43{fill:#3C5185;}
	.st44{fill:url(#XMLID_102_);}
	.st45{fill:url(#XMLID_103_);}
	.st46{fill:url(#XMLID_104_);}
	.st47{fill:url(#XMLID_105_);}
	.st48{fill:url(#XMLID_106_);}
	.st49{fill:url(#XMLID_107_);}
	.st50{fill:url(#XMLID_108_);}
	.st51{fill:url(#XMLID_109_);}
	.st52{fill:url(#XMLID_110_);}
	.st53{fill:url(#XMLID_111_);}
	.st54{fill:url(#XMLID_112_);}
	.st55{fill:url(#XMLID_113_);}
	.st56{opacity:0.3;fill:#2D3D64;}
	.st57{fill:none;}
	.st58{fill:url(#XMLID_114_);}
	.st59{fill:url(#XMLID_115_);}
	.st60{fill:url(#XMLID_116_);}
	.st61{fill:#FFFFFF;}
	.st62{opacity:0.5;fill:#A5CBEF;}
	.st63{fill:url(#XMLID_117_);}
	.st64{fill:url(#XMLID_118_);}
	.st65{fill:url(#XMLID_119_);}
	.st66{fill:url(#XMLID_120_);}
	.st67{fill:url(#SVGID_1_);}
	.st68{fill:url(#SVGID_2_);}
	.st69{fill:url(#SVGID_3_);}
	.st70{fill:url(#SVGID_4_);}
	.st71{fill:url(#SVGID_5_);}
	.st72{fill:url(#SVGID_6_);}
	.st73{fill:url(#SVGID_7_);}
	.st74{fill:url(#SVGID_8_);}
	.st75{fill:url(#SVGID_9_);}
	.st76{fill:url(#SVGID_10_);}
	.st77{fill:url(#XMLID_121_);}
	.st78{fill:url(#XMLID_122_);}
</style>
<g>
	<linearGradient id="XMLID_101_" gradientUnits="userSpaceOnUse" x1="150.3065" y1="209.6486" x2="104.121" y2="59.0433">
		<stop  offset="0.1445" style="stop-color:#FFFFFF"/>
		<stop  offset="1" style="stop-color:#E1EBF7"/>
	</linearGradient>
	<path id="XMLID_99_" class="st0" d="M211.1,137.1c0,42.4-41.9,72.4-84.4,72.4s-81.9-29.9-81.9-72.4s40.4-81.9,82.9-81.9
		S211.1,94.6,211.1,137.1z"/>
	<g id="XMLID_51_" class="st1">
		<polygon id="XMLID_288_" class="st2" points="76,146.5 55.9,157.8 144.6,210.2 164.7,197.7 		"/>
		<polygon id="XMLID_98_" class="st3" points="76,146.5 56.3,157.6 145,210 164.7,197.7 		"/>
		<polygon id="XMLID_97_" class="st4" points="76,146.5 56.7,157.4 145.3,209.7 164.7,197.7 		"/>
		<polygon id="XMLID_96_" class="st5" points="76,146.5 57.1,157.2 145.7,209.5 164.7,197.7 		"/>
		<polygon id="XMLID_95_" class="st6" points="76,146.5 57.5,157 146.1,209.3 164.7,197.7 		"/>
		<polygon id="XMLID_94_" class="st7" points="76,146.5 57.9,156.7 146.4,209.1 164.7,197.7 		"/>
		<polygon id="XMLID_93_" class="st8" points="76,146.5 58.3,156.5 146.8,208.9 164.7,197.7 		"/>
		<polygon id="XMLID_92_" class="st9" points="76,146.5 58.6,156.3 147.2,208.6 164.7,197.7 		"/>
		<polygon id="XMLID_91_" class="st10" points="76,146.5 59,156.1 147.5,208.4 164.7,197.7 		"/>
		<polygon id="XMLID_90_" class="st11" points="76,146.5 59.4,155.9 147.9,208.2 164.7,197.7 		"/>
		<polygon id="XMLID_89_" class="st12" points="76,146.5 59.8,155.7 148.2,208 164.7,197.7 		"/>
		<polygon id="XMLID_88_" class="st13" points="76,146.5 60.2,155.4 148.6,207.7 164.7,197.7 		"/>
		<polygon id="XMLID_87_" class="st14" points="76,146.5 60.6,155.2 149,207.5 164.7,197.7 		"/>
		<polygon id="XMLID_86_" class="st15" points="76,146.5 60.9,155 149.3,207.3 164.7,197.7 		"/>
		<polygon id="XMLID_85_" class="st16" points="76,146.5 61.3,154.8 149.7,207.1 164.7,197.7 		"/>
		<polygon id="XMLID_84_" class="st17" points="76,146.5 61.7,154.6 150,206.8 164.7,197.7 		"/>
		<polygon id="XMLID_83_" class="st18" points="76,146.5 62.1,154.3 150.4,206.6 164.7,197.7 		"/>
		<polygon id="XMLID_82_" class="st19" points="76,146.5 62.5,154.1 150.8,206.4 164.7,197.7 		"/>
		<polygon id="XMLID_81_" class="st20" points="76,146.5 62.9,153.9 151.1,206.2 164.7,197.7 		"/>
		<polygon id="XMLID_80_" class="st21" points="76,146.5 63.3,153.7 151.5,206 164.7,197.7 		"/>
		<polygon id="XMLID_79_" class="st22" points="76,146.5 63.6,153.5 151.9,205.7 164.7,197.7 		"/>
		<polygon id="XMLID_78_" class="st23" points="76,146.5 64,153.2 152.2,205.5 164.7,197.7 		"/>
		<polygon id="XMLID_77_" class="st24" points="76,146.5 64.4,153 152.6,205.3 164.7,197.7 		"/>
		<polygon id="XMLID_76_" class="st25" points="76,146.5 64.8,152.8 152.9,205.1 164.7,197.7 		"/>
		<polygon id="XMLID_75_" class="st26" points="76,146.5 65.2,152.6 153.3,204.8 164.7,197.7 		"/>
		<polygon id="XMLID_74_" class="st27" points="76,146.5 65.6,152.4 153.7,204.6 164.7,197.7 		"/>
		<polygon id="XMLID_73_" class="st28" points="76,146.5 66,152.2 154,204.4 164.7,197.7 		"/>
		<polygon id="XMLID_72_" class="st29" points="76,146.5 66.3,151.9 154.4,204.2 164.7,197.7 		"/>
		<polygon id="XMLID_71_" class="st30" points="76,146.5 66.7,151.7 154.8,203.9 164.7,197.7 		"/>
		<polygon id="XMLID_70_" class="st31" points="76,146.5 67.1,151.5 155.1,203.7 164.7,197.7 		"/>
		<polygon id="XMLID_69_" class="st32" points="76,146.5 67.5,151.3 155.5,203.5 164.7,197.7 		"/>
		<polygon id="XMLID_68_" class="st33" points="76,146.5 67.9,151.1 155.8,203.3 164.7,197.7 		"/>
		<polygon id="XMLID_67_" class="st34" points="76,146.5 68.3,150.8 156.2,203.1 164.7,197.7 		"/>
		<polygon id="XMLID_66_" class="st35" points="76,146.5 68.6,150.6 156.6,202.8 164.7,197.7 		"/>
		<polygon id="XMLID_65_" class="st36" points="76,146.5 69,150.4 156.9,202.6 164.7,197.7 		"/>
		<polygon id="XMLID_63_" class="st37" points="76,146.5 69.4,150.2 157.3,202.4 164.7,197.7 		"/>
		<polygon id="XMLID_58_" class="st38" points="76,146.5 69.8,150 157.6,202.2 164.7,197.7 		"/>
		<polygon id="XMLID_57_" class="st39" points="76,146.5 70.2,149.7 158,201.9 164.7,197.7 		"/>
		<polygon id="XMLID_56_" class="st40" points="76,146.5 70.6,149.5 158.4,201.7 164.7,197.7 		"/>
		<polygon id="XMLID_55_" class="st41" points="76,146.5 71,149.3 158.7,201.5 164.7,197.7 		"/>
		<polygon id="XMLID_54_" class="st42" points="76,146.5 71.3,149.1 159.1,201.3 164.7,197.7 		"/>
		<polygon id="XMLID_287_" class="st43" points="76,146.5 71.7,148.9 159.5,201 164.7,197.7 		"/>
	</g>
	<g>
		<linearGradient id="XMLID_102_" gradientUnits="userSpaceOnUse" x1="117.1102" y1="102.4412" x2="147.0096" y2="102.4412">
			<stop  offset="0" style="stop-color:#F4F9FD"/>
			<stop  offset="0.2091" style="stop-color:#E6F1FA"/>
			<stop  offset="0.8511" style="stop-color:#B2D2F1"/>
			<stop  offset="0.9962" style="stop-color:#A5CBEF"/>
		</linearGradient>
		<path id="XMLID_50_" class="st44" d="M132.1,85.2c-8.2-4.7-14.9-0.9-14.9,8.6c0,9.5,6.7,21.1,14.9,25.9c8.2,4.7,14.9,0.9,14.9-8.6
			S140.3,89.9,132.1,85.2z"/>
		<linearGradient id="XMLID_103_" gradientUnits="userSpaceOnUse" x1="115.1607" y1="102.9286" x2="145.0602" y2="102.9286">
			<stop  offset="0" style="stop-color:#FFFFFF"/>
			<stop  offset="0.2442" style="stop-color:#EFF8FE"/>
			<stop  offset="0.7224" style="stop-color:#C4E5FC"/>
			<stop  offset="1" style="stop-color:#A8D9FB"/>
		</linearGradient>
		<path id="XMLID_47_" class="st45" d="M130.1,85.7c-8.2-4.7-14.9-0.9-14.9,8.6c0,9.5,6.7,21.1,14.9,25.9c8.2,4.7,14.9,0.9,14.9-8.6
			C145.1,102.1,138.3,90.4,130.1,85.7z"/>
		<path id="XMLID_45_" class="st43" d="M126.7,91.4v1.4v2.1v9.8c-0.5-0.8-1.2-1.4-2-1.7c-1.5-0.7-2.5,0.2-2.4,2
			c0.2,1.8,1.5,3.7,3,4.4c1.5,0.6,2.5-0.2,2.4-1.9V95.6l5.8,4.2v9.8c-0.5-0.8-1.2-1.4-2-1.7c-1.5-0.7-2.5,0.2-2.4,2
			c0.2,1.8,1.5,3.7,3,4.4c1.4,0.6,2.4-0.2,2.4-1.8c0,0,0,0,0-0.1v-11.9v-2.1v-1.4L126.7,91.4z"/>
	</g>
	<g>
		
			<linearGradient id="XMLID_104_" gradientUnits="userSpaceOnUse" x1="302.7367" y1="101.6746" x2="338.995" y2="101.6746" gradientTransform="matrix(1 0 0 1 -227.1531 0)">
			<stop  offset="0" style="stop-color:#4A65A3"/>
			<stop  offset="0.3998" style="stop-color:#445C95"/>
			<stop  offset="1" style="stop-color:#3C5185"/>
		</linearGradient>
		<path id="XMLID_25_" class="st46" d="M76.1,78.5L76,78.7c-0.2,0.3-0.4,0.7-0.4,1.2v24.6c0,1,0.7,2.3,1.6,2.8l31.4,18.1
			c0.4,0.2,0.9,0.3,1.4,0.3l0.1,0c1-0.2,1.7-1,1.7-2.1v-25c0-1-0.7-2.3-1.6-2.8L78.9,77.9C77.9,77.4,76.7,77.6,76.1,78.5z"/>
		<linearGradient id="XMLID_105_" gradientUnits="userSpaceOnUse" x1="109.9545" y1="125.7333" x2="75.7377" y2="77.9075">
			<stop  offset="0" style="stop-color:#4A65A3"/>
			<stop  offset="0.3998" style="stop-color:#445C95"/>
			<stop  offset="1" style="stop-color:#3C5185"/>
		</linearGradient>
		<path id="XMLID_24_" class="st47" d="M77.2,78.7c-0.9-0.5-1.6-0.1-1.6,1v24.7c0,1,0.7,2.3,1.6,2.8l31.5,18.2
			c0.9,0.5,1.6,0.1,1.6-0.9V99.6c0-1-0.7-2.3-1.6-2.8L77.2,78.7z"/>
		<linearGradient id="XMLID_106_" gradientUnits="userSpaceOnUse" x1="87.9761" y1="101.6746" x2="99.4493" y2="101.6746">
			<stop  offset="0.1499" style="stop-color:#FF9800"/>
			<stop  offset="1" style="stop-color:#FFC107"/>
		</linearGradient>
		<path id="XMLID_8_" class="st48" d="M98.7,107.3l-8.5,0.9c-1,0.1-2.2-1.2-2.2-2.3v-9.8c0-1.1,1.2-1.3,2.2-0.2l8.5,9
			C99.7,105.8,99.7,107.2,98.7,107.3l-8.5,0.9c-1,0.1-2.2-1.2-2.2-2.3v-9.8c0-1.1,1.2-1.3,2.2-0.2l8.5,9
			C99.7,105.8,99.7,107.2,98.7,107.3z"/>
	</g>
	<g>
		<linearGradient id="XMLID_107_" gradientUnits="userSpaceOnUse" x1="159.5723" y1="100.8082" x2="189.3692" y2="100.8082">
			<stop  offset="0" style="stop-color:#3C5185"/>
			<stop  offset="0.6002" style="stop-color:#445C95"/>
			<stop  offset="1" style="stop-color:#4A65A3"/>
		</linearGradient>
		<path id="XMLID_751_" class="st49" d="M189.4,109.2c0-9.5-6.7-21.1-14.9-25.8c-3.8-2.2-7.3-2.5-9.9-1.3l0,0l0,0
			c-0.4,0.2-0.7,0.4-1.1,0.6l-2.4,1.4l0.4,0.8c-1.2,1.8-1.8,4.2-1.8,7.2c0,4.6,1.6,9.7,4.1,14.2v6.9c0,0.5,0.4,0.9,0.9,0.9h5
			c1.5,1.5,3.1,2.7,4.8,3.7c1.7,1,3.4,1.6,5,1.9l0.1,0.5l2-0.3c0.7,0,1.4-0.1,2-0.3l0,0l0,0C187.1,118.4,189.4,114.8,189.4,109.2z"
			/>
		<linearGradient id="XMLID_108_" gradientUnits="userSpaceOnUse" x1="157.6039" y1="101.3725" x2="186.7789" y2="101.3725">
			<stop  offset="0" style="stop-color:#4A65A3"/>
			<stop  offset="0.3998" style="stop-color:#445C95"/>
			<stop  offset="1" style="stop-color:#3C5185"/>
		</linearGradient>
		<path id="XMLID_750_" class="st50" d="M172.2,84.5c-8-4.6-14.6-0.8-14.6,8.4c0,4.5,1.5,9.5,4,13.9v6.8c0,0.5,0.4,0.9,0.9,0.9h4.9
			c1.5,1.4,3.1,2.7,4.7,3.6c8,4.6,14.6,0.8,14.6-8.4C186.8,100.5,180.2,89.2,172.2,84.5z"/>
		<linearGradient id="XMLID_109_" gradientUnits="userSpaceOnUse" x1="160.623" y1="101.7006" x2="182.8754" y2="101.7006">
			<stop  offset="0.1499" style="stop-color:#FF9800"/>
			<stop  offset="1" style="stop-color:#FFC107"/>
		</linearGradient>
		<path id="XMLID_749_" class="st51" d="M171.7,88.3c-6.1-3.7-11.1-0.7-11.1,6.7c0,7.3,5,16.4,11.1,20c6.1,3.7,11.1,0.7,11.1-6.7
			S177.9,92,171.7,88.3z"/>
		<path id="XMLID_42_" class="st43" d="M165.2,97.7c-0.7-0.4-1.3-0.1-1.3,0.8c0,0.9,0.6,1.9,1.3,2.3c0.7,0.4,1.3,0.1,1.3-0.8
			C166.6,99.1,166,98.1,165.2,97.7z"/>
		<path id="XMLID_41_" class="st43" d="M171.5,101.1c-0.7-0.4-1.3-0.1-1.3,0.8c0,0.9,0.6,1.9,1.3,2.3c0.7,0.4,1.3,0.1,1.3-0.8
			C172.8,102.6,172.2,101.6,171.5,101.1z"/>
		<path id="XMLID_40_" class="st43" d="M177.9,104.6c-0.7-0.4-1.3-0.1-1.3,0.8c0,0.9,0.6,1.9,1.3,2.3c0.7,0.4,1.3,0.1,1.3-0.8
			C179.2,106.1,178.6,105,177.9,104.6z"/>
	</g>
	<g id="XMLID_677_">
		
			<linearGradient id="XMLID_110_" gradientUnits="userSpaceOnUse" x1="394.7343" y1="149.8717" x2="430.9926" y2="149.8717" gradientTransform="matrix(1 0 0 1 -227.1531 0)">
			<stop  offset="0" style="stop-color:#F4F9FD"/>
			<stop  offset="0.2091" style="stop-color:#E6F1FA"/>
			<stop  offset="0.8511" style="stop-color:#B2D2F1"/>
			<stop  offset="0.9962" style="stop-color:#A5CBEF"/>
		</linearGradient>
		<path id="XMLID_680_" class="st52" d="M168.1,126.7l-0.1,0.2c-0.2,0.3-0.4,0.7-0.4,1.2v24.6c0,1,0.7,2.3,1.6,2.8l31.4,18.1
			c0.4,0.2,0.9,0.3,1.4,0.3l0.1,0c1-0.2,1.7-1,1.7-2.1v-25c0-1-0.7-2.3-1.6-2.8l-31.3-17.9C169.9,125.6,168.7,125.8,168.1,126.7z"/>
		<linearGradient id="XMLID_111_" gradientUnits="userSpaceOnUse" x1="201.9523" y1="173.9303" x2="167.7355" y2="126.1046">
			<stop  offset="0" style="stop-color:#A8D9FB"/>
			<stop  offset="0.2776" style="stop-color:#C4E5FC"/>
			<stop  offset="0.7558" style="stop-color:#EFF8FE"/>
			<stop  offset="1" style="stop-color:#FFFFFF"/>
		</linearGradient>
		<path id="XMLID_679_" class="st53" d="M169.2,126.9c-0.9-0.5-1.6-0.1-1.6,1v24.7c0,1,0.7,2.3,1.6,2.8l31.5,18.2
			c0.9,0.5,1.6,0.1,1.6-0.9v-24.9c0-1-0.7-2.3-1.6-2.8L169.2,126.9z"/>
		
			<linearGradient id="XMLID_112_" gradientUnits="userSpaceOnUse" x1="274.3206" y1="142.3638" x2="279.9659" y2="142.3638" gradientTransform="matrix(-1 0 0 1 456.1462 0)">
			<stop  offset="0.1499" style="stop-color:#FF9800"/>
			<stop  offset="1" style="stop-color:#FFC107"/>
		</linearGradient>
		<path id="XMLID_414_" class="st54" d="M179,139.1c-1.6-0.9-2.8-0.2-2.8,1.6c0,1.8,1.3,4,2.8,5c1.6,1,2.8,0.3,2.8-1.6
			C181.8,142.2,180.6,140,179,139.1z"/>
		<linearGradient id="XMLID_113_" gradientUnits="userSpaceOnUse" x1="167.5813" y1="160.9354" x2="202.3241" y2="160.9354">
			<stop  offset="0" style="stop-color:#3C5185"/>
			<stop  offset="0.128" style="stop-color:#41588E"/>
			<stop  offset="0.6948" style="stop-color:#5573B1"/>
			<stop  offset="1" style="stop-color:#5D7DBE"/>
		</linearGradient>
		<path id="XMLID_413_" class="st55" d="M195.5,150.3l-7.8,5.7l-3.2-6.1l-7.7,3.2l-9.3-5v4.5c0,1,0.7,2.3,1.6,2.8l31.5,18.2
			c0.9,0.5,1.6,0.1,1.6-0.9v-4v-6.4L195.5,150.3z"/>
		<polygon id="XMLID_412_" class="st56" points="195.6,150.3 195.6,158 193.6,155.3 191,157.2 191,156.5 187.8,156 195.5,150.3 		
			"/>
		<polygon id="XMLID_678_" class="st56" points="184.6,149.9 184.6,151.7 183,151.7 182.7,153.1 181.8,152.1 176.9,153.1 		"/>
	</g>
	<path id="XMLID_53_" class="st56" d="M169.2,155.5l20.6,11.8c-2.5-7.5-7.9-14.8-14-18.3c-0.4-0.3-0.9-0.5-1.3-0.7
		c-0.1,0-0.1-0.1-0.2-0.1c0-0.6,0.1-1.2,0.1-1.9c0-7.5-1.7-14.5-4.6-20.5c-0.6,0-1.2,0.3-1.6,0.9l-0.1,0.2c0,0,0,0,0,0
		c-0.2,0.2-0.4,0.5-0.4,1v0.2v20v4.5v0.1C167.6,153.7,168.3,155,169.2,155.5z"/>
	<path class="st56" d="M111.8,123.6v-21c-7.1-0.9-14.6,0.9-20.7,5.5l-4.4,3.3c0,0,0,0,0,0.1c-0.6,0.1-1.1,0.2-1.7,0.3l23.6,13.6
		c0.4,0.2,0.9,0.3,1.4,0.3l0.1,0C111.1,125.5,111.8,124.6,111.8,123.6z M106.8,122.5c-0.1,0-0.2,0.1-0.3,0.1c0,0,0,0,0,0
		L106.8,122.5C106.8,122.5,106.8,122.5,106.8,122.5z"/>
	<path id="XMLID_46_" class="st56" d="M130.5,108.8c-0.5,0.4-1,0.7-1.5,1.1c-0.3-0.3-0.6-0.7-1-1.1c-3.3-3-7.2-5-11.3-6.1
		c1.3,3.9,3.4,7.7,6.1,10.9c0,0,4.7,4.9,7.3,6.5c3.7,2.1,7,2.5,9.7,1.5c4.3-0.5,7.2-4.3,7.2-10.6c0-2-0.3-4.1-0.8-6.1
		c-1.8-0.5-3.7-0.8-5.6-0.8C137,104.2,134.2,106.2,130.5,108.8z"/>
	<g>
		<g>
			<path id="XMLID_44_" class="st57" d="M128.7,115L128.7,115C128.7,115.1,128.7,115.1,128.7,115C128.7,115,128.7,115,128.7,115z"/>
			<linearGradient id="XMLID_114_" gradientUnits="userSpaceOnUse" x1="109.3257" y1="127.7001" x2="96.4256" y2="110.1416">
				<stop  offset="3.802050e-003" style="stop-color:#A5CBEF"/>
				<stop  offset="0.1875" style="stop-color:#B2D2F1"/>
				<stop  offset="1" style="stop-color:#E6F1FA"/>
			</linearGradient>
			<path id="XMLID_43_" class="st58" d="M127.5,113.9c-9.9-8.9-24.7-9.3-35.3-1.3l-4.4,3.3c-0.7,0.7,9.6,4.8,9.7,5.8
				c-5.4-1.5-11.2,2.5-11.2,8.5l0,0c0,2.8,0.7,5.5,2.1,7.9l40.3-23.1C128.4,114.7,128,114.3,127.5,113.9z"/>
			<linearGradient id="XMLID_115_" gradientUnits="userSpaceOnUse" x1="175.6767" y1="193.4836" x2="152.0266" y2="160.5167">
				<stop  offset="3.802050e-003" style="stop-color:#A5CBEF"/>
				<stop  offset="0.1875" style="stop-color:#B2D2F1"/>
				<stop  offset="1" style="stop-color:#E6F1FA"/>
			</linearGradient>
			<path id="XMLID_39_" class="st59" d="M186.7,175.6c-1-9.4-7.6-20-15.4-24.5c-0.4-0.3-0.9-0.5-1.3-0.7l-38.3,22l33.5,25.4
				c0,0,14.1-7.7,17.1-9.5c0.2-0.1,0.5-0.3,0.7-0.5c0,0,0,0,0,0c0.6-0.4,1.1-0.9,1.5-1.4c1.5-1.7,2.4-4,2.4-6.5v-4.1L186.7,175.6z"
				/>
			<linearGradient id="XMLID_116_" gradientUnits="userSpaceOnUse" x1="86.2927" y1="140.7672" x2="186.8668" y2="140.7672">
				<stop  offset="3.802050e-003" style="stop-color:#A5CBEF"/>
				<stop  offset="0.1875" style="stop-color:#B2D2F1"/>
				<stop  offset="1" style="stop-color:#E6F1FA"/>
			</linearGradient>
			<path id="XMLID_38_" class="st60" d="M169.7,150.3c0-0.6,0.1-1.2,0.1-1.9c0-13.9-5.8-26.4-14.9-33.6c-4.6-3.6-9.6-5.6-14.8-5.6
				c-3.6,0-6.3,2-10.1,4.7c-1.1,0.7-2,1.6-3.1,2.2c-7.9,4.5-38.5,22.1-38.5,22.1c1.4,2.4,3.4,4.5,5.9,5.9l37.4,28.3l38.3-22
				C169.9,150.3,169.8,150.3,169.7,150.3z"/>
			<path id="XMLID_577_" class="st61" d="M167.4,187c-1-9.4-7.6-20-15.4-24.5c-0.5-0.3-1-0.6-1.5-0.8c0-0.6,0.1-1.2,0.1-1.9
				c0-13.9-9.9-31-21.9-38c-9.7-5.6-18-3-20.9,5.5c-2.9-3.6-6.2-6.6-9.8-8.7c-11-6.3-19.9-1.2-19.9,11.5c0,1,0.1,2,0.2,3.1
				c-5.4-1.5-11.2,2.5-11.2,8.5v0c0,5.7,3,10.9,8,13.8l77.6,44.4c3.5,2,7.4,1.6,10.4-0.3c0.2-0.1,0.5-0.3,0.7-0.5c0,0,0,0,0,0
				c0.6-0.4,1.1-0.9,1.5-1.4c1.5-1.7,2.4-4,2.4-6.5v-4.1L167.4,187z"/>
		</g>
		<path class="st62" d="M121.9,182.4v-9.2c0-1.9-1.4-4.3-3-5.2l-2.9-1.6v-5.1c0-7.4-1.6-12.1-4.9-14c-1.7-1-3.5-1-5-0.1
			c-1.2,0.7-3.3,2.7-3.3,8v4.7c-2.2-0.1-4.4,0.7-6,2.4c-0.4,0.4-0.6,1-0.6,1.5v0.8v3.1L121.9,182.4z M105.5,155.1
			c0-2.8,0.7-4.9,1.9-5.5c0.8-0.5,1.7-0.2,2.2,0.1c2.2,1.3,3.5,5.4,3.5,11.6v3.6l-7.3-4.1c-0.1-0.1-0.3-0.1-0.4-0.2V155.1z"/>
		<g>
			<linearGradient id="XMLID_117_" gradientUnits="userSpaceOnUse" x1="113.2766" y1="197.6135" x2="98.8556" y2="161.3284">
				<stop  offset="0" style="stop-color:#FFC107"/>
				<stop  offset="0.8501" style="stop-color:#FF9800"/>
			</linearGradient>
			<path id="XMLID_29_" class="st63" d="M93.7,164.2L93.7,164.2c2.3-2.6,6.1-3.2,9.2-1.5l13,7.3c1.7,0.9,3,3.3,3,5.2v17.1
				c0,3.1-2.6,5.5-5.7,5.3l-0.6,0c-0.5,0-0.9-0.2-1.3-0.4l-15.2-8.6c-1.7-0.9-3-3.3-3-5.2v-17.8C93.1,165.2,93.3,164.6,93.7,164.2z"
				/>
			<linearGradient id="XMLID_118_" gradientUnits="userSpaceOnUse" x1="113.3061" y1="199.121" x2="94.931" y2="164.6968">
				<stop  offset="0.1499" style="stop-color:#FF9800"/>
				<stop  offset="1" style="stop-color:#FFC107"/>
			</linearGradient>
			<path id="XMLID_28_" class="st64" d="M93.1,166.5c0-1.9,1.4-2.7,3-1.8l14.8,8.4c1.7,0.9,3,3.3,3,5.2v16.9c0,1.9-1.4,2.7-3,1.8
				l-14.8-8.4c-1.7-0.9-3-3.3-3-5.2V166.5z"/>
			<path id="XMLID_6_" class="st43" d="M103.6,174.6c-1.7-1-3.2-0.2-3.2,1.8s1.4,4.5,3.2,5.6c1.7,1.1,3.2,0.3,3.2-1.8
				C106.8,178.1,105.3,175.6,103.6,174.6z"/>
			<path id="XMLID_35_" class="st43" d="M112.9,170.9v-7.7c0-7.4-1.6-12.1-4.9-14c-1.7-1-3.5-1-5-0.1c-1.2,0.7-3.3,2.7-3.3,8v7.5h0
				c0,0.2,0.1,0.4,0.4,0.5c0.5,0.3,1.4,0.3,1.9,0c0.3-0.1,0.4-0.3,0.4-0.5h0v-7.5c0-2.8,0.7-4.9,1.9-5.5c0.8-0.5,1.7-0.2,2.2,0.1
				c2.2,1.3,3.5,5.4,3.5,11.6v7.7c0,0.2,0.1,0.4,0.4,0.6c0.5,0.3,1.4,0.3,2,0C112.8,171.3,113,171.1,112.9,170.9z"/>
			<polygon id="XMLID_5_" class="st43" points="101.7,176.6 101.7,185.4 105.5,187.6 105.5,178.8 			"/>
		</g>
		<g>
			<g>
				<path class="st43" d="M94.8,193.1c-0.2,0-0.4,0-0.6,0c-0.4,0-0.7-0.4-0.6-0.8c0-0.4,0.4-0.7,0.8-0.6c0.3,0,0.6,0,0.9,0
					c0.3,0,0.5-0.1,0.8-0.3c0.2-0.1,0.4-0.3,0.6-0.5c0.2-0.2,0.4-0.5,0.5-0.8c0.1-0.3,0.3-0.7,0.3-1.1c0.1-0.4,0.1-0.9,0.1-1.3
					c0-0.5,0-1-0.1-1.5c-0.1-0.5-0.2-1.1-0.4-1.6c-0.1-0.4,0.1-0.8,0.5-0.9c0.4-0.1,0.8,0.1,0.9,0.5c0.2,0.6,0.3,1.2,0.4,1.8
					c0.1,0.6,0.1,1.2,0.1,1.8c0,0.6,0,1.1-0.1,1.6c-0.1,0.5-0.2,1-0.4,1.4c-0.2,0.4-0.4,0.8-0.7,1.1c-0.3,0.3-0.6,0.6-1,0.8
					c-0.4,0.2-0.8,0.3-1.2,0.4C95.3,193.1,95.1,193.1,94.8,193.1z M89.2,189.9c-0.2,0-0.4-0.1-0.5-0.2c-0.4-0.5-0.8-0.9-1.2-1.5
					c-0.4-0.5-0.7-1-1-1.6c-0.3-0.5-0.6-1.1-0.8-1.7c-0.2-0.4,0-0.8,0.4-0.9c0.4-0.2,0.8,0,0.9,0.4c0.2,0.5,0.5,1,0.8,1.5
					c0.3,0.5,0.6,1,0.9,1.5c0.3,0.5,0.7,0.9,1.1,1.3c0.3,0.3,0.2,0.7,0,1C89.5,189.8,89.4,189.9,89.2,189.9z M85.7,183.7
					c-0.3,0-0.6-0.2-0.7-0.5c-0.2-0.6-0.3-1.2-0.4-1.7c-0.1-0.6-0.1-1.2-0.1-1.7c0-0.6,0-1.1,0.1-1.6c0.1-0.5,0.2-0.9,0.4-1.3
					c0.2-0.4,0.4-0.8,0.7-1.1c0.3-0.3,0.6-0.6,1-0.8c0.4-0.2,0.8-0.3,1.2-0.4c0.4-0.1,0.9-0.1,1.3-0.1c0.5,0,0.9,0.1,1.4,0.3
					c0.5,0.2,1,0.4,1.4,0.7c0.5,0.3,1,0.6,1.4,1c0.4,0.4,0.9,0.8,1.3,1.2c0.3,0.3,0.2,0.7,0,1c-0.3,0.3-0.7,0.2-1,0
					c-0.4-0.4-0.8-0.8-1.2-1.1c-0.4-0.3-0.8-0.6-1.2-0.9c-0.4-0.2-0.8-0.4-1.2-0.6c-0.4-0.1-0.7-0.2-1.1-0.2c-0.3,0-0.6,0-0.9,0
					c-0.3,0.1-0.5,0.1-0.8,0.3c-0.2,0.1-0.4,0.3-0.6,0.5c-0.2,0.2-0.4,0.5-0.5,0.8c-0.1,0.3-0.3,0.6-0.3,1c-0.1,0.4-0.1,0.8-0.1,1.3
					c0,0.5,0,1,0.1,1.5c0.1,0.5,0.2,1,0.4,1.6c0.1,0.4-0.1,0.8-0.5,0.9C85.8,183.7,85.7,183.7,85.7,183.7z"/>
			</g>
			<g>
				<path class="st43" d="M80.9,203.7c-0.2,0-0.5,0-0.7,0c-0.5-0.1-1.1-0.2-1.7-0.4c-0.6-0.2-1.2-0.5-1.8-0.9
					c-0.6-0.4-1.2-0.8-1.7-1.3c-0.5-0.5-1.1-1-1.6-1.6c-0.5-0.6-1-1.2-1.4-1.8c-0.2-0.3-0.2-0.8,0.2-1c0.3-0.2,0.8-0.2,1,0.2
					c0.4,0.6,0.9,1.1,1.3,1.7c0.5,0.5,1,1,1.5,1.4c0.5,0.4,1,0.8,1.6,1.1c0.5,0.3,1,0.6,1.5,0.8c0.5,0.2,0.9,0.3,1.4,0.3
					c0.4,0,0.8,0,1.2,0c0.4-0.1,0.7-0.2,1-0.4c0.3-0.2,0.6-0.4,0.8-0.7c0.2-0.3,0.5-0.6,0.6-1c0.2-0.4,0.3-0.9,0.4-1.4
					c0.1-0.5,0.2-1.1,0.2-1.7c0-0.6-0.1-1.3-0.2-1.9c-0.1-0.7-0.3-1.3-0.5-2c-0.2-0.7-0.4-1.3-0.7-2c-0.3-0.7-0.6-1.3-1-1.9
					c-0.4-0.6-0.8-1.2-1.2-1.8c-0.4-0.6-0.9-1.1-1.3-1.6c-0.3-0.3-0.2-0.7,0-1c0.3-0.3,0.7-0.2,1,0c0.5,0.5,1,1.1,1.4,1.8
					c0.4,0.6,0.9,1.3,1.3,1.9c0.4,0.7,0.7,1.4,1,2.1c0.3,0.7,0.6,1.4,0.8,2.2c0.2,0.7,0.4,1.5,0.5,2.2c0.1,0.7,0.2,1.5,0.2,2.1
					c0,0.7-0.1,1.4-0.2,2c-0.1,0.6-0.3,1.2-0.5,1.7c-0.2,0.5-0.5,1-0.9,1.3c-0.3,0.4-0.7,0.7-1.2,1c-0.4,0.2-0.9,0.4-1.4,0.5
					C81.5,203.7,81.2,203.7,80.9,203.7z M70.4,194.2c-0.3,0-0.5-0.2-0.6-0.4c-0.3-0.7-0.6-1.4-0.8-2.1c-0.1-0.4,0.1-0.8,0.5-0.9
					c0.4-0.1,0.8,0.1,0.9,0.5c0.2,0.7,0.4,1.3,0.7,2c0.2,0.4,0,0.8-0.4,0.9C70.6,194.2,70.5,194.2,70.4,194.2z M69.6,184.9
					c-0.1,0-0.2,0-0.3-0.1c-0.3-0.2-0.5-0.6-0.3-0.9c0.2-0.5,0.5-0.9,0.9-1.3c0.3-0.4,0.7-0.7,1.2-0.9c0.4-0.2,0.9-0.4,1.4-0.5
					c0.5-0.1,1-0.1,1.6-0.1c0.4,0,0.7,0.4,0.6,0.8c0,0.4-0.4,0.7-0.8,0.6c-0.4,0-0.8,0-1.2,0c-0.4,0.1-0.7,0.2-1,0.4
					c-0.3,0.2-0.6,0.4-0.8,0.7c-0.2,0.3-0.5,0.6-0.6,1C70.1,184.7,69.9,184.9,69.6,184.9z"/>
			</g>
		</g>
	</g>
	<g>
		<linearGradient id="XMLID_119_" gradientUnits="userSpaceOnUse" x1="94.0218" y1="68.1369" x2="116.7197" y2="68.1369">
			<stop  offset="0" style="stop-color:#3C5185"/>
			<stop  offset="0.6002" style="stop-color:#445C95"/>
			<stop  offset="1" style="stop-color:#4A65A3"/>
		</linearGradient>
		<path id="XMLID_59_" class="st65" d="M105.4,55C99.1,51.4,94,54.4,94,61.6c0,7.2,5.1,16.1,11.3,19.7c6.2,3.6,11.3,0.7,11.3-6.6
			C116.7,67.5,111.6,58.6,105.4,55z"/>
		<linearGradient id="XMLID_120_" gradientUnits="userSpaceOnUse" x1="92.5418" y1="68.5069" x2="115.2396" y2="68.5069">
			<stop  offset="0" style="stop-color:#4A65A3"/>
			<stop  offset="0.3998" style="stop-color:#445C95"/>
			<stop  offset="1" style="stop-color:#3C5185"/>
		</linearGradient>
		<path id="XMLID_52_" class="st66" d="M103.9,55.4c-6.2-3.6-11.3-0.7-11.3,6.6c0,7.2,5.1,16.1,11.3,19.7c6.2,3.6,11.3,0.7,11.3-6.6
			C115.2,67.9,110.1,59,103.9,55.4z"/>
		<g id="XMLID_60_">
			<path id="XMLID_61_" class="st61" d="M107.3,73c0.3,0.1,0.5,0,0.7-0.3c0.2-0.4,0.3-0.9,0.3-1.6c0-1.5-0.4-3-1.1-4.4
				c-0.8-1.4-1.8-2.5-3-3.2c-1.3-0.7-2.3-0.8-3.2-0.3c-0.9,0.6-1.3,1.6-1.3,3s0.4,2.9,1.2,4.3c0.8,1.4,1.8,2.5,3,3.2
				c0.9,0.5,1.8,0.6,2.5,0.2l0.6,1.5c-0.4,0.2-0.8,0.2-1.4,0.1c-0.6-0.1-1.1-0.3-1.6-0.6c-1.6-0.9-2.9-2.2-3.9-4
				c-1-1.8-1.6-3.6-1.6-5.4s0.6-3,1.7-3.7c1.1-0.6,2.4-0.5,4,0.4c1.6,0.9,2.9,2.2,3.9,4.1c1,1.8,1.6,3.6,1.6,5.5
				c0,1.2-0.2,2-0.6,2.5c-0.4,0.5-1,0.5-1.7,0.1c-0.4-0.2-0.7-0.5-1-0.9c-0.3-0.4-0.5-0.8-0.6-1.3c-0.5,0.5-1.2,0.5-1.9,0
				c-0.8-0.4-1.5-1.2-2.1-2.2c-0.6-1-0.9-2.1-0.9-3.1c0-1.1,0.3-1.8,0.8-2.2c0.5-0.4,1.2-0.4,2.1,0.1c0.3,0.2,0.6,0.4,0.8,0.7
				c0.3,0.3,0.4,0.5,0.6,0.7l0.2,0.3v-0.7l1.7,1v5.2C106.9,72.5,107,72.8,107.3,73z M105.1,69.3c0-0.5-0.1-1.1-0.4-1.6
				c-0.2-0.5-0.6-0.9-1-1.1c-0.4-0.2-0.7-0.2-1,0c-0.2,0.2-0.4,0.6-0.4,1.1c0,0.5,0.1,1,0.4,1.6c0.2,0.5,0.6,0.9,1,1.1
				c0.4,0.2,0.7,0.2,1,0C105,70.3,105.1,69.9,105.1,69.3z"/>
		</g>
	</g>
	<g id="XMLID_138_">
		
			<linearGradient id="SVGID_1_" gradientUnits="userSpaceOnUse" x1="465.8488" y1="125.3207" x2="469.1895" y2="125.3207" gradientTransform="matrix(-1 0 0 1 658.151 0)">
			<stop  offset="0" style="stop-color:#4A65A3"/>
			<stop  offset="0.3998" style="stop-color:#445C95"/>
			<stop  offset="1" style="stop-color:#3C5185"/>
		</linearGradient>
		<path class="st67" d="M190.5,127.2c-0.8-0.5-1.5-1.6-1.5-2.6c0-0.5,0.2-0.9,0.6-1.1c0.4-0.2,0.8-0.2,1.3,0.1
			c0.9,0.5,1.5,1.6,1.5,2.6c0,0.5-0.2,0.9-0.6,1.1c-0.2,0.1-0.3,0.1-0.5,0.1C191,127.4,190.7,127.3,190.5,127.2z M190.2,124.5
			c-0.1,0.1-0.1,0.2-0.1,0.4c0,0.4,0.3,1,0.7,1.2c0.1,0.1,0.3,0.1,0.4,0.1c0.1-0.1,0.1-0.2,0.1-0.4c0-0.4-0.3-1-0.7-1.2
			c-0.1-0.1-0.2-0.1-0.3-0.1C190.2,124.5,190.2,124.5,190.2,124.5z"/>
	</g>
	<g id="XMLID_286_">
		
			<linearGradient id="SVGID_2_" gradientUnits="userSpaceOnUse" x1="581.822" y1="117.8147" x2="585.1627" y2="117.8147" gradientTransform="matrix(-1 0 0 1 658.151 0)">
			<stop  offset="0" style="stop-color:#4A65A3"/>
			<stop  offset="0.3998" style="stop-color:#445C95"/>
			<stop  offset="1" style="stop-color:#3C5185"/>
		</linearGradient>
		<path class="st68" d="M74.5,119.7c-0.8-0.5-1.5-1.6-1.5-2.6c0-0.5,0.2-0.9,0.6-1.1c0.4-0.2,0.8-0.2,1.3,0.1
			c0.9,0.5,1.5,1.6,1.5,2.6c0,0.5-0.2,0.9-0.6,1.1c-0.2,0.1-0.3,0.1-0.5,0.1C75,119.9,74.8,119.8,74.5,119.7z M74.2,117
			c-0.1,0.1-0.1,0.2-0.1,0.4c0,0.4,0.3,1,0.7,1.2c0.1,0.1,0.3,0.1,0.4,0.1c0.1-0.1,0.1-0.2,0.1-0.4c0-0.4-0.3-1-0.7-1.2
			c-0.1-0.1-0.2-0.1-0.3-0.1C74.3,117,74.2,117,74.2,117z"/>
	</g>
	<g id="XMLID_283_">
		
			<linearGradient id="SVGID_3_" gradientUnits="userSpaceOnUse" x1="502.8394" y1="106.8778" x2="506.1801" y2="106.8778" gradientTransform="matrix(-1 0 0 1 658.151 0)">
			<stop  offset="0" style="stop-color:#4A65A3"/>
			<stop  offset="0.3998" style="stop-color:#445C95"/>
			<stop  offset="1" style="stop-color:#3C5185"/>
		</linearGradient>
		<path class="st69" d="M153.5,108.7c-0.8-0.5-1.5-1.6-1.5-2.6c0-0.5,0.2-0.9,0.6-1.1c0.4-0.2,0.8-0.2,1.3,0.1
			c0.9,0.5,1.5,1.6,1.5,2.6c0,0.5-0.2,0.9-0.6,1.1c-0.2,0.1-0.3,0.1-0.5,0.1C154,108.9,153.7,108.9,153.5,108.7z M153.2,106.1
			c-0.1,0.1-0.1,0.2-0.1,0.4c0,0.4,0.3,1,0.7,1.2c0.1,0.1,0.3,0.1,0.4,0.1c0.1-0.1,0.1-0.2,0.1-0.4c0-0.4-0.3-1-0.7-1.2
			c-0.1-0.1-0.2-0.1-0.3-0.1C153.3,106,153.2,106.1,153.2,106.1z"/>
	</g>
	<g id="XMLID_296_">
		
			<linearGradient id="SVGID_4_" gradientUnits="userSpaceOnUse" x1="532.3992" y1="71.9154" x2="535.7399" y2="71.9154" gradientTransform="matrix(-1 0 0 1 658.151 0)">
			<stop  offset="0" style="stop-color:#4A65A3"/>
			<stop  offset="0.3998" style="stop-color:#445C95"/>
			<stop  offset="1" style="stop-color:#3C5185"/>
		</linearGradient>
		<path class="st70" d="M123.9,73.8c-0.8-0.5-1.5-1.6-1.5-2.6c0-0.5,0.2-0.9,0.6-1.1c0.4-0.2,0.8-0.2,1.3,0.1
			c0.9,0.5,1.5,1.6,1.5,2.6c0,0.5-0.2,0.9-0.6,1.1c-0.2,0.1-0.3,0.1-0.5,0.1C124.4,74,124.2,73.9,123.9,73.8z M123.6,71.1
			c-0.1,0.1-0.1,0.2-0.1,0.4c0,0.4,0.3,1,0.7,1.2c0.1,0.1,0.3,0.1,0.4,0.1c0.1-0.1,0.1-0.2,0.1-0.4c0-0.4-0.3-1-0.7-1.2
			c-0.1-0.1-0.2-0.1-0.3-0.1C123.7,71.1,123.7,71.1,123.6,71.1z"/>
	</g>
	<g id="XMLID_139_">
		
			<linearGradient id="SVGID_5_" gradientUnits="userSpaceOnUse" x1="458.1853" y1="116.6264" x2="463.5504" y2="116.6264" gradientTransform="matrix(-1 0 0 1 658.151 0)">
			<stop  offset="0" style="stop-color:#4A65A3"/>
			<stop  offset="0.3998" style="stop-color:#445C95"/>
			<stop  offset="1" style="stop-color:#3C5185"/>
		</linearGradient>
		<path class="st71" d="M197,119.6c-1.4-0.8-2.4-2.6-2.4-4.2c0-0.9,0.3-1.5,0.9-1.8c0.6-0.3,1.3-0.3,2,0.1c1.4,0.8,2.4,2.6,2.4,4.2
			c0,0.9-0.3,1.5-0.9,1.8c-0.2,0.1-0.5,0.2-0.8,0.2C197.9,119.9,197.5,119.8,197,119.6z M196.5,115.3c-0.1,0.1-0.2,0.3-0.2,0.6
			c0,0.7,0.5,1.6,1.1,1.9c0.2,0.1,0.5,0.2,0.6,0.1c0.1-0.1,0.2-0.3,0.2-0.6c0-0.7-0.5-1.6-1.1-1.9c-0.2-0.1-0.3-0.1-0.4-0.1
			C196.7,115.3,196.6,115.3,196.5,115.3z"/>
	</g>
	<g id="XMLID_290_">
		
			<linearGradient id="SVGID_6_" gradientUnits="userSpaceOnUse" x1="487.8872" y1="71.9154" x2="493.2523" y2="71.9154" gradientTransform="matrix(-1 0 0 1 658.151 0)">
			<stop  offset="0" style="stop-color:#4A65A3"/>
			<stop  offset="0.3998" style="stop-color:#445C95"/>
			<stop  offset="1" style="stop-color:#3C5185"/>
		</linearGradient>
		<path class="st72" d="M167.3,74.9c-1.4-0.8-2.4-2.6-2.4-4.2c0-0.9,0.3-1.5,0.9-1.8c0.6-0.3,1.3-0.3,2,0.1c1.4,0.8,2.4,2.6,2.4,4.2
			c0,0.9-0.3,1.5-0.9,1.8c-0.2,0.1-0.5,0.2-0.8,0.2C168.2,75.2,167.7,75.1,167.3,74.9z M166.8,70.6c-0.1,0.1-0.2,0.3-0.2,0.6
			c0,0.7,0.5,1.6,1.1,1.9c0.2,0.1,0.5,0.2,0.6,0.1c0.1-0.1,0.2-0.3,0.2-0.6c0-0.7-0.5-1.6-1.1-1.9c-0.2-0.1-0.3-0.1-0.4-0.1
			C167,70.6,166.9,70.6,166.8,70.6z"/>
	</g>
	<g id="XMLID_289_">
		
			<linearGradient id="SVGID_7_" gradientUnits="userSpaceOnUse" x1="588.7451" y1="94.4411" x2="594.1102" y2="94.4411" gradientTransform="matrix(-1 0 0 1 658.151 0)">
			<stop  offset="0" style="stop-color:#4A65A3"/>
			<stop  offset="0.3998" style="stop-color:#445C95"/>
			<stop  offset="1" style="stop-color:#3C5185"/>
		</linearGradient>
		<path class="st73" d="M66.5,97.4c-1.4-0.8-2.4-2.6-2.4-4.2c0-0.9,0.3-1.5,0.9-1.8c0.6-0.3,1.3-0.3,2,0.1c1.4,0.8,2.4,2.6,2.4,4.2
			c0,0.9-0.3,1.5-0.9,1.8c-0.2,0.1-0.5,0.2-0.8,0.2C67.3,97.8,66.9,97.6,66.5,97.4z M66,93.2c-0.1,0.1-0.2,0.3-0.2,0.6
			c0,0.7,0.5,1.6,1.1,1.9c0.2,0.1,0.5,0.2,0.6,0.1s0.2-0.3,0.2-0.6c0-0.7-0.5-1.6-1.1-1.9c-0.2-0.1-0.3-0.1-0.4-0.1
			C66.1,93.1,66,93.1,66,93.2z"/>
	</g>
	<g id="XMLID_285_">
		
			<linearGradient id="SVGID_8_" gradientUnits="userSpaceOnUse" x1="597.2151" y1="114.5505" x2="602.5801" y2="114.5505" gradientTransform="matrix(-1 0 0 1 658.151 0)">
			<stop  offset="0" style="stop-color:#4A65A3"/>
			<stop  offset="0.3998" style="stop-color:#445C95"/>
			<stop  offset="1" style="stop-color:#3C5185"/>
		</linearGradient>
		<path class="st74" d="M58,117.5c-1.4-0.8-2.4-2.6-2.4-4.2c0-0.9,0.3-1.5,0.9-1.8c0.6-0.3,1.3-0.3,2,0.1c1.4,0.8,2.4,2.6,2.4,4.2
			c0,0.9-0.3,1.5-0.9,1.8c-0.2,0.1-0.5,0.2-0.8,0.2C58.8,117.9,58.4,117.7,58,117.5z M57.5,113.3c-0.1,0.1-0.2,0.3-0.2,0.6
			c0,0.7,0.5,1.6,1.1,1.9c0.2,0.1,0.5,0.2,0.6,0.1c0.1-0.1,0.2-0.3,0.2-0.6c0-0.7-0.5-1.6-1.1-1.9c-0.2-0.1-0.3-0.1-0.4-0.1
			C57.6,113.2,57.6,113.2,57.5,113.3z"/>
	</g>
	<g id="XMLID_284_">
		
			<linearGradient id="SVGID_9_" gradientUnits="userSpaceOnUse" x1="510.019" y1="89.3608" x2="515.384" y2="89.3608" gradientTransform="matrix(-1 0 0 1 658.151 0)">
			<stop  offset="0" style="stop-color:#4A65A3"/>
			<stop  offset="0.3998" style="stop-color:#445C95"/>
			<stop  offset="1" style="stop-color:#3C5185"/>
		</linearGradient>
		<path class="st75" d="M145.2,92.3c-1.4-0.8-2.4-2.6-2.4-4.2c0-0.9,0.3-1.5,0.9-1.8c0.6-0.3,1.3-0.3,2,0.1c1.4,0.8,2.4,2.6,2.4,4.2
			c0,0.9-0.3,1.5-0.9,1.8c-0.2,0.1-0.5,0.2-0.8,0.2C146,92.7,145.6,92.6,145.2,92.3z M144.7,88.1c-0.1,0.1-0.2,0.3-0.2,0.6
			c0,0.7,0.5,1.6,1.1,1.9c0.2,0.1,0.5,0.2,0.6,0.1c0.1-0.1,0.2-0.3,0.2-0.6c0-0.7-0.5-1.6-1.1-1.9c-0.2-0.1-0.3-0.1-0.4-0.1
			C144.8,88,144.8,88,144.7,88.1z"/>
	</g>
	<g id="XMLID_163_">
		
			<linearGradient id="SVGID_10_" gradientUnits="userSpaceOnUse" x1="448.9209" y1="133.2739" x2="455.827" y2="133.2739" gradientTransform="matrix(-1 0 0 1 658.151 0)">
			<stop  offset="0" style="stop-color:#4A65A3"/>
			<stop  offset="0.3998" style="stop-color:#445C95"/>
			<stop  offset="1" style="stop-color:#3C5185"/>
		</linearGradient>
		<path class="st76" d="M205.5,137.1c-1.8-1-3.1-3.4-3.1-5.4c0-1.1,0.4-1.9,1.1-2.4c0.7-0.4,1.7-0.4,2.6,0.2c1.8,1,3.1,3.4,3.1,5.4
			c0,1.1-0.4,1.9-1.2,2.4c-0.3,0.2-0.7,0.3-1.1,0.3C206.5,137.5,206,137.4,205.5,137.1z M204.8,131.6c-0.2,0.1-0.3,0.4-0.3,0.7
			c0,0.9,0.7,2,1.4,2.5c0.3,0.2,0.6,0.2,0.8,0.1c0.2-0.1,0.3-0.4,0.3-0.7c0-0.9-0.7-2-1.4-2.5c-0.2-0.1-0.4-0.2-0.5-0.2
			C205,131.6,204.9,131.6,204.8,131.6z"/>
	</g>
	<g>
		<linearGradient id="XMLID_121_" gradientUnits="userSpaceOnUse" x1="125.0406" y1="56.0232" x2="154.9102" y2="73.9681">
			<stop  offset="0" style="stop-color:#4A65A3"/>
			<stop  offset="0.3559" style="stop-color:#48629E"/>
			<stop  offset="0.783" style="stop-color:#41588F"/>
			<stop  offset="1" style="stop-color:#3C5185"/>
		</linearGradient>
		<path id="XMLID_295_" class="st77" d="M125,45.9c-0.4-0.2-0.7,0-0.7,0.4l0,19.2c0,0.4,0.3,1,0.7,1.2l28.7,16.6
			c0.4,0.2,0.7,0,0.7-0.4V63.7c0-0.4-0.3-1-0.7-1.2L125,45.9z"/>
		<linearGradient id="XMLID_122_" gradientUnits="userSpaceOnUse" x1="125.1878" y1="55.7782" x2="155.0574" y2="73.7231">
			<stop  offset="0" style="stop-color:#3C5185"/>
			<stop  offset="0.217" style="stop-color:#41588F"/>
			<stop  offset="0.6441" style="stop-color:#48629E"/>
			<stop  offset="1" style="stop-color:#4A65A3"/>
		</linearGradient>
		<path id="XMLID_1_" class="st78" d="M153.7,62.5L125,45.9c-0.4-0.2-0.7,0-0.7,0.4v0.2l28.5,16.4c0.4,0.2,0.7,0.8,0.7,1.2v19
			l0.2,0.1c0.4,0.2,0.7,0,0.7-0.4V63.7C154.4,63.2,154,62.7,153.7,62.5z"/>
		<polygon id="XMLID_294_" class="st61" points="132.7,57.3 152,68.7 152,69.9 132.7,58.6 		"/>
		<polygon id="XMLID_293_" class="st61" points="132.7,61.1 152,72.5 152,73.7 132.7,62.4 		"/>
		<polygon id="XMLID_292_" class="st61" points="132.6,65 142.6,70.9 142.6,72.1 132.6,66.3 		"/>
		<path id="XMLID_291_" class="st61" d="M129.7,59.8c0.3-0.2,0.5-0.7,0.5-1.3c0-1.3-0.9-2.9-2.1-3.6c-1.1-0.7-2.1-0.1-2.1,1.2
			c0,0.9,0.4,1.9,1.1,2.7c-1.1,0.5-1.9,1.7-1.9,3v0.8l6.2,3.6v-1.7C131.4,62.9,130.8,61.2,129.7,59.8z"/>
	</g>
</g>
</svg>
