<?xml version="1.0" encoding="utf-8"?>
<!-- Generator: Adobe Illustrator 19.0.0, SVG Export Plug-In . SVG Version: 6.00 Build 0)  -->
<svg version="1.1" id="Layer_1" xmlns="http://www.w3.org/2000/svg" xmlns:xlink="http://www.w3.org/1999/xlink" x="0px" y="0px"
	 viewBox="0 0 256 256" style="enable-background:new 0 0 256 256;" xml:space="preserve">
<style type="text/css">
	.st0{fill:url(#XMLID_212_);}
	.st1{opacity:0.3;}
	.st2{fill:#3C5185;fill-opacity:0;}
	.st3{opacity:1.960800e-002;fill:#3C5185;enable-background:new    ;}
	.st4{opacity:3.921600e-002;fill:#3C5185;enable-background:new    ;}
	.st5{opacity:5.882400e-002;fill:#3C5185;enable-background:new    ;}
	.st6{opacity:7.843100e-002;fill:#3C5185;enable-background:new    ;}
	.st7{opacity:9.803900e-002;fill:#3C5185;enable-background:new    ;}
	.st8{opacity:0.1176;fill:#3C5185;enable-background:new    ;}
	.st9{opacity:0.1373;fill:#3C5185;enable-background:new    ;}
	.st10{opacity:0.1569;fill:#3C5185;enable-background:new    ;}
	.st11{opacity:0.1765;fill:#3C5185;enable-background:new    ;}
	.st12{opacity:0.1961;fill:#3C5185;enable-background:new    ;}
	.st13{opacity:0.2157;fill:#3C5185;enable-background:new    ;}
	.st14{opacity:0.2353;fill:#3C5185;enable-background:new    ;}
	.st15{opacity:0.2549;fill:#3C5185;enable-background:new    ;}
	.st16{opacity:0.2745;fill:#3C5185;enable-background:new    ;}
	.st17{opacity:0.2941;fill:#3C5185;enable-background:new    ;}
	.st18{opacity:0.3137;fill:#3C5185;enable-background:new    ;}
	.st19{opacity:0.3333;fill:#3C5185;enable-background:new    ;}
	.st20{opacity:0.3529;fill:#3C5185;enable-background:new    ;}
	.st21{opacity:0.3725;fill:#3C5185;enable-background:new    ;}
	.st22{opacity:0.3922;fill:#3C5185;enable-background:new    ;}
	.st23{opacity:0.4118;fill:#3C5185;enable-background:new    ;}
	.st24{opacity:0.4314;fill:#3C5185;enable-background:new    ;}
	.st25{opacity:0.451;fill:#3C5185;enable-background:new    ;}
	.st26{opacity:0.4706;fill:#3C5185;enable-background:new    ;}
	.st27{opacity:0.4902;fill:#3C5185;enable-background:new    ;}
	.st28{opacity:0.5098;fill:#3C5185;enable-background:new    ;}
	.st29{opacity:0.5294;fill:#3C5185;enable-background:new    ;}
	.st30{opacity:0.549;fill:#3C5185;enable-background:new    ;}
	.st31{opacity:0.5686;fill:#3C5185;enable-background:new    ;}
	.st32{opacity:0.5882;fill:#3C5185;enable-background:new    ;}
	.st33{opacity:0.6078;fill:#3C5185;enable-background:new    ;}
	.st34{opacity:0.6275;fill:#3C5185;enable-background:new    ;}
	.st35{opacity:0.6471;fill:#3C5185;enable-background:new    ;}
	.st36{opacity:0.6667;fill:#3C5185;enable-background:new    ;}
	.st37{opacity:0.6863;fill:#3C5185;enable-background:new    ;}
	.st38{opacity:0.7059;fill:#3C5185;enable-background:new    ;}
	.st39{opacity:0.7255;fill:#3C5185;enable-background:new    ;}
	.st40{opacity:0.7451;fill:#3C5185;enable-background:new    ;}
	.st41{opacity:0.7647;fill:#3C5185;enable-background:new    ;}
	.st42{opacity:0.7843;fill:#3C5185;enable-background:new    ;}
	.st43{opacity:0.8039;fill:#3C5185;enable-background:new    ;}
	.st44{opacity:0.8235;fill:#3C5185;enable-background:new    ;}
	.st45{opacity:0.8431;fill:#3C5185;enable-background:new    ;}
	.st46{opacity:0.8627;fill:#3C5185;enable-background:new    ;}
	.st47{opacity:0.8824;fill:#3C5185;enable-background:new    ;}
	.st48{opacity:0.902;fill:#3C5185;enable-background:new    ;}
	.st49{opacity:0.9216;fill:#3C5185;enable-background:new    ;}
	.st50{opacity:0.9412;fill:#3C5185;enable-background:new    ;}
	.st51{opacity:0.9608;fill:#3C5185;enable-background:new    ;}
	.st52{opacity:0.9804;fill:#3C5185;enable-background:new    ;}
	.st53{fill:#3C5185;}
	.st54{fill:url(#XMLID_213_);}
	.st55{fill:#F6F9FC;}
	.st56{fill:#D1E1F2;}
	.st57{fill:url(#XMLID_214_);}
	.st58{fill:url(#XMLID_215_);}
	.st59{fill:#FFFFFF;}
	.st60{opacity:0.1;fill:#FFFFFF;enable-background:new    ;}
	.st61{opacity:3.225800e-002;fill:#3C5185;enable-background:new    ;}
	.st62{opacity:6.451600e-002;fill:#3C5185;enable-background:new    ;}
	.st63{opacity:9.677400e-002;fill:#3C5185;enable-background:new    ;}
	.st64{opacity:0.129;fill:#3C5185;enable-background:new    ;}
	.st65{opacity:0.1613;fill:#3C5185;enable-background:new    ;}
	.st66{opacity:0.1935;fill:#3C5185;enable-background:new    ;}
	.st67{opacity:0.2258;fill:#3C5185;enable-background:new    ;}
	.st68{opacity:0.2581;fill:#3C5185;enable-background:new    ;}
	.st69{opacity:0.2903;fill:#3C5185;enable-background:new    ;}
	.st70{opacity:0.3226;fill:#3C5185;enable-background:new    ;}
	.st71{opacity:0.3548;fill:#3C5185;enable-background:new    ;}
	.st72{opacity:0.3871;fill:#3C5185;enable-background:new    ;}
	.st73{opacity:0.4194;fill:#3C5185;enable-background:new    ;}
	.st74{opacity:0.4516;fill:#3C5185;enable-background:new    ;}
	.st75{opacity:0.4839;fill:#3C5185;enable-background:new    ;}
	.st76{opacity:0.5161;fill:#3C5185;enable-background:new    ;}
	.st77{opacity:0.5484;fill:#3C5185;enable-background:new    ;}
	.st78{opacity:0.5806;fill:#3C5185;enable-background:new    ;}
	.st79{opacity:0.6129;fill:#3C5185;enable-background:new    ;}
	.st80{opacity:0.6452;fill:#3C5185;enable-background:new    ;}
	.st81{opacity:0.6774;fill:#3C5185;enable-background:new    ;}
	.st82{opacity:0.7097;fill:#3C5185;enable-background:new    ;}
	.st83{opacity:0.7419;fill:#3C5185;enable-background:new    ;}
	.st84{opacity:0.7742;fill:#3C5185;enable-background:new    ;}
	.st85{opacity:0.8065;fill:#3C5185;enable-background:new    ;}
	.st86{opacity:0.8387;fill:#3C5185;enable-background:new    ;}
	.st87{opacity:0.871;fill:#3C5185;enable-background:new    ;}
	.st88{opacity:0.9032;fill:#3C5185;enable-background:new    ;}
	.st89{opacity:0.9355;fill:#3C5185;enable-background:new    ;}
	.st90{opacity:0.9677;fill:#3C5185;enable-background:new    ;}
	.st91{fill:url(#XMLID_216_);}
	.st92{fill:#4A65A3;}
	.st93{fill:url(#XMLID_217_);}
	.st94{fill:#A5CBEF;}
	.st95{opacity:0.2;}
	.st96{fill:url(#XMLID_218_);}
	.st97{fill:url(#XMLID_220_);}
	.st98{fill:url(#XMLID_221_);}
	.st99{opacity:0.11;fill:#3C5185;enable-background:new    ;}
	.st100{fill:#FF9800;}
	.st101{fill:url(#XMLID_222_);}
	.st102{fill:#E6E7E8;}
	.st103{fill:#F1F2F2;}
	.st104{fill:#FAFAFA;}
	.st105{opacity:8.000000e-002;fill:#231F20;enable-background:new    ;}
	.st106{fill:url(#XMLID_223_);}
	.st107{fill:url(#XMLID_224_);}
	.st108{fill:url(#XMLID_225_);}
	.st109{fill:url(#XMLID_226_);}
	.st110{fill:#F2B1B5;}
	.st111{fill:#384C7A;}
	.st112{opacity:2.439000e-002;fill:#3C5185;enable-background:new    ;}
	.st113{opacity:4.878000e-002;fill:#3C5185;enable-background:new    ;}
	.st114{opacity:7.317100e-002;fill:#3C5185;enable-background:new    ;}
	.st115{opacity:9.756100e-002;fill:#3C5185;enable-background:new    ;}
	.st116{opacity:0.122;fill:#3C5185;enable-background:new    ;}
	.st117{opacity:0.1463;fill:#3C5185;enable-background:new    ;}
	.st118{opacity:0.1707;fill:#3C5185;enable-background:new    ;}
	.st119{opacity:0.1951;fill:#3C5185;enable-background:new    ;}
	.st120{opacity:0.2195;fill:#3C5185;enable-background:new    ;}
	.st121{opacity:0.2439;fill:#3C5185;enable-background:new    ;}
	.st122{opacity:0.2683;fill:#3C5185;enable-background:new    ;}
	.st123{opacity:0.2927;fill:#3C5185;enable-background:new    ;}
	.st124{opacity:0.3171;fill:#3C5185;enable-background:new    ;}
	.st125{opacity:0.3415;fill:#3C5185;enable-background:new    ;}
	.st126{opacity:0.3659;fill:#3C5185;enable-background:new    ;}
	.st127{opacity:0.3902;fill:#3C5185;enable-background:new    ;}
	.st128{opacity:0.4146;fill:#3C5185;enable-background:new    ;}
	.st129{opacity:0.439;fill:#3C5185;enable-background:new    ;}
	.st130{opacity:0.4634;fill:#3C5185;enable-background:new    ;}
	.st131{opacity:0.4878;fill:#3C5185;enable-background:new    ;}
	.st132{opacity:0.5122;fill:#3C5185;enable-background:new    ;}
	.st133{opacity:0.5366;fill:#3C5185;enable-background:new    ;}
	.st134{opacity:0.561;fill:#3C5185;enable-background:new    ;}
	.st135{opacity:0.5854;fill:#3C5185;enable-background:new    ;}
	.st136{opacity:0.6098;fill:#3C5185;enable-background:new    ;}
	.st137{opacity:0.6341;fill:#3C5185;enable-background:new    ;}
	.st138{opacity:0.6585;fill:#3C5185;enable-background:new    ;}
	.st139{opacity:0.6829;fill:#3C5185;enable-background:new    ;}
	.st140{opacity:0.7073;fill:#3C5185;enable-background:new    ;}
	.st141{opacity:0.7317;fill:#3C5185;enable-background:new    ;}
	.st142{opacity:0.7561;fill:#3C5185;enable-background:new    ;}
	.st143{opacity:0.7805;fill:#3C5185;enable-background:new    ;}
	.st144{opacity:0.8049;fill:#3C5185;enable-background:new    ;}
	.st145{opacity:0.8293;fill:#3C5185;enable-background:new    ;}
	.st146{opacity:0.8537;fill:#3C5185;enable-background:new    ;}
	.st147{opacity:0.878;fill:#3C5185;enable-background:new    ;}
	.st148{opacity:0.9024;fill:#3C5185;enable-background:new    ;}
	.st149{opacity:0.9268;fill:#3C5185;enable-background:new    ;}
	.st150{opacity:0.9512;fill:#3C5185;enable-background:new    ;}
	.st151{opacity:0.9756;fill:#3C5185;enable-background:new    ;}
	.st152{fill:#B7D5F2;}
	.st153{fill:#C9E0F5;}
	.st154{fill:#DBEAF9;}
	.st155{opacity:0.3;fill:#231F20;enable-background:new    ;}
	.st156{fill:#FFC107;}
	.st157{fill:#FFAD33;}
	.st158{fill:#FFCD39;}
	.st159{fill:url(#XMLID_227_);}
</style>
<g>
	
		<linearGradient id="XMLID_212_" gradientUnits="userSpaceOnUse" x1="148.3775" y1="40.9163" x2="99.2164" y2="201.2246" gradientTransform="matrix(1 0 0 -1 0 256)">
		<stop  offset="0.1103" style="stop-color:#FFFFFF"/>
		<stop  offset="1" style="stop-color:#E1EBF7"/>
	</linearGradient>
	<path id="XMLID_210_" class="st0" d="M209.5,142.2c0,42.4-41.9,72.4-84.4,72.4s-81.9-29.9-81.9-72.4s25.4-88.4,67.9-88.4
		S209.5,99.8,209.5,142.2z"/>
	<g id="XMLID_303_">
		<g id="XMLID_1097_" class="st1">
			<path id="XMLID_1561_" class="st2" d="M117.5,118.8c1.4-0.8,1.4-2.1,0-2.9L80,94.3c-1.4-0.8-3.6-0.8-5,0L54.8,106
				c-1.4,0.8-1.4,2.1,0,2.9l37.6,21.7c1.4,0.8,3.6,0.8,5,0L117.5,118.8z"/>
			<path id="XMLID_1560_" class="st3" d="M117.5,118.8c1.4-0.8,1.4-2.1,0-2.9L80,94.3c-1.4-0.8-3.6-0.8-5,0L55,106
				c-1.4,0.8-1.4,2.1,0,2.9l37.4,21.6c1.4,0.8,3.6,0.8,5,0L117.5,118.8z"/>
			<path id="XMLID_1559_" class="st4" d="M117.4,118.8c1.4-0.8,1.4-2.1,0-2.8L80.1,94.4c-1.4-0.8-3.6-0.8-4.9,0l-20,11.6
				c-1.4,0.8-1.4,2.1,0,2.8l37.3,21.5c1.4,0.8,3.6,0.8,4.9,0L117.4,118.8z"/>
			<path id="XMLID_1518_" class="st5" d="M117.3,118.8c1.4-0.8,1.4-2.1,0-2.8L80.1,94.5c-1.4-0.8-3.6-0.8-4.9,0l-20,11.5
				c-1.4,0.8-1.4,2.1,0,2.8l37.2,21.5c1.4,0.8,3.6,0.8,4.9,0L117.3,118.8z"/>
			<path id="XMLID_1517_" class="st6" d="M117.2,118.7c1.3-0.8,1.3-2.1,0-2.8l-37-21.4c-1.3-0.8-3.6-0.8-4.9,0l-20,11.5
				c-1.3,0.8-1.3,2.1,0,2.8l37.1,21.4c1.3,0.8,3.6,0.8,4.9,0L117.2,118.7z"/>
			<path id="XMLID_1516_" class="st7" d="M117.1,118.7c1.3-0.8,1.3-2,0-2.8L80.2,94.6c-1.3-0.8-3.5-0.8-4.9,0l-19.8,11.5
				c-1.3,0.8-1.3,2,0,2.8l36.9,21.3c1.3,0.8,3.5,0.8,4.9,0L117.1,118.7z"/>
			<path id="XMLID_1515_" class="st8" d="M117,118.7c1.3-0.8,1.3-2,0-2.8L80.2,94.7c-1.3-0.8-3.5-0.8-4.9,0l-19.8,11.4
				c-1.3,0.8-1.3,2,0,2.8l36.8,21.2c1.3,0.8,3.5,0.8,4.9,0L117,118.7z"/>
			<path id="XMLID_1514_" class="st9" d="M117,118.7c1.3-0.8,1.3-2,0-2.8L80.3,94.7c-1.3-0.8-3.5-0.8-4.8,0l-19.7,11.4
				c-1.3,0.8-1.3,2,0,2.8l36.7,21.2c1.3,0.8,3.5,0.8,4.8,0L117,118.7z"/>
			<path id="XMLID_1513_" class="st10" d="M116.9,118.7c1.3-0.8,1.3-2,0-2.8L80.3,94.8c-1.3-0.8-3.5-0.8-4.8,0l-19.6,11.3
				c-1.3,0.8-1.3,2,0,2.8L92.4,130c1.3,0.8,3.5,0.8,4.8,0L116.9,118.7z"/>
			<path id="XMLID_1512_" class="st11" d="M116.8,118.6c1.3-0.8,1.3-2,0-2.8l-36.4-21c-1.3-0.8-3.5-0.8-4.8,0L56,106.1
				c-1.3,0.8-1.3,2,0,2.8l36.4,21c1.3,0.8,3.5,0.8,4.8,0L116.8,118.6z"/>
			<path id="XMLID_1511_" class="st12" d="M116.7,118.6c1.3-0.8,1.3-2,0-2.8L80.4,94.9c-1.3-0.8-3.5-0.8-4.8,0l-19.5,11.3
				c-1.3,0.8-1.3,2,0,2.8l36.3,20.9c1.3,0.8,3.5,0.8,4.8,0L116.7,118.6z"/>
			<path id="XMLID_1510_" class="st13" d="M116.6,118.6c1.3-0.8,1.3-2,0-2.8L80.5,95c-1.3-0.8-3.5-0.8-4.8,0l-19.4,11.2
				c-1.3,0.8-1.3,2,0,2.8l36.2,20.9c1.3,0.8,3.5,0.8,4.8,0L116.6,118.6z"/>
			<path id="XMLID_1509_" class="st14" d="M116.6,118.6c1.3-0.8,1.3-2,0-2.7L80.5,95c-1.3-0.8-3.5-0.8-4.8,0l-19.4,11.2
				c-1.3,0.8-1.3,2,0,2.7l36,20.8c1.3,0.8,3.5,0.8,4.8,0L116.6,118.6z"/>
			<path id="XMLID_1508_" class="st15" d="M116.5,118.5c1.3-0.8,1.3-2,0-2.7L80.6,95.1c-1.3-0.8-3.4-0.8-4.7,0l-19.3,11.1
				c-1.3,0.8-1.3,2,0,2.7l35.9,20.7c1.3,0.8,3.4,0.8,4.7,0L116.5,118.5z"/>
			<path id="XMLID_1507_" class="st16" d="M116.4,118.5c1.3-0.8,1.3-2,0-2.7L80.6,95.2c-1.3-0.8-3.4-0.8-4.7,0l-19.2,11.1
				c-1.3,0.8-1.3,2,0,2.7l35.8,20.6c1.3,0.8,3.4,0.8,4.7,0L116.4,118.5z"/>
			<path id="XMLID_1506_" class="st17" d="M116.3,118.5c1.3-0.7,1.3-2,0-2.7L80.7,95.2c-1.3-0.7-3.4-0.7-4.7,0l-19.1,11.1
				c-1.3,0.7-1.3,2,0,2.7l35.6,20.6c1.3,0.7,3.4,0.7,4.7,0L116.3,118.5z"/>
			<path id="XMLID_1505_" class="st18" d="M116.2,118.5c1.3-0.7,1.3-2,0-2.7L80.7,95.3c-1.3-0.7-3.4-0.7-4.7,0l-19.1,11
				c-1.3,0.7-1.3,2,0,2.7l35.5,20.5c1.3,0.7,3.4,0.7,4.7,0L116.2,118.5z"/>
			<path id="XMLID_1504_" class="st19" d="M116.1,118.5c1.3-0.7,1.3-2,0-2.7L80.8,95.3c-1.3-0.7-3.4-0.7-4.7,0l-19,11
				c-1.3,0.7-1.3,2,0,2.7l35.4,20.4c1.3,0.7,3.4,0.7,4.7,0L116.1,118.5z"/>
			<path id="XMLID_1503_" class="st20" d="M116.1,118.4c1.3-0.7,1.3-2,0-2.7L80.8,95.4c-1.3-0.7-3.4-0.7-4.7,0l-18.9,10.9
				c-1.3,0.7-1.3,2,0,2.7l35.3,20.3c1.3,0.7,3.4,0.7,4.7,0L116.1,118.4z"/>
			<path id="XMLID_1502_" class="st21" d="M116,118.4c1.3-0.7,1.3-1.9,0-2.7L80.8,95.5c-1.3-0.7-3.4-0.7-4.6,0l-18.9,10.9
				c-1.3,0.7-1.3,1.9,0,2.7l35.1,20.3c1.3,0.7,3.4,0.7,4.6,0L116,118.4z"/>
			<path id="XMLID_1501_" class="st22" d="M115.9,118.4c1.3-0.7,1.3-1.9,0-2.7l-35-20.2c-1.3-0.7-3.4-0.7-4.6,0l-18.8,10.9
				c-1.3,0.7-1.3,1.9,0,2.7l35,20.2c1.3,0.7,3.4,0.7,4.6,0L115.9,118.4z"/>
			<path id="XMLID_1500_" class="st23" d="M115.8,118.4c1.3-0.7,1.3-1.9,0-2.7L80.9,95.6c-1.3-0.7-3.3-0.7-4.6,0l-18.7,10.8
				c-1.3,0.7-1.3,1.9,0,2.7l34.9,20.1c1.3,0.7,3.3,0.7,4.6,0L115.8,118.4z"/>
			<path id="XMLID_1499_" class="st24" d="M115.7,118.3c1.3-0.7,1.3-1.9,0-2.7L81,95.7c-1.3-0.7-3.3-0.7-4.6,0l-18.7,10.8
				c-1.3,0.7-1.3,1.9,0,2.7l34.7,20c1.3,0.7,3.3,0.7,4.6,0L115.7,118.3z"/>
			<path id="XMLID_1498_" class="st25" d="M115.6,118.3c1.3-0.7,1.3-1.9,0-2.6L81,95.7c-1.3-0.7-3.3-0.7-4.6,0l-18.6,10.7
				c-1.3,0.7-1.3,1.9,0,2.6l34.6,20c1.3,0.7,3.3,0.7,4.6,0L115.6,118.3z"/>
			<path id="XMLID_1497_" class="st26" d="M115.6,118.3c1.3-0.7,1.3-1.9,0-2.6L81.1,95.8c-1.3-0.7-3.3-0.7-4.6,0L58,106.5
				c-1.3,0.7-1.3,1.9,0,2.6L92.5,129c1.3,0.7,3.3,0.7,4.6,0L115.6,118.3z"/>
			<path id="XMLID_1496_" class="st27" d="M115.5,118.3c1.2-0.7,1.2-1.9,0-2.6L81.1,95.8c-1.2-0.7-3.3-0.7-4.5,0l-18.5,10.7
				c-1.2,0.7-1.2,1.9,0,2.6l34.3,19.8c1.2,0.7,3.3,0.7,4.5,0L115.5,118.3z"/>
			<path id="XMLID_1495_" class="st28" d="M115.4,118.3c1.2-0.7,1.2-1.9,0-2.6L81.2,95.9c-1.2-0.7-3.3-0.7-4.5,0l-18.4,10.6
				c-1.2,0.7-1.2,1.9,0,2.6l34.2,19.7c1.2,0.7,3.3,0.7,4.5,0L115.4,118.3z"/>
			<path id="XMLID_1494_" class="st29" d="M115.3,118.2c1.2-0.7,1.2-1.9,0-2.6L81.2,96c-1.2-0.7-3.3-0.7-4.5,0l-18.3,10.6
				c-1.2,0.7-1.2,1.9,0,2.6l34.1,19.7c1.2,0.7,3.3,0.7,4.5,0L115.3,118.2z"/>
			<path id="XMLID_1493_" class="st30" d="M115.2,118.2c1.2-0.7,1.2-1.9,0-2.6L81.3,96c-1.2-0.7-3.3-0.7-4.5,0l-18.2,10.5
				c-1.2,0.7-1.2,1.9,0,2.6l34,19.6c1.2,0.7,3.3,0.7,4.5,0L115.2,118.2z"/>
			<path id="XMLID_1492_" class="st31" d="M115.1,118.2c1.2-0.7,1.2-1.9,0-2.6L81.3,96.1c-1.2-0.7-3.2-0.7-4.5,0l-18.2,10.5
				c-1.2,0.7-1.2,1.9,0,2.6l33.8,19.5c1.2,0.7,3.2,0.7,4.5,0L115.1,118.2z"/>
			<path id="XMLID_1491_" class="st32" d="M115.1,118.2c1.2-0.7,1.2-1.9,0-2.6L81.4,96.2c-1.2-0.7-3.2-0.7-4.5,0l-18.1,10.5
				c-1.2,0.7-1.2,1.9,0,2.6l33.7,19.4c1.2,0.7,3.2,0.7,4.5,0L115.1,118.2z"/>
			<path id="XMLID_1490_" class="st33" d="M115,118.1c1.2-0.7,1.2-1.9,0-2.6L81.4,96.2c-1.2-0.7-3.2-0.7-4.4,0l-18,10.4
				c-1.2,0.7-1.2,1.9,0,2.6l33.6,19.4c1.2,0.7,3.2,0.7,4.4,0L115,118.1z"/>
			<path id="XMLID_1457_" class="st34" d="M114.9,118.1c1.2-0.7,1.2-1.9,0-2.6L81.4,96.3c-1.2-0.7-3.2-0.7-4.4,0l-18,10.4
				c-1.2,0.7-1.2,1.9,0,2.6l33.4,19.3c1.2,0.7,3.2,0.7,4.4,0L114.9,118.1z"/>
			<path id="XMLID_1456_" class="st35" d="M114.8,118.1c1.2-0.7,1.2-1.8,0-2.5L81.5,96.3c-1.2-0.7-3.2-0.7-4.4,0l-17.9,10.3
				c-1.2,0.7-1.2,1.8,0,2.5l33.3,19.2c1.2,0.7,3.2,0.7,4.4,0L114.8,118.1z"/>
			<path id="XMLID_1450_" class="st36" d="M114.7,118.1c1.2-0.7,1.2-1.8,0-2.5L81.5,96.4c-1.2-0.7-3.2-0.7-4.4,0l-17.8,10.3
				c-1.2,0.7-1.2,1.8,0,2.5l33.2,19.1c1.2,0.7,3.2,0.7,4.4,0L114.7,118.1z"/>
			<path id="XMLID_1143_" class="st37" d="M114.6,118.1c1.2-0.7,1.2-1.8,0-2.5l-33-19.1c-1.2-0.7-3.2-0.7-4.4,0l-17.8,10.3
				c-1.2,0.7-1.2,1.8,0,2.5l33.1,19.1c1.2,0.7,3.2,0.7,4.4,0L114.6,118.1z"/>
			<path id="XMLID_1142_" class="st38" d="M114.6,118c1.2-0.7,1.2-1.8,0-2.5l-32.9-19c-1.2-0.7-3.2-0.7-4.4,0l-17.7,10.2
				c-1.2,0.7-1.2,1.8,0,2.5l32.9,19c1.2,0.7,3.2,0.7,4.4,0L114.6,118z"/>
			<path id="XMLID_1141_" class="st39" d="M114.5,118c1.2-0.7,1.2-1.8,0-2.5L81.7,96.6c-1.2-0.7-3.1-0.7-4.3,0l-17.6,10.2
				c-1.2,0.7-1.2,1.8,0,2.5l32.8,18.9c1.2,0.7,3.1,0.7,4.3,0L114.5,118z"/>
			<path id="XMLID_1140_" class="st40" d="M114.4,118c1.2-0.7,1.2-1.8,0-2.5L81.7,96.6c-1.2-0.7-3.1-0.7-4.3,0l-17.6,10.1
				c-1.2,0.7-1.2,1.8,0,2.5L92.5,128c1.2,0.7,3.1,0.7,4.3,0L114.4,118z"/>
			<path id="XMLID_1139_" class="st41" d="M114.3,118c1.2-0.7,1.2-1.8,0-2.5L81.8,96.7c-1.2-0.7-3.1-0.7-4.3,0L60,106.8
				c-1.2,0.7-1.2,1.8,0,2.5l32.5,18.8c1.2,0.7,3.1,0.7,4.3,0L114.3,118z"/>
			<path id="XMLID_1138_" class="st42" d="M114.2,117.9c1.2-0.7,1.2-1.8,0-2.5L81.8,96.8c-1.2-0.7-3.1-0.7-4.3,0l-17.4,10.1
				c-1.2,0.7-1.2,1.8,0,2.5L92.5,128c1.2,0.7,3.1,0.7,4.3,0L114.2,117.9z"/>
			<path id="XMLID_1137_" class="st43" d="M114.1,117.9c1.2-0.7,1.2-1.8,0-2.5L81.9,96.8c-1.2-0.7-3.1-0.7-4.3,0l-17.3,10
				c-1.2,0.7-1.2,1.8,0,2.5l32.3,18.6c1.2,0.7,3.1,0.7,4.3,0L114.1,117.9z"/>
			<path id="XMLID_1136_" class="st44" d="M114.1,117.9c1.2-0.7,1.2-1.8,0-2.5L81.9,96.9c-1.2-0.7-3.1-0.7-4.3,0l-17.3,10
				c-1.2,0.7-1.2,1.8,0,2.5L92.5,128c1.2,0.7,3.1,0.7,4.3,0L114.1,117.9z"/>
			<path id="XMLID_1135_" class="st45" d="M114,117.9c1.2-0.7,1.2-1.8,0-2.4L82,97c-1.2-0.7-3.1-0.7-4.2,0l-17.2,9.9
				c-1.2,0.7-1.2,1.8,0,2.4l32,18.5c1.2,0.7,3.1,0.7,4.2,0L114,117.9z"/>
			<path id="XMLID_1134_" class="st46" d="M113.9,117.9c1.2-0.7,1.2-1.8,0-2.4L82,97c-1.2-0.7-3.1-0.7-4.2,0l-17.1,9.9
				c-1.2,0.7-1.2,1.8,0,2.4l31.9,18.4c1.2,0.7,3.1,0.7,4.2,0L113.9,117.9z"/>
			<path id="XMLID_1128_" class="st47" d="M113.8,117.8c1.2-0.7,1.2-1.8,0-2.4L82,97.1c-1.2-0.7-3-0.7-4.2,0L60.7,107
				c-1.2,0.7-1.2,1.8,0,2.4l31.8,18.3c1.2,0.7,3,0.7,4.2,0L113.8,117.8z"/>
			<path id="XMLID_1127_" class="st48" d="M113.7,117.8c1.2-0.7,1.2-1.8,0-2.4L82.1,97.1c-1.2-0.7-3-0.7-4.2,0l-17,9.8
				c-1.2,0.7-1.2,1.8,0,2.4l31.6,18.3c1.2,0.7,3,0.7,4.2,0L113.7,117.8z"/>
			<path id="XMLID_1107_" class="st49" d="M113.6,117.8c1.1-0.7,1.1-1.7,0-2.4L82.1,97.2c-1.1-0.7-3-0.7-4.2,0L61,107
				c-1.1,0.7-1.1,1.7,0,2.4l31.5,18.2c1.1,0.7,3,0.7,4.2,0L113.6,117.8z"/>
			<path id="XMLID_1106_" class="st50" d="M113.6,117.8c1.1-0.7,1.1-1.7,0-2.4L82.2,97.3c-1.1-0.7-3-0.7-4.1,0L61.2,107
				c-1.1,0.7-1.1,1.7,0,2.4l31.4,18.1c1.1,0.7,3,0.7,4.1,0L113.6,117.8z"/>
			<path id="XMLID_1105_" class="st51" d="M113.5,117.7c1.1-0.7,1.1-1.7,0-2.4l-31.2-18c-1.1-0.7-3-0.7-4.1,0L61.3,107
				c-1.1,0.7-1.1,1.7,0,2.4l31.2,18c1.1,0.7,3,0.7,4.1,0L113.5,117.7z"/>
			<path id="XMLID_1104_" class="st52" d="M113.4,117.7c1.1-0.7,1.1-1.7,0-2.4l-31.1-18c-1.1-0.7-3-0.7-4.1,0L61.4,107
				c-1.1,0.7-1.1,1.7,0,2.4l31.1,18c1.1,0.7,3,0.7,4.1,0L113.4,117.7z"/>
			<path id="XMLID_1103_" class="st53" d="M113.3,117.7c1.1-0.7,1.1-1.7,0-2.4l-31-17.9c-1.1-0.7-3-0.7-4.1,0L61.6,107
				c-1.1,0.7-1.1,1.7,0,2.4l31,17.9c1.1,0.7,3,0.7,4.1,0L113.3,117.7z"/>
		</g>
		
			<linearGradient id="XMLID_213_" gradientUnits="userSpaceOnUse" x1="56.2758" y1="144.95" x2="117.4083" y2="144.95" gradientTransform="matrix(1 0 0 -1 0 256)">
			<stop  offset="3.802050e-003" style="stop-color:#A5CBEF"/>
			<stop  offset="0.4419" style="stop-color:#CEE3F6"/>
			<stop  offset="1" style="stop-color:#FFFFFF"/>
		</linearGradient>
		<path id="XMLID_1096_" class="st54" d="M117.4,115.7c0-0.5,0-1,0-1.2c0,0-0.3,0.4-1,0L81,94c-1.3-0.7-3.4-0.7-4.7,0l-19.1,11
			c-0.5,0.3-0.9-0.5-1-0.1v1.3c0,0.5,0.3,1,0.8,1.3l35.7,20.6c1.3,0.7,3.4,0.7,4.7,0l19.3-11.2C117.1,116.8,117.4,116.3,117.4,115.7
			z"/>
		<path id="XMLID_1095_" class="st55" d="M116.4,115.8c1.3-0.7,1.3-2,0-2.7L81,92.7c-1.3-0.7-3.4-0.7-4.7,0l-19.1,11
			c-1.3,0.7-1.3,2,0,2.7l35.5,20.5c1.3,0.7,3.4,0.7,4.7,0L116.4,115.8z"/>
		<path id="XMLID_1094_" class="st53" d="M107.2,116.3c2.6-1.5,2.6-3.9,0-5.4s-6.8-1.5-9.4,0s-2.6,3.9,0,5.4
			C100.4,117.8,104.6,117.8,107.2,116.3z"/>
		<polygon id="XMLID_1093_" class="st56" points="98.5,108.4 96.2,109.7 74.8,97.4 77.2,96 		"/>
		<polygon id="XMLID_1092_" class="st56" points="93.8,111.1 91.5,112.5 70.1,100.2 72.5,98.8 		"/>
		<polygon id="XMLID_1085_" class="st56" points="100.7,120.4 98.4,121.8 65.5,103 67.8,101.6 		"/>
		<polygon id="XMLID_1084_" class="st56" points="96.1,123.2 93.7,124.6 60.8,105.7 63.2,104.4 		"/>
	</g>
	<g>
		<g id="XMLID_1562_">
			<g class="st1">
				<path id="XMLID_1569_" class="st2" d="M171.8,152.5l13.5-10.5c0.6-0.4,1.3-0.6,2-0.5l19.9,3.3l5.3,10.3c0.4,0.8,0.1,1.8-0.8,2.1
					l-20.9,9.2c-2.6,1.2-5.5,1.7-8.3,1.6l-12.1-0.5c-1.4-0.1-2.5-1.2-2.5-2.5v-4.8C168,157.2,169.4,154.4,171.8,152.5z"/>
				<path id="XMLID_209_" class="st3" d="M171.8,152.5l13.4-10.4c0.6-0.4,1.3-0.6,2-0.5l19.8,3.2l5.3,10.3c0.4,0.8,0.1,1.8-0.8,2.1
					l-20.8,9.2c-2.6,1.1-5.4,1.7-8.3,1.6l-12.1-0.5c-1.4-0.1-2.4-1.2-2.4-2.5v-4.8C168.1,157.2,169.5,154.4,171.8,152.5z"/>
				<path id="XMLID_208_" class="st4" d="M171.9,152.5l13.4-10.4c0.6-0.4,1.3-0.6,2-0.5l19.7,3.2l5.3,10.2c0.4,0.8,0.1,1.8-0.8,2.1
					l-20.7,9.1c-2.6,1.1-5.4,1.7-8.2,1.6l-12-0.5c-1.4-0.1-2.4-1.2-2.4-2.5V160C168.2,157.2,169.6,154.3,171.9,152.5z"/>
				<path id="XMLID_207_" class="st5" d="M172,152.5l13.3-10.3c0.6-0.4,1.3-0.6,2-0.5l19.6,3.2l5.2,10.2c0.4,0.8,0.1,1.8-0.7,2.1
					l-20.6,9.1c-2.6,1.1-5.4,1.7-8.2,1.6l-12-0.5c-1.3-0.1-2.4-1.2-2.4-2.5v-4.8C168.3,157.1,169.6,154.3,172,152.5z"/>
				<path id="XMLID_206_" class="st6" d="M172,152.5l13.3-10.3c0.6-0.4,1.3-0.6,2-0.5l19.5,3.2L212,155c0.4,0.8,0.1,1.8-0.7,2.1
					l-20.5,9c-2.6,1.1-5.3,1.7-8.1,1.6l-11.9-0.4c-1.3-0.1-2.4-1.2-2.4-2.5v-4.7C168.3,157.1,169.7,154.3,172,152.5z"/>
				<path id="XMLID_205_" class="st7" d="M172.1,152.5l13.2-10.2c0.6-0.4,1.3-0.6,2-0.5l19.4,3.2l5.2,10.1c0.4,0.8,0.1,1.7-0.7,2.1
					l-20.4,9c-2.6,1.1-5.3,1.7-8.1,1.5l-11.8-0.4c-1.3-0.1-2.4-1.1-2.4-2.5v-4.7C168.4,157.1,169.8,154.3,172.1,152.5z"/>
				<path id="XMLID_204_" class="st8" d="M172.2,152.5l13.1-10.2c0.6-0.4,1.3-0.6,2-0.5l19.3,3.2l5.2,10c0.4,0.8,0.1,1.7-0.7,2.1
					l-20.3,8.9c-2.5,1.1-5.3,1.6-8.1,1.5l-11.8-0.4c-1.3-0.1-2.4-1.1-2.4-2.5V160C168.5,157.1,169.9,154.3,172.2,152.5z"/>
				<path id="XMLID_203_" class="st9" d="M172.2,152.5l13.1-10.1c0.6-0.4,1.3-0.6,1.9-0.5l19.3,3.2l5.1,10c0.4,0.8,0.1,1.7-0.7,2.1
					l-20.2,8.9c-2.5,1.1-5.3,1.6-8,1.5l-11.7-0.4c-1.3,0-2.4-1.1-2.4-2.5V160C168.6,157.1,169.9,154.3,172.2,152.5z"/>
				<path id="XMLID_202_" class="st10" d="M172.3,152.6l13-10.1c0.5-0.4,1.2-0.6,1.9-0.5l19.2,3.1l5.1,9.9c0.4,0.8,0.1,1.7-0.7,2.1
					l-20.1,8.8c-2.5,1.1-5.2,1.6-8,1.5L171,167c-1.3,0-2.4-1.1-2.4-2.4V160C168.7,157.1,170,154.3,172.3,152.6z"/>
				<path id="XMLID_201_" class="st11" d="M172.4,152.6l12.9-10c0.5-0.4,1.2-0.6,1.9-0.5l19.1,3.1l5.1,9.9c0.4,0.8,0.1,1.7-0.7,2.1
					l-20,8.8c-2.5,1.1-5.2,1.6-7.9,1.5l-11.6-0.4c-1.3,0-2.3-1.1-2.3-2.4v-4.6C168.8,157,170.1,154.3,172.4,152.6z"/>
				<path id="XMLID_200_" class="st12" d="M172.4,152.6l12.9-10c0.5-0.4,1.2-0.6,1.9-0.5l19,3.1l5.1,9.8c0.4,0.8,0.1,1.7-0.7,2
					l-19.9,8.8c-2.5,1.1-5.2,1.6-7.9,1.5l-11.5-0.4c-1.3,0-2.3-1.1-2.3-2.4v-4.6C168.9,157,170.2,154.3,172.4,152.6z"/>
				<path id="XMLID_199_" class="st13" d="M172.5,152.6l12.8-9.9c0.5-0.4,1.2-0.6,1.9-0.5l18.9,3.1l5,9.8c0.4,0.8,0.1,1.7-0.7,2
					l-19.8,8.7c-2.5,1.1-5.2,1.6-7.9,1.5l-11.5-0.4c-1.3,0-2.3-1.1-2.3-2.4v-4.6C168.9,157,170.3,154.3,172.5,152.6z"/>
				<path id="XMLID_198_" class="st14" d="M172.6,152.6l12.7-9.9c0.5-0.4,1.2-0.6,1.9-0.5l18.8,3.1l5,9.7c0.4,0.8,0.1,1.7-0.7,2
					l-19.7,8.7c-2.5,1.1-5.1,1.6-7.8,1.5l-11.4-0.4c-1.3,0-2.3-1.1-2.3-2.4v-4.5C169,157,170.3,154.3,172.6,152.6z"/>
				<path id="XMLID_197_" class="st15" d="M172.7,152.6l12.7-9.8c0.5-0.4,1.2-0.6,1.9-0.5l18.7,3.1l5,9.7c0.4,0.8,0.1,1.7-0.7,2
					l-19.6,8.6c-2.4,1.1-5.1,1.6-7.8,1.5l-11.4-0.4c-1.3,0-2.3-1.1-2.3-2.4v-4.5C169.1,157,170.4,154.3,172.7,152.6z"/>
				<path id="XMLID_196_" class="st16" d="M172.7,152.6l12.6-9.8c0.5-0.4,1.2-0.6,1.9-0.5l18.6,3l5,9.6c0.4,0.7,0.1,1.7-0.7,2
					l-19.5,8.6c-2.4,1.1-5.1,1.6-7.7,1.5l-11.3-0.4c-1.3,0-2.3-1.1-2.3-2.4v-4.5C169.2,157,170.5,154.3,172.7,152.6z"/>
				<path id="XMLID_195_" class="st17" d="M172.8,152.6l12.5-9.7c0.5-0.4,1.2-0.6,1.9-0.5l18.5,3l4.9,9.6c0.4,0.7,0.1,1.7-0.7,2
					l-19.4,8.5c-2.4,1.1-5.1,1.6-7.7,1.5l-11.3-0.4c-1.3,0-2.3-1.1-2.3-2.4v-4.5C169.3,156.9,170.6,154.3,172.8,152.6z"/>
				<path id="XMLID_194_" class="st18" d="M172.9,152.6l12.5-9.7c0.5-0.4,1.2-0.6,1.9-0.5l18.4,3l4.9,9.5c0.4,0.7,0.1,1.6-0.7,2
					l-19.3,8.5c-2.4,1.1-5,1.6-7.7,1.5l-11.2-0.4c-1.3,0-2.3-1.1-2.3-2.3v-4.5C169.4,156.9,170.7,154.3,172.9,152.6z"/>
				<path id="XMLID_193_" class="st19" d="M172.9,152.6l12.4-9.6c0.5-0.4,1.2-0.6,1.8-0.5l18.3,3l4.9,9.5c0.4,0.7,0.1,1.6-0.7,2
					l-19.2,8.4c-2.4,1.1-5,1.6-7.6,1.5l-11.1-0.4c-1.3,0-2.3-1.1-2.3-2.3v-4.4C169.5,156.9,170.7,154.3,172.9,152.6z"/>
				<path id="XMLID_192_" class="st20" d="M173,152.6l12.3-9.6c0.5-0.4,1.2-0.6,1.8-0.5l18.2,3l4.9,9.4c0.4,0.7,0.1,1.6-0.7,2
					l-19.1,8.4c-2.4,1.1-5,1.5-7.6,1.4l-11.1-0.4c-1.2,0-2.2-1.1-2.2-2.3v-4.4C169.5,156.9,170.8,154.3,173,152.6z"/>
				<path id="XMLID_191_" class="st21" d="M173.1,152.6l12.3-9.5c0.5-0.4,1.2-0.6,1.8-0.5l18.1,3l4.8,9.4c0.4,0.7,0.1,1.6-0.7,2
					l-19,8.4c-2.4,1-5,1.5-7.5,1.4l-11-0.4c-1.2,0-2.2-1.1-2.2-2.3v-4.4C169.6,156.9,170.9,154.3,173.1,152.6z"/>
				<path id="XMLID_190_" class="st22" d="M173.1,152.6l12.2-9.5c0.5-0.4,1.2-0.6,1.8-0.5l18,2.9l4.8,9.3c0.4,0.7,0.1,1.6-0.7,1.9
					l-18.9,8.3c-2.4,1-4.9,1.5-7.5,1.4l-11-0.4c-1.2,0-2.2-1.1-2.2-2.3v-4.4C169.7,156.8,171,154.3,173.1,152.6z"/>
				<path id="XMLID_189_" class="st23" d="M173.2,152.6l12.1-9.4c0.5-0.4,1.2-0.6,1.8-0.5l17.9,2.9l4.8,9.3c0.4,0.7,0.1,1.6-0.7,1.9
					l-18.8,8.3c-2.3,1-4.9,1.5-7.5,1.4l-10.9-0.4c-1.2,0-2.2-1.1-2.2-2.3v-4.3C169.8,156.8,171.1,154.3,173.2,152.6z"/>
				<path id="XMLID_188_" class="st24" d="M173.3,152.6l12.1-9.4c0.5-0.4,1.2-0.6,1.8-0.5l17.8,2.9l4.8,9.2c0.4,0.7,0.1,1.6-0.7,1.9
					l-18.7,8.2c-2.3,1-4.9,1.5-7.4,1.4l-10.8-0.4c-1.2,0-2.2-1.1-2.2-2.3v-4.3C169.9,156.8,171.1,154.3,173.3,152.6z"/>
				<path id="XMLID_187_" class="st25" d="M173.3,152.6l12-9.3c0.5-0.4,1.2-0.6,1.8-0.5l17.7,2.9l4.7,9.2c0.4,0.7,0.1,1.6-0.7,1.9
					l-18.6,8.2c-2.3,1-4.8,1.5-7.4,1.4L172,166c-1.2,0-2.2-1-2.2-2.3v-4.3C170,156.8,171.2,154.3,173.3,152.6z"/>
				<path id="XMLID_186_" class="st26" d="M173.4,152.6l11.9-9.3c0.5-0.4,1.1-0.6,1.8-0.5l17.6,2.9l4.7,9.1c0.4,0.7,0.1,1.6-0.7,1.9
					l-18.5,8.1c-2.3,1-4.8,1.5-7.3,1.4l-10.7-0.4c-1.2,0-2.2-1-2.2-2.3v-4.3C170.1,156.8,171.3,154.3,173.4,152.6z"/>
				<path id="XMLID_185_" class="st27" d="M173.5,152.6l11.9-9.2c0.5-0.4,1.1-0.6,1.8-0.4l17.5,2.9l4.7,9.1c0.4,0.7,0.1,1.6-0.7,1.9
					l-18.4,8.1c-2.3,1-4.8,1.5-7.3,1.4l-10.7-0.4c-1.2,0-2.2-1-2.2-2.2v-4.2C170.1,156.8,171.4,154.3,173.5,152.6z"/>
				<path id="XMLID_184_" class="st28" d="M173.5,152.6l11.8-9.2c0.5-0.4,1.1-0.5,1.8-0.4l17.4,2.9l4.6,9c0.4,0.7,0.1,1.6-0.7,1.9
					l-18.3,8c-2.3,1-4.8,1.5-7.3,1.4l-10.6-0.4c-1.2,0-2.1-1-2.1-2.2v-4.2C170.2,156.7,171.4,154.3,173.5,152.6z"/>
				<path id="XMLID_183_" class="st29" d="M173.6,152.7l11.7-9.1c0.5-0.4,1.1-0.5,1.7-0.4l17.3,2.8l4.6,9c0.4,0.7,0.1,1.6-0.7,1.9
					l-18.2,8c-2.3,1-4.7,1.5-7.2,1.4l-10.5-0.4c-1.2,0-2.1-1-2.1-2.2v-4.2C170.3,156.7,171.5,154.3,173.6,152.7z"/>
				<path id="XMLID_182_" class="st30" d="M173.7,152.7l11.7-9.1c0.5-0.4,1.1-0.5,1.7-0.4l17.2,2.8l4.6,8.9c0.4,0.7,0.1,1.5-0.7,1.9
					l-18.1,8c-2.3,1-4.7,1.5-7.2,1.4l-10.5-0.4c-1.2,0-2.1-1-2.1-2.2v-4.2C170.4,156.7,171.6,154.3,173.7,152.7z"/>
				<path id="XMLID_181_" class="st31" d="M173.7,152.7l11.6-9c0.5-0.4,1.1-0.5,1.7-0.4l17.1,2.8l4.6,8.9c0.4,0.7,0.1,1.5-0.7,1.8
					l-18,7.9c-2.2,1-4.7,1.5-7.1,1.4l-10.4-0.4c-1.2,0-2.1-1-2.1-2.2v-4.2C170.5,156.7,171.7,154.2,173.7,152.7z"/>
				<path id="XMLID_180_" class="st32" d="M173.8,152.7l11.5-9c0.5-0.4,1.1-0.5,1.7-0.4l17,2.8l4.5,8.8c0.4,0.7,0.1,1.5-0.6,1.8
					l-17.9,7.9c-2.2,1-4.7,1.4-7.1,1.4l-10.4-0.4c-1.2,0-2.1-1-2.1-2.2v-4.1C170.6,156.7,171.8,154.2,173.8,152.7z"/>
				<path id="XMLID_179_" class="st33" d="M173.9,152.7l11.5-8.9c0.5-0.4,1.1-0.5,1.7-0.4l16.9,2.8l4.5,8.8c0.4,0.7,0.1,1.5-0.6,1.8
					l-17.7,7.8c-2.2,1-4.6,1.4-7.1,1.3l-10.3-0.4c-1.2,0-2.1-1-2.1-2.2v-4.1C170.7,156.7,171.8,154.2,173.9,152.7z"/>
				<path id="XMLID_178_" class="st34" d="M173.9,152.7l11.4-8.9c0.5-0.4,1.1-0.5,1.7-0.4l16.8,2.8l4.5,8.7c0.3,0.7,0.1,1.5-0.6,1.8
					l-17.6,7.8c-2.2,1-4.6,1.4-7,1.3l-10.3-0.4c-1.2,0-2.1-1-2.1-2.2v-4.1C170.7,156.6,171.9,154.2,173.9,152.7z"/>
				<path id="XMLID_177_" class="st35" d="M174,152.7l11.4-8.8c0.5-0.4,1.1-0.5,1.7-0.4l16.7,2.7l4.5,8.7c0.3,0.7,0.1,1.5-0.6,1.8
					l-17.5,7.7c-2.2,1-4.6,1.4-7,1.3l-10.2-0.4c-1.2,0-2.1-1-2.1-2.1v-4.1C170.8,156.6,172,154.2,174,152.7z"/>
				<path id="XMLID_176_" class="st36" d="M174.1,152.7l11.3-8.8c0.5-0.4,1.1-0.5,1.7-0.4l16.6,2.7l4.4,8.6c0.3,0.7,0.1,1.5-0.6,1.8
					l-17.4,7.7c-2.2,1-4.6,1.4-6.9,1.3l-10.1-0.4c-1.1,0-2-1-2-2.1v-4C170.9,156.6,172.1,154.2,174.1,152.7z"/>
				<path id="XMLID_175_" class="st37" d="M174.1,152.7l11.2-8.7c0.5-0.4,1.1-0.5,1.7-0.4l16.5,2.7l4.4,8.6c0.3,0.7,0.1,1.5-0.6,1.8
					l-17.3,7.6c-2.2,1-4.5,1.4-6.9,1.3l-10.1-0.4c-1.1,0-2-1-2-2.1v-4C171,156.6,172.2,154.2,174.1,152.7z"/>
				<path id="XMLID_174_" class="st38" d="M174.2,152.7l11.2-8.6c0.5-0.4,1.1-0.5,1.7-0.4l16.4,2.7l4.4,8.5c0.3,0.7,0.1,1.5-0.6,1.8
					l-17.2,7.6c-2.2,1-4.5,1.4-6.9,1.3l-10-0.4c-1.1,0-2-1-2-2.1v-4C171.1,156.6,172.2,154.2,174.2,152.7z"/>
				<path id="XMLID_168_" class="st39" d="M174.3,152.7l11.1-8.6c0.5-0.4,1.1-0.5,1.6-0.4l16.4,2.7l4.4,8.5c0.3,0.7,0.1,1.5-0.6,1.8
					l-17.1,7.6c-2.1,0.9-4.5,1.4-6.8,1.3l-10-0.4c-1.1,0-2-1-2-2.1v-4C171.2,156.6,172.3,154.2,174.3,152.7z"/>
				<path id="XMLID_167_" class="st40" d="M174.3,152.7l11-8.5c0.5-0.4,1.1-0.5,1.6-0.4l16.3,2.7l4.3,8.4c0.3,0.7,0.1,1.5-0.6,1.8
					l-17,7.5c-2.1,0.9-4.4,1.4-6.8,1.3l-9.9-0.4c-1.1,0-2-1-2-2.1v-4C171.3,156.5,172.4,154.2,174.3,152.7z"/>
				<path id="XMLID_166_" class="st41" d="M174.4,152.7l11-8.5c0.5-0.4,1.1-0.5,1.6-0.4l16.2,2.6l4.3,8.4c0.3,0.6,0.1,1.4-0.6,1.7
					L190,164c-2.1,0.9-4.4,1.4-6.7,1.3l-9.8-0.4c-1.1,0-2-1-2-2.1V159C171.3,156.5,172.5,154.2,174.4,152.7z"/>
				<path id="XMLID_165_" class="st42" d="M174.5,152.7l10.9-8.4c0.5-0.4,1-0.5,1.6-0.4l16.1,2.6l4.3,8.3c0.3,0.6,0.1,1.4-0.6,1.7
					l-16.8,7.4c-2.1,0.9-4.4,1.4-6.7,1.3l-9.8-0.4c-1.1,0-2-0.9-2-2.1v-3.9C171.4,156.5,172.6,154.2,174.5,152.7z"/>
				<path id="XMLID_164_" class="st43" d="M174.5,152.7l10.8-8.4c0.5-0.4,1-0.5,1.6-0.4l16,2.6l4.3,8.3c0.3,0.6,0.1,1.4-0.6,1.7
					l-16.7,7.4c-2.1,0.9-4.4,1.4-6.7,1.3l-9.7-0.4c-1.1,0-2-0.9-2-2v-3.9C171.5,156.5,172.6,154.2,174.5,152.7z"/>
				<path id="XMLID_162_" class="st44" d="M174.6,152.7l10.8-8.3c0.5-0.4,1-0.5,1.6-0.4l15.9,2.6l4.2,8.2c0.3,0.6,0.1,1.4-0.6,1.7
					l-16.6,7.3c-2.1,0.9-4.3,1.3-6.6,1.3l-9.7-0.4c-1.1,0-2-0.9-2-2v-3.8C171.6,156.5,172.7,154.2,174.6,152.7z"/>
				<path id="XMLID_161_" class="st45" d="M174.7,152.7l10.7-8.3c0.5-0.3,1-0.5,1.6-0.4l15.8,2.6l4.2,8.2c0.3,0.6,0.1,1.4-0.6,1.7
					l-16.5,7.3c-2.1,0.9-4.3,1.3-6.6,1.3l-9.6-0.4c-1.1,0-1.9-0.9-1.9-2v-3.8C171.7,156.4,172.8,154.2,174.7,152.7z"/>
				<path id="XMLID_160_" class="st46" d="M174.7,152.7l10.6-8.2c0.4-0.3,1-0.5,1.6-0.4l15.7,2.6l4.2,8.1c0.3,0.6,0.1,1.4-0.6,1.7
					l-16.4,7.2c-2.1,0.9-4.3,1.3-6.5,1.2l-9.5-0.4c-1.1,0-1.9-0.9-1.9-2v-3.8C171.8,156.4,172.9,154.2,174.7,152.7z"/>
				<path id="XMLID_159_" class="st47" d="M174.8,152.7l10.6-8.2c0.4-0.3,1-0.5,1.6-0.4l15.6,2.6l4.2,8.1c0.3,0.6,0.1,1.4-0.6,1.7
					l-16.3,7.2c-2,0.9-4.3,1.3-6.5,1.2l-9.5-0.4c-1.1,0-1.9-0.9-1.9-2v-3.8C171.9,156.4,172.9,154.2,174.8,152.7z"/>
				<path id="XMLID_158_" class="st48" d="M174.9,152.8l10.5-8.1c0.4-0.3,1-0.5,1.6-0.4l15.5,2.5l4.1,8c0.3,0.6,0.1,1.4-0.6,1.7
					l-16.2,7.1c-2,0.9-4.2,1.3-6.5,1.2l-9.4-0.4c-1.1,0-1.9-0.9-1.9-2v-3.8C171.9,156.4,173,154.2,174.9,152.8z"/>
				<path id="XMLID_157_" class="st49" d="M174.9,152.8l10.4-8.1c0.4-0.3,1-0.5,1.6-0.4l15.4,2.5l4.1,8c0.3,0.6,0.1,1.4-0.6,1.7
					l-16.1,7.1c-2,0.9-4.2,1.3-6.4,1.2l-9.4-0.4c-1.1,0-1.9-0.9-1.9-2v-3.7C172,156.4,173.1,154.2,174.9,152.8z"/>
				<path id="XMLID_156_" class="st50" d="M175,152.8l10.4-8c0.4-0.3,1-0.5,1.5-0.4l15.3,2.5l4.1,7.9c0.3,0.6,0,1.4-0.6,1.6l-16,7.1
					c-2,0.9-4.2,1.3-6.4,1.2l-9.3-0.4c-1.1,0-1.9-0.9-1.9-2v-3.7C172.1,156.4,173.2,154.2,175,152.8z"/>
				<path id="XMLID_155_" class="st51" d="M175.1,152.8l10.3-8c0.4-0.3,1-0.5,1.5-0.4l15.2,2.5l4.1,7.9c0.3,0.6,0,1.4-0.6,1.6
					l-15.9,7c-2,0.9-4.2,1.3-6.3,1.2l-9.2-0.3c-1,0-1.9-0.9-1.9-1.9v-3.7C172.2,156.3,173.3,154.2,175.1,152.8z"/>
				<path id="XMLID_154_" class="st52" d="M175.1,152.8l10.2-7.9c0.4-0.3,1-0.5,1.5-0.4l15.1,2.5l4,7.8c0.3,0.6,0,1.4-0.6,1.6
					l-15.8,7c-2,0.9-4.1,1.3-6.3,1.2l-9.2-0.3c-1,0-1.9-0.9-1.9-1.9v-3.7C172.3,156.3,173.3,154.2,175.1,152.8z"/>
				<path id="XMLID_1568_" class="st53" d="M175.2,152.8l10.2-7.9c0.4-0.3,1-0.5,1.5-0.4l15,2.5l4,7.8c0.3,0.6,0,1.3-0.6,1.6
					l-15.7,6.9c-2,0.9-4.1,1.3-6.3,1.2l-9.1-0.3c-1,0-1.8-0.9-1.8-1.9v-3.6C172.4,156.3,173.4,154.2,175.2,152.8z"/>
			</g>
			
				<linearGradient id="XMLID_214_" gradientUnits="userSpaceOnUse" x1="171.1188" y1="97.3426" x2="208.1488" y2="97.3426" gradientTransform="matrix(1 0 0 -1 0 256)">
				<stop  offset="0" style="stop-color:#5D7DBE"/>
				<stop  offset="1" style="stop-color:#3C5185"/>
			</linearGradient>
			<path id="XMLID_1567_" class="st57" d="M208,152.4c0.3,0.7,0.1,3.3-0.6,3.6l-17.3,7.6c-2.2,1-4.5,1.4-6.9,1.3l-10-0.4
				c-1.1,0-2-1-2-2.1v-4C171.1,155.9,208,152.4,208,152.4z"/>
			
				<linearGradient id="XMLID_215_" gradientUnits="userSpaceOnUse" x1="171.1188" y1="103.9106" x2="208.1488" y2="103.9106" gradientTransform="matrix(1 0 0 -1 0 256)">
				<stop  offset="0" style="stop-color:#3C5185"/>
				<stop  offset="1" style="stop-color:#5D7DBE"/>
			</linearGradient>
			<path id="XMLID_1566_" class="st58" d="M174.2,150.2l11.2-8.7c0.5-0.4,1.1-0.5,1.7-0.4l16.5,2.7l4.4,8.6c0.3,0.7,0.1,1.5-0.6,1.8
				l-17.3,7.6c-2.2,1-4.5,1.4-6.9,1.3l-10-0.4c-1.1,0-2-1-2-2.1v-4C171.1,154.1,172.3,151.7,174.2,150.2z"/>
			<path id="XMLID_1565_" class="st59" d="M196.5,155.6c3.8-2.2,3.8-5.7,0-7.9s-9.9-2.2-13.7,0c-3.7,2.2-3.7,5.7,0,7.9
				C186.5,157.7,192.7,157.7,196.5,155.6z"/>
			<path id="XMLID_1564_" class="st60" d="M202.3,144.4l-15.2-2.5c-0.5-0.1-1.1,0.1-1.5,0.4l-10.3,8c-1.8,1.4-2.9,3.6-2.9,5.9v3.7
				c0,0.6,0.3,1.1,0.7,1.5L202.3,144.4L202.3,144.4z"/>
		</g>
		<g id="XMLID_1570_">
			<path id="XMLID_1571_" class="st53" d="M185.3,152.9l0.3-3.3c0-0.4,0.4-0.7,0.8-0.6c0.4,0,0.7,0.4,0.6,0.8l-0.1,1.7l7.6-0.4
				c0.4,0,0.7,0.3,0.7,0.7s-0.3,0.7-0.7,0.7L185.3,152.9z"/>
		</g>
	</g>
	<g>
		<g class="st1">
			<path id="XMLID_782_" class="st2" d="M141.3,110.8c-1.4,0.8-1.4,2.1,0,2.8l38.8,22.3c1.4,0.8,3.6,0.8,5,0l20.1-11.5
				c1.4-0.8,1.4-2.1,0-2.9l-38.7-22.2c-1.4-0.8-3.6-0.8-5,0L141.3,110.8z"/>
			<path id="XMLID_153_" class="st61" d="M141.5,110.8l17.5-9.9l0.9-0.5l0.9-0.5l0.8-0.4c1.3-0.8,3.6-0.7,4.9,0.1l38.4,22
				c1.4,0.8,1.4,2.1,0,2.9l-17.4,10l-0.9,0.5l0,0l-0.9,0.5l-0.7,0.4c-1.3,0.8-3.6,0.7-4.9-0.1l-38.5-22.1
				C140.2,112.9,140.2,111.6,141.5,110.8z"/>
			<path id="XMLID_152_" class="st62" d="M141.8,110.7l17.4-9.8l0.9-0.5l0.9-0.5l0.8-0.4c1.3-0.7,3.6-0.6,4.9,0.1l38,21.8
				c1.4,0.8,1.4,2.2,0,3l-17.3,9.9l-0.9,0.5l0,0l-0.9,0.5l-0.7,0.4c-1.3,0.7-3.6,0.6-4.9-0.1l-38.1-21.9
				C140.4,112.9,140.4,111.5,141.8,110.7z"/>
			<path id="XMLID_151_" class="st63" d="M142.1,110.7l17.2-9.8c0,0,0.8-0.5,0.9-0.5l0.9-0.5l0.8-0.4c1.2-0.7,3.6-0.5,4.8,0.2
				l37.7,21.6c1.4,0.8,1.4,2.2,0,3l-17.2,9.8c0,0-0.8,0.5-0.9,0.5l0,0c0,0-0.9,0.5-0.9,0.4l-0.7,0.4c-1.2,0.7-3.6,0.5-4.8-0.2
				l-37.8-21.7C140.7,112.9,140.7,111.5,142.1,110.7z"/>
			<path id="XMLID_150_" class="st64" d="M142.4,110.7l17.1-9.7c0,0,0.8-0.5,0.9-0.5c0.1,0,0.9-0.4,0.9-0.4l0.7-0.3
				c1.2-0.7,3.6-0.4,4.8,0.3l37.3,21.4c1.4,0.8,1.4,2.3,0,3.1l-17,9.8c0,0-0.8,0.5-0.9,0.5l0,0c-0.1,0-0.9,0.4-0.9,0.4l-0.7,0.3
				c-1.2,0.7-3.6,0.4-4.8-0.3l-37.5-21.5C140.9,112.9,140.9,111.5,142.4,110.7z"/>
			<path id="XMLID_148_" class="st65" d="M142.6,110.7l17-9.6c0,0,0.8-0.4,0.9-0.4c0.1,0,0.9-0.4,0.9-0.4l0.7-0.3
				c1.1-0.7,3.6-0.3,4.7,0.3l37,21.2c1.4,0.8,1.4,2.3,0,3.1l-16.9,9.7c0,0-0.8,0.4-0.9,0.4l0,0c-0.1,0-0.9,0.4-0.9,0.4l-0.7,0.3
				c-1.1,0.7-3.6,0.3-4.7-0.3l-37.1-21.3C141.2,113,141.2,111.5,142.6,110.7z"/>
			<path id="XMLID_147_" class="st66" d="M142.9,110.6l16.8-9.5c0,0,0.8-0.4,0.9-0.4c0.1,0,0.9-0.4,0.9-0.4l0.7-0.3
				c1.1-0.6,3.6-0.2,4.7,0.4l36.6,21c1.4,0.8,1.4,2.4,0,3.2l-16.8,9.6c0,0-0.8,0.4-0.9,0.4l0,0c-0.1,0-0.9,0.4-0.9,0.4l-0.7,0.3
				c-1.1,0.6-3.6,0.2-4.7-0.4l-36.8-21.1C141.4,113,141.5,111.5,142.9,110.6z"/>
			<path id="XMLID_146_" class="st67" d="M143.2,110.6l16.7-9.5c0,0,0.8-0.4,0.9-0.4c0.1,0,0.9-0.4,0.9-0.4l0.7-0.3
				c1.1-0.6,3.6-0.2,4.6,0.5l36.3,20.8c1.5,0.8,1.5,2.4,0,3.3l-16.6,9.5c0,0-0.8,0.4-0.9,0.4l0,0c-0.1,0-0.9,0.4-0.9,0.4l-0.7,0.3
				c-1.1,0.6-3.6,0.2-4.6-0.4l-36.4-20.9C141.7,113,141.7,111.4,143.2,110.6z"/>
			<path id="XMLID_145_" class="st68" d="M143.5,110.6l16.6-9.4c0,0,0.8-0.4,0.9-0.4c0.1,0,0.9-0.4,0.9-0.3l0.7-0.2
				c1-0.6,3.6-0.1,4.6,0.5l35.9,20.6c1.5,0.8,1.5,2.5,0,3.3l-16.5,9.4c0,0-0.7,0.4-0.9,0.4l0,0c-0.1,0-0.8,0.4-0.9,0.3l-0.7,0.2
				c-1,0.6-3.5,0.1-4.6-0.5l-36.1-20.7C142,113,142,111.4,143.5,110.6z"/>
			<path id="XMLID_144_" class="st69" d="M143.7,110.5l16.4-9.3c0,0,0.7-0.4,0.9-0.4c0.1,0,0.9-0.3,0.9-0.3l0.7-0.2
				c1-0.6,3.5,0,4.5,0.6l35.6,20.4c1.5,0.9,1.5,2.5,0,3.4l-16.4,9.4c0,0-0.7,0.4-0.9,0.4l0,0c-0.1,0-0.8,0.3-0.9,0.3L184,135
				c-1,0.6-3.5,0-4.5-0.6l-35.7-20.5C142.2,113,142.2,111.4,143.7,110.5z"/>
			<path id="XMLID_143_" class="st70" d="M144,110.5l16.3-9.2c0,0,0.7-0.4,0.9-0.4c0.1,0,0.8-0.3,0.9-0.3l0.7-0.2
				c0.9-0.5,3.5,0.1,4.5,0.6l35.3,20.2c1.5,0.9,1.5,2.6,0,3.4l-16.2,9.3c0,0-0.7,0.4-0.9,0.4l0,0c-0.1,0-0.8,0.3-0.9,0.3l-0.7,0.2
				c-0.9,0.5-3.5-0.1-4.5-0.6L144,113.9C142.5,113.1,142.5,111.4,144,110.5z"/>
			<path id="XMLID_142_" class="st71" d="M144.3,110.5l16.2-9.1c0,0,0.7-0.4,0.9-0.4c0.1,0,0.8-0.3,0.9-0.3l0.7-0.2
				c0.9-0.5,3.5,0.2,4.4,0.7l34.9,20c1.5,0.9,1.5,2.6,0,3.5l-16.1,9.2c0,0-0.7,0.4-0.8,0.4l0,0c-0.2,0-0.8,0.3-0.9,0.3l-0.7,0.2
				c-0.9,0.5-3.5-0.2-4.4-0.7l-35-20.1C142.7,113.1,142.8,111.4,144.3,110.5z"/>
			<path id="XMLID_141_" class="st72" d="M144.5,110.5l16-9.1c0,0,0.7-0.4,0.8-0.4c0.2,0,0.8-0.3,0.9-0.3l0.7-0.1
				c0.8-0.5,3.5,0.3,4.4,0.8l34.6,19.8c1.5,0.9,1.5,2.7,0,3.5l-16,9.1c0,0-0.7,0.4-0.8,0.4l0,0c-0.2,0-0.8,0.3-0.8,0.3l-0.7,0.1
				c-0.8,0.5-3.5-0.3-4.4-0.8L144.5,114C143,113.1,143,111.3,144.5,110.5z"/>
			<path id="XMLID_140_" class="st73" d="M144.8,110.4l15.9-9c0,0,0.7-0.3,0.8-0.3c0.2,0,0.8-0.3,0.9-0.2l0.7-0.1
				c0.8-0.5,3.5,0.4,4.3,0.8l34.2,19.6c1.5,0.9,1.5,2.7,0,3.6l-15.8,9.1c0,0-0.7,0.4-0.8,0.4l0,0c-0.2,0-0.8,0.3-0.8,0.2l-0.7,0.1
				c-0.8,0.5-3.5-0.4-4.3-0.8L144.8,114C143.3,113.1,143.3,111.3,144.8,110.4z"/>
			<path id="XMLID_139_" class="st74" d="M145.1,110.4l15.7-8.9c0,0,0.6-0.3,0.8-0.3s0.8-0.2,0.9-0.2l0.7-0.1
				c0.8-0.4,3.5,0.5,4.3,0.9l33.9,19.4c1.6,0.9,1.5,2.8,0,3.6l-15.7,9c0,0-0.6,0.3-0.8,0.3l0,0c-0.2,0-0.8,0.2-0.8,0.2l-0.7,0.1
				c-0.7,0.4-3.5-0.5-4.3-0.9l-34-19.5C143.5,113.2,143.5,111.3,145.1,110.4z"/>
			<path id="XMLID_138_" class="st75" d="M145.4,110.4l15.6-8.8c0,0,0.6-0.3,0.8-0.3s0.8-0.2,0.9-0.2l0.7-0.1c0.7-0.4,3.5,0.6,4.2,1
				l33.5,19.2c1.6,0.9,1.6,2.8,0,3.7l-15.6,8.9c0,0-0.6,0.3-0.8,0.3l0,0c-0.2,0-0.8,0.2-0.8,0.2l-0.7,0.1c-0.7,0.4-3.5-0.5-4.2-1
				l-33.7-19.3C143.8,113.2,143.8,111.3,145.4,110.4z"/>
			<path id="XMLID_137_" class="st76" d="M145.6,110.4l15.5-8.8c0,0,0.6-0.3,0.8-0.3s0.8-0.2,0.8-0.2h0.7c0.7-0.4,3.5,0.6,4.2,1
				l33.2,19c1.6,0.9,1.6,2.9,0,3.8l-15.4,8.8c0,0-0.6,0.3-0.8,0.3l0,0c-0.2,0-0.8,0.2-0.8,0.2h-0.6c-0.7,0.4-3.5-0.6-4.2-1
				l-33.3-19.1C144,113.2,144.1,111.3,145.6,110.4z"/>
			<path id="XMLID_136_" class="st77" d="M145.9,110.3l15.3-8.7c0,0,0.6-0.3,0.8-0.3s0.8-0.2,0.8-0.2h0.7c0.6-0.4,3.5,0.7,4.1,1.1
				l32.9,18.8c1.6,0.9,1.6,2.9,0,3.8l-15.3,8.7c0,0-0.6,0.3-0.8,0.3l0,0c-0.2,0-0.8,0.2-0.8,0.2H183c-0.6,0.4-3.5-0.7-4.1-1.1
				l-33-18.9C144.3,113.2,144.3,111.2,145.9,110.3z"/>
			<path id="XMLID_135_" class="st78" d="M146.2,110.3l15.2-8.6c0,0,0.6-0.3,0.8-0.3s0.8-0.2,0.8-0.1h0.7c0.6-0.3,3.5,0.8,4.1,1.1
				l32.5,18.6c1.6,0.9,1.6,3,0,3.9l-15.1,8.7c0,0-0.6,0.3-0.8,0.3l0,0c-0.3,0-0.8,0.2-0.8,0.1H183c-0.6,0.3-3.5-0.8-4.1-1.1
				l-32.6-18.7C144.6,113.2,144.6,111.2,146.2,110.3z"/>
			<path id="XMLID_134_" class="st79" d="M146.5,110.3l15.1-8.5c0,0,0.6-0.3,0.8-0.3c0.3,0,0.8-0.1,0.8-0.1h0.6
				c0.5-0.3,3.5,0.9,4,1.2L200,121c1.6,0.9,1.6,3,0,3.9l-15,8.6c0,0-0.5,0.3-0.8,0.3l0,0c-0.3,0-0.8,0.1-0.8,0.1h-0.6
				c-0.5,0.3-3.5-0.9-4-1.2l-32.3-18.5C144.8,113.3,144.8,111.2,146.5,110.3z"/>
			<path id="XMLID_133_" class="st80" d="M146.7,110.2l14.9-8.5c0,0,0.5-0.3,0.8-0.3s0.8-0.1,0.8-0.1l0.6,0.1c0.5-0.3,3.5,1,4,1.3
				l31.8,18.2c1.6,0.9,1.6,3.1,0,4l-14.9,8.5c0,0-0.5,0.3-0.8,0.3l0,0c-0.3,0-0.8,0.1-0.8,0.1l-0.6-0.1c-0.5,0.3-3.5-1-4-1.3
				l-31.9-18.3C145.1,113.3,145.1,111.2,146.7,110.2z"/>
			<path id="XMLID_132_" class="st81" d="M147,110.2l14.8-8.4c0,0,0.5-0.3,0.8-0.3s0.8-0.1,0.8-0.1l0.6,0.1c0.4-0.3,3.5,1.1,3.9,1.3
				l31.5,18.1c1.6,0.9,1.6,3.1,0,4l-14.7,8.4c0,0-0.5,0.3-0.8,0.3l0,0c-0.3,0-0.8,0.1-0.8,0.1l-0.6-0.1c-0.4,0.3-3.5-1.1-3.9-1.3
				l-31.6-18C145.3,113.3,145.4,111.2,147,110.2z"/>
			<path id="XMLID_131_" class="st82" d="M147.3,110.2l14.7-8.3c0,0,0.5-0.2,0.8-0.2s0.8-0.1,0.8-0.1l0.6,0.1
				c0.4-0.2,3.5,1.2,3.9,1.4l31.1,17.9c1.7,1,1.7,3.2,0,4.1l-14.6,8.4c0,0-0.5,0.2-0.8,0.2l0,0c-0.3,0-0.8,0.1-0.8,0.1l-0.6-0.1
				c-0.4,0.2-3.5-1.2-3.8-1.4l-31.2-17.9C145.6,113.3,145.6,111.1,147.3,110.2z"/>
			<path id="XMLID_130_" class="st83" d="M147.6,110.2l14.5-8.2c0,0,0.5-0.2,0.8-0.2s0.8-0.1,0.8,0l0.6,0.1c0.4-0.2,3.5,1.3,3.8,1.5
				l30.8,17.7c1.7,1,1.7,3.2,0,4.2l-14.5,8.3c0,0-0.5,0.2-0.8,0.2l0,0c-0.3,0-0.8,0.1-0.8,0l-0.6-0.1c-0.4,0.2-3.4-1.3-3.8-1.5
				l-30.9-17.7C145.9,113.4,145.9,111.1,147.6,110.2z"/>
			<path id="XMLID_129_" class="st84" d="M147.8,110.1l14.4-8.2c0,0,0.5-0.2,0.8-0.2s0.8,0,0.8,0l0.6,0.2c0.3-0.2,3.4,1.3,3.8,1.5
				l30.4,17.5c1.7,1,1.7,3.2,0,4.2l-14.3,8.2c0,0-0.5,0.2-0.8,0.2l0,0c-0.3,0-0.8,0-0.8,0l-0.6-0.1c-0.3,0.2-3.4-1.3-3.7-1.5
				l-30.6-17.5C146.1,113.4,146.1,111.1,147.8,110.1z"/>
			<path id="XMLID_128_" class="st85" d="M148.1,110.1l14.3-8.1c0,0,0.4-0.2,0.8-0.2c0.3,0,0.8,0,0.8,0l0.6,0.2
				c0.3-0.2,3.4,1.4,3.7,1.6l30.1,17.3c1.7,1,1.7,3.3,0,4.3l-14.2,8.1c0,0-0.4,0.2-0.8,0.2l0,0c-0.4,0-0.7,0-0.8,0l-0.6-0.2
				c-0.3,0.2-3.4-1.4-3.7-1.6l-30.2-17.3C146.4,113.4,146.4,111.1,148.1,110.1z"/>
			<path id="XMLID_127_" class="st86" d="M148.4,110.1l14.1-8c0.1,0,0.4-0.2,0.8-0.2c0.3,0,0.7,0,0.8,0l0.6,0.2
				c0.2-0.1,3.4,1.5,3.7,1.6l29.8,17.1c1.7,1,1.7,3.3,0,4.3l-14.1,8.1c-0.1,0-0.4,0.2-0.8,0.2l0,0c-0.4,0-0.7,0-0.8,0l-0.6-0.2
				c-0.2,0.1-3.4-1.5-3.6-1.6l-29.9-17.1C146.6,113.4,146.7,111.1,148.4,110.1z"/>
			<path id="XMLID_126_" class="st87" d="M148.6,110l14-7.9c0.1,0,0.4-0.2,0.8-0.2c0.4,0,0.7,0,0.8,0.1l0.6,0.2
				c0.2-0.1,3.4,1.6,3.6,1.7l29.4,16.9c1.7,1,1.7,3.4,0,4.4l-13.9,8c-0.1,0-0.4,0.2-0.8,0.2l0,0c-0.4,0-0.7,0-0.8-0.1l-0.6-0.2
				c-0.2,0.1-3.4-1.6-3.6-1.7l-29.5-16.9C146.9,113.4,146.9,111,148.6,110z"/>
			<path id="XMLID_125_" class="st88" d="M148.9,110l13.9-7.8c0.1,0,0.4-0.2,0.8-0.2c0.4,0,0.7,0,0.8,0.1l0.6,0.3
				c0.1-0.1,3.4,1.7,3.5,1.8l29.1,16.7c1.7,1,1.7,3.4,0,4.4l-13.8,7.9c-0.1,0-0.4,0.2-0.8,0.2l0,0c-0.4,0-0.7,0-0.8-0.1l-0.6-0.2
				c-0.1,0.1-3.4-1.7-3.5-1.8l-29.2-16.7C147.2,113.5,147.2,111,148.9,110z"/>
			<path id="XMLID_124_" class="st89" d="M149.2,110l13.7-7.8c0.1,0,0.4-0.2,0.8-0.2c0.4,0,0.7,0.1,0.8,0.1l0.6,0.3
				c0.1,0,3.4,1.8,3.5,1.8l28.7,16.5c1.8,1,1.7,3.5,0,4.5l-13.7,7.8c-0.1,0-0.4,0.2-0.8,0.2l0,0c-0.4,0-0.7-0.1-0.8-0.1l-0.6-0.3
				c-0.1,0.1-3.4-1.8-3.5-1.8l-28.8-16.5C147.4,113.5,147.4,111,149.2,110z"/>
			<path id="XMLID_123_" class="st90" d="M149.5,110l13.6-7.7c0.1,0,0.4-0.1,0.8-0.1c0.4,0,0.7,0.1,0.8,0.1l0.6,0.3l3.4,1.9
				l28.4,16.3c1.8,1,1.8,3.5,0,4.6l-13.5,7.7c-0.1,0-0.4,0.1-0.8,0.1l0,0c-0.4,0-0.7-0.1-0.8-0.1l-0.6-0.3l-3.4-1.9l-28.5-16.3
				C147.7,113.5,147.7,111,149.5,110z"/>
			<path id="XMLID_122_" class="st53" d="M182.6,133.1c-0.4,0-0.7-0.1-0.8-0.1l-32.1-18.4c-1.8-1-1.8-3.6,0-4.6l13.4-7.6
				c0.1,0,0.3-0.1,0.8-0.1c0.4,0,0.7,0.1,0.8,0.1l32,18.4c1.8,1,1.8,3.6,0,4.6l-13.4,7.7C183.3,133,183,133.1,182.6,133.1
				L182.6,133.1z"/>
		</g>
		<g id="XMLID_716_">
			
				<linearGradient id="XMLID_216_" gradientUnits="userSpaceOnUse" x1="-290.4436" y1="139.3" x2="-228.8475" y2="139.3" gradientTransform="matrix(-1 0 0 -1 -85.3389 256)">
				<stop  offset="3.802050e-003" style="stop-color:#A5CBEF"/>
				<stop  offset="0.4419" style="stop-color:#CEE3F6"/>
				<stop  offset="1" style="stop-color:#FFFFFF"/>
			</linearGradient>
			<path id="XMLID_781_" class="st91" d="M183.2,134.4c-0.6,0.4-1.7,0.4-2.3,0l-36.8-21.7c-0.3-0.2-0.6-0.6-0.6-1V111
				c0,0,0.4,0.4,0.6,0.3L165.5,99c0.6-0.4,1.7-0.4,2.3,0l36.8,21.7c0.2,0.1,0.5-0.7,0.6-0.6v0.9c0,0.4-0.2,0.8-0.6,1L183.2,134.4z"
				/>
			<path id="XMLID_780_" class="st55" d="M183.2,133.4c-0.6,0.4-1.7,0.4-2.3,0l-36.8-21.7c-0.6-0.4-0.6-1,0-1.3L165.4,98
				c0.6-0.4,1.7-0.4,2.3,0l36.8,21.7c0.6,0.4,0.6,1,0,1.3L183.2,133.4z"/>
			<path id="XMLID_779_" class="st92" d="M196.5,120.7c1.3-0.7,1.3-2,0-2.7s-3.4-0.7-4.7,0s-1.3,2,0,2.7
				C193.1,121.4,195.2,121.4,196.5,120.7z"/>
			
				<linearGradient id="XMLID_217_" gradientUnits="userSpaceOnUse" x1="-278.506" y1="138.55" x2="-271.8402" y2="138.55" gradientTransform="matrix(-1 0 0 -1 -85.3389 256)">
				<stop  offset="0.1499" style="stop-color:#FF9800"/>
				<stop  offset="1" style="stop-color:#FFC107"/>
			</linearGradient>
			<path id="XMLID_778_" class="st93" d="M192.2,118.8c1.3-0.7,1.3-2,0-2.7s-3.4-0.7-4.7,0s-1.3,2,0,2.7S190.9,119.5,192.2,118.8z"
				/>
			<path id="XMLID_777_" class="st53" d="M188.3,116.8c1.3-0.7,1.3-2,0-2.7s-3.4-0.7-4.7,0s-1.3,2,0,2.7
				C184.9,117.6,187,117.6,188.3,116.8z"/>
			<polygon id="XMLID_776_" class="st94" points="183.1,121.1 189.8,125.1 186.5,127 179.7,123.1 			"/>
			<polygon id="XMLID_775_" class="st94" points="174.4,116.2 181.2,120.1 177.8,122.1 171,118.2 			"/>
			<polygon id="XMLID_774_" class="st94" points="165.7,111.3 172.5,115.2 169.1,117.1 162.4,113.2 			"/>
			<polygon id="XMLID_718_" class="st94" points="166.6,102.1 182.3,111.2 180.5,112.2 164.9,103.1 			"/>
			<polygon id="XMLID_717_" class="st94" points="157.1,106.3 163.8,110.2 160.5,112.2 153.7,108.3 			"/>
		</g>
	</g>
	<g class="st95">
		<polygon id="XMLID_48_" class="st2" points="116,159.4 79.8,179.8 134.8,211.5 171,191.2 		"/>
		<polygon id="XMLID_121_" class="st3" points="116,159.4 80.5,179.4 135.4,211.1 171,191.2 		"/>
		<polygon id="XMLID_120_" class="st4" points="116,159.4 81.2,179 136.1,210.7 171,191.2 		"/>
		<polygon id="XMLID_119_" class="st5" points="116,159.4 81.9,178.6 136.8,210.4 171,191.2 		"/>
		<polygon id="XMLID_118_" class="st6" points="116,159.4 82.5,178.3 137.5,210 171,191.2 		"/>
		<polygon id="XMLID_117_" class="st7" points="116,159.4 83.2,177.9 138.2,209.6 171,191.2 		"/>
		<polygon id="XMLID_116_" class="st8" points="116,159.4 83.9,177.5 138.8,209.2 171,191.2 		"/>
		<polygon id="XMLID_115_" class="st9" points="116,159.4 84.6,177.1 139.5,208.8 171,191.2 		"/>
		<polygon id="XMLID_114_" class="st10" points="116,159.4 85.3,176.7 140.2,208.5 171,191.2 		"/>
		<polygon id="XMLID_113_" class="st11" points="116,159.4 85.9,176.4 140.9,208.1 171,191.2 		"/>
		<polygon id="XMLID_112_" class="st12" points="116,159.4 86.6,176 141.6,207.7 171,191.2 		"/>
		<polygon id="XMLID_111_" class="st13" points="116,159.4 87.3,175.6 142.3,207.3 171,191.2 		"/>
		<polygon id="XMLID_110_" class="st14" points="116,159.4 88,175.2 142.9,206.9 171,191.2 		"/>
		<polygon id="XMLID_109_" class="st15" points="116,159.4 88.7,174.8 143.6,206.6 171,191.2 		"/>
		<polygon id="XMLID_108_" class="st16" points="116,159.4 89.3,174.4 144.3,206.2 171,191.2 		"/>
		<polygon id="XMLID_107_" class="st17" points="116,159.4 90,174.1 145,205.8 171,191.2 		"/>
		<polygon id="XMLID_106_" class="st18" points="116,159.4 90.7,173.7 145.7,205.4 171,191.2 		"/>
		<polygon id="XMLID_105_" class="st19" points="116,159.4 91.4,173.3 146.3,205 171,191.2 		"/>
		<polygon id="XMLID_104_" class="st20" points="116,159.4 92.1,172.9 147,204.6 171,191.2 		"/>
		<polygon id="XMLID_103_" class="st21" points="116,159.4 92.8,172.5 147.7,204.3 171,191.2 		"/>
		<polygon id="XMLID_102_" class="st22" points="116,159.4 93.4,172.2 148.4,203.9 171,191.2 		"/>
		<polygon id="XMLID_101_" class="st23" points="116,159.4 94.1,171.8 149.1,203.5 171,191.2 		"/>
		<polygon id="XMLID_100_" class="st24" points="116,159.4 94.8,171.4 149.7,203.1 171,191.2 		"/>
		<polygon id="XMLID_99_" class="st25" points="116,159.4 95.5,171 150.4,202.7 171,191.2 		"/>
		<polygon id="XMLID_98_" class="st26" points="116,159.4 96.2,170.6 151.1,202.4 171,191.2 		"/>
		<polygon id="XMLID_97_" class="st27" points="116,159.4 96.8,170.3 151.8,202 171,191.2 		"/>
		<polygon id="XMLID_96_" class="st28" points="116,159.4 97.5,169.9 152.5,201.6 171,191.2 		"/>
		<polygon id="XMLID_95_" class="st29" points="116,159.4 98.2,169.5 153.1,201.2 171,191.2 		"/>
		<polygon id="XMLID_94_" class="st30" points="116,159.4 98.9,169.1 153.8,200.8 171,191.2 		"/>
		<polygon id="XMLID_93_" class="st31" points="116,159.4 99.6,168.7 154.5,200.5 171,191.2 		"/>
		<polygon id="XMLID_92_" class="st32" points="116,159.4 100.2,168.3 155.2,200.1 171,191.2 		"/>
		<polygon id="XMLID_91_" class="st33" points="116,159.4 100.9,168 155.9,199.7 171,191.2 		"/>
		<polygon id="XMLID_90_" class="st34" points="116,159.4 101.6,167.6 156.5,199.3 171,191.2 		"/>
		<polygon id="XMLID_89_" class="st35" points="116,159.4 102.3,167.2 157.2,198.9 171,191.2 		"/>
		<polygon id="XMLID_88_" class="st36" points="116,159.4 103,166.8 157.9,198.5 171,191.2 		"/>
		<polygon id="XMLID_87_" class="st37" points="116,159.4 103.6,166.4 158.6,198.2 171,191.2 		"/>
		<polygon id="XMLID_86_" class="st38" points="116,159.4 104.3,166.1 159.3,197.8 171,191.2 		"/>
		<polygon id="XMLID_85_" class="st39" points="116,159.4 105,165.7 160,197.4 171,191.2 		"/>
		<polygon id="XMLID_84_" class="st40" points="116,159.4 105.7,165.3 160.6,197 171,191.2 		"/>
		<polygon id="XMLID_83_" class="st41" points="116,159.4 106.4,164.9 161.3,196.6 171,191.2 		"/>
		<polygon id="XMLID_82_" class="st42" points="116,159.4 107,164.5 162,196.3 171,191.2 		"/>
		<polygon id="XMLID_81_" class="st43" points="116,159.4 107.7,164.2 162.7,195.9 171,191.2 		"/>
		<polygon id="XMLID_80_" class="st44" points="116,159.4 108.4,163.8 163.4,195.5 171,191.2 		"/>
		<polygon id="XMLID_79_" class="st45" points="116,159.4 109.1,163.4 164,195.1 171,191.2 		"/>
		<polygon id="XMLID_78_" class="st46" points="116,159.4 109.8,163 164.7,194.7 171,191.2 		"/>
		<polygon id="XMLID_77_" class="st47" points="116,159.4 110.4,162.6 165.4,194.4 171,191.2 		"/>
		<polygon id="XMLID_76_" class="st48" points="116,159.4 111.1,162.2 166.1,194 171,191.2 		"/>
		<polygon id="XMLID_75_" class="st49" points="116,159.4 111.8,161.9 166.8,193.6 171,191.2 		"/>
		<polygon id="XMLID_74_" class="st50" points="116,159.4 112.5,161.5 167.4,193.2 171,191.2 		"/>
		<polygon id="XMLID_73_" class="st51" points="116,159.4 113.2,161.1 168.1,192.8 171,191.2 		"/>
		<polygon id="XMLID_72_" class="st52" points="116,159.4 113.9,160.7 168.8,192.4 171,191.2 		"/>
		<polygon id="XMLID_47_" class="st53" points="116,159.4 114.5,160.3 169.5,192.1 171,191.2 		"/>
	</g>
	<g>
		
			<linearGradient id="XMLID_218_" gradientUnits="userSpaceOnUse" x1="159.4167" y1="77.5117" x2="117.1911" y2="216.5583" gradientTransform="matrix(1 0 0 -1 0 256)">
			<stop  offset="3.802280e-002" style="stop-color:#A5CBEF"/>
			<stop  offset="0.6654" style="stop-color:#EAF3FB"/>
			<stop  offset="1" style="stop-color:#A5CBEF"/>
		</linearGradient>
		<path id="XMLID_45_" class="st96" d="M112.9,43.3l-0.5,2.7c-0.7,0.5-0.7,3.4-0.7,4.3l0.9,103.3c0,5,2.6,8.6,6.9,11.1l36.9,21.8
			c0.6,0.4,1.4,2,2,1.7l3.5,0.7c3.7-1.3,6.1-4.8,6.1-8.7V77.4c0-5-3.5-11.1-7.8-13.6l-35-20.2C120.8,41.2,117.1,40.4,112.9,43.3z"/>
		<path id="XMLID_44_" class="st59" d="M118.5,43.8c-4.3-2.5-7.8-0.5-7.8,4.5V153c0,5,3.5,11.1,7.8,13.6l38,21.9
			c4.3,2.5,7.8,0.5,7.8-4.5V79.3c0-5-3.5-11.1-7.8-13.6L118.5,43.8z"/>
		<g id="XMLID_42_">
			<path id="XMLID_43_" class="st94" d="M143.5,64.5c-0.2,0-0.3,0-0.5-0.1l-11.9-6.9c-0.4-0.3-0.6-0.8-0.3-1.2s0.8-0.6,1.2-0.3
				l11.9,6.9c0.4,0.2,0.6,0.8,0.3,1.2C144.1,64.3,143.8,64.5,143.5,64.5z"/>
		</g>
		<path id="XMLID_41_" class="st94" d="M117.1,46.3l9.2,5.3c0.3,0.2,0.5,0.5,0.5,0.9v1.7c0,1.9,1,3.7,2.7,4.6l15.8,9.1
			c1.2,0.7,2.7-0.2,2.7-1.6v-1.2c0-0.4,0.5-0.7,0.8-0.5l6.7,3.9c4.1,2.4,6.6,6.7,6.6,11.4v103.9c0,2.4-2.6,3.8-4.6,2.7l-38.2-22.1
			c-4.1-2.4-6.7-6.8-6.7-11.6L112.5,49C112.5,46.6,115,45.2,117.1,46.3z"/>
	</g>
	<g>
		
			<linearGradient id="XMLID_220_" gradientUnits="userSpaceOnUse" x1="127" y1="160.55" x2="146.1641" y2="160.55" gradientTransform="matrix(1 0 0 -1 0 256)">
			<stop  offset="0" style="stop-color:#3C5185"/>
			<stop  offset="1" style="stop-color:#5D7DBE"/>
		</linearGradient>
		<path id="XMLID_294_" class="st97" d="M136.6,84.4c-5.3-3-9.6-0.6-9.6,5.5s4.3,13.6,9.6,16.6s9.6,0.6,9.6-5.5
			C146.1,94.9,141.8,87.4,136.6,84.4z"/>
		
			<linearGradient id="XMLID_221_" gradientUnits="userSpaceOnUse" x1="127" y1="107.05" x2="146.1641" y2="107.05" gradientTransform="matrix(1 0 0 -1 0 256)">
			<stop  offset="0" style="stop-color:#3C5185"/>
			<stop  offset="1" style="stop-color:#5D7DBE"/>
		</linearGradient>
		<path id="XMLID_293_" class="st98" d="M136.6,137.9c-5.3-3-9.6-0.6-9.6,5.5s4.3,13.6,9.6,16.6s9.6,0.6,9.6-5.5
			C146.1,148.4,141.8,140.9,136.6,137.9z"/>
		<path id="XMLID_292_" class="st99" d="M138.8,113.2c-4-2.3-7.3-0.4-7.3,4.2c0,4.7,3.3,10.4,7.3,12.7c4,2.3,7.3,0.4,7.3-4.2
			C146.1,121.2,142.8,115.5,138.8,113.2z"/>
		<path id="XMLID_291_" class="st99" d="M133.6,111.4c-4.9-2.8-8.9-0.5-8.9,5.1c0,5.7,4,12.6,8.9,15.4c4.9,2.8,8.9,0.5,8.9-5.1
			C142.6,121.2,138.5,114.2,133.6,111.4z"/>
		<path id="XMLID_290_" class="st100" d="M129.8,110.6c-5.3-3-9.6-0.6-9.6,5.5s4.3,13.6,9.6,16.6c5.3,3,9.6,0.6,9.6-5.5
			C139.4,121.1,135.1,113.6,129.8,110.6z"/>
		
			<linearGradient id="XMLID_222_" gradientUnits="userSpaceOnUse" x1="118.9" y1="134.35" x2="138.0641" y2="134.35" gradientTransform="matrix(1 0 0 -1 0 256)">
			<stop  offset="0.1499" style="stop-color:#FF9800"/>
			<stop  offset="1" style="stop-color:#FFC107"/>
		</linearGradient>
		<path id="XMLID_289_" class="st101" d="M128.5,110.6c-5.3-3-9.6-0.6-9.6,5.5s4.3,13.6,9.6,16.6c5.3,3,9.6,0.6,9.6-5.5
			C138.1,121.1,133.7,113.6,128.5,110.6z"/>
		<path id="XMLID_285_" class="st59" d="M130.8,123.2l-0.5-0.3c0.3-0.3,0.4-0.7,0.4-1.1v-1.6c0-0.9-0.5-1.8-1.3-2.2l-0.7-0.4v-1.5
			l-1.3-0.7v1.5l-0.5-0.3v-1.4l-1.3-0.8v1.4l-0.8-0.5v1.5l0.8,0.5v2.9l-0.8-0.5v1.5l0.8,0.5v2.9l-0.8-0.5v1.5l0.8,0.5v1.2l1.3,0.7
			v-1.1l0.5,0.3v1.1l1.3,0.7v-1.1l0.9,0.5c0.3,0.1,0.5,0.2,0.8,0.2s0.6-0.1,0.8-0.2c0.5-0.3,0.8-0.8,0.8-1.4v-1.6
			C132.1,124.5,131.6,123.6,130.8,123.2z M127,118.1l1.9,1.1c0.4,0.2,0.6,0.6,0.6,1.1v1.6c0,0.2-0.1,0.3-0.2,0.3
			c-0.1,0-0.2,0.1-0.3,0l-2-1.2V118.1z M130.8,127c0,0.2-0.1,0.3-0.2,0.3c-0.1,0-0.2,0.1-0.3,0l-3.3-2v-2.8l3.2,1.8
			c0.4,0.2,0.6,0.6,0.6,1.1V127z"/>
		<polygon id="XMLID_284_" class="st59" points="139.5,102.4 139.5,99.6 136.7,98 136.7,95.6 137.6,95.1 137.6,93.4 136.7,93.9 
			136.7,89.9 134.4,88.5 134.4,95.3 133.6,95.8 133.6,97.3 134.4,96.9 134.4,99.4 		"/>
		<g id="XMLID_50_">
			<polygon id="XMLID_283_" class="st102" points="136.5,140.9 136.5,140.9 134,148.5 136,151.6 136,151.6 139.2,151.6 			"/>
			<polygon id="XMLID_55_" class="st59" points="134,149.3 135.8,152.1 139.2,152.1 136.6,157 			"/>
			<polygon id="XMLID_54_" class="st103" points="136.5,140.9 136.2,147.8 139.2,151.6 			"/>
			<polygon id="XMLID_53_" class="st104" points="134,148.5 136.2,147.8 136,151.6 			"/>
			<polygon id="XMLID_52_" class="st59" points="136.2,147.8 136,151.6 139.2,151.6 			"/>
			<polygon id="XMLID_51_" class="st105" points="134,149.3 136.6,157 135.8,152.1 			"/>
		</g>
	</g>
	<g id="XMLID_56_">
		
			<linearGradient id="XMLID_223_" gradientUnits="userSpaceOnUse" x1="147.2609" y1="79.8378" x2="172.0846" y2="79.8378" gradientTransform="matrix(1 0 0 -1 0 256)">
			<stop  offset="0.1499" style="stop-color:#FF9800"/>
			<stop  offset="1" style="stop-color:#FFC107"/>
		</linearGradient>
		<path id="XMLID_61_" class="st106" d="M147.8,161.3L147.8,161.3c2.2-2.5,5.9-3.1,8.9-1.5l12.5,7c1.6,0.9,2.9,3.2,2.9,5v16.5
			c0,3-2.5,5.3-5.5,5.1h-0.5c-0.4,0-0.9-0.2-1.2-0.4l-14.6-8.3c-1.6-0.9-2.9-3.2-2.9-5v-17.1C147.3,162.2,147.5,161.7,147.8,161.3z"
			/>
		
			<linearGradient id="XMLID_224_" gradientUnits="userSpaceOnUse" x1="166.1252" y1="62.6598" x2="148.5259" y2="94.5287" gradientTransform="matrix(1 0 0 -1 0 256)">
			<stop  offset="0.1499" style="stop-color:#FF9800"/>
			<stop  offset="1" style="stop-color:#FFC107"/>
		</linearGradient>
		<path id="XMLID_60_" class="st107" d="M147.3,163.6c0-1.8,1.3-2.6,2.9-1.7l14.3,8.1c1.6,0.9,2.9,3.2,2.9,5v16.3
			c0,1.8-1.3,2.6-2.9,1.7l-14.3-8.1c-1.6-0.9-2.9-3.2-2.9-5V163.6z"/>
		<path id="XMLID_59_" class="st53" d="M157.3,171.4c-1.7-1-3.1-0.2-3.1,1.7s1.4,4.3,3.1,5.4c1.7,1,3.1,0.3,3.1-1.7
			C160.4,174.7,159,172.3,157.3,171.4z"/>
		<path id="XMLID_58_" class="st53" d="M166.3,167.8v-7.4c0-7.2-1.6-11.7-4.7-13.5c-1.6-0.9-3.4-1-4.9-0.1c-1.2,0.7-3.2,2.6-3.2,7.7
			v7.3l0,0c0,0.2,0.1,0.4,0.4,0.5c0.5,0.3,1.3,0.3,1.9,0c0.2-0.1,0.4-0.3,0.4-0.5l0,0v-7.3c0-2.7,0.7-4.7,1.9-5.3
			c0.8-0.5,1.6-0.2,2.2,0.1c2.2,1.2,3.4,5.2,3.4,11.2v7.4c0,0.2,0.1,0.4,0.4,0.6c0.5,0.3,1.4,0.3,1.9,0
			C166.2,168.2,166.3,168,166.3,167.8z"/>
		<polygon id="XMLID_57_" class="st53" points="155.5,173.2 155.5,181.7 159.2,183.9 159.2,175.4 		"/>
	</g>
	<g id="XMLID_62_">
		<path id="XMLID_301_" class="st92" d="M100.9,193.2v6.1c0,1,0.8,1.8,1.8,1.8h0.6c1.1,0,2.1-0.2,3.1-0.7l6-2.4
			c0.5-0.3,0.8-0.9,0.6-1.5l0,0c-0.4-1.2-1.5-2-2.7-2h-4.8l-0.7-1.2L100.9,193.2z"/>
		<path id="XMLID_299_" class="st53" d="M113,196.5c-0.1,0.3-0.3,0.5-0.6,0.7l-6,2.4c-1,0.5-2,0.7-3.1,0.7h-0.6
			c-1,0-1.8-0.8-1.8-1.8v0.9c0,1,0.8,1.8,1.8,1.8h0.6c1.1,0,2.1-0.2,3.1-0.7l6-2.4C112.9,197.8,113.2,197.2,113,196.5
			C113,196.6,113,196.5,113,196.5z"/>
		<g id="XMLID_172_">
			
				<linearGradient id="XMLID_225_" gradientUnits="userSpaceOnUse" x1="99.8343" y1="79.8" x2="106.9321" y2="79.8" gradientTransform="matrix(1 0 0 -1 0 256)">
				<stop  offset="0" style="stop-color:#FFFFFF"/>
				<stop  offset="0.1821" style="stop-color:#F8FCFF"/>
				<stop  offset="0.4523" style="stop-color:#E4F3FE"/>
				<stop  offset="0.7757" style="stop-color:#C3E5FC"/>
				<stop  offset="1" style="stop-color:#A8D9FB"/>
			</linearGradient>
			<path id="XMLID_173_" class="st108" d="M103,196.5L103,196.5c-1.4,0-2.6-1.2-2.5-2.5l0.4-15.7l0.1-9.3c0-0.7-0.1-1.5-0.4-2.2
				l-0.4-1.1c-0.3-0.7-0.4-1.5-0.3-2.3l0.2-3.7c0-1.4,1.6-3.8,3-3.8s3.9,1.4,4,2.8l-0.2,19.6l-1.5,14.9
				C105.2,194.6,104.9,196.5,103,196.5z"/>
		</g>
		<path id="XMLID_298_" class="st92" d="M108.7,197.6v6.1c0,1,0.8,1.8,1.8,1.8h0.6c1.1,0,2.1-0.2,3.1-0.7l6-2.4
			c0.5-0.3,0.8-0.9,0.6-1.5l0,0c-0.4-1.2-1.5-2-2.7-2h-4.8l-0.2-1.2L108.7,197.6z"/>
		<path id="XMLID_297_" class="st53" d="M120.8,201.8c-0.1,0.3-0.3,0.5-0.6,0.7l-6,2.4c-1,0.5-2,0.7-3.1,0.7h-0.6
			c-1,0-1.8-0.8-1.8-1.8v0.9c0,1,0.8,1.8,1.8,1.8h0.6c1.1,0,2.1-0.2,3.1-0.7l6-2.4C120.8,203.1,121.1,202.4,120.8,201.8
			C120.9,201.8,120.8,201.8,120.8,201.8z"/>
		<g id="XMLID_295_">
			
				<linearGradient id="XMLID_226_" gradientUnits="userSpaceOnUse" x1="100.8553" y1="76.05" x2="114.1553" y2="76.05" gradientTransform="matrix(1 0 0 -1 0 256)">
				<stop  offset="0" style="stop-color:#FFFFFF"/>
				<stop  offset="0.1821" style="stop-color:#F8FCFF"/>
				<stop  offset="0.4523" style="stop-color:#E4F3FE"/>
				<stop  offset="0.7757" style="stop-color:#C3E5FC"/>
				<stop  offset="1" style="stop-color:#A8D9FB"/>
			</linearGradient>
			<path id="XMLID_296_" class="st109" d="M110.9,200.9L110.9,200.9c-0.7,0-2.3-1.3-2.2-2.6l-0.4-16.1l-2.7-12.4l-1.3-0.7
				c-1.9-1.1-3.2-3.1-3.3-5.3l-0.1-2.1c0-1.4,8.6-2.6,10-2.7c1.4,0,2.6,1,2.6,2.4l0.7,21.7l-1,15.5
				C113.1,199.8,112.2,200.9,110.9,200.9z"/>
		</g>
		<path id="XMLID_171_" class="st53" d="M109.1,136.9l1.5,0.9c2.6,1.5,4.2,4.3,4.2,7.3l0.4,3.2c0.1,1.3-0.4,1.8-0.8,3.1l-0.2,4.3
			l0.2,10.6c-10.3-0.4-14.5-4.2-14.5-4.2v-19.7C99.9,137.5,105,134.5,109.1,136.9z"/>
		<path id="XMLID_170_" class="st110" d="M108.7,136.3h-0.9c-1.4,0-2.6-1.2-2.6-2.6v-7.1h8.4v4.7
			C113.6,134.1,111.4,136.3,108.7,136.3z"/>
		<path id="XMLID_169_" class="st110" d="M108.2,138.7h-0.4c-0.9,0-1.6-0.7-1.6-1.6v-4.9c0-0.3,0.2-0.5,0.5-0.5h2.4
			c0.3,0,0.5,0.2,0.5,0.5v4.9C109.8,138,109.1,138.7,108.2,138.7z"/>
		<g id="XMLID_163_">
			<path id="XMLID_219_" class="st92" d="M113.9,125.8c-0.3-0.4-0.7-0.7-1.5-0.9c-1.6-0.5-3.6-0.2-5.2,0.3c-2.6,0.8-4.3,2.5-4.2,5.5
				c0.1,1.9,1.2,5.6,3.6,5.6c0.9,0,1.7-0.6,2.1-1.4c0.4-0.8,0.4-1.7,0.3-2.6c0-0.4-0.1-0.7,0-1.1c0.1-0.3,0.4-0.7,0.7-0.7
				c0.5,0,0.7,0.5,1,0.9c0.2,0.4,0.6,0.8,1.1,0.6c0.4-0.2,0.4-0.7,0.3-1.1c-0.2-0.4-0.4-0.8-0.4-1.2c0-0.5,0.5-0.9,0.9-1.1
				C114,127.8,114.6,126.7,113.9,125.8z"/>
		</g>
		<circle id="XMLID_149_" class="st92" cx="103.7" cy="127.8" r="3.9"/>
		<path id="XMLID_70_" class="st111" d="M105,124.1c1,0.7,1.7,1.9,1.7,3.2c0,2.1-1.7,3.9-3.9,3.9c-0.5,0-0.9-0.1-1.3-0.2
			c0.6,0.4,1.4,0.7,2.2,0.7c2.1,0,3.9-1.7,3.9-3.9C107.5,126.1,106.5,124.7,105,124.1z"/>
		<path id="XMLID_68_" class="st110" d="M115.2,153.7c-0.5,0-1-0.1-1.5-0.2c-1.9-0.6-3.2-2.1-3.4-4l-0.7-5.2
			c-0.1-0.9,0.5-1.8,1.4-1.9c0.9-0.1,1.8,0.5,1.9,1.4l0.7,5.2c0.1,0.9,0.8,1.2,1.1,1.3c0.2,0.1,1,0.2,1.6-0.5l4.9-5.5
			c0.6-0.7,1.7-0.8,2.4-0.2c0.7,0.6,0.8,1.7,0.2,2.4l-4.9,5.5C117.9,153.1,116.6,153.7,115.2,153.7z"/>
		<path id="XMLID_567_" class="st53" d="M113.2,143.6c-0.1-1.1-1.2-1.8-2.3-1.6c-0.9,0.2-1.5,1.2-1.4,2.2l0.5,3.9
			c0.1,1,1.1,1.7,2.1,1.6l0,0c1-0.1,1.7-1.1,1.6-2.1L113.2,143.6z"/>
		<g id="XMLID_66_">
			<path id="XMLID_566_" class="st110" d="M120.4,145.2l0.8-0.9c0.6-0.7,1.7-0.8,2.4-0.2c0.7,0.6,0.8,1.7,0.2,2.4l-1,1.1
				L120.4,145.2z"/>
		</g>
		<circle id="XMLID_65_" class="st110" cx="123.3" cy="144.9" r="2"/>
		<path id="XMLID_64_" class="st110" d="M125.1,141.3l-2.7,2.8c-0.1,0.1-0.4,0.1-0.5,0l-0.1-0.1c-0.1-0.1-0.1-0.4,0-0.5l2.7-2.8
			c0.1-0.1,0.4-0.1,0.5,0l0.1,0.1C125.2,141,125.2,141.2,125.1,141.3z"/>
	</g>
	<g>
		<g>
			<g class="st1">
				<path id="XMLID_1585_" class="st2" d="M52.8,160.2c-0.9-0.5-0.9-1.3,0-1.8l17-9.8c0.9-0.5,2.2-0.5,3.1,0l17,9.8
					c0.9,0.5,0.9,1.3,0,1.8l-17,9.8c-0.9,0.5-2.2,0.5-3.1,0L52.8,160.2z"/>
				<path id="XMLID_71_" class="st112" d="M53,160.2c-0.8-0.5-0.8-1.3,0-1.8l16.8-9.7c0.8-0.5,2.2-0.5,3.1,0l16.8,9.7
					c0.8,0.5,0.8,1.3,0,1.8l-16.8,9.7c-0.8,0.5-2.2,0.5-3.1,0L53,160.2z"/>
				<path id="XMLID_67_" class="st113" d="M53.1,160.2c-0.8-0.5-0.8-1.3,0-1.8l16.7-9.6c0.8-0.5,2.2-0.5,3.1,0l16.7,9.6
					c0.8,0.5,0.8,1.3,0,1.8l-16.7,9.6c-0.8,0.5-2.2,0.5-3.1,0L53.1,160.2z"/>
				<path id="XMLID_63_" class="st114" d="M53.3,160.2c-0.8-0.5-0.8-1.3,0-1.7l16.5-9.6c0.8-0.5,2.2-0.5,3,0l16.5,9.6
					c0.8,0.5,0.8,1.3,0,1.7l-16.5,9.6c-0.8,0.5-2.2,0.5-3,0L53.3,160.2z"/>
				<path id="XMLID_49_" class="st115" d="M53.5,160.1c-0.8-0.5-0.8-1.3,0-1.7l16.4-9.5c0.8-0.5,2.2-0.5,3,0l16.4,9.5
					c0.8,0.5,0.8,1.3,0,1.7l-16.4,9.5c-0.8,0.5-2.2,0.5-3,0L53.5,160.1z"/>
				<path id="XMLID_46_" class="st116" d="M53.6,160.1c-0.8-0.5-0.8-1.2,0-1.7l16.3-9.4c0.8-0.5,2.2-0.5,3,0l16.3,9.4
					c0.8,0.5,0.8,1.2,0,1.7l-16.3,9.4c-0.8,0.5-2.2,0.5-3,0L53.6,160.1z"/>
				<path id="XMLID_40_" class="st117" d="M53.8,160.1c-0.8-0.5-0.8-1.2,0-1.7l16.1-9.3c0.8-0.5,2.1-0.5,2.9,0l16.1,9.3
					c0.8,0.5,0.8,1.2,0,1.7l-16.1,9.3c-0.8,0.5-2.1,0.5-2.9,0L53.8,160.1z"/>
				<path id="XMLID_39_" class="st118" d="M53.9,160.1c-0.8-0.5-0.8-1.2,0-1.7l16-9.2c0.8-0.5,2.1-0.5,2.9,0l16,9.2
					c0.8,0.5,0.8,1.2,0,1.7l-16,9.2c-0.8,0.5-2.1,0.5-2.9,0L53.9,160.1z"/>
				<path id="XMLID_38_" class="st119" d="M54.1,160.1c-0.8-0.5-0.8-1.2,0-1.7l15.8-9.1c0.8-0.5,2.1-0.5,2.9,0l15.8,9.1
					c0.8,0.5,0.8,1.2,0,1.7l-15.8,9.1c-0.8,0.5-2.1,0.5-2.9,0L54.1,160.1z"/>
				<path id="XMLID_37_" class="st120" d="M54.2,160.1c-0.8-0.5-0.8-1.2,0-1.7l15.7-9.1c0.8-0.5,2.1-0.5,2.9,0l15.7,9.1
					c0.8,0.5,0.8,1.2,0,1.7l-15.7,9.1c-0.8,0.5-2.1,0.5-2.9,0L54.2,160.1z"/>
				<path id="XMLID_36_" class="st121" d="M54.4,160.1c-0.8-0.5-0.8-1.2,0-1.6l15.5-9c0.8-0.5,2.1-0.5,2.8,0l15.5,9
					c0.8,0.5,0.8,1.2,0,1.6l-15.5,9c-0.8,0.5-2.1,0.5-2.8,0L54.4,160.1z"/>
				<path id="XMLID_35_" class="st122" d="M54.5,160.1c-0.8-0.4-0.8-1.2,0-1.6l15.4-8.9c0.8-0.4,2-0.4,2.8,0l15.4,8.9
					c0.8,0.4,0.8,1.2,0,1.6L72.8,169c-0.8,0.4-2,0.4-2.8,0L54.5,160.1z"/>
				<path id="XMLID_34_" class="st123" d="M54.7,160.1c-0.8-0.4-0.8-1.2,0-1.6l15.3-8.8c0.8-0.4,2-0.4,2.8,0l15.3,8.8
					c0.8,0.4,0.8,1.2,0,1.6l-15.3,8.8c-0.8,0.4-2,0.4-2.8,0L54.7,160.1z"/>
				<path id="XMLID_33_" class="st124" d="M54.9,160.1c-0.8-0.4-0.8-1.2,0-1.6l15.1-8.7c0.8-0.4,2-0.4,2.8,0l15.1,8.7
					c0.8,0.4,0.8,1.2,0,1.6l-15.1,8.7c-0.8,0.4-2,0.4-2.8,0L54.9,160.1z"/>
				<path id="XMLID_32_" class="st125" d="M55,160.1c-0.8-0.4-0.8-1.1,0-1.6l15-8.6c0.8-0.4,2-0.4,2.7,0l15,8.6
					c0.8,0.4,0.8,1.1,0,1.6l-15,8.6c-0.8,0.4-2,0.4-2.7,0L55,160.1z"/>
				<path id="XMLID_31_" class="st126" d="M55.2,160.1c-0.7-0.4-0.7-1.1,0-1.6l14.8-8.6c0.7-0.4,2-0.4,2.7,0l14.8,8.6
					c0.7,0.4,0.7,1.1,0,1.6l-14.8,8.6c-0.7,0.4-2,0.4-2.7,0L55.2,160.1z"/>
				<path id="XMLID_30_" class="st127" d="M55.3,160.1c-0.7-0.4-0.7-1.1,0-1.5L70,150c0.7-0.4,1.9-0.4,2.7,0l14.7,8.5
					c0.7,0.4,0.7,1.1,0,1.5l-14.7,8.5c-0.7,0.4-1.9,0.4-2.7,0L55.3,160.1z"/>
				<path id="XMLID_29_" class="st128" d="M55.5,160c-0.7-0.4-0.7-1.1,0-1.5l14.5-8.4c0.7-0.4,1.9-0.4,2.7,0l14.5,8.4
					c0.7,0.4,0.7,1.1,0,1.5l-14.5,8.4c-0.7,0.4-1.9,0.4-2.7,0L55.5,160z"/>
				<path id="XMLID_28_" class="st129" d="M55.6,160c-0.7-0.4-0.7-1.1,0-1.5l14.4-8.3c0.7-0.4,1.9-0.4,2.6,0l14.4,8.3
					c0.7,0.4,0.7,1.1,0,1.5l-14.4,8.3c-0.7,0.4-1.9,0.4-2.6,0L55.6,160z"/>
				<path id="XMLID_27_" class="st130" d="M55.8,160c-0.7-0.4-0.7-1.1,0-1.5l14.3-8.2c0.7-0.4,1.9-0.4,2.6,0l14.3,8.2
					c0.7,0.4,0.7,1.1,0,1.5l-14.3,8.2c-0.7,0.4-1.9,0.4-2.6,0L55.8,160z"/>
				<path id="XMLID_26_" class="st131" d="M56,160c-0.7-0.4-0.7-1.1,0-1.5l14.1-8.1c0.7-0.4,1.9-0.4,2.6,0l14.1,8.1
					c0.7,0.4,0.7,1.1,0,1.5l-14.1,8.1c-0.7,0.4-1.9,0.4-2.6,0L56,160z"/>
				<path id="XMLID_25_" class="st132" d="M56.1,160c-0.7-0.4-0.7-1.1,0-1.5l14-8.1c0.7-0.4,1.9-0.4,2.6,0l14,8.1
					c0.7,0.4,0.7,1.1,0,1.5l-14,8.1c-0.7,0.4-1.9,0.4-2.6,0L56.1,160z"/>
				<path id="XMLID_24_" class="st133" d="M56.3,160c-0.7-0.4-0.7-1.1,0-1.5l13.8-8c0.7-0.4,1.8-0.4,2.5,0l13.8,8
					c0.7,0.4,0.7,1.1,0,1.5l-13.8,8c-0.7,0.4-1.8,0.4-2.5,0L56.3,160z"/>
				<path id="XMLID_23_" class="st134" d="M56.4,160c-0.7-0.4-0.7-1,0-1.4l13.7-7.9c0.7-0.4,1.8-0.4,2.5,0l13.7,7.9
					c0.7,0.4,0.7,1,0,1.4l-13.7,7.9c-0.7,0.4-1.8,0.4-2.5,0L56.4,160z"/>
				<path id="XMLID_22_" class="st135" d="M56.6,160c-0.7-0.4-0.7-1,0-1.4l13.5-7.8c0.7-0.4,1.8-0.4,2.5,0l13.5,7.8
					c0.7,0.4,0.7,1,0,1.4l-13.5,7.8c-0.7,0.4-1.8,0.4-2.5,0L56.6,160z"/>
				<path id="XMLID_21_" class="st136" d="M56.7,160c-0.7-0.4-0.7-1,0-1.4l13.4-7.7c0.7-0.4,1.8-0.4,2.4,0l13.4,7.7
					c0.7,0.4,0.7,1,0,1.4l-13.4,7.7c-0.7,0.4-1.8,0.4-2.4,0L56.7,160z"/>
				<path id="XMLID_20_" class="st137" d="M56.9,160c-0.7-0.4-0.7-1,0-1.4l13.3-7.7c0.7-0.4,1.8-0.4,2.4,0l13.3,7.7
					c0.7,0.4,0.7,1,0,1.4l-13.3,7.7c-0.7,0.4-1.8,0.4-2.4,0L56.9,160z"/>
				<path id="XMLID_19_" class="st138" d="M57,160c-0.7-0.4-0.7-1,0-1.4l13.1-7.6c0.7-0.4,1.7-0.4,2.4,0l13.1,7.6
					c0.7,0.4,0.7,1,0,1.4l-13.1,7.6c-0.7,0.4-1.7,0.4-2.4,0L57,160z"/>
				<path id="XMLID_18_" class="st139" d="M57.2,160c-0.7-0.4-0.7-1,0-1.4l13-7.5c0.7-0.4,1.7-0.4,2.4,0l13,7.5c0.7,0.4,0.7,1,0,1.4
					l-13,7.5c-0.7,0.4-1.7,0.4-2.4,0L57.2,160z"/>
				<path id="XMLID_17_" class="st140" d="M57.4,160c-0.6-0.4-0.6-1,0-1.4l12.8-7.4c0.6-0.4,1.7-0.4,2.3,0l12.8,7.4
					c0.6,0.4,0.6,1,0,1.4l-12.8,7.4c-0.6,0.4-1.7,0.4-2.3,0L57.4,160z"/>
				<path id="XMLID_16_" class="st141" d="M57.5,159.9c-0.6-0.4-0.6-1,0-1.3l12.7-7.3c0.6-0.4,1.7-0.4,2.3,0l12.7,7.3
					c0.6,0.4,0.6,1,0,1.3l-12.7,7.3c-0.6,0.4-1.7,0.4-2.3,0L57.5,159.9z"/>
				<path id="XMLID_15_" class="st142" d="M57.7,159.9c-0.6-0.4-0.6-1,0-1.3l12.5-7.2c0.6-0.4,1.7-0.4,2.3,0l12.5,7.2
					c0.6,0.4,0.6,1,0,1.3l-12.5,7.2c-0.6,0.4-1.7,0.4-2.3,0L57.7,159.9z"/>
				<path id="XMLID_14_" class="st143" d="M57.8,159.9c-0.6-0.4-0.6-0.9,0-1.3l12.4-7.2c0.6-0.4,1.6-0.4,2.3,0l12.4,7.2
					c0.6,0.4,0.6,0.9,0,1.3l-12.4,7.2c-0.6,0.4-1.6,0.4-2.3,0L57.8,159.9z"/>
				<path id="XMLID_13_" class="st144" d="M58,159.9c-0.6-0.4-0.6-0.9,0-1.3l12.2-7.1c0.6-0.4,1.6-0.4,2.2,0l12.2,7.1
					c0.6,0.4,0.6,0.9,0,1.3L72.5,167c-0.6,0.4-1.6,0.4-2.2,0L58,159.9z"/>
				<path id="XMLID_12_" class="st145" d="M58.1,159.9c-0.6-0.4-0.6-0.9,0-1.3l12.1-7c0.6-0.4,1.6-0.4,2.2,0l12.1,7
					c0.6,0.4,0.6,0.9,0,1.3l-12.1,7c-0.6,0.4-1.6,0.4-2.2,0L58.1,159.9z"/>
				<path id="XMLID_10_" class="st146" d="M58.3,159.9c-0.6-0.3-0.6-0.9,0-1.3l12-6.9c0.6-0.3,1.6-0.3,2.2,0l12,6.9
					c0.6,0.3,0.6,0.9,0,1.3l-12,6.9c-0.6,0.3-1.6,0.3-2.2,0L58.3,159.9z"/>
				<path id="XMLID_8_" class="st147" d="M58.5,159.9c-0.6-0.3-0.6-0.9,0-1.2l11.8-6.8c0.6-0.3,1.6-0.3,2.2,0l11.8,6.8
					c0.6,0.3,0.6,0.9,0,1.2l-11.8,6.8c-0.6,0.3-1.6,0.3-2.2,0L58.5,159.9z"/>
				<path id="XMLID_7_" class="st148" d="M58.6,159.9c-0.6-0.3-0.6-0.9,0-1.2l11.7-6.7c0.6-0.3,1.5-0.3,2.1,0l11.7,6.7
					c0.6,0.3,0.6,0.9,0,1.2l-11.7,6.7c-0.6,0.3-1.5,0.3-2.1,0L58.6,159.9z"/>
				<path id="XMLID_6_" class="st149" d="M58.8,159.9c-0.6-0.3-0.6-0.9,0-1.2l11.5-6.7c0.6-0.3,1.5-0.3,2.1,0l11.5,6.7
					c0.6,0.3,0.6,0.9,0,1.2l-11.5,6.7c-0.6,0.3-1.5,0.3-2.1,0L58.8,159.9z"/>
				<path id="XMLID_5_" class="st150" d="M58.9,159.9c-0.6-0.3-0.6-0.9,0-1.2l11.4-6.6c0.6-0.3,1.5-0.3,2.1,0l11.4,6.6
					c0.6,0.3,0.6,0.9,0,1.2l-11.4,6.6c-0.6,0.3-1.5,0.3-2.1,0L58.9,159.9z"/>
				<path id="XMLID_4_" class="st151" d="M59.1,159.9c-0.6-0.3-0.6-0.9,0-1.2l11.2-6.5c0.6-0.3,1.5-0.3,2.1,0l11.2,6.5
					c0.6,0.3,0.6,0.9,0,1.2l-11.2,6.5c-0.6,0.3-1.5,0.3-2.1,0L59.1,159.9z"/>
				<path id="XMLID_1584_" class="st53" d="M59.2,159.9c-0.6-0.3-0.6-0.8,0-1.2l11.1-6.4c0.6-0.3,1.5-0.3,2,0l11.1,6.4
					c0.6,0.3,0.6,0.8,0,1.2l-11.1,6.4c-0.6,0.3-1.5,0.3-2,0L59.2,159.9z"/>
			</g>
			<polygon id="XMLID_1583_" class="st152" points="71.6,134.3 57.2,142.6 71.6,150.9 			"/>
			<polygon id="XMLID_1582_" class="st153" points="71.6,134.3 71.6,150.9 85.9,142.6 			"/>
			<polygon id="XMLID_1581_" class="st153" points="57.2,142.6 57.2,159.2 71.6,167.5 71.6,150.9 			"/>
			<polygon id="XMLID_1580_" class="st152" points="71.6,167.5 85.9,159.2 85.9,142.6 71.6,150.9 			"/>
			<polygon id="XMLID_1579_" class="st154" points="57.2,142.6 51.9,136.1 66.3,127.8 71.6,134.3 			"/>
			<polygon id="XMLID_1578_" class="st154" points="85.9,142.6 91.2,136.1 76.8,127.8 71.6,134.3 			"/>
			<polygon id="XMLID_1577_" class="st155" points="85.9,150 85.9,143.4 71.6,150.9 75.4,156.2 			"/>
			<polygon id="XMLID_1576_" class="st154" points="71.6,150.9 76,155 90.3,146.7 85.9,142.6 			"/>
			<polygon id="XMLID_1575_" class="st155" points="57.2,143.5 57.2,150.1 67.8,156.2 71.6,150.9 71.6,150.9 			"/>
			<polygon id="XMLID_1574_" class="st154" points="71.6,150.9 67.2,155 52.8,146.7 57.2,142.6 			"/>
		</g>
		<g>
			<g>
				<path id="XMLID_1602_" class="st156" d="M81.8,134.1h-1.1c-0.5-0.6-1.1-1.1-2-1.6c-4-2.3-10.7-2.3-14.7,0c-0.8,0.5-1.5,1-2,1.6
					h-1v2.2l0,0c-0.2,1.7,0.8,3.4,3,4.7c4,2.3,10.7,2.3,14.7,0c2.2-1.3,3.2-3,3-4.7l0,0L81.8,134.1L81.8,134.1z"/>
				<g id="XMLID_1590_">
					<path id="XMLID_1601_" class="st157" d="M66.2,131.6c-0.4,0.1-0.7,0.2-1,0.4v9.6c0.3,0.1,0.7,0.3,1,0.4V131.6z"/>
					<path id="XMLID_1600_" class="st157" d="M63.1,133.1v7.2c0.3,0.2,0.6,0.5,1,0.7c0,0,0,0,0.1,0v-8.5c0,0,0,0-0.1,0
						C63.7,132.7,63.4,132.9,63.1,133.1z"/>
					<path id="XMLID_1599_" class="st157" d="M68.3,131c-0.3,0.1-0.7,0.1-1,0.2v11c0.3,0.1,0.7,0.2,1,0.2V131z"/>
					<path id="XMLID_1598_" class="st157" d="M79.5,133v7.5c0.4-0.3,0.7-0.6,1-0.9v-5.7C80.3,133.5,79.9,133.2,79.5,133z"/>
					<path id="XMLID_1597_" class="st157" d="M81.6,138c0.2-0.6,0.3-1.1,0.2-1.7l0,0v-2.2h-0.3v3.9H81.6z"/>
					<path id="XMLID_1596_" class="st157" d="M76.5,131.5c-0.3-0.1-0.7-0.2-1-0.3v11.1c0.3-0.1,0.7-0.2,1-0.3V131.5z"/>
					<path id="XMLID_1595_" class="st157" d="M62.1,139.3V134h-1v2.2l0,0C61,137.4,61.3,138.4,62.1,139.3z"/>
					<path id="XMLID_1594_" class="st157" d="M78.5,132.3c-0.3-0.2-0.7-0.3-1-0.5v9.8c0.4-0.1,0.7-0.3,1-0.5V132.3z"/>
					<path id="XMLID_1593_" class="st157" d="M70.3,130.8c-0.3,0-0.7,0.1-1,0.1v11.7c0.3,0,0.7,0.1,1,0.1V130.8z"/>
					<path id="XMLID_1592_" class="st157" d="M72.4,142.7v-11.9c-0.3,0-0.7,0-1,0v12C71.7,142.7,72,142.7,72.4,142.7z"/>
					<path id="XMLID_1591_" class="st157" d="M74.4,131c-0.3-0.1-0.7-0.1-1-0.1v11.8c0.3,0,0.7-0.1,1-0.1V131z"/>
				</g>
				<path id="XMLID_1589_" class="st158" d="M78.8,129.5c-4-2.3-10.7-2.3-14.7,0s-4,6.2,0,8.5s10.7,2.3,14.7,0
					C82.9,135.7,82.9,131.8,78.8,129.5z"/>
				<path id="XMLID_1588_" class="st157" d="M78.1,129.7c-3.6-2.1-9.6-2.1-13.2,0c-3.6,2.1-3.6,5.5,0,7.6s9.6,2.1,13.2,0
					C81.7,135.3,81.7,131.8,78.1,129.7z"/>
				<path id="XMLID_1587_" class="st158" d="M77.3,130.2c-3.2-1.8-8.4-1.8-11.6,0c-3.2,1.8-3.2,4.8,0,6.6c3.2,1.8,8.4,1.8,11.6,0
					S80.5,132,77.3,130.2z"/>
				<g id="XMLID_1044_">
					<g id="XMLID_1572_">
						<path id="XMLID_1586_" class="st100" d="M72.2,135.8h-2.9c-0.7,0-1.2-0.3-1.2-0.7v-0.4h1.7v0.1h2.4c0.5,0,0.8-0.2,0.8-0.5
							c0-0.2-0.2-0.3-0.5-0.3h-2.1c-1.2,0-2.3-0.6-2.3-1.3v-0.2c0-0.8,1.1-1.5,2.5-1.5h2.9c0.7,0,1.2,0.3,1.2,0.7v0.4H73V132h-2.4
							c-0.5,0-0.8,0.2-0.8,0.5v0.2c0,0.2,0.2,0.3,0.5,0.3h2.1c1.2,0,2.3,0.6,2.3,1.3C74.8,135.1,73.6,135.8,72.2,135.8z"/>
					</g>
					<g id="XMLID_1083_">
						<rect id="XMLID_1563_" x="70.6" y="130.5" class="st100" width="1.7" height="5.9"/>
					</g>
				</g>
			</g>
		</g>
	</g>
	<g>
		<g>
			<path class="st53" d="M102.8,92c0-0.4-0.5-0.7-1.1-0.7h-2.4c-0.4,0-1.1,0.4-1.2,0.3c-0.2-0.2-0.1-0.5,0.2-0.6l1.7-1
				c0.4-0.3-2.4-0.1-2.8-0.4v-2.1c-0.4-0.3-1.2-0.3-1.6,0l-1.7,1c-0.3,0.2-0.7,0.2-1,0.1c-0.2-0.1-0.5-0.1-0.7-0.2
				c-0.4-0.1-0.6-0.3-0.6-0.5v-1.4c0-0.4-0.5-0.7-1.1-0.7h-3.9c-0.6,0-1.1,0.3-1.1,0.7v1.4c0,0.2-0.3,0.4-0.6,0.5
				c-0.2,0.1-0.5,0.1-0.7,0.2c-0.4,0.1-0.8,0.1-1.1-0.1l-1.7-1c-0.4-0.3-1.2-0.3-1.6,0l-0.2,2.3c-0.4,0.3-3,0-2.6,0.2l1.7,1
				c0.3,0.2,0.4,0.4,0.2,0.6c-0.1,0.1-0.8-0.3-1.2-0.3h-2.4c-0.6,0-1.1,0.3-1.1,0.7v3.3c0,0.4,0.5,0.7,1.1,0.7h1.4v2.7v0.1l0,0l0,0
				c0,0.1,0.1,0.3,0.3,0.4l2.8,1.6c0.3,0.2,0.6,0.2,1,0.2l0,0l0,0c0.2,0,0.4-0.1,0.6-0.2l1.7-1c0.3-0.2,0.7-0.2,1-0.1
				c0.2,0.1,0.5,0.1,0.7,0.2c0.4,0.1,0.6,0.3,0.6,0.5v1.4c0,0.4,0.5,0.7,1.1,0.7h3.9c0.6,0,1.1-0.3,1.1-0.7v-1.4
				c0-0.2,0.3-0.4,0.6-0.5c0.2,0,0.4-0.1,0.7-0.2c0.4-0.1,0.8-0.1,1.1,0.1l1.7,1c0.2,0.1,0.4,0.1,0.6,0.2l0,0l0,0c0.3,0,0.7,0,1-0.2
				l2.8-1.6c0.2-0.1,0.3-0.2,0.3-0.4l0,0v-0.1l0,0v-2.8h1.4c0.6,0,1.1-0.3,1.1-0.7L102.8,92z M93.8,94.7c-0.7,2-4.3,3.1-7.5,2.4
				c-2.5-0.5-4-2.1-3.5-3.6c0.7-2,4.3-3.1,7.5-2.4C92.8,91.7,94.3,93.3,93.8,94.7z"/>
			<path id="XMLID_1_" class="st53" d="M100.3,88.2v-1.8h-2.6l-0.6-0.3c-0.4-0.3-1.2-0.3-1.6,0L95,86.4h-3.5v-1.3
				c0-0.4-0.5-0.7-1.1-0.7h-3.9c-0.6,0-1.1,0.3-1.1,0.7v1.3h-3.6l-0.5-0.3c-0.4-0.3-1.2-0.3-1.6,0L79,86.4h-2.6v1.7
				c0,0.2,0.1,0.3,0.3,0.5l1.7,1h19.8l1.7-1C100.1,88.5,100.2,88.4,100.3,88.2L100.3,88.2z"/>
			<g id="XMLID_613_">
				
					<linearGradient id="XMLID_227_" gradientUnits="userSpaceOnUse" x1="73.9" y1="165" x2="102.7573" y2="165" gradientTransform="matrix(1 0 0 -1 0 256)">
					<stop  offset="0" style="stop-color:#4A65A3"/>
					<stop  offset="0.4402" style="stop-color:#5471B1"/>
					<stop  offset="1" style="stop-color:#5D7DBE"/>
				</linearGradient>
				<path id="XMLID_614_" class="st159" d="M98.5,92.8h3.1c0.6,0,1.1-0.3,1.1-0.7v-2.3c0-0.4-0.5-0.7-1.1-0.7h-2.4
					c-0.4,0-0.7-0.1-0.9-0.4c-0.1-0.1-0.2-0.3-0.3-0.4c-0.2-0.2-0.1-0.5,0.2-0.6l1.7-1c0.4-0.3,0.4-0.7,0-0.9l-2.8-1.6
					c-0.4-0.3-1.2-0.3-1.6,0l-1.7,1c-0.3,0.2-0.7,0.2-1,0.1c-0.2-0.1-0.5-0.1-0.7-0.2c-0.4-0.1-0.6-0.3-0.6-0.5v-1.4
					c0-0.4-0.5-0.7-1.1-0.7h-3.9c-0.6,0-1.1,0.3-1.1,0.7v1.4c0,0.2-0.3,0.4-0.6,0.5c-0.2,0.1-0.5,0.1-0.7,0.2
					c-0.4,0.1-0.8,0.1-1.1-0.1l-1.7-1c-0.4-0.3-1.2-0.3-1.6,0l-3,1.8c-0.4,0.3-0.4,0.7,0,0.9l1.7,1c0.3,0.2,0.4,0.4,0.2,0.6
					c-0.1,0.1-0.2,0.3-0.3,0.4c-0.1,0.2-0.5,0.3-0.9,0.3H75c-0.6,0-1.1,0.3-1.1,0.7v2.3c0,0.4,0.5,0.7,1.1,0.7h2.4
					c0.4,0,0.7,0.1,0.9,0.4c0.1,0.1,0.2,0.3,0.3,0.4c0.2,0.2,0.1,0.5-0.2,0.6l-1.7,1c-0.4,0.3-0.4,0.7,0,0.9l2.8,1.6
					c0.4,0.3,1.2,0.3,1.6,0l1.7-1c0.3-0.2,0.7-0.2,1-0.1c0.2,0.1,0.5,0.1,0.7,0.2c0.4,0.1,0.6,0.3,0.6,0.5v1.4
					c0,0.4,0.5,0.7,1.1,0.7h3.9c0.6,0,1.1-0.3,1.1-0.7v-1.4c0-0.2,0.3-0.4,0.6-0.5c0.2,0,0.4-0.1,0.7-0.2c0.4-0.1,0.8-0.1,1.1,0.1
					l1.7,1c0.4,0.3,1.2,0.3,1.6,0l2.8-1.6c0.4-0.3,0.4-0.7,0-0.9l-1.7-1c-0.3-0.2-0.3-0.4-0.2-0.6C98.3,93.2,98.5,92.8,98.5,92.8z
					 M82.8,90.5c0.7-2,4.3-3.1,7.5-2.4c2.5,0.5,4,2.1,3.5,3.6c-0.7,2-4.3,3.1-7.5,2.4C83.8,93.5,82.3,92,82.8,90.5z"/>
			</g>
		</g>
	</g>
</g>
</svg>
