<?xml version="1.0" encoding="utf-8"?>
<!-- Generator: Adobe Illustrator 19.0.0, SVG Export Plug-In . SVG Version: 6.00 Build 0)  -->
<svg version="1.1" id="Layer_1" xmlns="http://www.w3.org/2000/svg" xmlns:xlink="http://www.w3.org/1999/xlink" x="0px" y="0px"
	 viewBox="0 0 256 256" style="enable-background:new 0 0 256 256;" xml:space="preserve">
<style type="text/css">
	.st0{fill:url(#XMLID_11_);}
	.st1{opacity:0.3;}
	.st2{fill:#3C5185;fill-opacity:0;}
	.st3{opacity:2.439000e-002;fill:#3C5185;enable-background:new    ;}
	.st4{opacity:4.878000e-002;fill:#3C5185;enable-background:new    ;}
	.st5{opacity:7.317100e-002;fill:#3C5185;enable-background:new    ;}
	.st6{opacity:9.756100e-002;fill:#3C5185;enable-background:new    ;}
	.st7{opacity:0.122;fill:#3C5185;enable-background:new    ;}
	.st8{opacity:0.1463;fill:#3C5185;enable-background:new    ;}
	.st9{opacity:0.1707;fill:#3C5185;enable-background:new    ;}
	.st10{opacity:0.1951;fill:#3C5185;enable-background:new    ;}
	.st11{opacity:0.2195;fill:#3C5185;enable-background:new    ;}
	.st12{opacity:0.2439;fill:#3C5185;enable-background:new    ;}
	.st13{opacity:0.2683;fill:#3C5185;enable-background:new    ;}
	.st14{opacity:0.2927;fill:#3C5185;enable-background:new    ;}
	.st15{opacity:0.3171;fill:#3C5185;enable-background:new    ;}
	.st16{opacity:0.3415;fill:#3C5185;enable-background:new    ;}
	.st17{opacity:0.3659;fill:#3C5185;enable-background:new    ;}
	.st18{opacity:0.3902;fill:#3C5185;enable-background:new    ;}
	.st19{opacity:0.4146;fill:#3C5185;enable-background:new    ;}
	.st20{opacity:0.439;fill:#3C5185;enable-background:new    ;}
	.st21{opacity:0.4634;fill:#3C5185;enable-background:new    ;}
	.st22{opacity:0.4878;fill:#3C5185;enable-background:new    ;}
	.st23{opacity:0.5122;fill:#3C5185;enable-background:new    ;}
	.st24{opacity:0.5366;fill:#3C5185;enable-background:new    ;}
	.st25{opacity:0.561;fill:#3C5185;enable-background:new    ;}
	.st26{opacity:0.5854;fill:#3C5185;enable-background:new    ;}
	.st27{opacity:0.6098;fill:#3C5185;enable-background:new    ;}
	.st28{opacity:0.6341;fill:#3C5185;enable-background:new    ;}
	.st29{opacity:0.6585;fill:#3C5185;enable-background:new    ;}
	.st30{opacity:0.6829;fill:#3C5185;enable-background:new    ;}
	.st31{opacity:0.7073;fill:#3C5185;enable-background:new    ;}
	.st32{opacity:0.7317;fill:#3C5185;enable-background:new    ;}
	.st33{opacity:0.7561;fill:#3C5185;enable-background:new    ;}
	.st34{opacity:0.7805;fill:#3C5185;enable-background:new    ;}
	.st35{opacity:0.8049;fill:#3C5185;enable-background:new    ;}
	.st36{opacity:0.8293;fill:#3C5185;enable-background:new    ;}
	.st37{opacity:0.8537;fill:#3C5185;enable-background:new    ;}
	.st38{opacity:0.878;fill:#3C5185;enable-background:new    ;}
	.st39{opacity:0.9024;fill:#3C5185;enable-background:new    ;}
	.st40{opacity:0.9268;fill:#3C5185;enable-background:new    ;}
	.st41{opacity:0.9512;fill:#3C5185;enable-background:new    ;}
	.st42{opacity:0.9756;fill:#3C5185;enable-background:new    ;}
	.st43{fill:#3C5185;}
	.st44{fill:url(#XMLID_13_);}
	.st45{fill:#F3F8FE;}
	.st46{fill:#A5CBEF;}
	.st47{fill:url(#XMLID_24_);}
	.st48{fill:url(#XMLID_28_);}
	.st49{fill:url(#XMLID_29_);}
	.st50{fill:url(#XMLID_30_);}
	.st51{fill:url(#XMLID_40_);}
	.st52{fill:url(#XMLID_44_);}
	.st53{fill:url(#XMLID_45_);}
	.st54{opacity:0.3;fill:#3C5185;enable-background:new    ;}
	.st55{fill:url(#XMLID_47_);}
	.st56{fill:url(#XMLID_48_);}
	.st57{fill:url(#XMLID_49_);}
	.st58{fill:#FFFFFF;}
	.st59{fill:url(#XMLID_50_);}
	.st60{fill:#7EA7DF;}
	.st61{fill:#4A65A3;}
	.st62{fill:url(#XMLID_51_);}
	.st63{fill:#5D7DBE;}
	.st64{fill:#FEFEFF;}
	.st65{fill:url(#XMLID_53_);}
	.st66{fill:url(#XMLID_95_);}
	.st67{fill:url(#XMLID_96_);}
	.st68{fill:#F2B1B5;}
	.st69{opacity:0.3;fill:#EF9EA3;enable-background:new    ;}
	.st70{fill:url(#XMLID_97_);}
	.st71{opacity:0.15;fill:#EF9EA3;enable-background:new    ;}
	.st72{fill:#D1E1F2;}
	.st73{fill:url(#XMLID_98_);}
	.st74{opacity:0.15;fill:#7EA7DF;enable-background:new    ;}
	.st75{opacity:0.33;fill:#7EA7DF;enable-background:new    ;}
	.st76{fill:url(#XMLID_99_);}
	.st77{fill:#BF9105;}
	.st78{fill:#2D3D64;}
	.st79{fill:#363650;}
	.st80{fill:#FFCD39;}
	.st81{fill:url(#XMLID_100_);}
	.st82{fill:#63749D;}
	.st83{fill:#4F6291;}
	.st84{fill:#6785C2;}
	.st85{fill:#7D97CB;}
	.st86{fill:url(#XMLID_101_);}
	.st87{fill:url(#XMLID_102_);}
	.st88{fill:url(#XMLID_103_);}
	.st89{fill:#C9E0F5;}
	.st90{fill:url(#XMLID_106_);}
	.st91{fill:url(#XMLID_107_);}
</style>
<g>
	
		<linearGradient id="XMLID_11_" gradientUnits="userSpaceOnUse" x1="68.9473" y1="33.8997" x2="198.3031" y2="204.4142" gradientTransform="matrix(1 0 0 -1 0 256)">
		<stop  offset="0.1" style="stop-color:#FFFFFF"/>
		<stop  offset="0.4303" style="stop-color:#F8FBFD"/>
		<stop  offset="0.8932" style="stop-color:#E6EEF8"/>
		<stop  offset="1" style="stop-color:#E1EBF7"/>
	</linearGradient>
	<path id="XMLID_94_" class="st0" d="M211,144.4c0,42.4-41.9,72.4-84.4,72.4s-81.9-29.9-81.9-72.4s59.4-94.9,101.9-94.9
		S211,102,211,144.4z"/>
	<g>
		<g class="st1">
			<path id="XMLID_93_" class="st2" d="M213.3,148.5l-0.3-0.6c-0.2-0.4-0.5-0.8-0.9-1c-0.1-0.1-0.1-0.1-0.2-0.2l-0.1-0.1h-0.1
				c-0.1-0.1-0.2-0.1-0.3-0.2l-55.2-31.9c-2-1.2-5.3-1.2-7.3,0L43.6,175.2c-1.2,0.7-1.7,1.7-1.4,2.6l-0.1,0.1v2
				c0,2.1,1.1,4.1,2.9,5.1l53.8,31c2,1.2,5.3,1.2,7.3,0l105.1-60.6C213.6,153.9,214.5,150.9,213.3,148.5z"/>
			<path id="XMLID_92_" class="st3" d="M213,148.4l-0.3-0.6c-0.2-0.4-0.5-0.8-0.9-1c-0.1-0.1-0.1-0.1-0.2-0.2l-0.1-0.1h-0.1
				c-0.1-0.1-0.2-0.1-0.3-0.2l-54.9-31.7c-2-1.2-5.3-1.2-7.3,0L44,175.1c-1.2,0.7-1.7,1.7-1.4,2.6h-0.1v2c0,2.1,1.1,4,2.9,5.1
				l53.5,30.8c2,1.2,5.3,1.2,7.3,0l104.7-60.4C213.2,153.8,214.1,150.9,213,148.4z"/>
			<path id="XMLID_91_" class="st4" d="M212.6,148.4l-0.3-0.6c-0.2-0.4-0.5-0.8-0.9-1c-0.1-0.1-0.1-0.1-0.2-0.2l-0.1-0.1H211
				c-0.1-0.1-0.2-0.1-0.3-0.2L156,114.7c-2-1.1-5.2-1.1-7.2,0L44.3,175c-1.2,0.7-1.7,1.7-1.4,2.6h-0.1v2c0,2.1,1.1,4,2.9,5L99,215.3
				c2,1.1,5.2,1.1,7.2,0l104.3-60.2C212.9,153.8,213.7,150.8,212.6,148.4z"/>
			<path id="XMLID_90_" class="st5" d="M212.2,148.4l-0.3-0.6c-0.2-0.4-0.5-0.7-0.9-1c-0.1-0.1-0.1-0.1-0.2-0.2l-0.1-0.1h-0.1
				c-0.1-0.1-0.2-0.1-0.3-0.2L156,114.8c-2-1.1-5.2-1.1-7.2,0L44.7,175c-1.2,0.7-1.7,1.7-1.4,2.6h-0.1v2c0,2.1,1.1,4,2.9,5L99,215.1
				c2,1.1,5.2,1.1,7.2,0l104-60C212.5,153.7,213.4,150.8,212.2,148.4z"/>
			<path id="XMLID_89_" class="st6" d="M211.8,148.3l-0.3-0.6c-0.2-0.4-0.5-0.7-0.9-1c-0.1-0.1-0.1-0.1-0.2-0.2l-0.1-0.1h-0.1
				c-0.1-0.1-0.2-0.1-0.3-0.2L155.8,115c-2-1.1-5.2-1.1-7.2,0L45,174.9c-1.2,0.7-1.7,1.7-1.4,2.6h-0.1v2c0,2.1,1.1,4,2.9,5L99,214.8
				c2,1.1,5.2,1.1,7.2,0L209.8,155C212.1,153.6,213,150.7,211.8,148.3z"/>
			<path id="XMLID_88_" class="st7" d="M211.4,148.3l-0.3-0.6c-0.2-0.4-0.5-0.7-0.9-1c-0.1-0.1-0.1-0.1-0.2-0.2l-0.1-0.1h-0.1
				c-0.1-0.1-0.2-0.1-0.3-0.2l-53.8-31c-2-1.1-5.2-1.1-7.1,0L45.3,174.8c-1.2,0.7-1.7,1.7-1.4,2.6h-0.1v2c0,2,1.1,3.9,2.9,5
				l52.4,30.1c2,1.1,5.2,1.1,7.1,0l103.2-59.6C211.7,153.5,212.6,150.7,211.4,148.3z"/>
			<path id="XMLID_87_" class="st8" d="M211,148.2l-0.3-0.6c-0.2-0.4-0.5-0.7-0.9-1c-0.1-0.1-0.1-0.1-0.2-0.2l-0.1-0.1h-0.1
				c-0.1-0.1-0.2-0.1-0.3-0.2l-53.5-30.9c-1.9-1.1-5.1-1.1-7.1,0l-103,59.6c-1.2,0.7-1.6,1.6-1.4,2.5H44v1.9c0,2,1.1,3.9,2.9,4.9
				l52.1,30c1.9,1.1,5.1,1.1,7.1,0L209,154.8C211.3,153.5,212.2,150.6,211,148.2z"/>
			<path id="XMLID_86_" class="st9" d="M210.7,148.2l-0.3-0.6c-0.2-0.4-0.5-0.7-0.9-1c-0.1-0.1-0.1-0.1-0.2-0.2l-0.1-0.1h-0.1
				c-0.1-0.1-0.2-0.1-0.3-0.2l-53.2-30.7c-1.9-1.1-5.1-1.1-7,0L46,174.7c-1.2,0.7-1.6,1.6-1.4,2.5h-0.1v1.9c0,2,1.1,3.9,2.8,4.9
				l51.8,29.8c1.9,1.1,5.1,1.1,7,0l102.4-59.2C210.9,153.4,211.8,150.5,210.7,148.2z"/>
			<path id="XMLID_85_" class="st10" d="M210.3,148.1l-0.3-0.6c-0.2-0.4-0.5-0.7-0.8-1c-0.1-0.1-0.1-0.1-0.2-0.2l-0.1-0.1h-0.1
				c-0.1-0.1-0.2-0.1-0.3-0.2l-52.9-30.5c-1.9-1.1-5.1-1.1-7,0L46.3,174.6c-1.2,0.7-1.6,1.6-1.4,2.5h-0.1v1.9c0,2,1.1,3.9,2.8,4.9
				l51.5,29.6c1.9,1.1,5.1,1.1,7,0l102.1-59C210.5,153.3,211.4,150.5,210.3,148.1z"/>
			<path id="XMLID_84_" class="st11" d="M209.9,148.1l-0.3-0.6c-0.2-0.4-0.5-0.7-0.8-1c-0.1-0.1-0.1-0.1-0.2-0.2l-0.1-0.1h-0.1
				c-0.1-0.1-0.2-0.1-0.3-0.2l-52.6-30.4c-1.9-1.1-5-1.1-7,0l-101.8,59c-1.2,0.7-1.6,1.6-1.4,2.5h-0.1v1.9c0,2,1.1,3.9,2.8,4.9
				l51.2,29.5c1.9,1.1,5,1.1,7,0l101.7-58.8C210.2,153.2,211,150.4,209.9,148.1z"/>
			<path id="XMLID_83_" class="st12" d="M209.5,148.1l-0.3-0.6c-0.2-0.4-0.5-0.7-0.8-1c-0.1-0.1-0.1-0.1-0.2-0.2l-0.1-0.1H208
				c-0.1-0.1-0.2-0.1-0.3-0.2l-52.3-30.2c-1.9-1.1-5-1.1-6.9,0L47,174.5c-1.2,0.7-1.6,1.6-1.3,2.5h-0.1v1.9c0,2,1.1,3.8,2.8,4.8
				L99.3,213c1.9,1.1,5,1.1,6.9,0l101.3-58.6C209.8,153.2,210.6,150.4,209.5,148.1z"/>
			<path id="XMLID_82_" class="st13" d="M209.1,148l-0.3-0.6c-0.2-0.4-0.5-0.7-0.8-1c-0.1-0.1-0.1-0.1-0.2-0.2l-0.1-0.1h-0.1
				c-0.1-0.1-0.2-0.1-0.3-0.2l-52-30c-1.9-1.1-5-1.1-6.9,0L47.3,174.4c-1.2,0.7-1.6,1.6-1.3,2.5h-0.1v1.9c0,2,1.1,3.8,2.8,4.8
				l50.6,29.1c1.9,1.1,5,1.1,6.9,0l100.9-58.4C209.4,153.1,210.2,150.3,209.1,148z"/>
			<path id="XMLID_81_" class="st14" d="M208.7,148l-0.3-0.6c-0.2-0.4-0.5-0.7-0.8-1c-0.1-0.1-0.1-0.1-0.2-0.2l-0.1-0.1h-0.1
				c-0.1-0.1-0.2-0.1-0.3-0.2L155.2,116c-1.9-1.1-5-1.1-6.8,0L47.7,174.4c-1.2,0.7-1.6,1.6-1.3,2.5h-0.1v1.9c0,2,1.1,3.8,2.8,4.8
				l50.4,29c1.9,1.1,5,1.1,6.8,0l100.6-58.2C209,153,209.8,150.3,208.7,148z"/>
			<path id="XMLID_80_" class="st15" d="M208.3,147.9l-0.3-0.6c-0.2-0.4-0.5-0.7-0.8-1c-0.1-0.1-0.1-0.1-0.2-0.2l-0.1-0.1h-0.1
				c-0.1-0.1-0.2-0.1-0.3-0.2l-51.4-29.7c-1.9-1.1-4.9-1.1-6.8,0L48,174.3c-1.1,0.7-1.6,1.6-1.3,2.4h-0.1v1.9c0,2,1,3.8,2.7,4.7
				l50.1,28.8c1.9,1.1,4.9,1.1,6.8,0l100.2-58C208.6,153,209.5,150.2,208.3,147.9z"/>
			<path id="XMLID_79_" class="st16" d="M208,147.9l-0.3-0.6c-0.2-0.4-0.5-0.7-0.8-1c-0.1-0.1-0.1-0.1-0.2-0.2l-0.1-0.1h-0.1
				c-0.1-0.1-0.2-0.1-0.3-0.2l-51.1-29.5c-1.9-1.1-4.9-1.1-6.8,0l-100,57.9c-1.1,0.7-1.6,1.6-1.3,2.4h-0.1v1.9c0,1.9,1,3.8,2.7,4.7
				L99.5,212c1.9,1.1,4.9,1.1,6.8,0l99.8-57.8C208.2,152.9,209.1,150.1,208,147.9z"/>
			<path id="XMLID_78_" class="st17" d="M207.6,147.8l-0.3-0.6c-0.2-0.4-0.5-0.7-0.8-1c-0.1-0.1-0.1-0.1-0.2-0.2l-0.1-0.1h-0.1
				c-0.1-0.1-0.2-0.1-0.2-0.2L155,116.4c-1.8-1.1-4.9-1.1-6.7,0l-99.6,57.7c-1.1,0.7-1.6,1.6-1.3,2.4h-0.1v1.8c0,1.9,1,3.7,2.7,4.7
				l49.5,28.5c1.8,1.1,4.9,1.1,6.7,0l99.4-57.6C207.8,152.8,208.7,150.1,207.6,147.8z"/>
			<path id="XMLID_77_" class="st18" d="M207.2,147.8l-0.3-0.6c-0.2-0.4-0.5-0.7-0.8-1c-0.1-0.1-0.1-0.1-0.2-0.2l-0.1-0.1h-0.1
				c-0.1-0.1-0.2-0.1-0.2-0.2L155,116.5c-1.8-1.1-4.8-1.1-6.7,0L49,174.1c-1.1,0.7-1.6,1.6-1.3,2.4h-0.1v1.8c0,1.9,1,3.7,2.7,4.7
				l49.2,28.3c1.8,1.1,4.8,1.1,6.7,0l99.1-57.4C207.5,152.7,208.3,150,207.2,147.8z"/>
			<path id="XMLID_76_" class="st19" d="M206.8,147.7l-0.3-0.6c-0.2-0.4-0.5-0.7-0.8-1c-0.1-0.1-0.1-0.1-0.2-0.2l-0.1-0.1h-0.1
				c-0.1-0.1-0.2-0.1-0.2-0.2l-50.2-29c-1.8-1.1-4.8-1.1-6.6,0L49.4,174c-1.1,0.6-1.5,1.5-1.3,2.4H48v1.8c0,1.9,1,3.7,2.7,4.6
				L99.6,211c1.8,1.1,4.8,1.1,6.6,0l98.7-57.2C207.1,152.7,207.9,150,206.8,147.7z"/>
			<path id="XMLID_75_" class="st20" d="M206.4,147.7l-0.3-0.6c-0.2-0.4-0.5-0.7-0.8-0.9c-0.1-0.1-0.1-0.1-0.2-0.2l-0.1-0.1h-0.1
				c-0.1-0.1-0.2-0.1-0.2-0.2l-49.9-28.8c-1.8-1-4.8-1-6.6,0L49.7,174c-1.1,0.6-1.5,1.5-1.3,2.4h-0.1v1.8c0,1.9,1,3.7,2.7,4.6
				l48.6,28c1.8,1,4.8,1,6.6,0l98.3-57C206.7,152.6,207.5,149.9,206.4,147.7z"/>
			<path id="XMLID_74_" class="st21" d="M206,147.7l-0.3-0.6c-0.2-0.4-0.5-0.7-0.8-0.9c-0.1-0.1-0.1-0.1-0.2-0.2l-0.1-0.1h-0.1
				c-0.1-0.1-0.2-0.1-0.2-0.2L154.7,117c-1.8-1-4.8-1-6.6,0L50,173.9c-1.1,0.6-1.5,1.5-1.3,2.4h-0.1v1.8c0,1.9,1,3.6,2.7,4.6
				l48.4,27.8c1.8,1,4.8,1,6.6,0l97.9-56.8C206.3,152.5,207.1,149.9,206,147.7z"/>
			<path id="XMLID_73_" class="st22" d="M205.7,147.6l-0.3-0.6c-0.2-0.4-0.5-0.7-0.8-0.9c-0.1-0.1-0.1-0.1-0.2-0.2l-0.1-0.1h-0.1
				c-0.1-0.1-0.2-0.1-0.2-0.2l-49.4-28.5c-1.8-1-4.7-1-6.5,0l-97.7,56.7c-1.1,0.6-1.5,1.5-1.3,2.4H49v1.8c0,1.9,1,3.6,2.6,4.6
				l48.1,27.7c1.8,1,4.7,1,6.5,0l97.6-56.6C205.9,152.4,206.7,149.8,205.7,147.6z"/>
			<path id="XMLID_72_" class="st23" d="M205.3,147.6L205,147c-0.2-0.4-0.5-0.7-0.8-0.9c-0.1-0.1-0.1-0.1-0.2-0.2l-0.1-0.1h-0.1
				c-0.1-0.1-0.1-0.1-0.2-0.2l-49.1-28.3c-1.8-1-4.7-1-6.5,0l-97.3,56.5c-1.1,0.6-1.5,1.5-1.3,2.3h-0.1v1.8c0,1.9,1,3.6,2.6,4.5
				L99.8,210c1.8,1,4.7,1,6.5,0l97.2-56.4C205.5,152.4,206.3,149.7,205.3,147.6z"/>
			<path id="XMLID_71_" class="st24" d="M204.9,147.5l-0.3-0.6c-0.2-0.4-0.5-0.7-0.8-0.9c-0.1-0.1-0.1-0.1-0.2-0.2l-0.1-0.1h-0.1
				c-0.1-0.1-0.1-0.1-0.2-0.2l-48.8-28.2c-1.8-1-4.7-1-6.5,0L51,173.7c-1.1,0.6-1.5,1.5-1.3,2.3h-0.1v1.8c0,1.9,1,3.6,2.6,4.5
				l47.5,27.3c1.8,1,4.7,1,6.5,0l96.8-56.2C205.1,152.3,205.9,149.7,204.9,147.5z"/>
			<path id="XMLID_70_" class="st25" d="M204.5,147.5l-0.3-0.6c-0.2-0.4-0.5-0.7-0.8-0.9c-0.1-0.1-0.1-0.1-0.2-0.2l-0.1-0.1H203
				c-0.1-0.1-0.1-0.1-0.2-0.2l-48.5-28c-1.8-1-4.7-1-6.4,0l-96.6,56.1c-1.1,0.6-1.5,1.5-1.2,2.3H50v1.8c0,1.8,1,3.6,2.6,4.5
				l47.2,27.2c1.8,1,4.7,1,6.4,0l96.4-56C204.8,152.2,205.5,149.6,204.5,147.5z"/>
			<path id="XMLID_69_" class="st26" d="M204.1,147.4l-0.3-0.6c-0.2-0.4-0.5-0.7-0.8-0.9c-0.1-0.1-0.1-0.1-0.2-0.2l-0.1-0.1h-0.1
				c-0.1-0.1-0.1-0.1-0.2-0.2l-48.2-27.8c-1.8-1-4.6-1-6.4,0l-96.2,55.9c-1.1,0.6-1.5,1.5-1.2,2.3h-0.1v1.8c0,1.8,1,3.5,2.6,4.5
				l46.9,27c1.8,1,4.6,1,6.4,0l96-55.8C204.4,152.2,205.2,149.6,204.1,147.4z"/>
			<path id="XMLID_68_" class="st27" d="M203.7,147.4l-0.3-0.6c-0.2-0.4-0.5-0.7-0.8-0.9c-0.1-0.1-0.1-0.1-0.2-0.2l-0.1-0.1h-0.1
				c-0.1-0.1-0.1-0.1-0.2-0.2l-47.9-27.7c-1.7-1-4.6-1-6.3,0L52,173.5c-1.1,0.6-1.5,1.5-1.2,2.3h-0.1v1.7c0,1.8,1,3.5,2.6,4.4
				l46.6,26.8c1.7,1,4.6,1,6.3,0l95.7-55.6C204,152.1,204.8,149.5,203.7,147.4z"/>
			<path id="XMLID_67_" class="st28" d="M203.4,147.3l-0.3-0.6c-0.2-0.4-0.4-0.7-0.8-0.9c-0.1-0.1-0.1-0.1-0.2-0.2l-0.1-0.1h-0.1
				c-0.1-0.1-0.1-0.1-0.2-0.2L154.1,118c-1.7-1-4.6-1-6.3,0l-95.4,55.5c-1.1,0.6-1.5,1.5-1.2,2.3h-0.1v1.7c0,1.8,1,3.5,2.5,4.4
				l46.4,26.7c1.7,1,4.6,1,6.3,0l95.3-55.4C203.6,152,204.4,149.5,203.4,147.3z"/>
			<path id="XMLID_66_" class="st29" d="M203,147.3l-0.3-0.6c-0.2-0.4-0.4-0.7-0.8-0.9c-0.1-0.1-0.1-0.1-0.2-0.2l-0.1-0.1h-0.1
				c-0.1-0.1-0.1-0.1-0.2-0.2L154,118.1c-1.7-1-4.5-1-6.3,0l-95.1,55.3c-1.1,0.6-1.5,1.5-1.2,2.3h-0.1v1.7c0,1.8,1,3.5,2.5,4.4
				l46.1,26.5c1.7,1,4.5,1,6.3,0l94.9-55.2C203.2,151.9,204,149.4,203,147.3z"/>
			<path id="XMLID_65_" class="st30" d="M202.6,147.3l-0.3-0.5c-0.2-0.4-0.4-0.6-0.8-0.9c-0.1-0.1-0.1-0.1-0.2-0.2l-0.1-0.1h-0.1
				c-0.1-0.1-0.1-0.1-0.2-0.2l-47-27.1c-1.7-1-4.5-1-6.2,0l-94.7,55c-1.1,0.6-1.4,1.4-1.2,2.2h-0.1v1.7c0,1.8,1,3.4,2.5,4.3
				l45.8,26.4c1.7,1,4.5,1,6.2,0l94.5-55C202.8,151.9,203.6,149.3,202.6,147.3z"/>
			<path id="XMLID_63_" class="st31" d="M202.2,147.2l-0.3-0.5c-0.2-0.4-0.4-0.6-0.7-0.9c-0.1-0.1-0.1-0.1-0.2-0.2l-0.1-0.1h-0.1
				c-0.1-0.1-0.1-0.1-0.2-0.2l-46.7-27c-1.7-1-4.5-1-6.2,0l-94.3,54.9c-1,0.6-1.4,1.4-1.2,2.2h-0.1v1.7c0,1.8,1,3.4,2.5,4.3
				l45.5,26.2c1.7,1,4.5,1,6.2,0l94.2-54.8C202.4,151.8,203.2,149.3,202.2,147.2z"/>
			<path id="XMLID_61_" class="st32" d="M201.8,147.2l-0.3-0.5c-0.2-0.4-0.4-0.6-0.7-0.9c-0.1-0.1-0.1-0.1-0.2-0.1l-0.1-0.1h-0.1
				c-0.1-0.1-0.1-0.1-0.2-0.2l-46.4-26.8c-1.7-1-4.5-1-6.1,0l-93.9,54.7c-1,0.6-1.4,1.4-1.2,2.2h-0.1v1.7c0,1.8,0.9,3.4,2.5,4.3
				l45.2,26c1.7,1,4.5,1,6.1,0l93.8-54.6C202.1,151.7,202.8,149.2,201.8,147.2z"/>
			<path id="XMLID_58_" class="st33" d="M201.4,147.1l-0.3-0.5c-0.2-0.4-0.4-0.6-0.7-0.9c-0.1-0.1-0.1-0.1-0.2-0.1l-0.1-0.1H200
				c-0.1-0.1-0.1-0.1-0.2-0.2l-46.1-26.6c-1.7-1-4.4-1-6.1,0L54,173.1c-1,0.6-1.4,1.4-1.2,2.2h-0.1v1.7c0,1.8,0.9,3.4,2.5,4.3
				l44.9,25.9c1.7,1,4.4,1,6.1,0l93.4-54.4C201.7,151.6,202.4,149.2,201.4,147.1z"/>
			<path id="XMLID_57_" class="st34" d="M201,147.1l-0.3-0.5c-0.2-0.3-0.4-0.6-0.7-0.9c-0.1-0.1-0.1-0.1-0.2-0.1l-0.1-0.1h-0.1
				c-0.1-0.1-0.1-0.1-0.2-0.2l-45.8-26.5c-1.7-1-4.4-1-6.1,0l-93.2,54.3c-1,0.6-1.4,1.4-1.2,2.2H53v1.7c0,1.7,0.9,3.4,2.4,4.2
				l44.6,25.7c1.7,1,4.4,1,6.1,0l93-54.2C201.3,151.6,202,149.1,201,147.1z"/>
			<path id="XMLID_56_" class="st35" d="M200.7,147l-0.3-0.5c-0.2-0.3-0.4-0.6-0.7-0.9c-0.1-0.1-0.1-0.1-0.2-0.1l-0.1-0.1h-0.1
				c-0.1-0.1-0.1-0.1-0.2-0.2l-45.5-26.3c-1.7-1-4.4-1-6,0L54.7,173c-1,0.6-1.4,1.4-1.2,2.2h-0.1v1.7c0,1.7,0.9,3.3,2.4,4.2
				l44.4,25.5c1.7,1,4.4,1,6,0l92.7-54C200.9,151.5,201.6,149.1,200.7,147z"/>
			<path id="XMLID_55_" class="st36" d="M200.3,147l-0.3-0.5c-0.2-0.3-0.4-0.6-0.7-0.9c-0.1-0.1-0.1-0.1-0.2-0.1l-0.1-0.1h-0.1
				c-0.1-0.1-0.1-0.1-0.2-0.2l-45.3-26.1c-1.6-1-4.3-1-6,0L55,173c-1,0.6-1.4,1.4-1.2,2.2h-0.1v1.6c0,1.7,0.9,3.3,2.4,4.2l44.1,25.4
				c1.6,1,4.3,1,6,0l92.3-53.8C200.5,151.4,201.3,149,200.3,147z"/>
			<path id="XMLID_54_" class="st37" d="M199.9,146.9l-0.3-0.5c-0.2-0.3-0.4-0.6-0.7-0.9c-0.1-0.1-0.1-0.1-0.2-0.1l-0.1-0.1h-0.1
				c-0.1-0.1-0.1-0.1-0.2-0.2l-45-26c-1.6-0.9-4.3-0.9-5.9,0l-92,53.7c-1,0.6-1.4,1.4-1.2,2.1h-0.1v1.6c0,1.7,0.9,3.3,2.4,4.2
				l43.8,25.2c1.6,0.9,4.3,0.9,6,0l91.9-53.6C200.1,151.3,200.9,148.9,199.9,146.9z"/>
			<path id="XMLID_43_" class="st38" d="M199.5,146.9l-0.3-0.5c-0.2-0.3-0.4-0.6-0.7-0.8c-0.1-0.1-0.1-0.1-0.2-0.1l-0.1-0.1h-0.1
				c-0.1-0.1-0.1-0.1-0.2-0.2l-44.7-25.8c-1.6-0.9-4.3-0.9-5.9,0l-91.7,53.5c-1,0.6-1.4,1.4-1.1,2.1h-0.1v1.6c0,1.7,0.9,3.3,2.4,4.1
				l43.5,25c1.6,0.9,4.3,0.9,5.9,0l91.5-53.4C199.7,151.3,200.5,148.9,199.5,146.9z"/>
			<path id="XMLID_42_" class="st39" d="M199.1,146.9l-0.3-0.5c-0.2-0.3-0.4-0.6-0.7-0.8c-0.1,0-0.1-0.1-0.2-0.1l-0.1-0.1h-0.1
				c-0.1-0.1-0.1-0.1-0.2-0.2l-44.4-25.6c-1.6-0.9-4.3-0.9-5.9,0l-91.3,53.3c-1,0.6-1.4,1.4-1.1,2.1h-0.1v1.6c0,1.7,0.9,3.3,2.4,4.1
				l43.2,24.9c1.6,0.9,4.3,0.9,5.9,0l91.1-53.2C199.4,151.2,200.1,148.8,199.1,146.9z"/>
			<path id="XMLID_41_" class="st40" d="M198.7,146.8l-0.3-0.5c-0.2-0.3-0.4-0.6-0.7-0.8c-0.1,0-0.1-0.1-0.2-0.1l-0.1-0.1h-0.1
				c-0.1-0.1-0.1-0.1-0.2-0.2L153,119.6c-1.6-0.9-4.2-0.9-5.8,0l-90.9,53.1c-1,0.6-1.4,1.4-1.1,2.1h-0.1v1.6c0,1.7,0.9,3.2,2.4,4.1
				l42.9,24.7c1.6,0.9,4.2,0.9,5.8,0l90.8-53C199,151.1,199.7,148.8,198.7,146.8z"/>
			<path id="XMLID_39_" class="st41" d="M198.4,146.8l-0.2-0.5c-0.2-0.3-0.4-0.6-0.7-0.8c-0.1,0-0.1-0.1-0.2-0.1l-0.1-0.1h-0.1
				c-0.1-0.1-0.1-0.1-0.2-0.2l-43.8-25.3c-1.6-0.9-4.2-0.9-5.8,0l-90.5,52.9c-1,0.6-1.3,1.3-1.1,2.1h-0.1v1.6c0,1.7,0.9,3.2,2.3,4
				l42.6,24.5c1.6,0.9,4.2,0.9,5.8,0l90.4-52.8C198.6,151.1,199.3,148.7,198.4,146.8z"/>
			<path id="XMLID_37_" class="st42" d="M198,146.7l-0.2-0.5c-0.2-0.3-0.4-0.6-0.7-0.8c-0.1,0-0.1-0.1-0.2-0.1l-0.1-0.1h-0.1
				c-0.1,0-0.1-0.1-0.2-0.2L153,119.9c-1.6-0.9-4.2-0.9-5.8,0L57,172.6c-1,0.6-1.3,1.3-1.1,2.1h-0.1v1.6c0,1.7,0.9,3.2,2.3,4
				l42.4,24.4c1.6,0.9,4.2,0.9,5.8,0l90-52.6C198.2,151,198.9,148.7,198,146.7z"/>
			<path id="XMLID_36_" class="st43" d="M197.6,146.7l-0.2-0.5c-0.2-0.3-0.4-0.6-0.7-0.8c-0.1,0-0.1-0.1-0.2-0.1l-0.1-0.1h-0.1
				c-0.1,0-0.1-0.1-0.2-0.2l-43.2-25c-1.6-0.9-4.1-0.9-5.7,0l-89.8,52.4c-1,0.6-1.3,1.3-1.1,2.1h-0.1v1.6c0,1.6,0.9,3.2,2.3,4
				l42.1,24.2c1.6,0.9,4.1,0.9,5.7,0L196,152C197.8,150.9,198.5,148.6,197.6,146.7z"/>
		</g>
		<g>
			<g>
				
					<linearGradient id="XMLID_13_" gradientUnits="userSpaceOnUse" x1="155.3096" y1="63.3909" x2="-11.1057" y2="136.7777" gradientTransform="matrix(-1 0 0 -1 211.6783 256)">
					<stop  offset="3.802280e-002" style="stop-color:#A5CBEF"/>
					<stop  offset="0.2227" style="stop-color:#B9D7F2"/>
					<stop  offset="0.5251" style="stop-color:#D4E6F7"/>
					<stop  offset="0.794" style="stop-color:#E4F0FA"/>
					<stop  offset="1" style="stop-color:#EAF3FB"/>
				</linearGradient>
				<path id="XMLID_59_" class="st44" d="M46.2,174.5v-2l104.2-61.2c2-1.1,4.3-1.8,6.2-0.7l54.7,31.4c0.5,0.3,0.9,0.8,1.2,1.3
					l0.3,0.6c1.2,2.4,0.3,5.3-2,6.6l-102.3,59c-2,1.1-5.2,1.1-7.1,0L49,179.4C47.3,178.4,46.2,176.5,46.2,174.5z"/>
				<path id="XMLID_52_" class="st45" d="M47.7,174c-2-1.1-2-3,0-4.1l102.5-59.2c2-1.1,5.2-1.1,7.1,0l53.8,31c2,1.1,2,3,0,4.1
					L108.6,205c-2,1.1-5.2,1.1-7.1,0L47.7,174z"/>
				<path id="XMLID_16_" class="st46" d="M49.9,173.9c-1.9-1.1-1.9-2.9,0-4l100.2-57.8c1.9-1.1,5-1.1,6.8,0l9.4,5.6
					c0.6,0.3,0.6,1.2,0.1,1.5l-1,0.7c-0.7,0.4-0.7,1.4,0,1.8l25.6,14.7c0.7,0.4,1.5,0.4,2.2,0l2.2-1.2c0.5-0.3,1.1-0.3,1.6,0
					l11.7,6.7c1.9,1.1,1.9,2.9,0,4l-100.2,57.8c-1.9,1.1-5,1.1-6.8,0L49.9,173.9z"/>
				<g id="XMLID_14_">
					<path id="XMLID_15_" class="st46" d="M185.2,130.6c-0.1,0-0.1,0-0.2,0l-11.3-6.5c-0.2-0.1-0.2-0.3-0.1-0.4
						c0.1-0.2,0.3-0.2,0.4-0.1l11.3,6.5c0.2,0.1,0.2,0.3,0.1,0.4C185.4,130.6,185.3,130.6,185.2,130.6z"/>
				</g>
			</g>
		</g>
	</g>
	
		<linearGradient id="XMLID_24_" gradientUnits="userSpaceOnUse" x1="173.1657" y1="125.1327" x2="94.3881" y2="75.2096" gradientTransform="matrix(1 0 0 -1 0 256)">
		<stop  offset="0" style="stop-color:#4A65A3"/>
		<stop  offset="0.3559" style="stop-color:#48629E"/>
		<stop  offset="0.783" style="stop-color:#41588F"/>
		<stop  offset="1" style="stop-color:#3C5185"/>
	</linearGradient>
	<path id="XMLID_60_" class="st47" d="M96.8,186.5l-1.1-1.9l21.5-12.9l3.9,2.3l19.2-10.8L119,150.6l40.1-23.4l11.2,6.5l-1.1,1.9
		l-10.1-5.8l-35.8,21l21.4,12.7l-23.5,13.2l-3.9-2.2L96.8,186.5z"/>
	
		<linearGradient id="XMLID_28_" gradientUnits="userSpaceOnUse" x1="84.75" y1="69.05" x2="100.1968" y2="69.05" gradientTransform="matrix(1 0 0 -1 0 256)">
		<stop  offset="0" style="stop-color:#4A65A3"/>
		<stop  offset="0.3559" style="stop-color:#48629E"/>
		<stop  offset="0.783" style="stop-color:#41588F"/>
		<stop  offset="1" style="stop-color:#3C5185"/>
	</linearGradient>
	<path id="XMLID_563_" class="st48" d="M87,190.1c3,1.7,7.9,1.7,10.9,0s3-4.6,0-6.3s-7.9-1.7-10.9,0S84,188.4,87,190.1z"/>
	
		<linearGradient id="XMLID_29_" gradientUnits="userSpaceOnUse" x1="163.3726" y1="119.75" x2="178.8195" y2="119.75" gradientTransform="matrix(1 0 0 -1 0 256)">
		<stop  offset="0" style="stop-color:#4A65A3"/>
		<stop  offset="0.3559" style="stop-color:#48629E"/>
		<stop  offset="0.783" style="stop-color:#41588F"/>
		<stop  offset="1" style="stop-color:#3C5185"/>
	</linearGradient>
	<path id="XMLID_595_" class="st49" d="M165.6,139.4c3,1.7,7.9,1.7,10.9,0s3-4.6,0-6.3s-7.9-1.7-10.9,0
		C162.6,134.8,162.6,137.7,165.6,139.4z"/>
	<g id="XMLID_226_">
		
			<linearGradient id="XMLID_30_" gradientUnits="userSpaceOnUse" x1="569.6091" y1="176.2123" x2="580.5961" y2="176.2123" gradientTransform="matrix(-1 0 0 -1 663.9578 256)">
			<stop  offset="0" style="stop-color:#3C5185"/>
			<stop  offset="0.128" style="stop-color:#41588E"/>
			<stop  offset="0.6948" style="stop-color:#5573B1"/>
			<stop  offset="1" style="stop-color:#5D7DBE"/>
		</linearGradient>
		<path id="XMLID_286_" class="st50" d="M83.4,82.8c0-3.5,2.5-7.8,5.5-9.5c1.1-0.6,2.1-0.8,2.9-0.7l0,0l0,0c0.2,0,0.4,0.1,0.6,0.2
			l1.4,0.4l-0.4,0.3c0.6,0.7,1,1.7,1,3c0,3.5-2.5,7.8-5.5,9.5c-0.7,0.4-1.3,0.6-1.9,0.7V87l-1.2-0.4c-0.2,0-0.3-0.1-0.5-0.2l0,0l0,0
			C84.1,86,83.4,84.7,83.4,82.8z"/>
		
			<linearGradient id="XMLID_40_" gradientUnits="userSpaceOnUse" x1="578.6207" y1="169.3818" x2="567.8827" y2="183.2403" gradientTransform="matrix(-1 0 0 -1 663.9578 256)">
			<stop  offset="0" style="stop-color:#3C5185"/>
			<stop  offset="0.128" style="stop-color:#41588E"/>
			<stop  offset="0.6948" style="stop-color:#5573B1"/>
			<stop  offset="1" style="stop-color:#5D7DBE"/>
		</linearGradient>
		<path id="XMLID_283_" class="st51" d="M90.4,73.7c3-1.7,5.5-0.3,5.5,3.2s-2.5,7.8-5.5,9.5s-5.5,0.3-5.5-3.2
			C84.9,79.8,87.4,75.5,90.4,73.7z"/>
		
			<linearGradient id="XMLID_44_" gradientUnits="userSpaceOnUse" x1="1546.3115" y1="175.8668" x2="1552.5892" y2="175.8668" gradientTransform="matrix(-1 0 0 -1 1639.8529 256)">
			<stop  offset="0.1499" style="stop-color:#FF9800"/>
			<stop  offset="1" style="stop-color:#FFC107"/>
		</linearGradient>
		<path id="XMLID_228_" class="st52" d="M90.6,76.3l0.7,1.7l2.1-1.1c0.1,0,0.2,0,0.1,0.1l-1.4,2.6l0.4,2.2c0,0.1-0.1,0.2-0.1,0.2
			l-1.7-0.2L88.9,84c-0.1,0.1-0.2,0-0.2-0.1l0.3-2.4l-1.7-1c-0.1,0-0.1-0.1,0-0.1l2.2-1.3L90.6,76.3C90.5,76.2,90.6,76.2,90.6,76.3z
			"/>
	</g>
	<g id="XMLID_743_">
		<g id="XMLID_730_">
			
				<linearGradient id="XMLID_45_" gradientUnits="userSpaceOnUse" x1="193.9932" y1="79.0641" x2="184.1348" y2="115.0472" gradientTransform="matrix(1 0 0 -1 -91.9015 256)">
				<stop  offset="0" style="stop-color:#FFC107"/>
				<stop  offset="0.8501" style="stop-color:#FF9800"/>
			</linearGradient>
			<path id="XMLID_740_" class="st53" d="M83.8,146.1c0,2.5,0.6,5.2,1.6,7.8l0,0l7.1,17.7h-1.9l2.1,7.4l4.1-2.2l8.7-10.6l0,0
				c0.8-1,1.4-2.3,1.6-3.6c0.1-0.8,0.1-1.7,0.1-3c0-7.4-5.3-16.6-11.7-20.3c-3-1.7-5.7-2-7.8-1l0,0l0,0c-0.2,0.1-0.4,0.2-0.6,0.3
				l-3.3,1.8l1.2,0.5C84.2,142.3,83.8,144,83.8,146.1z M89.2,149.3c0-4,2.8-5.6,6.3-3.6s6.3,6.9,6.3,10.9s-2.8,5.6-6.3,3.6
				S89.2,153.3,89.2,149.3z"/>
			<path id="XMLID_737_" class="st54" d="M83.8,146.1c0,2.5,0.6,5.2,1.6,7.8l0,0l7.1,17.7h-1.9l2.1,7.4l4.1-2.2l8.7-10.6l0,0
				c0.8-1,1.4-2.3,1.6-3.6c0.1-0.8,0.1-1.7,0.1-3c0-7.4-5.3-16.6-11.7-20.3c-3-1.7-5.7-2-7.8-1l0,0l0,0c-0.2,0.1-0.4,0.2-0.6,0.3
				l-3.3,1.8l1.2,0.5C84.2,142.3,83.8,144,83.8,146.1z M89.2,149.3c0-4,2.8-5.6,6.3-3.6s6.3,6.9,6.3,10.9s-2.8,5.6-6.3,3.6
				S89.2,153.3,89.2,149.3z"/>
			
				<linearGradient id="XMLID_47_" gradientUnits="userSpaceOnUse" x1="294.5442" y1="96.7666" x2="317.9797" y2="96.7666" gradientTransform="matrix(-1 0 0 -1 398.4998 256)">
				<stop  offset="0.1499" style="stop-color:#FF9800"/>
				<stop  offset="1" style="stop-color:#FFC107"/>
			</linearGradient>
			<path id="XMLID_731_" class="st55" d="M82.2,155.7L82.2,155.7l9.7,23.1c0.2,0.4,0.6,0.4,0.9,0.1l9.6-11.6l0,0
				c1-1.4,1.6-3.4,1.6-5.9c0-7.4-5.2-16.5-11.7-20.3c-6.7-3.9-11.8-1.1-11.8,6.7C80.5,150.3,81.1,153.1,82.2,155.7z"/>
		</g>
		<g id="XMLID_735_">
			<path id="XMLID_744_" class="st43" d="M93.3,163.2l-4.7-2.6l-0.2-14.8l4.1,2.3c0.7,0.4,1.3,0.9,1.9,1.4c0.5,0.5,0.9,1.1,1.2,1.6
				c0.5,1,0.7,2,0.8,3c0,1.2-0.2,1.9-0.8,2.1c-0.2,0.1-0.3,0.1-0.4,0.2c-0.1,0-0.2,0-0.4,0c0.7,0.6,1.2,1.3,1.6,2.1s0.6,1.7,0.6,2.7
				s-0.2,1.8-0.7,2.3C95.8,164.2,94.7,164,93.3,163.2z M90.9,153.1l1.1,0.6c0.7,0.4,1.1,0.5,1.5,0.5c0.3,0,0.5-0.4,0.5-1
				c0-0.7-0.2-1.2-0.5-1.5c-0.3-0.4-0.8-0.8-1.5-1.2l-1.1-0.6V153.1z M91,159.1l1.6,0.9c0.7,0.4,1.2,0.6,1.5,0.5
				c0.3,0,0.5-0.4,0.5-1.1c0-0.7-0.2-1.2-0.6-1.7c-0.4-0.4-0.9-0.9-1.7-1.3l-1.4-0.8L91,159.1z"/>
		</g>
	</g>
	<g id="XMLID_748_">
		<g id="XMLID_773_">
			
				<linearGradient id="XMLID_48_" gradientUnits="userSpaceOnUse" x1="483.5862" y1="130.4213" x2="474.7556" y2="162.653" gradientTransform="matrix(-1 0 0 -1 645.9655 256)">
				<stop  offset="0" style="stop-color:#FFC107"/>
				<stop  offset="0.8501" style="stop-color:#FF9800"/>
			</linearGradient>
			<path id="XMLID_796_" class="st56" d="M177.8,93.4l1-0.5l-3-1.6c-0.2-0.1-0.3-0.2-0.5-0.3l0,0l0,0c-1.9-0.9-4.3-0.6-7,0.9
				c-5.8,3.3-10.5,11.5-10.5,18.2c0,1.1,0,1.9,0.1,2.7c0.2,1.2,0.7,2.3,1.4,3.2l0,0l7.8,9.5l3.6,1.9l1.9-6.6H171l6.3-15.8l0,0
				c0.9-2.3,1.5-4.8,1.5-7C178.8,96.1,178.4,94.6,177.8,93.4z M168.3,110.6c-3.1,1.8-5.6,0.3-5.6-3.3c0-3.6,2.5-8,5.6-9.8
				s5.6-0.3,5.6,3.3S171.4,108.8,168.3,110.6z"/>
			<path id="XMLID_793_" class="st54" d="M177.8,93.4l1-0.5l-3-1.6c-0.2-0.1-0.3-0.2-0.5-0.3l0,0l0,0c-1.9-0.9-4.3-0.6-7,0.9
				c-5.8,3.3-10.5,11.5-10.5,18.2c0,1.1,0,1.9,0.1,2.7c0.2,1.2,0.7,2.3,1.4,3.2l0,0l7.8,9.5l3.6,1.9l1.9-6.6H171l6.3-15.8l0,0
				c0.9-2.3,1.5-4.8,1.5-7C178.8,96.1,178.4,94.6,177.8,93.4z M168.3,110.6c-3.1,1.8-5.6,0.3-5.6-3.3c0-3.6,2.5-8,5.6-9.8
				s5.6-0.3,5.6,3.3S171.4,108.8,168.3,110.6z"/>
			
				<linearGradient id="XMLID_49_" gradientUnits="userSpaceOnUse" x1="5.1691" y1="146.3448" x2="26.1691" y2="146.3448" gradientTransform="matrix(1 0 0 -1 155.5642 256)">
				<stop  offset="0.1499" style="stop-color:#FF9800"/>
				<stop  offset="1" style="stop-color:#FFC107"/>
			</linearGradient>
			<path id="XMLID_774_" class="st57" d="M181.7,99.5c0-7-4.5-9.5-10.6-6c-5.7,3.4-10.4,11.5-10.4,18.1c0,2.2,0.5,4,1.4,5.2l0,0
				l8.6,10.4c0.2,0.3,0.7,0.2,0.8-0.1l8.7-20.7l0,0C181.2,104.2,181.7,101.8,181.7,99.5z"/>
		</g>
		<g id="XMLID_749_">
			<g id="XMLID_125_">
				<path id="XMLID_126_" class="st43" d="M173.5,110l-0.6-2.2l-3.1,1.7l-0.8,3l-1.8,1l3.5-13.7l1.6-0.9l2.8,10.1L173.5,110z
					 M171.5,102.9l-1,4l1.8-1L171.5,102.9z"/>
			</g>
		</g>
	</g>
	<g id="XMLID_154_">
		<g id="XMLID_163_">
			<g id="XMLID_214_">
				<path id="XMLID_217_" class="st58" d="M123.8,74.8v25.4c0,1.6-0.8,3-2.2,3.8l-31.3,18.2l-5.3,9.7c-0.3,1.3-1.8,1.9-3,1.3
					l-3.3-4.2l-7,4.1c-1.7,1-3.8-0.2-3.8-2.1v-25.7c0-1.6,0.8-3,2.2-3.8L120,72.7C121.8,71.7,123.8,72.9,123.8,74.8z"/>
			</g>
			
				<linearGradient id="XMLID_50_" gradientUnits="userSpaceOnUse" x1="68" y1="153.0761" x2="123.3" y2="153.0761" gradientTransform="matrix(1 0 0 -1 0 256)">
				<stop  offset="0" style="stop-color:#7EA7DF"/>
				<stop  offset="1" style="stop-color:#FFFFFF"/>
			</linearGradient>
			<path id="XMLID_188_" class="st59" d="M70.5,133.5c-1.3,0-2.5-1-2.5-2.5v-25.7c0-1.6,0.8-3,2.2-3.8l49.9-28.8
				c1.2-0.7,2.5-0.3,3.2,0.7c-0.4,0-0.8,0.1-1.2,0.3l-49.9,28.8c-1.4,0.8-2.2,2.2-2.2,3.8V132C70,132.6,70.2,133.1,70.5,133.5z
				 M79.6,128.5l-0.8,0.5l3.3,4.2c0.4,0.2,0.9,0.3,1.4,0.2L79.6,128.5z"/>
		</g>
		<polygon id="XMLID_1947_" class="st60" points="120.3,83 75.3,109.5 75.3,111.4 120.3,85 		"/>
		<polygon id="XMLID_1946_" class="st60" points="120.3,88.9 75.3,115.5 75.3,117.4 120.3,90.9 		"/>
		<polygon id="XMLID_1945_" class="st60" points="94.4,110.1 75,121.4 75,123.4 94.4,112.1 		"/>
	</g>
	<path id="XMLID_35_" class="st54" d="M123.8,74.8c0-1.1-0.6-1.9-1.5-2.3c-0.1,0-0.1,0-0.2-0.1c-0.1,0-0.2-0.1-0.3-0.1
		c-0.2,0-0.3-0.1-0.5-0.1c-0.1,0-0.1,0-0.2,0s-0.3,0-0.4,0.1c-0.1,0-0.1,0-0.2,0c-0.2,0.1-0.4,0.1-0.6,0.2L97.4,85.8v15l0,0
		c0,0.2,0,0.4,0.1,0.6v0.1c0.1,0.2,0.1,0.3,0.2,0.4l0,0c0.1,0.1,0.2,0.2,0.3,0.2h0.1c0.3,0.1,0.8,0.1,1.2-0.2l24.4-14.1v-13H123.8z"
		/>
	<g id="XMLID_62_">
		<g id="XMLID_138_">
			<path id="XMLID_150_" class="st61" d="M101.4,74.4c-1.1,0.6-2,2.2-2,3.4v19c0,1.3,0.9,1.8,2,1.1l36.8-21.2c1.1-0.6,2-2.2,2-3.4
				L140,54.5c0-1.3-0.9-1.8-2-1.1L101.4,74.4z"/>
			
				<linearGradient id="XMLID_51_" gradientUnits="userSpaceOnUse" x1="-158.5189" y1="180.4465" x2="-118.1189" y2="180.4465" gradientTransform="matrix(1 0 0 -1 257.9189 256)">
				<stop  offset="0" style="stop-color:#3C5185"/>
				<stop  offset="0.6002" style="stop-color:#445C95"/>
				<stop  offset="1" style="stop-color:#4A65A3"/>
			</linearGradient>
			<path id="XMLID_147_" class="st62" d="M100.5,97.5v-19c0-1.3,0.9-2.8,2-3.4L139,54c0.3-0.2,0.6-0.2,0.8-0.3
				c-0.3-0.7-1-0.9-1.9-0.5l-36.5,21.1c-1.1,0.6-2,2.2-2,3.4v19c0,0.9,0.5,1.5,1.2,1.4C100.5,98,100.5,97.8,100.5,97.5z"/>
		</g>
		<g id="XMLID_121_">
			<polygon id="XMLID_122_" class="st63" points="104.1,82.1 124.1,70.6 124.1,69.3 104.1,80.8 			"/>
		</g>
		<g id="XMLID_119_">
			<polygon id="XMLID_120_" class="st63" points="104.1,86.5 124.1,75 124.1,73.7 104.1,85.2 			"/>
		</g>
		<g id="XMLID_117_">
			<polygon id="XMLID_118_" class="st63" points="104.8,90.9 115.8,84.6 115.8,83.3 104.8,89.6 			"/>
		</g>
		<g id="XMLID_1369_">
			<path id="XMLID_116_" class="st64" d="M132,62.9c3.3-1.9,5.9-0.3,5.9,3.4c0,3.8-2.7,8.4-5.9,10.3c-3.3,1.9-5.9,0.3-5.9-3.4
				C126.1,69.4,128.7,64.8,132,62.9z"/>
			<g id="XMLID_64_">
				<path id="XMLID_113_" class="st61" d="M132,67.5c-0.2,0.1-0.3,0.1-0.5,0c-0.1-0.1-0.2-0.3-0.2-0.6c0-0.3,0.1-0.5,0.2-0.8
					c0.1-0.3,0.3-0.4,0.5-0.5s0.3-0.1,0.5,0c0.1,0.1,0.2,0.3,0.2,0.6c0,0.3-0.1,0.5-0.2,0.8C132.3,67.2,132.2,67.4,132,67.5z
					 M131.4,68.2l1.1-0.6l-0.1,5.7l-1.1,0.6L131.4,68.2z"/>
			</g>
		</g>
	</g>
	<path id="XMLID_34_" class="st54" d="M121.6,104c1.4-0.8,2.2-2.2,2.2-3.8v-9.9l-9.7,5.6c-0.7,0.4-1.1,1.1-1.1,1.9V109L121.6,104z"
		/>
	<g id="XMLID_291_">
		
			<linearGradient id="XMLID_53_" gradientUnits="userSpaceOnUse" x1="115" y1="164.05" x2="163" y2="164.05" gradientTransform="matrix(1 0 0 -1 0 256)">
			<stop  offset="0" style="stop-color:#3C5185"/>
			<stop  offset="0.128" style="stop-color:#41588E"/>
			<stop  offset="0.6948" style="stop-color:#5573B1"/>
			<stop  offset="1" style="stop-color:#5D7DBE"/>
		</linearGradient>
		<path id="XMLID_804_" class="st65" d="M163,72v12.9c0,0.8-0.4,1.5-1.1,1.9l-45,26.2c-0.8,0.5-1.9-0.1-1.9-1.1V98.8
			c0-0.8,0.4-1.5,1.1-1.9l45-26C162,70.4,163,71,163,72z"/>
		
			<linearGradient id="XMLID_95_" gradientUnits="userSpaceOnUse" x1="-676.8982" y1="164.0344" x2="-629.1982" y2="164.0344" gradientTransform="matrix(1 0 0 -1 791.8982 256)">
			<stop  offset="0" style="stop-color:#5D7DBE"/>
			<stop  offset="0.3052" style="stop-color:#5573B1"/>
			<stop  offset="0.872" style="stop-color:#41588E"/>
			<stop  offset="1" style="stop-color:#3C5185"/>
		</linearGradient>
		<path id="XMLID_490_" class="st66" d="M115.9,112.4V99.3c0-0.8,0.4-1.5,1.1-1.9l45-26c0.2-0.1,0.4-0.2,0.7-0.2
			c-0.4-0.5-1-0.6-1.6-0.3l-45,26c-0.7,0.4-1.1,1.1-1.1,1.9v13.1c0,0.7,0.6,1.2,1.2,1.3C116.1,113,115.9,112.7,115.9,112.4z"/>
		
			<linearGradient id="XMLID_96_" gradientUnits="userSpaceOnUse" x1="117.2989" y1="163.0175" x2="160.9065" y2="163.0175" gradientTransform="matrix(1 0 0 -1 0 256)">
			<stop  offset="2.123250e-002" style="stop-color:#FFC107"/>
			<stop  offset="0.3187" style="stop-color:#FFAF04"/>
			<stop  offset="0.7097" style="stop-color:#FF9E01"/>
			<stop  offset="1" style="stop-color:#FF9800"/>
		</linearGradient>
		<path id="XMLID_292_" class="st67" d="M158.9,78.9c-0.9,0.5-1.7,1.7-1.9,2.8l-9,5.2c-0.2-0.9-1-1.2-1.9-0.7s-1.7,1.7-1.9,2.9
			l-9.7,5.6c-0.3-0.7-1-0.8-1.8-0.4c-0.8,0.5-1.5,1.5-1.8,2.5l-10,5.8c-0.3-0.4-1-0.5-1.7-0.1c-1.1,0.6-2,2.2-2,3.4
			c0,1.3,0.9,1.8,2,1.1c0.9-0.5,1.7-1.8,1.9-2.9l9.7-5.6c0.3,0.7,1,0.9,1.8,0.4s1.6-1.5,1.8-2.5l9.9-5.8c0.3,0.5,1,0.6,1.7,0.2
			s1.4-1.3,1.7-2.2l9.3-5.4c0.3,0.6,1,0.7,1.8,0.3c1.1-0.6,2-2.2,2-3.4C160.9,78.8,160,78.3,158.9,78.9z"/>
	</g>
	<g id="XMLID_491_">
		<g id="XMLID_701_">
			<path id="XMLID_33_" class="st68" d="M160.2,165.6c0.3,0,0.6-0.1,0.9-0.3c2.2-1.8,3.5-4.5,3.7-7.3c0.2-2.9-0.8-5.6-2.8-7.7
				l-0.2-0.2c-0.5-0.5-1.3-0.5-1.8,0s-0.5,1.3,0,1.8l0.2,0.2c1.5,1.6,2.3,3.7,2.1,5.8c-0.1,2.2-1.1,4.2-2.8,5.6
				c-0.5,0.4-0.6,1.2-0.2,1.8C159.6,165.5,159.9,165.6,160.2,165.6z"/>
		</g>
		<g id="XMLID_700_">
			<path id="XMLID_32_" class="st58" d="M163.1,155.3c0.9-0.1,1.5-1.1,1.1-2c-0.5-1.2-1.3-2.3-2.2-3.3l-0.3-0.3
				c-0.5-0.6-1.4-0.6-2-0.1s-0.6,1.4-0.1,2l0.3,0.3c0.7,0.7,1.3,1.6,1.7,2.5C161.9,155,162.5,155.4,163.1,155.3L163.1,155.3z"/>
		</g>
		<path id="XMLID_699_" class="st43" d="M167.7,184.3l6,3.5v0.6c0,0.5-0.3,1-0.7,1.3l-1.1,0.7c-0.3,0.2-0.7,0.2-1,0l-4.6-2.7
			c-0.4-0.3-0.7-0.8-0.7-1.3v-0.7L167.7,184.3z"/>
		<path id="XMLID_698_" class="st43" d="M169.1,184.5l3.9,2.3c0.8,0.5,0.8,1.7,0,2.2l-1,0.6c-0.4,0.3-1,0.3-1.5,0l-4.4-2.6
			c-0.9-0.6-0.9-2,0-2.5l0.1-0.1C167.2,184,168.3,184,169.1,184.5z"/>
		<g id="XMLID_697_">
			<path id="XMLID_31_" class="st68" d="M166.4,185.8c0.1-0.4,0.3-0.7,0.7-0.9l0.1-0.1c0.3-0.2,0.6-0.3,1-0.3c0.2,0,0.5,0.1,0.7,0.2
				l2.1,1.2c0.6,0.3,0.6,1.1,0,1.5l-0.7,0.4c-0.3,0.2-0.7,0.2-1,0l-2.4-1.4C166.6,186.2,166.4,186,166.4,185.8z"/>
		</g>
		<path id="XMLID_696_" class="st43" d="M162.5,187.1l6,3.5v0.6c0,0.5-0.3,1-0.7,1.3l-1.1,0.7c-0.3,0.2-0.7,0.2-1,0l-4.6-2.7
			c-0.4-0.3-0.7-0.8-0.7-1.3v-0.7L162.5,187.1z"/>
		<path id="XMLID_695_" class="st43" d="M163.9,187.3l3.9,2.3c0.8,0.5,0.8,1.7,0,2.2l-1,0.6c-0.4,0.3-1,0.3-1.5,0l-4.4-2.6
			c-0.9-0.6-0.9-2,0-2.5l0.1-0.1C162,186.8,163.1,186.8,163.9,187.3z"/>
		<g id="XMLID_694_">
			<path id="XMLID_27_" class="st68" d="M161.2,188.6c0.1-0.4,0.3-0.7,0.7-0.9l0.1-0.1c0.3-0.2,0.6-0.3,1-0.3c0.2,0,0.5,0.1,0.7,0.2
				l2.1,1.2c0.6,0.3,0.6,1.1,0,1.5l-0.7,0.4c-0.3,0.2-0.7,0.2-1,0l-2.4-1.4C161.4,189,161.2,188.8,161.2,188.6z"/>
		</g>
		<g id="XMLID_692_">
			<g id="XMLID_693_">
				<path id="XMLID_26_" class="st68" d="M167.6,186.6c0.7,0,1.3-0.6,1.3-1.3v-8.1c0-0.7-0.6-1.3-1.3-1.3s-1.3,0.6-1.3,1.3v8.1
					C166.3,186,166.9,186.6,167.6,186.6z"/>
			</g>
		</g>
		<path id="XMLID_25_" class="st69" d="M168.5,185.3v-8.1c0-0.6-0.5-1.2-1.1-1.2h0.1c0.7,0,1.3,0.6,1.3,1.3v8.1
			c0,0.7-0.6,1.3-1.3,1.3h-0.1C168,186.5,168.5,186,168.5,185.3z"/>
		<g id="XMLID_690_">
			<g id="XMLID_691_">
				<path id="XMLID_23_" class="st68" d="M162.4,189.4c0.7,0,1.3-0.6,1.3-1.3v-11.9c0-0.7-0.6-1.3-1.3-1.3s-1.3,0.6-1.3,1.3v11.9
					C161.1,188.9,161.7,189.4,162.4,189.4z"/>
			</g>
		</g>
		
			<linearGradient id="XMLID_97_" gradientUnits="userSpaceOnUse" x1="400.1971" y1="86.5422" x2="418.9653" y2="86.5422" gradientTransform="matrix(-1 0 0 -1 569.5377 256)">
			<stop  offset="0" style="stop-color:#5D7DBE"/>
			<stop  offset="0.3052" style="stop-color:#5573B1"/>
			<stop  offset="0.872" style="stop-color:#41588E"/>
			<stop  offset="1" style="stop-color:#3C5185"/>
		</linearGradient>
		<path id="XMLID_689_" class="st70" d="M159,159l2.4,6.7l4.3,2.3c1.9,1.1,3.6,2.5,3.6,6c0,0,0.1,1,0.1,2.2c0.1,2.2-7.2,3-8.8,3.7
			c-0.8,0.3-1-3.8-1-3.8s-0.1-1.1-1.5-2l-5-2.9c-3.1-1.8-3.1-6.3,0-8.1L159,159z"/>
		<path id="XMLID_22_" class="st71" d="M168.8,176.1c0-1.2-0.1-2.2-0.1-2.2c0-3.4-1.7-4.8-3.6-6l-4.3-2.3l-2.3-6.4l0.5-0.3l2.4,6.7
			l4.3,2.3c1.9,1.1,3.6,2.5,3.6,6c0,0,0.1,1,0.1,2.2c0.1,2.2-7.2,3-8.8,3.7c-0.1,0-0.2,0-0.3-0.1C162.2,179,168.8,178.2,168.8,176.1
			z"/>
		<g id="XMLID_683_">
			<path id="XMLID_688_" class="st72" d="M169.3,170.4v0.2c0,0.1-0.1,0.2-0.1,0.2l-5.4,3.1c-0.2,0.1-0.5,0.1-0.7,0l-8.4-4.9
				c-0.1-0.1-0.2-0.2-0.2-0.3v-0.1l5.6-3.2c0.2-0.1,0.5-0.1,0.7,0L169.3,170.4z"/>
			<path id="XMLID_687_" class="st58" d="M169.2,170.2c0.2,0.1,0.2,0.3,0,0.4l-5.4,3.1c-0.2,0.1-0.5,0.1-0.7,0l-8.5-4.9
				c-0.2-0.1-0.2-0.3,0-0.4l5.4-3.1c0.2-0.1,0.5-0.1,0.7,0L169.2,170.2z"/>
			
				<linearGradient id="XMLID_98_" gradientUnits="userSpaceOnUse" x1="401.8632" y1="86.6" x2="413.8632" y2="86.6" gradientTransform="matrix(-1 0 0 -1 569.5377 256)">
				<stop  offset="0.1499" style="stop-color:#FF9800"/>
				<stop  offset="1" style="stop-color:#FFC107"/>
			</linearGradient>
			<polygon id="XMLID_686_" class="st73" points="167.7,169.8 162.4,172.9 155.7,169 161,165.9 			"/>
			<g id="XMLID_684_">
				<path id="XMLID_685_" class="st43" d="M165.3,172L165.3,172l1.2-0.7c0,0,0.1-0.1,0-0.1c0,0-0.1-0.1-0.1,0l-1.1,0.7
					C165.2,171.9,165.2,171.9,165.3,172C165.2,172,165.3,172,165.3,172z"/>
			</g>
		</g>
		<g id="XMLID_682_">
			<path id="XMLID_46_" class="st43" d="M163.3,143l-0.1-0.5c0-0.4-0.4-0.7-0.7-0.9c-0.4-0.1-0.8-0.1-1.2-0.1
				c-0.7,0-1.4,0.1-2.2,0.1c-1.4,0.1-3,0.3-3.8,1.5c-0.5,0.8-0.5,1.9-1.1,2.7c-0.2,0.3-0.5,0.5-0.7,0.7c-0.5,0.7-0.4,1.7-0.2,2.5
				c0.1,0.3,0.2,0.5,0.4,0.7c0.4,0.3,0.9,0.2,1.3-0.1c0.4-0.2,0.7-0.6,1.2-0.8c0.7-0.3,1.5-0.1,2.2-0.3c1.4-0.5,1.8-2.3,3.2-2.9
				c0.4-0.2,0.9-0.2,1.3-0.5C163.5,144.8,163.4,143.8,163.3,143z"/>
		</g>
		<path id="XMLID_681_" class="st58" d="M151,153.2c0.4-1.1,1.6-2.5,2.6-3.1l3.6-2.1h2.5c0.5,0,1,0.2,1.3,0.6l0,0
			c0.3,0.3,0.5,1.1,0.5,1.6v1.3l0.7,2.6c0.1,0.5,0,1-0.3,1.4l-0.5,0.7c-0.8,1.2-1.2,2.7-1.1,4.1l0.3,4.5c-1.9,3.9-10.4,0.5-10.4,0.5
			C151.2,159.2,149.2,157.9,151,153.2z"/>
		<path id="XMLID_21_" class="st74" d="M160.2,165l-0.3-4.5c-0.1-1.5,0.3-2.9,1.1-4.1l0.5-0.7c0.3-0.4,0.4-0.9,0.3-1.4l-0.7-2.6
			v-1.3c0-0.5-0.2-1.2-0.5-1.6c-0.3-0.4-0.8-0.6-1.3-0.6h-2l0,0h2.5c0.5,0,1,0.2,1.3,0.6c0.3,0.3,0.5,1.1,0.5,1.6v1.3l0.7,2.6
			c0.1,0.5,0,1-0.3,1.4l-0.5,0.7c-0.8,1.2-1.2,2.7-1.1,4.1l0.3,4.5c-0.7,1.5-2.4,1.9-4.2,1.9C158.1,166.8,159.5,166.4,160.2,165z"/>
		<g id="XMLID_679_">
			<g id="XMLID_680_">
				<path id="XMLID_20_" class="st68" d="M156.3,151.2c-0.7,0-1.3-0.6-1.3-1.3v-4.4c0-0.7,0.6-1.3,1.3-1.3s1.3,0.6,1.3,1.3v4.4
					C157.5,150.6,156.9,151.2,156.3,151.2z"/>
			</g>
		</g>
		<g id="XMLID_678_">
			<path id="XMLID_19_" class="st68" d="M155.9,148.1l-0.3-0.1l2-6.7l5.1,1.6l-0.6,1.8C161.4,147.5,158.6,149,155.9,148.1z"/>
		</g>
		<path id="XMLID_18_" class="st75" d="M157.3,166.2l0.8,0.6c-1.4,0.2-3.1,0-4.5-0.3c-2.9-3.5-3.6-8.5-1.6-12.7
			c0.3-0.7,1.4,1.1,1.4,1.1C151.5,158.8,153.9,163.6,157.3,166.2z"/>
		<g id="XMLID_677_">
			<path id="XMLID_17_" class="st68" d="M157.7,168.9c0.4,0,0.8-0.1,1.1-0.4c0.5-0.5,0.4-1.3-0.1-1.8l-2.4-2.2
				c-2.9-2.6-3.6-7-1.7-10.3c0.3-0.6,0.1-1.4-0.5-1.7s-1.4-0.1-1.7,0.5c-2.5,4.4-1.6,10.1,2.2,13.5l2.4,2.2
				C157.2,168.8,157.5,168.9,157.7,168.9z"/>
		</g>
		<g id="XMLID_676_">
			<path id="XMLID_12_" class="st58" d="M152.3,158.4c0.7,0,1.3-0.6,1.4-1.3c0.2-1.1,0.6-2.2,1.1-3.2c0.4-0.7,0.2-1.6-0.6-2
				c-0.7-0.4-1.6-0.2-2,0.6c-0.7,1.3-1.2,2.7-1.5,4.1C150.6,157.6,151.3,158.5,152.3,158.4L152.3,158.4z"/>
		</g>
		<g id="XMLID_675_">
			<path id="XMLID_38_" class="st43" d="M152.2,154.5c-0.4,0-0.8,0.1-1.1,0.2c-0.3,0.1-0.7,0.3-1,0.3c-0.5-0.1-0.6-0.7-0.7-1.1
				c-0.1-0.4-0.1-0.8,0-1.2c0.1-0.5,0.5-0.9,0.8-1.4c0.4-0.7,0.7-1.4,0.8-2.2c0.1-0.6,0-1.2,0.1-1.8c0.1-0.7,0.4-1.1,0.7-1.7
				c0.4-0.7,0.5-1.5,1-2.1c0.4-0.7,1.2-1.1,1.6-1.7c0.5-0.7,0.8-1.1,1.6-1.5c0.6-0.3,1.1-0.8,1.8-0.9c0.5-0.1,0.9,0.1,1.4,0.2
				c0.5,0.1,1,0,1.5,0.1c1,0.2,2,0.7,2.7,1.5c0.6,0.6,0.7,1.4-0.1,1.8c-0.9,0.5-1.8,0.1-2.7,0.1c-0.2,0-0.4,0-0.5,0.1
				c-0.4,0.3-0.2,1.3-0.3,1.7c-0.1,0.5-0.3,0.9-0.7,1.2c-0.3,0.3-0.7,0.4-1.1,0.5c-0.4,0.1-0.8,0.4-1,0.7c-0.4,0.7,0.1,1.5,0.1,2.3
				c0,0.5-0.2,0.9-0.6,1.2c-0.2,0.2-0.5,0.4-0.7,0.6c-0.2,0.3-0.2,0.6-0.2,0.9c0,0.4-0.1,0.8-0.3,1.2c-0.3,0.8-0.9,1.2-1.8,1.2
				c-0.3,0-0.6-0.1-1-0.1C152.3,154.5,152.2,154.5,152.2,154.5z"/>
		</g>
		<g id="XMLID_674_">
			<path id="XMLID_10_" class="st68" d="M158.4,166.6l1.9,1.7c0.1,0.1,0.1,0.4,0,0.5l0,0c-0.1,0.1-0.3,0.1-0.5,0l-1.9-1.7
				L158.4,166.6z"/>
		</g>
		<g id="XMLID_656_">
			<path id="XMLID_8_" class="st68" d="M156.4,165.9l2.8,0.4c0.2,0,0.4,0.2,0.3,0.5l0,0c0,0.2-0.2,0.3-0.4,0.3l-2.8-0.4L156.4,165.9
				z"/>
		</g>
		<g id="XMLID_652_">
			<path id="XMLID_6_" class="st68" d="M160.2,165.6c0.3,0,0.6-0.1,0.9-0.3c2.7-2.2,4.1-5.7,3.7-9.2c-0.1-0.7-0.5-0.5-1.2-0.5
				c-0.7,0.1-1.4,0.1-1.3,0.7c0.3,2.6-0.7,5.2-2.8,6.9c-0.5,0.4-0.6,1.2-0.2,1.8C159.6,165.5,159.9,165.6,160.2,165.6z"/>
		</g>
		<g id="XMLID_639_">
			<path id="XMLID_5_" class="st68" d="M161.6,162.9l-2.5,0.6c-0.2,0-0.4-0.1-0.4-0.3l0,0c0-0.2,0.1-0.4,0.3-0.4l2.4-0.6
				L161.6,162.9z"/>
		</g>
		<g id="XMLID_495_">
			<path id="XMLID_4_" class="st68" d="M162,164.3l-1.6,2c-0.1,0.2-0.3,0.2-0.5,0l0,0c-0.1-0.1-0.2-0.3,0-0.5l1.6-2L162,164.3z"/>
		</g>
		<g id="XMLID_494_">
			<path id="XMLID_3_" class="st68" d="M161.2,164.2l-1.6,2c-0.1,0.2-0.3,0.2-0.5,0l0,0c-0.1-0.1-0.2-0.3,0-0.5l1.6-2L161.2,164.2z"
				/>
		</g>
		<g id="XMLID_493_">
			<path id="XMLID_2_" class="st68" d="M160.5,164l-1.6,2c-0.1,0.2-0.3,0.2-0.5,0l0,0c-0.1-0.1-0.2-0.3,0-0.5l1.6-2L160.5,164z"/>
		</g>
		<g id="XMLID_492_">
			<path id="XMLID_1_" class="st68" d="M160.5,163.5l-1.9,1.7c-0.1,0.1-0.4,0.1-0.5,0l0,0c-0.1-0.1-0.1-0.3,0-0.5l1.9-1.7
				L160.5,163.5z"/>
		</g>
	</g>
	<g id="XMLID_702_">
		<g id="XMLID_725_">
			<g id="XMLID_137_">
				<path id="XMLID_141_" class="st43" d="M152.9,55.1c0.2-0.5,0.3-0.9,0.3-1.3c0-0.4-0.1-0.6-0.2-0.8c-0.1-0.2-0.3-0.2-0.6,0
					c-0.4,0.2-0.9,1-1.3,2.2l-1.2-0.5c0.4-1,0.7-1.8,1.1-2.5c0.4-0.6,0.9-1.1,1.5-1.5c0.6-0.3,1.1-0.3,1.6,0
					c0.4,0.4,0.6,1.1,0.6,2.1c0,0.6-0.1,1.2-0.3,1.8s-0.6,1.5-1.1,2.6L152,60l2.8-1.6l-0.1,2.3l-4.9,2.8l0.1-1.9l2.2-4.5
					C152.4,56.3,152.7,55.6,152.9,55.1z"/>
				<path id="XMLID_139_" class="st43" d="M158.5,53.9l0.1-2l1.5-0.8l-0.1,2l0.8-0.4l-0.1,2.2l-0.8,0.4l-0.1,2.7l-1.5,0.8l0.1-2.7
					l-2.8,1.6l0.1-1.9l2.7-8.1l1.7-1l-2.6,7.7L158.5,53.9z"/>
			</g>
		</g>
		<g id="XMLID_718_">
			<g id="XMLID_104_">
				<path id="XMLID_105_" class="st43" d="M162.3,48.6l-0.1,1.6l-0.5,0.3l0.1-4.2l0.5-0.3v1.5c0.2-0.4,0.4-0.6,0.5-0.7
					c0.2-0.1,0.4-0.1,0.5,0.1c0.1,0.2,0.2,0.4,0.2,0.8l-0.1,1.9l-0.5,0.3l0.1-1.7c0-0.5-0.1-0.6-0.3-0.5c-0.1,0.1-0.2,0.2-0.3,0.3
					C162.3,48.2,162.3,48.4,162.3,48.6z"/>
			</g>
		</g>
		
			<linearGradient id="XMLID_99_" gradientUnits="userSpaceOnUse" x1="142.9654" y1="201.1238" x2="169.1976" y2="201.1238" gradientTransform="matrix(1 0 0 -1 0 256)">
			<stop  offset="0.1499" style="stop-color:#FF9800"/>
			<stop  offset="1" style="stop-color:#FFC107"/>
		</linearGradient>
		<path id="XMLID_717_" class="st76" d="M169.2,48.1l-2.6-1.3l-2,3.4l1.1,0.6l0.5-0.9c-0.7,6.8-5.5,14.6-11.3,17.9
			c-2.9,1.7-5.6,2-7.6,0.8s-3.1-3.6-3.1-7c0-7.2,5.1-16.1,11.4-19.7c2.4-1.4,4.6-1.8,6.5-1.3c1.4,0.4,2.5,1.3,3.2,2.7l1.1-0.6
			c-0.9-1.7-2.3-2.8-4-3.3c-2.2-0.6-4.8-0.1-7.4,1.4c-6.6,3.8-12,13.1-12,20.8c0,3.8,1.3,6.7,3.7,8.1c1,0.6,2.1,0.9,3.4,0.9
			c1.7,0,3.6-0.6,5.5-1.7c6.5-3.7,11.8-12.7,12-20.3l1.1,0.5L169.2,48.1z"/>
	</g>
	<g>
		<polygon id="XMLID_1341_" class="st77" points="122.2,146.4 128.8,142.6 137,147.3 130.4,151.1 		"/>
		<polygon id="XMLID_1340_" class="st78" points="134.1,150.9 129.9,153.1 129.6,147.4 133.2,147.4 133.2,149.6 133.6,149.7 		"/>
		<polygon id="XMLID_1339_" class="st79" points="147,143.4 142.9,145.9 142.5,139.9 146.2,139.9 146.3,141.6 146.6,142.2 		"/>
		<polygon id="XMLID_1338_" class="st43" points="141.6,145.7 139.9,144.8 139.9,141 141.6,141.8 		"/>
		<path id="XMLID_1337_" class="st43" d="M142.8,141.3c-1,0.6-1.8,2-1.8,3.2s0.8,1.7,1.8,1.1c1-0.6,1.8-2,1.8-3.2
			S143.8,140.7,142.8,141.3z"/>
		<path id="XMLID_1335_" class="st78" d="M143.6,146.7l-1.1-0.7c-0.3-0.2-0.5-0.5-0.5-0.9V142l1.6,0.8V146.7z"/>
		<path id="XMLID_1334_" class="st43" d="M144.8,142.3c-1,0.6-1.8,2-1.8,3.2s0.8,1.7,1.8,1.1c1-0.6,1.8-2,1.8-3.2
			C146.6,142.2,145.8,141.7,144.8,142.3z"/>
		<path id="XMLID_1333_" class="st58" d="M144.8,143.2c-0.6,0.3-1,1.1-1,1.7c0,0.6,0.5,0.9,1,0.6c0.6-0.3,1-1.1,1-1.7
			C145.8,143.2,145.3,142.9,144.8,143.2z"/>
		<path id="XMLID_1315_" class="st80" d="M146.2,142L146.2,142c0.3,0.3,0.5,0.8,0.5,1.3c0,0.1,0,0.2,0,0.3l0.7-0.5v-1.9L146.2,142z"
			/>
		
			<linearGradient id="XMLID_100_" gradientUnits="userSpaceOnUse" x1="133.2231" y1="108.6" x2="143.3478" y2="108.6" gradientTransform="matrix(1 0 0 -1 0 256)">
			<stop  offset="0.4788" style="stop-color:#FFC107"/>
			<stop  offset="0.9962" style="stop-color:#FF9800"/>
		</linearGradient>
		<path id="XMLID_1314_" class="st81" d="M142.8,145.8c0-0.1,0-0.2,0-0.3c0-0.6,0.2-1.3,0.5-1.9l-10.1,5.9v0.1
			c0.3,0.3,0.5,0.7,0.5,1.3c0,0.1,0,0.2,0,0.3L142.8,145.8z"/>
		<g id="XMLID_719_">
			<polygon id="XMLID_734_" class="st82" points="123.8,132.5 135.6,125.7 147.4,132.5 135.6,139.3 			"/>
			<polygon id="XMLID_729_" class="st83" points="123.8,132.5 123.8,141.7 135.6,148.5 135.6,139.3 			"/>
			<polygon id="XMLID_728_" class="st82" points="124.7,133.9 124.7,136.9 127.4,138.5 127.4,135.4 			"/>
			<polygon id="XMLID_727_" class="st43" points="135.6,148.5 147.4,141.7 147.4,132.5 135.6,139.3 			"/>
			<polygon id="XMLID_726_" class="st58" points="128.6,144.4 128.6,135.2 130.9,136.6 130.9,145.8 			"/>
			<polygon id="XMLID_722_" class="st58" points="128.6,135.2 140.3,128.5 142.8,129.8 130.9,136.6 			"/>
			<polygon id="XMLID_721_" class="st58" points="128.7,129.7 140.3,136.6 142.7,135.2 131,128.3 			"/>
			<polygon id="XMLID_720_" class="st58" points="140.3,136.6 140.3,145.8 142.7,144.4 142.7,135.2 			"/>
		</g>
		<polygon id="XMLID_1336_" class="st78" points="130.4,154.4 128.8,153.4 128.8,149.6 130.4,150.5 		"/>
		<polygon id="XMLID_1327_" class="st84" points="117.9,148.9 117.9,150.2 126.6,155.2 126.6,153.9 		"/>
		<polygon id="XMLID_1326_" class="st85" points="126.6,155.2 129.1,153.9 129.1,152.4 126.6,153.9 		"/>
		
			<linearGradient id="XMLID_101_" gradientUnits="userSpaceOnUse" x1="118.4" y1="108.8" x2="126.6415" y2="108.8" gradientTransform="matrix(1 0 0 -1 0 256)">
			<stop  offset="0.4788" style="stop-color:#FFC107"/>
			<stop  offset="0.9962" style="stop-color:#FF9800"/>
		</linearGradient>
		<polygon id="XMLID_1325_" class="st86" points="118.4,141 126.6,145.7 126.6,153.4 118.4,148.6 		"/>
		<polygon id="XMLID_1324_" class="st46" points="118.4,141.5 126.1,146 126.1,150.8 118.4,146.4 		"/>
		<polygon id="XMLID_1323_" class="st58" points="124.5,150.6 126.3,151.6 126.3,152.8 124.5,151.7 		"/>
		<polygon id="XMLID_1322_" class="st43" points="120.9,148.7 124.1,150.6 124.1,151.1 120.9,149.2 		"/>
		<polygon id="XMLID_1321_" class="st58" points="118.8,147.2 120.6,148.3 120.6,149.4 118.8,148.4 		"/>
		
			<linearGradient id="XMLID_102_" gradientUnits="userSpaceOnUse" x1="126.638" y1="108.15" x2="133.2451" y2="108.15" gradientTransform="matrix(1 0 0 -1 0 256)">
			<stop  offset="0.4788" style="stop-color:#FFC107"/>
			<stop  offset="0.9962" style="stop-color:#FF9800"/>
		</linearGradient>
		<path id="XMLID_1320_" class="st87" d="M129.5,153.6c0-0.1,0-0.2,0-0.4c0-1.3,1-3,2.1-3.7c0.7-0.4,1.3-0.4,1.6,0v-7.6l-6.6,3.8
			v8.1l2.5-1.4v1.4L129.5,153.6z"/>
		<path id="XMLID_1319_" class="st43" d="M131.6,149.9c-1,0.6-1.8,2-1.8,3.2s0.8,1.7,1.8,1.1c1-0.6,1.8-2,1.8-3.2
			C133.4,149.8,132.6,149.3,131.6,149.9z"/>
		<path id="XMLID_1318_" class="st58" d="M131.6,150.9c-0.6,0.3-1,1.1-1,1.7s0.5,0.9,1,0.6c0.6-0.3,1-1.1,1-1.7
			C132.6,150.8,132.1,150.6,131.6,150.9z"/>
		
			<linearGradient id="XMLID_103_" gradientUnits="userSpaceOnUse" x1="118.4" y1="114.55" x2="133.2487" y2="114.55" gradientTransform="matrix(1 0 0 -1 0 256)">
			<stop  offset="0.4788" style="stop-color:#FFC107"/>
			<stop  offset="0.9962" style="stop-color:#FF9800"/>
		</linearGradient>
		<polygon id="XMLID_1317_" class="st88" points="118.4,141 125,137.2 133.2,141.9 126.6,145.7 		"/>
		<polygon id="XMLID_1316_" class="st46" points="127.2,146.3 132.7,143.2 132.7,146.3 129.9,147.9 129.9,150.1 127.2,151.7 		"/>
		<polygon id="XMLID_1313_" class="st63" points="118.4,148.6 117.9,148.9 126.6,153.9 127.1,153.6 		"/>
		<polygon id="XMLID_1312_" class="st63" points="129.1,152.4 128.7,152.2 126.3,153.6 126.7,153.8 		"/>
		<g id="XMLID_1309_">
			<polygon id="XMLID_1311_" class="st89" points="123.7,144.6 123,144.2 119.9,147.3 120.7,147.7 			"/>
			<polygon id="XMLID_1310_" class="st89" points="120.2,142.6 118.4,144.4 118.4,146.4 119.3,146.9 122.4,143.8 			"/>
		</g>
		<g id="XMLID_1306_">
			<polygon id="XMLID_1308_" class="st89" points="129.8,144.8 129.3,145 127.2,149.4 127.2,150.1 			"/>
			<polygon id="XMLID_1307_" class="st89" points="127.2,146.5 127.2,148.7 128.9,145.3 127.4,146.2 			"/>
		</g>
	</g>
	<g id="XMLID_153_">
		<g id="XMLID_219_">
			
				<linearGradient id="XMLID_106_" gradientUnits="userSpaceOnUse" x1="137.1888" y1="128.038" x2="132.1766" y2="140.6492" gradientTransform="matrix(1 0 0 -1 0 256)">
				<stop  offset="0" style="stop-color:#FFC107"/>
				<stop  offset="0.8501" style="stop-color:#FF9800"/>
			</linearGradient>
			<path id="XMLID_224_" class="st90" d="M130.4,116.4L130.4,116.4c0.8-0.9,2.1-1.1,3.2-0.5l4.5,2.5c0.6,0.3,1.1,1.1,1.1,1.8v6
				c0,1.1-0.9,1.9-2,1.9H137c-0.2,0-0.3-0.1-0.4-0.1l-5.3-3c-0.6-0.3-1.1-1.1-1.1-1.8V117C130.2,116.7,130.2,116.5,130.4,116.4z"/>
			
				<linearGradient id="XMLID_107_" gradientUnits="userSpaceOnUse" x1="137.2027" y1="127.5191" x2="130.8163" y2="139.4835" gradientTransform="matrix(1 0 0 -1 0 256)">
				<stop  offset="0.1499" style="stop-color:#FF9800"/>
				<stop  offset="1" style="stop-color:#FFC107"/>
			</linearGradient>
			<path id="XMLID_223_" class="st91" d="M130.2,117.2c0-0.7,0.5-0.9,1.1-0.6l5.1,2.9c0.6,0.3,1.1,1.1,1.1,1.8v5.9
				c0,0.7-0.5,0.9-1.1,0.6l-5.1-2.9c-0.6-0.3-1.1-1.1-1.1-1.8V117.2z"/>
			<path id="XMLID_222_" class="st43" d="M133.8,120c-0.6-0.3-1.1-0.1-1.1,0.6s0.5,1.6,1.1,1.9c0.6,0.4,1.1,0.1,1.1-0.6
				S134.4,120.3,133.8,120z"/>
			<path id="XMLID_221_" class="st43" d="M137.1,118.7V116c0-2.6-0.6-4.2-1.7-4.9c-0.6-0.3-1.2-0.4-1.8,0c-0.4,0.2-1.2,0.9-1.2,2.8
				v2.6l0,0c0,0.1,0,0.1,0.1,0.2c0.2,0.1,0.5,0.1,0.7,0c0.1-0.1,0.1-0.1,0.1-0.2l0,0v-2.6c0-1,0.3-1.7,0.7-1.9
				c0.3-0.2,0.6-0.1,0.8,0c0.8,0.5,1.2,1.9,1.2,4v2.7c0,0.1,0,0.1,0.1,0.2c0.2,0.1,0.5,0.1,0.7,0C137,118.8,137.1,118.8,137.1,118.7
				z"/>
			<polygon id="XMLID_220_" class="st43" points="133.1,120.7 133.1,123.7 134.5,124.5 134.5,121.4 			"/>
		</g>
	</g>
</g>
</svg>
