<?xml version="1.0" encoding="utf-8"?>
<!-- Generator: Adobe Illustrator 19.0.0, SVG Export Plug-In . SVG Version: 6.00 Build 0)  -->
<svg version="1.1" id="Layer_1" xmlns="http://www.w3.org/2000/svg" xmlns:xlink="http://www.w3.org/1999/xlink" x="0px" y="0px"
	 viewBox="0 0 256 256" style="enable-background:new 0 0 256 256;" xml:space="preserve">
<style type="text/css">
	.st0{fill:url(#XMLID_15_);}
	.st1{fill:url(#XMLID_17_);}
	.st2{fill:#FFFFFF;}
	.st3{fill:#FFDA6A;}
	.st4{fill:url(#XMLID_18_);}
	.st5{fill:url(#XMLID_19_);}
	.st6{fill:#3C5185;}
	.st7{fill:url(#XMLID_20_);}
	.st8{fill:#FFCD39;}
	.st9{opacity:0.3;}
	.st10{fill:#3C5185;fill-opacity:0;}
	.st11{opacity:2.439000e-002;fill:#3C5185;enable-background:new    ;}
	.st12{opacity:4.878000e-002;fill:#3C5185;enable-background:new    ;}
	.st13{opacity:7.317100e-002;fill:#3C5185;enable-background:new    ;}
	.st14{opacity:9.756100e-002;fill:#3C5185;enable-background:new    ;}
	.st15{opacity:0.122;fill:#3C5185;enable-background:new    ;}
	.st16{opacity:0.1463;fill:#3C5185;enable-background:new    ;}
	.st17{opacity:0.1707;fill:#3C5185;enable-background:new    ;}
	.st18{opacity:0.1951;fill:#3C5185;enable-background:new    ;}
	.st19{opacity:0.2195;fill:#3C5185;enable-background:new    ;}
	.st20{opacity:0.2439;fill:#3C5185;enable-background:new    ;}
	.st21{opacity:0.2683;fill:#3C5185;enable-background:new    ;}
	.st22{opacity:0.2927;fill:#3C5185;enable-background:new    ;}
	.st23{opacity:0.3171;fill:#3C5185;enable-background:new    ;}
	.st24{opacity:0.3415;fill:#3C5185;enable-background:new    ;}
	.st25{opacity:0.3659;fill:#3C5185;enable-background:new    ;}
	.st26{opacity:0.3902;fill:#3C5185;enable-background:new    ;}
	.st27{opacity:0.4146;fill:#3C5185;enable-background:new    ;}
	.st28{opacity:0.439;fill:#3C5185;enable-background:new    ;}
	.st29{opacity:0.4634;fill:#3C5185;enable-background:new    ;}
	.st30{opacity:0.4878;fill:#3C5185;enable-background:new    ;}
	.st31{opacity:0.5122;fill:#3C5185;enable-background:new    ;}
	.st32{opacity:0.5366;fill:#3C5185;enable-background:new    ;}
	.st33{opacity:0.561;fill:#3C5185;enable-background:new    ;}
	.st34{opacity:0.5854;fill:#3C5185;enable-background:new    ;}
	.st35{opacity:0.6098;fill:#3C5185;enable-background:new    ;}
	.st36{opacity:0.6341;fill:#3C5185;enable-background:new    ;}
	.st37{opacity:0.6585;fill:#3C5185;enable-background:new    ;}
	.st38{opacity:0.6829;fill:#3C5185;enable-background:new    ;}
	.st39{opacity:0.7073;fill:#3C5185;enable-background:new    ;}
	.st40{opacity:0.7317;fill:#3C5185;enable-background:new    ;}
	.st41{opacity:0.7561;fill:#3C5185;enable-background:new    ;}
	.st42{opacity:0.7805;fill:#3C5185;enable-background:new    ;}
	.st43{opacity:0.8049;fill:#3C5185;enable-background:new    ;}
	.st44{opacity:0.8293;fill:#3C5185;enable-background:new    ;}
	.st45{opacity:0.8537;fill:#3C5185;enable-background:new    ;}
	.st46{opacity:0.878;fill:#3C5185;enable-background:new    ;}
	.st47{opacity:0.9024;fill:#3C5185;enable-background:new    ;}
	.st48{opacity:0.9268;fill:#3C5185;enable-background:new    ;}
	.st49{opacity:0.9512;fill:#3C5185;enable-background:new    ;}
	.st50{opacity:0.9756;fill:#3C5185;enable-background:new    ;}
	.st51{opacity:0.4;}
	.st52{fill:#F2B1B5;}
	.st53{fill:#D1E1F2;}
	.st54{fill:url(#XMLID_21_);}
	.st55{fill:url(#XMLID_260_);}
	.st56{fill:#A5CBEF;}
	.st57{fill:url(#XMLID_346_);}
	.st58{fill:url(#XMLID_348_);}
	.st59{fill:url(#XMLID_350_);}
	.st60{fill:#F6FAFD;}
	.st61{fill:#E4EFFA;}
	.st62{fill:#EFF6FC;}
	.st63{fill:#4F6291;}
	.st64{fill:url(#XMLID_355_);}
	.st65{fill:#F3F8FE;}
	.st66{opacity:0.35;}
	.st67{fill:#FFFFFF;fill-opacity:0;}
	.st68{opacity:1.960800e-002;fill:#FBFBFC;enable-background:new    ;}
	.st69{opacity:3.921600e-002;fill:#F8F8F9;enable-background:new    ;}
	.st70{opacity:5.882400e-002;fill:#F4F4F6;enable-background:new    ;}
	.st71{opacity:7.843100e-002;fill:#F1F1F3;enable-background:new    ;}
	.st72{opacity:9.803900e-002;fill:#EDEDF0;enable-background:new    ;}
	.st73{opacity:0.1176;fill:#E9E9ED;enable-background:new    ;}
	.st74{opacity:0.1373;fill:#E6E6EB;enable-background:new    ;}
	.st75{opacity:0.1569;fill:#E2E2E8;enable-background:new    ;}
	.st76{opacity:0.1765;fill:#DFDFE5;enable-background:new    ;}
	.st77{opacity:0.1961;fill:#DBDBE2;enable-background:new    ;}
	.st78{opacity:0.2157;fill:#D8D8DF;enable-background:new    ;}
	.st79{opacity:0.2353;fill:#D4D4DC;enable-background:new    ;}
	.st80{opacity:0.2549;fill:#D0D0D9;enable-background:new    ;}
	.st81{opacity:0.2745;fill:#CDCDD6;enable-background:new    ;}
	.st82{opacity:0.2941;fill:#C9C9D3;enable-background:new    ;}
	.st83{opacity:0.3137;fill:#C6C6D0;enable-background:new    ;}
	.st84{opacity:0.3333;fill:#C2C2CD;enable-background:new    ;}
	.st85{opacity:0.3529;fill:#BEBECA;enable-background:new    ;}
	.st86{opacity:0.3725;fill:#BBBBC7;enable-background:new    ;}
	.st87{opacity:0.3922;fill:#B7B7C5;enable-background:new    ;}
	.st88{opacity:0.4118;fill:#B4B4C2;enable-background:new    ;}
	.st89{opacity:0.4314;fill:#B0B0BF;enable-background:new    ;}
	.st90{opacity:0.451;fill:#ACACBC;enable-background:new    ;}
	.st91{opacity:0.4706;fill:#A9A9B9;enable-background:new    ;}
	.st92{opacity:0.4902;fill:#A5A5B6;enable-background:new    ;}
	.st93{opacity:0.5098;fill:#A2A2B3;enable-background:new    ;}
	.st94{opacity:0.5294;fill:#9E9EB0;enable-background:new    ;}
	.st95{opacity:0.549;fill:#9B9BAD;enable-background:new    ;}
	.st96{opacity:0.5686;fill:#9797AA;enable-background:new    ;}
	.st97{opacity:0.5882;fill:#9393A7;enable-background:new    ;}
	.st98{opacity:0.6078;fill:#9090A4;enable-background:new    ;}
	.st99{opacity:0.6275;fill:#8C8CA2;enable-background:new    ;}
	.st100{opacity:0.6471;fill:#89899F;enable-background:new    ;}
	.st101{opacity:0.6667;fill:#85859C;enable-background:new    ;}
	.st102{opacity:0.6863;fill:#818199;enable-background:new    ;}
	.st103{opacity:0.7059;fill:#7E7E96;enable-background:new    ;}
	.st104{opacity:0.7255;fill:#7A7A93;enable-background:new    ;}
	.st105{opacity:0.7451;fill:#777790;enable-background:new    ;}
	.st106{opacity:0.7647;fill:#73738D;enable-background:new    ;}
	.st107{opacity:0.7843;fill:#6F6F8A;enable-background:new    ;}
	.st108{opacity:0.8039;fill:#6C6C87;enable-background:new    ;}
	.st109{opacity:0.8235;fill:#686884;enable-background:new    ;}
	.st110{opacity:0.8431;fill:#656581;enable-background:new    ;}
	.st111{opacity:0.8627;fill:#61617E;enable-background:new    ;}
	.st112{opacity:0.8824;fill:#5E5E7C;enable-background:new    ;}
	.st113{opacity:0.902;fill:#5A5A79;enable-background:new    ;}
	.st114{opacity:0.9216;fill:#565676;enable-background:new    ;}
	.st115{opacity:0.9412;fill:#535373;enable-background:new    ;}
	.st116{opacity:0.9608;fill:#4F4F70;enable-background:new    ;}
	.st117{opacity:0.9804;fill:#4C4C6D;enable-background:new    ;}
	.st118{fill:#48486A;}
	.st119{fill:url(#XMLID_356_);}
	.st120{fill:#F6F9FC;}
	.st121{fill:#EDF3FA;}
	.st122{fill:#4A65A3;}
	.st123{fill:url(#XMLID_357_);}
	.st124{fill:url(#XMLID_358_);}
	.st125{fill:url(#XMLID_359_);}
	.st126{fill:url(#XMLID_360_);}
	.st127{fill:#363650;}
	.st128{fill:#F6F8FB;}
	.st129{fill:#E5E9F4;}
	.st130{fill:url(#XMLID_361_);}
	.st131{fill:url(#XMLID_362_);}
	.st132{opacity:0.15;fill:#FFFFFF;enable-background:new    ;}
	.st133{fill:url(#XMLID_363_);}
	.st134{opacity:0.33;fill:#3C5185;enable-background:new    ;}
	.st135{fill:url(#XMLID_364_);}
	.st136{fill:url(#XMLID_365_);}
	.st137{fill:url(#XMLID_366_);}
	.st138{fill:url(#XMLID_367_);}
	.st139{fill:url(#XMLID_368_);}
	.st140{fill:url(#XMLID_369_);}
	.st141{fill:url(#XMLID_370_);}
	.st142{fill:url(#XMLID_371_);}
	.st143{fill:url(#XMLID_372_);}
	.st144{fill:url(#XMLID_373_);}
	.st145{fill:url(#XMLID_374_);}
	.st146{fill:url(#XMLID_375_);}
	.st147{fill:url(#XMLID_376_);}
	.st148{fill:url(#XMLID_377_);}
	.st149{fill:url(#XMLID_378_);}
	.st150{fill:#4D5068;}
	.st151{fill:url(#XMLID_379_);}
	.st152{opacity:0.3;fill:#231F20;enable-background:new    ;}
	.st153{fill:url(#XMLID_380_);}
	.st154{fill:#F1CA88;}
	.st155{fill:url(#XMLID_381_);}
	.st156{fill:#231F20;}
	.st157{fill:url(#XMLID_382_);}
</style>
<g>
	
		<linearGradient id="XMLID_15_" gradientUnits="userSpaceOnUse" x1="76.458" y1="36.2137" x2="205.8138" y2="206.7282" gradientTransform="matrix(1 0 0 -1 0 256)">
		<stop  offset="0.1" style="stop-color:#FFFFFF"/>
		<stop  offset="0.4303" style="stop-color:#F8FBFD"/>
		<stop  offset="0.8932" style="stop-color:#E6EEF8"/>
		<stop  offset="1" style="stop-color:#E1EBF7"/>
	</linearGradient>
	<path id="XMLID_345_" class="st0" d="M218.5,142.1c0,42.4-41.9,72.4-84.4,72.4s-81.9-29.9-81.9-72.4s59.4-94.9,101.9-94.9
		S218.5,99.7,218.5,142.1z"/>
	<g>
		
			<linearGradient id="XMLID_17_" gradientUnits="userSpaceOnUse" x1="154.8" y1="169.35" x2="182.2" y2="169.35" gradientTransform="matrix(1 0 0 -1 0 256)">
			<stop  offset="3.802050e-003" style="stop-color:#A5CBEF"/>
			<stop  offset="0.4419" style="stop-color:#CEE3F6"/>
			<stop  offset="1" style="stop-color:#FFFFFF"/>
		</linearGradient>
		<path id="XMLID_960_" class="st1" d="M182.2,83h-1.5c-0.6-0.7-1.5-1.4-2.5-1.9c-5.3-3.1-14.1-3.1-19.4,0c-1,0.6-1.8,1.2-2.5,1.9
			h-1.5v3.6l0,0c0,2,1.3,4.1,4,5.6c5.3,3.1,14.1,3.1,19.4,0c2.7-1.5,4-3.6,4-5.6l0,0V83z"/>
		<path id="XMLID_959_" class="st2" d="M158.8,77.4c5.3-3.1,14.1-3.1,19.4,0c5.3,3.1,5.3,8.1,0,11.2s-14.1,3.1-19.4,0
			C153.5,85.5,153.5,80.5,158.8,77.4z"/>
		<path id="XMLID_958_" class="st3" d="M182.2,83.1L182.2,83.1V80h-1.1c-0.7-0.9-1.6-1.8-2.9-2.5c-3.8-2.2-1.2,6.1,0,11.2v3.7
			c2.6-1.5,3.9-3.5,4-5.5V83.1z"/>
		
			<linearGradient id="XMLID_18_" gradientUnits="userSpaceOnUse" x1="171.724" y1="188.8451" x2="165.1451" y2="180.3865" gradientTransform="matrix(1 0 0 -1 0 256)">
			<stop  offset="0" style="stop-color:#5D7DBE"/>
			<stop  offset="1" style="stop-color:#3C5185"/>
		</linearGradient>
		<path id="XMLID_957_" class="st4" d="M178.2,71.3c-5.3-3.1-14.1-3.1-19.4,0l9.7,6.6L178.2,71.3z"/>
		
			<linearGradient id="XMLID_19_" gradientUnits="userSpaceOnUse" x1="162.1494" y1="176.6067" x2="165.3448" y2="180.319" gradientTransform="matrix(1 0 0 -1 0 256)">
			<stop  offset="0" style="stop-color:#3C5185"/>
			<stop  offset="1" style="stop-color:#5D7DBE"/>
		</linearGradient>
		<polygon id="XMLID_956_" class="st5" points="158.8,71.3 158.8,77.4 168.5,84 168.5,77.9 		"/>
		<polygon id="XMLID_953_" class="st6" points="168.5,77.9 178.2,71.3 178.2,77.4 168.5,84 		"/>
		
			<linearGradient id="XMLID_20_" gradientUnits="userSpaceOnUse" x1="168.5" y1="176.1" x2="182.213" y2="176.1" gradientTransform="matrix(1 0 0 -1 0 256)">
			<stop  offset="0.1499" style="stop-color:#FF9800"/>
			<stop  offset="1" style="stop-color:#FFC107"/>
		</linearGradient>
		<path id="XMLID_952_" class="st7" d="M178.2,74.3c5.3,3.1,5.3,8.1,0,11.2l-9.7-4.6L178.2,74.3z"/>
		<polygon id="XMLID_950_" class="st8" points="168.5,81 168.5,84 178.2,88.6 178.2,85.5 		"/>
	</g>
	<g class="st9">
		<path id="XMLID_344_" class="st10" d="M217.6,143.2l-0.3-0.6c-0.2-0.4-0.5-0.8-0.9-1c-0.1-0.1-0.1-0.1-0.2-0.2l-0.1-0.1H216
			c-0.1-0.1-0.2-0.1-0.3-0.2l-55.3-31.9c-2-1.2-5.3-1.2-7.3,0L47.6,170c-1.2,0.7-1.7,1.7-1.4,2.6l-0.1,0.1v2c0,2.1,1.1,4.1,3,5.1
			l53.9,31c2,1.2,5.3,1.2,7.3,0L215.6,150C217.9,148.6,218.8,145.7,217.6,143.2z"/>
		<path id="XMLID_343_" class="st11" d="M217.2,143.2l-0.3-0.6c-0.2-0.4-0.5-0.8-0.9-1c-0.1-0.1-0.1-0.1-0.2-0.2l-0.1-0.1h-0.1
			c-0.1-0.1-0.2-0.1-0.3-0.2l-55-31.8c-2-1.2-5.3-1.2-7.3,0L47.9,169.9c-1.2,0.7-1.7,1.7-1.4,2.6l-0.1,0.1v2c0,2.1,1.1,4,2.9,5.1
			l53.6,30.9c2,1.2,5.3,1.2,7.3,0L215.1,150C217.5,148.6,218.4,145.6,217.2,143.2z"/>
		<path id="XMLID_342_" class="st12" d="M216.9,143.1l-0.3-0.6c-0.2-0.4-0.5-0.8-0.9-1c-0.1-0.1-0.1-0.1-0.2-0.2l-0.1-0.1h-0.1
			c-0.1-0.1-0.2-0.1-0.3-0.2l-54.7-31.6c-2-1.2-5.3-1.2-7.2,0L48.3,169.8c-1.2,0.7-1.7,1.7-1.4,2.6l-0.1,0.1v2c0,2.1,1.1,4,2.9,5.1
			l53.3,30.7c2,1.1,5.3,1.1,7.2,0l104.5-60.4C217.1,148.5,218,145.6,216.9,143.1z"/>
		<path id="XMLID_341_" class="st13" d="M216.5,143.1l-0.3-0.6c-0.2-0.4-0.5-0.7-0.9-1c-0.1-0.1-0.1-0.1-0.2-0.2l-0.1-0.1h-0.1
			c-0.1-0.1-0.2-0.1-0.3-0.2l-54.5-31.4c-2-1.1-5.2-1.1-7.2,0L48.6,169.8c-1.2,0.7-1.7,1.7-1.4,2.6h-0.1v2c0,2.1,1.1,4,2.9,5
			l53,30.5c2,1.1,5.2,1.1,7.2,0l104.2-60.2C216.8,148.4,217.7,145.5,216.5,143.1z"/>
		<path id="XMLID_340_" class="st14" d="M216.1,143.1l-0.3-0.6c-0.2-0.4-0.5-0.7-0.9-1c-0.1-0.1-0.1-0.1-0.2-0.2l-0.1-0.1h-0.1
			c-0.1-0.1-0.2-0.1-0.3-0.2L160,109.7c-2-1.1-5.2-1.1-7.2,0L49,169.7c-1.2,0.7-1.7,1.7-1.4,2.6h-0.1v2c0,2.1,1.1,4,2.9,5l52.7,30.4
			c2,1.1,5.2,1.1,7.2,0l103.8-60C216.4,148.4,217.3,145.5,216.1,143.1z"/>
		<path id="XMLID_339_" class="st15" d="M215.7,143l-0.3-0.6c-0.2-0.4-0.5-0.7-0.9-1c-0.1-0.1-0.1-0.1-0.2-0.2l-0.1-0.1h-0.1
			c-0.1-0.1-0.2-0.1-0.3-0.2L160,109.8c-2-1.1-5.2-1.1-7.1,0L49.3,169.6c-1.2,0.7-1.7,1.7-1.4,2.6h-0.1v2c0,2.1,1.1,4,2.9,5
			l52.5,30.2c2,1.1,5.2,1.1,7.1,0l103.4-59.8C216,148.3,216.9,145.4,215.7,143z"/>
		<path id="XMLID_338_" class="st16" d="M215.3,143l-0.3-0.6c-0.2-0.4-0.5-0.7-0.9-1c-0.1-0.1-0.1-0.1-0.2-0.2l-0.1-0.1h-0.1
			c-0.1-0.1-0.2-0.1-0.3-0.2L159.8,110c-1.9-1.1-5.1-1.1-7.1,0L49.6,169.6c-1.2,0.7-1.7,1.7-1.4,2.6h-0.1v1.9c0,2,1.1,3.9,2.9,4.9
			l52.2,30c1.9,1.1,5.1,1.1,7.1,0l103-59.6C215.6,148.2,216.5,145.3,215.3,143z"/>
		<path id="XMLID_337_" class="st17" d="M214.9,142.9l-0.3-0.6c-0.2-0.4-0.5-0.7-0.9-1c-0.1-0.1-0.1-0.1-0.2-0.2l-0.1-0.1h-0.1
			c-0.1-0.1-0.2-0.1-0.3-0.2L159.8,110c-1.9-1.1-5.1-1.1-7.1,0L50,169.5c-1.2,0.7-1.6,1.6-1.4,2.5h-0.1v1.9c0,2,1.1,3.9,2.8,4.9
			l51.9,29.9c1.9,1.1,5.1,1.1,7.1,0l102.6-59.3C215.2,148.1,216.1,145.3,214.9,142.9z"/>
		<path id="XMLID_336_" class="st18" d="M214.6,142.9l-0.3-0.6c-0.2-0.4-0.5-0.7-0.8-1c-0.1-0.1-0.1-0.1-0.2-0.2l-0.1-0.1h-0.1
			c-0.1-0.1-0.2-0.1-0.3-0.2l-53-30.6c-1.9-1.1-5.1-1.1-7,0L50.3,169.4c-1.2,0.7-1.6,1.6-1.4,2.5h-0.1v1.9c0,2,1.1,3.9,2.8,4.9
			l51.6,29.7c1.9,1.1,5.1,1.1,7,0l102.3-59.1C214.8,148.1,215.7,145.2,214.6,142.9z"/>
		<path id="XMLID_335_" class="st19" d="M214.2,142.8l-0.3-0.6c-0.2-0.4-0.5-0.7-0.8-1c-0.1-0.1-0.1-0.1-0.2-0.2l-0.1-0.1h-0.1
			c-0.1-0.1-0.2-0.1-0.3-0.2l-52.7-30.4c-1.9-1.1-5.1-1.1-7,0L50.6,169.4c-1.2,0.7-1.6,1.6-1.4,2.5h-0.1v1.9c0,2,1.1,3.9,2.8,4.9
			l51.3,29.5c1.9,1.1,5.1,1.1,7,0l101.9-58.9C214.4,148,215.3,145.2,214.2,142.8z"/>
		<path id="XMLID_334_" class="st20" d="M213.8,142.8l-0.3-0.6c-0.2-0.4-0.5-0.7-0.8-1c-0.1-0.1-0.1-0.1-0.2-0.2l-0.1-0.1h-0.1
			c-0.1-0.1-0.2-0.1-0.3-0.2l-52.4-30.3c-1.9-1.1-5-1.1-6.9,0L51,169.3c-1.2,0.7-1.6,1.6-1.3,2.5h-0.1v1.9c0,2,1.1,3.8,2.8,4.8
			l51,29.4c1.9,1.1,5,1.1,6.9,0l101.5-58.7C214.1,147.9,214.9,145.1,213.8,142.8z"/>
		<path id="XMLID_333_" class="st21" d="M213.4,142.7l-0.3-0.6c-0.2-0.4-0.5-0.7-0.8-1c-0.1-0.1-0.1-0.1-0.2-0.2l-0.1-0.1h-0.1
			c-0.1-0.1-0.2-0.1-0.3-0.2l-52.1-30.1c-1.9-1.1-5-1.1-6.9,0L51.3,169.2c-1.2,0.7-1.6,1.6-1.3,2.5h-0.1v1.9c0,2,1.1,3.8,2.8,4.8
			l50.7,29.2c1.9,1.1,5,1.1,6.9,0l101.1-58.5C213.7,147.8,214.5,145.1,213.4,142.7z"/>
		<path id="XMLID_330_" class="st22" d="M213,142.7l-0.3-0.6c-0.2-0.4-0.5-0.7-0.8-1c-0.1-0.1-0.1-0.1-0.2-0.2l-0.1-0.1h-0.1
			c-0.1-0.1-0.2-0.1-0.3-0.2l-51.8-29.9c-1.9-1.1-5-1.1-6.9,0L51.6,169.2c-1.2,0.7-1.6,1.6-1.3,2.5h-0.1v1.9c0,2,1.1,3.8,2.8,4.8
			l50.5,29c1.9,1.1,5,1.1,6.9,0L211.1,149C213.3,147.8,214.1,145,213,142.7z"/>
		<path id="XMLID_329_" class="st23" d="M212.6,142.7l-0.3-0.6c-0.2-0.4-0.5-0.7-0.8-1c-0.1-0.1-0.1-0.1-0.2-0.2l-0.1-0.1h-0.1
			c-0.1-0.1-0.2-0.1-0.3-0.2l-51.5-29.7c-1.9-1.1-4.9-1.1-6.8,0L52,169.1c-1.2,0.7-1.6,1.6-1.3,2.5h-0.1v1.9c0,2,1,3.8,2.8,4.8
			l50.2,28.9c1.9,1.1,4.9,1.1,6.8,0L210.7,149C212.9,147.7,213.7,144.9,212.6,142.7z"/>
		<path id="XMLID_328_" class="st24" d="M212.2,142.6L212,142c-0.2-0.4-0.5-0.7-0.8-1c-0.1-0.1-0.1-0.1-0.2-0.2l-0.1-0.1h-0.1
			c-0.1-0.1-0.2-0.1-0.3-0.2L159.3,111c-1.9-1.1-4.9-1.1-6.8,0L52.3,169c-1.1,0.7-1.6,1.6-1.3,2.4h-0.1v1.9c0,2,1,3.8,2.7,4.7
			l49.9,28.7c1.9,1.1,4.9,1.1,6.8,0l100-57.9C212.5,147.6,213.3,144.9,212.2,142.6z"/>
		<path id="XMLID_327_" class="st25" d="M211.9,142.6l-0.3-0.6c-0.2-0.4-0.5-0.7-0.8-1c-0.1-0.1-0.1-0.1-0.2-0.2l-0.1-0.1h-0.1
			c-0.1-0.1-0.2-0.1-0.3-0.2l-50.9-29.4c-1.9-1.1-4.9-1.1-6.7,0L52.7,169c-1.1,0.7-1.6,1.6-1.3,2.4h-0.1v1.9c0,1.9,1,3.7,2.7,4.7
			l49.6,28.5c1.9,1.1,4.9,1.1,6.7,0l99.6-57.7C212.1,147.6,213,144.8,211.9,142.6z"/>
		<path id="XMLID_326_" class="st26" d="M211.5,142.5l-0.3-0.6c-0.2-0.4-0.5-0.7-0.8-1c-0.1-0.1-0.1-0.1-0.2-0.2l-0.1-0.1H210
			c-0.1-0.1-0.2-0.1-0.2-0.2l-50.6-29.2c-1.8-1.1-4.9-1.1-6.7,0L53,168.9c-1.1,0.7-1.6,1.6-1.3,2.4h-0.1v1.8c0,1.9,1,3.7,2.7,4.7
			l49.3,28.4c1.8,1.1,4.9,1.1,6.7,0l99.3-57.5C211.7,147.5,212.6,144.8,211.5,142.5z"/>
		<path id="XMLID_325_" class="st27" d="M211.1,142.5l-0.3-0.6c-0.2-0.4-0.5-0.7-0.8-1c-0.1-0.1-0.1-0.1-0.2-0.2l-0.1-0.1h-0.1
			c-0.1-0.1-0.2-0.1-0.2-0.2l-50.4-29c-1.8-1.1-4.8-1.1-6.7,0l-99,57.4c-1.1,0.6-1.6,1.6-1.3,2.4h-0.1v1.8c0,1.9,1,3.7,2.7,4.7
			l49,28.2c1.8,1.1,4.8,1.1,6.7,0l98.9-57.3C211.3,147.4,212.2,144.7,211.1,142.5z"/>
		<path id="XMLID_324_" class="st28" d="M210.7,142.4l-0.3-0.6c-0.2-0.4-0.5-0.7-0.8-0.9c-0.1-0.1-0.1-0.1-0.2-0.2l-0.1-0.1h-0.1
			c-0.1-0.1-0.2-0.1-0.2-0.2l-50-28.9c-1.8-1.1-4.8-1.1-6.6,0l-98.7,57.2c-1.1,0.6-1.5,1.5-1.3,2.4h-0.1v1.8c0,1.9,1,3.7,2.7,4.6
			l48.7,28.1c1.8,1.1,4.8,1.1,6.6,0l98.5-57.1C211,147.3,211.8,144.7,210.7,142.4z"/>
		<path id="XMLID_323_" class="st29" d="M210.3,142.4l-0.3-0.6c-0.2-0.4-0.5-0.7-0.8-0.9c-0.1-0.1-0.1-0.1-0.2-0.2l-0.1-0.1h-0.1
			c-0.1-0.1-0.2-0.1-0.2-0.2l-49.8-28.7c-1.8-1-4.8-1-6.6,0l-98.3,57c-1.1,0.6-1.5,1.5-1.3,2.4h-0.1v1.8c0,1.9,1,3.6,2.7,4.6
			l48.5,27.9c1.8,1,4.8,1,6.6,0l98.1-56.9C210.6,147.3,211.4,144.6,210.3,142.4z"/>
		<path id="XMLID_322_" class="st30" d="M209.9,142.3l-0.3-0.6c-0.2-0.4-0.5-0.7-0.8-0.9c-0.1-0.1-0.1-0.1-0.2-0.2l-0.1-0.1h-0.1
			c-0.1-0.1-0.2-0.1-0.2-0.2l-49.5-28.6c-1.8-1-4.7-1-6.5,0l-97.9,56.8c-1.1,0.6-1.5,1.5-1.3,2.4h-0.1v1.8c0,1.9,1,3.6,2.6,4.6
			l48.2,27.7c1.8,1,4.7,1,6.5,0l97.7-56.7C210.2,147.2,211,144.5,209.9,142.3z"/>
		<path id="XMLID_321_" class="st31" d="M209.6,142.3l-0.3-0.6c-0.2-0.4-0.5-0.7-0.8-0.9c-0.1-0.1-0.1-0.1-0.2-0.2l-0.1-0.1h-0.1
			c-0.1-0.1-0.1-0.1-0.2-0.2l-49.2-28.4c-1.8-1-4.7-1-6.5,0l-97.5,56.6c-1.1,0.6-1.5,1.5-1.3,2.3h-0.1v1.8c0,1.9,1,3.6,2.6,4.5
			l47.9,27.6c1.8,1,4.7,1,6.5,0l97.4-56.5C209.8,147.1,210.6,144.5,209.6,142.3z"/>
		<path id="XMLID_320_" class="st32" d="M209.2,142.3l-0.3-0.6c-0.2-0.4-0.5-0.7-0.8-0.9c-0.1-0.1-0.1-0.1-0.2-0.2l-0.1-0.1h-0.1
			c-0.1-0.1-0.1-0.1-0.2-0.2l-48.9-28.2c-1.8-1-4.7-1-6.5,0L55,168.5c-1.1,0.6-1.5,1.5-1.3,2.3h-0.1v1.8c0,1.9,1,3.6,2.6,4.5
			l47.6,27.4c1.8,1,4.7,1,6.5,0l97-56.3C209.4,147,210.2,144.4,209.2,142.3z"/>
		<path id="XMLID_319_" class="st33" d="M208.8,142.2l-0.3-0.6c-0.2-0.4-0.5-0.7-0.8-0.9c-0.1-0.1-0.1-0.1-0.2-0.2l-0.1-0.1h-0.1
			c-0.1-0.1-0.1-0.1-0.2-0.2l-48.6-28c-1.8-1-4.7-1-6.4,0l-96.8,56.2c-1.1,0.6-1.5,1.5-1.3,2.3h-0.1v1.8c0,1.9,1,3.6,2.6,4.5
			l47.3,27.2c1.8,1,4.7,1,6.4,0l96.6-56.1C209,147,209.8,144.4,208.8,142.2z"/>
		<path id="XMLID_318_" class="st34" d="M208.4,142.2l-0.3-0.6c-0.2-0.4-0.5-0.7-0.8-0.9c-0.1-0.1-0.1-0.1-0.2-0.2l-0.1-0.1h-0.1
			c-0.1-0.1-0.1-0.1-0.2-0.2l-48.3-27.9c-1.8-1-4.6-1-6.4,0l-96.4,56c-1.1,0.6-1.5,1.5-1.2,2.3h-0.1v1.8c0,1.8,1,3.5,2.6,4.5
			l47,27.1c1.8,1,4.6,1,6.4,0l96.2-55.9C208.6,146.9,209.4,144.3,208.4,142.2z"/>
		<path id="XMLID_317_" class="st35" d="M208,142.1l-0.3-0.6c-0.2-0.4-0.5-0.7-0.8-0.9c-0.1-0.1-0.1-0.1-0.2-0.2l-0.1-0.1h-0.1
			c-0.1-0.1-0.1-0.1-0.2-0.2l-48-27.7c-1.7-1-4.6-1-6.4,0l-96,55.8c-1.1,0.6-1.5,1.5-1.2,2.3h-0.1v1.7c0,1.8,1,3.5,2.6,4.4
			l46.7,26.9c1.7,1,4.6,1,6.4,0l95.9-55.7C208.3,146.8,209,144.3,208,142.1z"/>
		<path id="XMLID_316_" class="st36" d="M207.6,142.1l-0.3-0.6c-0.2-0.4-0.5-0.7-0.8-0.9c-0.1-0.1-0.1-0.1-0.2-0.2l-0.1-0.1h-0.1
			c-0.1-0.1-0.1-0.1-0.2-0.2l-47.7-27.5c-1.7-1-4.6-1-6.3,0l-95.6,55.6c-1.1,0.6-1.5,1.5-1.2,2.3H55v1.7c0,1.8,1,3.5,2.5,4.4
			l46.4,26.7c1.7,1,4.6,1,6.3,0l95.5-55.5C207.9,146.7,208.7,144.2,207.6,142.1z"/>
		<path id="XMLID_315_" class="st37" d="M207.2,142l-0.3-0.6c-0.2-0.4-0.4-0.7-0.8-0.9c-0.1-0.1-0.1-0.1-0.2-0.2l-0.1-0.1h-0.1
			c-0.1-0.1-0.1-0.1-0.2-0.2l-47.4-27.4c-1.7-1-4.5-1-6.3,0L56.6,168c-1.1,0.6-1.5,1.5-1.2,2.3h-0.1v1.7c0,1.8,1,3.5,2.5,4.4
			L104,203c1.7,1,4.5,1,6.3,0l95.1-55.3C207.5,146.7,208.3,144.1,207.2,142z"/>
		<path id="XMLID_314_" class="st38" d="M206.9,142l-0.3-0.6c-0.2-0.4-0.4-0.6-0.8-0.9c-0.1-0.1-0.1-0.1-0.2-0.2l-0.1-0.1h-0.1
			c-0.1-0.1-0.1-0.1-0.2-0.2l-47.1-27.2c-1.7-1-4.5-1-6.2,0L57,168.1c-1.1,0.6-1.5,1.5-1.2,2.2h-0.1v1.7c0,1.8,1,3.5,2.5,4.4
			l45.9,26.4c1.7,1,4.5,1,6.2,0l94.7-55.1C207.1,146.6,207.9,144.1,206.9,142z"/>
		<path id="XMLID_313_" class="st39" d="M206.5,141.9l-0.3-0.5c-0.2-0.4-0.4-0.6-0.7-0.9c-0.1-0.1-0.1-0.1-0.2-0.2l-0.1-0.1h-0.1
			c-0.1-0.1-0.1-0.1-0.2-0.2L158,113c-1.7-1-4.5-1-6.2,0l-94.5,55c-1,0.6-1.4,1.4-1.2,2.2H56v1.7c0,1.8,1,3.4,2.5,4.3l45.6,26.2
			c1.7,1,4.5,1,6.2,0l94.3-54.9C206.7,146.5,207.5,144,206.5,141.9z"/>
		<path id="XMLID_312_" class="st40" d="M206.1,141.9l-0.3-0.5c-0.2-0.4-0.4-0.6-0.7-0.9c-0.1-0.1-0.1-0.1-0.2-0.2l-0.1-0.1h-0.1
			c-0.1-0.1-0.1-0.1-0.2-0.2L158,113.2c-1.7-1-4.5-1-6.2,0L57.7,168c-1,0.6-1.4,1.4-1.2,2.2h-0.1v1.7c0,1.8,0.9,3.4,2.5,4.3
			l45.3,26.1c1.7,1,4.5,1,6.2,0l94-54.7C206.3,146.5,207.1,144,206.1,141.9z"/>
		<path id="XMLID_311_" class="st41" d="M205.7,141.9l-0.3-0.5c-0.2-0.4-0.4-0.6-0.7-0.9c-0.1-0.1-0.1-0.1-0.2-0.1l-0.1-0.1h-0.1
			c-0.1-0.1-0.1-0.1-0.2-0.2l-46.2-26.7c-1.7-1-4.4-1-6.1,0L58,167.9c-1,0.6-1.4,1.4-1.2,2.2h-0.1v1.7c0,1.8,0.9,3.4,2.5,4.3
			l45,25.9c1.7,1,4.4,1,6.1,0l93.6-54.5C205.9,146.4,206.7,143.9,205.7,141.9z"/>
		<path id="XMLID_310_" class="st42" d="M205.3,141.8l-0.3-0.5c-0.2-0.3-0.4-0.6-0.7-0.9c-0.1-0.1-0.1-0.1-0.2-0.1l-0.1-0.1h-0.1
			c-0.1-0.1-0.1-0.1-0.2-0.2l-45.9-26.5c-1.7-1-4.4-1-6.1,0l-93.4,54.4c-1,0.6-1.4,1.4-1.2,2.2H57v1.7c0,1.8,0.9,3.4,2.5,4.2
			l44.7,25.7c1.7,1,4.4,1,6.1,0l93.2-54.3C205.6,146.3,206.3,143.9,205.3,141.8z"/>
		<path id="XMLID_309_" class="st43" d="M204.9,141.8l-0.3-0.5c-0.2-0.3-0.4-0.6-0.7-0.9c-0.1-0.1-0.1-0.1-0.2-0.1l-0.1-0.1h-0.1
			c-0.1-0.1-0.1-0.1-0.2-0.2l-45.6-26.3c-1.7-1-4.4-1-6,0l-93,54.2c-1,0.6-1.4,1.4-1.2,2.2h-0.1v1.7c0,1.7,0.9,3.3,2.4,4.2
			l44.4,25.6c1.7,1,4.4,1,6,0l92.8-54.1C205.2,146.2,205.9,143.8,204.9,141.8z"/>
		<path id="XMLID_308_" class="st44" d="M204.5,141.7l-0.3-0.5c-0.2-0.3-0.4-0.6-0.7-0.9c-0.1-0.1-0.1-0.1-0.2-0.1l-0.1-0.1h-0.1
			c-0.1-0.1-0.1-0.1-0.2-0.2l-45.3-26.2c-1.7-1-4.4-1-6,0l-92.6,54c-1,0.6-1.4,1.4-1.2,2.2h-0.1v1.6c0,1.7,0.9,3.3,2.4,4.2
			l44.2,25.4c1.7,1,4.4,1,6,0l92.5-53.9C204.8,146.2,205.5,143.7,204.5,141.7z"/>
		<path id="XMLID_307_" class="st45" d="M204.2,141.7l-0.3-0.5c-0.2-0.3-0.4-0.6-0.7-0.9c-0.1-0.1-0.1-0.1-0.2-0.1l-0.1-0.1h-0.1
			c-0.1-0.1-0.1-0.1-0.2-0.2l-45-26c-1.6-0.9-4.3-0.9-6,0l-92.2,53.8c-1,0.6-1.4,1.4-1.2,2.1h-0.1v1.6c0,1.7,0.9,3.3,2.4,4.2
			l43.9,25.3c1.6,0.9,4.3,0.9,6,0l92.1-53.7C204.4,146.1,205.1,143.7,204.2,141.7z"/>
		<path id="XMLID_306_" class="st46" d="M203.8,141.6l-0.3-0.5c-0.2-0.3-0.4-0.6-0.7-0.8c-0.1-0.1-0.1-0.1-0.2-0.1l-0.1-0.1h-0.1
			c-0.1-0.1-0.1-0.1-0.2-0.2L157.5,114c-1.6-0.9-4.3-0.9-5.9,0l-91.8,53.6c-1,0.6-1.4,1.4-1.2,2.1h-0.1v1.6c0,1.7,0.9,3.3,2.4,4.1
			l43.6,25.1c1.6,0.9,4.3,0.9,5.9,0l91.7-53.5C204,146,204.7,143.6,203.8,141.6z"/>
		<path id="XMLID_305_" class="st47" d="M203.4,141.6l-0.3-0.5c-0.2-0.3-0.4-0.6-0.7-0.8c-0.1,0-0.1-0.1-0.2-0.1l-0.1-0.1H202
			c-0.1-0.1-0.1-0.1-0.2-0.2l-44.5-25.7c-1.6-0.9-4.3-0.9-5.9,0L60,167.5c-1,0.6-1.4,1.4-1.1,2.1h-0.1v1.6c0,1.7,0.9,3.3,2.4,4.1
			l43.3,24.9c1.6,0.9,4.3,0.9,5.9,0l91.3-53.3C203.6,145.9,204.4,143.6,203.4,141.6z"/>
		<path id="XMLID_304_" class="st48" d="M203,141.5l-0.3-0.5c-0.2-0.3-0.4-0.6-0.7-0.8c-0.1,0-0.1-0.1-0.2-0.1l-0.1-0.1h-0.1
			c-0.1-0.1-0.1-0.1-0.2-0.2l-44.2-25.5c-1.6-0.9-4.2-0.9-5.8,0l-91.1,53.2c-1,0.6-1.4,1.4-1.1,2.1h-0.1v1.6c0,1.7,0.9,3.2,2.4,4.1
			l43,24.8c1.6,0.9,4.2,0.9,5.8,0l90.9-53.1C203.2,145.9,204,143.5,203,141.5z"/>
		<path id="XMLID_303_" class="st49" d="M202.6,141.5l-0.2-0.5c-0.2-0.3-0.4-0.6-0.7-0.8c-0.1,0-0.1-0.1-0.2-0.1l-0.1-0.1h-0.1
			c-0.1-0.1-0.1-0.1-0.2-0.2l-43.9-25.3c-1.6-0.9-4.2-0.9-5.8,0l-90.7,53c-1,0.6-1.4,1.4-1.1,2.1h-0.1v1.6c0,1.7,0.9,3.2,2.3,4.1
			l42.7,24.6c1.6,0.9,4.2,0.9,5.8,0l90.6-52.9C202.8,145.8,203.6,143.5,202.6,141.5z"/>
		<path id="XMLID_302_" class="st50" d="M202.2,141.5L202,141c-0.2-0.3-0.4-0.6-0.7-0.8c-0.1,0-0.1-0.1-0.2-0.1L201,140h-0.1
			c-0.1,0-0.1-0.1-0.2-0.2l-43.6-25.2c-1.6-0.9-4.2-0.9-5.8,0L61,167.4c-1,0.6-1.3,1.3-1.1,2.1h-0.1v1.6c0,1.7,0.9,3.2,2.3,4
			l42.4,24.4c1.6,0.9,4.2,0.9,5.8,0l90.2-52.7C202.5,145.7,203.2,143.4,202.2,141.5z"/>
		<path id="XMLID_301_" class="st6" d="M201.9,141.4l-0.2-0.5c-0.2-0.3-0.4-0.6-0.7-0.8c-0.1,0-0.1-0.1-0.2-0.1l-0.1-0.1h-0.1
			c-0.1,0-0.1-0.1-0.2-0.2l-43.3-25c-1.6-0.9-4.2-0.9-5.7,0l-90,52.6c-1,0.6-1.3,1.3-1.1,2.1h-0.1v1.6c0,1.7,0.9,3.2,2.3,4
			l42.2,24.3c1.6,0.9,4.2,0.9,5.7,0l89.8-52.5C202.1,145.7,202.8,143.3,201.9,141.4z"/>
	</g>
	<g>
		<g class="st51">
			<polygon id="XMLID_829_" class="st10" points="145.4,92.2 126.2,103.2 130.4,105.6 146.9,96.2 			"/>
			<polygon id="XMLID_300_" class="st11" points="145.4,92.2 126.6,102.9 130.7,105.3 146.9,96.2 			"/>
			<polygon id="XMLID_299_" class="st12" points="145.4,92.2 127,102.7 131.1,105.1 146.9,96.2 			"/>
			<polygon id="XMLID_298_" class="st13" points="145.4,92.2 127.3,102.5 131.5,104.9 146.9,96.2 			"/>
			<polygon id="XMLID_297_" class="st14" points="145.4,92.2 127.7,102.3 131.9,104.7 146.9,96.2 			"/>
			<polygon id="XMLID_296_" class="st15" points="145.4,92.2 128.1,102.1 132.3,104.5 146.9,96.2 			"/>
			<polygon id="XMLID_295_" class="st16" points="145.4,92.2 128.5,101.9 132.6,104.3 146.9,96.2 			"/>
			<polygon id="XMLID_294_" class="st17" points="145.4,92.2 128.9,101.7 133,104.1 146.9,96.2 			"/>
			<polygon id="XMLID_293_" class="st18" points="145.4,92.2 129.2,101.5 133.4,103.9 146.9,96.2 			"/>
			<polygon id="XMLID_292_" class="st19" points="145.4,92.2 129.6,101.2 133.8,103.6 146.9,96.2 			"/>
			<polygon id="XMLID_291_" class="st20" points="145.4,92.2 130,101 134.1,103.4 146.9,96.2 			"/>
			<polygon id="XMLID_290_" class="st21" points="145.4,92.2 130.4,100.8 134.5,103.2 146.9,96.2 			"/>
			<polygon id="XMLID_289_" class="st22" points="145.4,92.2 130.7,100.6 134.9,103 146.9,96.2 			"/>
			<polygon id="XMLID_288_" class="st23" points="145.4,92.2 131.1,100.4 135.3,102.8 146.9,96.2 			"/>
			<polygon id="XMLID_287_" class="st24" points="145.4,92.2 131.5,100.2 135.6,102.6 146.9,96.2 			"/>
			<polygon id="XMLID_286_" class="st25" points="145.4,92.2 131.9,100 136,102.4 146.9,96.2 			"/>
			<polygon id="XMLID_285_" class="st26" points="145.4,92.2 132.2,99.7 136.4,102.1 146.9,96.2 			"/>
			<polygon id="XMLID_284_" class="st27" points="145.4,92.2 132.6,99.5 136.8,101.9 146.9,96.2 			"/>
			<polygon id="XMLID_283_" class="st28" points="145.4,92.2 133,99.3 137.2,101.7 146.9,96.2 			"/>
			<polygon id="XMLID_282_" class="st29" points="145.4,92.2 133.4,99.1 137.5,101.5 146.9,96.2 			"/>
			<polygon id="XMLID_281_" class="st30" points="145.4,92.2 133.8,98.9 137.9,101.3 146.9,96.2 			"/>
			<polygon id="XMLID_280_" class="st31" points="145.4,92.2 134.1,98.7 138.3,101.1 146.9,96.2 			"/>
			<polygon id="XMLID_279_" class="st32" points="145.4,92.2 134.5,98.5 138.7,100.9 146.9,96.2 			"/>
			<polygon id="XMLID_278_" class="st33" points="145.4,92.2 134.9,98.2 139,100.6 146.9,96.2 			"/>
			<polygon id="XMLID_277_" class="st34" points="145.4,92.2 135.3,98 139.4,100.4 146.9,96.2 			"/>
			<polygon id="XMLID_276_" class="st35" points="145.4,92.2 135.6,97.8 139.8,100.2 146.9,96.2 			"/>
			<polygon id="XMLID_275_" class="st36" points="145.4,92.2 136,97.6 140.2,100 146.9,96.2 			"/>
			<polygon id="XMLID_274_" class="st37" points="145.4,92.2 136.4,97.4 140.6,99.8 146.9,96.2 			"/>
			<polygon id="XMLID_273_" class="st38" points="145.4,92.2 136.8,97.2 140.9,99.6 146.9,96.2 			"/>
			<polygon id="XMLID_272_" class="st39" points="145.4,92.2 137.1,97 141.3,99.4 146.9,96.2 			"/>
			<polygon id="XMLID_271_" class="st40" points="145.4,92.2 137.5,96.8 141.7,99.2 146.9,96.2 			"/>
			<polygon id="XMLID_270_" class="st41" points="145.4,92.2 137.9,96.5 142.1,98.9 146.9,96.2 			"/>
			<polygon id="XMLID_269_" class="st42" points="145.4,92.2 138.3,96.3 142.4,98.7 146.9,96.2 			"/>
			<polygon id="XMLID_268_" class="st43" points="145.4,92.2 138.7,96.1 142.8,98.5 146.9,96.2 			"/>
			<polygon id="XMLID_267_" class="st44" points="145.4,92.2 139,95.9 143.2,98.3 146.9,96.2 			"/>
			<polygon id="XMLID_266_" class="st45" points="145.4,92.2 139.4,95.7 143.6,98.1 146.9,96.2 			"/>
			<polygon id="XMLID_265_" class="st46" points="145.4,92.2 139.8,95.5 143.9,97.9 146.9,96.2 			"/>
			<polygon id="XMLID_264_" class="st47" points="145.4,92.2 140.2,95.3 144.3,97.7 146.9,96.2 			"/>
			<polygon id="XMLID_263_" class="st48" points="145.4,92.2 140.5,95 144.7,97.4 146.9,96.2 			"/>
			<polygon id="XMLID_262_" class="st49" points="145.4,92.2 140.9,94.8 145.1,97.2 146.9,96.2 			"/>
			<polygon id="XMLID_261_" class="st50" points="145.4,92.2 141.3,94.6 145.5,97 146.9,96.2 			"/>
			<polygon id="XMLID_828_" class="st6" points="145.4,92.2 141.7,94.4 145.8,96.8 146.9,96.2 			"/>
		</g>
		<g id="XMLID_810_">
			<path id="XMLID_827_" class="st6" d="M135,96.4l-0.7,1.7l-1.1,0.8c-0.3,0-0.5,0.2-0.5,0.5l0,0c0,0.3,0.3,0.6,0.6,0.6h1.7
				c0.4,0,0.9-0.2,1.2-0.5l2.3-2.2c0.5-0.4,0.4-1.2-0.1-1.6l-0.6-0.4l-0.6-0.3L135,96.4z"/>
			<path id="XMLID_826_" class="st6" d="M145.1,93.1l-0.3,2l-0.8,1.1c-0.2,0.1-0.4,0.3-0.3,0.6l0,0c0.1,0.3,0.4,0.5,0.8,0.4l1.7-0.5
				c0.4-0.1,0.8-0.4,1-0.8l1.6-2.7c0.3-0.6,0.1-1.3-0.6-1.5l-0.7-0.2l-0.7-0.2L145.1,93.1z"/>
			<g id="XMLID_824_">
				<path id="XMLID_825_" class="st52" d="M121.1,76.2c-0.4,0-0.7,0-0.9-0.4c-0.3-0.6,0-1.1,0.6-1.4l10.2-5.1c0.6-0.3,1.3,0,1.5,0.5
					c0.3,0.6,0,1.3-0.5,1.5L121.6,76C121.5,76.2,121.3,76.2,121.1,76.2z"/>
			</g>
			<g id="XMLID_822_">
				<path id="XMLID_823_" class="st53" d="M123.1,75.6c-0.5,0-0.9-0.3-1.2-0.7c-0.3-0.6,0-1.4,0.6-1.7l8.4-4c0.6-0.3,1.4,0,1.7,0.6
					s0,1.4-0.6,1.7l-8.4,4C123.5,75.6,123.3,75.6,123.1,75.6z"/>
			</g>
			<g id="XMLID_820_">
				
					<linearGradient id="XMLID_21_" gradientUnits="userSpaceOnUse" x1="130.463" y1="176.3303" x2="148.8343" y2="164.3769" gradientTransform="matrix(1 0 0 -1 0 256)">
					<stop  offset="0" style="stop-color:#3C5185"/>
					<stop  offset="4.299206e-002" style="stop-color:#3D5287"/>
					<stop  offset="0.618" style="stop-color:#46609B"/>
					<stop  offset="1" style="stop-color:#4A65A3"/>
				</linearGradient>
				<path id="XMLID_821_" class="st54" d="M145,93.1c-0.4,0-5.5-2-5.5-2c-0.5-0.2-0.8-0.6-1-1.1l-3-7.8c-0.4-1.1,0.1-2.4,1.2-2.9
					c1.1-0.5,2.5,0.1,2.9,1.2l2.8,7.3l3.9,3.1c1,0.7,0.7,0.6,0,1.6C145.8,93.2,145.7,93.1,145,93.1z"/>
			</g>
			<g id="XMLID_818_">
				
					<linearGradient id="XMLID_260_" gradientUnits="userSpaceOnUse" x1="130.0067" y1="161.0489" x2="143.263" y2="180.2919" gradientTransform="matrix(1 0 0 -1 0 256)">
					<stop  offset="0" style="stop-color:#3C5185"/>
					<stop  offset="1" style="stop-color:#4A65A3"/>
				</linearGradient>
				<path id="XMLID_819_" class="st55" d="M135.9,96.5c-0.6,0-1.2-0.3-1.7-0.8l-5.7-6.3c-0.7-0.5-0.9-1.5-0.4-2.3l4.1-6.9
					c0.7-1.1,2.2-1.4,3.2-0.6c0.9,0.7,3.7,0.5,3.2,1.5l-5.9,6.8l4.6,7c0.3,0.3,0.3,0.8-0.1,1.1C136.8,96.4,136.4,96.5,135.9,96.5z"
					/>
			</g>
			<g id="XMLID_816_">
				<path id="XMLID_817_" class="st52" d="M124.7,81.8c-0.4,0-0.7-0.2-0.9-0.6c-0.3-0.6,0-1,0.6-1.3l6.1-3l3.3-4.5
					c0.4-0.5,1.1-0.6,1.6-0.2s0.6,1.1,0.2,1.6l-3.7,5l-6.9,2.9C125,81.8,124.8,81.8,124.7,81.8z"/>
			</g>
			<path class="st53" d="M140,80.4c-2.6,1.5-6.5,3.1-7.7,0.3l-0.5-1.7l-4,1.8c-0.2,0.1-0.3,0.1-0.5,0.1c-0.5,0-0.9-0.5-1.1-0.9
				c-0.3-0.6,0-1.3,0.6-1.6l4-1.8l0.2-0.3l-1.7-6.2c0-2,2.1-3.2,3.8-2.2l2.4,1.2c2.1,1.2,2.7,3.2,3.4,5.8L140,80.4z"/>
			
				<ellipse id="XMLID_815_" transform="matrix(-0.7037 -0.7105 0.7105 -0.7037 151.233 212.9185)" class="st52" cx="120" cy="74.9" rx="1.7" ry="1"/>
			
				<ellipse id="XMLID_814_" transform="matrix(-0.7037 -0.7105 0.7105 -0.7037 153.2261 224.8736)" class="st52" cx="123.5" cy="80.5" rx="1.7" ry="1"/>
			<path id="XMLID_813_" class="st52" d="M132.7,70l0.7-0.1c0.3,0,0.5-0.3,0.4-0.6l-0.3-2c0-0.2-0.2-0.3-0.3-0.3l-1.1,0.1
				c-0.2,0-0.3,0.2-0.3,0.3l0.3,2C132.2,69.8,132.4,70,132.7,70z"/>
			<path id="XMLID_812_" class="st52" d="M133,68.9l1.1-0.4c0.5-0.2,0.7-0.7,0.5-1.1l-1.4-4.1l-4.5,1.6l0.8,2.4
				C130,68.6,131.6,69.4,133,68.9z"/>
			<g id="XMLID_811_">
				<path id="XMLID_23_" class="st6" d="M127.9,64.7c0-0.4,0.3-0.7,0.7-0.8c0.3-0.1,0.7-0.2,1-0.6c0.4-0.5,1-0.8,1.6-1
					s1.3-0.2,1.8,0.3c0.2-0.4,0.8-0.4,1.1-0.2c0.4,0.2,0.6,0.6,0.8,1c0.4,0.8,0.6,1.6,0.6,2.4c0,0.2-0.1,0.4-0.1,0.6
					c-0.1,0.5-0.1,1.1-0.2,1.6c0,0.1,0,0.1-0.1,0.2s-0.2,0.1-0.3,0c-0.1,0-0.2-0.1-0.2-0.2c-0.3-0.4-0.1-0.7-0.1-1.1
					c0-0.2-0.2-0.5-0.4-0.6c-0.3-0.1-0.6,0.1-0.9,0.2c-0.7,0.2-2.4-0.3-2.1-1.3C129.9,65.6,128.5,65.9,127.9,64.7L127.9,64.7z"/>
			</g>
			<path id="XMLID_259_" class="st56" d="M135.4,73.3c0-0.6,0.2-1,0-1.1c-0.4-0.2-1.1,3.1-2.1,5.1c-0.5,1-1.6,1.6-1.6,1.6l0.3,1l0,0
				c0.7-0.5,1.3-1.1,1.7-1.8L135.4,73.3z"/>
		</g>
	</g>
	<g>
		<g class="st9">
			<polygon id="XMLID_809_" class="st10" points="62.8,133.3 37.5,147.9 50.1,155.2 75.4,140.6 			"/>
			<polygon id="XMLID_258_" class="st11" points="62.8,133.3 38,147.6 50.6,154.9 75.4,140.6 			"/>
			<polygon id="XMLID_257_" class="st12" points="62.8,133.3 38.5,147.3 51.2,154.6 75.4,140.6 			"/>
			<polygon id="XMLID_256_" class="st13" points="62.8,133.3 39.1,147 51.7,154.3 75.4,140.6 			"/>
			<polygon id="XMLID_255_" class="st14" points="62.8,133.3 39.6,146.6 52.3,154 75.4,140.6 			"/>
			<polygon id="XMLID_254_" class="st15" points="62.8,133.3 40.1,146.3 52.8,153.6 75.4,140.6 			"/>
			<polygon id="XMLID_253_" class="st16" points="62.8,133.3 40.7,146 53.3,153.3 75.4,140.6 			"/>
			<polygon id="XMLID_252_" class="st17" points="62.8,133.3 41.2,145.7 53.9,153 75.4,140.6 			"/>
			<polygon id="XMLID_251_" class="st18" points="62.8,133.3 41.7,145.4 54.4,152.7 75.4,140.6 			"/>
			<polygon id="XMLID_250_" class="st19" points="62.8,133.3 42.3,145.1 54.9,152.4 75.4,140.6 			"/>
			<polygon id="XMLID_249_" class="st20" points="62.8,133.3 42.8,144.8 55.5,152.1 75.4,140.6 			"/>
			<polygon id="XMLID_248_" class="st21" points="62.8,133.3 43.3,144.5 56,151.8 75.4,140.6 			"/>
			<polygon id="XMLID_247_" class="st22" points="62.8,133.3 43.9,144.2 56.5,151.5 75.4,140.6 			"/>
			<polygon id="XMLID_246_" class="st23" points="62.8,133.3 44.4,143.9 57.1,151.2 75.4,140.6 			"/>
			<polygon id="XMLID_245_" class="st24" points="62.8,133.3 45,143.6 57.6,150.9 75.4,140.6 			"/>
			<polygon id="XMLID_244_" class="st25" points="62.8,133.3 45.5,143.3 58.1,150.6 75.4,140.6 			"/>
			<polygon id="XMLID_243_" class="st26" points="62.8,133.3 46,142.9 58.7,150.3 75.4,140.6 			"/>
			<polygon id="XMLID_242_" class="st27" points="62.8,133.3 46.6,142.6 59.2,149.9 75.4,140.6 			"/>
			<polygon id="XMLID_241_" class="st28" points="62.8,133.3 47.1,142.3 59.8,149.6 75.4,140.6 			"/>
			<polygon id="XMLID_240_" class="st29" points="62.8,133.3 47.6,142 60.3,149.3 75.4,140.6 			"/>
			<polygon id="XMLID_239_" class="st30" points="62.8,133.3 48.2,141.7 60.8,149 75.4,140.6 			"/>
			<polygon id="XMLID_238_" class="st31" points="62.8,133.3 48.7,141.4 61.4,148.7 75.4,140.6 			"/>
			<polygon id="XMLID_237_" class="st32" points="62.8,133.3 49.2,141.1 61.9,148.4 75.4,140.6 			"/>
			<polygon id="XMLID_236_" class="st33" points="62.8,133.3 49.8,140.8 62.4,148.1 75.4,140.6 			"/>
			<polygon id="XMLID_235_" class="st34" points="62.8,133.3 50.3,140.5 63,147.8 75.4,140.6 			"/>
			<polygon id="XMLID_234_" class="st35" points="62.8,133.3 50.9,140.2 63.5,147.5 75.4,140.6 			"/>
			<polygon id="XMLID_233_" class="st36" points="62.8,133.3 51.4,139.9 64,147.2 75.4,140.6 			"/>
			<polygon id="XMLID_232_" class="st37" points="62.8,133.3 51.9,139.5 64.6,146.9 75.4,140.6 			"/>
			<polygon id="XMLID_231_" class="st38" points="62.8,133.3 52.5,139.2 65.1,146.5 75.4,140.6 			"/>
			<polygon id="XMLID_230_" class="st39" points="62.8,133.3 53,138.9 65.7,146.2 75.4,140.6 			"/>
			<polygon id="XMLID_229_" class="st40" points="62.8,133.3 53.5,138.6 66.2,145.9 75.4,140.6 			"/>
			<polygon id="XMLID_228_" class="st41" points="62.8,133.3 54.1,138.3 66.7,145.6 75.4,140.6 			"/>
			<polygon id="XMLID_227_" class="st42" points="62.8,133.3 54.6,138 67.3,145.3 75.4,140.6 			"/>
			<polygon id="XMLID_226_" class="st43" points="62.8,133.3 55.1,137.7 67.8,145 75.4,140.6 			"/>
			<polygon id="XMLID_225_" class="st44" points="62.8,133.3 55.7,137.4 68.3,144.7 75.4,140.6 			"/>
			<polygon id="XMLID_224_" class="st45" points="62.8,133.3 56.2,137.1 68.9,144.4 75.4,140.6 			"/>
			<polygon id="XMLID_223_" class="st46" points="62.8,133.3 56.7,136.8 69.4,144.1 75.4,140.6 			"/>
			<polygon id="XMLID_222_" class="st47" points="62.8,133.3 57.3,136.5 69.9,143.8 75.4,140.6 			"/>
			<polygon id="XMLID_221_" class="st48" points="62.8,133.3 57.8,136.2 70.5,143.5 75.4,140.6 			"/>
			<polygon id="XMLID_220_" class="st49" points="62.8,133.3 58.4,135.8 71,143.2 75.4,140.6 			"/>
			<polygon id="XMLID_219_" class="st50" points="62.8,133.3 58.9,135.5 71.5,142.8 75.4,140.6 			"/>
			<polygon id="XMLID_808_" class="st6" points="62.8,133.3 59.4,135.2 72.1,142.5 75.4,140.6 			"/>
		</g>
		<g class="st9">
			<polygon id="XMLID_807_" class="st10" points="87.1,119.1 61.8,133.7 74.5,141 99.8,126.4 			"/>
			<polygon id="XMLID_218_" class="st11" points="87.1,119.1 62.4,133.4 75,140.7 99.8,126.4 			"/>
			<polygon id="XMLID_217_" class="st12" points="87.1,119.1 62.9,133.1 75.6,140.4 99.8,126.4 			"/>
			<polygon id="XMLID_216_" class="st13" points="87.1,119.1 63.4,132.7 76.1,140.1 99.8,126.4 			"/>
			<polygon id="XMLID_215_" class="st14" points="87.1,119.1 64,132.4 76.6,139.7 99.8,126.4 			"/>
			<polygon id="XMLID_214_" class="st15" points="87.1,119.1 64.5,132.1 77.2,139.4 99.8,126.4 			"/>
			<polygon id="XMLID_213_" class="st16" points="87.1,119.1 65,131.8 77.7,139.1 99.8,126.4 			"/>
			<polygon id="XMLID_212_" class="st17" points="87.1,119.1 65.6,131.5 78.2,138.8 99.8,126.4 			"/>
			<polygon id="XMLID_211_" class="st18" points="87.1,119.1 66.1,131.2 78.8,138.5 99.8,126.4 			"/>
			<polygon id="XMLID_210_" class="st19" points="87.1,119.1 66.7,130.9 79.3,138.2 99.8,126.4 			"/>
			<polygon id="XMLID_209_" class="st20" points="87.1,119.1 67.2,130.6 79.8,137.9 99.8,126.4 			"/>
			<polygon id="XMLID_208_" class="st21" points="87.1,119.1 67.7,130.3 80.4,137.6 99.8,126.4 			"/>
			<polygon id="XMLID_207_" class="st22" points="87.1,119.1 68.3,130 80.9,137.3 99.8,126.4 			"/>
			<polygon id="XMLID_206_" class="st23" points="87.1,119.1 68.8,129.7 81.5,137 99.8,126.4 			"/>
			<polygon id="XMLID_205_" class="st24" points="87.1,119.1 69.3,129.4 82,136.7 99.8,126.4 			"/>
			<polygon id="XMLID_204_" class="st25" points="87.1,119.1 69.9,129 82.5,136.3 99.8,126.4 			"/>
			<polygon id="XMLID_203_" class="st26" points="87.1,119.1 70.4,128.7 83.1,136 99.8,126.4 			"/>
			<polygon id="XMLID_202_" class="st27" points="87.1,119.1 70.9,128.4 83.6,135.7 99.8,126.4 			"/>
			<polygon id="XMLID_201_" class="st28" points="87.1,119.1 71.5,128.1 84.1,135.4 99.8,126.4 			"/>
			<polygon id="XMLID_200_" class="st29" points="87.1,119.1 72,127.8 84.7,135.1 99.8,126.4 			"/>
			<polygon id="XMLID_199_" class="st30" points="87.1,119.1 72.5,127.5 85.2,134.8 99.8,126.4 			"/>
			<polygon id="XMLID_198_" class="st31" points="87.1,119.1 73.1,127.2 85.7,134.5 99.8,126.4 			"/>
			<polygon id="XMLID_197_" class="st32" points="87.1,119.1 73.6,126.9 86.3,134.2 99.8,126.4 			"/>
			<polygon id="XMLID_196_" class="st33" points="87.1,119.1 74.2,126.6 86.8,133.9 99.8,126.4 			"/>
			<polygon id="XMLID_195_" class="st34" points="87.1,119.1 74.7,126.3 87.3,133.6 99.8,126.4 			"/>
			<polygon id="XMLID_194_" class="st35" points="87.1,119.1 75.2,126 87.9,133.3 99.8,126.4 			"/>
			<polygon id="XMLID_193_" class="st36" points="87.1,119.1 75.8,125.6 88.4,133 99.8,126.4 			"/>
			<polygon id="XMLID_192_" class="st37" points="87.1,119.1 76.3,125.3 89,132.6 99.8,126.4 			"/>
			<polygon id="XMLID_191_" class="st38" points="87.1,119.1 76.8,125 89.5,132.3 99.8,126.4 			"/>
			<polygon id="XMLID_190_" class="st39" points="87.1,119.1 77.4,124.7 90,132 99.8,126.4 			"/>
			<polygon id="XMLID_189_" class="st40" points="87.1,119.1 77.9,124.4 90.6,131.7 99.8,126.4 			"/>
			<polygon id="XMLID_188_" class="st41" points="87.1,119.1 78.4,124.1 91.1,131.4 99.8,126.4 			"/>
			<polygon id="XMLID_187_" class="st42" points="87.1,119.1 79,123.8 91.6,131.1 99.8,126.4 			"/>
			<polygon id="XMLID_186_" class="st43" points="87.1,119.1 79.5,123.5 92.2,130.8 99.8,126.4 			"/>
			<polygon id="XMLID_185_" class="st44" points="87.1,119.1 80.1,123.2 92.7,130.5 99.8,126.4 			"/>
			<polygon id="XMLID_184_" class="st45" points="87.1,119.1 80.6,122.9 93.2,130.2 99.8,126.4 			"/>
			<polygon id="XMLID_183_" class="st46" points="87.1,119.1 81.1,122.6 93.8,129.9 99.8,126.4 			"/>
			<polygon id="XMLID_182_" class="st47" points="87.1,119.1 81.7,122.3 94.3,129.6 99.8,126.4 			"/>
			<polygon id="XMLID_181_" class="st48" points="87.1,119.1 82.2,121.9 94.9,129.3 99.8,126.4 			"/>
			<polygon id="XMLID_180_" class="st49" points="87.1,119.1 82.7,121.6 95.4,128.9 99.8,126.4 			"/>
			<polygon id="XMLID_179_" class="st50" points="87.1,119.1 83.3,121.3 95.9,128.6 99.8,126.4 			"/>
			<polygon id="XMLID_806_" class="st6" points="87.1,119.1 83.8,121 96.5,128.3 99.8,126.4 			"/>
		</g>
		<g class="st9">
			<polygon id="XMLID_805_" class="st10" points="109.3,106.5 84,121.1 96.7,128.4 122,113.8 			"/>
			<polygon id="XMLID_178_" class="st11" points="109.3,106.5 84.6,120.8 97.2,128.1 122,113.8 			"/>
			<polygon id="XMLID_177_" class="st12" points="109.3,106.5 85.1,120.5 97.8,127.8 122,113.8 			"/>
			<polygon id="XMLID_176_" class="st13" points="109.3,106.5 85.6,120.2 98.3,127.5 122,113.8 			"/>
			<polygon id="XMLID_175_" class="st14" points="109.3,106.5 86.2,119.9 98.8,127.2 122,113.8 			"/>
			<polygon id="XMLID_174_" class="st15" points="109.3,106.5 86.7,119.5 99.4,126.8 122,113.8 			"/>
			<polygon id="XMLID_173_" class="st16" points="109.3,106.5 87.2,119.2 99.9,126.5 122,113.8 			"/>
			<polygon id="XMLID_172_" class="st17" points="109.3,106.5 87.8,118.9 100.4,126.2 122,113.8 			"/>
			<polygon id="XMLID_171_" class="st18" points="109.3,106.5 88.3,118.6 101,125.9 122,113.8 			"/>
			<polygon id="XMLID_170_" class="st19" points="109.3,106.5 88.8,118.3 101.5,125.6 122,113.8 			"/>
			<polygon id="XMLID_169_" class="st20" points="109.3,106.5 89.4,118 102,125.3 122,113.8 			"/>
			<polygon id="XMLID_168_" class="st21" points="109.3,106.5 89.9,117.7 102.6,125 122,113.8 			"/>
			<polygon id="XMLID_167_" class="st22" points="109.3,106.5 90.5,117.4 103.1,124.7 122,113.8 			"/>
			<polygon id="XMLID_166_" class="st23" points="109.3,106.5 91,117.1 103.6,124.4 122,113.8 			"/>
			<polygon id="XMLID_165_" class="st24" points="109.3,106.5 91.5,116.8 104.2,124.1 122,113.8 			"/>
			<polygon id="XMLID_164_" class="st25" points="109.3,106.5 92.1,116.5 104.7,123.8 122,113.8 			"/>
			<polygon id="XMLID_163_" class="st26" points="109.3,106.5 92.6,116.1 105.3,123.5 122,113.8 			"/>
			<polygon id="XMLID_162_" class="st27" points="109.3,106.5 93.1,115.8 105.8,123.1 122,113.8 			"/>
			<polygon id="XMLID_161_" class="st28" points="109.3,106.5 93.7,115.5 106.3,122.8 122,113.8 			"/>
			<polygon id="XMLID_160_" class="st29" points="109.3,106.5 94.2,115.2 106.9,122.5 122,113.8 			"/>
			<polygon id="XMLID_159_" class="st30" points="109.3,106.5 94.7,114.9 107.4,122.2 122,113.8 			"/>
			<polygon id="XMLID_158_" class="st31" points="109.3,106.5 95.3,114.6 107.9,121.9 122,113.8 			"/>
			<polygon id="XMLID_157_" class="st32" points="109.3,106.5 95.8,114.3 108.5,121.6 122,113.8 			"/>
			<polygon id="XMLID_156_" class="st33" points="109.3,106.5 96.4,114 109,121.3 122,113.8 			"/>
			<polygon id="XMLID_155_" class="st34" points="109.3,106.5 96.9,113.7 109.5,121 122,113.8 			"/>
			<polygon id="XMLID_154_" class="st35" points="109.3,106.5 97.4,113.4 110.1,120.7 122,113.8 			"/>
			<polygon id="XMLID_153_" class="st36" points="109.3,106.5 98,113.1 110.6,120.4 122,113.8 			"/>
			<polygon id="XMLID_152_" class="st37" points="109.3,106.5 98.5,112.8 111.2,120.1 122,113.8 			"/>
			<polygon id="XMLID_151_" class="st38" points="109.3,106.5 99,112.4 111.7,119.8 122,113.8 			"/>
			<polygon id="XMLID_150_" class="st39" points="109.3,106.5 99.6,112.1 112.2,119.4 122,113.8 			"/>
			<polygon id="XMLID_149_" class="st40" points="109.3,106.5 100.1,111.8 112.8,119.1 122,113.8 			"/>
			<polygon id="XMLID_148_" class="st41" points="109.3,106.5 100.6,111.5 113.3,118.8 122,113.8 			"/>
			<polygon id="XMLID_147_" class="st42" points="109.3,106.5 101.2,111.2 113.8,118.5 122,113.8 			"/>
			<polygon id="XMLID_146_" class="st43" points="109.3,106.5 101.7,110.9 114.4,118.2 122,113.8 			"/>
			<polygon id="XMLID_145_" class="st44" points="109.3,106.5 102.2,110.6 114.9,117.9 122,113.8 			"/>
			<polygon id="XMLID_144_" class="st45" points="109.3,106.5 102.8,110.3 115.4,117.6 122,113.8 			"/>
			<polygon id="XMLID_143_" class="st46" points="109.3,106.5 103.3,110 116,117.3 122,113.8 			"/>
			<polygon id="XMLID_142_" class="st47" points="109.3,106.5 103.9,109.7 116.5,117 122,113.8 			"/>
			<polygon id="XMLID_141_" class="st48" points="109.3,106.5 104.4,109.4 117,116.7 122,113.8 			"/>
			<polygon id="XMLID_140_" class="st49" points="109.3,106.5 104.9,109 117.6,116.4 122,113.8 			"/>
			<polygon id="XMLID_139_" class="st50" points="109.3,106.5 105.5,108.7 118.1,116 122,113.8 			"/>
			<polygon id="XMLID_804_" class="st6" points="109.3,106.5 106,108.4 118.7,115.7 122,113.8 			"/>
		</g>
		<g id="XMLID_331_">
			<g id="XMLID_800_">
				
					<linearGradient id="XMLID_346_" gradientUnits="userSpaceOnUse" x1="101.6592" y1="179.85" x2="127.4217" y2="179.85" gradientTransform="matrix(1 0 0 -1 0 256)">
					<stop  offset="0.1499" style="stop-color:#FF9800"/>
					<stop  offset="1" style="stop-color:#FFC107"/>
				</linearGradient>
				<polygon id="XMLID_803_" class="st57" points="101.7,76.1 114.7,68.6 127.4,76.1 114.7,83.7 				"/>
				
					<linearGradient id="XMLID_348_" gradientUnits="userSpaceOnUse" x1="101.6592" y1="158.9" x2="114.7008" y2="158.9" gradientTransform="matrix(1 0 0 -1 0 256)">
					<stop  offset="0.1499" style="stop-color:#FF9800"/>
					<stop  offset="1" style="stop-color:#FFC107"/>
				</linearGradient>
				<polygon id="XMLID_802_" class="st58" points="101.7,76.1 101.7,111 114.7,118.1 114.7,83.7 				"/>
				
					<linearGradient id="XMLID_350_" gradientUnits="userSpaceOnUse" x1="114.7" y1="158.9" x2="127.4209" y2="158.9" gradientTransform="matrix(1 0 0 -1 0 256)">
					<stop  offset="0.1499" style="stop-color:#FF9800"/>
					<stop  offset="1" style="stop-color:#FFC107"/>
				</linearGradient>
				<polygon id="XMLID_801_" class="st59" points="127.4,76.1 127.4,110.5 114.7,118.1 114.7,83.7 				"/>
			</g>
			<g id="XMLID_796_">
				<polygon id="XMLID_799_" class="st60" points="80.8,94.8 93.9,87.3 106.6,94.8 93.9,102.4 				"/>
				<polygon id="XMLID_798_" class="st61" points="80.8,94.8 80.8,122.9 93.9,130 93.9,102.4 				"/>
				<polygon id="XMLID_797_" class="st62" points="106.6,94.8 106.6,122.5 93.9,130 93.9,102.4 				"/>
			</g>
			<g id="XMLID_332_">
				<polygon id="XMLID_795_" class="st63" points="59.2,70.7 72.3,63.2 85,70.7 72.3,78.2 				"/>
				<polygon id="XMLID_794_" class="st6" points="59.2,70.7 59.2,135.3 72.3,142.4 72.3,78.2 				"/>
				<polygon id="XMLID_793_" class="st63" points="85,70.7 85,134.9 72.3,142.4 72.3,78.2 				"/>
			</g>
		</g>
	</g>
	<g>
		<g>
			
				<linearGradient id="XMLID_355_" gradientUnits="userSpaceOnUse" x1="151.2869" y1="68.4848" x2="-15.4547" y2="142.0155" gradientTransform="matrix(-1 0 0 -1 211.6783 256)">
				<stop  offset="3.802280e-002" style="stop-color:#A5CBEF"/>
				<stop  offset="0.2227" style="stop-color:#B9D7F2"/>
				<stop  offset="0.5251" style="stop-color:#D4E6F7"/>
				<stop  offset="0.794" style="stop-color:#E4F0FA"/>
				<stop  offset="1" style="stop-color:#EAF3FB"/>
			</linearGradient>
			<path id="XMLID_1133_" class="st64" d="M50.2,169.3v-2L154.6,106c2-1.1,4.3-1.8,6.2-0.7l54.8,31.5c0.5,0.3,0.9,0.8,1.2,1.3
				l0.3,0.6c1.2,2.4,0.3,5.3-2,6.6l-102.5,59.2c-2,1.1-5.2,1.1-7.1,0L53,174.2C51.3,173.2,50.2,171.3,50.2,169.3z"/>
			<path id="XMLID_1132_" class="st65" d="M51.6,168.8c-2-1.1-2-3,0-4.1l102.7-59.3c2-1.1,5.2-1.1,7.1,0l53.9,31.1c2,1.1,2,3,0,4.1
				l-102.7,59.3c-2,1.1-5.2,1.1-7.1,0L51.6,168.8z"/>
			<path id="XMLID_1131_" class="st56" d="M53.9,168.7c-1.9-1.1-1.9-2.9,0-4l100.4-58c1.9-1.1,5-1.1,6.9,0l9.4,5.6
				c0.6,0.3,0.6,1.2,0.1,1.5l-1,0.7c-0.7,0.4-0.7,1.4,0,1.8l25.6,14.7c0.7,0.4,1.5,0.4,2.2,0l2.2-1.2c0.5-0.3,1.1-0.3,1.6,0
				l11.7,6.7c1.9,1.1,1.9,2.9,0,4l-100.4,58c-1.9,1.1-5,1.1-6.9,0L53.9,168.7z"/>
			<g id="XMLID_1129_">
				<path id="XMLID_1130_" class="st56" d="M189.5,125.3c-0.1,0-0.1,0-0.2,0l-11.3-6.5c-0.2-0.1-0.2-0.3-0.1-0.4
					c0.1-0.2,0.3-0.2,0.4-0.1l11.3,6.5c0.2,0.1,0.2,0.3,0.1,0.4C189.7,125.3,189.6,125.3,189.5,125.3z"/>
			</g>
		</g>
	</g>
	<g>
		<g class="st66">
			<path id="XMLID_792_" class="st67" d="M153.2,165.1c17.2-14.2,15.9-26.1-2.9-26.4c-18.8-0.4-48.1,10.9-65.2,25s-15.8,26,2.9,26.4
				C106.7,190.6,136,179.3,153.2,165.1z"/>
			<path id="XMLID_138_" class="st68" d="M153.4,164.7c16.9-13.9,15.5-25.6-2.9-26c-18.5-0.4-47.3,10.7-64,24.6
				c-16.8,13.9-15.4,25.6,2.9,26C107.8,189.7,136.6,178.7,153.4,164.7z"/>
			<path id="XMLID_137_" class="st69" d="M153.6,164.4c16.5-13.7,15.2-25.2-2.9-25.5s-46.4,10.5-62.8,24.2
				c-16.4,13.6-15.1,25.1,2.9,25.5C108.8,188.9,137.1,178,153.6,164.4z"/>
			<path id="XMLID_136_" class="st70" d="M153.8,164c16.2-13.4,14.9-24.7-2.9-25s-45.5,10.3-61.7,23.7c-16.1,13.4-14.8,24.7,2.9,25
				C109.9,188.1,137.6,177.4,153.8,164z"/>
			<path id="XMLID_135_" class="st71" d="M154.1,163.6c15.9-13.2,14.6-24.3-2.9-24.6s-44.7,10.1-60.5,23.3
				c-15.8,13.1-14.5,24.2,2.9,24.6C111,187.3,138.2,176.8,154.1,163.6z"/>
			<path id="XMLID_134_" class="st72" d="M154.3,163.2c15.6-12.9,14.3-23.8-2.8-24.1s-43.8,9.9-59.3,22.8S78,185.7,95,186.1
				C112,186.5,138.7,176.2,154.3,163.2z"/>
			<path id="XMLID_133_" class="st73" d="M154.5,162.9c15.2-12.7,14-23.3-2.8-23.7c-16.8-0.3-42.9,9.7-58.1,22.4
				s-13.9,23.3,2.8,23.7C113.1,185.6,139.2,175.5,154.5,162.9z"/>
			<path id="XMLID_132_" class="st74" d="M154.7,162.5c14.9-12.4,13.6-22.9-2.8-23.2c-16.5-0.3-42.1,9.6-56.9,22
				s-13.6,22.9,2.8,23.2S139.8,174.9,154.7,162.5z"/>
			<path id="XMLID_131_" class="st75" d="M154.9,162.1c14.6-12.2,13.3-22.4-2.8-22.8c-16.1-0.3-41.2,9.4-55.7,21.5
				c-14.5,12.2-13.2,22.4,2.8,22.8C115.2,184,140.3,174.3,154.9,162.1z"/>
			<path id="XMLID_130_" class="st76" d="M155.1,161.7c14.3-11.9,13-22-2.8-22.3s-40.3,9.2-54.5,21.1c-14.2,11.9-12.9,22,2.8,22.3
				C116.3,183.2,140.8,173.7,155.1,161.7z"/>
			<path id="XMLID_129_" class="st77" d="M155.3,161.3c13.9-11.7,12.7-21.5-2.8-21.9c-15.5-0.3-39.5,9-53.3,20.6
				c-13.9,11.7-12.6,21.5,2.8,21.9S141.4,173.1,155.3,161.3z"/>
			<path id="XMLID_128_" class="st78" d="M155.5,161c13.6-11.5,12.4-21.1-2.8-21.4c-15.1-0.3-38.6,8.8-52.2,20.2
				c-13.5,11.4-12.3,21.1,2.8,21.4C118.4,181.5,141.9,172.4,155.5,161z"/>
			<path id="XMLID_127_" class="st79" d="M155.8,160.6c13.3-11.2,12.1-20.6-2.7-20.9c-14.8-0.3-37.7,8.6-51,19.8
				c-13.2,11.2-12,20.6,2.7,20.9S142.4,171.8,155.8,160.6z"/>
			<path id="XMLID_126_" class="st80" d="M156,160.2c13-11,11.8-20.2-2.7-20.5s-36.9,8.4-49.8,19.3c-12.9,10.9-11.7,20.2,2.7,20.5
				C120.6,179.9,143,171.2,156,160.2z"/>
			<path id="XMLID_125_" class="st81" d="M156.2,159.8c12.7-10.7,11.4-19.7-2.7-20c-14.1-0.3-36,8.2-48.6,18.9s-11.4,19.7,2.7,20
				S143.5,170.6,156.2,159.8z"/>
			<path id="XMLID_124_" class="st82" d="M156.4,159.5c12.3-10.5,11.1-19.3-2.7-19.6s-35.1,8-47.4,18.4s-11,19.2,2.7,19.6
				C122.7,178.2,144.1,169.9,156.4,159.5z"/>
			<path id="XMLID_123_" class="st83" d="M156.6,159.1c12-10.2,10.8-18.8-2.7-19.1s-34.3,7.8-46.2,18s-10.7,18.8,2.7,19.1
				C123.8,177.4,144.6,169.3,156.6,159.1z"/>
			<path id="XMLID_122_" class="st84" d="M156.8,158.7c11.7-10,10.5-18.4-2.7-18.7c-13.1-0.3-33.4,7.6-45,17.5s-10.4,18.3,2.7,18.7
				C124.9,176.6,145.1,168.7,156.8,158.7z"/>
			<path id="XMLID_121_" class="st85" d="M157,158.3c11.4-9.7,10.2-17.9-2.6-18.2s-32.5,7.4-43.8,17.1c-11.3,9.7-10.1,17.9,2.6,18.2
				C125.9,175.8,145.7,168.1,157,158.3z"/>
			<path id="XMLID_120_" class="st86" d="M157.2,158c11-9.5,9.9-17.5-2.6-17.8s-31.7,7.2-42.7,16.7s-9.8,17.4,2.6,17.8
				C127,174.9,146.2,167.4,157.2,158z"/>
			<path id="XMLID_119_" class="st87" d="M157.4,157.6c10.7-9.2,9.5-17-2.6-17.3c-12.2-0.3-30.8,7-41.5,16.2s-9.5,17,2.6,17.3
				C128.1,174.1,146.7,166.8,157.4,157.6z"/>
			<path id="XMLID_118_" class="st88" d="M157.7,157.2c10.4-9,9.2-16.6-2.6-16.8c-11.8-0.3-29.9,6.8-40.3,15.8
				c-10.3,9-9.2,16.5,2.6,16.8C129.1,173.3,147.3,166.2,157.7,157.2z"/>
			<path id="XMLID_117_" class="st89" d="M157.9,156.8c10.1-8.7,8.9-16.1-2.6-16.4c-11.5-0.3-29.1,6.6-39.1,15.3s-8.8,16.1,2.6,16.4
				C130.2,172.5,147.8,165.6,157.9,156.8z"/>
			<path id="XMLID_116_" class="st90" d="M158.1,156.4c9.7-8.5,8.6-15.7-2.6-15.9c-11.2-0.3-28.2,6.4-37.9,14.9s-8.5,15.6,2.6,15.9
				C131.3,171.6,148.3,164.9,158.1,156.4z"/>
			<path id="XMLID_115_" class="st91" d="M158.3,156.1c9.4-8.2,8.3-15.2-2.6-15.5c-10.8-0.3-27.3,6.2-36.7,14.5
				c-9.4,8.2-8.2,15.2,2.6,15.5C132.3,170.8,148.9,164.3,158.3,156.1z"/>
			<path id="XMLID_114_" class="st92" d="M158.5,155.7c9.1-8,8-14.8-2.5-15c-10.5-0.3-26.5,6-35.5,14s-7.9,14.7,2.5,15
				S149.4,163.7,158.5,155.7z"/>
			<path id="XMLID_113_" class="st93" d="M158.7,155.3c8.8-7.7,7.6-14.3-2.5-14.6c-10.2-0.3-25.6,5.9-34.3,13.6
				c-8.7,7.7-7.6,14.3,2.5,14.6C134.5,169.2,149.9,163.1,158.7,155.3z"/>
			<path id="XMLID_112_" class="st94" d="M158.9,154.9c8.5-7.5,7.3-13.9-2.5-14.1c-9.8-0.3-24.7,5.7-33.1,13.1
				c-8.4,7.5-7.3,13.8,2.5,14.1S150.5,162.4,158.9,154.9z"/>
			<path id="XMLID_111_" class="st95" d="M159.1,154.6c8.1-7.3,7-13.4-2.5-13.7s-23.9,5.5-32,12.7s-7,13.4,2.5,13.6
				C136.6,167.5,151,161.8,159.1,154.6z"/>
			<path id="XMLID_110_" class="st96" d="M159.3,154.2c7.8-7,6.7-12.9-2.5-13.2c-9.2-0.2-23,5.3-30.8,12.3s-6.6,12.9,2.5,13.2
				C137.7,166.7,151.5,161.2,159.3,154.2z"/>
			<path id="XMLID_109_" class="st97" d="M159.6,153.8c7.5-6.8,6.4-12.5-2.5-12.7c-8.8-0.2-22.1,5.1-29.6,11.8
				c-7.4,6.7-6.3,12.5,2.5,12.7C138.8,165.9,152.1,160.6,159.6,153.8z"/>
			<path id="XMLID_108_" class="st98" d="M159.8,153.4c7.2-6.5,6.1-12-2.4-12.3c-8.5-0.2-21.3,4.9-28.4,11.4c-7.1,6.5-6,12,2.4,12.3
				C139.8,165.1,152.6,159.9,159.8,153.4z"/>
			<path id="XMLID_107_" class="st99" d="M160,153c6.8-6.3,5.7-11.6-2.4-11.8c-8.2-0.2-20.4,4.7-27.2,10.9
				c-6.8,6.3-5.7,11.6,2.4,11.8C140.9,164.2,153.1,159.3,160,153z"/>
			<path id="XMLID_106_" class="st100" d="M160.2,152.7c6.5-6,5.4-11.1-2.4-11.4c-7.8-0.2-19.5,4.5-26,10.5s-5.4,11.1,2.4,11.4
				C142,163.4,153.7,158.7,160.2,152.7z"/>
			<path id="XMLID_105_" class="st101" d="M160.4,152.3c6.2-5.8,5.1-10.7-2.4-10.9s-18.7,4.3-24.8,10.1c-6.2,5.8-5.1,10.7,2.4,10.9
				C143,162.6,154.2,158.1,160.4,152.3z"/>
			<path id="XMLID_104_" class="st102" d="M160.6,151.9c5.9-5.5,4.8-10.2-2.4-10.5c-7.2-0.2-17.8,4.1-23.6,9.6s-4.8,10.2,2.4,10.5
				C144.1,161.8,154.7,157.4,160.6,151.9z"/>
			<path id="XMLID_103_" class="st103" d="M160.8,151.5c5.5-5.3,4.5-9.8-2.4-10c-6.8-0.2-16.9,3.9-22.5,9.2c-5.5,5.3-4.4,9.8,2.4,10
				C145.2,160.9,155.3,156.8,160.8,151.5z"/>
			<path id="XMLID_102_" class="st104" d="M161,151.2c5.2-5,4.2-9.3-2.3-9.5s-16.1,3.7-21.3,8.7s-4.1,9.3,2.3,9.5
				C146.2,160.1,155.8,156.2,161,151.2z"/>
			<path id="XMLID_101_" class="st105" d="M161.2,150.8c4.9-4.8,3.8-8.9-2.3-9.1c-6.2-0.2-15.2,3.5-20.1,8.3
				c-4.9,4.8-3.8,8.9,2.3,9.1C147.3,159.3,156.3,155.6,161.2,150.8z"/>
			<path id="XMLID_100_" class="st106" d="M161.5,150.4c4.6-4.5,3.5-8.4-2.3-8.6c-5.8-0.2-14.3,3.3-18.9,7.8
				c-4.5,4.5-3.5,8.4,2.3,8.6C148.4,158.5,156.9,154.9,161.5,150.4z"/>
			<path id="XMLID_99_" class="st107" d="M161.7,150c4.3-4.3,3.2-8-2.3-8.2s-13.5,3.1-17.7,7.4c-4.2,4.3-3.2,8,2.3,8.2
				C149.4,157.6,157.4,154.3,161.7,150z"/>
			<path id="XMLID_98_" class="st108" d="M161.9,149.6c3.9-4,2.9-7.5-2.3-7.7s-12.6,2.9-16.5,7c-3.9,4-2.9,7.5,2.3,7.7
				C150.5,156.8,158,153.7,161.9,149.6z"/>
			<path id="XMLID_97_" class="st109" d="M162.1,149.3c3.6-3.8,2.6-7.1-2.3-7.3c-4.9-0.2-11.7,2.7-15.3,6.5s-2.6,7.1,2.3,7.3
				C151.6,156,158.5,153.1,162.1,149.3z"/>
			<path id="XMLID_96_" class="st110" d="M162.3,148.9c3.3-3.5,2.3-6.6-2.3-6.8c-4.5-0.2-10.9,2.5-14.1,6.1
				c-3.3,3.5-2.2,6.6,2.3,6.8S159,152.4,162.3,148.9z"/>
			<path id="XMLID_95_" class="st111" d="M162.5,148.5c3-3.3,2-6.2-2.2-6.4s-10,2.3-13,5.6c-2.9,3.3-1.9,6.2,2.2,6.4
				C153.7,154.3,159.6,151.8,162.5,148.5z"/>
			<path id="XMLID_94_" class="st112" d="M162.7,148.1c2.6-3.1,1.6-5.7-2.2-5.9c-3.9-0.2-9.1,2.2-11.8,5.2c-2.6,3-1.6,5.7,2.2,5.9
				C154.8,153.5,160.1,151.2,162.7,148.1z"/>
			<path id="XMLID_93_" class="st113" d="M162.9,147.8c2.3-2.8,1.3-5.3-2.2-5.4c-3.5-0.2-8.3,2-10.6,4.8s-1.3,5.3,2.2,5.4
				C155.9,152.7,160.6,150.6,162.9,147.8z"/>
			<path id="XMLID_92_" class="st114" d="M163.1,147.4c2-2.6,1-4.8-2.2-5s-7.4,1.8-9.4,4.3c-2,2.6-1,4.8,2.2,5
				C156.9,151.9,161.2,149.9,163.1,147.4z"/>
			<path id="XMLID_91_" class="st115" d="M163.4,147c1.7-2.3,0.7-4.4-2.2-4.5c-2.9-0.2-6.6,1.6-8.2,3.9c-1.7,2.3-0.7,4.3,2.2,4.5
				C158,151.1,161.7,149.3,163.4,147z"/>
			<path id="XMLID_90_" class="st116" d="M163.6,146.6c1.3-2.1,0.4-3.9-2.2-4.1c-2.5-0.2-5.7,1.4-7,3.4c-1.3,2.1-0.4,3.9,2.2,4.1
				C159.1,150.2,162.2,148.7,163.6,146.6z"/>
			<path id="XMLID_89_" class="st117" d="M163.8,146.2c1-1.8,0.1-3.4-2.1-3.6c-2.2-0.2-4.8,1.2-5.8,3s0,3.4,2.1,3.6
				C160.1,149.4,162.8,148.1,163.8,146.2z"/>
			<path id="XMLID_791_" class="st118" d="M164,145.9c0.7-1.6-0.3-3-2.1-3.2c-1.9-0.2-4,1-4.6,2.6c-0.7,1.6,0.3,3,2.1,3.2
				C161.2,148.6,163.3,147.4,164,145.9z"/>
		</g>
		<g>
			<path id="XMLID_790_" class="st6" d="M164.7,107.7v37.5c0,5-5.4,8.2-9.8,5.7l0,0c-3.2-1.8-5.1-5.2-5.1-8.8v-38.5L164.7,107.7z"/>
			<path id="XMLID_789_" class="st6" d="M175.8,105.6c0-3.1-2.2-6.9-4.9-8.5c-1.4-0.8-2.6-0.8-3.5-0.3l0,0l-13.8,7.9l8.2,11.4
				l12.4-7.3l0,0C175.2,108.4,175.8,107.3,175.8,105.6z"/>
			
				<linearGradient id="XMLID_356_" gradientUnits="userSpaceOnUse" x1="168.361" y1="133.0563" x2="148.1927" y2="155.8438" gradientTransform="matrix(1 0 0 -1 0 256)">
				<stop  offset="0" style="stop-color:#3C5185"/>
				<stop  offset="0.128" style="stop-color:#41588E"/>
				<stop  offset="0.6948" style="stop-color:#5573B1"/>
				<stop  offset="1" style="stop-color:#5D7DBE"/>
			</linearGradient>
			<path id="XMLID_788_" class="st119" d="M173.8,113.1c0-6.4-4.5-14.2-10-17.3c-2.8-1.6-5.3-1.7-7.1-0.6l0,0l-19.5,11.4L154,130
				l16.7-10.2l0,0C172.6,118.8,173.8,116.5,173.8,113.1z"/>
			<path id="XMLID_787_" class="st120" d="M154.2,129.6c1-1.2,1.6-3,1.6-5.3c0-6.4-4.5-14.1-10-17.3c-2.4-1.4-4.6-1.7-6.4-1l0,0
				l-45.6,9.3l29.4,51.8l30.7-37.2C154,129.8,154.1,129.7,154.2,129.6L154.2,129.6L154.2,129.6z"/>
			<path id="XMLID_88_" class="st2" d="M106.4,129.9l43.9-19c-1.4-1.6-2.9-3-4.6-4c-0.2-0.1-0.3-0.2-0.5-0.3L94.8,117L106.4,129.9z"
				/>
			<path id="XMLID_786_" class="st6" d="M106.4,115.5c-12.5-7.2-22.7-1.3-22.7,13.2s10.3,32.2,22.8,39.5
				c12.5,7.2,22.8,1.3,22.7-13.2C129.2,140.5,118.9,122.7,106.4,115.5z"/>
			<path id="XMLID_785_" class="st121" d="M106.4,119.7c-10.6-6.1-19.4-1.1-19.4,11.2s8.7,27.5,19.4,33.6
				c10.7,6.2,19.4,1.1,19.4-11.2C125.8,140.9,117.1,125.8,106.4,119.7z"/>
			<path id="XMLID_87_" class="st56" d="M106.4,119.7c-7.5-4.3-14.1-3.1-17.3,2.3c1.8,0.4,3.7,1.1,5.6,2.3
				c10.6,6.1,19.4,21.3,19.4,33.6c0,3.6-0.7,6.6-2.1,8.9c7.9,1.8,13.8-3.4,13.7-13.5C125.8,140.9,117.1,125.8,106.4,119.7z"/>
			<path id="XMLID_784_" class="st122" d="M105.2,132.9l8.2,14.7l11.6-1.2c-1.8-8-6.5-16.3-12.4-22.1L105.2,132.9z"/>
			<path id="XMLID_783_" class="st122" d="M110.1,132.8c-3.3-1.9-6.1-0.3-6.1,3.5c0,3.9,2.7,8.6,6.1,10.5c3.3,1.9,6.1,0.3,6.1-3.5
				S113.4,134.7,110.1,132.8z"/>
			<path id="XMLID_755_" class="st2" d="M110.1,134.8c-2.4-1.4-4.4-0.2-4.4,2.5s2,6.2,4.4,7.6c2.4,1.4,4.4,0.2,4.4-2.5
				C114.5,139.6,112.5,136.2,110.1,134.8z"/>
			<g id="XMLID_753_">
				<path id="XMLID_754_" class="st6" d="M161.7,121.7c-0.2,0-0.3-0.1-0.4-0.2c-0.1-0.2-0.1-0.5,0.2-0.7l4.8-2.8
					c0.2-0.1,0.5-0.1,0.7,0.2c0.1,0.2,0.1,0.5-0.2,0.7l-4.8,2.8C161.9,121.7,161.8,121.7,161.7,121.7z"/>
			</g>
			<g id="XMLID_751_">
				<path id="XMLID_752_" class="st6" d="M161.7,118.1c-0.2,0-0.3-0.1-0.4-0.2c-0.1-0.2-0.1-0.5,0.2-0.7l4.8-2.8
					c0.2-0.1,0.5-0.1,0.7,0.2c0.1,0.2,0.1,0.5-0.2,0.7l-4.8,2.8C161.9,118.1,161.8,118.1,161.7,118.1z"/>
			</g>
			<g id="XMLID_749_">
				<path id="XMLID_750_" class="st6" d="M161.7,114.5c-0.2,0-0.3-0.1-0.4-0.2c-0.1-0.2-0.1-0.5,0.2-0.7l4.8-2.8
					c0.2-0.1,0.5-0.1,0.7,0.2c0.1,0.2,0.1,0.5-0.2,0.7l-4.8,2.8C161.9,114.5,161.8,114.5,161.7,114.5z"/>
			</g>
		</g>
	</g>
	<g>
		<g>
			<circle id="XMLID_86_" class="st6" cx="66.3" cy="167.5" r="0.1"/>
		</g>
		<g>
			<circle id="XMLID_85_" class="st6" cx="91.3" cy="158.5" r="0.1"/>
		</g>
		<g>
			<circle id="XMLID_84_" class="st6" cx="67.8" cy="175.7" r="0.2"/>
		</g>
		<g>
			<circle id="XMLID_83_" class="st6" cx="49.2" cy="174.6" r="0.2"/>
		</g>
		<g>
			<circle id="XMLID_82_" class="st6" cx="59.3" cy="165.4" r="0.2"/>
		</g>
		<g>
			<circle id="XMLID_81_" class="st6" cx="44.2" cy="159.1" r="0.2"/>
		</g>
		<g>
			<circle id="XMLID_80_" class="st6" cx="50.7" cy="146.5" r="0.2"/>
		</g>
		<g>
			<circle id="XMLID_79_" class="st6" cx="57.8" cy="151.4" r="0.2"/>
		</g>
		<g>
			<circle id="XMLID_78_" class="st6" cx="77.9" cy="145.2" r="0.2"/>
		</g>
		<g>
			<circle id="XMLID_77_" class="st6" cx="72.1" cy="150.6" r="0.2"/>
		</g>
		<g>
			<circle id="XMLID_76_" class="st6" cx="90.2" cy="138.6" r="0.1"/>
		</g>
		<g>
			<circle id="XMLID_75_" class="st6" cx="84.6" cy="147.2" r="0.1"/>
		</g>
		<g>
			<circle id="XMLID_74_" class="st6" cx="85.1" cy="136.6" r="0.2"/>
		</g>
		<g>
			<circle id="XMLID_73_" class="st6" cx="71.4" cy="134.6" r="0.2"/>
		</g>
		<g>
			<circle id="XMLID_72_" class="st6" cx="61.3" cy="142.9" r="0.2"/>
		</g>
		<g>
			<circle id="XMLID_71_" class="st6" cx="93.9" cy="137.4" r="0.1"/>
		</g>
		<g>
			<circle id="XMLID_70_" class="st6" cx="103.9" cy="149.1" r="0.2"/>
		</g>
		<g>
			<circle id="XMLID_69_" class="st6" cx="109.5" cy="133.9" r="0.2"/>
		</g>
		<g>
			<circle id="XMLID_68_" class="st6" cx="101.6" cy="125.5" r="0.2"/>
		</g>
		<g>
			<circle id="XMLID_67_" class="st6" cx="89.3" cy="126.2" r="0.1"/>
		</g>
		<g>
			<circle id="XMLID_66_" class="st6" cx="81.6" cy="130.4" r="0.2"/>
		</g>
		<g>
			<circle id="XMLID_65_" class="st6" cx="74.8" cy="129.1" r="0.2"/>
		</g>
		<g>
			<circle id="XMLID_64_" class="st6" cx="111.2" cy="153.2" r="0.2"/>
		</g>
		<g>
			<circle id="XMLID_63_" class="st6" cx="105.4" cy="159.8" r="0.3"/>
		</g>
		<g>
			<circle id="XMLID_62_" class="st6" cx="123.7" cy="158.8" r="0.2"/>
		</g>
		<g>
			<circle id="XMLID_61_" class="st6" cx="113.6" cy="169.5" r="0.2"/>
		</g>
		<g>
			<circle id="XMLID_60_" class="st6" cx="111.5" cy="175" r="0.2"/>
		</g>
		<g>
			<circle id="XMLID_59_" class="st6" cx="92.9" cy="189.6" r="0.2"/>
		</g>
		<g>
			<circle id="XMLID_58_" class="st6" cx="81.1" cy="189.8" r="0.1"/>
		</g>
		<g>
			<circle id="XMLID_57_" class="st6" cx="77.8" cy="199.8" r="0.2"/>
		</g>
		<g>
			<circle id="XMLID_56_" class="st6" cx="81.5" cy="176.6" r="0.2"/>
		</g>
		<g>
			<circle id="XMLID_55_" class="st6" cx="65.3" cy="182.2" r="0.2"/>
		</g>
		<g>
			<circle id="XMLID_54_" class="st6" cx="95.9" cy="169.2" r="0.2"/>
		</g>
		<g>
			<circle id="XMLID_53_" class="st6" cx="82" cy="169.6" r="0.2"/>
		</g>
		<g>
			<circle id="XMLID_52_" class="st6" cx="69.3" cy="159.3" r="0.2"/>
		</g>
		<g>
			<circle id="XMLID_51_" class="st6" cx="96.9" cy="150.6" r="0.2"/>
		</g>
		<g>
			<circle id="XMLID_50_" class="st6" cx="76.8" cy="169.7" r="0.2"/>
		</g>
		<g>
			<circle id="XMLID_49_" class="st6" cx="111.5" cy="185" r="0.2"/>
		</g>
		<g>
			<circle id="XMLID_48_" class="st6" cx="103.5" cy="165.1" r="0.2"/>
		</g>
		<g>
			<circle id="XMLID_47_" class="st6" cx="87.2" cy="162.7" r="0.1"/>
		</g>
		<g>
			<circle id="XMLID_46_" class="st6" cx="76.8" cy="162.3" r="0.1"/>
		</g>
		<g>
			<circle id="XMLID_45_" class="st6" cx="85.1" cy="155.5" r="0.1"/>
		</g>
		<g>
			<circle id="XMLID_44_" class="st6" cx="77.8" cy="157" r="0.1"/>
		</g>
		<g>
			<circle id="XMLID_43_" class="st6" cx="83.6" cy="169.9" r="0.2"/>
		</g>
		<g>
			<circle id="XMLID_42_" class="st6" cx="65.5" cy="156.4" r="0.2"/>
		</g>
		<g>
			<circle id="XMLID_41_" class="st6" cx="63.4" cy="171.3" r="0.2"/>
		</g>
		<g>
			<circle id="XMLID_40_" class="st6" cx="69.9" cy="156.9" r="0.1"/>
		</g>
		<g>
			<circle id="XMLID_39_" class="st6" cx="59.6" cy="156.5" r="0.1"/>
		</g>
		<g>
			<circle id="XMLID_38_" class="st6" cx="81.6" cy="158.4" r="0.1"/>
		</g>
		<g>
			<circle id="XMLID_37_" class="st6" cx="60.5" cy="151.2" r="0.1"/>
		</g>
		<g>
			<circle id="XMLID_36_" class="st6" cx="66.3" cy="164.1" r="0.2"/>
		</g>
		<g>
			<circle id="XMLID_35_" class="st6" cx="95.7" cy="162.1" r="0.2"/>
		</g>
		<g>
			<circle id="XMLID_33_" class="st6" cx="100.6" cy="185.2" r="0.2"/>
		</g>
		<g>
			<circle id="XMLID_32_" class="st6" cx="93.9" cy="179.5" r="0.2"/>
		</g>
		<g>
			<circle id="XMLID_31_" class="st6" cx="75.8" cy="180.4" r="0.2"/>
		</g>
		<g>
			<circle id="XMLID_30_" class="st6" cx="103" cy="174.2" r="0.2"/>
		</g>
		<g>
			<circle id="XMLID_29_" class="st6" cx="88.8" cy="177.4" r="0.2"/>
		</g>
		<g>
			<circle id="XMLID_28_" class="st6" cx="96.1" cy="133.5" r="0.1"/>
		</g>
		<g>
			<circle id="XMLID_27_" class="st6" cx="98" cy="128.4" r="0.2"/>
		</g>
		<g>
			<circle id="XMLID_26_" class="st6" cx="118" cy="140" r="0.2"/>
		</g>
		<g>
			<circle id="XMLID_25_" class="st6" cx="114.5" cy="144.9" r="0.2"/>
		</g>
		<g>
			<circle id="XMLID_24_" class="st6" cx="130.8" cy="155.9" r="0.2"/>
		</g>
		<g>
			<circle id="XMLID_22_" class="st6" cx="123.8" cy="167.6" r="0.2"/>
		</g>
		<g>
			<circle id="XMLID_16_" class="st6" cx="109.2" cy="169.8" r="0.2"/>
		</g>
		<g>
			<circle id="XMLID_7_" class="st6" cx="102.3" cy="142.7" r="0.2"/>
		</g>
		<g>
			<circle id="XMLID_6_" class="st6" cx="99.2" cy="138.8" r="0.2"/>
		</g>
	</g>
	<g>
		<path id="XMLID_970_" class="st122" d="M133.3,41v11.9c0,0.7-0.4,1.4-1,1.8l-1.9,1.2l-1.1,4.1c-0.2,0.6-0.8,0.9-1.4,0.6l-2.9-1.5
			l-16.1,9.3c-0.8,0.5-1.8-0.1-1.8-1V55.3c0-0.7,0.4-1.4,1-1.8L131.5,40C132.3,39.5,133.3,40.1,133.3,41z"/>
		<g>
			
				<linearGradient id="XMLID_357_" gradientUnits="userSpaceOnUse" x1="107.0469" y1="201.7722" x2="133.015" y2="201.7722" gradientTransform="matrix(1 0 0 -1 0 256)">
				<stop  offset="0" style="stop-color:#3C5185"/>
				<stop  offset="0.128" style="stop-color:#41588E"/>
				<stop  offset="0.6948" style="stop-color:#5573B1"/>
				<stop  offset="1" style="stop-color:#5D7DBE"/>
			</linearGradient>
			<path id="XMLID_5_" class="st123" d="M107.9,67.9V55.8c0-0.7,0.4-1.4,1-1.8l23.5-13.5c0.2-0.1,0.4-0.2,0.6-0.2
				c-0.3-0.4-1-0.6-1.5-0.3L108,53.5c-0.6,0.4-1,1.1-1,1.8v12.1c0,0.7,0.5,1.1,1.1,1.2C108,68.4,107.9,68.1,107.9,67.9z"/>
		</g>
		<g>
			
				<linearGradient id="XMLID_358_" gradientUnits="userSpaceOnUse" x1="813.0338" y1="205.9793" x2="818.3833" y2="205.9793" gradientTransform="matrix(-1 0 0 -1 942.6788 256)">
				<stop  offset="0.1499" style="stop-color:#FF9800"/>
				<stop  offset="1" style="stop-color:#FFC107"/>
			</linearGradient>
			<path id="XMLID_969_" class="st124" d="M127.1,46.7l0.6,1.4l1.8-1c0.1,0,0.1,0,0.1,0.1l-1.2,2.2l0.4,1.9c0,0.1,0,0.2-0.1,0.2
				l-1.5-0.1l-1.6,1.9c0,0.1-0.1,0-0.1-0.1l0.2-2.1l-1.4-0.8v-0.1l1.9-1.1L127.1,46.7C127.1,46.7,127.1,46.7,127.1,46.7z"/>
			
				<linearGradient id="XMLID_359_" gradientUnits="userSpaceOnUse" x1="819.8209" y1="202.0168" x2="825.1705" y2="202.0168" gradientTransform="matrix(-1 0 0 -1 942.6788 256)">
				<stop  offset="0.1499" style="stop-color:#FF9800"/>
				<stop  offset="1" style="stop-color:#FFC107"/>
			</linearGradient>
			<path id="XMLID_968_" class="st125" d="M120.4,50.7l0.6,1.4l1.8-1c0.1,0,0.1,0,0.1,0.1l-1.2,2.2l0.4,1.9c0,0.1,0,0.2-0.1,0.2
				l-1.5-0.1l-1.6,1.9c0,0.1-0.1,0-0.1-0.1l0.2-2.1l-1.4-0.8v-0.1l1.9-1.1L120.4,50.7C120.3,50.6,120.3,50.6,120.4,50.7z"/>
			
				<linearGradient id="XMLID_360_" gradientUnits="userSpaceOnUse" x1="826.6082" y1="198.0793" x2="831.9577" y2="198.0793" gradientTransform="matrix(-1 0 0 -1 942.6788 256)">
				<stop  offset="0.1499" style="stop-color:#FF9800"/>
				<stop  offset="1" style="stop-color:#FFC107"/>
			</linearGradient>
			<path id="XMLID_967_" class="st126" d="M113.6,54.6l0.6,1.4l1.8-1c0.1,0,0.1,0,0.1,0.1l-1.2,2.2l0.4,1.9c0,0.1,0,0.2-0.1,0.2
				l-1.5-0.1l-1.6,1.9c0,0.1-0.1,0-0.1-0.1l0.2-2.1l-1.4-0.8v-0.1l1.9-1.1L113.6,54.6C113.5,54.6,113.5,54.6,113.6,54.6z"/>
		</g>
	</g>
	<g id="XMLID_898_">
		<circle id="XMLID_944_" class="st2" cx="184.4" cy="146.5" r="4.5"/>
		<path id="XMLID_943_" class="st56" d="M195.7,165.7v1.4c0,0.4,0.2,0.7,0.5,0.9l4.3,2.6c0.4,0.3,1,0.3,1.4,0l1.3-0.7
			c0.3-0.1,0.4-0.4,0.4-0.7v-0.8c0,0-0.2,0.1-0.4-0.1l-2.8-1.7v-0.9H195.7z"/>
		<path id="XMLID_942_" class="st6" d="M195.7,164.9v1.4c0,0.4,0.2,0.7,0.5,0.9l4.3,2.6c0.4,0.3,1,0.3,1.4,0l1.3-0.8
			c0.6-0.4,0.6-1.2,0-1.6l-2.8-1.7v-0.9h-4.7V164.9z"/>
		<g id="XMLID_940_">
			<polygon id="XMLID_941_" class="st6" points="198.6,167.6 198.6,167.3 200.2,166.4 200.2,166.6 			"/>
		</g>
		<g id="XMLID_938_">
			<polygon id="XMLID_939_" class="st6" points="199.2,168.1 199.2,167.9 200.9,166.9 200.9,167.2 			"/>
		</g>
		<g id="XMLID_936_">
			<polygon id="XMLID_937_" class="st6" points="200,168.7 200,168.4 201.7,167.5 201.7,167.8 			"/>
		</g>
		<path id="XMLID_935_" class="st6" d="M196.4,165.8c-0.9-0.5-0.9-1.4,0-1.9s2.4-0.5,3.3,0c0.9,0.5,0.9,1.4,0,1.9
			C198.8,166.4,197.3,166.4,196.4,165.8z"/>
		<path id="XMLID_934_" class="st127" d="M197,165.5c-0.6-0.3-0.6-0.9,0-1.3c0.6-0.3,1.6-0.3,2.2,0c0.6,0.3,0.6,0.9,0,1.3
			C198.5,165.9,197.6,165.9,197,165.5z"/>
		<path id="XMLID_933_" class="st56" d="M191.3,168.3v1.4c0,0.4,0.2,0.7,0.5,0.9l4.3,2.6c0.4,0.3,1,0.3,1.4,0l1.3-0.7
			c0.3-0.1,0.4-0.4,0.4-0.7V171c0,0-0.2,0.1-0.4-0.1l-2.8-1.7v-0.9H191.3z"/>
		<path id="XMLID_932_" class="st6" d="M191.3,167.5v1.4c0,0.4,0.2,0.7,0.5,0.9l4.3,2.6c0.4,0.3,1,0.3,1.4,0l1.3-0.8
			c0.6-0.4,0.6-1.2,0-1.6l-2.8-1.7v-0.9h-4.7V167.5z"/>
		<g id="XMLID_930_">
			<polygon id="XMLID_931_" class="st6" points="194.2,170.2 194.2,169.9 195.9,169 195.9,169.2 			"/>
		</g>
		<g id="XMLID_928_">
			<polygon id="XMLID_929_" class="st6" points="194.8,170.7 194.8,170.5 196.5,169.5 196.5,169.8 			"/>
		</g>
		<g id="XMLID_926_">
			<polygon id="XMLID_927_" class="st6" points="195.7,171.3 195.7,171 197.3,170.1 197.3,170.4 			"/>
		</g>
		<path id="XMLID_925_" class="st6" d="M192,168.4c-0.9-0.5-0.9-1.4,0-1.9s2.4-0.5,3.3,0c0.9,0.5,0.9,1.4,0,1.9
			C194.4,169,192.9,169,192,168.4z"/>
		<path id="XMLID_924_" class="st127" d="M192.6,168.1c-0.6-0.3-0.6-0.9,0-1.3c0.6-0.3,1.6-0.3,2.2,0c0.6,0.3,0.6,0.9,0,1.3
			C194.2,168.5,193.2,168.5,192.6,168.1z"/>
		<g id="XMLID_922_">
			<path id="XMLID_923_" class="st121" d="M198,165.9c-1,0-1.9,0.1-1.9-1v-10c0-1.7-0.9-3.3-2.4-4.2l-7.1-3.8
				c-1.5-0.8-1.8-2.4-1.8-4.1v-0.4c0-1,0.8-1.9,1.9-1.9c1,0,1.9,0.8,1.9,1.9v0.4c0,0.3,0.2,0.6,0.5,0.8l6.6,3.8
				c2.7,1.5,4.3,4.4,4.3,7.5v10C199.9,166,199.1,165.9,198,165.9z"/>
		</g>
		<g id="XMLID_920_">
			<path id="XMLID_921_" class="st121" d="M193.7,168.3c-1,0-1.9,0.1-1.9-1v-10c0-1.7-0.9-3.3-2.4-4.2l-7.3-3.4
				c-1.5-0.8-1.6-2.8-1.6-4.5v-0.4c0-1,0.8-1.9,1.9-1.9c1,0,1.9,0.8,1.9,1.9v0.4c0,0.3,0.2,0.6,0.5,0.8l6.6,3.8
				c2.7,1.5,4.3,3.5,4.3,6.5v11C195.6,168.4,194.7,168.3,193.7,168.3z"/>
		</g>
		<g id="XMLID_917_">
			<path id="XMLID_919_" class="st128" d="M187.9,152.3l-5.1-2.3c-0.5-0.3-0.5-1,0-1.2l7.8-4.5l5.7,3.4L187.9,152.3z"/>
			<path id="XMLID_918_" class="st129" d="M188.6,151.8l-4.4-2c-0.4-0.2-0.4-0.8,0-1.1l7.1-4.1l4.9,2.9L188.6,151.8z"/>
		</g>
		<g id="XMLID_915_">
			
				<linearGradient id="XMLID_361_" gradientUnits="userSpaceOnUse" x1="187.3613" y1="117.626" x2="192.0797" y2="117.626" gradientTransform="matrix(1 0 0 -1 0 256)">
				<stop  offset="0" style="stop-color:#3C5185"/>
				<stop  offset="0.128" style="stop-color:#41588E"/>
				<stop  offset="0.6948" style="stop-color:#5573B1"/>
				<stop  offset="1" style="stop-color:#5D7DBE"/>
			</linearGradient>
			<path id="XMLID_916_" class="st130" d="M190.9,147.4c-0.6,0-1.1-0.5-1.1-1.1v-4.4c0-2.6-0.4-3.9-1.1-6.4l-1.3-4.7
				c-0.2-0.6,0.2-1.2,0.8-1.4s1.2,0.2,1.4,0.8l1.3,4.7c0.8,2.7,1.2,4.2,1.2,7v4.4C192.1,146.9,191.6,147.4,190.9,147.4z"/>
		</g>
		
			<linearGradient id="XMLID_362_" gradientUnits="userSpaceOnUse" x1="178.9631" y1="118.3885" x2="189.7255" y2="118.3885" gradientTransform="matrix(1 0 0 -1 0 256)">
			<stop  offset="0" style="stop-color:#3C5185"/>
			<stop  offset="0.128" style="stop-color:#41588E"/>
			<stop  offset="0.6948" style="stop-color:#5573B1"/>
			<stop  offset="1" style="stop-color:#5D7DBE"/>
		</linearGradient>
		<path id="XMLID_914_" class="st131" d="M184.9,126.9l-0.9,0.5c-3.1,1.8-4.4,2.9-4.8,6.4c-0.5,4.1,0.6,14.8,0.6,14.8
			c4.7-0.3,9.2-6.1,9.2-6.1c-0.8-5.3,0.9-7.9,0.9-11.5C189.7,129.2,187.1,125.6,184.9,126.9z"/>
		<path id="XMLID_4_" class="st132" d="M189.7,131c0-1.9-2.6-5.5-4.8-4.2l-0.9,0.5c-1,0.6-1.8,1.3-2.6,2.1c0.7-0.7,1.5-1.3,2.3-1.8
			l0.9-0.5c2.2-1.3,4.9,2.3,4.8,4.2c0,3.5-1.7,6.2-0.9,11.5c0.2-0.2,0.3-0.3,0.3-0.3C188,137.2,189.7,134.6,189.7,131z"/>
		<path id="XMLID_913_" class="st52" d="M184.6,130h-0.4c-0.5,0-0.9-0.4-0.9-0.9v-2.6h2.2v2.6C185.5,129.6,185.1,130,184.6,130z"/>
		<polygon id="XMLID_912_" class="st2" points="183.4,127.5 182.8,127.8 183.7,132.9 184.9,129.9 		"/>
		<polygon id="XMLID_911_" class="st2" points="184.9,129.9 185.5,126.6 185.8,126.6 187,130.9 		"/>
		<g id="XMLID_909_">
			<path id="XMLID_910_" class="st52" d="M186.8,150.8c-0.3,0-0.7-0.2-0.9-0.4l-3.4-4.4c-1.9-2.4-2.8-5.3-2.6-8.4l0.3-4.3
				c0-0.6,0.6-1.1,1.2-1.1c0.6,0,1.1,0.6,1.1,1.2l-0.3,4.3c-0.1,2.5,0.7,4.9,2.2,6.9l3.4,4.4c0.4,0.5,0.3,1.2-0.2,1.6
				C187.3,150.7,187.1,150.8,186.8,150.8z"/>
		</g>
		<path id="XMLID_908_" class="st52" d="M187.7,148.5l-3.5-1.3c-0.2-0.1-0.2-0.2-0.2-0.4l0.1-0.3c0.1-0.2,0.2-0.2,0.4-0.2l3.5,1.3
			c0.2,0.1,0.2,0.2,0.2,0.4l-0.1,0.3C188,148.5,187.8,148.6,187.7,148.5z"/>
		<g id="XMLID_904_">
			
				<linearGradient id="XMLID_363_" gradientUnits="userSpaceOnUse" x1="187.3739" y1="109.2" x2="197.3376" y2="109.2" gradientTransform="matrix(1 0 0 -1 0 256)">
				<stop  offset="0" style="stop-color:#D3DAED"/>
				<stop  offset="1" style="stop-color:#99A7D8"/>
			</linearGradient>
			<path id="XMLID_907_" class="st133" d="M197.3,141.1h-0.1c-0.1,0-0.2,0-0.3,0l-8.4,4.8c-0.2,0.1-0.4,0.4-0.4,0.6l-0.8,5.8
				c0,0.1,0,0.1,0.1,0.1l0.1,0.1l8.6-5c0.2-0.1,0.4-0.4,0.4-0.6L197.3,141.1z"/>
			<path id="XMLID_906_" class="st128" d="M197.4,141.3c0-0.2-0.2-0.3-0.4-0.2l-8.5,4.9c-0.2,0.1-0.4,0.4-0.4,0.6l-0.8,5.6
				c0,0.2,0.2,0.3,0.4,0.2l8.5-4.9c0.2-0.1,0.4-0.4,0.4-0.6L197.4,141.3z"/>
			<path id="XMLID_905_" class="st129" d="M193.2,146.3c-0.3,0.1-0.7,0.6-0.8,1s0.1,0.6,0.4,0.5c0.3-0.1,0.7-0.6,0.8-1
				C193.7,146.4,193.5,146.2,193.2,146.3z"/>
		</g>
		<path id="XMLID_903_" class="st134" d="M183.7,141.7c-0.7-1.3-1.4-2.9-1.4-4c0,0-0.1-4.3-0.9-4.3c-0.7,0-1.1-0.8-1.1-0.1l-0.3,4.3
			c-0.1,3,0.8,6,2.6,8.4l0.7,1.3c1-0.5,1.9-1.5,2.7-2C185.3,144.3,184.3,142.8,183.7,141.7z"/>
		<g id="XMLID_901_">
			
				<linearGradient id="XMLID_364_" gradientUnits="userSpaceOnUse" x1="179.6605" y1="116" x2="185.6308" y2="116" gradientTransform="matrix(1 0 0 -1 0 256)">
				<stop  offset="0" style="stop-color:#3C5185"/>
				<stop  offset="0.128" style="stop-color:#41588E"/>
				<stop  offset="0.6948" style="stop-color:#5573B1"/>
				<stop  offset="1" style="stop-color:#5D7DBE"/>
			</linearGradient>
			<path id="XMLID_902_" class="st135" d="M185.6,146.1l-1.1-1.5c0,0-2.3-4.4-2.2-6.8l0.3-4.3c0-0.7-0.5-1.4-1.3-1.4
				c-0.7,0-1.4,0.5-1.4,1.3l-0.3,4.3c-0.1,3,0.8,6,2.6,8.4l1.5,1.8L185.6,146.1z"/>
		</g>
		<path id="XMLID_900_" class="st52" d="M183.8,126.9l-0.3-0.1c-0.7-0.1-1.3-2.6-1.1-3.3l0.7-3.6l5.9,1.2l-1.1,5
			C187.5,128.4,186,127.3,183.8,126.9z"/>
		<g id="XMLID_899_">
			<path id="XMLID_347_" class="st6" d="M189.2,120.9c-0.1-0.5-0.4-0.9-0.8-1.3c-1.2-1-4-2.1-5.2-0.6c-0.3-0.4-1-0.4-1.4-0.1
				s-0.6,0.9-0.8,1.4c-0.2,0.6-0.4,1.2-0.2,1.8c0.3,1.1,0.8,2.1,1.3,3.1c0.1,0.2,0.5,0.8,0.6,0.4c0.3-0.7-0.7-1.6-0.1-2.2
				c0.3-0.2,0.7-0.2,0.9,0s0.3,0.6,0.5,0.7s0.4,0.2,0.6,0.1c0,0,0.1,0,0.1-0.1V124c-0.2-0.6-0.2-1.2-0.2-1.8c0-0.2,0-0.4,0.2-0.5
				c0.1-0.1,0.2-0.1,0.3-0.1c0.3-0.1,0.7-0.2,1-0.2s0.6,0.2,1,0.3c0.3,0.1,0.7,0.1,1-0.2c0.1-0.1,0.1-0.2,0.2-0.2
				c0.1,0,0.2,0,0.3,0.1s0.3,0.2,0.5,0.2C189.4,121.8,189.3,121.2,189.2,120.9z"/>
		</g>
		<g id="XMLID_3_">
			<path id="XMLID_349_" class="st6" d="M188,125.5c-0.1-0.3-0.2-0.6-0.4-0.7s-0.4-0.1-0.6-0.1c-0.3,0-0.5,0-0.8,0.1
				c-0.2,0.1-0.4,0.3-0.5,0.5c-0.1,0.1-0.1,0.5-0.2,0.6c-0.8-0.3-0.3-1.3-0.6-1.9c-0.1-0.2-0.3-0.4-0.5-0.5
				c-0.8-0.2-0.4,1.1-0.5,1.4c-0.2,0.4-0.6,0.7-0.5,1.1c0,0.5,0.6,0.9,1,1.2c0.4,0.3,0.8,0.8,1.4,0.8c0.3,0,0.5-0.1,0.8-0.2
				c0.5-0.2,1-0.2,1.3-0.7c0.3-0.4,0.3-1,0.2-1.5C188,125.7,188,125.6,188,125.5z"/>
		</g>
	</g>
	<g>
		
			<linearGradient id="XMLID_365_" gradientUnits="userSpaceOnUse" x1="189.0862" y1="152.8857" x2="212.3691" y2="152.8857" gradientTransform="matrix(1 0 0 -1 0 256)">
			<stop  offset="0" style="stop-color:#5D7DBE"/>
			<stop  offset="0.3052" style="stop-color:#5573B1"/>
			<stop  offset="0.872" style="stop-color:#41588E"/>
			<stop  offset="1" style="stop-color:#3C5185"/>
		</linearGradient>
		<path id="XMLID_955_" class="st136" d="M212.4,109.7c0-7.4-5.2-16.5-11.6-20.2c-3-1.7-5.7-2-7.8-1l0,0l0,0
			c-0.3,0.1-0.6,0.3-0.8,0.5l-1.9,1.1l0.3,0.6c-0.9,1.4-1.4,3.3-1.4,5.6c0,3.6,1.2,7.5,3.2,11.1v5.4c0,0.4,0.3,0.7,0.7,0.7h3.9
			c1.2,1.2,2.4,2.1,3.8,2.9c1.4,0.8,2.7,1.3,3.9,1.5v0.4l1.6-0.3c0.6,0,1.1-0.1,1.6-0.3l0,0l0,0C210.6,116.9,212.4,114,212.4,109.7z
			"/>
		
			<linearGradient id="XMLID_366_" gradientUnits="userSpaceOnUse" x1="187.548" y1="152.45" x2="210.348" y2="152.45" gradientTransform="matrix(1 0 0 -1 0 256)">
			<stop  offset="0" style="stop-color:#3C5185"/>
			<stop  offset="0.128" style="stop-color:#41588E"/>
			<stop  offset="0.6948" style="stop-color:#5573B1"/>
			<stop  offset="1" style="stop-color:#5D7DBE"/>
		</linearGradient>
		<path id="XMLID_954_" class="st137" d="M198.9,90.4c-6.3-3.6-11.4-0.7-11.4,6.6c0,3.5,1.2,7.4,3.2,10.9v5.3c0,0.4,0.3,0.7,0.7,0.7
			h3.8c1.2,1.1,2.4,2.1,3.7,2.8c6.3,3.6,11.4,0.7,11.4-6.6C210.3,102.9,205.2,94,198.9,90.4z"/>
		
			<linearGradient id="XMLID_367_" gradientUnits="userSpaceOnUse" x1="195.5724" y1="152.2346" x2="202.6555" y2="152.2346" gradientTransform="matrix(1 0 0 -1 0 256)">
			<stop  offset="0.1499" style="stop-color:#FF9800"/>
			<stop  offset="1" style="stop-color:#FFC107"/>
		</linearGradient>
		<path id="XMLID_1071_" class="st138" d="M202.2,107.3l-5.3,0.5c-0.6,0.1-1.4-0.7-1.4-1.4v-6.1c0-0.7,0.8-0.8,1.4-0.1l5.3,5.5
			C202.8,106.4,202.8,107.3,202.2,107.3l-5.3,0.5c-0.6,0.1-1.4-0.7-1.4-1.4v-6.1c0-0.7,0.8-0.8,1.4-0.1l5.3,5.5
			C202.8,106.4,202.8,107.3,202.2,107.3z"/>
	</g>
	<g>
		
			<radialGradient id="XMLID_368_" cx="177.0706" cy="-7616.7124" r="8.1965" gradientTransform="matrix(1 0 0 -0.5172 0 -3760.4131)" gradientUnits="userSpaceOnUse">
			<stop  offset="9.125480e-002" style="stop-color:#3C5185"/>
			<stop  offset="0.2537" style="stop-color:#6F7FA5"/>
			<stop  offset="0.4365" style="stop-color:#A2ACC5"/>
			<stop  offset="0.6088" style="stop-color:#CAD0DE"/>
			<stop  offset="0.7654" style="stop-color:#E7EAF0"/>
			<stop  offset="0.9009" style="stop-color:#F9F9FB"/>
			<stop  offset="1" style="stop-color:#FFFFFF"/>
		</radialGradient>
		<path id="XMLID_894_" class="st139" d="M171.3,175.6c3.2-1.8,8.3-1.8,11.5,0s3.2,4.8,0,6.6s-8.3,1.8-11.5,0
			C168.2,180.4,168.2,177.5,171.3,175.6z"/>
		
			<linearGradient id="XMLID_369_" gradientUnits="userSpaceOnUse" x1="171.1615" y1="77.25" x2="182.7615" y2="77.25" gradientTransform="matrix(1 0 0 -1 0 256)">
			<stop  offset="0" style="stop-color:#3C5185"/>
			<stop  offset="0.128" style="stop-color:#41588E"/>
			<stop  offset="0.6948" style="stop-color:#5573B1"/>
			<stop  offset="1" style="stop-color:#5D7DBE"/>
		</linearGradient>
		<path id="XMLID_893_" class="st140" d="M182.8,177.2h-0.6c-0.3-0.3-0.6-0.6-1-0.8c-2.3-1.3-6-1.3-8.2,0c-0.4,0.2-0.8,0.5-1,0.8
			h-0.6v1.5l0,0c0,0.9,0.6,1.7,1.7,2.4c2.3,1.3,6,1.3,8.2,0c1.1-0.7,1.7-1.5,1.7-2.4l0,0v-1.5H182.8z"/>
		<path id="XMLID_892_" class="st122" d="M172.9,174.8c2.3-1.3,6-1.3,8.2,0c2.3,1.3,2.3,3.4,0,4.7s-6,1.3-8.2,0
			C170.6,178.2,170.6,176.1,172.9,174.8z"/>
		<path id="XMLID_34_" class="st2" d="M179.2,178.1c0.1-0.1,0-0.2-0.1-0.3H179c0.2,0.1,0.4,0,0.5-0.1s0-0.2-0.1-0.3l-0.7-0.3
			l-0.6-0.3c0,0,0.1-0.1,0.3-0.2c0,0,0.1,0,0.1-0.1l0,0c0.1-0.1,0.3-0.2,0.4-0.3l0.1-0.1l0,0l0.1-0.1c0.1-0.1,0.1-0.1,0-0.2
			l-0.1-0.1c-0.1-0.1-0.3,0-0.4,0c-0.2,0.1-0.5,0.3-0.7,0.4c-0.2,0-0.8,0.2-0.8,0.2l0,0l0,0l-0.2-0.1l0.2-0.2c0,0,0,0,0-0.1
			l-0.9-0.4l-1.2,1.2l-0.6,0.6l0.9,0.4l0,0h0.1l0,0l0.2-0.2l0.2,0.1l0,0l0,0l0,0c0,0,0,0,0,0.1l0.1,0.3c0,0.1,0.1,0.1,0.1,0.1
			l1.2,0.5c0.1,0.1,0.3,0,0.5,0c0.2-0.1,0.1-0.3,0-0.4l0.3,0.1c0.1,0.1,0.3,0,0.5,0c0.2-0.1,0.1-0.3,0-0.4l0.3,0.1
			C178.9,178.3,179.1,178.2,179.2,178.1z"/>
	</g>
	<g>
		
			<radialGradient id="XMLID_370_" cx="193.6364" cy="-7621.6157" r="8.8703" gradientTransform="matrix(1 0 0 -0.5172 0 -3760.4131)" gradientUnits="userSpaceOnUse">
			<stop  offset="9.125480e-002" style="stop-color:#3C5185"/>
			<stop  offset="0.2537" style="stop-color:#6F7FA5"/>
			<stop  offset="0.4365" style="stop-color:#A2ACC5"/>
			<stop  offset="0.6088" style="stop-color:#CAD0DE"/>
			<stop  offset="0.7654" style="stop-color:#E7EAF0"/>
			<stop  offset="0.9009" style="stop-color:#F9F9FB"/>
			<stop  offset="1" style="stop-color:#FFFFFF"/>
		</radialGradient>
		<path id="XMLID_1216_" class="st141" d="M187.4,177.9c3.4-2,9-2,12.4,0s3.4,5.2,0,7.2s-9,2-12.4,0
			C184,183.1,184,179.9,187.4,177.9z"/>
		
			<linearGradient id="XMLID_371_" gradientUnits="userSpaceOnUse" x1="187.2415" y1="74.8" x2="199.8004" y2="74.8" gradientTransform="matrix(1 0 0 -1 0 256)">
			<stop  offset="0" style="stop-color:#FFC107"/>
			<stop  offset="0.8501" style="stop-color:#FF9800"/>
		</linearGradient>
		<path id="XMLID_1215_" class="st142" d="M199.8,179.5h-0.7c-0.3-0.3-0.7-0.6-1.1-0.9c-2.4-1.4-6.4-1.4-8.9,0
			c-0.5,0.3-0.8,0.6-1.1,0.9h-0.7v1.7l0,0c0,0.9,0.6,1.9,1.8,2.6c2.4,1.4,6.4,1.4,8.9,0c1.2-0.7,1.8-1.6,1.8-2.6l0,0V179.5z"/>
		
			<linearGradient id="XMLID_372_" gradientUnits="userSpaceOnUse" x1="187.2415" y1="76.45" x2="199.8005" y2="76.45" gradientTransform="matrix(1 0 0 -1 0 256)">
			<stop  offset="0.1499" style="stop-color:#FF9800"/>
			<stop  offset="1" style="stop-color:#FFC107"/>
		</linearGradient>
		<path id="XMLID_1214_" class="st143" d="M189.1,177c2.4-1.4,6.4-1.4,8.9,0c2.4,1.4,2.4,3.7,0,5.1c-2.4,1.4-6.4,1.4-8.9,0
			C186.6,180.7,186.6,178.4,189.1,177z"/>
		<path id="XMLID_1117_" class="st2" d="M194.8,180.8h-0.1l-2.8-0.2l-0.1-1.9c0-0.2,0.1-0.5,0.4-0.6c0.5-0.3,1.4-0.3,1.9,0.2
			c0.3,0.2,0.4,0.5,0.4,0.7c0.3,0,0.7,0.1,1,0.4c0.5,0.4,0.6,1,0.1,1.3C195.3,180.7,195.1,180.8,194.8,180.8z"/>
	</g>
	<g>
		
			<radialGradient id="XMLID_373_" cx="161.3" cy="-7635.563" r="9.1347" gradientTransform="matrix(1 0 0 -0.5172 0 -3760.4131)" gradientUnits="userSpaceOnUse">
			<stop  offset="9.125480e-002" style="stop-color:#3C5185"/>
			<stop  offset="0.2537" style="stop-color:#6F7FA5"/>
			<stop  offset="0.4365" style="stop-color:#A2ACC5"/>
			<stop  offset="0.6088" style="stop-color:#CAD0DE"/>
			<stop  offset="0.7654" style="stop-color:#E7EAF0"/>
			<stop  offset="0.9009" style="stop-color:#F9F9FB"/>
			<stop  offset="1" style="stop-color:#FFFFFF"/>
		</radialGradient>
		<path id="XMLID_1018_" class="st144" d="M154.9,185c3.5-2,9.3-2,12.8,0s3.5,5.4,0,7.4s-9.3,2-12.8,0S151.4,187,154.9,185z"/>
		
			<linearGradient id="XMLID_374_" gradientUnits="userSpaceOnUse" x1="154.7303" y1="67.55" x2="167.6528" y2="67.55" gradientTransform="matrix(1 0 0 -1 0 256)">
			<stop  offset="0" style="stop-color:#FFC107"/>
			<stop  offset="0.8501" style="stop-color:#FF9800"/>
		</linearGradient>
		<path id="XMLID_1013_" class="st145" d="M167.7,186.7H167c-0.3-0.3-0.7-0.6-1.2-0.9c-2.5-1.5-6.6-1.5-9.1,0
			c-0.5,0.3-0.9,0.6-1.2,0.9h-0.7v1.7l0,0c0,1,0.6,1.9,1.9,2.7c2.5,1.5,6.6,1.5,9.1,0c1.3-0.7,1.9-1.7,1.9-2.7l0,0V186.7z"/>
		
			<linearGradient id="XMLID_375_" gradientUnits="userSpaceOnUse" x1="154.725" y1="69.25" x2="167.6477" y2="69.25" gradientTransform="matrix(1 0 0 -1 0 256)">
			<stop  offset="0.1499" style="stop-color:#FF9800"/>
			<stop  offset="1" style="stop-color:#FFC107"/>
		</linearGradient>
		<path id="XMLID_897_" class="st146" d="M156.6,184.1c2.5-1.5,6.6-1.5,9.1,0s2.5,3.8,0,5.3s-6.6,1.5-9.1,0
			C154.1,187.9,154.1,185.5,156.6,184.1z"/>
		<path id="XMLID_1069_" class="st2" d="M164.5,187.2c-0.1-0.6-0.7-1.3-1.7-1.8c-0.9-0.5-1.9-0.8-2.8-0.8c-0.8,0-1.5,0.2-1.9,0.7
			c-0.3,0.3-0.4,0.6-0.3,1c0.1,0.6,0.7,1.3,1.7,1.9c0.6,0.3,1.1,0.5,1.7,0.7h0.1v-0.5h-0.1c-0.4-0.1-0.9-0.3-1.4-0.5
			c-0.8-0.4-1.3-0.9-1.4-1.4c0-0.3,0-0.5,0.2-0.7c0.3-0.4,0.9-0.5,1.5-0.5c0.7,0,1.5,0.2,2.2,0.6c0.8,0.4,1.2,0.9,1.3,1.3
			c0,0.2,0,0.4-0.2,0.6c-0.2,0.2-0.5,0.4-0.9,0.4c-0.2,0-0.4,0-0.6-0.1c-0.1,0-0.1-0.1-0.1-0.1s0-0.1,0.3-0.3l1.1-0.7l-0.1-0.1
			c-0.2-0.2-0.5-0.4-0.8-0.6c-0.6-0.3-1.2-0.5-1.8-0.5c-0.5,0-0.9,0.1-1.2,0.4c-0.1,0.1-0.2,0.3-0.1,0.5c0,0.3,0.3,0.5,0.6,0.7
			c0.4,0.2,0.8,0.3,1.2,0.3c0.1,0,0.1,0,0.2,0c0,0.1,0,0.1,0,0.2c0,0.3,0.3,0.4,0.5,0.5c0.4,0.2,0.8,0.3,1.3,0.3s1-0.2,1.3-0.5
			C164.4,187.9,164.5,187.6,164.5,187.2z M160,186.7c0-0.1,0-0.1,0.1-0.2c0.2-0.2,0.5-0.3,0.8-0.3c0.4,0,0.8,0.1,1.1,0.3
			c0.1,0.1,0.2,0.1,0.3,0.2l-0.5,0.3c-0.2,0.1-0.4,0.2-0.7,0.2s-0.5-0.1-0.7-0.2C160.1,186.9,160,186.8,160,186.7z"/>
	</g>
	<g>
		
			<radialGradient id="XMLID_376_" cx="180.05" cy="-7643.791" r="10.6414" gradientTransform="matrix(1 0 0 -0.5172 0 -3760.4131)" gradientUnits="userSpaceOnUse">
			<stop  offset="9.125480e-002" style="stop-color:#3C5185"/>
			<stop  offset="0.2537" style="stop-color:#6F7FA5"/>
			<stop  offset="0.4365" style="stop-color:#A2ACC5"/>
			<stop  offset="0.6088" style="stop-color:#CAD0DE"/>
			<stop  offset="0.7654" style="stop-color:#E7EAF0"/>
			<stop  offset="0.9009" style="stop-color:#F9F9FB"/>
			<stop  offset="1" style="stop-color:#FFFFFF"/>
		</radialGradient>
		<path id="XMLID_1021_" class="st147" d="M172.6,188.7c4.1-2.4,10.8-2.4,14.9,0c4.1,2.4,4.1,6.2,0,8.6c-4.1,2.4-10.8,2.4-14.9,0
			C168.5,194.9,168.5,191,172.6,188.7z"/>
		
			<linearGradient id="XMLID_377_" gradientUnits="userSpaceOnUse" x1="172.3645" y1="63.4" x2="187.4375" y2="63.4" gradientTransform="matrix(1 0 0 -1 0 256)">
			<stop  offset="0" style="stop-color:#3C5185"/>
			<stop  offset="0.128" style="stop-color:#41588E"/>
			<stop  offset="0.6948" style="stop-color:#5573B1"/>
			<stop  offset="1" style="stop-color:#5D7DBE"/>
		</linearGradient>
		<path id="XMLID_1020_" class="st148" d="M187.4,190.6h-0.8c-0.3-0.4-0.8-0.7-1.4-1.1c-2.9-1.7-7.7-1.7-10.7,0
			c-0.6,0.3-1,0.7-1.4,1.1h-0.8v2l0,0c0,1.1,0.7,2.2,2.2,3.1c2.9,1.7,7.7,1.7,10.7,0c1.5-0.9,2.2-2,2.2-3.1l0,0V190.6z"/>
		<path id="XMLID_1019_" class="st6" d="M174.6,187.5c2.9-1.7,7.7-1.7,10.7,0c2.9,1.7,2.9,4.5,0,6.2s-7.7,1.7-10.7,0
			S171.6,189.2,174.6,187.5z"/>
		<path id="XMLID_1014_" class="st2" d="M180.1,192.5c-0.6,0.2-1.4,0.2-2-0.1c-0.5-0.3-0.5-0.7,0-1c0.1,0,0.2-0.1,0.3-0.1l-0.4-1.1
			c-0.3,0-0.7-0.1-1-0.3c-0.5-0.3-0.5-0.7,0-1c0.6-0.2,1.4-0.2,2,0.1c0.3,0.2,0.4,0.3,0.4,0.5l2.1,0.3c0.1-0.1,0.2-0.1,0.3-0.2
			c0.6-0.2,1.4-0.2,2,0.1c0.5,0.3,0.5,0.7,0,1c-0.6,0.2-1.4,0.2-2-0.1c-0.3-0.1-0.4-0.3-0.4-0.5l-2.1-0.3c-0.1,0.1-0.1,0.1-0.2,0.2
			c-0.1,0-0.2,0.1-0.4,0.1l0.4,1.1c0.4,0,0.7,0.1,1,0.3C180.7,191.8,180.7,192.2,180.1,192.5z"/>
	</g>
	<g>
		<path id="XMLID_1011_" class="st52" d="M143.7,173.9l-3.5-4c-0.4-0.5-0.4-1.3,0.1-1.7s1.3-0.4,1.7,0.1l3.5,4
			c0.4,0.5,1,0.4,1.2,0.3c0.2,0,0.7-0.3,0.8-0.9l0.5-3.8c0.1-0.7,0.7-1.1,1.4-1.1c0.7,0.1,1.1,0.7,1.1,1.4L150,172
			c-0.2,1.4-1.1,2.5-2.5,2.9c-0.4,0.1-0.7,0.2-1.1,0.2C145.4,175.1,144.4,174.6,143.7,173.9z"/>
		<circle id="XMLID_1010_" class="st52" cx="141.2" cy="168.8" r="1.5"/>
		
			<linearGradient id="XMLID_378_" gradientUnits="userSpaceOnUse" x1="133.325" y1="85" x2="145.2239" y2="85" gradientTransform="matrix(1 0 0 -1 0 256)">
			<stop  offset="3.802280e-002" style="stop-color:#A5CBEF"/>
			<stop  offset="0.2227" style="stop-color:#B9D7F2"/>
			<stop  offset="0.5251" style="stop-color:#D4E6F7"/>
			<stop  offset="0.794" style="stop-color:#E4F0FA"/>
			<stop  offset="1" style="stop-color:#EAF3FB"/>
		</linearGradient>
		<path id="XMLID_1009_" class="st149" d="M133.4,168.9l5.7,5.8c0.3,0.3,0.6,0.4,1,0.3l4.9-1.3c0.2-0.1,0.3-0.3,0.1-0.5l-5.7-5.9
			c-0.3-0.3-0.7-0.4-1-0.3l-5,1.1C133.3,168.2,133.3,168.7,133.4,168.9z"/>
		<path id="XMLID_1008_" class="st6" d="M133.4,168.4l5.7,5.8c0.3,0.3,0.6,0.4,1,0.3l4.9-1.3c0.2-0.1,0.3-0.3,0.1-0.5l-5.7-5.9
			c-0.3-0.3-0.7-0.4-1-0.3l-4.8,1.3C133.3,168,133.3,168.2,133.4,168.4z"/>
		<path id="XMLID_1007_" class="st2" d="M133.8,168.5l5.4,5.5c0.2,0.3,0.6,0.4,0.9,0.3l4.6-1.2c0.2-0.1,0.3-0.3,0.1-0.5l-5.4-5.5
			c-0.2-0.3-0.6-0.4-1-0.3l-4.5,1.2C133.7,168.1,133.6,168.4,133.8,168.5z"/>
		<g id="XMLID_1005_">
			<path id="XMLID_1006_" class="st52" d="M142.3,169.1l-0.3-0.3c-0.2-0.2-0.6-0.3-0.8-0.1s-0.3,0.6-0.1,0.8l0.3,0.4L142.3,169.1z"
				/>
		</g>
		<path id="XMLID_1004_" class="st6" d="M145.4,216.1l-5-2.6c-0.5-0.3-0.5-1,0-1.2h0.1c0.9-0.4,1.9-0.5,2.8-0.2l3.8,0.9
			c0.4,0.1,0.8,0.5,0.8,0.9v0.8c0,0.3-0.2,0.7-0.5,0.8l-0.9,0.5C146.1,216.2,145.7,216.2,145.4,216.1z"/>
		<path id="XMLID_1003_" class="st52" d="M142.8,213.3L142.8,213.3c0.9-0.4,1.4-1,2.2-0.7l2.1,0.4l0.3,0.6c0,0.3-0.2,0.6-0.4,0.7
			l-0.8,0.4c-0.3,0.2-0.6,0.2-0.9,0L142.8,213.3c-0.1,0.1-0.1,0-0.2,0C142.7,213.4,142.8,213.4,142.8,213.3z"/>
		<path id="XMLID_1002_" class="st6" d="M150.6,213.2l-5-2.6c-0.5-0.3-0.5-1,0-1.2h0.1c0.9-0.4,1.9-0.5,2.8-0.2l3.8,0.9
			c0.4,0.1,0.8,0.5,0.8,0.9v0.8c0,0.3-0.2,0.7-0.5,0.8l-0.9,0.5C151.3,213.4,150.9,213.4,150.6,213.2z"/>
		<path id="XMLID_1001_" class="st52" d="M148.1,210.5L148.1,210.5c0.9-0.4,1.4-1,2.2-0.7l2.1,0.4l0.3,0.6c0,0.3-0.2,0.6-0.4,0.7
			l-0.8,0.4c-0.3,0.2-0.6,0.2-0.9,0L148.1,210.5c-0.1,0.1-0.1,0-0.2,0C148,210.6,148,210.5,148.1,210.5z"/>
		<g id="XMLID_999_">
			<path id="XMLID_1000_" class="st52" d="M151.4,211.8L151.4,211.8c0.9,0,1.2-0.7,1.2-1.6l-0.3-9.2l0.6-9.2c0-0.8-0.6-1.5-1.5-1.6
				c-0.8,0-2.7,0.6-2.8,1.5l0.9,9.3l0.3,9.3C149.9,211.2,150.6,211.8,151.4,211.8z"/>
		</g>
		<g id="XMLID_997_">
			<path id="XMLID_998_" class="st52" d="M145.9,214.8c0.1,0,0.1,0,0.2,0c0.8-0.1,1.1-0.8,1-1.6l-0.1-11.7l2.1-10.7
				c0.2-0.8-1.9,0.2-2.7,0.1c-0.8-0.1-2.5,1.4-2.7,2.2l0.2,8.3l0.4,12.1C144.5,214.2,145.2,214.8,145.9,214.8z"/>
		</g>
		<path id="XMLID_996_" class="st150" d="M151.8,182.8l0.4,1.2c0.2,0.7,0.4,1.4,0.3,2.2l-0.1,2.4l1.6,7.8c-1.4,2.9-8.5,4.9-11.1,2.9
			l0.6-10.3l0,0c-0.2-0.9-0.3-1.8-0.2-2.7l0.1-1.8L151.8,182.8z"/>
		<path id="XMLID_995_" class="st6" d="M147.8,166.8l-0.7,0.4c-2.3,1.3-3.8,2.9-3.8,5.6l-0.3,0.7c-0.4,0.9-0.4,1.9-0.1,2.9l0.4,1.4
			v9c2.1,1.5,7.9-0.6,9-2.9l-0.3-2.1c-0.2-1.3-0.2-2-0.2-3.3l0.3-9.2C152.2,167.1,149.8,165.7,147.8,166.8z"/>
		
			<linearGradient id="XMLID_379_" gradientUnits="userSpaceOnUse" x1="141.6398" y1="70.7963" x2="155.3985" y2="70.7963" gradientTransform="matrix(1 0 0 -1 0 256)">
			<stop  offset="0" style="stop-color:#FFFFFF"/>
			<stop  offset="1" style="stop-color:#A8D9FB"/>
		</linearGradient>
		<path id="XMLID_994_" class="st151" d="M147.8,166.8l-0.7,0.4c-0.2,0.1-0.4,0.2-0.6,0.4c-1.2,0.8-2.1,1.6-2.6,2.7
			c-0.4,0.7-0.6,1.6-0.6,2.6v6.7l-1.7,23.9c1,0.7,3.6,0.6,6.3,0c0.3-0.1,0.6-3,1-3c0.3-0.1,0.5,2.7,0.8,2.6c2.7-0.7,5.2-1.8,5.7-2.9
			L152,182c-0.2-1.3-0.2-2-0.2-3.3l0.3-9.2C152.2,167.1,149.8,165.7,147.8,166.8z"/>
		<path id="XMLID_993_" class="st52" d="M147.8,167.5L147.8,167.5c1.2,0,2.1-1,2.1-2.1v-5h-6.2v3.1
			C143.8,165.7,145.6,167.5,147.8,167.5z"/>
		<path id="XMLID_992_" class="st52" d="M147.9,169.3L147.9,169.3c0.7,0,1.3-0.6,1.3-1.3v-3.4c0-0.2-0.2-0.4-0.4-0.4h-1.7
			c-0.2,0-0.4,0.2-0.4,0.4v3.4C146.6,168.7,147.2,169.3,147.9,169.3z"/>
		<path id="XMLID_991_" class="st152" d="M143.3,177c0.2-0.1,0.6-0.3,0.7-0.9l0.5-3.8c0.1-0.7,0.7-1.1,1.4-1.1
			c0.7,0.1,0.7,0.8,0.6,1.5l-0.1,3.7c-0.2,1.4-1.1,2.5-2.5,2.9c-0.2,0.1-0.4,0.1-0.6,0.1L143.3,177L143.3,177z"/>
		<path id="XMLID_989_" class="st52" d="M140.2,177.7l-3.5-4c-0.4-0.5-0.4-1.3,0.1-1.7s1.3-0.4,1.7,0.1l3.5,4c0.4,0.5,1,0.4,1.2,0.3
			c0.2,0,0.7-0.3,0.8-0.9l0.5-3.8c0.1-0.7,0.7-1.1,1.4-1.1c0.7,0.1,1.1,0.7,1.1,1.4l-0.5,3.8c-0.2,1.4-1.1,2.5-2.5,2.9
			c-0.4,0.1-0.7,0.2-1.1,0.2C141.9,178.9,140.9,178.5,140.2,177.7z"/>
		<g id="XMLID_987_">
			<path id="XMLID_988_" class="st52" d="M139.1,172.7l-0.6-0.7c-0.4-0.5-1.2-0.6-1.7-0.1c-0.5,0.4-0.6,1.2-0.1,1.7l0.7,0.8
				L139.1,172.7z"/>
		</g>
		<circle id="XMLID_986_" class="st52" cx="137.7" cy="172.6" r="1.5"/>
		<g id="XMLID_985_">
			
				<linearGradient id="XMLID_380_" gradientUnits="userSpaceOnUse" x1="142.975" y1="93.6041" x2="151.44" y2="93.6041" gradientTransform="matrix(1 0 0 -1 0 256)">
				<stop  offset="0.1499" style="stop-color:#FF9800"/>
				<stop  offset="1" style="stop-color:#FFC107"/>
			</linearGradient>
			<path id="XMLID_351_" class="st153" d="M143.3,159.1c1.1-1.3,3.6-0.9,5-0.4c1.9,0.6,3.2,1.9,3.1,4c0,1.2-0.6,2.5-1.4,3.3
				c-1,0.9-2.3,0.7-3.1-0.4c-0.3-0.5-0.5-1.1-1-1.4c-0.4-0.2-1-0.3-1.1-0.7c-0.1-0.3,0-0.7,0.2-1c0.1-0.3,0.2-0.8-0.1-1
				s-0.7-0.1-0.9-0.3s-0.4-0.5-0.6-0.7C142.8,160.1,142.9,159.6,143.3,159.1z"/>
		</g>
		<g id="XMLID_2_">
			<path id="XMLID_352_" class="st154" d="M147.3,165.6c-0.3-0.5-0.5-1.1-1-1.4c-0.4-0.2-1-0.3-1.1-0.7c-0.1-0.3,0-0.7,0.2-1
				s0.2-0.8-0.1-1s-0.7-0.1-0.9-0.3s-0.4-0.5-0.6-0.7c-0.5-0.5-0.4-1,0.1-1.5c0.5-0.6,1.3-0.8,2.2-0.9c-1,0-2,0.2-2.6,0.9
				c-0.4,0.5-0.5,1-0.1,1.5c0.2,0.2,0.4,0.5,0.6,0.7c0.3,0.2,0.7,0.1,0.9,0.3c0.3,0.2,0.2,0.6,0.1,1c-0.1,0.3-0.3,0.7-0.2,1
				c0.2,0.4,0.7,0.5,1.1,0.7c0.5,0.3,0.7,0.9,1,1.4c0.5,0.7,1.2,1,1.9,1C148.3,166.5,147.7,166.2,147.3,165.6z"/>
		</g>
		<g id="XMLID_984_">
			
				<linearGradient id="XMLID_381_" gradientUnits="userSpaceOnUse" x1="149.3374" y1="88.222" x2="155.2256" y2="88.222" gradientTransform="matrix(1 0 0 -1 0 256)">
				<stop  offset="0.1499" style="stop-color:#FF9800"/>
				<stop  offset="1" style="stop-color:#FFC107"/>
			</linearGradient>
			<path id="XMLID_353_" class="st155" d="M149.5,163.1l0.3-0.1c0.2-0.8,0.9-1.4,1.6-1.7c1.3-0.5,3,0.3,3.7,1.5
				c0.6,1.2-0.1,3.2-0.6,4.3c-1,2.1-3.1,3.9-2,6.4c0.1,0.2,0.3,0.5,0.1,0.8c-0.4,0.6-1.2-1.5-1.3-1.7c-0.5-1-1-2-0.9-3.2
				c0.1-0.8,0.4-1.6,0.6-2.4c0.2-0.8,0.1-1.7-0.5-2.3c-0.3-0.3-0.8-0.4-1-0.8C149.3,163.8,149.3,163.4,149.5,163.1z"/>
		</g>
		<g id="XMLID_983_" class="st9">
			<path id="XMLID_354_" class="st156" d="M149.4,163.3c0.3,0.4,0.7-0.1,1.1,0.2c0.7,0.5,1.4,1.4,1.3,2.3c-0.1,0.9-0.5,1.9-0.4,2.7
				c0,1.1,0.2,3.3,0.7,4.2c-0.1,0.6,0,0.2,0.3,0.8c0.1,0.2,0.3,0.5,0.1,0.8c-0.4,0.6-1.2-1.5-1.3-1.7c-0.5-1-1-2-0.9-3.2
				c0.1-0.8,0.4-1.6,0.6-2.4c0.2-0.8,0.1-1.7-0.5-2.3c-0.3-0.3-0.8-0.4-1-0.8C149.3,163.9,149.3,163.5,149.4,163.3L149.4,163.3z"/>
		</g>
		<path id="XMLID_982_" class="st6" d="M149.2,163.5L149.2,163.5c0.3,0.2,0.3-0.1,0.4-0.3c0.1-0.3,0.3-0.6,0.5-0.9
			c0.1-0.2,0.3-0.3,0.1-0.4h-0.1c-0.2-0.1-0.4-0.1-0.5,0.1c-0.2,0.3-0.4,0.7-0.6,1C149,163.2,149.1,163.4,149.2,163.5z"/>
		
			<linearGradient id="XMLID_382_" gradientUnits="userSpaceOnUse" x1="147.535" y1="84.4895" x2="134.7949" y2="74.2081" gradientTransform="matrix(1 0 0 -1 0 256)">
			<stop  offset="0" style="stop-color:#A8D9FB"/>
			<stop  offset="1" style="stop-color:#FFFFFF"/>
		</linearGradient>
		<path id="XMLID_1_" class="st157" d="M142.9,179.1c-1.1,0-2.1-0.5-2.8-1.3l-2.1-2.4c-0.2-0.3,1.4-2.7,1.7-2.4l2.6,3
			c0.2,0.2,0.4,0.3,0.7,0.3c0.1,0,0.2,0,0.3,0s0.6-0.2,0.6-0.8l0.5-3.8c0.1-0.7,0.7-1.2,1.4-1.2c0.1,0,0.1,0,0.2,0
			c0.4,0,0.7,0.2,0.9,0.5s0.3,0.7,0.3,1l-0.5,3.8c-0.2,1.5-1.2,2.7-2.6,3.1C143.6,179,143.2,179.1,142.9,179.1z"/>
	</g>
</g>
</svg>
