<?xml version="1.0" encoding="utf-8"?>
<!-- Generator: Adobe Illustrator 19.0.0, SVG Export Plug-In . SVG Version: 6.00 Build 0)  -->
<svg version="1.1" id="Layer_1" xmlns="http://www.w3.org/2000/svg" xmlns:xlink="http://www.w3.org/1999/xlink" x="0px" y="0px"
	 viewBox="0 0 256 256" style="enable-background:new 0 0 256 256;" xml:space="preserve">
<style type="text/css">
	.st0{fill:url(#XMLID_23_);}
	.st1{fill:#FFFFFF;fill-opacity:0;}
	.st2{opacity:1.960800e-002;fill:#FBFBFD;enable-background:new    ;}
	.st3{opacity:3.921600e-002;fill:#F7F8FB;enable-background:new    ;}
	.st4{opacity:5.882400e-002;fill:#F2F4FA;enable-background:new    ;}
	.st5{opacity:7.843100e-002;fill:#EEF0F8;enable-background:new    ;}
	.st6{opacity:9.803900e-002;fill:#EAECF6;enable-background:new    ;}
	.st7{opacity:0.1176;fill:#E6E9F4;enable-background:new    ;}
	.st8{opacity:0.1373;fill:#E1E5F2;enable-background:new    ;}
	.st9{opacity:0.1569;fill:#DDE1F0;enable-background:new    ;}
	.st10{opacity:0.1765;fill:#D9DEEF;enable-background:new    ;}
	.st11{opacity:0.1961;fill:#D5DAED;enable-background:new    ;}
	.st12{opacity:0.2157;fill:#D1D6EB;enable-background:new    ;}
	.st13{opacity:0.2353;fill:#CCD3E9;enable-background:new    ;}
	.st14{opacity:0.2549;fill:#C8CFE7;enable-background:new    ;}
	.st15{opacity:0.2745;fill:#C4CBE5;enable-background:new    ;}
	.st16{opacity:0.2941;fill:#C0C7E4;enable-background:new    ;}
	.st17{opacity:0.3137;fill:#BCC4E2;enable-background:new    ;}
	.st18{opacity:0.3333;fill:#B7C0E0;enable-background:new    ;}
	.st19{opacity:0.3529;fill:#B3BCDE;enable-background:new    ;}
	.st20{opacity:0.3725;fill:#AFB9DC;enable-background:new    ;}
	.st21{opacity:0.3922;fill:#ABB5DB;enable-background:new    ;}
	.st22{opacity:0.4118;fill:#A6B1D9;enable-background:new    ;}
	.st23{opacity:0.4314;fill:#A2ADD7;enable-background:new    ;}
	.st24{opacity:0.451;fill:#9EAAD5;enable-background:new    ;}
	.st25{opacity:0.4706;fill:#9AA6D3;enable-background:new    ;}
	.st26{opacity:0.4902;fill:#96A2D1;enable-background:new    ;}
	.st27{opacity:0.5098;fill:#919FD0;enable-background:new    ;}
	.st28{opacity:0.5294;fill:#8D9BCE;enable-background:new    ;}
	.st29{opacity:0.549;fill:#8997CC;enable-background:new    ;}
	.st30{opacity:0.5686;fill:#8594CA;enable-background:new    ;}
	.st31{opacity:0.5882;fill:#8190C8;enable-background:new    ;}
	.st32{opacity:0.6078;fill:#7C8CC6;enable-background:new    ;}
	.st33{opacity:0.6275;fill:#7888C5;enable-background:new    ;}
	.st34{opacity:0.6471;fill:#7485C3;enable-background:new    ;}
	.st35{opacity:0.6667;fill:#7081C1;enable-background:new    ;}
	.st36{opacity:0.6863;fill:#6B7DBF;enable-background:new    ;}
	.st37{opacity:0.7059;fill:#677ABD;enable-background:new    ;}
	.st38{opacity:0.7255;fill:#6376BC;enable-background:new    ;}
	.st39{opacity:0.7451;fill:#5F72BA;enable-background:new    ;}
	.st40{opacity:0.7647;fill:#5B6EB8;enable-background:new    ;}
	.st41{opacity:0.7843;fill:#566BB6;enable-background:new    ;}
	.st42{opacity:0.8039;fill:#5267B4;enable-background:new    ;}
	.st43{opacity:0.8235;fill:#4E63B2;enable-background:new    ;}
	.st44{opacity:0.8431;fill:#4A60B1;enable-background:new    ;}
	.st45{opacity:0.8627;fill:#465CAF;enable-background:new    ;}
	.st46{opacity:0.8824;fill:#4158AD;enable-background:new    ;}
	.st47{opacity:0.902;fill:#3D55AB;enable-background:new    ;}
	.st48{opacity:0.9216;fill:#3951A9;enable-background:new    ;}
	.st49{opacity:0.9412;fill:#354DA7;enable-background:new    ;}
	.st50{opacity:0.9608;fill:#3049A6;enable-background:new    ;}
	.st51{opacity:0.9804;fill:#2C46A4;enable-background:new    ;}
	.st52{fill:#2842A2;}
	.st53{fill:#FFC107;}
	.st54{fill:#FFAD33;}
	.st55{fill:#FFCD39;}
	.st56{fill:#FF9800;}
	.st57{fill:url(#XMLID_27_);}
	.st58{fill:url(#XMLID_28_);}
	.st59{fill:#F6F8FB;}
	.st60{fill:url(#XMLID_95_);}
	.st61{fill:#3C5185;}
	.st62{fill:url(#XMLID_114_);}
	.st63{fill:url(#XMLID_320_);}
	.st64{fill:url(#XMLID_321_);}
	.st65{fill:url(#XMLID_322_);}
	.st66{fill:url(#XMLID_323_);}
	.st67{fill:#FAFBFD;}
	.st68{fill:url(#XMLID_324_);}
	.st69{opacity:0.3;}
	.st70{fill:#3C5185;fill-opacity:0;}
	.st71{opacity:2.439000e-002;fill:#3C5185;enable-background:new    ;}
	.st72{opacity:4.878000e-002;fill:#3C5185;enable-background:new    ;}
	.st73{opacity:7.317100e-002;fill:#3C5185;enable-background:new    ;}
	.st74{opacity:9.756100e-002;fill:#3C5185;enable-background:new    ;}
	.st75{opacity:0.122;fill:#3C5185;enable-background:new    ;}
	.st76{opacity:0.1463;fill:#3C5185;enable-background:new    ;}
	.st77{opacity:0.1707;fill:#3C5185;enable-background:new    ;}
	.st78{opacity:0.1951;fill:#3C5185;enable-background:new    ;}
	.st79{opacity:0.2195;fill:#3C5185;enable-background:new    ;}
	.st80{opacity:0.2439;fill:#3C5185;enable-background:new    ;}
	.st81{opacity:0.2683;fill:#3C5185;enable-background:new    ;}
	.st82{opacity:0.2927;fill:#3C5185;enable-background:new    ;}
	.st83{opacity:0.3171;fill:#3C5185;enable-background:new    ;}
	.st84{opacity:0.3415;fill:#3C5185;enable-background:new    ;}
	.st85{opacity:0.3659;fill:#3C5185;enable-background:new    ;}
	.st86{opacity:0.3902;fill:#3C5185;enable-background:new    ;}
	.st87{opacity:0.4146;fill:#3C5185;enable-background:new    ;}
	.st88{opacity:0.439;fill:#3C5185;enable-background:new    ;}
	.st89{opacity:0.4634;fill:#3C5185;enable-background:new    ;}
	.st90{opacity:0.4878;fill:#3C5185;enable-background:new    ;}
	.st91{opacity:0.5122;fill:#3C5185;enable-background:new    ;}
	.st92{opacity:0.5366;fill:#3C5185;enable-background:new    ;}
	.st93{opacity:0.561;fill:#3C5185;enable-background:new    ;}
	.st94{opacity:0.5854;fill:#3C5185;enable-background:new    ;}
	.st95{opacity:0.6098;fill:#3C5185;enable-background:new    ;}
	.st96{opacity:0.6341;fill:#3C5185;enable-background:new    ;}
	.st97{opacity:0.6585;fill:#3C5185;enable-background:new    ;}
	.st98{opacity:0.6829;fill:#3C5185;enable-background:new    ;}
	.st99{opacity:0.7073;fill:#3C5185;enable-background:new    ;}
	.st100{opacity:0.7317;fill:#3C5185;enable-background:new    ;}
	.st101{opacity:0.7561;fill:#3C5185;enable-background:new    ;}
	.st102{opacity:0.7805;fill:#3C5185;enable-background:new    ;}
	.st103{opacity:0.8049;fill:#3C5185;enable-background:new    ;}
	.st104{opacity:0.8293;fill:#3C5185;enable-background:new    ;}
	.st105{opacity:0.8537;fill:#3C5185;enable-background:new    ;}
	.st106{opacity:0.878;fill:#3C5185;enable-background:new    ;}
	.st107{opacity:0.9024;fill:#3C5185;enable-background:new    ;}
	.st108{opacity:0.9268;fill:#3C5185;enable-background:new    ;}
	.st109{opacity:0.9512;fill:#3C5185;enable-background:new    ;}
	.st110{opacity:0.9756;fill:#3C5185;enable-background:new    ;}
	.st111{fill:url(#XMLID_325_);}
	.st112{fill:url(#XMLID_326_);}
	.st113{fill:url(#XMLID_328_);}
	.st114{fill:#63749D;}
	.st115{fill:#4F6291;}
	.st116{fill:#F2F6FC;}
	.st117{fill:#D8E5F5;}
	.st118{fill:#E8EFF9;}
	.st119{fill:url(#XMLID_329_);}
	.st120{fill:#E5E9F4;}
	.st121{fill:#A5CBEF;}
	.st122{fill:url(#XMLID_330_);}
	.st123{fill:url(#XMLID_331_);}
	.st124{fill:url(#XMLID_332_);}
	.st125{fill:#FFE188;}
	.st126{fill:url(#XMLID_333_);}
	.st127{fill:url(#XMLID_334_);}
	.st128{fill:url(#XMLID_336_);}
	.st129{fill:#FFDA6A;}
	.st130{fill:url(#XMLID_337_);}
	.st131{fill:url(#XMLID_338_);}
	.st132{fill:url(#XMLID_339_);}
	.st133{fill:url(#XMLID_340_);}
	.st134{fill:url(#XMLID_341_);}
	.st135{opacity:0.3;fill:#3C5185;enable-background:new    ;}
	.st136{fill:url(#XMLID_342_);}
	.st137{fill:#F2B1B5;}
	.st138{fill:#FFFFFF;}
	.st139{opacity:0.3;fill:#48486A;enable-background:new    ;}
	.st140{fill:url(#XMLID_378_);}
	.st141{fill:#4A65A3;}
	.st142{fill:url(#XMLID_475_);}
	.st143{fill:url(#XMLID_476_);}
	.st144{fill:#231F20;}
	.st145{opacity:0.2;fill:#EF9EA3;enable-background:new    ;}
	.st146{fill:#EF9EA3;}
	.st147{fill:#48486A;}
	.st148{fill:url(#XMLID_477_);}
	.st149{fill:url(#XMLID_478_);}
	.st150{fill:url(#XMLID_479_);}
	.st151{fill:url(#XMLID_480_);}
	.st152{fill:url(#XMLID_484_);}
	.st153{fill:url(#XMLID_485_);}
	.st154{fill:url(#XMLID_486_);}
	.st155{fill:url(#XMLID_487_);}
</style>
<g>
	
		<linearGradient id="XMLID_23_" gradientUnits="userSpaceOnUse" x1="150.0308" y1="38.6016" x2="100.8697" y2="198.9099" gradientTransform="matrix(1 0 0 -1 0 256)">
		<stop  offset="0.1103" style="stop-color:#FFFFFF"/>
		<stop  offset="1" style="stop-color:#E1EBF7"/>
	</linearGradient>
	<path id="XMLID_474_" class="st0" d="M211.1,144.5c0,42.4-41.9,72.4-84.4,72.4S44.9,187,44.9,144.5s25.4-88.4,67.9-88.4
		S211.1,102.1,211.1,144.5z"/>
	<g>
		<g>
			<g>
				<path id="XMLID_156_" class="st1" d="M181.5,105.5c-5.6-3.2-14.7-3.2-20.3,0s-5.6,8.5,0,11.7s14.7,3.2,20.3,0
					S187.1,108.7,181.5,105.5z"/>
				<path id="XMLID_473_" class="st2" d="M181.3,105.6c-5.5-3.2-14.5-3.2-20,0s-5.5,8.4,0,11.5c5.5,3.2,14.5,3.2,20,0
					C186.8,114,186.8,108.8,181.3,105.6z"/>
				<path id="XMLID_472_" class="st3" d="M181.2,105.7c-5.4-3.1-14.3-3.1-19.7,0s-5.4,8.2,0,11.4c5.4,3.1,14.3,3.1,19.7,0
					C186.6,113.9,186.6,108.8,181.2,105.7z"/>
				<path id="XMLID_471_" class="st4" d="M181,105.8c-5.3-3.1-14-3.1-19.3,0s-5.3,8.1,0,11.2s14,3.1,19.3,0S186.3,108.9,181,105.8z"
					/>
				<path id="XMLID_470_" class="st5" d="M180.8,105.9c-5.2-3-13.8-3-19,0s-5.2,8,0,11s13.8,3,19,0
					C186.1,113.9,186.1,108.9,180.8,105.9z"/>
				<path id="XMLID_469_" class="st6" d="M180.7,106c-5.1-3-13.6-3-18.7,0c-5.1,3-5.1,7.8,0,10.8s13.6,3,18.7,0
					C185.8,113.8,185.8,109,180.7,106z"/>
				<path id="XMLID_468_" class="st7" d="M180.5,106.1c-5.1-2.9-13.3-2.9-18.4,0c-5.1,2.9-5.1,7.7,0,10.6s13.3,2.9,18.4,0
					C185.6,113.8,185.6,109,180.5,106.1z"/>
				<path id="XMLID_467_" class="st8" d="M180.4,106.2c-5-2.9-13.1-2.9-18.1,0s-5,7.6,0,10.4c5,2.9,13.1,2.9,18.1,0
					C185.3,113.7,185.3,109,180.4,106.2z"/>
				<path id="XMLID_466_" class="st9" d="M180.2,106.3c-4.9-2.8-12.9-2.8-17.7,0c-4.9,2.8-4.9,7.4,0,10.2c4.9,2.8,12.9,2.8,17.7,0
					C185.1,113.7,185.1,109.1,180.2,106.3z"/>
				<path id="XMLID_465_" class="st10" d="M180,106.4c-4.8-2.8-12.6-2.8-17.4,0c-4.8,2.8-4.8,7.3,0,10.1c4.8,2.8,12.6,2.8,17.4,0
					C184.8,113.6,184.8,109.1,180,106.4z"/>
				<path id="XMLID_464_" class="st11" d="M179.9,106.5c-4.7-2.7-12.4-2.7-17.1,0c-4.7,2.7-4.7,7.2,0,9.9c4.7,2.7,12.4,2.7,17.1,0
					C184.6,113.6,184.6,109.2,179.9,106.5z"/>
				<path id="XMLID_463_" class="st12" d="M179.7,106.5c-4.6-2.7-12.2-2.7-16.8,0s-4.6,7,0,9.7s12.2,2.7,16.8,0
					C184.3,113.6,184.3,109.2,179.7,106.5z"/>
				<path id="XMLID_462_" class="st13" d="M179.5,106.6c-4.5-2.6-11.9-2.6-16.4,0s-4.5,6.9,0,9.5s11.9,2.6,16.4,0
					C184.1,113.5,184.1,109.2,179.5,106.6z"/>
				<path id="XMLID_461_" class="st14" d="M179.4,106.7c-4.4-2.6-11.7-2.6-16.1,0c-4.4,2.6-4.4,6.8,0,9.3c4.4,2.6,11.7,2.6,16.1,0
					C183.8,113.5,183.8,109.3,179.4,106.7z"/>
				<path id="XMLID_460_" class="st15" d="M179.2,106.8c-4.3-2.5-11.5-2.5-15.8,0s-4.3,6.6,0,9.1s11.5,2.5,15.8,0
					C183.6,113.4,183.6,109.3,179.2,106.8z"/>
				<path id="XMLID_459_" class="st16" d="M179.1,106.9c-4.3-2.5-11.2-2.5-15.5,0s-4.3,6.5,0,8.9c4.3,2.5,11.2,2.5,15.5,0
					C183.3,113.4,183.3,109.4,179.1,106.9z"/>
				<path id="XMLID_458_" class="st17" d="M178.9,107c-4.2-2.4-11-2.4-15.2,0s-4.2,6.3,0,8.8c4.2,2.4,11,2.4,15.2,0
					C183.1,113.4,183.1,109.4,178.9,107z"/>
				<path id="XMLID_457_" class="st18" d="M178.7,107.1c-4.1-2.4-10.8-2.4-14.8,0c-4.1,2.4-4.1,6.2,0,8.6s10.8,2.4,14.8,0
					C182.8,113.3,182.8,109.5,178.7,107.1z"/>
				<path id="XMLID_456_" class="st19" d="M178.6,107.2c-4-2.3-10.5-2.3-14.5,0s-4,6.1,0,8.4s10.5,2.3,14.5,0
					C182.6,113.3,182.6,109.5,178.6,107.2z"/>
				<path id="XMLID_455_" class="st20" d="M178.4,107.3c-3.9-2.3-10.3-2.3-14.2,0s-3.9,5.9,0,8.2c3.9,2.3,10.3,2.3,14.2,0
					C182.3,113.2,182.3,109.5,178.4,107.3z"/>
				<path id="XMLID_454_" class="st21" d="M178.3,107.4c-3.8-2.2-10.1-2.2-13.9,0c-3.8,2.2-3.8,5.8,0,8s10.1,2.2,13.9,0
					C182.1,113.2,182.1,109.6,178.3,107.4z"/>
				<path id="XMLID_453_" class="st22" d="M178.1,107.5c-3.7-2.2-9.8-2.2-13.5,0s-3.7,5.7,0,7.8c3.7,2.2,9.8,2.2,13.5,0
					C181.8,113.1,181.8,109.6,178.1,107.5z"/>
				<path id="XMLID_449_" class="st23" d="M177.9,107.6c-3.6-2.1-9.6-2.1-13.2,0c-3.6,2.1-3.6,5.5,0,7.6s9.6,2.1,13.2,0
					C181.6,113.1,181.6,109.7,177.9,107.6z"/>
				<path id="XMLID_448_" class="st24" d="M177.8,107.7c-3.5-2-9.4-2-12.9,0s-3.5,5.4,0,7.5c3.5,2,9.4,2,12.9,0
					C181.3,113.1,181.3,109.7,177.8,107.7z"/>
				<path id="XMLID_447_" class="st25" d="M177.6,107.8c-3.5-2-9.1-2-12.6,0s-3.5,5.3,0,7.3s9.1,2,12.6,0
					C181.1,113,181.1,109.8,177.6,107.8z"/>
				<path id="XMLID_446_" class="st26" d="M177.5,107.8c-3.4-1.9-8.9-1.9-12.3,0c-3.4,1.9-3.4,5.1,0,7.1c3.4,1.9,8.9,1.9,12.3,0
					C180.8,113,180.8,109.8,177.5,107.8z"/>
				<path id="XMLID_445_" class="st27" d="M177.3,107.9c-3.3-1.9-8.7-1.9-11.9,0c-3.3,1.9-3.3,5,0,6.9s8.7,1.9,11.9,0
					C180.6,112.9,180.6,109.8,177.3,107.9z"/>
				<path id="XMLID_443_" class="st28" d="M177.1,108c-3.2-1.8-8.4-1.8-11.6,0c-3.2,1.8-3.2,4.9,0,6.7c3.2,1.8,8.4,1.8,11.6,0
					C180.3,112.9,180.3,109.9,177.1,108z"/>
				<path id="XMLID_442_" class="st29" d="M177,108.1c-3.1-1.8-8.2-1.8-11.3,0s-3.1,4.7,0,6.5s8.2,1.8,11.3,0
					C180.1,112.9,180.1,109.9,177,108.1z"/>
				<path id="XMLID_437_" class="st30" d="M176.8,108.2c-3-1.7-8-1.7-11,0s-3,4.6,0,6.3c3,1.7,8,1.7,11,0S179.8,110,176.8,108.2z"/>
				<path id="XMLID_436_" class="st31" d="M176.6,108.3c-2.9-1.7-7.7-1.7-10.7,0c-2.9,1.7-2.9,4.5,0,6.1c2.9,1.7,7.7,1.7,10.7,0
					C179.6,112.8,179.6,110,176.6,108.3z"/>
				<path id="XMLID_435_" class="st32" d="M176.5,108.4c-2.8-1.6-7.5-1.6-10.3,0s-2.8,4.3,0,6c2.8,1.6,7.5,1.6,10.3,0
					C179.3,112.7,179.3,110,176.5,108.4z"/>
				<path id="XMLID_417_" class="st33" d="M176.3,108.5c-2.8-1.6-7.3-1.6-10,0c-2.8,1.6-2.8,4.2,0,5.8c2.8,1.6,7.3,1.6,10,0
					C179.1,112.7,179.1,110.1,176.3,108.5z"/>
				<path id="XMLID_416_" class="st34" d="M176.2,108.6c-2.7-1.5-7-1.5-9.7,0s-2.7,4.1,0,5.6s7,1.5,9.7,0
					C178.8,112.6,178.8,110.1,176.2,108.6z"/>
				<path id="XMLID_415_" class="st35" d="M176,108.7c-2.6-1.5-6.8-1.5-9.4,0c-2.6,1.5-2.6,3.9,0,5.4s6.8,1.5,9.4,0
					C178.6,112.6,178.6,110.2,176,108.7z"/>
				<path id="XMLID_414_" class="st36" d="M175.8,108.8c-2.5-1.4-6.6-1.4-9,0c-2.5,1.4-2.5,3.8,0,5.2c2.5,1.4,6.6,1.4,9,0
					C178.3,112.6,178.3,110.2,175.8,108.8z"/>
				<path id="XMLID_413_" class="st37" d="M175.7,108.9c-2.4-1.4-6.3-1.4-8.7,0s-2.4,3.6,0,5s6.3,1.4,8.7,0S178.1,110.3,175.7,108.9
					z"/>
				<path id="XMLID_412_" class="st38" d="M175.5,109c-2.3-1.3-6.1-1.3-8.4,0c-2.3,1.3-2.3,3.5,0,4.8s6.1,1.3,8.4,0
					C177.8,112.5,177.8,110.3,175.5,109z"/>
				<path id="XMLID_411_" class="st39" d="M175.4,109.1c-2.2-1.3-5.9-1.3-8.1,0c-2.2,1.3-2.2,3.4,0,4.7c2.2,1.3,5.9,1.3,8.1,0
					C177.6,112.4,177.6,110.3,175.4,109.1z"/>
				<path id="XMLID_410_" class="st40" d="M175.2,109.1c-2.1-1.2-5.6-1.2-7.8,0c-2.1,1.2-2.1,3.2,0,4.5c2.1,1.2,5.6,1.2,7.8,0
					C177.3,112.4,177.3,110.4,175.2,109.1z"/>
				<path id="XMLID_409_" class="st41" d="M175,109.2c-2-1.2-5.4-1.2-7.4,0s-2,3.1,0,4.3c2,1.2,5.4,1.2,7.4,0
					C177.1,112.4,177.1,110.4,175,109.2z"/>
				<path id="XMLID_408_" class="st42" d="M174.9,109.3c-2-1.1-5.2-1.1-7.1,0c-2,1.1-2,3,0,4.1s5.2,1.1,7.1,0
					S176.8,110.5,174.9,109.3z"/>
				<path id="XMLID_407_" class="st43" d="M174.7,109.4c-1.9-1.1-4.9-1.1-6.8,0c-1.9,1.1-1.9,2.8,0,3.9s4.9,1.1,6.8,0
					C176.6,112.3,176.6,110.5,174.7,109.4z"/>
				<path id="XMLID_406_" class="st44" d="M174.6,109.5c-1.8-1-4.7-1-6.5,0s-1.8,2.7,0,3.7s4.7,1,6.5,0
					C176.3,112.2,176.3,110.5,174.6,109.5z"/>
				<path id="XMLID_405_" class="st45" d="M174.4,109.6c-1.7-1-4.5-1-6.1,0c-1.7,1-1.7,2.6,0,3.5c1.7,1,4.5,1,6.1,0
					C176.1,112.2,176.1,110.6,174.4,109.6z"/>
				<path id="XMLID_404_" class="st46" d="M174.2,109.7c-1.6-0.9-4.2-0.9-5.8,0s-1.6,2.4,0,3.4s4.2,0.9,5.8,0
					S175.8,110.6,174.2,109.7z"/>
				<path id="XMLID_403_" class="st47" d="M174.1,109.8c-1.5-0.9-4-0.9-5.5,0s-1.5,2.3,0,3.2s4,0.9,5.5,0S175.6,110.7,174.1,109.8z"
					/>
				<path id="XMLID_402_" class="st48" d="M173.9,109.9c-1.4-0.8-3.8-0.8-5.2,0s-1.4,2.2,0,3s3.8,0.8,5.2,0
					C175.3,112.1,175.3,110.7,173.9,109.9z"/>
				<path id="XMLID_401_" class="st49" d="M173.7,110c-1.3-0.8-3.5-0.8-4.9,0c-1.3,0.8-1.3,2,0,2.8s3.5,0.8,4.9,0
					C175.1,112,175.1,110.8,173.7,110z"/>
				<path id="XMLID_400_" class="st50" d="M173.6,110.1c-1.2-0.7-3.3-0.7-4.5,0s-1.2,1.9,0,2.6s3.3,0.7,4.5,0
					S174.8,110.8,173.6,110.1z"/>
				<path id="XMLID_399_" class="st51" d="M173.4,110.2c-1.2-0.7-3.1-0.7-4.2,0c-1.2,0.7-1.2,1.8,0,2.4c1.2,0.7,3.1,0.7,4.2,0
					C174.6,111.9,174.6,110.8,173.4,110.2z"/>
				<path id="XMLID_155_" class="st52" d="M173.3,110.3c-1.1-0.6-2.8-0.6-3.9,0c-1.1,0.6-1.1,1.6,0,2.2s2.8,0.6,3.9,0
					C174.3,111.9,174.3,110.9,173.3,110.3z"/>
			</g>
			<g>
				<path id="XMLID_154_" class="st53" d="M181.3,108.7h-0.9c-0.4-0.5-1-1-1.7-1.4c-3.5-2-9.2-2-12.7,0c-0.7,0.4-1.3,0.9-1.7,1.4
					h-0.9v1.9l0,0c-0.2,1.4,0.7,2.9,2.6,4c3.5,2,9.2,2,12.7,0c1.9-1.1,2.8-2.6,2.6-4l0,0L181.3,108.7L181.3,108.7z"/>
				<g id="XMLID_316_">
					<path id="XMLID_153_" class="st54" d="M167.8,106.5c-0.3,0.1-0.6,0.2-0.9,0.3v8.3c0.3,0.1,0.6,0.2,0.9,0.3V106.5z"/>
					<path id="XMLID_152_" class="st54" d="M165.1,107.9v6.2c0.3,0.2,0.5,0.4,0.8,0.6l0,0v-7.4l0,0
						C165.6,107.5,165.4,107.7,165.1,107.9z"/>
					<path id="XMLID_151_" class="st54" d="M169.5,106.1c-0.3,0.1-0.6,0.1-0.9,0.2v9.5c0.3,0.1,0.6,0.1,0.9,0.2V106.1z"/>
					<path id="XMLID_150_" class="st54" d="M179.3,107.7v6.5c0.3-0.2,0.6-0.5,0.9-0.8v-5C179.9,108.2,179.6,108,179.3,107.7z"/>
					<path id="XMLID_128_" class="st54" d="M181.1,112.1c0.2-0.5,0.2-1,0.2-1.4l0,0v-1.9h-0.2V112.1z"/>
					<path id="XMLID_127_" class="st54" d="M176.6,106.4c-0.3-0.1-0.6-0.2-0.9-0.2v9.6c0.3-0.1,0.6-0.2,0.9-0.2V106.4z"/>
					<path id="XMLID_126_" class="st54" d="M164.2,113.2v-4.6h-0.9v1.9l0,0C163.3,111.5,163.5,112.4,164.2,113.2z"/>
					<path id="XMLID_125_" class="st54" d="M178.4,107.2c-0.3-0.2-0.6-0.3-0.9-0.4v8.4c0.3-0.1,0.6-0.3,0.9-0.4V107.2z"/>
					<path id="XMLID_116_" class="st54" d="M171.3,105.8c-0.3,0-0.6,0-0.9,0.1V116c0.3,0,0.6,0.1,0.9,0.1V105.8z"/>
					<path id="XMLID_318_" class="st54" d="M173.1,116.2v-10.3c-0.3,0-0.6,0-0.9,0v10.4C172.5,116.2,172.8,116.2,173.1,116.2z"/>
					<path id="XMLID_317_" class="st54" d="M174.9,106c-0.3,0-0.6-0.1-0.9-0.1v10.2c0.3,0,0.6-0.1,0.9-0.1V106z"/>
				</g>
				<path id="XMLID_315_" class="st55" d="M178.7,104.7c-3.5-2-9.2-2-12.7,0s-3.5,5.3,0,7.3s9.2,2,12.7,0
					C182.2,110.1,182.2,106.8,178.7,104.7z"/>
				<path id="XMLID_314_" class="st54" d="M178,104.9c-3.1-1.8-8.3-1.8-11.5,0c-3.1,1.8-3.1,4.8,0,6.6c3.1,1.8,8.3,1.8,11.5,0
					S181.2,106.8,178,104.9z"/>
				<path id="XMLID_313_" class="st55" d="M177.3,105.3c-2.8-1.6-7.3-1.6-10,0c-2.8,1.6-2.8,4.1,0,5.7s7.3,1.6,10,0
					C180.1,109.5,180.1,106.9,177.3,105.3z"/>
				<g id="XMLID_308_">
					<g id="XMLID_311_">
						<path id="XMLID_312_" class="st56" d="M173,110.2h-2.5c-0.6,0-1-0.3-1-0.6v-0.3h1.5v0.1h2.1c0.4,0,0.7-0.2,0.7-0.4
							c0-0.1-0.2-0.3-0.5-0.3h-1.8c-1.1,0-2-0.5-2-1.1v-0.2c0-0.7,1-1.3,2.2-1.3h2.5c0.6,0,1,0.3,1,0.6v0.4h-1.5V107h-2.1
							c-0.4,0-0.7,0.2-0.7,0.4v0.2c0,0.2,0.2,0.3,0.5,0.3h1.8c1.1,0,2,0.5,2,1.1C175.2,109.6,174.2,110.2,173,110.2z"/>
					</g>
					<g id="XMLID_309_">
						<rect id="XMLID_310_" x="171.6" y="105.6" class="st56" width="1.5" height="5.1"/>
					</g>
				</g>
			</g>
		</g>
		<g>
			<g>
				<path id="XMLID_206_" class="st53" d="M181.3,104.9h-0.9c-0.4-0.5-1-1-1.7-1.4c-3.5-2-9.2-2-12.7,0c-0.7,0.4-1.3,0.9-1.7,1.4
					h-0.9v1.9l0,0c-0.2,1.4,0.7,2.9,2.6,4c3.5,2,9.2,2,12.7,0c1.9-1.1,2.8-2.6,2.6-4l0,0L181.3,104.9L181.3,104.9z"/>
				<g id="XMLID_194_">
					<path id="XMLID_205_" class="st54" d="M167.8,102.7c-0.3,0.1-0.6,0.2-0.9,0.3v8.3c0.3,0.1,0.6,0.2,0.9,0.3V102.7z"/>
					<path id="XMLID_204_" class="st54" d="M165.1,104.1v6.2c0.3,0.2,0.5,0.4,0.8,0.6l0,0v-7.4l0,0
						C165.6,103.7,165.4,103.9,165.1,104.1z"/>
					<path id="XMLID_203_" class="st54" d="M169.5,102.3c-0.3,0.1-0.6,0.1-0.9,0.2v9.5c0.3,0.1,0.6,0.1,0.9,0.2V102.3z"/>
					<path id="XMLID_202_" class="st54" d="M179.3,104v6.5c0.3-0.2,0.6-0.5,0.9-0.8v-5C179.9,104.5,179.6,104.2,179.3,104z"/>
					<path id="XMLID_201_" class="st54" d="M181.1,108.3c0.2-0.5,0.2-1,0.2-1.4l0,0V105h-0.2V108.3z"/>
					<path id="XMLID_200_" class="st54" d="M176.6,102.7c-0.3-0.1-0.6-0.2-0.9-0.2v9.6c0.3-0.1,0.6-0.2,0.9-0.2V102.7z"/>
					<path id="XMLID_199_" class="st54" d="M164.2,109.5v-4.6h-0.9v1.9l0,0C163.3,107.8,163.5,108.7,164.2,109.5z"/>
					<path id="XMLID_198_" class="st54" d="M178.4,103.4c-0.3-0.2-0.6-0.3-0.9-0.4v8.4c0.3-0.1,0.6-0.3,0.9-0.4V103.4z"/>
					<path id="XMLID_197_" class="st54" d="M171.3,102.1c-0.3,0-0.6,0-0.9,0.1v10.1c0.3,0,0.6,0.1,0.9,0.1V102.1z"/>
					<path id="XMLID_196_" class="st54" d="M173.1,112.4v-10.3c-0.3,0-0.6,0-0.9,0v10.4C172.5,112.4,172.8,112.4,173.1,112.4z"/>
					<path id="XMLID_195_" class="st54" d="M174.9,102.2c-0.3,0-0.6-0.1-0.9-0.1v10.2c0.3,0,0.6-0.1,0.9-0.1V102.2z"/>
				</g>
				<path id="XMLID_193_" class="st55" d="M178.7,101c-3.5-2-9.2-2-12.7,0s-3.5,5.3,0,7.3s9.2,2,12.7,0S182.2,103,178.7,101z"/>
				<path id="XMLID_192_" class="st54" d="M178,101.2c-3.1-1.8-8.3-1.8-11.5,0c-3.1,1.8-3.1,4.8,0,6.6c3.1,1.8,8.3,1.8,11.5,0
					C181.2,106,181.2,103,178,101.2z"/>
				<path id="XMLID_191_" class="st55" d="M177.3,101.6c-2.8-1.6-7.3-1.6-10,0c-2.8,1.6-2.8,4.1,0,5.7s7.3,1.6,10,0
					C180.1,105.7,180.1,103.1,177.3,101.6z"/>
				<g id="XMLID_186_">
					<g id="XMLID_189_">
						<path id="XMLID_190_" class="st56" d="M173,106.4h-2.5c-0.6,0-1-0.3-1-0.6v-0.3h1.5v0.1h2.1c0.4,0,0.7-0.2,0.7-0.4
							c0-0.2-0.2-0.3-0.5-0.3h-1.8c-1.1,0-2-0.5-2-1.1v-0.2c0-0.7,1-1.3,2.2-1.3h2.5c0.6,0,1,0.3,1,0.6v0.4h-1.5v-0.1h-2.1
							c-0.4,0-0.7,0.2-0.7,0.4v0.2c0,0.2,0.2,0.3,0.5,0.3h1.8c1.1,0,2,0.5,2,1.1C175.2,105.8,174.2,106.4,173,106.4z"/>
					</g>
					<g id="XMLID_187_">
						<rect id="XMLID_188_" x="171.6" y="101.9" class="st56" width="1.5" height="5.1"/>
					</g>
				</g>
			</g>
		</g>
		<g>
			<g>
				<path id="XMLID_227_" class="st53" d="M181.3,101.2h-0.9c-0.4-0.5-1-1-1.7-1.4c-3.5-2-9.2-2-12.7,0c-0.7,0.4-1.3,0.9-1.7,1.4
					h-0.9v1.9l0,0c-0.2,1.4,0.7,2.9,2.6,4c3.5,2,9.2,2,12.7,0c1.9-1.1,2.8-2.6,2.6-4l0,0L181.3,101.2L181.3,101.2z"/>
				<g id="XMLID_215_">
					<path id="XMLID_226_" class="st54" d="M167.8,99c-0.3,0.1-0.6,0.2-0.9,0.3v8.3c0.3,0.1,0.6,0.2,0.9,0.3V99z"/>
					<path id="XMLID_225_" class="st54" d="M165.1,100.4v6.2c0.3,0.2,0.5,0.4,0.8,0.6l0,0v-7.4l0,0
						C165.6,100,165.4,100.2,165.1,100.4z"/>
					<path id="XMLID_224_" class="st54" d="M169.5,98.5c-0.3,0.1-0.6,0.1-0.9,0.2v9.5c0.3,0.1,0.6,0.1,0.9,0.2V98.5z"/>
					<path id="XMLID_223_" class="st54" d="M179.3,100.2v6.5c0.3-0.2,0.6-0.5,0.9-0.8v-5C179.9,100.7,179.6,100.4,179.3,100.2z"/>
					<path id="XMLID_222_" class="st54" d="M181.1,104.6c0.2-0.5,0.2-1,0.2-1.4l0,0v-1.9h-0.2V104.6z"/>
					<path id="XMLID_221_" class="st54" d="M176.6,98.9c-0.3-0.1-0.6-0.2-0.9-0.2v9.6c0.3-0.1,0.6-0.2,0.9-0.2V98.9z"/>
					<path id="XMLID_220_" class="st54" d="M164.2,105.7v-4.6h-0.9v1.9l0,0C163.3,104,163.5,104.9,164.2,105.7z"/>
					<path id="XMLID_219_" class="st54" d="M178.4,99.6c-0.3-0.2-0.6-0.3-0.9-0.4v8.4c0.3-0.1,0.6-0.3,0.9-0.4V99.6z"/>
					<path id="XMLID_218_" class="st54" d="M171.3,98.3c-0.3,0-0.6,0-0.9,0.1v10.1c0.3,0,0.6,0.1,0.9,0.1V98.3z"/>
					<path id="XMLID_217_" class="st54" d="M173.1,108.6V98.3c-0.3,0-0.6,0-0.9,0v10.4C172.5,108.6,172.8,108.6,173.1,108.6z"/>
					<path id="XMLID_216_" class="st54" d="M174.9,98.5c-0.3,0-0.6-0.1-0.9-0.1v10.2c0.3,0,0.6-0.1,0.9-0.1V98.5z"/>
				</g>
				<path id="XMLID_214_" class="st55" d="M178.7,97.2c-3.5-2-9.2-2-12.7,0s-3.5,5.3,0,7.3s9.2,2,12.7,0S182.2,99.2,178.7,97.2z"/>
				<path id="XMLID_213_" class="st54" d="M178,97.4c-3.1-1.8-8.3-1.8-11.5,0c-3.1,1.8-3.1,4.8,0,6.6c3.1,1.8,8.3,1.8,11.5,0
					S181.2,99.2,178,97.4z"/>
				<path id="XMLID_212_" class="st55" d="M177.3,97.8c-2.8-1.6-7.3-1.6-10,0c-2.8,1.6-2.8,4.1,0,5.7s7.3,1.6,10,0
					C180.1,101.9,180.1,99.4,177.3,97.8z"/>
				<g id="XMLID_207_">
					<g id="XMLID_210_">
						<path id="XMLID_211_" class="st56" d="M173,102.6h-2.5c-0.6,0-1-0.3-1-0.6v-0.3h1.5v0.1h2.1c0.4,0,0.7-0.2,0.7-0.4
							c0-0.2-0.2-0.3-0.5-0.3h-1.8c-1.1,0-2-0.5-2-1.1v-0.2c0-0.7,1-1.3,2.2-1.3h2.5c0.6,0,1,0.3,1,0.6v0.4h-1.5v-0.1h-2.1
							c-0.4,0-0.7,0.2-0.7,0.4v0.2c0,0.1,0.2,0.3,0.5,0.3h1.8c1.1,0,2,0.5,2,1.1C175.2,102.1,174.2,102.6,173,102.6z"/>
					</g>
					<g id="XMLID_208_">
						<rect id="XMLID_209_" x="171.6" y="98.1" class="st56" width="1.5" height="5.1"/>
					</g>
				</g>
			</g>
		</g>
	</g>
	<g>
		<g>
			<path id="XMLID_185_" class="st1" d="M195.9,120.5c-5.6-3.2-14.7-3.2-20.3,0s-5.6,8.5,0,11.7s14.7,3.2,20.3,0
				S201.5,123.7,195.9,120.5z"/>
			<path id="XMLID_398_" class="st2" d="M195.8,120.6c-5.5-3.2-14.5-3.2-20,0s-5.5,8.4,0,11.5c5.5,3.2,14.5,3.2,20,0
				C201.3,128.9,201.3,123.7,195.8,120.6z"/>
			<path id="XMLID_397_" class="st3" d="M195.6,120.7c-5.4-3.1-14.3-3.1-19.7,0s-5.4,8.2,0,11.4c5.4,3.1,14.3,3.1,19.7,0
				C201,128.9,201,123.8,195.6,120.7z"/>
			<path id="XMLID_396_" class="st4" d="M195.5,120.8c-5.3-3.1-14-3.1-19.3,0s-5.3,8.1,0,11.2c5.3,3.1,14,3.1,19.3,0
				S200.8,123.8,195.5,120.8z"/>
			<path id="XMLID_395_" class="st5" d="M195.3,120.8c-5.2-3-13.8-3-19,0s-5.2,8,0,11s13.8,3,19,0S200.5,123.9,195.3,120.8z"/>
			<path id="XMLID_394_" class="st6" d="M195.1,120.9c-5.1-3-13.6-3-18.7,0c-5.1,3-5.1,7.8,0,10.8s13.6,3,18.7,0
				C200.3,128.8,200.3,123.9,195.1,120.9z"/>
			<path id="XMLID_393_" class="st7" d="M195,121c-5.1-2.9-13.3-2.9-18.4,0c-5.1,2.9-5.1,7.7,0,10.6c5.1,2.9,13.3,2.9,18.4,0
				C200,128.7,200,123.9,195,121z"/>
			<path id="XMLID_392_" class="st8" d="M194.8,121.1c-5-2.9-13.1-2.9-18.1,0s-5,7.6,0,10.4c5,2.9,13.1,2.9,18.1,0
				C199.8,128.7,199.8,124,194.8,121.1z"/>
			<path id="XMLID_391_" class="st9" d="M194.7,121.2c-4.9-2.8-12.9-2.8-17.7,0c-4.9,2.8-4.9,7.4,0,10.2s12.9,2.8,17.7,0
				C199.5,128.6,199.5,124,194.7,121.2z"/>
			<path id="XMLID_390_" class="st10" d="M194.5,121.3c-4.8-2.8-12.6-2.8-17.4,0c-4.8,2.8-4.8,7.3,0,10.1s12.6,2.8,17.4,0
				C199.3,128.6,199.3,124.1,194.5,121.3z"/>
			<path id="XMLID_389_" class="st11" d="M194.3,121.4c-4.7-2.7-12.4-2.7-17.1,0c-4.7,2.7-4.7,7.2,0,9.9s12.4,2.7,17.1,0
				C199,128.6,199,124.1,194.3,121.4z"/>
			<path id="XMLID_388_" class="st12" d="M194.2,121.5c-4.6-2.7-12.2-2.7-16.8,0s-4.6,7,0,9.7s12.2,2.7,16.8,0
				S198.8,124.2,194.2,121.5z"/>
			<path id="XMLID_387_" class="st13" d="M194,121.6c-4.5-2.6-11.9-2.6-16.4,0s-4.5,6.9,0,9.5s11.9,2.6,16.4,0
				S198.5,124.2,194,121.6z"/>
			<path id="XMLID_386_" class="st14" d="M193.8,121.7c-4.4-2.6-11.7-2.6-16.1,0c-4.4,2.6-4.4,6.8,0,9.3c4.4,2.6,11.7,2.6,16.1,0
				C198.3,128.4,198.3,124.2,193.8,121.7z"/>
			<path id="XMLID_385_" class="st15" d="M193.7,121.8c-4.3-2.5-11.5-2.5-15.8,0s-4.3,6.6,0,9.1s11.5,2.5,15.8,0
				C198,128.4,198,124.3,193.7,121.8z"/>
			<path id="XMLID_384_" class="st16" d="M193.5,121.9c-4.3-2.5-11.2-2.5-15.5,0s-4.3,6.5,0,8.9c4.3,2.5,11.2,2.5,15.5,0
				S197.8,124.3,193.5,121.9z"/>
			<path id="XMLID_383_" class="st17" d="M193.4,122c-4.2-2.4-11-2.4-15.2,0s-4.2,6.3,0,8.8c4.2,2.4,11,2.4,15.2,0
				C197.5,128.3,197.5,124.4,193.4,122z"/>
			<path id="XMLID_382_" class="st18" d="M193.2,122.1c-4.1-2.4-10.8-2.4-14.8,0c-4.1,2.4-4.1,6.2,0,8.6s10.8,2.4,14.8,0
				C197.3,128.3,197.3,124.4,193.2,122.1z"/>
			<path id="XMLID_381_" class="st19" d="M193,122.1c-4-2.3-10.5-2.3-14.5,0s-4,6.1,0,8.4s10.5,2.3,14.5,0S197,124.5,193,122.1z"/>
			<path id="XMLID_380_" class="st20" d="M192.9,122.2c-3.9-2.3-10.3-2.3-14.2,0s-3.9,5.9,0,8.2s10.3,2.3,14.2,0
				C196.8,128.2,196.8,124.5,192.9,122.2z"/>
			<path id="XMLID_379_" class="st21" d="M192.7,122.3c-3.8-2.2-10.1-2.2-13.9,0c-3.8,2.2-3.8,5.8,0,8s10.1,2.2,13.9,0
				C196.5,128.1,196.5,124.5,192.7,122.3z"/>
			<path id="XMLID_373_" class="st22" d="M192.6,122.4c-3.7-2.2-9.8-2.2-13.6,0c-3.7,2.2-3.7,5.7,0,7.8c3.7,2.2,9.8,2.2,13.6,0
				C196.3,128.1,196.3,124.6,192.6,122.4z"/>
			<path id="XMLID_372_" class="st23" d="M192.4,122.5c-3.6-2.1-9.6-2.1-13.2,0c-3.6,2.1-3.6,5.5,0,7.6s9.6,2.1,13.2,0
				C196,128.1,196,124.6,192.4,122.5z"/>
			<path id="XMLID_371_" class="st24" d="M192.2,122.6c-3.5-2-9.4-2-12.9,0s-3.5,5.4,0,7.5c3.5,2,9.4,2,12.9,0
				C195.8,128,195.8,124.7,192.2,122.6z"/>
			<path id="XMLID_370_" class="st25" d="M192.1,122.7c-3.5-2-9.1-2-12.6,0s-3.5,5.3,0,7.3s9.1,2,12.6,0
				C195.5,128,195.5,124.7,192.1,122.7z"/>
			<path id="XMLID_369_" class="st26" d="M191.9,122.8c-3.4-1.9-8.9-1.9-12.3,0c-3.4,1.9-3.4,5.1,0,7.1c3.4,1.9,8.9,1.9,12.3,0
				C195.3,127.9,195.3,124.7,191.9,122.8z"/>
			<path id="XMLID_368_" class="st27" d="M191.8,122.9c-3.3-1.9-8.7-1.9-11.9,0c-3.3,1.9-3.3,5,0,6.9c3.3,1.9,8.7,1.9,11.9,0
				C195,127.9,195,124.8,191.8,122.9z"/>
			<path id="XMLID_367_" class="st28" d="M191.6,123c-3.2-1.8-8.4-1.8-11.6,0c-3.2,1.8-3.2,4.9,0,6.7c3.2,1.8,8.4,1.8,11.6,0
				C194.8,127.8,194.8,124.8,191.6,123z"/>
			<path id="XMLID_366_" class="st29" d="M191.4,123.1c-3.1-1.8-8.2-1.8-11.3,0s-3.1,4.7,0,6.5c3.1,1.8,8.2,1.8,11.3,0
				S194.5,124.9,191.4,123.1z"/>
			<path id="XMLID_365_" class="st30" d="M191.3,123.2c-3-1.7-8-1.7-11,0s-3,4.6,0,6.3c3,1.7,8,1.7,11,0S194.3,124.9,191.3,123.2z"
				/>
			<path id="XMLID_364_" class="st31" d="M191.1,123.3c-2.9-1.7-7.7-1.7-10.7,0c-2.9,1.7-2.9,4.5,0,6.1c2.9,1.7,7.7,1.7,10.7,0
				C194,127.7,194,125,191.1,123.3z"/>
			<path id="XMLID_363_" class="st32" d="M191,123.4c-2.8-1.6-7.5-1.6-10.3,0s-2.8,4.3,0,6c2.8,1.6,7.5,1.6,10.3,0
				C193.8,127.7,193.8,125,191,123.4z"/>
			<path id="XMLID_362_" class="st33" d="M190.8,123.4c-2.8-1.6-7.3-1.6-10,0c-2.8,1.6-2.8,4.2,0,5.8c2.8,1.6,7.3,1.6,10,0
				C193.5,127.6,193.5,125,190.8,123.4z"/>
			<path id="XMLID_361_" class="st34" d="M190.6,123.5c-2.7-1.5-7-1.5-9.7,0s-2.7,4.1,0,5.6c2.7,1.5,7,1.5,9.7,0
				C193.3,127.6,193.3,125.1,190.6,123.5z"/>
			<path id="XMLID_360_" class="st35" d="M190.5,123.6c-2.6-1.5-6.8-1.5-9.4,0c-2.6,1.5-2.6,3.9,0,5.4s6.8,1.5,9.4,0
				C193,127.6,193,125.1,190.5,123.6z"/>
			<path id="XMLID_359_" class="st36" d="M190.3,123.7c-2.5-1.4-6.6-1.4-9,0c-2.5,1.4-2.5,3.8,0,5.2s6.6,1.4,9,0
				C192.8,127.5,192.8,125.2,190.3,123.7z"/>
			<path id="XMLID_358_" class="st37" d="M190.1,123.8c-2.4-1.4-6.3-1.4-8.7,0s-2.4,3.6,0,5c2.4,1.4,6.3,1.4,8.7,0
				C192.5,127.5,192.5,125.2,190.1,123.8z"/>
			<path id="XMLID_357_" class="st38" d="M190,123.9c-2.3-1.3-6.1-1.3-8.4,0c-2.3,1.3-2.3,3.5,0,4.8c2.3,1.3,6.1,1.3,8.4,0
				C192.3,127.4,192.3,125.2,190,123.9z"/>
			<path id="XMLID_356_" class="st39" d="M189.8,124c-2.2-1.3-5.9-1.3-8.1,0c-2.2,1.3-2.2,3.4,0,4.7c2.2,1.3,5.9,1.3,8.1,0
				C192,127.4,192,125.3,189.8,124z"/>
			<path id="XMLID_355_" class="st40" d="M189.7,124.1c-2.1-1.2-5.6-1.2-7.8,0c-2.1,1.2-2.1,3.2,0,4.5c2.1,1.2,5.6,1.2,7.8,0
				C191.8,127.3,191.8,125.3,189.7,124.1z"/>
			<path id="XMLID_354_" class="st41" d="M189.5,124.2c-2-1.2-5.4-1.2-7.4,0s-2,3.1,0,4.3c2,1.2,5.4,1.2,7.4,0
				S191.5,125.4,189.5,124.2z"/>
			<path id="XMLID_353_" class="st42" d="M189.3,124.3c-2-1.1-5.2-1.1-7.1,0c-2,1.1-2,3,0,4.1s5.2,1.1,7.1,0
				C191.3,127.3,191.3,125.4,189.3,124.3z"/>
			<path id="XMLID_352_" class="st43" d="M189.2,124.4c-1.9-1.1-4.9-1.1-6.8,0c-1.9,1.1-1.9,2.8,0,3.9c1.9,1.1,4.9,1.1,6.8,0
				C191,127.2,191,125.5,189.2,124.4z"/>
			<path id="XMLID_351_" class="st44" d="M189,124.5c-1.8-1-4.7-1-6.5,0s-1.8,2.7,0,3.7s4.7,1,6.5,0S190.8,125.5,189,124.5z"/>
			<path id="XMLID_350_" class="st45" d="M188.9,124.6c-1.7-1-4.5-1-6.1,0c-1.7,1-1.7,2.6,0,3.5c1.7,1,4.5,1,6.1,0
				C190.5,127.1,190.5,125.5,188.9,124.6z"/>
			<path id="XMLID_349_" class="st46" d="M188.7,124.7c-1.6-0.9-4.2-0.9-5.8,0s-1.6,2.4,0,3.4c1.6,0.9,4.2,0.9,5.8,0
				C190.3,127.1,190.3,125.6,188.7,124.7z"/>
			<path id="XMLID_348_" class="st47" d="M188.5,124.7c-1.5-0.9-4-0.9-5.5,0s-1.5,2.3,0,3.2s4,0.9,5.5,0
				C190,127.1,190,125.6,188.5,124.7z"/>
			<path id="XMLID_347_" class="st48" d="M188.4,124.8c-1.4-0.8-3.8-0.8-5.2,0s-1.4,2.2,0,3s3.8,0.8,5.2,0
				C189.8,127,189.8,125.7,188.4,124.8z"/>
			<path id="XMLID_346_" class="st49" d="M188.2,124.9c-1.3-0.8-3.5-0.8-4.9,0c-1.3,0.8-1.3,2,0,2.8c1.3,0.8,3.5,0.8,4.9,0
				C189.5,127,189.5,125.7,188.2,124.9z"/>
			<path id="XMLID_345_" class="st50" d="M188.1,125c-1.2-0.7-3.3-0.7-4.5,0s-1.2,1.9,0,2.6c1.2,0.7,3.3,0.7,4.5,0
				C189.3,126.9,189.3,125.7,188.1,125z"/>
			<path id="XMLID_344_" class="st51" d="M187.9,125.1c-1.2-0.7-3.1-0.7-4.2,0c-1.2,0.7-1.2,1.8,0,2.4c1.2,0.7,3.1,0.7,4.2,0
				C189,126.9,189,125.8,187.9,125.1z"/>
			<path id="XMLID_184_" class="st52" d="M187.7,125.2c-1.1-0.6-2.8-0.6-3.9,0c-1.1,0.6-1.1,1.6,0,2.2s2.8,0.6,3.9,0
				C188.8,126.8,188.8,125.8,187.7,125.2z"/>
		</g>
		<g>
			<path id="XMLID_183_" class="st53" d="M195.8,123.6h-0.9c-0.4-0.5-1-1-1.7-1.4c-3.5-2-9.2-2-12.7,0c-0.7,0.4-1.3,0.9-1.7,1.4
				h-0.9v1.9l0,0c-0.2,1.4,0.7,2.9,2.6,4c3.5,2,9.2,2,12.7,0c1.9-1.1,2.8-2.6,2.6-4l0,0L195.8,123.6L195.8,123.6z"/>
			<g id="XMLID_166_">
				<path id="XMLID_182_" class="st54" d="M182.2,121.5c-0.3,0.1-0.6,0.2-0.9,0.3v8.3c0.3,0.1,0.6,0.2,0.9,0.3V121.5z"/>
				<path id="XMLID_181_" class="st54" d="M179.6,122.8v6.2c0.3,0.2,0.5,0.4,0.8,0.6l0,0v-7.4l0,0
					C180.1,122.4,179.8,122.6,179.6,122.8z"/>
				<path id="XMLID_180_" class="st54" d="M184,121c-0.3,0.1-0.6,0.1-0.9,0.2v9.5c0.3,0.1,0.6,0.1,0.9,0.2V121z"/>
				<path id="XMLID_179_" class="st54" d="M193.8,122.7v6.5c0.3-0.2,0.6-0.5,0.9-0.8v-5C194.4,123.2,194.1,122.9,193.8,122.7z"/>
				<path id="XMLID_178_" class="st54" d="M195.5,127c0.2-0.5,0.2-1,0.2-1.4l0,0v-1.9h-0.2V127z"/>
				<path id="XMLID_177_" class="st54" d="M191.1,121.4c-0.3-0.1-0.6-0.2-0.9-0.2v9.6c0.3-0.1,0.6-0.2,0.9-0.2V121.4z"/>
				<path id="XMLID_176_" class="st54" d="M178.7,128.2v-4.6h-0.9v1.9l0,0C177.7,126.5,178,127.4,178.7,128.2z"/>
				<path id="XMLID_175_" class="st54" d="M192.9,122.1c-0.3-0.2-0.6-0.3-0.9-0.4v8.4c0.3-0.1,0.6-0.3,0.9-0.4V122.1z"/>
				<path id="XMLID_174_" class="st54" d="M185.8,120.8c-0.3,0-0.6,0-0.9,0.1V131c0.3,0,0.6,0.1,0.9,0.1V120.8z"/>
				<path id="XMLID_168_" class="st54" d="M187.6,131.1v-10.3c-0.3,0-0.6,0-0.9,0v10.4C187,131.1,187.3,131.1,187.6,131.1z"/>
				<path id="XMLID_167_" class="st54" d="M189.3,121c-0.3,0-0.6-0.1-0.9-0.1V131c0.3,0,0.6-0.1,0.9-0.1V121z"/>
			</g>
			<path id="XMLID_165_" class="st55" d="M193.1,119.7c-3.5-2-9.2-2-12.7,0s-3.5,5.3,0,7.3s9.2,2,12.7,0S196.6,121.7,193.1,119.7z"
				/>
			<path id="XMLID_164_" class="st54" d="M192.5,119.9c-3.1-1.8-8.3-1.8-11.5,0c-3.1,1.8-3.1,4.8,0,6.6c3.1,1.8,8.3,1.8,11.5,0
				S195.7,121.7,192.5,119.9z"/>
			<path id="XMLID_162_" class="st55" d="M191.8,120.3c-2.8-1.6-7.3-1.6-10,0c-2.8,1.6-2.8,4.1,0,5.7s7.3,1.6,10,0
				C194.6,124.4,194.6,121.8,191.8,120.3z"/>
			<g id="XMLID_157_">
				<g id="XMLID_160_">
					<path id="XMLID_161_" class="st56" d="M187.4,125.1h-2.5c-0.6,0-1-0.3-1-0.6v-0.3h1.5v0.1h2.1c0.4,0,0.7-0.2,0.7-0.4
						c0-0.1-0.2-0.3-0.5-0.3h-1.8c-1.1,0-2-0.5-2-1.1v-0.2c0-0.7,1-1.3,2.2-1.3h2.5c0.6,0,1,0.3,1,0.6v0.4h-1.5v-0.1H186
						c-0.4,0-0.7,0.2-0.7,0.4v0.2c0,0.2,0.2,0.3,0.5,0.3h1.8c1.1,0,2,0.5,2,1.1C189.6,124.6,188.7,125.1,187.4,125.1z"/>
				</g>
				<g id="XMLID_158_">
					<rect id="XMLID_159_" x="186" y="120.6" class="st56" width="1.5" height="5.1"/>
				</g>
			</g>
		</g>
	</g>
	<g>
		<g>
			
				<radialGradient id="XMLID_27_" cx="144.45" cy="-7668.5732" r="13.7767" gradientTransform="matrix(1 0 0 -0.5172 0 -3760.4131)" gradientUnits="userSpaceOnUse">
				<stop  offset="9.125480e-002" style="stop-color:#3C5185"/>
				<stop  offset="0.1563" style="stop-color:#506291"/>
				<stop  offset="0.379" style="stop-color:#8D9AB8"/>
				<stop  offset="0.5827" style="stop-color:#BEC5D7"/>
				<stop  offset="0.7606" style="stop-color:#E2E5ED"/>
				<stop  offset="0.9057" style="stop-color:#F7F8FA"/>
				<stop  offset="1" style="stop-color:#FFFFFF"/>
			</radialGradient>
			<path id="XMLID_255_" class="st57" d="M134.8,200.2c5.3-3.1,14-3.1,19.3,0s5.3,8.1,0,11.1c-5.3,3.1-14,3.1-19.3,0
				C129.5,208.3,129.5,203.3,134.8,200.2z"/>
			
				<linearGradient id="XMLID_28_" gradientUnits="userSpaceOnUse" x1="134.554" y1="50.6" x2="154.054" y2="50.6" gradientTransform="matrix(1 0 0 -1 0 256)">
				<stop  offset="0" style="stop-color:#D3DAED"/>
				<stop  offset="1" style="stop-color:#A5CBEF"/>
			</linearGradient>
			<path id="XMLID_254_" class="st58" d="M154,202.8h-1c-0.4-0.5-1-1-1.8-1.4c-3.8-2.2-10-2.2-13.8,0c-0.7,0.4-1.3,0.9-1.8,1.4h-1.1
				v2.6l0,0c0,1.5,0.9,2.9,2.8,4c3.8,2.2,10,2.2,13.8,0c1.9-1.1,2.9-2.6,2.8-4l0,0v-2.6H154z"/>
			<path id="XMLID_253_" class="st59" d="M137.4,198.8c3.8-2.2,10-2.2,13.8,0s3.8,5.8,0,8s-10,2.2-13.8,0
				C133.6,204.6,133.6,201,137.4,198.8z"/>
			<g id="XMLID_252_">
				
					<linearGradient id="XMLID_95_" gradientUnits="userSpaceOnUse" x1="135.9187" y1="53.2" x2="150.1814" y2="53.2" gradientTransform="matrix(1 0 0 -1 0 256)">
					<stop  offset="0.1499" style="stop-color:#FF9800"/>
					<stop  offset="1" style="stop-color:#FFC107"/>
				</linearGradient>
				<path id="XMLID_343_" class="st60" d="M144.3,207.7c-2.2,0-4.3-0.5-5.9-1.4c-1.6-0.9-2.5-2.2-2.5-3.5s0.9-2.6,2.5-3.5
					s3.7-1.4,5.9-1.4s4.3,0.5,5.9,1.4l-0.2,0.4c-1.5-0.9-3.5-1.3-5.6-1.3s-4.1,0.5-5.6,1.3s-2.3,2-2.3,3.1c0,1.2,0.8,2.3,2.3,3.1
					c1.5,0.9,3.5,1.3,5.6,1.3l0,0L144.3,207.7L144.3,207.7z"/>
			</g>
			<path id="XMLID_249_" class="st61" d="M142.4,200.5l1-0.8l1.5,0.9l-0.5,0.4l-3.4,1.6l-0.5-0.3l3.3-1.5l-0.5-0.3l-0.4,0.3
				L142.4,200.5z M144.7,202.2c0.2-0.1,0.3-0.1,0.4-0.2c0.1-0.1,0.2-0.2,0.2-0.3s0-0.1-0.1-0.2c-0.1-0.1-0.4,0-0.8,0.1v-0.5
				c0.3-0.1,0.6-0.2,0.8-0.2s0.4,0,0.6,0.1c0.2,0.1,0.2,0.3,0.2,0.5s-0.2,0.4-0.5,0.7c-0.2,0.1-0.3,0.2-0.5,0.3s-0.5,0.2-0.8,0.3
				l-0.9,0.2l0.8,0.5l-0.6,0.5l-1.4-0.9l0.5-0.4l1.5-0.4C144.3,202.3,144.6,202.3,144.7,202.2z M148.8,203l-4.5,1.6l-0.5-0.3
				l4.5-1.6L148.8,203z M146.4,205c-0.2,0.1-0.4,0.2-0.6,0.3c-0.2,0-0.4,0-0.5,0c-0.1-0.1-0.2-0.2-0.1-0.3c0-0.1,0.1-0.3,0.3-0.4
				c0.2-0.1,0.4-0.2,0.6-0.3c0.2,0,0.4,0,0.5,0c0.1,0.1,0.2,0.2,0.1,0.3C146.7,204.8,146.6,204.9,146.4,205z M145.7,204.9v0.1h0.1
				c0.1,0,0.1-0.1,0.2-0.1c0.1-0.1,0.1-0.1,0.1-0.2v-0.1H146c-0.1,0-0.1,0.1-0.2,0.1C145.8,204.8,145.7,204.8,145.7,204.9z
				 M147,202.9c-0.2,0.1-0.4,0.2-0.6,0.3c-0.2,0-0.4,0-0.5,0c-0.1-0.1-0.2-0.2-0.1-0.3c0-0.1,0.1-0.3,0.3-0.4
				c0.2-0.1,0.4-0.2,0.6-0.3c0.2,0,0.4,0,0.5,0c0.1,0.1,0.2,0.2,0.1,0.3C147.3,202.6,147.2,202.7,147,202.9z M146.4,202.7v0.1h0.1
				c0.1,0,0.1-0.1,0.2-0.1c0.1-0.1,0.1-0.1,0.1-0.2v-0.1h-0.1c-0.1,0-0.1,0.1-0.2,0.1C146.4,202.6,146.4,202.6,146.4,202.7z"/>
		</g>
		<g>
			
				<radialGradient id="XMLID_114_" cx="103.8102" cy="-7623.0352" r="13.7645" gradientTransform="matrix(1 0 0 -0.5172 0 -3760.4131)" gradientUnits="userSpaceOnUse">
				<stop  offset="9.125480e-002" style="stop-color:#3C5185"/>
				<stop  offset="0.1563" style="stop-color:#506291"/>
				<stop  offset="0.379" style="stop-color:#8D9AB8"/>
				<stop  offset="0.5827" style="stop-color:#BEC5D7"/>
				<stop  offset="0.7606" style="stop-color:#E2E5ED"/>
				<stop  offset="0.9057" style="stop-color:#F7F8FA"/>
				<stop  offset="1" style="stop-color:#FFFFFF"/>
			</radialGradient>
			<path id="XMLID_265_" class="st62" d="M94.2,176.7c5.3-3.1,14-3.1,19.3,0s5.3,8.1,0,11.1c-5.3,3.1-14,3.1-19.3,0
				C88.9,184.7,88.9,179.7,94.2,176.7z"/>
			
				<linearGradient id="XMLID_320_" gradientUnits="userSpaceOnUse" x1="93.8871" y1="74.2" x2="113.3753" y2="74.2" gradientTransform="matrix(1 0 0 -1 0 256)">
				<stop  offset="0" style="stop-color:#D3DAED"/>
				<stop  offset="1" style="stop-color:#A5CBEF"/>
			</linearGradient>
			<path id="XMLID_264_" class="st63" d="M113.4,179.2h-1.1c-0.4-0.5-1-1-1.8-1.4c-3.8-2.2-10-2.2-13.8,0c-0.7,0.4-1.3,0.9-1.8,1.4
				h-1.1v2.6l0,0c0,1.5,0.9,2.9,2.8,4c3.8,2.2,10,2.2,13.8,0c1.9-1.1,2.9-2.6,2.8-4l0,0v-2.6H113.4z"/>
			<path id="XMLID_263_" class="st59" d="M96.7,175.2c3.8-2.2,10-2.2,13.8,0s3.8,5.8,0,8s-10,2.2-13.8,0
				C92.9,181,92.9,177.4,96.7,175.2z"/>
			<g id="XMLID_260_">
				
					<linearGradient id="XMLID_321_" gradientUnits="userSpaceOnUse" x1="95.2516" y1="77.5" x2="103.6307" y2="77.5" gradientTransform="matrix(1 0 0 -1 0 256)">
					<stop  offset="0" style="stop-color:#7EA7DF"/>
					<stop  offset="1" style="stop-color:#A5CBEF"/>
				</linearGradient>
				<path id="XMLID_335_" class="st64" d="M97.7,182.7c-1.6-0.9-2.5-2.2-2.5-3.5s0.9-2.6,2.5-3.5s3.7-1.4,5.9-1.4v0.5
					c-2.1,0-4.1,0.5-5.6,1.3s-2.3,2-2.3,3.1c0,1.2,0.8,2.3,2.3,3.1L97.7,182.7z"/>
			</g>
			<path id="XMLID_244_" class="st61" d="M102.1,177.5c0.2-0.1,0.3-0.1,0.4-0.2c0.1-0.1,0.2-0.2,0.2-0.3s0-0.1-0.1-0.2
				c-0.1-0.1-0.4,0-0.8,0.1v-0.5c0.3-0.1,0.6-0.2,0.8-0.2c0.2,0,0.4,0,0.6,0.1s0.2,0.3,0.2,0.5s-0.2,0.4-0.5,0.7
				c-0.2,0.1-0.3,0.2-0.5,0.3s-0.5,0.2-0.8,0.3l-0.9,0.3l0.8,0.5l-0.6,0.5l-1.4-0.9l0.5-0.4l1.5-0.4
				C101.7,177.7,101.9,177.6,102.1,177.5z M105.5,177.9l-0.6,0.5l-0.8-0.5l-0.5,0.4c0.1,0,0.2,0,0.2,0.1c0.2,0.1,0.3,0.3,0.2,0.5
				c0,0.2-0.2,0.5-0.5,0.7s-0.6,0.4-1,0.5c-0.3,0.1-0.6,0-0.8-0.1c-0.3-0.2-0.4-0.4-0.2-0.8l0.7-0.3v0.1c0,0,0,0.1,0,0.2
				c0,0.1,0.1,0.2,0.1,0.2c0.1,0,0.2,0.1,0.3,0c0.1,0,0.3-0.1,0.4-0.2c0.1-0.1,0.2-0.2,0.2-0.3s0-0.2-0.1-0.2
				c-0.1-0.1-0.3-0.1-0.5-0.1l0.1-0.4l1.5-1.2L105.5,177.9z M107.9,179.4l-4.5,1.6l-0.5-0.3l4.5-1.6L107.9,179.4z M105.5,181.4
				c-0.2,0.1-0.4,0.2-0.6,0.3c-0.2,0-0.4,0-0.5,0c-0.1-0.1-0.2-0.2-0.1-0.3c0-0.1,0.1-0.3,0.3-0.4c0.2-0.1,0.4-0.2,0.6-0.3
				c0.2,0,0.4,0,0.5,0c0.1,0.1,0.2,0.2,0.1,0.3S105.6,181.3,105.5,181.4z M104.8,181.2v0.1h0.1c0.1,0,0.1-0.1,0.2-0.1
				c0.1-0.1,0.1-0.1,0.1-0.2v-0.1h-0.1c-0.1,0-0.1,0.1-0.2,0.1C104.8,181.1,104.8,181.2,104.8,181.2z M106.1,179.3
				c-0.2,0.1-0.4,0.2-0.6,0.3c-0.2,0-0.4,0-0.5,0c-0.1-0.1-0.2-0.2-0.1-0.3c0-0.1,0.1-0.3,0.3-0.4c0.2-0.1,0.4-0.2,0.6-0.3
				c0.2,0,0.4,0,0.5,0c0.1,0.1,0.2,0.2,0.1,0.3C106.4,179,106.3,179.1,106.1,179.3z M105.4,179.1
				C105.4,179.1,105.4,179.2,105.4,179.1c0.1,0.1,0.1,0.1,0.2,0.1s0.1-0.1,0.2-0.1c0.1-0.1,0.1-0.1,0.1-0.2v-0.1h-0.1
				c-0.1,0-0.1,0.1-0.2,0.1C105.5,179,105.4,179,105.4,179.1z"/>
		</g>
		<g>
			
				<radialGradient id="XMLID_322_" cx="124.15" cy="-7645.8042" r="13.7617" gradientTransform="matrix(1 0 0 -0.5172 0 -3760.4131)" gradientUnits="userSpaceOnUse">
				<stop  offset="9.125480e-002" style="stop-color:#3C5185"/>
				<stop  offset="0.1563" style="stop-color:#506291"/>
				<stop  offset="0.379" style="stop-color:#8D9AB8"/>
				<stop  offset="0.5827" style="stop-color:#BEC5D7"/>
				<stop  offset="0.7606" style="stop-color:#E2E5ED"/>
				<stop  offset="0.9057" style="stop-color:#F7F8FA"/>
				<stop  offset="1" style="stop-color:#FFFFFF"/>
			</radialGradient>
			<path id="XMLID_259_" class="st65" d="M114.5,188.4c5.3-3.1,14-3.1,19.3,0s5.3,8.1,0,11.1c-5.3,3.1-14,3.1-19.3,0
				C109.2,196.5,109.2,191.5,114.5,188.4z"/>
			
				<linearGradient id="XMLID_323_" gradientUnits="userSpaceOnUse" x1="114.2206" y1="62.4" x2="133.7086" y2="62.4" gradientTransform="matrix(1 0 0 -1 0 256)">
				<stop  offset="0" style="stop-color:#D3DAED"/>
				<stop  offset="1" style="stop-color:#A5CBEF"/>
			</linearGradient>
			<path id="XMLID_258_" class="st66" d="M133.7,191h-1.1c-0.4-0.5-1-1-1.8-1.4c-3.8-2.2-10-2.2-13.8,0c-0.7,0.4-1.3,0.9-1.8,1.4
				h-1.1v2.6l0,0c0,1.5,0.9,2.9,2.8,4c3.8,2.2,10,2.2,13.8,0c1.9-1.1,2.9-2.6,2.8-4l0,0V191H133.7z"/>
			<path id="XMLID_257_" class="st67" d="M117.1,187c3.8-2.2,10-2.2,13.8,0c3.8,2.2,3.8,5.8,0,8s-10,2.2-13.8,0
				C113.3,192.8,113.3,189.2,117.1,187z"/>
			<g id="XMLID_256_">
				
					<linearGradient id="XMLID_324_" gradientUnits="userSpaceOnUse" x1="115.5853" y1="65.7" x2="129.8479" y2="65.7" gradientTransform="matrix(1 0 0 -1 0 256)">
					<stop  offset="0" style="stop-color:#5D7DBE"/>
					<stop  offset="1" style="stop-color:#3C5185"/>
				</linearGradient>
				<path id="XMLID_327_" class="st68" d="M118.1,194.5c-1.6-0.9-2.5-2.2-2.5-3.5s0.9-2.6,2.5-3.5s3.7-1.4,5.9-1.4
					c2.2,0,4.3,0.5,5.9,1.4l-0.2,0.4c-1.5-0.9-3.5-1.3-5.6-1.3s-4.1,0.5-5.6,1.3s-2.3,2-2.3,3.1c0,1.2,0.8,2.3,2.3,3.1L118.1,194.5z
					"/>
			</g>
			<path id="XMLID_67_" class="st61" d="M124.2,188.8l-0.6,0.5l-0.8-0.5l-0.5,0.4c0.1,0,0.2,0,0.2,0.1c0.2,0.1,0.3,0.3,0.3,0.5
				s-0.2,0.5-0.5,0.7c-0.3,0.3-0.6,0.4-1,0.5c-0.3,0.1-0.6,0.1-0.8-0.1c-0.3-0.2-0.4-0.4-0.2-0.8l0.7-0.3v0.1c0,0,0,0.1,0,0.2
				c0,0.1,0.1,0.2,0.1,0.2c0.1,0,0.2,0.1,0.3,0c0.1,0,0.3-0.1,0.4-0.2c0.1-0.1,0.2-0.2,0.2-0.3s0-0.2-0.1-0.2
				c-0.1-0.1-0.3-0.1-0.5-0.1l0.1-0.4l1.5-1.3L124.2,188.8z M123.7,189.8l1-0.8l1.5,0.9l-0.5,0.4l-3.3,1.7l-0.5-0.3l3.2-1.6
				l-0.5-0.3l-0.4,0.3L123.7,189.8z M128.4,191.2l-4.5,1.7l-0.5-0.3l4.5-1.7L128.4,191.2z M126,193.3c-0.2,0.1-0.4,0.2-0.6,0.3
				s-0.4,0-0.5,0c-0.1-0.1-0.2-0.2-0.1-0.3c0-0.1,0.1-0.3,0.3-0.4c0.2-0.1,0.4-0.2,0.6-0.3s0.4,0,0.5,0c0.1,0.1,0.2,0.2,0.1,0.3
				C126.3,193,126.2,193.1,126,193.3z M125.3,193.1v0.1h0.1c0.1,0,0.1-0.1,0.2-0.1c0.1-0.1,0.1-0.1,0.1-0.2v-0.1h-0.1
				c-0.1,0-0.1,0.1-0.2,0.1C125.4,193,125.3,193,125.3,193.1z M126.6,191.1c-0.2,0.1-0.4,0.2-0.6,0.3s-0.4,0-0.5,0
				c-0.1-0.1-0.2-0.2-0.1-0.3c0-0.1,0.1-0.3,0.3-0.4c0.2-0.1,0.4-0.2,0.6-0.3s0.4,0,0.5,0c0.1,0.1,0.2,0.2,0.1,0.3
				C126.9,190.8,126.8,190.9,126.6,191.1z M125.9,190.9C125.9,191,125.9,191,125.9,190.9c0.1,0.1,0.1,0.1,0.2,0.1s0.1-0.1,0.2-0.1
				c0.1-0.1,0.1-0.1,0.1-0.2v-0.1h-0.1c-0.1,0-0.1,0.1-0.2,0.1C126,190.8,125.9,190.9,125.9,190.9z"/>
		</g>
	</g>
	<g>
		<g class="st69">
			<polygon id="XMLID_63_" class="st70" points="149.9,156.6 198,184.3 173.9,198.2 125.9,170.5 			"/>
			<polygon id="XMLID_319_" class="st71" points="149.9,156.6 196.9,183.7 172.9,197.6 125.9,170.5 			"/>
			<polygon id="XMLID_307_" class="st72" points="149.9,156.6 195.9,183.1 171.9,197 125.9,170.5 			"/>
			<polygon id="XMLID_306_" class="st73" points="149.9,156.6 194.9,182.6 170.9,196.4 125.9,170.5 			"/>
			<polygon id="XMLID_305_" class="st74" points="149.9,156.6 193.9,182 169.9,195.8 125.9,170.5 			"/>
			<polygon id="XMLID_304_" class="st75" points="149.9,156.6 192.9,181.4 168.9,195.3 125.9,170.5 			"/>
			<polygon id="XMLID_303_" class="st76" points="149.9,156.6 191.9,180.8 167.8,194.7 125.9,170.5 			"/>
			<polygon id="XMLID_302_" class="st77" points="149.9,156.6 190.8,180.2 166.8,194.1 125.9,170.5 			"/>
			<polygon id="XMLID_301_" class="st78" points="149.9,156.6 189.8,179.6 165.8,193.5 125.9,170.5 			"/>
			<polygon id="XMLID_300_" class="st79" points="149.9,156.6 188.8,179 164.8,192.9 125.9,170.5 			"/>
			<polygon id="XMLID_299_" class="st80" points="149.9,156.6 187.8,178.5 163.8,192.3 125.9,170.5 			"/>
			<polygon id="XMLID_298_" class="st81" points="149.9,156.6 186.8,177.9 162.8,191.7 125.9,170.5 			"/>
			<polygon id="XMLID_297_" class="st82" points="149.9,156.6 185.8,177.3 161.7,191.2 125.9,170.5 			"/>
			<polygon id="XMLID_296_" class="st83" points="149.9,156.6 184.7,176.7 160.7,190.6 125.9,170.5 			"/>
			<polygon id="XMLID_295_" class="st84" points="149.9,156.6 183.7,176.1 159.7,190 125.9,170.5 			"/>
			<polygon id="XMLID_294_" class="st85" points="149.9,156.6 182.7,175.5 158.7,189.4 125.9,170.5 			"/>
			<polygon id="XMLID_293_" class="st86" points="149.9,156.6 181.7,174.9 157.7,188.8 125.9,170.5 			"/>
			<polygon id="XMLID_292_" class="st87" points="149.9,156.6 180.7,174.4 156.7,188.2 125.9,170.5 			"/>
			<polygon id="XMLID_291_" class="st88" points="149.9,156.6 179.7,173.8 155.6,187.6 125.9,170.5 			"/>
			<polygon id="XMLID_290_" class="st89" points="149.9,156.6 178.6,173.2 154.6,187.1 125.9,170.5 			"/>
			<polygon id="XMLID_289_" class="st90" points="149.9,156.6 177.6,172.6 153.6,186.5 125.9,170.5 			"/>
			<polygon id="XMLID_288_" class="st91" points="149.9,156.6 176.6,172 152.6,185.9 125.9,170.5 			"/>
			<polygon id="XMLID_287_" class="st92" points="149.9,156.6 175.6,171.4 151.6,185.3 125.9,170.5 			"/>
			<polygon id="XMLID_286_" class="st93" points="149.9,156.6 174.6,170.8 150.6,184.7 125.9,170.5 			"/>
			<polygon id="XMLID_285_" class="st94" points="149.9,156.6 173.6,170.3 149.5,184.1 125.9,170.5 			"/>
			<polygon id="XMLID_284_" class="st95" points="149.9,156.6 172.5,169.7 148.5,183.5 125.9,170.5 			"/>
			<polygon id="XMLID_283_" class="st96" points="149.9,156.6 171.5,169.1 147.5,183 125.9,170.5 			"/>
			<polygon id="XMLID_282_" class="st97" points="149.9,156.6 170.5,168.5 146.5,182.4 125.9,170.5 			"/>
			<polygon id="XMLID_281_" class="st98" points="149.9,156.6 169.5,167.9 145.5,181.8 125.9,170.5 			"/>
			<polygon id="XMLID_280_" class="st99" points="149.9,156.6 168.5,167.3 144.4,181.2 125.9,170.5 			"/>
			<polygon id="XMLID_279_" class="st100" points="149.9,156.6 167.4,166.7 143.4,180.6 125.9,170.5 			"/>
			<polygon id="XMLID_278_" class="st101" points="149.9,156.6 166.4,166.2 142.4,180 125.9,170.5 			"/>
			<polygon id="XMLID_277_" class="st102" points="149.9,156.6 165.4,165.6 141.4,179.4 125.9,170.5 			"/>
			<polygon id="XMLID_276_" class="st103" points="149.9,156.6 164.4,165 140.4,178.9 125.9,170.5 			"/>
			<polygon id="XMLID_275_" class="st104" points="149.9,156.6 163.4,164.4 139.4,178.3 125.9,170.5 			"/>
			<polygon id="XMLID_274_" class="st105" points="149.9,156.6 162.4,163.8 138.3,177.7 125.9,170.5 			"/>
			<polygon id="XMLID_273_" class="st106" points="149.9,156.6 161.3,163.2 137.3,177.1 125.9,170.5 			"/>
			<polygon id="XMLID_272_" class="st107" points="149.9,156.6 160.3,162.6 136.3,176.5 125.9,170.5 			"/>
			<polygon id="XMLID_271_" class="st108" points="149.9,156.6 159.3,162.1 135.3,175.9 125.9,170.5 			"/>
			<polygon id="XMLID_270_" class="st109" points="149.9,156.6 158.3,161.5 134.3,175.3 125.9,170.5 			"/>
			<polygon id="XMLID_269_" class="st110" points="149.9,156.6 157.3,160.9 133.3,174.8 125.9,170.5 			"/>
			<polygon id="XMLID_49_" class="st61" points="149.9,156.6 156.3,160.3 132.2,174.2 125.9,170.5 			"/>
		</g>
		<g class="st69">
			<polygon id="XMLID_46_" class="st70" points="106.7,131.7 154.5,159.7 130.4,173.5 82.6,145.5 			"/>
			<polygon id="XMLID_268_" class="st71" points="106.7,131.7 153.5,159.1 129.4,172.9 82.6,145.5 			"/>
			<polygon id="XMLID_267_" class="st72" points="106.7,131.7 152.5,158.6 128.4,172.3 82.6,145.5 			"/>
			<polygon id="XMLID_266_" class="st73" points="106.7,131.7 151.5,158 127.4,171.7 82.6,145.5 			"/>
			<polygon id="XMLID_262_" class="st74" points="106.7,131.7 150.5,157.4 126.4,171.1 82.6,145.5 			"/>
			<polygon id="XMLID_261_" class="st75" points="106.7,131.7 149.5,156.8 125.4,170.5 82.6,145.5 			"/>
			<polygon id="XMLID_251_" class="st76" points="106.7,131.7 148.4,156.2 124.4,169.9 82.6,145.5 			"/>
			<polygon id="XMLID_250_" class="st77" points="106.7,131.7 147.4,155.6 123.3,169.3 82.6,145.5 			"/>
			<polygon id="XMLID_245_" class="st78" points="106.7,131.7 146.4,155 122.3,168.7 82.6,145.5 			"/>
			<polygon id="XMLID_243_" class="st79" points="106.7,131.7 145.4,154.4 121.3,168.1 82.6,145.5 			"/>
			<polygon id="XMLID_232_" class="st80" points="106.7,131.7 144.4,153.8 120.3,167.6 82.6,145.5 			"/>
			<polygon id="XMLID_173_" class="st81" points="106.7,131.7 143.4,153.2 119.3,167 82.6,145.5 			"/>
			<polygon id="XMLID_172_" class="st82" points="106.7,131.7 142.4,152.6 118.3,166.4 82.6,145.5 			"/>
			<polygon id="XMLID_171_" class="st83" points="106.7,131.7 141.4,152 117.3,165.8 82.6,145.5 			"/>
			<polygon id="XMLID_170_" class="st84" points="106.7,131.7 140.3,151.5 116.2,165.2 82.6,145.5 			"/>
			<polygon id="XMLID_169_" class="st85" points="106.7,131.7 139.3,150.9 115.2,164.6 82.6,145.5 			"/>
			<polygon id="XMLID_163_" class="st86" points="106.7,131.7 138.3,150.3 114.2,164 82.6,145.5 			"/>
			<polygon id="XMLID_149_" class="st87" points="106.7,131.7 137.3,149.7 113.2,163.4 82.6,145.5 			"/>
			<polygon id="XMLID_139_" class="st88" points="106.7,131.7 136.3,149.1 112.2,162.8 82.6,145.5 			"/>
			<polygon id="XMLID_138_" class="st89" points="106.7,131.7 135.3,148.5 111.2,162.2 82.6,145.5 			"/>
			<polygon id="XMLID_134_" class="st90" points="106.7,131.7 134.3,147.9 110.2,161.6 82.6,145.5 			"/>
			<polygon id="XMLID_133_" class="st91" points="106.7,131.7 133.2,147.3 109.1,161 82.6,145.5 			"/>
			<polygon id="XMLID_132_" class="st92" points="106.7,131.7 132.2,146.7 108.1,160.5 82.6,145.5 			"/>
			<polygon id="XMLID_131_" class="st93" points="106.7,131.7 131.2,146.1 107.1,159.9 82.6,145.5 			"/>
			<polygon id="XMLID_124_" class="st94" points="106.7,131.7 130.2,145.5 106.1,159.3 82.6,145.5 			"/>
			<polygon id="XMLID_101_" class="st95" points="106.7,131.7 129.2,145 105.1,158.7 82.6,145.5 			"/>
			<polygon id="XMLID_70_" class="st96" points="106.7,131.7 128.2,144.4 104.1,158.1 82.6,145.5 			"/>
			<polygon id="XMLID_69_" class="st97" points="106.7,131.7 127.2,143.8 103.1,157.5 82.6,145.5 			"/>
			<polygon id="XMLID_68_" class="st98" points="106.7,131.7 126.1,143.2 102,156.9 82.6,145.5 			"/>
			<polygon id="XMLID_66_" class="st99" points="106.7,131.7 125.1,142.6 101,156.3 82.6,145.5 			"/>
			<polygon id="XMLID_65_" class="st100" points="106.7,131.7 124.1,142 100,155.7 82.6,145.5 			"/>
			<polygon id="XMLID_64_" class="st101" points="106.7,131.7 123.1,141.4 99,155.1 82.6,145.5 			"/>
			<polygon id="XMLID_62_" class="st102" points="106.7,131.7 122.1,140.8 98,154.5 82.6,145.5 			"/>
			<polygon id="XMLID_61_" class="st103" points="106.7,131.7 121.1,140.2 97,153.9 82.6,145.5 			"/>
			<polygon id="XMLID_60_" class="st104" points="106.7,131.7 120.1,139.6 96,153.4 82.6,145.5 			"/>
			<polygon id="XMLID_59_" class="st105" points="106.7,131.7 119,139 94.9,152.8 82.6,145.5 			"/>
			<polygon id="XMLID_58_" class="st106" points="106.7,131.7 118,138.4 93.9,152.2 82.6,145.5 			"/>
			<polygon id="XMLID_57_" class="st107" points="106.7,131.7 117,137.9 92.9,151.6 82.6,145.5 			"/>
			<polygon id="XMLID_56_" class="st108" points="106.7,131.7 116,137.3 91.9,151 82.6,145.5 			"/>
			<polygon id="XMLID_55_" class="st109" points="106.7,131.7 115,136.7 90.9,150.4 82.6,145.5 			"/>
			<polygon id="XMLID_54_" class="st110" points="106.7,131.7 114,136.1 89.9,149.8 82.6,145.5 			"/>
			<polygon id="XMLID_39_" class="st61" points="106.7,131.7 113,135.5 88.9,149.2 82.6,145.5 			"/>
		</g>
		<g id="XMLID_1_">
			<g id="XMLID_35_">
				
					<linearGradient id="XMLID_325_" gradientUnits="userSpaceOnUse" x1="-167.8478" y1="177.5" x2="-118.9478" y2="177.5" gradientTransform="matrix(-1 0 0 -1 -38.1478 256)">
					<stop  offset="0" style="stop-color:#7EA7DF"/>
					<stop  offset="1" style="stop-color:#4A65A3"/>
				</linearGradient>
				<polygon id="XMLID_38_" class="st111" points="129.7,78.5 104.9,64.2 80.8,78.5 104.9,92.8 				"/>
				
					<linearGradient id="XMLID_326_" gradientUnits="userSpaceOnUse" x1="-167.8478" y1="137.4" x2="-143.0989" y2="137.4" gradientTransform="matrix(-1 0 0 -1 -38.1478 256)">
					<stop  offset="0" style="stop-color:#7EA7DF"/>
					<stop  offset="1" style="stop-color:#4A65A3"/>
				</linearGradient>
				<polygon id="XMLID_37_" class="st112" points="129.7,78.5 129.7,145.2 104.9,158.7 104.9,92.8 				"/>
				
					<linearGradient id="XMLID_328_" gradientUnits="userSpaceOnUse" x1="-143.0804" y1="137.4" x2="-118.9398" y2="137.4" gradientTransform="matrix(-1 0 0 -1 -38.1478 256)">
					<stop  offset="0" style="stop-color:#7EA7DF"/>
					<stop  offset="1" style="stop-color:#4A65A3"/>
				</linearGradient>
				<polygon id="XMLID_36_" class="st113" points="80.8,78.5 80.8,144.4 104.9,158.7 104.9,92.8 				"/>
			</g>
			<g id="XMLID_10_">
				<polygon id="XMLID_16_" class="st114" points="160.6,111.8 135.8,97.5 111.7,111.8 135.8,126.1 				"/>
				<polygon id="XMLID_12_" class="st61" points="160.6,111.8 160.6,162.7 135.8,176.3 135.8,126.1 				"/>
				<polygon id="XMLID_11_" class="st115" points="111.7,111.8 111.7,162 135.8,176.3 135.8,126.1 				"/>
			</g>
			<g id="XMLID_2_">
				<polygon id="XMLID_9_" class="st116" points="191.9,150.6 167.1,136.3 143,150.6 167.1,164.9 				"/>
				<polygon id="XMLID_7_" class="st117" points="191.9,150.6 191.9,180.7 167.1,194.2 167.1,164.9 				"/>
				<polygon id="XMLID_4_" class="st118" points="143,150.6 143,179.9 167.1,194.2 167.1,164.9 				"/>
			</g>
		</g>
	</g>
	<g>
		<g id="XMLID_72_">
			
				<linearGradient id="XMLID_329_" gradientUnits="userSpaceOnUse" x1="134.3298" y1="181.7" x2="136.5014" y2="181.7" gradientTransform="matrix(1 0 0 -1 0 256)">
				<stop  offset="0" style="stop-color:#FFC107"/>
				<stop  offset="0.9202" style="stop-color:#FF9800"/>
			</linearGradient>
			<polygon id="XMLID_377_" class="st119" points="136.5,71.2 136.5,78.7 134.3,77.5 134.3,69.9 			"/>
			<g id="XMLID_74_">
				<path id="XMLID_376_" class="st120" d="M150.3,98.6l-1.5,0.3c-0.6-0.7-1.4-1.3-2.4-1.9c-5.2-3-13.8-3-19.1,0
					c-1,0.6-1.8,1.2-2.4,1.9l-1.5-0.3v1.6l0,0c0,2,1.3,4,3.9,5.5c5.2,3,13.8,3,19.1,0c2.6-1.5,3.9-3.5,3.9-5.5l0,0V98.6z"/>
				<path id="XMLID_375_" class="st67" d="M127.3,93c5.2-3,13.8-3,19.1,0c5.2,3,5.2,8,0,11s-13.8,3-19.1,0C122,101,122,96,127.3,93z
					"/>
				<path id="XMLID_374_" class="st121" d="M128.6,93.7c4.5-2.6,11.9-2.6,16.5,0c4.5,2.6,4.5,6.9,0,9.5s-11.9,2.6-16.5,0
					S124,96.3,128.6,93.7z"/>
				<path id="XMLID_80_" class="st67" d="M129.9,94.6c3.8-2.1,10-2.1,13.8,0s3.8,5.7,0,7.8c-3.8,2.1-10,2.1-13.8,0
					C126.1,100.2,126.1,96.7,129.9,94.6z"/>
				<path id="XMLID_79_" class="st121" d="M131.2,95.3c3.1-1.7,8.2-1.7,11.3,0s3.1,4.6,0,6.4c-3.1,1.7-8.2,1.7-11.3,0
					C128.1,99.9,128.1,97.1,131.2,95.3z"/>
				<path id="XMLID_78_" class="st67" d="M132.4,96.2c2.4-1.2,6.3-1.2,8.7,0s2.4,3.2,0,4.5c-2.4,1.2-6.3,1.2-8.7,0
					S130,97.5,132.4,96.2z"/>
				<path id="XMLID_77_" class="st121" d="M134.1,97.1c1.5-0.8,3.8-0.8,5.3,0s1.5,2,0,2.7c-1.5,0.8-3.8,0.8-5.3,0
					C132.6,99.1,132.6,97.9,134.1,97.1z"/>
				<g id="XMLID_75_">
					<path id="XMLID_76_" class="st61" d="M136.8,98.8c-0.3,0-0.6-0.3-0.6-0.6V70.1c0-0.3,0.3-0.6,0.6-0.6s0.6,0.3,0.6,0.6v28.1
						C137.4,98.5,137.1,98.8,136.8,98.8z"/>
				</g>
			</g>
			
				<linearGradient id="XMLID_330_" gradientUnits="userSpaceOnUse" x1="136.774" y1="182.05" x2="140.1131" y2="182.05" gradientTransform="matrix(1 0 0 -1 0 256)">
				<stop  offset="0" style="stop-color:#FFC107"/>
				<stop  offset="0.9202" style="stop-color:#FF9800"/>
			</linearGradient>
			<polygon id="XMLID_73_" class="st122" points="136.8,71.1 136.8,78.7 140.1,76.8 140.1,69.2 			"/>
		</g>
	</g>
	<g id="XMLID_147_">
		
			<linearGradient id="XMLID_331_" gradientUnits="userSpaceOnUse" x1="95.7287" y1="185.1" x2="113.4946" y2="185.1" gradientTransform="matrix(1 0 0 -1 0 256)">
			<stop  offset="0" style="stop-color:#3C5185"/>
			<stop  offset="0.269" style="stop-color:#476098"/>
			<stop  offset="0.7307" style="stop-color:#5775B4"/>
			<stop  offset="1" style="stop-color:#5D7DBE"/>
		</linearGradient>
		<path id="XMLID_94_" class="st123" d="M113.5,69.4h-0.4c-0.4-0.8-1.1-1.5-2.2-2.1c-3.5-2-9.1-2-12.6,0c-1.1,0.6-1.8,1.3-2.2,2.1
			h-0.4v1.3l0,0c-0.1,1.4,0.8,2.7,2.6,3.8c3.4,2,9.1,2,12.6,0c1.8-1,2.7-2.4,2.6-3.8l0,0V69.4z"/>
		<path id="XMLID_148_" class="st61" d="M110.9,73c3.5-2,3.5-5.2,0-7.2s-9.1-2-12.6,0c-3.4,2-3.4,5.2,0,7.2
			C101.8,75,107.4,75,110.9,73z"/>
		
			<linearGradient id="XMLID_332_" gradientUnits="userSpaceOnUse" x1="101.1905" y1="189.35" x2="108.0328" y2="189.35" gradientTransform="matrix(1 0 0 -1 0 256)">
			<stop  offset="0.1499" style="stop-color:#FF9800"/>
			<stop  offset="1" style="stop-color:#FFC107"/>
		</linearGradient>
		<path id="XMLID_93_" class="st124" d="M101.2,63.3v4.8l0,0c0,0.5,0.4,1,1,1.3c1.3,0.8,3.5,0.8,4.8,0c0.6-0.4,1-0.8,1-1.3l0,0v-4.8
			H101.2z"/>
		<path id="XMLID_92_" class="st125" d="M107.1,65.6c-1.4,0.8-3.6,0.8-5,0c-0.5-0.3-0.8-0.6-0.9-0.9v-0.4h-0.1v1.5l0,0
			c0,0.5,0.4,1,1,1.4c1.4,0.8,3.6,0.8,5,0c0.7-0.4,1-0.9,1-1.4l0,0v-1.4l-0.1,0.1v0.2C107.9,65,107.6,65.3,107.1,65.6z"/>
		
			<linearGradient id="XMLID_333_" gradientUnits="userSpaceOnUse" x1="101.0828" y1="189.65" x2="108.1405" y2="189.65" gradientTransform="matrix(1 0 0 -1 0 256)">
			<stop  offset="0" style="stop-color:#FFC107"/>
			<stop  offset="0.8501" style="stop-color:#FF9800"/>
		</linearGradient>
		<path id="XMLID_91_" class="st126" d="M107.1,66c-1.4,0.8-3.6,0.8-5,0c-0.7-0.4-1-0.9-1-1.4l0,0v1.5l0,0c0,0.5,0.4,1,1,1.4
			c1.4,0.8,3.6,0.8,5,0c0.7-0.4,1-0.9,1-1.4l0,0v-1.5l0,0C108.1,65.2,107.8,65.7,107.1,66z"/>
		
			<linearGradient id="XMLID_334_" gradientUnits="userSpaceOnUse" x1="92.2719" y1="214.6015" x2="101.3719" y2="214.6015" gradientTransform="matrix(1 0 0 -1 0 256)">
			<stop  offset="0.1499" style="stop-color:#FF9800"/>
			<stop  offset="1" style="stop-color:#FFC107"/>
		</linearGradient>
		<path id="XMLID_90_" class="st127" d="M92.3,41.9l3.6-2c1-0.6,2.2-0.5,3.2,0.1l2.3,1.4L98,43.3l-2.3-1.5c0,0-0.7-0.5-1.5-0.4
			L92.3,41.9z"/>
		
			<linearGradient id="XMLID_336_" gradientUnits="userSpaceOnUse" x1="91.2396" y1="209.95" x2="97.1774" y2="209.95" gradientTransform="matrix(1 0 0 -1 0 256)">
			<stop  offset="0.1499" style="stop-color:#FF9800"/>
			<stop  offset="1" style="stop-color:#FFC107"/>
		</linearGradient>
		<path id="XMLID_89_" class="st128" d="M93.5,50.8l3.7-2.1c0,0-3.9-2.4-2.7-7.4c0,0-1.3,0.1-1.8,0.5c0,0-1.4,0.7-1.4,2.9L93.5,50.8
			z"/>
		<g id="XMLID_87_">
			<path id="XMLID_88_" class="st129" d="M93.8,52.3l-2.7-7.1c0-0.2-0.1-0.5-0.1-0.7c0-1.2,0.6-2.3,1.7-2.9c1.1-0.6,2.3-0.6,3.4,0
				l2,1.4l-0.2,0.4l-2-0.7c-0.9-0.5-1.6-0.9-2.5-0.4s-1.6,1.4-1.6,2.5c0,0.2,0,0.3,0.1,0.5l2.4,6.9L93.8,52.3z"/>
		</g>
		
			<linearGradient id="XMLID_337_" gradientUnits="userSpaceOnUse" x1="93.3986" y1="203.9114" x2="116.3448" y2="203.9114" gradientTransform="matrix(1 0 0 -1 0 256)">
			<stop  offset="0" style="stop-color:#FF9800"/>
			<stop  offset="0.7072" style="stop-color:#FFC107"/>
		</linearGradient>
		<path id="XMLID_86_" class="st130" d="M113.3,58.9c3.3-4.2,4.7-14.7,0-17.4s-12.3-2.7-17,0s-3.1,13.1,0,17.4
			c2.4,3.3,5.4,5.8,8.5,5.8C107.9,64.8,111.2,61.6,113.3,58.9z"/>
		<path id="XMLID_85_" class="st129" d="M112.4,49.6c4.2-2.4,4.2-6.3,0-8.7s-11-2.4-15.1,0c-4.2,2.4-4.2,6.3,0,8.7
			C101.4,52,108.3,52,112.4,49.6z"/>
		
			<linearGradient id="XMLID_338_" gradientUnits="userSpaceOnUse" x1="106.8" y1="198.0567" x2="104.1839" y2="215.6718" gradientTransform="matrix(1 0 0 -1 0 256)">
			<stop  offset="0.1499" style="stop-color:#FF9800"/>
			<stop  offset="1" style="stop-color:#FFC107"/>
		</linearGradient>
		<path id="XMLID_84_" class="st131" d="M112.2,49.3c4-2.3,4-6,0-8.3s-10.6-2.3-14.6,0s-4,6,0,8.3S108.1,51.6,112.2,49.3z"/>
		<path id="XMLID_83_" class="st129" d="M108.3,62.4c0,0,2.2,0,4.6-0.6c0.9-0.2,2.9-1.2,3.4-2.8c0.6-1.7,1.1-4.2,0.1-6.1
			c0,0-1.1-2.2-3.7-2.5l-0.3,1.5c0,0,0.9-0.5,2.1,0.1c1,0.5,1.4,1.7,1.6,2.7c0.3,1.4,0.2,3.4-1.3,5.2c0,0-3.8,2-6.1,1.8L108.3,62.4z
			"/>
		
			<linearGradient id="XMLID_339_" gradientUnits="userSpaceOnUse" x1="112.676" y1="201.25" x2="118.6898" y2="201.25" gradientTransform="matrix(1 0 0 -1 0 256)">
			<stop  offset="0.1499" style="stop-color:#FF9800"/>
			<stop  offset="1" style="stop-color:#FFC107"/>
		</linearGradient>
		<path id="XMLID_82_" class="st132" d="M112.7,50.5l2.7-2c0,0,8,6.2-0.8,12.5c0,0,1-1,1.3-1.5C117,57.3,118.4,52.7,112.7,50.5z"/>
		
			<linearGradient id="XMLID_340_" gradientUnits="userSpaceOnUse" x1="108.6837" y1="195.15" x2="114.901" y2="195.15" gradientTransform="matrix(1 0 0 -1 0 256)">
			<stop  offset="0.1499" style="stop-color:#FF9800"/>
			<stop  offset="1" style="stop-color:#FFC107"/>
		</linearGradient>
		<path id="XMLID_81_" class="st133" d="M108.7,61.8l2.8-1.7c0,0,2.5,0.6,3.4-0.2C114.9,59.9,113.5,61.8,108.7,61.8z"/>
	</g>
	<g id="XMLID_444_">
		<g id="XMLID_452_">
			<path id="XMLID_53_" class="st61" d="M74.7,160.3L74.7,160.3c-0.3,0-0.5-0.3-0.5-0.6l10.1-77.5c0-0.3,0.3-0.5,0.6-0.4
				c0.3,0,0.5,0.3,0.4,0.6l-10.1,77.5C75.2,160.1,74.9,160.3,74.7,160.3z"/>
		</g>
		<g id="XMLID_451_">
			<path id="XMLID_52_" class="st61" d="M89.6,168.6C89.6,168.6,89.5,168.6,89.6,168.6c-0.3,0-0.5-0.3-0.5-0.6l9.8-80.6
				c0-0.3,0.3-0.5,0.6-0.4c0.3,0,0.5,0.3,0.4,0.6l-9.8,80.6C90,168.4,89.8,168.6,89.6,168.6z"/>
		</g>
		<g id="XMLID_450_">
			<polygon id="XMLID_51_" class="st61" points="98.6,95 84.2,86.4 84.3,85.3 98.9,94 			"/>
		</g>
		<g id="XMLID_102_">
			<polygon id="XMLID_50_" class="st61" points="97.2,106.9 82.7,98.3 82.9,97.2 97.4,105.9 			"/>
		</g>
		<g id="XMLID_103_">
			<polygon id="XMLID_48_" class="st61" points="95.7,118.8 81.3,110.2 81.4,109.1 96,117.8 			"/>
		</g>
		<g id="XMLID_104_">
			<polygon id="XMLID_47_" class="st61" points="94.3,130.7 79.8,122.1 80,121 94.5,129.7 			"/>
		</g>
		<g id="XMLID_105_">
			<polygon id="XMLID_45_" class="st61" points="92.8,142.6 78.4,134 78.5,132.9 93.1,141.6 			"/>
		</g>
		<g id="XMLID_106_">
			<polygon id="XMLID_44_" class="st61" points="91.4,154.5 76.9,145.9 77.1,144.8 91.6,153.5 			"/>
		</g>
		<g id="XMLID_107_">
			<polygon id="XMLID_43_" class="st61" points="89.9,166.4 75.5,157.8 75.6,156.7 90.2,165.4 			"/>
		</g>
	</g>
	<g>
		<path id="XMLID_441_" class="st61" d="M81.4,138.6l4.8-2.5c0.5-0.2,0.5-0.9,0-1.2h-0.1c-0.8-0.4-1.8-0.5-2.7-0.2l-3.6,0.9
			c-0.4,0.1-0.7,0.4-0.7,0.9v0.8c0,0.3,0.2,0.6,0.5,0.8l0.8,0.5C80.8,138.7,81.1,138.7,81.4,138.6z"/>
		<g id="XMLID_439_">
			
				<linearGradient id="XMLID_341_" gradientUnits="userSpaceOnUse" x1="297.6968" y1="131.2486" x2="301.6267" y2="131.2486" gradientTransform="matrix(1 0 0 -1 -218.5155 256)">
				<stop  offset="0" style="stop-color:#A8D9FB"/>
				<stop  offset="1" style="stop-color:#FFFFFF"/>
			</linearGradient>
			<path id="XMLID_440_" class="st134" d="M81.1,137.1c-1,0-2,0.1-2-0.9l0.1-22c0-1,0.8-1.8,1.8-1.8s2,1.1,2,2.1v20.8
				C83,136.3,82.1,137.1,81.1,137.1z"/>
		</g>
		<path id="XMLID_438_" class="st135" d="M79.3,115.9v1.3c0,1.8,0.9,3.5,2.4,4.5l1.3,0.9l0.1-5.2L79.3,115.9z"/>
		<path id="XMLID_434_" class="st61" d="M88.2,129.6l4.8-2.5c0.5-0.2,0.5-0.9,0-1.2h-0.1c-0.8-0.4-1.8-0.5-2.7-0.2l-3.6,0.9
			c-0.4,0.1-0.7,0.4-0.7,0.9v0.8c0,0.3,0.2,0.6,0.5,0.8l0.8,0.5C87.5,129.8,87.9,129.8,88.2,129.6z"/>
		<g id="XMLID_432_">
			
				<linearGradient id="XMLID_342_" gradientUnits="userSpaceOnUse" x1="297.8344" y1="137.0542" x2="309.2658" y2="137.0542" gradientTransform="matrix(1 0 0 -1 -218.5155 256)">
				<stop  offset="0" style="stop-color:#A8D9FB"/>
				<stop  offset="1" style="stop-color:#FFFFFF"/>
			</linearGradient>
			<path id="XMLID_433_" class="st136" d="M87.7,128.5L87.7,128.5c-1.1-0.1-1.7-0.6-1.7-0.9l1.1-6.4l-2.9-1.9
				c-1.5,0.1-2.9-0.4-4-1.5c-0.5-0.5-0.8-1.2-0.8-1.9v-4.6c0-1,0.7-1.8,1.6-1.9c1.1-0.1,2,0.7,2,1.8v2.6c0,0.5,0.2,1,0.6,1.4
				c0.4,0.3,0.8,0.5,1.3,0.4l1.7-0.5l3.8,3.3c0.3,0.4,0.4,0.9,0.4,1.4l-1.2,7C89.5,127.7,88.7,128.5,87.7,128.5z"/>
		</g>
		<g id="XMLID_430_">
			<path id="XMLID_431_" class="st137" d="M84.2,105.6L80.3,99c-0.3-0.5-0.1-1.2,0.4-1.6c0.5-0.3,1.2-0.1,1.6,0.4l3,5.2l6-1.2
				c0.6-0.1,1.2,0.3,1.3,0.9c0.1,0.6-0.3,1.2-0.9,1.3L84.2,105.6z"/>
		</g>
		<path id="XMLID_429_" class="st138" d="M87.9,101.2l-0.5,14.3c-2.2,1.3-7.1,0.6-8.4-1.6V98.5c0-1.8,2-3,3.6-2.1l3.6,2.1
			C87.3,99.1,87.9,100.1,87.9,101.2z"/>
		<g id="XMLID_427_">
			<path id="XMLID_428_" class="st137" d="M85.9,102.3c-0.5,0-0.9-0.3-1.1-0.7c-0.2-0.6,0.1-1.2,0.7-1.5l5.7-2.1
				c0.3-0.1,0.5-0.3,0.6-0.5l3.2-5c0.3-0.5,1-0.7,1.6-0.3c0.5,0.3,0.7,1,0.3,1.6l-3.2,5c-0.4,0.6-1,1.1-1.7,1.4l-5.7,2.1
				C86.2,102.3,86,102.3,85.9,102.3z"/>
		</g>
		<path id="XMLID_426_" class="st139" d="M84.8,101.6c0,0-0.1,0.3,0.4,0.6c0.1,0.1,0.3,0.4,0.5,0.4l2.1,1.1l0.1-2.5
			c0-0.1,0-0.2,0-0.3l-1.6-0.3C85.5,100.4,85,100.8,84.8,101.6z"/>
		<g id="XMLID_424_">
			<path id="XMLID_425_" class="st138" d="M85.9,102.5c-0.6,0-1.1-0.3-1.3-0.9c-0.3-0.7,0.1-1.5,0.8-1.8l3.2-1.2
				c0.7-0.3,1.5,0.1,1.8,0.8c0.3,0.7-0.1,1.5-0.8,1.8l-3.2,1.2C86.2,102.5,86.1,102.5,85.9,102.5z"/>
		</g>
		<path id="XMLID_423_" class="st137" d="M83.5,97.3H83c-1,0-1.9-0.8-1.9-1.9v-5H87v3.3C87,95.7,85.4,97.3,83.5,97.3z"/>
		<path id="XMLID_422_" class="st137" d="M83.2,99.3H83c-0.6,0-1.1-0.5-1.1-1.1v-3.6c0-0.2,0.1-0.3,0.3-0.3h1.9
			c0.2,0,0.3,0.1,0.3,0.3v3.6C84.3,98.8,83.8,99.3,83.2,99.3z"/>
		<path id="XMLID_421_" class="st137" d="M93.5,102.6c0.1,0.7-0.7,1.3-1.4,1.3c-0.7,0-1.2-0.5-1.2-1.2s0.2-1.3,0.9-1.3
			C92.4,101.4,93.4,102.1,93.5,102.6z"/>
		<path id="XMLID_420_" class="st137" d="M95,92.3c1-1,2.3-0.8,2.5-0.2c0.3,0.6,0,1.3-0.6,1.6c-0.6,0.3-0.6-0.4-0.9-1
			C95.8,92.1,94.6,92.8,95,92.3z"/>
		<circle id="XMLID_419_" class="st137" cx="90.6" cy="102.1" r="0.6"/>
		<path id="XMLID_418_" class="st137" d="M94.8,93.2L93.9,92c-0.1-0.2-0.1-0.4,0.1-0.6h0.1c0.2-0.1,0.4-0.1,0.6,0.1l0.9,1.2
			c0.1,0.2,0.1,0.4-0.1,0.6h-0.1C95.2,93.4,94.9,93.4,94.8,93.2z"/>
		<g id="XMLID_42_">
			
				<linearGradient id="XMLID_378_" gradientUnits="userSpaceOnUse" x1="298.7029" y1="163.65" x2="307.043" y2="163.65" gradientTransform="matrix(1 0 0 -1 -218.5155 256)">
				<stop  offset="0.1499" style="stop-color:#FF9800"/>
				<stop  offset="1" style="stop-color:#FFC107"/>
			</linearGradient>
			<path id="XMLID_481_" class="st140" d="M87.9,88.8c0,0.2-0.2,0.2-0.4,0.3c-1.1,0.2-2.3,0-3.4-0.3c-0.5-0.1-1-0.2-1.5-0.3
				c-0.5,0-1,0.1-1.4,0.4s-0.6,0.9-0.4,1.3c-0.5,0.2-0.6,0.8-0.6,1.3c0,0.7,0.1,1.3,0.3,2c0.1,0.4,0.3,0.7,0.3,1.1s-0.1,0.8,0.1,1.2
				c0.1,0.1,0.3,0.4,0.4,0.4c0.2,0,0.4-0.2,0.6-0.3c0.2-0.1,0.4-0.2,0.6-0.3c0.4-0.2,0.9-0.5,1-0.9c0.1-0.3,0-0.7,0.1-1.1
				c0.1-0.2,0.3-0.4,0.5-0.4c0.1,0,0.2,0.2,0.3,0.4c0.1,0.2,0.2,0.4,0.2,0.6c0,0.1,0,0.1,0.1,0.2s0.3,0,0.4-0.1s0.1-0.3,0.1-0.5
				s-0.1-0.3-0.1-0.5c0-0.5,0.4-0.8,0.9-1c0.4-0.2,0.9-0.2,1.4-0.3c0.6-0.2,1.1-0.8,1.2-1.5C88.6,89.9,88.4,89.2,87.9,88.8z"/>
		</g>
		<g>
			<g id="XMLID_41_">
				<path id="XMLID_482_" class="st129" d="M87.9,88.8c0,0.1,0,0.1-0.1,0.2c0.4,0.4,0.6,1.1,0.5,1.7c-0.1,0.7-0.6,1.2-1.2,1.5
					c-0.4,0.2-0.9,0.2-1.4,0.3c-0.4,0.2-0.9,0.5-0.9,1c0,0.2,0.1,0.3,0.1,0.5s0,0.3-0.1,0.5l-0.1,0.1c0.1,0.1,0.3,0,0.4-0.1
					s0.1-0.3,0.1-0.5s-0.1-0.3-0.1-0.5c0-0.5,0.4-0.8,0.9-1c0.4-0.2,0.9-0.2,1.4-0.3c0.6-0.2,1.1-0.8,1.2-1.5
					C88.6,89.9,88.4,89.2,87.9,88.8z"/>
			</g>
		</g>
	</g>
	<g id="XMLID_71_">
		<path id="XMLID_146_" class="st141" d="M49.5,171.7v1.6c0,0.4,0.2,0.8,0.6,1l0.2,0.2c1,0.6,2.1,0.6,3.1,0l2.9-1.6
			c0.3-0.2,0.3-0.7,0-0.9l0,0c-0.6-0.3-1.2-0.8-1.8-0.7c-0.3,0-0.6,0.1-0.8,0.1l-1.3,0.2L49.5,171.7z"/>
		<path id="XMLID_145_" class="st61" d="M56.3,172.6l-2.9,1.6c-1,0.5-2.2,0.5-3.1,0l-0.2-0.2c-0.4-0.2-0.6-0.6-0.6-1v0.4
			c0,0.4,0.2,0.8,0.6,1l0.2,0.2c1,0.6,2.1,0.6,3.1,0l2.9-1.6c0.2-0.1,0.3-0.4,0.2-0.6C56.5,172.4,56.4,172.5,56.3,172.6z"/>
		<g id="XMLID_142_">
			<path id="XMLID_144_" class="st138" d="M54.2,172.4l0.3-0.2l-0.4-0.8c-0.1,0-0.3,0-0.4,0L54.2,172.4z"/>
			<polygon id="XMLID_143_" class="st138" points="53.5,172.6 53.8,172.4 53.4,171.5 53,171.6 			"/>
		</g>
		<path id="XMLID_141_" class="st141" d="M54.2,175v1.6c0,0.4,0.2,0.8,0.6,1l0.2,0.2c1,0.6,2.1,0.6,3.1,0l2.9-1.6
			c0.3-0.2,0.3-0.7,0-0.9l0,0c-0.6-0.3-1.2-0.8-1.8-0.7c-0.3,0-0.6,0.1-0.8,0.1l-1.3,0.2L54.2,175z"/>
		<path id="XMLID_140_" class="st61" d="M61,175.9l-2.9,1.6c-1,0.5-2.2,0.5-3.1,0l-0.2-0.2c-0.4-0.2-0.6-0.6-0.6-1v0.4
			c0,0.4,0.2,0.8,0.6,1l0.2,0.2c1,0.6,2.1,0.6,3.1,0l2.9-1.6c0.2-0.1,0.3-0.4,0.2-0.6C61.2,175.7,61.1,175.8,61,175.9z"/>
		<g id="XMLID_136_">
			<path id="XMLID_137_" class="st61" d="M50.5,151.2c-0.2,0-0.4-0.1-0.6-0.3l-1.7-1.6c-1.2-1.2-1.9-2.9-1.8-4.6
				c0.1-1.7,0.9-3.3,2.2-4.4l1.9-1.5c0.4-0.3,0.9-0.2,1.3,0.1c0.3,0.4,0.2,0.9-0.1,1.3l-1.9,1.5c-0.9,0.8-1.5,1.9-1.6,3.1
				c-0.1,1.2,0.4,2.4,1.3,3.2l1.7,1.6c0.4,0.3,0.4,0.9,0,1.3C51,151.1,50.7,151.2,50.5,151.2z"/>
		</g>
		<g id="XMLID_129_">
			<g id="XMLID_130_">
				
					<linearGradient id="XMLID_475_" gradientUnits="userSpaceOnUse" x1="-116.8595" y1="94.45" x2="-112.7595" y2="94.45" gradientTransform="matrix(-1 0 0 -1 -63.3973 256)">
					<stop  offset="0" style="stop-color:#7EA7DF"/>
					<stop  offset="1" style="stop-color:#4A65A3"/>
				</linearGradient>
				<path id="XMLID_135_" class="st142" d="M50.9,173.4c-0.9,0-1.4-0.7-1.4-1.6L50,162l-0.7-10.7c0-0.9,0.7-1.6,1.6-1.6
					c0.9,0,2.5,0.7,2.5,1.6l-1,20.6C52.5,172.7,51.8,173.4,50.9,173.4z"/>
			</g>
		</g>
		
			<linearGradient id="XMLID_476_" gradientUnits="userSpaceOnUse" x1="-120.8729" y1="96.1287" x2="-112.5816" y2="96.1287" gradientTransform="matrix(-1 0 0 -1 -63.3973 256)">
			<stop  offset="0" style="stop-color:#4A65A3"/>
			<stop  offset="0.2376" style="stop-color:#4D69A7"/>
			<stop  offset="0.4911" style="stop-color:#5776B3"/>
			<stop  offset="0.751" style="stop-color:#688BC6"/>
			<stop  offset="1" style="stop-color:#7EA7DF"/>
		</linearGradient>
		<path id="XMLID_40_" class="st143" d="M49.9,149.5c0-1.3,0.7-7.2,1.8-6.5l5.7,3.3c0.5,0.3-0.8-0.1-0.8,0.5v6.5
			c0.5,0.3,0.8,0.8,0.8,1.3v20.6c0,0.9-0.7,1.6-1.6,1.6c-0.9,0-1.6-0.7-1.6-1.6l0.2-10.6l-0.8-6.7l-3.6-2c-0.5-0.3-0.9-0.9-0.9-1.5
			L49.9,149.5z"/>
		<g class="st69">
			<path id="XMLID_34_" class="st144" d="M51.1,149.7c0.4,0.3,0.4,0.9,0,1.3c-0.2,0.2-0.4,0.3-0.6,0.3c-0.2,0-0.4-0.1-0.6-0.3l-1-1
				c0-0.3,0-0.5,0.1-0.6c0.1-0.6,0.1-1.2,0.1-1.8c0.1,0.2,0.3,0.3,0.4,0.5L51.1,149.7z"/>
		</g>
		<g id="XMLID_122_">
			<path id="XMLID_123_" class="st61" d="M49.3,141.5l0.3,4.8c-0.1,1-0.1,2-0.2,3.1c-0.1,0.6-0.4,4.4-0.3,4.9
				c0.1,0.4,1.1,1.2,2.4,1.9c0.1,0.1,0.3-3.1,0.4-3c0.1,0.1,0.2,3.3,0.4,3.4c1.7,0.8,3.8,1.3,5.1,0.6l-0.2-5.9l0.3-3.7
				c0.2-2.5,0.7-5.9-1.8-7.4c-0.1-0.1-0.2-0.1-0.3-0.2l-2.6-1.4c-0.6-0.4-1.4-0.4-2,0l0,0C49.8,139.2,49.2,140.3,49.3,141.5z"/>
		</g>
		<g id="XMLID_119_">
			<g id="XMLID_120_">
				<path id="XMLID_121_" class="st137" d="M53.3,140.3c-0.5,0-0.9-0.4-0.9-0.9v-3.5c0-0.5,0.4-0.9,0.9-0.9s0.9,0.4,0.9,0.9v3.5
					C54.2,139.9,53.8,140.3,53.3,140.3z"/>
			</g>
		</g>
		<g id="XMLID_117_">
			<path id="XMLID_118_" class="st137" d="M52.5,139.2L52.5,139.2v-5.9h4.4v1.5C56.9,137.2,54.9,139.2,52.5,139.2z"/>
		</g>
		<g id="XMLID_115_">
			<path id="XMLID_483_" class="st61" d="M57.9,132.1c-0.2-0.5-0.7-0.8-1.2-0.5c-0.2,0.1-0.4,0.2-0.6,0c-0.3-0.2-0.4-0.3-0.8-0.2
				c-0.2,0-0.4,0.2-0.5,0.2c-0.3,0-0.6-0.3-0.9-0.2c-0.3,0.1-0.3,0.1-0.7,0.1c-0.2,0-0.4,0-0.6,0.1c-0.4,0.2-0.4,0.5-0.6,0.7
				c-0.2,0.2-0.5,0.1-0.7,0.3s-0.3,0.5-0.1,0.7c0.1,0.1,0.1,0.2,0.1,0.4c0,0.1-0.1,0.1-0.2,0.2c-0.2,0.2,0,0.6,0.1,0.9
				c0,0.1,0.1,0.1,0.1,0.2c0,0.1-0.1,0.1-0.1,0.2c-0.2,0.3-0.2,0.8,0.1,1.1c0.1,0.1,0.3,0.2,0.4,0.4c0,0.1,0,0.2-0.1,0.3
				c-0.1,0.4,0.1,0.8,0.4,1c0.4,0.2,0,0.9,0.7,1c0.5,0,0.9-0.6,1-1c0,0.1,0.3-0.1,0.3-0.1c0.1-0.1,0.1-0.3,0.1-0.4
				c0.1-0.3,0.1-0.5,0.2-0.8c0-0.1,0-1.2,0.1-1.2c0.2,0,0.4,0,0.6-0.1c0.5-0.2,0.3-0.5,0.5-0.8c0.1-0.2,0.3-0.2,0.4-0.4
				c0.1-0.2,0.1-0.4,0.1-0.6c0.4,0.1,1,0.2,1.4,0c0.3-0.1,0.8-0.4,0.8-0.8C58,132.4,58,132.2,57.9,132.1z"/>
		</g>
		<path id="XMLID_113_" class="st145" d="M58,132.6c0,0.4-0.5,0.6-0.8,0.8c-0.2,0.1-0.5,0.1-0.8,0.1c0.1,0,0.3,0,0.4-0.1
			c0.3-0.1,0.8-0.4,0.8-0.8c0-0.2,0-0.3-0.1-0.5c-0.1-0.3-0.4-0.5-0.7-0.6c0.4-0.1,0.9,0.2,1,0.6C58,132.2,58,132.4,58,132.6z"/>
		<g id="XMLID_111_">
			<circle id="XMLID_112_" class="st137" cx="54.6" cy="135.8" r="0.6"/>
		</g>
		<g id="XMLID_108_">
			<path id="XMLID_110_" class="st138" d="M58.9,175.7l0.3-0.2l-0.4-0.8c-0.1,0-0.3,0-0.4,0L58.9,175.7z"/>
			<polygon id="XMLID_109_" class="st138" points="58.2,175.9 58.5,175.7 58.1,174.8 57.7,174.9 			"/>
		</g>
		<g>
			<path id="XMLID_33_" class="st137" d="M56.4,144.1L56.4,144.1l4.2-1.5c1.4-0.5,2.5-1.8,2.8-3.3l1.3-6.7c0.1-0.5-0.2-0.9-0.7-1
				s-0.9,0.2-1,0.7l-1.3,6.7c-0.2,0.9-0.8,1.6-1.6,1.9l-4.2,1.5c-0.5,0.2-0.7,0.7-0.5,1.1C55.4,144,55.9,144.3,56.4,144.1z"/>
		</g>
		<g>
			<path id="XMLID_32_" class="st61" d="M56.4,144.2L56.4,144.2l4.2-1.5c1.5-0.5,2.5-1.8,2.8-3.3l1-5.4c0.1-0.5-0.2-1.1-0.8-1.2
				c-0.5-0.1-1.1,0.2-1.2,0.8l-1,5.4c-0.2,0.8-0.8,1.6-1.6,1.8l-4.2,1.5c-0.5,0.2-0.8,0.8-0.6,1.3C55.4,144.1,55.9,144.4,56.4,144.2
				z"/>
		</g>
		<path id="XMLID_31_" class="st137" d="M63,132.8L63,132.8c0.1,0,0.2,0,0.2-0.1l0.4-2.1c0-0.1,0-0.2-0.1-0.2l0,0
			c-0.1,0-0.2,0-0.2,0.1l-0.4,2.1C62.8,132.7,62.9,132.8,63,132.8z"/>
	</g>
	<g id="XMLID_228_">
		<g id="XMLID_247_">
			<path id="XMLID_248_" class="st146" d="M81.9,187.9c0.2,0,0.3,0,0.5-0.1c0.5-0.3,0.7-0.9,0.4-1.4l-3.5-6.3
				c-0.4-0.7-0.2-1.6,0.5-2l4.5-3.1c0.5-0.3,0.6-1,0.3-1.5c-0.3-0.5-1-0.6-1.5-0.3l-4.5,3.1c-1.6,1.1-2.1,3.1-1.2,4.8l3.5,6.3
				C81.2,187.7,81.6,187.9,81.9,187.9z"/>
		</g>
		<path id="XMLID_246_" class="st137" d="M94.7,165.7L94.7,165.7c0.2,0.1,0.3,0,0.4-0.2l0.8-2.1c0.1-0.2,0-0.3-0.2-0.4l0,0
			c-0.2-0.1-0.3,0-0.4,0.2l-0.8,2.1C94.5,165.5,94.6,165.6,94.7,165.7z"/>
		<path id="XMLID_99_" class="st147" d="M81.7,212.8l1.1-0.6l1.1-0.6l2.5-1.4c0.6-0.4,0.5-1.3-0.1-1.5l0,0c-0.5-0.2-1-0.1-1.5,0.1
			l-1.9,0.9l-2.3,0.9c-0.2,0.1-0.3,0.3-0.3,0.5v0.6c0,0.7,0.6,1.3,1.4,1.3h0V212.8z"/>
		<path id="XMLID_98_" class="st137" d="M81.3,210l1.5-0.4L84,209c0.6,0.3,0.6,1.1,0,1.5l-1.7,1h-0.1c-0.5,0.3-1.1,0.2-1.4-0.2
			c-0.3-0.3-0.5-0.6-0.4-0.7l0.7-0.2C81,210.2,81.1,210,81.3,210z"/>
		<g id="XMLID_96_">
			<path id="XMLID_97_" class="st137" d="M81.6,211.7c0.7,0,1.1-0.6,1.1-1.3v-24.2c0-0.7-0.6-1.3-1.3-1.3c-0.7,0-1.6,4.7-1.6,5.5
				l0.3,8.6l0.2,11.5C80.3,211.1,80.9,211.7,81.6,211.7z"/>
		</g>
		<path id="XMLID_242_" class="st147" d="M86.2,215.3l1.1-0.6l1.1-0.6l2.5-1.4c0.6-0.4,0.5-1.3-0.1-1.5l0,0c-0.5-0.2-1-0.1-1.5,0.1
			l-1.9,0.9L85,213c-0.2,0.1-0.3,0.3-0.3,0.5v0.6c0,0.7,0.6,1.3,1.4,1.3h0.1V215.3z"/>
		<path id="XMLID_241_" class="st137" d="M85.8,212.5l1.5-0.4l1.1-0.6c0.6,0.3,0.6,1.1,0,1.5l-1.7,1h-0.1c-0.5,0.3-1.1,0.2-1.4-0.2
			c-0.3-0.3-0.5-0.6-0.4-0.7l0.7-0.2C85.5,212.7,85.6,212.5,85.8,212.5z"/>
		<g id="XMLID_237_">
			<path id="XMLID_238_" class="st137" d="M86.1,214.2c0.7,0,1.1-0.6,1.1-1.3v-24.2c0-0.7-0.6-1.3-1.3-1.3c-0.7,0-2.4,1-2.4,1.7
				l1.1,12.3l0.2,11.5C84.8,213.6,85.4,214.2,86.1,214.2z"/>
		</g>
		<g id="XMLID_234_">
			<path id="XMLID_235_" class="st137" d="M84,176.1c0.1,0,0.1,0,0.2,0l1.1-0.2c4.6-0.8,8.5-3.8,10.5-8l0.9-1.9
				c0.2-0.5,0-1.2-0.5-1.4s-1.2,0-1.4,0.5l-0.9,1.9c-1.7,3.6-5,6.2-8.9,6.8l-1.1,0.2c-0.6,0.1-1,0.6-0.9,1.2
				C83,175.8,83.5,176.1,84,176.1z"/>
		</g>
		
			<linearGradient id="XMLID_477_" gradientUnits="userSpaceOnUse" x1="-134.2141" y1="71.5012" x2="-124.6862" y2="71.5012" gradientTransform="matrix(-1 0 0 -1 -45.6533 256)">
			<stop  offset="0" style="stop-color:#E3EDF7"/>
			<stop  offset="0.1691" style="stop-color:#DEE9F6"/>
			<stop  offset="0.3884" style="stop-color:#CEDEF2"/>
			<stop  offset="0.6352" style="stop-color:#B3CBEC"/>
			<stop  offset="0.9004" style="stop-color:#8EB2E3"/>
			<stop  offset="1" style="stop-color:#7EA7DF"/>
		</linearGradient>
		<path id="XMLID_30_" class="st148" d="M80,184.6L80,184.6l-0.6-13.5c0-1.5,1.6-2.5,3-1.8l0,0c0.2,0.1,0.5,0.4,0.6,0.6
			c0.9,1.5,2,2.5,2.9,3.5c0.3-0.1,0.6-0.2,0.9-0.3c0.7-0.2,1.4,0.1,1.7,0.8c0.2,0.7-0.1,1.4-0.8,1.7c-0.1,0-0.2,0.1-0.4,0.1
			c0.1,0.5,0.2,1,0.2,1.6l-0.8,6l0.9,5.9l0.3,10.2c-0.6,0.4-1.4,0.6-2.2,0.5c-0.1,0-1-0.1-1.2-0.1c-2.3-0.4-4.4-0.5-5.2-2.2
			l-0.3-4.3C78.9,190.3,79.2,187.4,80,184.6z"/>
		<path id="XMLID_231_" class="st137" d="M82.7,171.4L82.7,171.4c0.4,0,0.8-0.3,0.8-0.8V167h-1.6v3.6
			C81.9,171,82.2,171.4,82.7,171.4z"/>
		<path id="XMLID_230_" class="st137" d="M81.1,169.5l1.6,0.2c1.2,0.2,2.2-0.8,2.1-1.9c0-0.1,0-0.1,0-0.2l-0.8-3.7l-3.9,0.8
			L81.1,169.5z"/>
		
			<linearGradient id="XMLID_478_" gradientUnits="userSpaceOnUse" x1="-130.2689" y1="85.9044" x2="-123.207" y2="85.9044" gradientTransform="matrix(-1 0 0 -1 -45.6533 256)">
			<stop  offset="0.1499" style="stop-color:#FF9800"/>
			<stop  offset="1" style="stop-color:#FFC107"/>
		</linearGradient>
		<path id="XMLID_29_" class="st149" d="M78,173.6c0.1-0.3,0.3-0.5,0.3-0.8c0.1-0.6-0.4-1.2-0.6-1.8c-0.2-0.9,0.4-1.7,0.4-2.6
			c0-1-0.3-1.8,0-2.8c0-0.2,0.1-0.3,0.2-0.4c0.5-1.3,1.8-1.9,3.1-2.2c0.6-0.1,1.1-0.1,1.7,0c0.3,0,0.7,0.1,1,0.3
			c0.1,0.1,0.3,0.2,0.3,0.3c0.1,0.2,0.2,0.4,0.2,0.6c-0.1,0.5-0.7,0.7-0.8,1.2c0,0.2,0.1,0.5,0.2,0.8c0,0.3,0,0.6-0.2,0.9
			c-0.2,0.5-0.8,1-0.7,1.6c0,0.3,0.1,0.5,0.2,0.8c0.1,0.9-0.9,1.7-0.6,2.6c0.2,0.6,0.9,1.1,0.8,1.7c0,0.3-0.2,0.5-0.2,0.7
			c-0.1,0.5,0.3,1.1,0.1,1.6c-0.8,1.6-3.5,1.3-4.8,0.6c-0.3-0.2-0.6-0.4-0.8-0.7C77.3,175.2,77.6,174.3,78,173.6z"/>
		<path id="XMLID_229_" class="st147" d="M83.4,186.9c-1.3,0-2.6-0.2-3.8-0.6c0.1-0.6,0.3-1.2,0.4-1.7v-0.4c2.1,0.7,4.8,0.7,6.9,0
			l0.3,2.1C86.1,186.7,84.7,186.9,83.4,186.9z"/>
	</g>
	<g>
		<g>
			<path class="st61" d="M180.2,138.1c0-0.3-0.4-0.5-0.9-0.5h-2c-0.3,0-0.9,0.4-1,0.2s-0.1-0.4,0.1-0.5l1.4-0.8
				c0.4-0.2-2-0.1-2.3-0.3v-1.8c-0.4-0.2-1-0.2-1.3,0l-1.4,0.8c-0.2,0.1-0.6,0.2-0.9,0.1c-0.2-0.1-0.4-0.1-0.6-0.1
				c-0.3-0.1-0.5-0.2-0.5-0.4v-1.2c0-0.3-0.4-0.5-0.9-0.5h-3.3c-0.5,0-0.9,0.2-0.9,0.5v1.2c0,0.2-0.2,0.4-0.5,0.4
				c-0.2,0-0.4,0.1-0.6,0.1c-0.3,0.1-0.7,0.1-0.9-0.1l-1.4-0.8c-0.4-0.2-1-0.2-1.3,0l-0.2,1.9c-0.4,0.2-2.5,0-2.1,0.2l1.4,0.8
				c0.2,0.1,0.3,0.3,0.2,0.5c-0.1,0.1-0.7-0.2-1-0.2h-2c-0.5,0-0.9,0.2-0.9,0.5v2.8c0,0.3,0.4,0.5,0.9,0.5h1.2v2.3v0.1l0,0l0,0
				c0,0.1,0.1,0.2,0.3,0.3l2.3,1.3c0.2,0.1,0.5,0.2,0.8,0.1l0,0l0,0c0.2,0,0.4-0.1,0.5-0.1l1.4-0.8c0.2-0.1,0.6-0.2,0.9-0.1
				c0.2,0.1,0.4,0.1,0.6,0.1c0.3,0.1,0.5,0.2,0.5,0.4v1.2c0,0.3,0.4,0.5,0.9,0.5h3.3c0.5,0,0.9-0.2,0.9-0.5V145
				c0-0.2,0.2-0.4,0.5-0.4c0.2,0,0.4-0.1,0.6-0.1c0.3-0.1,0.7-0.1,0.9,0.1l1.4,0.8c0.1,0.1,0.3,0.1,0.5,0.1l0,0l0,0
				c0.3,0,0.6,0,0.8-0.1l2.3-1.3c0.2-0.1,0.2-0.2,0.3-0.3l0,0v-0.1l0,0v-2.3h1.2c0.5,0,0.9-0.2,0.9-0.5L180.2,138.1z M172.7,140.4
				c-0.5,1.7-3.6,2.6-6.3,2c-2.1-0.5-3.3-1.7-2.9-3c0.5-1.7,3.6-2.6,6.3-2C171.9,137.9,173.1,139.2,172.7,140.4z"/>
			<path id="XMLID_26_" class="st61" d="M178.1,135v-1.5H176l-0.5-0.3c-0.4-0.2-1-0.2-1.3,0l-0.5,0.3h-2.9v-1.1
				c0-0.3-0.4-0.5-0.9-0.5h-3.3c-0.5,0-0.9,0.2-0.9,0.5v1.1h-3l-0.5-0.3c-0.4-0.2-1-0.2-1.3,0l-0.4,0.3h-2.1v1.5
				c0,0.1,0.1,0.3,0.3,0.4l1.4,0.8h16.5l1.4-0.8C178,135.2,178.1,135.1,178.1,135L178.1,135z"/>
			<g id="XMLID_613_">
				
					<linearGradient id="XMLID_479_" gradientUnits="userSpaceOnUse" x1="156.139" y1="118.7" x2="180.1769" y2="118.7" gradientTransform="matrix(1 0 0 -1 0 256)">
					<stop  offset="0" style="stop-color:#4A65A3"/>
					<stop  offset="0.4402" style="stop-color:#5471B1"/>
					<stop  offset="1" style="stop-color:#5D7DBE"/>
				</linearGradient>
				<path id="XMLID_614_" class="st150" d="M176.7,138.8h2.6c0.5,0,0.9-0.2,0.9-0.5v-1.9c0-0.3-0.4-0.5-0.9-0.5h-2
					c-0.3,0-0.6-0.1-0.7-0.3c-0.1-0.1-0.1-0.2-0.2-0.3c-0.1-0.2-0.1-0.4,0.1-0.5l1.4-0.8c0.4-0.2,0.4-0.6,0-0.8l-2.3-1.3
					c-0.4-0.2-1-0.2-1.3,0l-1.4,0.8c-0.2,0.1-0.6,0.2-0.9,0.1c-0.2-0.1-0.4-0.1-0.6-0.1c-0.3-0.1-0.5-0.2-0.5-0.4V131
					c0-0.3-0.4-0.5-0.9-0.5h-3.3c-0.5,0-0.9,0.2-0.9,0.5v1.2c0,0.2-0.2,0.4-0.5,0.4c-0.2,0-0.4,0.1-0.6,0.1
					c-0.3,0.1-0.7,0.1-0.9-0.1l-1.4-0.8c-0.4-0.2-1-0.2-1.3,0l-2.3,1.3c-0.4,0.2-0.4,0.6,0,0.8l1.4,0.8c0.2,0.1,0.3,0.3,0.2,0.5
					c-0.1,0.1-0.2,0.2-0.2,0.4c-0.1,0.2-0.4,0.3-0.7,0.3h-2c-0.5,0-0.9,0.2-0.9,0.5v1.9c0,0.3,0.4,0.5,0.9,0.5h2
					c0.3,0,0.6,0.1,0.7,0.3c0.1,0.1,0.1,0.2,0.2,0.3c0.1,0.2,0.1,0.4-0.1,0.5l-1.4,0.8c-0.4,0.2-0.4,0.6,0,0.8l2.3,1.3
					c0.4,0.2,1,0.2,1.3,0l1.4-0.8c0.2-0.1,0.6-0.2,0.9-0.1c0.2,0.1,0.4,0.1,0.6,0.1c0.3,0.1,0.5,0.2,0.5,0.4v1.2
					c0,0.3,0.4,0.5,0.9,0.5h3.3c0.5,0,0.9-0.2,0.9-0.5v-1.2c0-0.2,0.2-0.4,0.5-0.4c0.2,0,0.4-0.1,0.6-0.1c0.3-0.1,0.7-0.1,0.9,0.1
					l1.4,0.8c0.4,0.2,1,0.2,1.3,0l2.3-1.3c0.4-0.2,0.4-0.6,0-0.8l-1.4-0.8c-0.2-0.1-0.3-0.3-0.2-0.5
					C176.4,139.2,176.6,138.8,176.7,138.8z M163.6,136.8c0.5-1.7,3.6-2.6,6.3-2c2.1,0.5,3.3,1.7,2.9,3c-0.5,1.7-3.6,2.6-6.3,2
					C164.4,139.4,163.2,138.1,163.6,136.8z"/>
			</g>
		</g>
	</g>
	<g>
		
			<linearGradient id="XMLID_480_" gradientUnits="userSpaceOnUse" x1="89.6827" y1="187.25" x2="93.8178" y2="187.25" gradientTransform="matrix(1 0 0 -1 0 256)">
			<stop  offset="0.1499" style="stop-color:#FF9800"/>
			<stop  offset="1" style="stop-color:#FFC107"/>
		</linearGradient>
		<path id="XMLID_100_" class="st151" d="M91.6,66.2l-0.5,1.1l-1.4-0.7c-0.1,0-0.1,0-0.1,0.1l0.9,1.7l-0.3,1.4c0,0.1,0,0.1,0.1,0.1
			l1.1-0.1l1.2,1.5h0.1l-0.2-1.6l1.1-0.6V69l-1.3-1L91.6,66.2C91.7,66.2,91.6,66.2,91.6,66.2z"/>
		<g>
			<path id="XMLID_25_" class="st53" d="M89.9,67.1l1,0.6l0.2-0.4l-1.3-0.7c-0.1,0-0.1,0-0.1,0.1L89.9,67.1z"/>
			<path id="XMLID_24_" class="st53" d="M93.8,68.9L92.3,68l-0.6-1.8h-0.1l-0.2,0.5l0.5,1.5l1.4,0.8v0.1l-1.1,0.6l0.1,1l0.4,0.5h0.1
				l-0.2-1.6L93.8,68.9C93.8,69,93.8,68.9,93.8,68.9z"/>
		</g>
	</g>
	<g>
		
			<linearGradient id="XMLID_484_" gradientUnits="userSpaceOnUse" x1="78.0428" y1="195.7293" x2="84.1195" y2="195.7293" gradientTransform="matrix(1 0 0 -1 0 256)">
			<stop  offset="0.1499" style="stop-color:#FF9800"/>
			<stop  offset="1" style="stop-color:#FFC107"/>
		</linearGradient>
		<path id="XMLID_239_" class="st152" d="M80.9,56.5l-0.7,1.6l-2-1.1c-0.1,0-0.2,0-0.1,0.1l1.3,2.5L79,61.8c0,0.1,0.1,0.2,0.1,0.2
			l1.7-0.2l1.8,2.2c0.1,0.1,0.2,0,0.2-0.1l-0.3-2.4l1.6-0.9c0.1,0,0.1-0.1,0-0.1L82,59.2L80.9,56.5L80.9,56.5z"/>
		<g>
			<path id="XMLID_22_" class="st53" d="M78.4,57.8l1.5,0.8l0.2-0.5l-2-1.1c-0.1,0-0.2,0-0.1,0.1L78.4,57.8z"/>
			<path id="XMLID_15_" class="st53" d="M84.1,60.4L82,59.2l-1-2.7c0-0.1-0.1-0.1-0.1,0l-0.4,0.8l0.8,2.2l2.1,1.2
				c0.1,0,0.1,0.1,0,0.1l-1.6,0.9l0.2,1.4l0.6,0.7c0.1,0.1,0.2,0,0.2-0.1l-0.3-2.4L84.1,60.4C84.1,60.5,84.1,60.5,84.1,60.4z"/>
		</g>
	</g>
	<g>
		
			<linearGradient id="XMLID_485_" gradientUnits="userSpaceOnUse" x1="80.9843" y1="208.2293" x2="89.1048" y2="208.2293" gradientTransform="matrix(1 0 0 -1 0 256)">
			<stop  offset="0.1499" style="stop-color:#FF9800"/>
			<stop  offset="1" style="stop-color:#FFC107"/>
		</linearGradient>
		<path id="XMLID_233_" class="st153" d="M84.8,42.9l-1,2.1l-2.7-1.5c-0.1-0.1-0.2,0.1-0.2,0.2l1.8,3.3l-0.5,2.8
			c0,0.1,0.1,0.2,0.2,0.2l2.2-0.2l2.4,2.9c0.1,0.1,0.2,0,0.2-0.1l-0.3-3.2l2.2-1.2c0.1,0,0.1-0.1,0-0.2l-2.8-1.6L85,42.8
			C84.9,42.9,84.8,42.9,84.8,42.9z"/>
		<g>
			<path id="XMLID_14_" class="st53" d="M81.5,44.7l2,1.1l0.3-0.7l-2.6-1.4c-0.1-0.1-0.2,0.1-0.2,0.2L81.5,44.7z"/>
			<path id="XMLID_13_" class="st53" d="M89.1,48.2l-2.8-1.6L85,43c0-0.1-0.1-0.1-0.2,0l-0.5,1l1.1,3l2.8,1.6c0.1,0,0.1,0.1,0,0.2
				L86,50l0.2,1.9l0.8,0.9c0.1,0.1,0.2,0,0.2-0.1l-0.3-3.2l2.2-1.2C89.1,48.3,89.1,48.2,89.1,48.2z"/>
		</g>
	</g>
	<g>
		
			<linearGradient id="XMLID_486_" gradientUnits="userSpaceOnUse" x1="117.9758" y1="187.8" x2="121.9545" y2="187.8" gradientTransform="matrix(1 0 0 -1 0 256)">
			<stop  offset="0.1499" style="stop-color:#FF9800"/>
			<stop  offset="1" style="stop-color:#FFC107"/>
		</linearGradient>
		<path id="XMLID_240_" class="st154" d="M119.8,65.8l-0.5,1l-1.3-0.7c0,0-0.1,0-0.1,0.1l0.9,1.6l-0.3,1.4c0,0.1,0,0.1,0.1,0.1
			l1.1-0.1l1.2,1.4h0.1l-0.2-1.5l1.1-0.6v-0.1l-1.4-0.8L119.8,65.8C119.9,65.8,119.9,65.8,119.8,65.8z"/>
		<g>
			<path id="XMLID_8_" class="st53" d="M118.2,66.7l1,0.5l0.2-0.3l-1.3-0.7c0,0-0.1,0-0.1,0.1L118.2,66.7z"/>
			<path id="XMLID_6_" class="st53" d="M121.9,68.4l-1.4-0.8l-0.6-1.8h-0.1l-0.2,0.5l0.5,1.5l1.4,0.8v0.1l-1.1,0.6l0.1,0.9l0.4,0.5
				h0.1l-0.2-1.5L121.9,68.4C122,68.4,122,68.4,121.9,68.4z"/>
		</g>
	</g>
	<g>
		
			<linearGradient id="XMLID_487_" gradientUnits="userSpaceOnUse" x1="122.6894" y1="196.2168" x2="131.2369" y2="196.2168" gradientTransform="matrix(1 0 0 -1 0 256)">
			<stop  offset="0.1499" style="stop-color:#FF9800"/>
			<stop  offset="1" style="stop-color:#FFC107"/>
		</linearGradient>
		<path id="XMLID_236_" class="st155" d="M126.7,54.6l-1,2.2l-2.8-1.5c-0.1-0.1-0.2,0.1-0.2,0.2l1.9,3.5l-0.6,3
			c0,0.1,0.1,0.2,0.2,0.2l2.3-0.2l2.5,3c0.1,0.1,0.2,0,0.2-0.1l-0.4-3.3l2.3-1.3c0.1,0,0.1-0.1,0-0.2l-3-1.7l-1.3-3.8
			C126.8,54.5,126.7,54.5,126.7,54.6z"/>
		<g>
			<path id="XMLID_5_" class="st53" d="M123.2,56.4l2.1,1.2l0.3-0.7l-2.8-1.5c-0.1-0.1-0.2,0.1-0.2,0.2L123.2,56.4z"/>
			<path id="XMLID_3_" class="st53" d="M131.2,60.1l-3-1.7l-1.3-3.8c0-0.1-0.1-0.1-0.2,0l-0.5,1.1l1.1,3.1l3,1.7
				c0.1,0,0.1,0.1,0,0.2L128,62l0.2,2l0.8,1c0.1,0.1,0.2,0,0.2-0.1l-0.4-3.3l2.3-1.3C131.3,60.3,131.3,60.2,131.2,60.1z"/>
		</g>
	</g>
</g>
</svg>
