<?xml version="1.0" encoding="utf-8"?>
<!-- Generator: Adobe Illustrator 19.0.0, SVG Export Plug-In . SVG Version: 6.00 Build 0)  -->
<svg version="1.1" id="Layer_1" xmlns="http://www.w3.org/2000/svg" xmlns:xlink="http://www.w3.org/1999/xlink" x="0px" y="0px"
	 viewBox="0 0 256 256" style="enable-background:new 0 0 256 256;" xml:space="preserve">
<style type="text/css">
	.st0{fill:url(#XMLID_152_);}
	.st1{opacity:0.2;}
	.st2{opacity:0;fill:#3C5185;}
	.st3{opacity:1.960800e-002;fill:#3C5185;}
	.st4{opacity:3.921600e-002;fill:#3C5185;}
	.st5{opacity:5.882400e-002;fill:#3C5185;}
	.st6{opacity:7.843100e-002;fill:#3C5185;}
	.st7{opacity:9.803900e-002;fill:#3C5185;}
	.st8{opacity:0.1176;fill:#3C5185;}
	.st9{opacity:0.1373;fill:#3C5185;}
	.st10{opacity:0.1569;fill:#3C5185;}
	.st11{opacity:0.1765;fill:#3C5185;}
	.st12{opacity:0.1961;fill:#3C5185;}
	.st13{opacity:0.2157;fill:#3C5185;}
	.st14{opacity:0.2353;fill:#3C5185;}
	.st15{opacity:0.2549;fill:#3C5185;}
	.st16{opacity:0.2745;fill:#3C5185;}
	.st17{opacity:0.2941;fill:#3C5185;}
	.st18{opacity:0.3137;fill:#3C5185;}
	.st19{opacity:0.3333;fill:#3C5185;}
	.st20{opacity:0.3529;fill:#3C5185;}
	.st21{opacity:0.3725;fill:#3C5185;}
	.st22{opacity:0.3922;fill:#3C5185;}
	.st23{opacity:0.4118;fill:#3C5185;}
	.st24{opacity:0.4314;fill:#3C5185;}
	.st25{opacity:0.451;fill:#3C5185;}
	.st26{opacity:0.4706;fill:#3C5185;}
	.st27{opacity:0.4902;fill:#3C5185;}
	.st28{opacity:0.5098;fill:#3C5185;}
	.st29{opacity:0.5294;fill:#3C5185;}
	.st30{opacity:0.549;fill:#3C5185;}
	.st31{opacity:0.5686;fill:#3C5185;}
	.st32{opacity:0.5882;fill:#3C5185;}
	.st33{opacity:0.6078;fill:#3C5185;}
	.st34{opacity:0.6275;fill:#3C5185;}
	.st35{opacity:0.6471;fill:#3C5185;}
	.st36{opacity:0.6667;fill:#3C5185;}
	.st37{opacity:0.6863;fill:#3C5185;}
	.st38{opacity:0.7059;fill:#3C5185;}
	.st39{opacity:0.7255;fill:#3C5185;}
	.st40{opacity:0.7451;fill:#3C5185;}
	.st41{opacity:0.7647;fill:#3C5185;}
	.st42{opacity:0.7843;fill:#3C5185;}
	.st43{opacity:0.8039;fill:#3C5185;}
	.st44{opacity:0.8235;fill:#3C5185;}
	.st45{opacity:0.8431;fill:#3C5185;}
	.st46{opacity:0.8627;fill:#3C5185;}
	.st47{opacity:0.8824;fill:#3C5185;}
	.st48{opacity:0.902;fill:#3C5185;}
	.st49{opacity:0.9216;fill:#3C5185;}
	.st50{opacity:0.9412;fill:#3C5185;}
	.st51{opacity:0.9608;fill:#3C5185;}
	.st52{opacity:0.9804;fill:#3C5185;}
	.st53{fill:#3C5185;}
	.st54{fill:url(#XMLID_153_);}
	.st55{fill:#FFFFFF;}
	.st56{fill:#A5CBEF;}
	.st57{opacity:0.3;fill:#3C5185;}
	.st58{fill:#EDF5FC;}
	.st59{fill:url(#XMLID_154_);}
	.st60{fill:url(#XMLID_155_);}
	.st61{fill:#B7D5F2;}
	.st62{fill:url(#XMLID_156_);}
	.st63{fill:url(#XMLID_157_);}
	.st64{fill:url(#XMLID_158_);}
	.st65{fill:url(#XMLID_159_);}
	.st66{fill:url(#XMLID_160_);}
	.st67{fill:url(#XMLID_161_);}
	.st68{fill:url(#XMLID_162_);}
	.st69{fill:url(#XMLID_163_);}
	.st70{opacity:0.3;fill:#A5CBEF;}
	.st71{fill:url(#XMLID_164_);}
	.st72{fill:url(#XMLID_165_);}
	.st73{fill:url(#XMLID_166_);}
	.st74{fill:url(#XMLID_167_);}
	.st75{fill:#4A65A3;}
	.st76{fill:url(#XMLID_168_);}
	.st77{fill:#F2B1B5;}
	.st78{fill:url(#XMLID_169_);}
	.st79{fill:url(#XMLID_170_);}
	.st80{fill:url(#XMLID_171_);}
	.st81{fill:url(#XMLID_172_);}
	.st82{fill:url(#XMLID_173_);}
	.st83{fill:url(#XMLID_174_);}
	.st84{fill:#FFC107;}
	.st85{fill:#FFAD33;}
	.st86{fill:#FFCD39;}
	.st87{fill:#FF9800;}
	.st88{fill:url(#SVGID_1_);}
	.st89{fill:url(#SVGID_2_);}
	.st90{fill:url(#SVGID_3_);}
	.st91{fill:url(#SVGID_4_);}
	.st92{fill:url(#SVGID_5_);}
	.st93{fill:url(#SVGID_6_);}
	.st94{fill:url(#SVGID_7_);}
	.st95{fill:url(#SVGID_8_);}
	.st96{fill:url(#SVGID_9_);}
</style>
<g>
	<linearGradient id="XMLID_152_" gradientUnits="userSpaceOnUse" x1="150.3065" y1="209.0569" x2="104.121" y2="58.4517">
		<stop  offset="0.1445" style="stop-color:#FFFFFF"/>
		<stop  offset="1" style="stop-color:#E1EBF7"/>
	</linearGradient>
	<path id="XMLID_150_" class="st0" d="M211.1,136.5c0,42.4-41.9,72.4-84.4,72.4s-81.9-29.9-81.9-72.4s40.4-81.9,82.9-81.9
		S211.1,94,211.1,136.5z"/>
	<g>
		<g class="st1">
			<polygon id="XMLID_13_" class="st2" points="108.8,158.9 77.5,176.4 125,203.8 156.2,186.3 			"/>
			<polygon id="XMLID_149_" class="st3" points="108.8,158.9 78.1,176.1 125.6,203.5 156.2,186.3 			"/>
			<polygon id="XMLID_148_" class="st4" points="108.8,158.9 78.7,175.8 126.1,203.2 156.2,186.3 			"/>
			<polygon id="XMLID_147_" class="st5" points="108.8,158.9 79.3,175.4 126.7,202.8 156.2,186.3 			"/>
			<polygon id="XMLID_146_" class="st6" points="108.8,158.9 79.9,175.1 127.3,202.5 156.2,186.3 			"/>
			<polygon id="XMLID_145_" class="st7" points="108.8,158.9 80.5,174.8 127.9,202.2 156.2,186.3 			"/>
			<polygon id="XMLID_144_" class="st8" points="108.8,158.9 81.1,174.5 128.5,201.8 156.2,186.3 			"/>
			<polygon id="XMLID_143_" class="st9" points="108.8,158.9 81.7,174.1 129.1,201.5 156.2,186.3 			"/>
			<polygon id="XMLID_142_" class="st10" points="108.8,158.9 82.2,173.8 129.7,201.2 156.2,186.3 			"/>
			<polygon id="XMLID_141_" class="st11" points="108.8,158.9 82.8,173.5 130.3,200.9 156.2,186.3 			"/>
			<polygon id="XMLID_140_" class="st12" points="108.8,158.9 83.4,173.1 130.8,200.5 156.2,186.3 			"/>
			<polygon id="XMLID_139_" class="st13" points="108.8,158.9 84,172.8 131.4,200.2 156.2,186.3 			"/>
			<polygon id="XMLID_138_" class="st14" points="108.8,158.9 84.6,172.5 132,199.9 156.2,186.3 			"/>
			<polygon id="XMLID_137_" class="st15" points="108.8,158.9 85.2,172.2 132.6,199.5 156.2,186.3 			"/>
			<polygon id="XMLID_136_" class="st16" points="108.8,158.9 85.8,171.8 133.2,199.2 156.2,186.3 			"/>
			<polygon id="XMLID_135_" class="st17" points="108.8,158.9 86.4,171.5 133.8,198.9 156.2,186.3 			"/>
			<polygon id="XMLID_134_" class="st18" points="108.8,158.9 86.9,171.2 134.4,198.6 156.2,186.3 			"/>
			<polygon id="XMLID_133_" class="st19" points="108.8,158.9 87.5,170.8 135,198.2 156.2,186.3 			"/>
			<polygon id="XMLID_132_" class="st20" points="108.8,158.9 88.1,170.5 135.5,197.9 156.2,186.3 			"/>
			<polygon id="XMLID_131_" class="st21" points="108.8,158.9 88.7,170.2 136.1,197.6 156.2,186.3 			"/>
			<polygon id="XMLID_130_" class="st22" points="108.8,158.9 89.3,169.9 136.7,197.2 156.2,186.3 			"/>
			<polygon id="XMLID_129_" class="st23" points="108.8,158.9 89.9,169.5 137.3,196.9 156.2,186.3 			"/>
			<polygon id="XMLID_128_" class="st24" points="108.8,158.9 90.5,169.2 137.9,196.6 156.2,186.3 			"/>
			<polygon id="XMLID_127_" class="st25" points="108.8,158.9 91.1,168.9 138.5,196.2 156.2,186.3 			"/>
			<polygon id="XMLID_126_" class="st26" points="108.8,158.9 91.6,168.5 139.1,195.9 156.2,186.3 			"/>
			<polygon id="XMLID_125_" class="st27" points="108.8,158.9 92.2,168.2 139.7,195.6 156.2,186.3 			"/>
			<polygon id="XMLID_124_" class="st28" points="108.8,158.9 92.8,167.9 140.2,195.3 156.2,186.3 			"/>
			<polygon id="XMLID_123_" class="st29" points="108.8,158.9 93.4,167.5 140.8,194.9 156.2,186.3 			"/>
			<polygon id="XMLID_122_" class="st30" points="108.8,158.9 94,167.2 141.4,194.6 156.2,186.3 			"/>
			<polygon id="XMLID_121_" class="st31" points="108.8,158.9 94.6,166.9 142,194.3 156.2,186.3 			"/>
			<polygon id="XMLID_120_" class="st32" points="108.8,158.9 95.2,166.6 142.6,193.9 156.2,186.3 			"/>
			<polygon id="XMLID_119_" class="st33" points="108.8,158.9 95.8,166.2 143.2,193.6 156.2,186.3 			"/>
			<polygon id="XMLID_118_" class="st34" points="108.8,158.9 96.3,165.9 143.8,193.3 156.2,186.3 			"/>
			<polygon id="XMLID_117_" class="st35" points="108.8,158.9 96.9,165.6 144.4,193 156.2,186.3 			"/>
			<polygon id="XMLID_116_" class="st36" points="108.8,158.9 97.5,165.2 145,192.6 156.2,186.3 			"/>
			<polygon id="XMLID_115_" class="st37" points="108.8,158.9 98.1,164.9 145.5,192.3 156.2,186.3 			"/>
			<polygon id="XMLID_114_" class="st38" points="108.8,158.9 98.7,164.6 146.1,192 156.2,186.3 			"/>
			<polygon id="XMLID_113_" class="st39" points="108.8,158.9 99.3,164.3 146.7,191.6 156.2,186.3 			"/>
			<polygon id="XMLID_112_" class="st40" points="108.8,158.9 99.9,163.9 147.3,191.3 156.2,186.3 			"/>
			<polygon id="XMLID_70_" class="st41" points="108.8,158.9 100.5,163.6 147.9,191 156.2,186.3 			"/>
			<polygon id="XMLID_69_" class="st42" points="108.8,158.9 101,163.3 148.5,190.7 156.2,186.3 			"/>
			<polygon id="XMLID_64_" class="st43" points="108.8,158.9 101.6,162.9 149.1,190.3 156.2,186.3 			"/>
			<polygon id="XMLID_62_" class="st44" points="108.8,158.9 102.2,162.6 149.7,190 156.2,186.3 			"/>
			<polygon id="XMLID_61_" class="st45" points="108.8,158.9 102.8,162.3 150.2,189.7 156.2,186.3 			"/>
			<polygon id="XMLID_60_" class="st46" points="108.8,158.9 103.4,162 150.8,189.3 156.2,186.3 			"/>
			<polygon id="XMLID_59_" class="st47" points="108.8,158.9 104,161.6 151.4,189 156.2,186.3 			"/>
			<polygon id="XMLID_52_" class="st48" points="108.8,158.9 104.6,161.3 152,188.7 156.2,186.3 			"/>
			<polygon id="XMLID_51_" class="st49" points="108.8,158.9 105.2,161 152.6,188.3 156.2,186.3 			"/>
			<polygon id="XMLID_50_" class="st50" points="108.8,158.9 105.7,160.6 153.2,188 156.2,186.3 			"/>
			<polygon id="XMLID_47_" class="st51" points="108.8,158.9 106.3,160.3 153.8,187.7 156.2,186.3 			"/>
			<polygon id="XMLID_45_" class="st52" points="108.8,158.9 106.9,160 154.4,187.4 156.2,186.3 			"/>
			<polygon id="XMLID_12_" class="st53" points="108.8,158.9 107.5,159.6 154.9,187 156.2,186.3 			"/>
		</g>
		<g>
			<linearGradient id="XMLID_153_" gradientUnits="userSpaceOnUse" x1="152.8767" y1="176.9122" x2="112.9034" y2="45.2828">
				<stop  offset="3.802280e-002" style="stop-color:#A5CBEF"/>
				<stop  offset="0.6654" style="stop-color:#EAF3FB"/>
				<stop  offset="1" style="stop-color:#A5CBEF"/>
			</linearGradient>
			<path id="XMLID_11_" class="st54" d="M108.9,48.9l-0.5,2.6c-0.6,0.4-0.7,3.3-0.7,4l0.8,97.8c0,4.7,2.5,8.2,6.6,10.5l35,20.6
				c0.6,0.3,1.3,1.9,1.9,1.6l3.3,0.7c3.5-1.2,5.8-4.5,5.8-8.2l0-97.3c0-4.7-3.3-10.5-7.4-12.9l-33.2-19.1
				C116.4,46.9,112.8,46.2,108.9,48.9z"/>
			<path id="XMLID_10_" class="st55" d="M114.2,49.4c-4.1-2.4-7.4-0.4-7.4,4.3l0,99.2c0,4.7,3.3,10.5,7.4,12.9l36,20.8
				c4.1,2.4,7.4,0.4,7.4-4.3l0-99.2c0-4.7-3.3-10.5-7.4-12.9L114.2,49.4z"/>
			<g id="XMLID_9_">
				<path id="XMLID_608_" class="st56" d="M137.8,69c-0.1,0-0.3,0-0.4-0.1l-11.3-6.5c-0.4-0.2-0.6-0.8-0.3-1.2
					c0.2-0.4,0.8-0.6,1.2-0.3l11.3,6.5c0.4,0.2,0.6,0.8,0.3,1.2C138.4,68.8,138.1,69,137.8,69z"/>
			</g>
			<path id="XMLID_606_" class="st56" d="M112.8,51.8l8.7,5c0.3,0.2,0.5,0.5,0.5,0.9v1.6c0,1.8,1,3.5,2.5,4.4l14.9,8.6
				c1.2,0.7,2.6-0.2,2.6-1.5v-1.2c0-0.4,0.4-0.7,0.8-0.5l6.3,3.7c3.9,2.2,6.2,6.3,6.2,10.8V182c0,2.2-2.4,3.6-4.4,2.5L115,163.6
				c-3.9-2.3-6.3-6.4-6.3-11l-0.1-98.3C108.5,52.1,110.9,50.7,112.8,51.8z"/>
		</g>
	</g>
	<path id="XMLID_44_" class="st57" d="M131.6,154.1l25.9,15l0-43l-23.3-13.5c0,0,0,0,0,0c-0.2-0.1-0.5-0.2-0.7-0.3
		c-0.1,0-0.1,0-0.2-0.1c-0.2-0.1-0.3-0.1-0.5-0.1c-0.1,0-0.2,0-0.2,0c-0.2,0-0.4,0-0.5-0.1c-0.1,0-0.1,0-0.2,0c-0.2,0-0.5,0-0.7,0.1
		c0,0,0,0,0,0c-0.2,0-0.5,0.1-0.7,0.2c-0.1,0-0.1,0-0.2,0.1c-0.2,0.1-0.3,0.1-0.5,0.2c-0.1,0-0.1,0.1-0.2,0.1
		c-0.2,0.1-0.4,0.2-0.5,0.3c0,0-0.1,0-0.1,0.1c-1.2,0.9-2,2.2-2,3.9l0,29.3C127,149.3,128.8,152.4,131.6,154.1z"/>
	<g id="XMLID_772_">
		<path id="XMLID_752_" class="st58" d="M136.9,110.8l43.9,25.3c2.9,1.7,4.6,4.7,4.6,8l0.1,29.3c0,3.7-4,6-7.2,4.2l-44-25.4
			c-2.9-1.7-4.7-4.7-4.6-8.1l0-29.3C129.7,111.3,133.7,109,136.9,110.8z"/>
		<linearGradient id="XMLID_154_" gradientUnits="userSpaceOnUse" x1="131.0974" y1="144.1817" x2="185.4645" y2="144.1817">
			<stop  offset="0" style="stop-color:#FFFFFF"/>
			<stop  offset="1" style="stop-color:#7EA7DF"/>
		</linearGradient>
		<path id="XMLID_762_" class="st59" d="M185.4,144.2c0-3.3-1.8-6.4-4.6-8l-43.9-25.3c-2-1.2-4.4-0.7-5.8,0.8
			c1.2-0.3,2.4-0.2,3.6,0.5l43.9,25.3c2.9,1.7,4.6,4.7,4.6,8l0.1,29.3c0,1.4-0.5,2.6-1.4,3.4c2-0.5,3.6-2.3,3.6-4.7L185.4,144.2z"/>
		<g id="XMLID_756_">
			<linearGradient id="XMLID_155_" gradientUnits="userSpaceOnUse" x1="134.1835" y1="128.4948" x2="142.9484" y2="128.4948">
				<stop  offset="2.123250e-002" style="stop-color:#FFC107"/>
				<stop  offset="0.3187" style="stop-color:#FFAF04"/>
				<stop  offset="0.7097" style="stop-color:#FF9E01"/>
				<stop  offset="1" style="stop-color:#FF9800"/>
			</linearGradient>
			<path id="XMLID_755_" class="st60" d="M136.5,123.2l5.1,2.9c0.8,0.4,1.3,1.3,1.3,2.2v4.1c0,1.2-1.3,2-2.4,1.4l-5.1-3
				c-0.8-0.5-1.3-1.3-1.3-2.2v-4C134.2,123.4,135.5,122.6,136.5,123.2z"/>
			<path id="XMLID_765_" class="st53" d="M142.9,129.2l-2.4-1.4c-0.2-1.3-1.1-2.8-2.2-3.4c-0.6-0.4-1.2-0.4-1.7-0.1
				c-0.4,0.3-0.7,0.8-0.7,1.5l-1.8-1v0.3l1.8,1c0,0.4,0.1,0.8,0.3,1.2c-0.2,0.3-0.3,0.7-0.3,1.2c0,0.3,0,0.6,0.1,0.9l-1.9-1.1v0.3
				l2,1.2l0,0c0.4,1.1,1.1,2.1,2,2.6c0.4,0.2,0.7,0.3,1,0.3c0.2,0,0.4-0.1,0.6-0.2c0.3-0.2,0.5-0.5,0.6-0.9l2.4,1.4
				c0-0.1,0-0.1,0.1-0.2c0,0,0-0.1,0-0.1l-2.4-1.4c0-0.1,0-0.2,0-0.4c0-0.5-0.1-1-0.3-1.5c0.2-0.3,0.3-0.7,0.3-1.2c0,0,0-0.1,0-0.1
				l2.4,1.4V129.2z M139.9,129.3L139.9,129.3l0,0.1c0.2,0.5,0.3,1,0.3,1.5c0,0.6-0.2,1.1-0.6,1.3c-0.4,0.2-0.9,0.2-1.4-0.1
				c-1.2-0.7-2.1-2.3-2.1-3.6c0-0.4,0.1-0.8,0.3-1l0.1-0.1l0-0.1c-0.2-0.5-0.3-1-0.3-1.5c0-0.6,0.2-1.1,0.6-1.3
				c0.1-0.1,0.3-0.1,0.5-0.1c0.3,0,0.6,0.1,0.9,0.3c1.2,0.7,2.1,2.3,2.1,3.6C140.3,128.7,140.2,129,139.9,129.3z"/>
		</g>
		<polygon id="XMLID_757_" class="st61" points="132.7,132.2 142.7,137.9 142.7,141.9 132.7,136.2 		"/>
		<polygon id="XMLID_758_" class="st61" points="144.9,138.9 154.9,144.6 154.9,148.7 144.9,143 		"/>
		<polygon id="XMLID_759_" class="st61" points="157.2,145.9 167.1,151.6 167.1,155.7 157.2,150 		"/>
		<polygon id="XMLID_775_" class="st61" points="160.3,132.3 174.8,140.5 174.8,144.6 160.3,136.4 		"/>
		<polygon id="XMLID_768_" class="st61" points="152.4,149.7 157.4,152.5 157.4,154.6 152.4,151.7 		"/>
		<polygon id="XMLID_769_" class="st61" points="134.2,139.5 139.2,142.3 139.2,144.4 134.2,141.5 		"/>
		<polygon id="XMLID_760_" class="st61" points="169.4,153 179.4,158.7 179.4,162.8 169.4,157.1 		"/>
		<g id="XMLID_761_">
			<linearGradient id="XMLID_156_" gradientUnits="userSpaceOnUse" x1="167.1374" y1="165.7379" x2="172.1624" y2="165.7379">
				<stop  offset="2.123250e-002" style="stop-color:#FFC107"/>
				<stop  offset="0.3187" style="stop-color:#FFAF04"/>
				<stop  offset="0.7097" style="stop-color:#FF9E01"/>
				<stop  offset="1" style="stop-color:#FF9800"/>
			</linearGradient>
			<path id="XMLID_770_" class="st62" d="M167.1,162.9l0,3.7c0,0.4,0.2,0.7,0.5,0.9l3.2,1.9c0.6,0.3,1.3-0.1,1.3-0.7v-3.7
				c0-0.4-0.2-0.7-0.5-0.9l-3.2-1.9C167.9,161.8,167.1,162.2,167.1,162.9z"/>
			<path id="XMLID_771_" class="st53" d="M170.3,164.7v3.7c0,0.4,0.2,0.7,0.5,0.9l3.2,1.9c0.6,0.3,1.3-0.1,1.3-0.7v-3.7
				c0-0.4-0.2-0.7-0.5-0.9l-3.2-1.9C171,163.6,170.3,164,170.3,164.7z"/>
		</g>
	</g>
	<path id="XMLID_43_" class="st57" d="M128.7,74.4l-21.9-12.7l0,14.9L128,88.9c0.2,0.1,0.4,0.2,0.6,0.2h0c0.1,0,0.3,0,0.4-0.1
		c0,0,0,0,0.1,0c0.1-0.1,0.2-0.1,0.3-0.2c0,0,0,0,0,0c0.1-0.1,0.2-0.2,0.2-0.3c0,0,0-0.1,0-0.1c0-0.1,0.1-0.3,0.1-0.4V76.1
		C129.7,75.4,129.4,74.7,128.7,74.4z"/>
	<path id="XMLID_42_" class="st57" d="M128.7,93.1l-21.9-12.7v14.9l21.2,12.3c0.3,0.2,0.7,0.2,1,0.1c0,0,0,0,0.1,0
		c0.1-0.1,0.2-0.1,0.3-0.2c0,0,0,0,0,0c0.1-0.1,0.2-0.2,0.2-0.3c0,0,0-0.1,0-0.1c0-0.1,0.1-0.3,0.1-0.4V94.9
		C129.7,94.2,129.4,93.5,128.7,93.1z"/>
	<g id="XMLID_783_">
		
			<linearGradient id="XMLID_157_" gradientUnits="userSpaceOnUse" x1="-31.6566" y1="85.548" x2="8.9109" y2="46.7915" gradientTransform="matrix(-1 0 0 1 94.4796 0)">
			<stop  offset="0" style="stop-color:#3C5185"/>
			<stop  offset="0.128" style="stop-color:#41588E"/>
			<stop  offset="0.6948" style="stop-color:#5573B1"/>
			<stop  offset="1" style="stop-color:#5D7DBE"/>
		</linearGradient>
		<path id="XMLID_18_" class="st63" d="M84.9,48.9v11.7c0,0.7,0.4,1.4,1,1.8l40.6,23.6c0.8,0.5,1.7-0.1,1.7-1V73.1
			c0-0.7-0.4-1.4-1-1.8L86.6,47.9C85.8,47.5,84.9,48,84.9,48.9z"/>
		
			<linearGradient id="XMLID_158_" gradientUnits="userSpaceOnUse" x1="-33.7574" y1="66.9151" x2="9.365" y2="66.9151" gradientTransform="matrix(-1 0 0 1 94.4796 0)">
			<stop  offset="0" style="stop-color:#4A65A3"/>
			<stop  offset="1" style="stop-color:#3C5185"/>
		</linearGradient>
		<path id="XMLID_17_" class="st64" d="M127.4,85.4V73.5c0-0.7-0.4-1.4-1-1.8L85.7,48.3c-0.2-0.1-0.4-0.2-0.6-0.2
			c0.3-0.4,0.9-0.6,1.5-0.3l40.7,23.5c0.6,0.4,1,1,1,1.8v11.8c0,0.7-0.5,1.1-1.1,1.1C127.3,85.9,127.4,85.7,127.4,85.4z"/>
		<linearGradient id="XMLID_159_" gradientUnits="userSpaceOnUse" x1="87.5707" y1="58.8525" x2="95.9602" y2="58.8525">
			<stop  offset="2.123250e-002" style="stop-color:#FFC107"/>
			<stop  offset="0.3187" style="stop-color:#FFAF04"/>
			<stop  offset="0.7097" style="stop-color:#FF9E01"/>
			<stop  offset="1" style="stop-color:#FF9800"/>
		</linearGradient>
		<path id="XMLID_766_" class="st65" d="M91.8,54c-2.3-1.3-4.2-0.2-4.2,2.4c0,2.7,1.9,5.9,4.2,7.3c2.3,1.3,4.2,0.2,4.2-2.4
			C96,58.6,94.1,55.3,91.8,54z"/>
		<polygon id="XMLID_753_" class="st55" points="97.4,57.7 125.2,73.8 125.2,75.9 97.4,59.7 		"/>
		<polygon id="XMLID_776_" class="st55" points="97.4,62.9 115.1,73.1 115.1,75.2 97.4,64.9 		"/>
	</g>
	<g id="XMLID_782_">
		<path id="XMLID_781_" class="st58" d="M84.9,67.7v11.7c0,0.7,0.4,1.4,1,1.8l40.6,23.6c0.8,0.5,1.7-0.1,1.7-1V91.9
			c0-0.7-0.4-1.4-1-1.8L86.6,66.7C85.8,66.2,84.9,66.8,84.9,67.7z"/>
		
			<linearGradient id="XMLID_160_" gradientUnits="userSpaceOnUse" x1="-33.7574" y1="85.7061" x2="9.365" y2="85.7061" gradientTransform="matrix(-1 0 0 1 94.4796 0)">
			<stop  offset="0" style="stop-color:#7EA7DF"/>
			<stop  offset="1" style="stop-color:#FFFFFF"/>
		</linearGradient>
		<path id="XMLID_780_" class="st66" d="M127.4,104.2V92.3c0-0.7-0.4-1.4-1-1.8L85.7,67.1C85.5,67,85.3,67,85.1,67
			c0.3-0.4,0.9-0.6,1.5-0.3l40.7,23.5c0.6,0.4,1,1,1,1.8v11.8c0,0.7-0.5,1.1-1.1,1.1C127.3,104.7,127.4,104.4,127.4,104.2z"/>
		<linearGradient id="XMLID_161_" gradientUnits="userSpaceOnUse" x1="87.5707" y1="77.6435" x2="95.9602" y2="77.6435">
			<stop  offset="2.123250e-002" style="stop-color:#FFC107"/>
			<stop  offset="0.3187" style="stop-color:#FFAF04"/>
			<stop  offset="0.7097" style="stop-color:#FF9E01"/>
			<stop  offset="1" style="stop-color:#FF9800"/>
		</linearGradient>
		<path id="XMLID_779_" class="st67" d="M91.8,72.8c-2.3-1.3-4.2-0.2-4.2,2.4c0,2.7,1.9,5.9,4.2,7.3c2.3,1.3,4.2,0.2,4.2-2.4
			C96,77.4,94.1,74.1,91.8,72.8z"/>
		<polygon id="XMLID_778_" class="st61" points="97.4,76.5 125.2,92.6 125.2,94.7 97.4,78.5 		"/>
		<polygon id="XMLID_777_" class="st61" points="97.4,81.6 115.1,91.9 115.1,94 97.4,83.6 		"/>
	</g>
	<path id="XMLID_41_" class="st57" d="M106.8,103.4l0,42.8c5.9-2.9,9.7-8.9,9.7-15.7v-14.3c0-2.7-1.1-5.2-3.1-7L106.8,103.4z"/>
	<g id="XMLID_19_">
		<linearGradient id="XMLID_162_" gradientUnits="userSpaceOnUse" x1="84.3168" y1="119.6736" x2="113.5172" y2="119.6736">
			<stop  offset="0" style="stop-color:#4A65A3"/>
			<stop  offset="1" style="stop-color:#3C5185"/>
		</linearGradient>
		<path id="XMLID_788_" class="st68" d="M110.4,106.7l-10.7-9.4l-11.2-3.1c-0.4-0.1-0.9-0.1-1.3,0.1l-2.9,1.1l1.5,0.9v12.4
			c0,10.7,3.2,21.2,9.3,30.1l4.3,6.4l1.1-0.3c7.7-2.1,13-9,13-17v-14.3C113.5,111,112.4,108.5,110.4,106.7z"/>
		<linearGradient id="XMLID_163_" gradientUnits="userSpaceOnUse" x1="82.8309" y1="120.8393" x2="110.4849" y2="120.8393">
			<stop  offset="0" style="stop-color:#3C5185"/>
			<stop  offset="0.128" style="stop-color:#41588E"/>
			<stop  offset="0.6948" style="stop-color:#5573B1"/>
			<stop  offset="1" style="stop-color:#5D7DBE"/>
		</linearGradient>
		<path id="XMLID_784_" class="st69" d="M82.8,97.4v12.5c0,10.7,3.2,21.2,9.3,30.1l4.3,6.4l1.1-0.3c7.7-2.1,13-9,13-17v-14.3
			c0-2.7-1.1-5.2-3.1-7l-10.7-9.4l-11.2-3.1C84.1,95,82.8,96,82.8,97.4z"/>
		<path id="XMLID_786_" class="st55" d="M96.7,110.6c-5-2.9-9-0.5-9,5.2c0,5.7,4.1,12.7,9,15.6c5,2.9,9,0.5,9-5.2
			C105.7,120.5,101.6,113.5,96.7,110.6z"/>
		<g id="XMLID_20_">
			<path id="XMLID_37_" class="st70" d="M100.4,119.9l-1.1-0.6v-2c0-2.9-0.6-4.7-1.9-5.4c-0.6-0.4-1.4-0.4-1.9-0.1
				c-0.5,0.3-1.3,1-1.3,3.1v1.8c-0.9-0.1-1.7,0.3-2.3,0.9c-0.1,0.2-0.2,0.4-0.2,0.6v0.3v6.5v0c0,0.7,0.5,1.6,1.2,2l5.8,3.3
				c0.2,0.1,0.3,0.1,0.5,0.1l0.2,0c1.2,0.1,2.2-0.9,2.2-2.1v-6.6C101.5,121.1,101,120.2,100.4,119.9z M95.2,114.9
				c0-1.1,0.3-1.9,0.7-2.1c0.3-0.2,0.6-0.1,0.9,0.1c0.9,0.5,1.3,2.1,1.3,4.5v1.4l-2.8-1.6c0,0-0.1,0-0.2-0.1V114.9z"/>
			<path id="XMLID_22_" class="st70" d="M98.6,120.8l-1.1-0.6v-2c0-2.9-0.6-4.7-1.9-5.4c-0.6-0.4-1.4-0.4-1.9-0.1
				c-0.5,0.3-1.3,1-1.3,3.1v1.8c-0.9-0.1-1.7,0.3-2.3,0.9c-0.1,0.2-0.2,0.4-0.2,0.6v0.3v6.5v0c0,0.7,0.5,1.6,1.2,2l5.8,3.3
				c0.2,0.1,0.3,0.1,0.5,0.1l0.2,0c1.2,0.1,2.2-0.9,2.2-2.1v-6.6C99.7,122,99.2,121.1,98.6,120.8z M93.4,115.8
				c0-1.1,0.3-1.9,0.7-2.1c0.3-0.2,0.6-0.1,0.9,0.1c0.9,0.5,1.3,2.1,1.3,4.5v1.4l-2.8-1.6c0,0-0.1,0-0.2-0.1V115.8z"/>
			<g id="XMLID_792_">
				<linearGradient id="XMLID_164_" gradientUnits="userSpaceOnUse" x1="95.451" y1="132.2746" x2="89.9065" y2="118.324">
					<stop  offset="0" style="stop-color:#FFC107"/>
					<stop  offset="0.8501" style="stop-color:#FF9800"/>
				</linearGradient>
				<path id="XMLID_790_" class="st71" d="M87.9,119.4L87.9,119.4c0.9-1,2.4-1.2,3.5-0.6l5,2.8c0.6,0.4,1.2,1.3,1.2,2v6.6
					c0,1.2-1,2.1-2.2,2.1l-0.2,0c-0.2,0-0.3-0.1-0.5-0.1l-5.8-3.3c-0.6-0.4-1.2-1.3-1.2-2V120C87.7,119.8,87.8,119.6,87.9,119.4z"/>
				<linearGradient id="XMLID_165_" gradientUnits="userSpaceOnUse" x1="95.4623" y1="132.8542" x2="88.3976" y2="119.6191">
					<stop  offset="0.1499" style="stop-color:#FF9800"/>
					<stop  offset="1" style="stop-color:#FFC107"/>
				</linearGradient>
				<path id="XMLID_789_" class="st72" d="M87.7,120.3c0-0.7,0.5-1,1.2-0.7l5.7,3.2c0.6,0.4,1.2,1.3,1.2,2v6.5c0,0.7-0.5,1-1.2,0.7
					l-5.7-3.2c-0.6-0.4-1.2-1.3-1.2-2V120.3z"/>
				<path id="XMLID_787_" class="st53" d="M91.7,123.4c-0.7-0.4-1.2-0.1-1.2,0.7s0.5,1.7,1.2,2.1c0.7,0.4,1.2,0.1,1.2-0.7
					C92.9,124.8,92.4,123.8,91.7,123.4z"/>
				<path id="XMLID_21_" class="st53" d="M95.3,122v-3c0-2.9-0.6-4.7-1.9-5.4c-0.6-0.4-1.4-0.4-1.9-0.1c-0.5,0.3-1.3,1-1.3,3.1v2.9
					h0c0,0.1,0.1,0.1,0.2,0.2c0.2,0.1,0.5,0.1,0.7,0c0.1-0.1,0.1-0.1,0.2-0.2h0v-2.9c0-1.1,0.3-1.9,0.7-2.1c0.3-0.2,0.6-0.1,0.9,0.1
					c0.9,0.5,1.3,2.1,1.3,4.5v2.9c0,0.1,0,0.2,0.2,0.2c0.2,0.1,0.6,0.1,0.8,0C95.3,122.2,95.3,122.1,95.3,122z"/>
				<polygon id="XMLID_785_" class="st53" points="91,124.2 91,127.6 92.5,128.4 92.5,125 				"/>
			</g>
		</g>
	</g>
	<path id="XMLID_40_" class="st57" d="M160.8,100.1c0-6.3-4.5-14.1-10-17.3c-1.9-1.1-3.8-1.5-5.3-1.3l0,0l-0.1,0
		c-0.4,0.1-0.7,0.2-1.1,0.3l-2.5,0.7l0,0c-2.3,0.8-3.9,3.2-3.9,6.8c0,6.3,4.5,14.1,10,17.3c2.3,1.3,4.5,1.6,6.2,1.1l0,0l2.2-0.7
		c0.3-0.1,0.6-0.2,0.9-0.3l0.1,0l0,0C159.5,105.9,160.8,103.6,160.8,100.1z"/>
	<g id="XMLID_48_">
		<linearGradient id="XMLID_166_" gradientUnits="userSpaceOnUse" x1="143.3568" y1="92.154" x2="163.3089" y2="92.154">
			<stop  offset="0" style="stop-color:#3C5185"/>
			<stop  offset="0.128" style="stop-color:#41588E"/>
			<stop  offset="0.6948" style="stop-color:#5573B1"/>
			<stop  offset="1" style="stop-color:#5D7DBE"/>
		</linearGradient>
		<path id="XMLID_38_" class="st73" d="M163.3,97.6c0-6.3-4.5-14.1-10-17.3c-1.9-1.1-3.8-1.5-5.3-1.3l0,0l-0.1,0
			c-0.4,0.1-0.7,0.2-1.1,0.3l-2.5,0.7l0.8,0.5c-1.1,1.2-1.8,3.1-1.8,5.5c0,6.3,4.5,14.1,10,17.3c1.2,0.7,2.4,1.1,3.5,1.3l-0.1,0.6
			l2.2-0.7c0.3-0.1,0.6-0.2,0.9-0.3l0.1,0l0,0C162,103.4,163.3,101.1,163.3,97.6z"/>
		<linearGradient id="XMLID_167_" gradientUnits="userSpaceOnUse" x1="159.7219" y1="104.5576" x2="140.2219" y2="79.391">
			<stop  offset="0" style="stop-color:#3C5185"/>
			<stop  offset="0.128" style="stop-color:#41588E"/>
			<stop  offset="0.6948" style="stop-color:#5573B1"/>
			<stop  offset="1" style="stop-color:#5D7DBE"/>
		</linearGradient>
		<path id="XMLID_54_" class="st74" d="M150.5,81.2c-5.5-3.2-10-0.6-10,5.8c0,6.3,4.5,14.1,10,17.3c5.5,3.2,10,0.6,10-5.8
			C160.5,92.1,156,84.3,150.5,81.2z"/>
		<g id="XMLID_49_">
			<path id="XMLID_53_" class="st55" d="M149.1,98.2l-3.6-4.3c-0.5-0.6-0.4-1.5,0.2-2c0.6-0.5,1.5-0.4,2,0.2l1.8,2.2l4.5-3.5
				c0.6-0.5,1.5-0.4,2,0.2c0.5,0.6,0.4,1.5-0.2,2L149.1,98.2z"/>
		</g>
	</g>
	<g id="XMLID_56_">
		<path id="XMLID_94_" class="st75" d="M98.4,201.1l-0.6,2c0,0.5,0.3,0.9,0.7,1.2l0.3,0.2c1.1,0.7,2.5,0.7,3.7,0.1l3.4-1.9
			c0.4-0.2,0.4-0.8,0-1l0,0c-0.7-0.4-1.4-0.9-2.1-0.9c-0.3,0-0.7,0.1-1,0.1l-1.6,0.2L98.4,201.1z"/>
		<g id="XMLID_92_">
			<linearGradient id="XMLID_168_" gradientUnits="userSpaceOnUse" x1="98.2934" y1="187.8875" x2="103.4581" y2="187.8875">
				<stop  offset="0" style="stop-color:#4A65A3"/>
				<stop  offset="0.3998" style="stop-color:#445C95"/>
				<stop  offset="1" style="stop-color:#3C5185"/>
			</linearGradient>
			<path id="XMLID_93_" class="st76" d="M100,203.1c1,0,1.9-0.8,2-1.9l0.6-12.9l0.9-13.5c0-1.1-2.4-2-3.5-2c-1.1,0-1.7,2-1.6,3.1
				l0.3,12.4l-0.2,12.7C98.4,202,98.8,203,100,203.1C99.9,203.1,100,203.1,100,203.1z"/>
		</g>
		<g id="XMLID_90_">
			<path id="XMLID_91_" class="st77" d="M101.1,177.4c0.2,0,0.3-0.1,0.5-0.2c0.5-0.4,0.7-1.1,0.3-1.6l-3.5-5.3
				c-1.3-1.9-1.1-4.4,0.3-6.1l3.3-3.9c0.4-0.5,0.3-1.2-0.1-1.6c-0.5-0.4-1.2-0.3-1.6,0.1l-3.3,3.9c-2.1,2.5-2.3,6.1-0.5,8.8l3.5,5.3
				C100.2,177.2,100.6,177.4,101.1,177.4z"/>
		</g>
		<g id="XMLID_88_">
			<linearGradient id="XMLID_169_" gradientUnits="userSpaceOnUse" x1="96.4837" y1="161.5217" x2="102.4124" y2="161.5217">
				<stop  offset="0" style="stop-color:#A8D9FB"/>
				<stop  offset="9.338021e-002" style="stop-color:#B3DEFB"/>
				<stop  offset="0.4944" style="stop-color:#DCF0FD"/>
				<stop  offset="0.8103" style="stop-color:#F6FBFF"/>
				<stop  offset="1" style="stop-color:#FFFFFF"/>
			</linearGradient>
			<path id="XMLID_89_" class="st78" d="M97.9,164.8c0.3,0,0.6-0.2,0.9-0.5l3.3-3.9c0.5-0.6,0.4-1.4-0.2-1.8
				c-0.6-0.5-1.4-0.4-1.8,0.2l-3.3,3.9c-0.5,0.6-0.4,1.4,0.2,1.8C97.2,164.7,97.6,164.8,97.9,164.8z"/>
		</g>
		<path id="XMLID_87_" class="st75" d="M104,204.2l-0.6,2c0,0.5,0.3,0.9,0.7,1.2l0.3,0.2c1.1,0.7,2.5,0.7,3.7,0.1l3.4-1.9
			c0.4-0.2,0.4-0.8,0-1l0,0c-0.7-0.4-1.4-0.9-2.1-0.9c-0.3,0-0.7,0.1-1,0.1l-1.6,0.2L104,204.2z"/>
		<linearGradient id="XMLID_170_" gradientUnits="userSpaceOnUse" x1="98.2959" y1="185.1673" x2="108.1365" y2="185.1673">
			<stop  offset="0" style="stop-color:#4A65A3"/>
			<stop  offset="0.3998" style="stop-color:#445C95"/>
			<stop  offset="1" style="stop-color:#3C5185"/>
		</linearGradient>
		<path id="XMLID_36_" class="st79" d="M107.1,176.5v-7.8c0-0.7,1.5-0.2,0.9-0.6l-6.8-3.9c-1.3-0.7-2.1,6.3-2.1,7.7l-0.8,5.9
			c0,0.7,0.4,1.4,1,1.8l3.3,1.9l1.5,9.8L104,204c0,1.1,0.4,2.1,1.5,2.2c0,0,0.1,0,0.1,0c1,0,1.9-0.8,2-1.9l0.6-12.9l-0.6-13.6
			C107.5,177.3,107.4,176.8,107.1,176.5z"/>
		<g id="XMLID_85_">
			<linearGradient id="XMLID_171_" gradientUnits="userSpaceOnUse" x1="98.2597" y1="168.6012" x2="108.5048" y2="168.6012">
				<stop  offset="0" style="stop-color:#A8D9FB"/>
				<stop  offset="9.338021e-002" style="stop-color:#B3DEFB"/>
				<stop  offset="0.4944" style="stop-color:#DCF0FD"/>
				<stop  offset="0.8103" style="stop-color:#F6FBFF"/>
				<stop  offset="1" style="stop-color:#FFFFFF"/>
			</linearGradient>
			<path id="XMLID_86_" class="st80" d="M98.4,161.5l0.4,5.7c-0.1,1.2-0.1,2.4-0.2,3.6c-0.1,0.7-0.5,5.2-0.3,5.9
				c0.1,0.4,3.7,1.8,3.9,1.8c2,0.9,4.1,1.2,5.7,0.4l0.1-5.9l0.3-4.3c0.2-3,0.8-7-2.1-8.8c-0.1-0.1-0.3-0.2-0.4-0.2l-3.1-1.7
				c-0.7-0.4-1.6-0.4-2.4,0h0C99.1,158.8,98.4,160.1,98.4,161.5z"/>
		</g>
		<g id="XMLID_82_">
			<g id="XMLID_83_">
				<path id="XMLID_84_" class="st77" d="M103.2,160c-0.6,0-1.1-0.5-1.1-1.1v-4.2c0-0.6,0.5-1.1,1.1-1.1c0.6,0,1.1,0.5,1.1,1.1v4.2
					C104.3,159.5,103.8,160,103.2,160z"/>
			</g>
		</g>
		<g id="XMLID_80_">
			<path id="XMLID_81_" class="st77" d="M102.3,158.5L102.3,158.5l-0.3-7l5.2-0.2l0.1,1.9C107.4,156,105.2,158.4,102.3,158.5z"/>
		</g>
		<path id="XMLID_79_" class="st53" d="M105.8,152.8c-0.3,0.2-0.3,0.5,0,0.9c0.1,0.2,0.4,0.5,0.2,0.7c-0.2,0.2-0.4,0-0.6,0
			c-0.5,0-0.2,0.5-0.3,0.8c0,1.2-1,2.7-2.2,2.8c-0.8,0.1-1.3-0.7-1.6-1.5c-0.4-1.1-0.4-2.3-0.5-3.5c0-0.7-0.1-1.5,0.3-2.2
			c0.3-0.6,1-1.1,1.7-1.3c0.7-0.2,1.4-0.3,2.1-0.3c0.7,0,1.5-0.2,2.2,0c0.5,0.1,1.1,0.5,1.2,1c0.1,0.8-0.5,1.3-1.1,1.7
			C107,152.3,106.2,152.4,105.8,152.8z"/>
		<g id="XMLID_58_">
			<path id="XMLID_63_" class="st77" d="M107.4,178.9c-0.2,0-0.3-0.1-0.5-0.2c-0.5-0.4-0.7-1.1-0.3-1.6l2.6-3.9
				c1.3-1.9,1.1-4.4-0.3-6.1l-3.3-3.9c-0.4-0.5-0.3-1.2,0.1-1.6c0.5-0.4,1.2-0.3,1.6,0.1l3.3,3.9c2.1,2.5,2.3,6.1,0.5,8.8l-2.6,3.9
				C108.3,178.7,107.8,178.9,107.4,178.9z"/>
		</g>
		<g id="XMLID_55_">
			
				<linearGradient id="XMLID_172_" gradientUnits="userSpaceOnUse" x1="226.2645" y1="164.3971" x2="232.1932" y2="164.3971" gradientTransform="matrix(-1 0 0 1 337.3384 0)">
				<stop  offset="0" style="stop-color:#A8D9FB"/>
				<stop  offset="9.338021e-002" style="stop-color:#B3DEFB"/>
				<stop  offset="0.4944" style="stop-color:#DCF0FD"/>
				<stop  offset="0.8103" style="stop-color:#F6FBFF"/>
				<stop  offset="1" style="stop-color:#FFFFFF"/>
			</linearGradient>
			<path id="XMLID_57_" class="st81" d="M109.6,167.7c-0.3,0-0.6-0.2-0.9-0.5l-3.3-3.9c-0.5-0.6-0.4-1.4,0.2-1.8
				c0.6-0.5,1.4-0.4,1.8,0.2l3.3,3.9c0.5,0.6,0.4,1.4-0.2,1.8C110.3,167.6,110,167.7,109.6,167.7z"/>
		</g>
		<path id="XMLID_33_" class="st77" d="M108.9,178.4c0,0.7-0.1,1.8-0.8,1.8c-0.7,0-1.8-1.6-1.8-2.3c0-0.7,0.6-0.8,1.3-0.8
			C108.4,177.1,108.9,177.7,108.9,178.4z"/>
	</g>
	<g>
		<path id="XMLID_66_" class="st55" d="M201.6,136.6c0,1.6-1.1,2.2-2.5,1.4l-29.2-17.3c-1.4-0.8-2.5-2.8-2.5-4.4l-0.3-24.1
			c0-1.6,1.1-2.2,2.5-1.4l29.5,17.3c1.4,0.8,2.5,2.8,2.5,4.4V136.6z"/>
		<linearGradient id="XMLID_173_" gradientUnits="userSpaceOnUse" x1="167.272" y1="114.4532" x2="201.6129" y2="114.4532">
			<stop  offset="0" style="stop-color:#FFFFFF"/>
			<stop  offset="1" style="stop-color:#7EA7DF"/>
		</linearGradient>
		<path id="XMLID_32_" class="st82" d="M199.1,108.2l-29.5-17.3c-1.1-0.6-2-0.4-2.3,0.6c0.2,0.1,0.4,0.1,0.6,0.3l29.5,17.3
			c1.4,0.8,2.5,2.8,2.5,4.4v24c0,0.3-0.1,0.6-0.1,0.8c1.1,0.3,1.9-0.4,1.9-1.7v-24C201.6,111,200.5,109,199.1,108.2z"/>
		<g>
			<path id="XMLID_31_" class="st53" d="M190.1,115.5l-7.2,1.7c-0.6,0.1-1.2-0.1-1.5-0.6l-5.4-8.9c0,0,0,0,0,0l0,9.4
				c0,0.4,0.3,0.9,0.6,1.1l12.9,7.3c0.3,0.2,0.6,0,0.6-0.4v-9.4C190.2,115.7,190.2,115.6,190.1,115.5z"/>
			<linearGradient id="XMLID_174_" gradientUnits="userSpaceOnUse" x1="176.6046" y1="110.6178" x2="190.1774" y2="110.6178">
				<stop  offset="0.1499" style="stop-color:#FF9800"/>
				<stop  offset="1" style="stop-color:#FFC107"/>
			</linearGradient>
			<path id="XMLID_30_" class="st83" d="M183.5,115.6l6.7-1.6c0,0,0,0,0,0c0-0.1-0.1-0.3-0.2-0.4c0,0,0,0,0-0.1
				c-0.1-0.1-0.2-0.2-0.3-0.3l-12.4-7.4c-0.1,0-0.2-0.1-0.2-0.1c0,0-0.1,0-0.1,0c0,0-0.1,0-0.1,0c0,0-0.1,0.1-0.1,0.1c0,0,0,0,0,0.1
				c0,0,0,0.1,0,0.1c0,0,0,0,0,0.1l5.4,8.9C182.3,115.4,182.9,115.7,183.5,115.6z"/>
		</g>
	</g>
	<g id="XMLID_65_">
		<path id="XMLID_102_" class="st84" d="M80.7,92.9c0-4.9-3.5-11-7.7-13.4c-2-1.2-3.8-1.3-5.2-0.6l0,0l-0.1,0.1
			c-0.2,0.1-0.4,0.2-0.6,0.4L64.4,81l1.3,0.3c-0.3,0.8-0.5,1.7-0.5,2.7c0,4.9,3.5,10.9,7.7,13.4c0.9,0.5,1.8,0.8,2.6,1l-0.3,1.5
			l3.2-1.9c0,0,0,0,0,0l0.1-0.1l0,0C79.9,97,80.7,95.3,80.7,92.9z"/>
		<g id="XMLID_76_">
			<path id="XMLID_101_" class="st85" d="M70.9,78.7c-0.7-0.2-1.4-0.2-2-0.1l-3.3,2c-0.1,0.2-0.1,0.5-0.2,0.7l0.2,0
				c-0.1,0.2-0.1,0.4-0.2,0.6L70.9,78.7z"/>
			<path id="XMLID_400_" class="st85" d="M73.4,79.8c-0.1-0.1-0.3-0.2-0.4-0.3c-0.2-0.1-0.5-0.3-0.7-0.4l-6.9,4.1
				c0,0.4,0.1,0.8,0.1,1.2L73.4,79.8z"/>
			<path id="XMLID_100_" class="st85" d="M73.7,96.8c0.4,0.2,0.8,0.4,1.2,0.5l5.8-3.5c0-0.3,0.1-0.6,0.1-1c0-0.1,0-0.2,0-0.4
				L73.7,96.8C73.7,96.8,73.7,96.8,73.7,96.8z"/>
			<path id="XMLID_99_" class="st85" d="M66,86.9l9.2-5.6c-0.3-0.3-0.6-0.5-0.9-0.8l-8.7,5.2C65.8,86.1,65.9,86.5,66,86.9z"/>
			<path id="XMLID_98_" class="st85" d="M80.3,95.4l-4,2.4l0.6,1l2.1-1.3c0,0,0,0,0,0l0,0c0,0,0,0,0,0C79.6,97,80.1,96.3,80.3,95.4z
				"/>
			<path id="XMLID_97_" class="st85" d="M80,89c-0.1-0.4-0.2-0.7-0.4-1.1L70,93.7c0.3,0.3,0.5,0.6,0.8,0.8L80,89z"/>
			<path id="XMLID_96_" class="st85" d="M67.4,90c0.2,0.3,0.4,0.7,0.6,1l10.2-6.1c-0.2-0.3-0.4-0.6-0.6-0.9L67.4,90z"/>
			<path id="XMLID_95_" class="st85" d="M80.4,90.1l-8.7,5.2c0.3,0.3,0.6,0.5,1,0.7l8-4.8C80.5,90.9,80.4,90.5,80.4,90.1z"/>
			<path id="XMLID_78_" class="st85" d="M66.4,88c0.1,0.4,0.3,0.7,0.5,1l10-6c-0.2-0.3-0.5-0.6-0.7-0.9L66.4,88z"/>
			<path id="XMLID_77_" class="st85" d="M79.2,86.9c-0.2-0.3-0.3-0.7-0.5-1l-10.1,6.1c0.2,0.3,0.4,0.6,0.7,0.9L79.2,86.9z"/>
		</g>
		<path id="XMLID_75_" class="st86" d="M70.2,81.3c-4.2-2.5-7.7-0.4-7.7,4.5c0,4.9,3.5,10.9,7.7,13.4c4.3,2.5,7.7,0.4,7.7-4.5
			S74.5,83.7,70.2,81.3z"/>
		<path id="XMLID_74_" class="st85" d="M70.2,82.4c-3.7-2.1-6.7-0.4-6.7,3.9c0,4.3,3,9.5,6.7,11.7c3.7,2.1,6.7,0.4,6.7-3.9
			C77,89.8,73.9,84.6,70.2,82.4z"/>
		<path id="XMLID_73_" class="st86" d="M70.2,83c-3.4-2-6.2-0.4-6.2,3.6c0,4,2.8,8.9,6.2,10.8c3.4,2,6.2,0.4,6.2-3.6
			C76.5,89.8,73.7,85,70.2,83z"/>
		<g id="XMLID_67_">
			<path id="XMLID_384_" class="st87" d="M70.1,95.8l-0.1-1c-0.9-0.7-1.8-1.6-2.6-2.9l0.9-1c0.6,0.9,1.1,1.6,1.6,2l-0.2-2
				c-0.8-0.6-1.3-1.3-1.7-1.9c-0.4-0.6-0.6-1.3-0.7-2.1c-0.1-0.8,0.1-1.3,0.4-1.6c0.4-0.3,0.9-0.3,1.5-0.1l-0.1-0.7l1.1,0.6l0.1,0.7
				c0.7,0.5,1.5,1.3,2.2,2.3l-0.7,1.1c-0.5-0.6-0.9-1.1-1.3-1.5l0.2,2c0.8,0.7,1.4,1.3,1.8,1.9c0.4,0.6,0.6,1.3,0.7,2.1
				c0.1,0.8-0.1,1.3-0.5,1.6c-0.4,0.3-0.9,0.3-1.6,0l0.1,0.9L70.1,95.8z M69.4,87.2c-0.3,0-0.4,0.1-0.4,0.5c0,0.4,0.2,0.7,0.5,1.1
				L69.4,87.2z M71.5,93c0-0.2-0.1-0.4-0.2-0.5c-0.1-0.2-0.2-0.4-0.5-0.6l0.1,1.7C71.4,93.6,71.5,93.4,71.5,93z"/>
		</g>
	</g>
	<g id="XMLID_103_">
		
			<linearGradient id="SVGID_1_" gradientUnits="userSpaceOnUse" x1="492.4073" y1="122.4892" x2="494.9013" y2="122.4892" gradientTransform="matrix(-1 0 0 1 658.151 0)">
			<stop  offset="0" style="stop-color:#4A65A3"/>
			<stop  offset="0.3998" style="stop-color:#445C95"/>
			<stop  offset="1" style="stop-color:#3C5185"/>
		</linearGradient>
		<path class="st88" d="M164.4,123.9c-0.6-0.4-1.1-1.2-1.1-2c0-0.4,0.1-0.7,0.4-0.9c0.3-0.2,0.6-0.1,1,0.1c0.6,0.4,1.1,1.2,1.1,2
			c0,0.4-0.1,0.7-0.4,0.9c-0.1,0.1-0.2,0.1-0.4,0.1C164.8,124,164.6,124,164.4,123.9z M164.2,121.9c-0.1,0-0.1,0.1-0.1,0.3
			c0,0.3,0.2,0.7,0.5,0.9c0.1,0.1,0.2,0.1,0.3,0c0.1,0,0.1-0.1,0.1-0.3c0-0.3-0.2-0.7-0.5-0.9C164.4,121.9,164.3,121.9,164.2,121.9
			C164.2,121.9,164.2,121.9,164.2,121.9z"/>
	</g>
	<g id="XMLID_106_">
		
			<linearGradient id="SVGID_2_" gradientUnits="userSpaceOnUse" x1="565.8448" y1="90.5286" x2="568.3389" y2="90.5286" gradientTransform="matrix(-1 0 0 1 658.151 0)">
			<stop  offset="0" style="stop-color:#4A65A3"/>
			<stop  offset="0.3998" style="stop-color:#445C95"/>
			<stop  offset="1" style="stop-color:#3C5185"/>
		</linearGradient>
		<path class="st89" d="M90.9,91.9c-0.6-0.4-1.1-1.2-1.1-2c0-0.4,0.1-0.7,0.4-0.9c0.3-0.2,0.6-0.1,1,0.1c0.6,0.4,1.1,1.2,1.1,2
			c0,0.4-0.1,0.7-0.4,0.9c-0.1,0.1-0.2,0.1-0.4,0.1C91.3,92.1,91.1,92,90.9,91.9z M90.7,89.9c-0.1,0-0.1,0.1-0.1,0.3
			c0,0.3,0.2,0.7,0.5,0.9c0.1,0.1,0.2,0.1,0.3,0c0.1,0,0.1-0.1,0.1-0.3c0-0.3-0.2-0.7-0.5-0.9C90.9,89.9,90.9,89.9,90.7,89.9
			C90.8,89.9,90.7,89.9,90.7,89.9z"/>
	</g>
	<g id="XMLID_110_">
		
			<linearGradient id="SVGID_3_" gradientUnits="userSpaceOnUse" x1="581.4177" y1="67.261" x2="584.5131" y2="67.261" gradientTransform="matrix(-1 0 0 1 658.151 0)">
			<stop  offset="0" style="stop-color:#4A65A3"/>
			<stop  offset="0.3998" style="stop-color:#445C95"/>
			<stop  offset="1" style="stop-color:#3C5185"/>
		</linearGradient>
		<path class="st90" d="M75,69c-0.8-0.5-1.4-1.5-1.4-2.4c0-0.5,0.2-0.9,0.5-1.1c0.3-0.2,0.8-0.2,1.2,0.1c0.8,0.5,1.4,1.5,1.4,2.4
			c0,0.5-0.2,0.9-0.5,1.1c-0.1,0.1-0.3,0.1-0.5,0.1C75.5,69.2,75.3,69.1,75,69z M74.8,66.5c-0.1,0-0.1,0.2-0.1,0.3
			c0,0.4,0.3,0.9,0.6,1.1c0.1,0.1,0.3,0.1,0.3,0c0.1,0,0.1-0.2,0.1-0.3c0-0.4-0.3-0.9-0.6-1.1c-0.1-0.1-0.2-0.1-0.2-0.1
			C74.8,66.5,74.8,66.5,74.8,66.5z"/>
	</g>
	<g id="XMLID_109_">
		
			<linearGradient id="SVGID_4_" gradientUnits="userSpaceOnUse" x1="511.7076" y1="57.7326" x2="514.2017" y2="57.7326" gradientTransform="matrix(-1 0 0 1 658.151 0)">
			<stop  offset="0" style="stop-color:#4A65A3"/>
			<stop  offset="0.3998" style="stop-color:#445C95"/>
			<stop  offset="1" style="stop-color:#3C5185"/>
		</linearGradient>
		<path class="st91" d="M145.1,59.1c-0.6-0.4-1.1-1.2-1.1-2c0-0.4,0.1-0.7,0.4-0.9c0.3-0.2,0.6-0.1,1,0.1c0.6,0.4,1.1,1.2,1.1,2
			c0,0.4-0.1,0.7-0.4,0.9c-0.1,0.1-0.2,0.1-0.4,0.1C145.5,59.3,145.3,59.2,145.1,59.1z M144.9,57.1c-0.1,0-0.1,0.1-0.1,0.3
			c0,0.3,0.2,0.7,0.5,0.9c0.1,0.1,0.2,0.1,0.3,0c0.1,0,0.1-0.1,0.1-0.3c0-0.3-0.2-0.7-0.5-0.9C145.1,57.1,145,57.1,144.9,57.1
			C144.9,57.1,144.9,57.1,144.9,57.1z"/>
	</g>
	<g id="XMLID_107_">
		
			<linearGradient id="SVGID_5_" gradientUnits="userSpaceOnUse" x1="591.726" y1="109.4065" x2="595.7864" y2="109.4065" gradientTransform="matrix(-1 0 0 1 658.151 0)">
			<stop  offset="0" style="stop-color:#4A65A3"/>
			<stop  offset="0.3998" style="stop-color:#445C95"/>
			<stop  offset="1" style="stop-color:#3C5185"/>
		</linearGradient>
		<path class="st92" d="M64.2,111.6c-1-0.6-1.8-2-1.8-3.2c0-0.6,0.2-1.1,0.7-1.4c0.4-0.3,1-0.2,1.5,0.1c1,0.6,1.8,2,1.8,3.2
			c0,0.6-0.2,1.1-0.7,1.4c-0.2,0.1-0.4,0.2-0.6,0.2C64.8,111.9,64.5,111.8,64.2,111.6z M63.8,108.4c-0.1,0.1-0.2,0.2-0.2,0.4
			c0,0.5,0.4,1.2,0.8,1.5c0.2,0.1,0.3,0.1,0.5,0.1c0.1-0.1,0.2-0.2,0.2-0.4c0-0.5-0.4-1.2-0.8-1.5c-0.1-0.1-0.2-0.1-0.3-0.1
			C63.9,108.4,63.9,108.4,63.8,108.4z"/>
	</g>
	<g id="XMLID_108_">
		
			<linearGradient id="SVGID_6_" gradientUnits="userSpaceOnUse" x1="573.176" y1="136.2082" x2="575.1674" y2="136.2082" gradientTransform="matrix(-1 0 0 1 658.151 0)">
			<stop  offset="0" style="stop-color:#4A65A3"/>
			<stop  offset="0.3998" style="stop-color:#445C95"/>
			<stop  offset="1" style="stop-color:#3C5185"/>
		</linearGradient>
		<path class="st93" d="M83.9,137.3c-0.5-0.3-0.9-1-0.9-1.6c0-0.3,0.1-0.6,0.3-0.7c0.2-0.1,0.5-0.1,0.8,0.1c0.5,0.3,0.9,1,0.9,1.6
			c0,0.3-0.1,0.6-0.3,0.7c-0.1,0.1-0.2,0.1-0.3,0.1C84.2,137.4,84,137.4,83.9,137.3z M83.7,135.7c-0.1,0-0.1,0.1-0.1,0.2
			c0,0.3,0.2,0.6,0.4,0.7c0.1,0.1,0.2,0.1,0.2,0c0.1,0,0.1-0.1,0.1-0.2c0-0.3-0.2-0.6-0.4-0.7C83.9,135.7,83.8,135.7,83.7,135.7
			C83.7,135.7,83.7,135.7,83.7,135.7z"/>
	</g>
	<g id="XMLID_104_">
		
			<linearGradient id="SVGID_7_" gradientUnits="userSpaceOnUse" x1="489.9516" y1="80.9062" x2="492.7516" y2="80.9062" gradientTransform="matrix(-1 0 0 1 658.151 0)">
			<stop  offset="0" style="stop-color:#4A65A3"/>
			<stop  offset="0.3998" style="stop-color:#445C95"/>
			<stop  offset="1" style="stop-color:#3C5185"/>
		</linearGradient>
		<path class="st94" d="M166.7,82.4c-0.7-0.4-1.3-1.4-1.3-2.2c0-0.4,0.2-0.8,0.5-1c0.3-0.2,0.7-0.1,1.1,0.1c0.7,0.4,1.3,1.4,1.3,2.2
			c0,0.4-0.2,0.8-0.5,1c-0.1,0.1-0.3,0.1-0.4,0.1C167.1,82.6,166.9,82.6,166.7,82.4z M166.4,80.2c-0.1,0-0.1,0.2-0.1,0.3
			c0,0.4,0.3,0.8,0.6,1c0.1,0.1,0.2,0.1,0.3,0c0.1,0,0.1-0.2,0.1-0.3c0-0.4-0.3-0.8-0.6-1C166.6,80.2,166.6,80.2,166.4,80.2
			C166.5,80.2,166.4,80.2,166.4,80.2z"/>
	</g>
	<g id="XMLID_105_">
		
			<linearGradient id="SVGID_8_" gradientUnits="userSpaceOnUse" x1="460.972" y1="147.6266" x2="465.4835" y2="147.6266" gradientTransform="matrix(-1 0 0 1 658.151 0)">
			<stop  offset="0" style="stop-color:#4A65A3"/>
			<stop  offset="0.3998" style="stop-color:#445C95"/>
			<stop  offset="1" style="stop-color:#3C5185"/>
		</linearGradient>
		<path class="st95" d="M194.7,150.1c-1.1-0.7-2-2.2-2-3.5c0-0.7,0.3-1.3,0.7-1.5c0.5-0.3,1.1-0.2,1.7,0.1c1.1,0.7,2,2.2,2,3.5
			c0,0.7-0.3,1.3-0.8,1.5c-0.2,0.1-0.4,0.2-0.7,0.2C195.4,150.4,195.1,150.3,194.7,150.1z M194.3,146.5c-0.1,0.1-0.2,0.2-0.2,0.5
			c0,0.6,0.4,1.3,0.9,1.6c0.2,0.1,0.4,0.1,0.5,0.1c0.1-0.1,0.2-0.2,0.2-0.5c0-0.6-0.4-1.3-0.9-1.6c-0.1-0.1-0.2-0.1-0.3-0.1
			C194.4,146.5,194.3,146.5,194.3,146.5z"/>
	</g>
	<g id="XMLID_111_">
		
			<linearGradient id="SVGID_9_" gradientUnits="userSpaceOnUse" x1="465.718" y1="87.9043" x2="470.2295" y2="87.9043" gradientTransform="matrix(-1 0 0 1 658.151 0)">
			<stop  offset="0" style="stop-color:#4A65A3"/>
			<stop  offset="0.3998" style="stop-color:#445C95"/>
			<stop  offset="1" style="stop-color:#3C5185"/>
		</linearGradient>
		<path class="st96" d="M190,90.4c-1.1-0.7-2-2.2-2-3.5c0-0.7,0.3-1.3,0.7-1.5c0.5-0.3,1.1-0.2,1.7,0.1c1.1,0.7,2,2.2,2,3.5
			c0,0.7-0.3,1.3-0.8,1.5c-0.2,0.1-0.4,0.2-0.7,0.2C190.7,90.7,190.3,90.6,190,90.4z M189.6,86.8c-0.1,0.1-0.2,0.2-0.2,0.5
			c0,0.6,0.4,1.3,0.9,1.6c0.2,0.1,0.4,0.1,0.5,0.1c0.1-0.1,0.2-0.2,0.2-0.5c0-0.6-0.4-1.3-0.9-1.6c-0.1-0.1-0.2-0.1-0.3-0.1
			C189.6,86.8,189.6,86.8,189.6,86.8z"/>
	</g>
</g>
</svg>
