<?xml version="1.0" encoding="utf-8"?>
<!-- Generator: Adobe Illustrator 19.0.0, SVG Export Plug-In . SVG Version: 6.00 Build 0)  -->
<svg version="1.1" id="Layer_1" xmlns="http://www.w3.org/2000/svg" xmlns:xlink="http://www.w3.org/1999/xlink" x="0px" y="0px"
	 viewBox="0 0 256 256" style="enable-background:new 0 0 256 256;" xml:space="preserve">
<style type="text/css">
	.st0{fill:url(#XMLID_15_);}
	.st1{opacity:0.3;}
	.st2{fill:#3C5185;fill-opacity:0;}
	.st3{opacity:2.439000e-002;fill:#3C5185;enable-background:new    ;}
	.st4{opacity:4.878000e-002;fill:#3C5185;enable-background:new    ;}
	.st5{opacity:7.317100e-002;fill:#3C5185;enable-background:new    ;}
	.st6{opacity:9.756100e-002;fill:#3C5185;enable-background:new    ;}
	.st7{opacity:0.122;fill:#3C5185;enable-background:new    ;}
	.st8{opacity:0.1463;fill:#3C5185;enable-background:new    ;}
	.st9{opacity:0.1707;fill:#3C5185;enable-background:new    ;}
	.st10{opacity:0.1951;fill:#3C5185;enable-background:new    ;}
	.st11{opacity:0.2195;fill:#3C5185;enable-background:new    ;}
	.st12{opacity:0.2439;fill:#3C5185;enable-background:new    ;}
	.st13{opacity:0.2683;fill:#3C5185;enable-background:new    ;}
	.st14{opacity:0.2927;fill:#3C5185;enable-background:new    ;}
	.st15{opacity:0.3171;fill:#3C5185;enable-background:new    ;}
	.st16{opacity:0.3415;fill:#3C5185;enable-background:new    ;}
	.st17{opacity:0.3659;fill:#3C5185;enable-background:new    ;}
	.st18{opacity:0.3902;fill:#3C5185;enable-background:new    ;}
	.st19{opacity:0.4146;fill:#3C5185;enable-background:new    ;}
	.st20{opacity:0.439;fill:#3C5185;enable-background:new    ;}
	.st21{opacity:0.4634;fill:#3C5185;enable-background:new    ;}
	.st22{opacity:0.4878;fill:#3C5185;enable-background:new    ;}
	.st23{opacity:0.5122;fill:#3C5185;enable-background:new    ;}
	.st24{opacity:0.5366;fill:#3C5185;enable-background:new    ;}
	.st25{opacity:0.561;fill:#3C5185;enable-background:new    ;}
	.st26{opacity:0.5854;fill:#3C5185;enable-background:new    ;}
	.st27{opacity:0.6098;fill:#3C5185;enable-background:new    ;}
	.st28{opacity:0.6341;fill:#3C5185;enable-background:new    ;}
	.st29{opacity:0.6585;fill:#3C5185;enable-background:new    ;}
	.st30{opacity:0.6829;fill:#3C5185;enable-background:new    ;}
	.st31{opacity:0.7073;fill:#3C5185;enable-background:new    ;}
	.st32{opacity:0.7317;fill:#3C5185;enable-background:new    ;}
	.st33{opacity:0.7561;fill:#3C5185;enable-background:new    ;}
	.st34{opacity:0.7805;fill:#3C5185;enable-background:new    ;}
	.st35{opacity:0.8049;fill:#3C5185;enable-background:new    ;}
	.st36{opacity:0.8293;fill:#3C5185;enable-background:new    ;}
	.st37{opacity:0.8537;fill:#3C5185;enable-background:new    ;}
	.st38{opacity:0.878;fill:#3C5185;enable-background:new    ;}
	.st39{opacity:0.9024;fill:#3C5185;enable-background:new    ;}
	.st40{opacity:0.9268;fill:#3C5185;enable-background:new    ;}
	.st41{opacity:0.9512;fill:#3C5185;enable-background:new    ;}
	.st42{opacity:0.9756;fill:#3C5185;enable-background:new    ;}
	.st43{fill:#3C5185;}
	.st44{fill:url(#XMLID_42_);}
	.st45{fill:#F3F8FE;}
	.st46{fill:#A5CBEF;}
	.st47{fill:#FFFFFF;fill-opacity:0;}
	.st48{opacity:2.439000e-002;fill:#FAFBFC;enable-background:new    ;}
	.st49{opacity:4.878000e-002;fill:#F5F7F9;enable-background:new    ;}
	.st50{opacity:7.317100e-002;fill:#F1F2F6;enable-background:new    ;}
	.st51{opacity:9.756100e-002;fill:#ECEEF3;enable-background:new    ;}
	.st52{opacity:0.122;fill:#E7EAF0;enable-background:new    ;}
	.st53{opacity:0.1463;fill:#E2E6ED;enable-background:new    ;}
	.st54{opacity:0.1707;fill:#DEE1EA;enable-background:new    ;}
	.st55{opacity:0.1951;fill:#D9DDE7;enable-background:new    ;}
	.st56{opacity:0.2195;fill:#D4D9E4;enable-background:new    ;}
	.st57{opacity:0.2439;fill:#CFD5E1;enable-background:new    ;}
	.st58{opacity:0.2683;fill:#CBD0DE;enable-background:new    ;}
	.st59{opacity:0.2927;fill:#C6CCDB;enable-background:new    ;}
	.st60{opacity:0.3171;fill:#C1C8D8;enable-background:new    ;}
	.st61{opacity:0.3415;fill:#BCC4D5;enable-background:new    ;}
	.st62{opacity:0.3659;fill:#B8BFD2;enable-background:new    ;}
	.st63{opacity:0.3902;fill:#B3BBCF;enable-background:new    ;}
	.st64{opacity:0.4146;fill:#AEB7CC;enable-background:new    ;}
	.st65{opacity:0.439;fill:#A9B3C9;enable-background:new    ;}
	.st66{opacity:0.4634;fill:#A5AEC6;enable-background:new    ;}
	.st67{opacity:0.4878;fill:#A0AAC3;enable-background:new    ;}
	.st68{opacity:0.5122;fill:#9BA6C1;enable-background:new    ;}
	.st69{opacity:0.5366;fill:#96A2BE;enable-background:new    ;}
	.st70{opacity:0.561;fill:#929DBB;enable-background:new    ;}
	.st71{opacity:0.5854;fill:#8D99B8;enable-background:new    ;}
	.st72{opacity:0.6098;fill:#8895B5;enable-background:new    ;}
	.st73{opacity:0.6341;fill:#8391B2;enable-background:new    ;}
	.st74{opacity:0.6585;fill:#7F8CAF;enable-background:new    ;}
	.st75{opacity:0.6829;fill:#7A88AC;enable-background:new    ;}
	.st76{opacity:0.7073;fill:#7584A9;enable-background:new    ;}
	.st77{opacity:0.7317;fill:#7080A6;enable-background:new    ;}
	.st78{opacity:0.7561;fill:#6C7BA3;enable-background:new    ;}
	.st79{opacity:0.7805;fill:#6777A0;enable-background:new    ;}
	.st80{opacity:0.8049;fill:#62739D;enable-background:new    ;}
	.st81{opacity:0.8293;fill:#5D6F9A;enable-background:new    ;}
	.st82{opacity:0.8537;fill:#596A97;enable-background:new    ;}
	.st83{opacity:0.878;fill:#546694;enable-background:new    ;}
	.st84{opacity:0.9024;fill:#4F6291;enable-background:new    ;}
	.st85{opacity:0.9268;fill:#4A5E8E;enable-background:new    ;}
	.st86{opacity:0.9512;fill:#46598B;enable-background:new    ;}
	.st87{opacity:0.9756;fill:#415588;enable-background:new    ;}
	.st88{fill:#4A65A3;}
	.st89{fill:#EDF5FC;}
	.st90{fill:#E4EFFA;}
	.st91{fill:#6E84B5;}
	.st92{fill:#5C74AC;}
	.st93{fill:#536DA8;}
	.st94{fill:#C9E0F5;}
	.st95{fill:url(#XMLID_56_);}
	.st96{fill:#FFFFFF;}
	.st97{fill:url(#XMLID_57_);}
	.st98{fill:url(#XMLID_58_);}
	.st99{fill:url(#XMLID_59_);}
	.st100{fill:#EDF3FA;}
	.st101{fill:url(#XMLID_60_);}
	.st102{fill:url(#XMLID_61_);}
	.st103{fill:url(#XMLID_62_);}
	.st104{fill:url(#XMLID_65_);}
	.st105{fill:url(#XMLID_66_);}
	.st106{fill:url(#XMLID_67_);}
	.st107{fill:url(#XMLID_68_);}
	.st108{opacity:0.3;fill:#3C5185;enable-background:new    ;}
	.st109{fill:url(#XMLID_69_);}
	.st110{opacity:0.5;fill:url(#XMLID_70_);enable-background:new    ;}
	.st111{fill:#FFC107;}
	.st112{fill:#BF9105;}
	.st113{fill:url(#XMLID_71_);}
	.st114{fill:url(#XMLID_72_);}
	.st115{fill:#F2B1B5;}
	.st116{fill:#EF9EA3;}
	.st117{fill:url(#XMLID_73_);}
	.st118{fill:url(#XMLID_74_);}
	.st119{fill:url(#XMLID_75_);}
	.st120{fill:url(#XMLID_76_);}
	.st121{fill:url(#XMLID_77_);}
	.st122{fill:url(#XMLID_78_);}
	.st123{fill:url(#XMLID_79_);}
	.st124{opacity:0.2;fill:#EF9EA3;enable-background:new    ;}
	.st125{opacity:0.3;fill:#EF9EA3;enable-background:new    ;}
	.st126{fill:url(#XMLID_80_);}
	.st127{fill:url(#XMLID_81_);}
	.st128{fill:url(#XMLID_82_);}
	.st129{fill:#F6F9FC;}
	.st130{fill:url(#XMLID_83_);}
	.st131{fill:url(#XMLID_84_);}
	.st132{fill:url(#XMLID_85_);}
	.st133{fill:url(#XMLID_86_);}
	.st134{fill:url(#XMLID_87_);}
	.st135{fill:#F8FBFE;}
	.st136{fill:url(#XMLID_88_);}
	.st137{fill:url(#XMLID_89_);}
	.st138{fill:url(#XMLID_90_);}
	.st139{fill:url(#XMLID_91_);}
</style>
<g>
	
		<linearGradient id="XMLID_15_" gradientUnits="userSpaceOnUse" x1="149.9742" y1="46.7491" x2="100.813" y2="207.0573" gradientTransform="matrix(1 0 0 -1 0 256)">
		<stop  offset="0.1103" style="stop-color:#FFFFFF"/>
		<stop  offset="1" style="stop-color:#E1EBF7"/>
	</linearGradient>
	<path id="XMLID_55_" class="st0" d="M211.1,136.4c0,42.4-41.9,72.4-84.4,72.4s-81.9-29.9-81.9-72.4S70.3,48,112.8,48
		S211.1,93.9,211.1,136.4z"/>
	<g id="XMLID_215_">
		<g id="XMLID_233_" class="st1">
			<path id="XMLID_341_" class="st2" d="M208.8,139.1l-0.3-0.6c-0.2-0.4-0.5-0.7-0.8-1c-0.1-0.1-0.1-0.1-0.2-0.2l-0.1-0.1h-0.1
				c-0.1-0.1-0.2-0.1-0.3-0.2l-52-30c-1.9-1.1-5-1.1-6.9,0l-99.2,57.3c-1.2,0.7-1.6,1.6-1.3,2.5h-0.1v1.9c0,2,1.1,3.8,2.8,4.8
				l50.7,29.2c1.9,1.1,5,1.1,6.9,0l99-57.2C209.1,144.2,209.9,141.4,208.8,139.1z"/>
			<path id="XMLID_340_" class="st3" d="M208.4,139.1l-0.3-0.6c-0.2-0.4-0.5-0.7-0.8-1c-0.1-0.1-0.1-0.1-0.2-0.2l-0.1-0.1h-0.1
				c-0.1-0.1-0.2-0.1-0.3-0.2l-51.8-29.9c-1.9-1.1-5-1.1-6.9,0l-98.8,57.1c-1.2,0.7-1.6,1.6-1.3,2.5h-0.1v1.9c0,2,1.1,3.8,2.8,4.8
				l50.4,29c1.9,1.1,5,1.1,6.9,0l98.7-57C208.7,144.1,209.5,141.4,208.4,139.1z"/>
			<path id="XMLID_334_" class="st4" d="M208.1,139l-0.3-0.6c-0.2-0.4-0.5-0.7-0.8-1c-0.1-0.1-0.1-0.1-0.2-0.2l-0.1-0.1h-0.1
				c-0.1-0.1-0.2-0.1-0.3-0.2l-51.5-29.7c-1.9-1.1-4.9-1.1-6.8,0l-98.5,56.9c-1.2,0.7-1.6,1.6-1.3,2.5h-0.1v1.9c0,2,1,3.8,2.8,4.8
				l50.1,28.9c1.9,1.1,4.9,1.1,6.8,0l98.3-56.8C208.3,144.1,209.2,141.3,208.1,139z"/>
			<path id="XMLID_333_" class="st5" d="M207.7,139l-0.3-0.6c-0.2-0.4-0.5-0.7-0.8-1c-0.1-0.1-0.1-0.1-0.2-0.2l-0.1-0.1h-0.1
				c-0.1-0.1-0.2-0.1-0.3-0.2l-51.2-29.6c-1.9-1.1-4.9-1.1-6.8,0L49.8,164c-1.1,0.7-1.6,1.6-1.3,2.4h-0.1v1.9c0,2,1,3.8,2.7,4.7
				l49.9,28.7c1.9,1.1,4.9,1.1,6.8,0l98-56.6C208,144,208.8,141.2,207.7,139z"/>
			<path id="XMLID_301_" class="st6" d="M207.3,138.9l-0.3-0.6c-0.2-0.4-0.5-0.7-0.8-1c-0.1-0.1-0.1-0.1-0.2-0.2l-0.1-0.1h-0.1
				c-0.1-0.1-0.2-0.1-0.3-0.2l-50.9-29.4c-1.9-1.1-4.9-1.1-6.7,0L50.1,164c-1.1,0.7-1.6,1.6-1.3,2.4h-0.1v1.9c0,1.9,1,3.7,2.7,4.7
				l49.6,28.6c1.9,1.1,4.9,1.1,6.7,0l97.6-56.4C207.6,143.9,208.4,141.2,207.3,138.9z"/>
			<path id="XMLID_300_" class="st7" d="M207,138.9l-0.3-0.6c-0.2-0.4-0.5-0.7-0.8-1c-0.1-0.1-0.1-0.1-0.2-0.2l-0.1-0.1h-0.1
				c-0.1-0.1-0.2-0.1-0.2-0.2l-50.7-29.2c-1.8-1.1-4.9-1.1-6.7,0l-97.4,56.3c-1.1,0.7-1.6,1.6-1.3,2.4h-0.1v1.8c0,1.9,1,3.7,2.7,4.7
				l49.3,28.4c1.8,1.1,4.9,1.1,6.7,0l97.3-56.2C207.2,143.8,208.1,141.1,207,138.9z"/>
			<path id="XMLID_282_" class="st8" d="M206.6,138.8l-0.3-0.6c-0.2-0.4-0.5-0.7-0.8-1c-0.1-0.1-0.1-0.1-0.2-0.2l-0.1-0.1h-0.1
				c-0.1-0.1-0.2-0.1-0.2-0.2l-50.4-29.1c-1.8-1.1-4.8-1.1-6.7,0l-97.1,56.1c-1.1,0.6-1.6,1.6-1.3,2.4h-0.1v1.8c0,1.9,1,3.7,2.7,4.7
				l49.1,28.2c1.8,1.1,4.8,1.1,6.7,0l96.9-56C206.9,143.8,207.7,141.1,206.6,138.8z"/>
			<path id="XMLID_281_" class="st9" d="M206.3,138.8l-0.3-0.6c-0.2-0.4-0.5-0.7-0.8-0.9c-0.1-0.1-0.1-0.1-0.2-0.2l-0.1-0.1h-0.1
				c-0.1-0.1-0.2-0.1-0.2-0.2l-50.1-28.9c-1.8-1.1-4.8-1.1-6.6,0l-96.7,55.9c-1.1,0.6-1.5,1.5-1.3,2.4h-0.1v1.8c0,1.9,1,3.7,2.7,4.6
				l48.8,28.1c1.8,1.1,4.8,1.1,6.6,0l96.5-55.8C206.5,143.7,207.3,141,206.3,138.8z"/>
			<path id="XMLID_280_" class="st10" d="M205.9,138.8l-0.3-0.6c-0.2-0.4-0.5-0.7-0.8-0.9c-0.1-0.1-0.1-0.1-0.2-0.2l-0.1-0.1h-0.1
				c-0.1-0.1-0.2-0.1-0.2-0.2L154.3,108c-1.8-1-4.8-1-6.6,0l-96.3,55.7c-1.1,0.6-1.5,1.5-1.3,2.4H50v1.8c0,1.9,1,3.7,2.7,4.6
				l48.5,27.9c1.8,1,4.8,1,6.6,0l96.2-55.6C206.2,143.6,207,141,205.9,138.8z"/>
			<path id="XMLID_279_" class="st11" d="M205.5,138.7l-0.3-0.6c-0.2-0.4-0.5-0.7-0.8-0.9c-0.1-0.1-0.1-0.1-0.2-0.2l-0.1-0.1H204
				c-0.1-0.1-0.2-0.1-0.2-0.2l-49.6-28.6c-1.8-1-4.8-1-6.6,0l-96,55.5c-1.1,0.6-1.5,1.5-1.3,2.4h-0.1v1.8c0,1.9,1,3.6,2.6,4.6
				l48.3,27.8c1.8,1,4.8,1,6.6,0l95.8-55.4C205.8,143.6,206.6,140.9,205.5,138.7z"/>
			<path id="XMLID_278_" class="st12" d="M205.2,138.7l-0.3-0.6c-0.2-0.4-0.5-0.7-0.8-0.9c-0.1-0.1-0.1-0.1-0.2-0.2l-0.1-0.1h-0.1
				c-0.1-0.1-0.1-0.1-0.2-0.2l-49.3-28.5c-1.8-1-4.7-1-6.5,0L52,163.6c-1.1,0.6-1.5,1.5-1.3,2.3h-0.1v1.8c0,1.9,1,3.6,2.6,4.6
				l48,27.6c1.8,1,4.7,1,6.5,0l95.5-55.2C205.4,143.5,206.2,140.9,205.2,138.7z"/>
			<path id="XMLID_277_" class="st13" d="M204.8,138.6l-0.3-0.6c-0.2-0.4-0.5-0.7-0.8-0.9c-0.1-0.1-0.1-0.1-0.2-0.2l-0.1-0.1h-0.1
				c-0.1-0.1-0.1-0.1-0.2-0.2l-49-28.3c-1.8-1-4.7-1-6.5,0l-95.3,55.2c-1.1,0.6-1.5,1.5-1.3,2.3h-0.1v1.8c0,1.9,1,3.6,2.6,4.5
				l47.7,27.5c1.8,1,4.7,1,6.5,0l95.1-55.1C205.1,143.4,205.9,140.8,204.8,138.6z"/>
			<path id="XMLID_276_" class="st14" d="M204.4,138.6l-0.3-0.6c-0.2-0.4-0.5-0.7-0.8-0.9c-0.1-0.1-0.1-0.1-0.2-0.2l-0.1-0.1h-0.1
				c-0.1-0.1-0.1-0.1-0.2-0.2L154,108.5c-1.8-1-4.7-1-6.4,0l-94.9,55c-1.1,0.6-1.5,1.5-1.3,2.3h-0.1v1.8c0,1.9,1,3.6,2.6,4.5
				l47.5,27.3c1.8,1,4.7,1,6.4,0l94.8-54.9C204.7,143.4,205.5,140.8,204.4,138.6z"/>
			<path id="XMLID_275_" class="st15" d="M204.1,138.6l-0.3-0.6c-0.2-0.4-0.5-0.7-0.8-0.9c-0.1-0.1-0.1-0.1-0.2-0.2l-0.1-0.1h-0.1
				c-0.1-0.1-0.1-0.1-0.2-0.2l-48.4-28c-1.8-1-4.6-1-6.4,0L53,163.4c-1.1,0.6-1.5,1.5-1.2,2.3h-0.1v1.8c0,1.8,1,3.6,2.6,4.5
				l47.2,27.2c1.8,1,4.6,1,6.4,0l94.4-54.7C204.3,143.3,205.1,140.7,204.1,138.6z"/>
			<path id="XMLID_274_" class="st16" d="M203.7,138.5l-0.3-0.6c-0.2-0.4-0.5-0.7-0.8-0.9c-0.1-0.1-0.1-0.1-0.2-0.2l-0.1-0.1h-0.1
				c-0.1-0.1-0.1-0.1-0.2-0.2l-48.2-27.8c-1.8-1-4.6-1-6.4,0l-94.2,54.6c-1.1,0.6-1.5,1.5-1.2,2.3h-0.1v1.8c0,1.8,1,3.5,2.6,4.5
				l46.9,27c1.8,1,4.6,1,6.4,0l94.1-54.5C204,143.2,204.8,140.7,203.7,138.5z"/>
			<path id="XMLID_273_" class="st17" d="M203.4,138.5l-0.3-0.6c-0.2-0.4-0.5-0.7-0.8-0.9c-0.1-0.1-0.1-0.1-0.2-0.2l-0.1-0.1h-0.1
				c-0.1-0.1-0.1-0.1-0.2-0.2l-47.9-27.7c-1.7-1-4.6-1-6.3,0l-93.8,54.4c-1.1,0.6-1.5,1.5-1.2,2.3h-0.1v1.7c0,1.8,1,3.5,2.6,4.4
				l46.6,26.8c1.7,1,4.6,1,6.3,0l93.7-54.3C203.6,143.2,204.4,140.6,203.4,138.5z"/>
			<path id="XMLID_272_" class="st18" d="M203,138.4l-0.3-0.6c-0.2-0.4-0.4-0.7-0.8-0.9c-0.1-0.1-0.1-0.1-0.2-0.2l-0.1-0.1h-0.1
				c-0.1-0.1-0.1-0.1-0.2-0.2L153.7,109c-1.7-1-4.6-1-6.3,0l-93.5,54.2c-1.1,0.6-1.5,1.5-1.2,2.3h-0.1v1.7c0,1.8,1,3.5,2.5,4.4
				l46.4,26.7c1.7,1,4.6,1,6.3,0l93.3-54.1C203.2,143.1,204,140.5,203,138.4z"/>
			<path id="XMLID_271_" class="st19" d="M202.6,138.4l-0.3-0.6c-0.2-0.4-0.4-0.7-0.8-0.9c-0.1-0.1-0.1-0.1-0.2-0.2l-0.1-0.1h-0.1
				c-0.1-0.1-0.1-0.1-0.2-0.2l-47.3-27.3c-1.7-1-4.5-1-6.3,0l-93.1,54c-1.1,0.6-1.5,1.5-1.2,2.3h-0.1v1.7c0,1.8,1,3.5,2.5,4.4
				l46.1,26.5c1.7,1,4.5,1,6.3,0l93-53.9C202.9,143,203.7,140.5,202.6,138.4z"/>
			<path id="XMLID_270_" class="st20" d="M202.3,138.3l-0.3-0.6c-0.2-0.4-0.4-0.6-0.8-0.9c-0.1-0.1-0.1-0.1-0.2-0.2l-0.1-0.1h-0.1
				c-0.1-0.1-0.1-0.1-0.2-0.2l-47.1-27.2c-1.7-1-4.5-1-6.2,0l-92.8,53.8c-1.1,0.6-1.5,1.5-1.2,2.2h-0.1v1.7c0,1.8,1,3.5,2.5,4.3
				l45.8,26.4c1.7,1,4.5,1,6.2,0l92.6-53.7C202.5,143,203.3,140.4,202.3,138.3z"/>
			<path id="XMLID_268_" class="st21" d="M201.9,138.3l-0.3-0.5c-0.2-0.4-0.4-0.6-0.7-0.9c-0.1-0.1-0.1-0.1-0.2-0.2l-0.1-0.1h-0.1
				c-0.1-0.1-0.1-0.1-0.2-0.2l-46.8-27c-1.7-1-4.5-1-6.2,0L54.9,163c-1,0.6-1.4,1.4-1.2,2.2h-0.1v1.7c0,1.8,1,3.4,2.5,4.3l45.6,26.2
				c1.7,1,4.5,1,6.2,0l92.3-53.5C202.2,142.9,202.9,140.4,201.9,138.3z"/>
			<path id="XMLID_267_" class="st22" d="M201.6,138.3l-0.3-0.5c-0.2-0.4-0.4-0.6-0.7-0.9c-0.1-0.1-0.1-0.1-0.2-0.2l-0.1-0.1h-0.1
				c-0.1-0.1-0.1-0.1-0.2-0.2l-46.5-26.9c-1.7-1-4.5-1-6.2,0L55.2,163c-1,0.6-1.4,1.4-1.2,2.2h-0.1v1.7c0,1.8,0.9,3.4,2.5,4.3
				l45.3,26.1c1.7,1,4.5,1,6.2,0l91.9-53.3C201.8,142.8,202.6,140.3,201.6,138.3z"/>
			<path id="XMLID_266_" class="st23" d="M201.2,138.2l-0.3-0.5c-0.2-0.4-0.4-0.6-0.7-0.9c-0.1-0.1-0.1-0.1-0.2-0.1l-0.1-0.1h-0.1
				c-0.1-0.1-0.1-0.1-0.2-0.2l-46.2-26.7c-1.7-1-4.4-1-6.1,0l-91.7,53.2c-1,0.6-1.4,1.4-1.2,2.2h-0.1v1.7c0,1.8,0.9,3.4,2.5,4.3
				l45,25.9c1.7,1,4.4,1,6.1,0l91.6-53.1C201.4,142.7,202.2,140.3,201.2,138.2z"/>
			<path id="XMLID_265_" class="st24" d="M200.8,138.2l-0.3-0.5c-0.2-0.3-0.4-0.6-0.7-0.9c-0.1-0.1-0.1-0.1-0.2-0.1l-0.1-0.1h-0.1
				c-0.1-0.1-0.1-0.1-0.2-0.2l-46-26.5c-1.7-1-4.4-1-6.1,0L55.7,163c-1,0.6-1.4,1.4-1.2,2.2h-0.1v1.7c0,1.8,0.9,3.4,2.5,4.2
				l44.8,25.8c1.7,1,4.4,1,6.1,0l91.2-53C201.1,142.7,201.8,140.2,200.8,138.2z"/>
			<path id="XMLID_264_" class="st25" d="M200.5,138.1l-0.3-0.5c-0.2-0.3-0.4-0.6-0.7-0.9c-0.1-0.1-0.1-0.1-0.2-0.1l-0.1-0.1h-0.1
				c-0.1-0.1-0.1-0.1-0.2-0.2l-45.7-26.4c-1.7-1-4.4-1-6,0l-91,52.9c-1,0.6-1.4,1.4-1.2,2.2h-0.1v1.7c0,1.7,0.9,3.4,2.4,4.2
				l44.5,25.6c1.7,1,4.4,1,6,0l90.9-52.8C200.7,142.6,201.5,140.2,200.5,138.1z"/>
			<path id="XMLID_263_" class="st26" d="M200.1,138.1l-0.3-0.5c-0.2-0.3-0.4-0.6-0.7-0.9c-0.1-0.1-0.1-0.1-0.2-0.1l-0.1-0.1h-0.1
				c-0.1-0.1-0.1-0.1-0.2-0.2l-45.4-26.2c-1.7-1-4.4-1-6,0l-90.6,52.7c-1,0.6-1.4,1.4-1.2,2.2h-0.1v1.7c0,1.7,0.9,3.3,2.4,4.2
				l44.2,25.5c1.7,1,4.4,1,6,0l90.5-52.6C200.3,142.5,201.1,140.1,200.1,138.1z"/>
			<path id="XMLID_262_" class="st27" d="M199.7,138.1l-0.3-0.5c-0.2-0.3-0.4-0.6-0.7-0.9c-0.1-0.1-0.1-0.1-0.2-0.1l-0.1-0.1h-0.1
				c-0.1-0.1-0.1-0.1-0.2-0.2L153,110.2c-1.6-0.9-4.3-0.9-6,0l-90.3,52.5c-1,0.6-1.4,1.4-1.2,2.1h-0.1v1.6c0,1.7,0.9,3.3,2.4,4.2
				l44,25.3c1.6,0.9,4.3,0.9,6,0l90.2-52.4C200,142.5,200.7,140.1,199.7,138.1z"/>
			<path id="XMLID_261_" class="st28" d="M199.4,138l-0.3-0.5c-0.2-0.3-0.4-0.6-0.7-0.8c-0.1-0.1-0.1-0.1-0.2-0.1l-0.1-0.1H198
				c-0.1-0.1-0.1-0.1-0.2-0.2l-44.8-26c-1.6-0.9-4.3-0.9-5.9,0l-89.9,52.3c-1,0.6-1.4,1.4-1.2,2.1h-0.1v1.6c0,1.7,0.9,3.3,2.4,4.1
				l43.7,25.1c1.6,0.9,4.3,0.9,5.9,0l89.8-52.2C199.6,142.4,200.3,140,199.4,138z"/>
			<path id="XMLID_260_" class="st29" d="M199,138l-0.3-0.5c-0.2-0.3-0.4-0.6-0.7-0.8c-0.1-0.1-0.1-0.1-0.2-0.1l-0.1-0.1h-0.1
				c-0.1-0.1-0.1-0.1-0.2-0.2l-44.6-25.7c-1.6-0.9-4.3-0.9-5.9,0l-89.6,52.1c-1,0.6-1.4,1.4-1.1,2.1h-0.1v1.6c0,1.7,0.9,3.3,2.4,4.1
				l43.4,25c1.6,0.9,4.3,0.9,5.9,0l89.4-52C199.2,142.3,200,140,199,138z"/>
			<path id="XMLID_259_" class="st30" d="M198.7,137.9l-0.3-0.5c-0.2-0.3-0.4-0.6-0.7-0.8c-0.1,0-0.1-0.1-0.2-0.1l-0.1-0.1h-0.1
				c-0.1-0.1-0.1-0.1-0.2-0.2l-44.3-25.6c-1.6-0.9-4.3-0.9-5.9,0l-89.2,51.9c-1,0.6-1.4,1.4-1.1,2.1h-0.1v1.6c0,1.7,0.9,3.3,2.4,4.1
				l43.1,24.8c1.6,0.9,4.3,0.9,5.9,0l89.1-51.8C198.9,142.3,199.6,139.9,198.7,137.9z"/>
			<path id="XMLID_258_" class="st31" d="M198.3,137.9l-0.3-0.5c-0.2-0.3-0.4-0.6-0.7-0.8c-0.1,0-0.1-0.1-0.2-0.1l-0.1-0.1h-0.1
				c-0.1-0.1-0.1-0.1-0.2-0.2l-44-25.4c-1.6-0.9-4.2-0.9-5.8,0L58,162.5c-1,0.6-1.4,1.4-1.1,2.1h-0.1v1.6c0,1.7,0.9,3.2,2.4,4.1
				l42.9,24.7c1.6,0.9,4.2,0.9,5.8,0l88.7-51.6C198.5,142.2,199.2,139.8,198.3,137.9z"/>
			<path id="XMLID_257_" class="st32" d="M197.9,137.8l-0.2-0.5c-0.2-0.3-0.4-0.6-0.7-0.8c-0.1,0-0.1-0.1-0.2-0.1l-0.1-0.1h-0.1
				c-0.1-0.1-0.1-0.1-0.2-0.2l-43.8-25.3c-1.6-0.9-4.2-0.9-5.8,0l-88.5,51.5c-1,0.6-1.3,1.3-1.1,2.1h-0.1v1.6c0,1.7,0.9,3.2,2.3,4
				l42.6,24.5c1.6,0.9,4.2,0.9,5.8,0l88.4-51.4C198.2,142.1,198.9,139.8,197.9,137.8z"/>
			<path id="XMLID_244_" class="st33" d="M197.6,137.8l-0.2-0.5c-0.2-0.3-0.4-0.6-0.7-0.8c-0.1,0-0.1-0.1-0.2-0.1l-0.1-0.1h-0.1
				c-0.1,0-0.1-0.1-0.2-0.2L152.6,111c-1.6-0.9-4.2-0.9-5.8,0l-88.2,51.3c-1,0.6-1.3,1.3-1.1,2.1h-0.1v1.6c0,1.7,0.9,3.2,2.3,4
				l42.3,24.4c1.6,0.9,4.2,0.9,5.8,0l88-51.2C197.8,142.1,198.5,139.7,197.6,137.8z"/>
			<path id="XMLID_243_" class="st34" d="M197.2,137.8l-0.2-0.5c-0.2-0.3-0.4-0.6-0.7-0.8c-0.1,0-0.1-0.1-0.2-0.1l-0.1-0.1h-0.1
				c-0.1,0-0.1-0.1-0.2-0.2l-43.2-24.9c-1.6-0.9-4.1-0.9-5.7,0l-87.8,51c-1,0.6-1.3,1.3-1.1,2.1h-0.1v1.6c0,1.6,0.9,3.2,2.3,4
				l42.1,24.2c1.6,0.9,4.1,0.9,5.7,0l87.7-51.1C197.4,142,198.1,139.7,197.2,137.8z"/>
			<path id="XMLID_242_" class="st35" d="M196.8,137.7l-0.2-0.5c-0.2-0.3-0.4-0.6-0.7-0.8c-0.1,0-0.1-0.1-0.2-0.1l-0.1-0.1h-0.1
				c-0.1,0-0.1-0.1-0.2-0.1l-42.9-24.8c-1.6-0.9-4.1-0.9-5.7,0l-87.4,51c-1,0.6-1.3,1.3-1.1,2h-0.1v1.6c0,1.6,0.9,3.1,2.3,4
				l41.8,24.1c1.6,0.9,4.1,0.9,5.7,0l87.3-50.9C197.1,141.9,197.8,139.6,196.8,137.7z"/>
			<path id="XMLID_241_" class="st36" d="M196.5,137.7l-0.2-0.5c-0.2-0.3-0.4-0.6-0.7-0.8c-0.1,0-0.1-0.1-0.2-0.1l-0.1-0.1h-0.1
				c-0.1,0-0.1-0.1-0.2-0.1l-42.6-24.6c-1.6-0.9-4.1-0.9-5.6,0l-87.1,50.8c-1,0.5-1.3,1.3-1.1,2h-0.1v1.5c0,1.6,0.9,3.1,2.3,3.9
				l41.5,23.9c1.6,0.9,4.1,0.9,5.6,0l87-50.7C196.7,141.9,197.4,139.6,196.5,137.7z"/>
			<path id="XMLID_240_" class="st37" d="M196.1,137.6l-0.2-0.5c-0.2-0.3-0.4-0.6-0.7-0.8c-0.1,0-0.1-0.1-0.2-0.1l-0.1-0.1h-0.1
				c-0.1,0-0.1-0.1-0.2-0.1l-42.4-24.5c-1.5-0.9-4.1-0.9-5.6,0L60,162.1c-0.9,0.5-1.3,1.3-1.1,2h-0.1v1.5c0,1.6,0.9,3.1,2.3,3.9
				l41.3,23.7c1.5,0.9,4.1,0.9,5.6,0l86.6-50.5C196.3,141.8,197,139.5,196.1,137.6z"/>
			<path id="XMLID_239_" class="st38" d="M195.8,137.6l-0.2-0.5c-0.2-0.3-0.4-0.6-0.7-0.8c-0.1,0-0.1-0.1-0.2-0.1l-0.1-0.1h-0.1
				c-0.1,0-0.1-0.1-0.2-0.1l-42.1-24.3c-1.5-0.9-4-0.9-5.6,0L60.3,162c-0.9,0.5-1.3,1.3-1.1,2h-0.1v1.5c0,1.6,0.9,3.1,2.2,3.9
				l41,23.6c1.5,0.9,4,0.9,5.6,0l86.2-50.3C196,141.7,196.7,139.5,195.8,137.6z"/>
			<path id="XMLID_238_" class="st39" d="M195.4,137.6l-0.2-0.5c-0.2-0.3-0.4-0.6-0.7-0.8c-0.1,0-0.1-0.1-0.2-0.1l-0.1-0.1h-0.1
				c-0.1,0-0.1-0.1-0.2-0.1l-41.8-24.1c-1.5-0.9-4-0.9-5.5,0l-86,50.2c-0.9,0.5-1.3,1.3-1.1,2h-0.1v1.5c0,1.6,0.9,3.1,2.2,3.9
				l40.7,23.4c1.5,0.9,4,0.9,5.5,0l85.9-50.1C195.6,141.6,196.3,139.4,195.4,137.6z"/>
			<path id="XMLID_237_" class="st40" d="M195,137.5l-0.2-0.5c-0.2-0.3-0.4-0.6-0.7-0.8c-0.1,0-0.1-0.1-0.2-0.1l-0.1-0.1h-0.1
				c-0.1,0-0.1-0.1-0.2-0.1l-41.5-24c-1.5-0.9-4-0.9-5.5,0l-85.7,50c-0.9,0.5-1.3,1.3-1.1,2h-0.1v1.5c0,1.6,0.8,3,2.2,3.8l40.5,23.3
				c1.5,0.9,4,0.9,5.5,0l85.5-49.9C195.3,141.6,195.9,139.4,195,137.5z"/>
			<path id="XMLID_236_" class="st41" d="M194.7,137.5l-0.2-0.5c-0.2-0.3-0.4-0.6-0.7-0.8c-0.1,0-0.1-0.1-0.2-0.1l-0.1-0.1h-0.1
				c-0.1,0-0.1-0.1-0.2-0.1L152,112c-1.5-0.9-4-0.9-5.5,0l-85.3,49.8c-0.9,0.5-1.3,1.3-1.1,2H60v1.5c0,1.6,0.8,3,2.2,3.8l40.2,23.1
				c1.5,0.9,4,0.9,5.5,0l85.2-49.7C194.9,141.5,195.6,139.3,194.7,137.5z"/>
			<path id="XMLID_235_" class="st42" d="M194.3,137.4l-0.2-0.5c-0.2-0.3-0.4-0.6-0.7-0.8c-0.1,0-0.1-0.1-0.2-0.1l-0.1-0.1H193
				c-0.1,0-0.1-0.1-0.2-0.1l-41-23.7c-1.5-0.9-3.9-0.9-5.4,0l-85,49.6c-0.9,0.5-1.3,1.3-1.1,2h-0.1v1.5c0,1.6,0.8,3,2.2,3.8l39.9,23
				c1.5,0.9,3.9,0.9,5.4,0l84.8-49.5C194.5,141.4,195.2,139.3,194.3,137.4z"/>
			<path id="XMLID_234_" class="st43" d="M194,137.4l-0.2-0.5c-0.2-0.3-0.4-0.6-0.7-0.8c0,0-0.1-0.1-0.2-0.1l-0.1-0.1h-0.1
				c-0.1,0-0.1-0.1-0.2-0.1l-40.7-23.5c-1.5-0.9-3.9-0.9-5.4,0l-84.6,49.4c-0.9,0.5-1.3,1.3-1,1.9h-0.1v1.5c0,1.6,0.8,3,2.2,3.8
				l39.6,22.8c1.5,0.9,3.9,0.9,5.4,0l84.5-49.3C194.2,141.4,194.8,139.2,194,137.4z"/>
		</g>
		<g id="XMLID_216_">
			<g id="XMLID_218_">
				
					<linearGradient id="XMLID_42_" gradientUnits="userSpaceOnUse" x1="154.9701" y1="75.2652" x2="-1.8515" y2="144.4214" gradientTransform="matrix(-1 0 0 -1 215.8712 256)">
					<stop  offset="3.802280e-002" style="stop-color:#A5CBEF"/>
					<stop  offset="0.2227" style="stop-color:#B9D7F2"/>
					<stop  offset="0.5251" style="stop-color:#D4E6F7"/>
					<stop  offset="0.794" style="stop-color:#E4F0FA"/>
					<stop  offset="1" style="stop-color:#EAF3FB"/>
				</linearGradient>
				<path id="XMLID_232_" class="st44" d="M51.3,163.6v-1.8l98.2-57.7c1.8-1.1,4-1.7,5.9-0.7L207,133c0.5,0.3,0.9,0.7,1.1,1.2
					l0.3,0.6c1.1,2.2,0.3,5-1.9,6.2L110,196.7c-1.8,1.1-4.9,1.1-6.7,0L54,168.3C52.3,167.3,51.3,165.5,51.3,163.6z"/>
				<path id="XMLID_231_" class="st45" d="M52.7,163.2c-1.8-1.1-1.8-2.8,0-3.9l96.6-55.8c1.8-1.1,4.9-1.1,6.7,0l50.7,29.3
					c1.8,1.1,1.8,2.8,0,3.9L110,192.4c-1.8,1.1-4.9,1.1-6.7,0L52.7,163.2z"/>
				<path id="XMLID_230_" class="st46" d="M54.8,163c-1.8-1-1.8-2.7,0-3.7l94.4-54.5c1.8-1,4.7-1,6.5,0l8.9,5.2
					c0.5,0.3,0.6,1.1,0.1,1.4l-1,0.7c-0.7,0.4-0.7,1.3,0,1.7l24.1,13.8c0.6,0.4,1.4,0.4,2.1,0l2.1-1.1c0.5-0.3,1.1-0.3,1.5,0l11,6.3
					c1.8,1,1.8,2.7,0,3.7L110,191.2c-1.8,1-4.7,1-6.5,0L54.8,163z"/>
				<g id="XMLID_227_">
					<path id="XMLID_229_" class="st46" d="M182.3,122.3c-0.1,0-0.1,0-0.1,0l-10.6-6.1c-0.1-0.1-0.2-0.3-0.1-0.4
						c0.1-0.1,0.3-0.2,0.4-0.1l10.6,6.1c0.1,0.1,0.2,0.3,0.1,0.4C182.5,122.2,182.4,122.3,182.3,122.3z"/>
				</g>
			</g>
		</g>
	</g>
	<g id="XMLID_5_">
		<g>
			<path id="XMLID_125_" class="st47" d="M120.7,181.7l59-34.3c1.6-0.9,1.6-3.2,0-4.1L139.3,120c-1.2-0.7-2.8-0.7-4,0l-59,34.3
				c-1.6,0.9-1.6,3.2,0,4.1l40.4,23.3C118,182.5,119.5,182.5,120.7,181.7z"/>
			<path id="XMLID_54_" class="st48" d="M120.8,181.5l58.8-34.1c1.6-0.9,1.6-3.2,0-4.1l-40.2-23.2c-1.2-0.7-2.7-0.7-4,0l-58.8,34.1
				c-1.6,0.9-1.6,3.2,0,4.1l40.2,23.2C118,182.3,119.5,182.3,120.8,181.5z"/>
			<path id="XMLID_53_" class="st49" d="M120.8,181.3l58.5-34c1.6-0.9,1.5-3.1,0-4l-40.1-23.1c-1.2-0.7-2.7-0.7-4,0l-58.5,34
				c-1.6,0.9-1.5,3.1,0,4l40.1,23.1C118.1,182.1,119.6,182.1,120.8,181.3z"/>
			<path id="XMLID_52_" class="st50" d="M120.8,181.1l58.3-33.9c1.5-0.9,1.5-3.1,0-4l-39.9-23c-1.2-0.7-2.7-0.7-3.9,0L77,154.1
				c-1.5,0.9-1.5,3.1,0,4l39.9,23C118.1,181.9,119.6,181.9,120.8,181.1z"/>
			<path id="XMLID_51_" class="st51" d="M120.8,180.9l58-33.7c1.5-0.9,1.5-3.1,0-4l-39.7-22.9c-1.2-0.7-2.7-0.7-3.9,0l-58,33.7
				c-1.5,0.9-1.5,3.1,0,4l39.7,22.9C118.1,181.7,119.6,181.6,120.8,180.9z"/>
			<path id="XMLID_50_" class="st52" d="M120.9,180.7l57.8-33.6c1.5-0.9,1.5-3.1,0-4l-39.6-22.8c-1.2-0.7-2.7-0.7-3.9,0l-57.8,33.6
				c-1.5,0.9-1.5,3.1,0,4l39.6,22.8C118.2,181.4,119.7,181.4,120.9,180.7z"/>
			<path id="XMLID_49_" class="st53" d="M120.9,180.5l57.6-33.4c1.5-0.9,1.5-3.1,0-4l-39.4-22.7c-1.2-0.7-2.7-0.7-3.9,0l-57.6,33.4
				c-1.5,0.9-1.5,3.1,0,4l39.4,22.7C118.2,181.2,119.7,181.2,120.9,180.5z"/>
			<path id="XMLID_48_" class="st54" d="M120.9,180.3l57.3-33.3c1.5-0.9,1.5-3.1,0-4L139,120.5c-1.2-0.7-2.7-0.7-3.9,0l-57.3,33.3
				c-1.5,0.9-1.5,3.1,0,4l39.2,22.7C118.3,181,119.7,181,120.9,180.3z"/>
			<path id="XMLID_47_" class="st55" d="M121,180.2l57-33.2c1.5-0.9,1.5-3.1,0-3.9l-39-22.6c-1.2-0.7-2.7-0.7-3.9,0L78,153.7
				c-1.5,0.9-1.5,3.1,0,3.9l39.1,22.6C118.3,180.8,119.8,180.8,121,180.2z"/>
			<path id="XMLID_46_" class="st56" d="M121,180l56.8-33c1.5-0.9,1.5-3.1,0-3.9l-38.9-22.5c-1.2-0.7-2.7-0.7-3.8,0l-56.8,33
				c-1.5,0.9-1.5,3.1,0,3.9l38.9,22.5C118.3,180.6,119.8,180.6,121,180z"/>
			<path id="XMLID_45_" class="st57" d="M121,179.8l56.6-32.9c1.5-0.9,1.5-3,0-3.9l-38.7-22.4c-1.2-0.7-2.6-0.7-3.8,0l-56.6,32.9
				c-1.5,0.9-1.5,3,0,3.9l38.7,22.4C118.4,180.4,119.8,180.4,121,179.8z"/>
			<path id="XMLID_44_" class="st58" d="M121.1,179.6l56.3-32.7c1.5-0.9,1.5-3,0-3.9l-38.6-22.3c-1.2-0.7-2.6-0.7-3.8,0l-56.3,32.7
				c-1.5,0.9-1.5,3,0,3.9l38.6,22.3C118.4,180.2,119.9,180.2,121.1,179.6z"/>
			<path id="XMLID_43_" class="st59" d="M121.1,179.4l56.1-32.6c1.5-0.9,1.5-3,0-3.9l-38.4-22.2c-1.2-0.7-2.6-0.7-3.8,0l-56.1,32.6
				c-1.5,0.9-1.5,3,0,3.9l38.4,22.2C118.5,180,119.9,180,121.1,179.4z"/>
			<path id="XMLID_39_" class="st60" d="M121.1,179.2l55.8-32.4c1.5-0.9,1.5-3,0-3.9l-38.2-22.1c-1.2-0.7-2.6-0.7-3.8,0l-55.8,32.4
				c-1.5,0.9-1.5,3,0,3.9l38.2,22.1C118.5,179.8,120,179.8,121.1,179.2z"/>
			<path id="XMLID_38_" class="st61" d="M121.2,179l55.6-32.3c1.5-0.9,1.5-3,0-3.8l-38.1-22c-1.2-0.7-2.6-0.7-3.8,0l-55.6,32.3
				c-1.5,0.9-1.5,3,0,3.8l38.1,22C118.6,179.6,120,179.6,121.2,179z"/>
			<path id="XMLID_37_" class="st62" d="M121.2,178.8l55.3-32.1c1.5-0.9,1.5-3,0-3.8L138.6,121c-1.2-0.7-2.6-0.7-3.7,0l-55.3,32.1
				c-1.5,0.9-1.5,3,0,3.8l37.9,21.9C118.6,179.4,120,179.4,121.2,178.8z"/>
			<path id="XMLID_36_" class="st63" d="M121.2,178.6l55.1-32c1.5-0.8,1.5-3,0-3.8L138.6,121c-1.2-0.7-2.6-0.7-3.7,0l-55.1,32
				c-1.5,0.8-1.5,3,0,3.8l37.7,21.8C118.6,179.2,120.1,179.2,121.2,178.6z"/>
			<path id="XMLID_35_" class="st64" d="M121.2,178.4l54.9-31.9c1.5-0.8,1.5-2.9,0-3.8L138.5,121c-1.1-0.7-2.6-0.7-3.7,0L80,152.9
				c-1.5,0.8-1.5,2.9,0,3.8l37.6,21.7C118.7,179,120.1,179,121.2,178.4z"/>
			<path id="XMLID_34_" class="st65" d="M121.3,178.2l54.6-31.7c1.4-0.8,1.4-2.9,0-3.8l-37.4-21.6c-1.1-0.7-2.6-0.7-3.7,0
				l-54.6,31.7c-1.4,0.8-1.4,2.9,0,3.8l37.4,21.6C118.7,178.8,120.1,178.8,121.3,178.2z"/>
			<path id="XMLID_33_" class="st66" d="M121.3,178l54.4-31.6c1.4-0.8,1.4-2.9,0-3.8l-37.2-21.5c-1.1-0.7-2.5-0.7-3.7,0l-54.4,31.6
				c-1.4,0.8-1.4,2.9,0,3.8l37.2,21.5C118.8,178.6,120.2,178.6,121.3,178z"/>
			<path id="XMLID_32_" class="st67" d="M121.3,177.8l54.1-31.4c1.4-0.8,1.4-2.9,0-3.7l-37-21.4c-1.1-0.7-2.5-0.7-3.7,0l-54.1,31.4
				c-1.4,0.8-1.4,2.9,0,3.7l37,21.4C118.8,178.4,120.2,178.4,121.3,177.8z"/>
			<path id="XMLID_31_" class="st68" d="M121.4,177.6l53.9-31.3c1.4-0.8,1.4-2.9,0-3.7l-36.9-21.3c-1.1-0.7-2.5-0.7-3.6,0
				l-53.9,31.3c-1.4,0.8-1.4,2.9,0,3.7l36.9,21.3C118.8,178.2,120.2,178.2,121.4,177.6z"/>
			<path id="XMLID_30_" class="st69" d="M121.4,177.4l53.6-31.1c1.4-0.8,1.4-2.9,0-3.7l-36.7-21.2c-1.1-0.6-2.5-0.6-3.6,0
				l-53.6,31.1c-1.4,0.8-1.4,2.9,0,3.7l36.7,21.2C118.9,178,120.3,178,121.4,177.4z"/>
			<path id="XMLID_29_" class="st70" d="M121.4,177.2l53.4-31c1.4-0.8,1.4-2.9,0-3.7l-36.5-21.1c-1.1-0.6-2.5-0.6-3.6,0l-53.4,31
				c-1.4,0.8-1.4,2.9,0,3.7l36.5,21.1C118.9,177.8,120.3,177.8,121.4,177.2z"/>
			<path id="XMLID_28_" class="st71" d="M121.5,177l53.1-30.9c1.4-0.8,1.4-2.9,0-3.7l-36.4-21c-1.1-0.6-2.5-0.6-3.6,0l-53.1,30.9
				c-1.4,0.8-1.4,2.9,0,3.7l36.4,21C119,177.6,120.3,177.6,121.5,177z"/>
			<path id="XMLID_27_" class="st72" d="M121.5,176.8l52.9-30.7c1.4-0.8,1.4-2.8,0-3.7l-36.2-20.9c-1.1-0.6-2.5-0.6-3.6,0
				l-52.9,30.7c-1.4,0.8-1.4,2.8,0,3.7l36.2,20.9C119,177.4,120.4,177.4,121.5,176.8z"/>
			<path id="XMLID_26_" class="st73" d="M121.5,176.6l52.6-30.6c1.4-0.8,1.4-2.8,0-3.6l-36-20.8c-1.1-0.6-2.5-0.6-3.6,0l-52.6,30.6
				c-1.4,0.8-1.4,2.8,0,3.6l36,20.8C119.1,177.2,120.4,177.2,121.5,176.6z"/>
			<path id="XMLID_25_" class="st74" d="M121.5,176.4l52.4-30.4c1.4-0.8,1.4-2.8,0-3.6L138,121.7c-1.1-0.6-2.5-0.6-3.5,0l-52.4,30.4
				c-1.4,0.8-1.4,2.8,0,3.6l35.9,20.7C119.1,177,120.5,177,121.5,176.4z"/>
			<path id="XMLID_24_" class="st75" d="M121.6,176.2l52.2-30.3c1.4-0.8,1.4-2.8,0-3.6L138,121.7c-1.1-0.6-2.4-0.6-3.5,0L82.3,152
				c-1.4,0.8-1.4,2.8,0,3.6l35.7,20.6C119.1,176.8,120.5,176.8,121.6,176.2z"/>
			<path id="XMLID_23_" class="st76" d="M121.6,176l51.9-30.1c1.4-0.8,1.4-2.8,0-3.6L138,121.8c-1.1-0.6-2.4-0.6-3.5,0l-51.9,30.1
				c-1.4,0.8-1.4,2.8,0,3.6l35.5,20.5C119.2,176.6,120.5,176.6,121.6,176z"/>
			<path id="XMLID_22_" class="st77" d="M121.6,175.8l51.7-30c1.4-0.8,1.4-2.8,0-3.6l-35.4-20.4c-1.1-0.6-2.4-0.6-3.5,0l-51.7,30
				c-1.4,0.8-1.4,2.8,0,3.6l35.4,20.4C119.2,176.4,120.6,176.4,121.6,175.8z"/>
			<path id="XMLID_21_" class="st78" d="M121.7,175.6l51.4-29.9c1.4-0.8,1.4-2.8,0-3.5l-35.2-20.3c-1.1-0.6-2.4-0.6-3.5,0L83,151.7
				c-1.4,0.8-1.4,2.8,0,3.5l35.2,20.3C119.3,176.2,120.6,176.2,121.7,175.6z"/>
			<path id="XMLID_20_" class="st79" d="M121.7,175.4l51.2-29.7c1.4-0.8,1.4-2.7,0-3.5l-35-20.2c-1.1-0.6-2.4-0.6-3.5,0l-51.2,29.7
				c-1.4,0.8-1.4,2.7,0,3.5l35,20.2C119.3,176,120.6,176,121.7,175.4z"/>
			<path id="XMLID_19_" class="st80" d="M121.7,175.2l50.9-29.6c1.3-0.8,1.3-2.7,0-3.5L137.8,122c-1.1-0.6-2.4-0.6-3.4,0l-50.9,29.6
				c-1.3,0.8-1.3,2.7,0,3.5l34.9,20.1C119.4,175.8,120.7,175.8,121.7,175.2z"/>
			<path id="XMLID_18_" class="st81" d="M121.8,175l50.7-29.4c1.3-0.8,1.3-2.7,0-3.5l-34.7-20c-1.1-0.6-2.4-0.6-3.4,0l-50.7,29.4
				c-1.3,0.8-1.3,2.7,0,3.5l34.7,20C119.4,175.6,120.7,175.6,121.8,175z"/>
			<path id="XMLID_17_" class="st82" d="M121.8,174.8l50.4-29.3c1.3-0.8,1.3-2.7,0-3.5l-34.5-19.9c-1.1-0.6-2.4-0.6-3.4,0
				l-50.4,29.3c-1.3,0.8-1.3,2.7,0,3.5l34.5,19.9C119.4,175.4,120.7,175.4,121.8,174.8z"/>
			<path id="XMLID_16_" class="st83" d="M121.8,174.6l50.2-29.1c1.3-0.8,1.3-2.7,0-3.5l-34.4-19.8c-1.1-0.6-2.3-0.6-3.4,0L84,151.3
				c-1.3,0.8-1.3,2.7,0,3.5l34.4,19.8C119.5,175.2,120.8,175.2,121.8,174.6z"/>
			<path id="XMLID_14_" class="st84" d="M121.9,174.4l49.9-29c1.3-0.8,1.3-2.7,0-3.4l-34.2-19.7c-1-0.6-2.3-0.6-3.4,0l-49.9,29
				c-1.3,0.8-1.3,2.7,0,3.4l34.2,19.7C119.5,175,120.8,175,121.9,174.4z"/>
			<path id="XMLID_10_" class="st85" d="M121.9,174.2l49.7-28.9c1.3-0.8,1.3-2.7,0-3.4l-34-19.6c-1-0.6-2.3-0.6-3.4,0l-49.7,28.9
				c-1.3,0.8-1.3,2.7,0,3.4l34,19.6C119.6,174.8,120.8,174.8,121.9,174.2z"/>
			<path id="XMLID_9_" class="st86" d="M121.9,174l49.4-28.7c1.3-0.8,1.3-2.7,0-3.4l-33.9-19.5c-1-0.6-2.3-0.6-3.3,0l-49.4,28.7
				c-1.3,0.8-1.3,2.7,0,3.4l33.9,19.5C119.6,174.6,120.9,174.6,121.9,174z"/>
			<path id="XMLID_8_" class="st87" d="M121.9,173.8l49.2-28.6c1.3-0.8,1.3-2.6,0-3.4l-33.7-19.4c-1-0.6-2.3-0.6-3.3,0L84.9,151
				c-1.3,0.8-1.3,2.6,0,3.4l33.7,19.4C119.6,174.4,120.9,174.4,121.9,173.8z"/>
			<path id="XMLID_124_" class="st43" d="M122,173.6l49-28.4c1.3-0.8,1.3-2.6,0-3.4l-33.5-19.3c-1-0.6-2.3-0.6-3.3,0l-49,28.4
				c-1.3,0.8-1.3,2.6,0,3.4l33.5,19.3C119.7,174.2,121,174.2,122,173.6z"/>
		</g>
		<polygon id="XMLID_213_" class="st88" points="81,149.2 85.9,146.7 170.7,137.3 175.5,139.8 120.3,171.9 		"/>
		<polygon id="XMLID_212_" class="st89" points="85.9,109.6 85.9,149.3 120.3,169.2 120.3,129.4 		"/>
		<polygon id="XMLID_211_" class="st46" points="92.7,129.3 92.7,137.5 109.7,147.3 109.7,139.1 		"/>
		<polygon id="XMLID_210_" class="st90" points="170.7,100.2 170.7,140 120.3,169.2 120.3,129.4 		"/>
		<polygon id="XMLID_209_" class="st91" points="120.3,129.5 175.5,97.4 136.2,74.7 81,106.8 		"/>
		<polygon id="XMLID_208_" class="st43" points="120.3,124.5 166.9,97.4 136.2,79.7 89.6,106.8 		"/>
		<polygon id="XMLID_207_" class="st92" points="81,106.8 81,111.2 120.3,134.1 120.3,129.4 		"/>
		<polygon id="XMLID_206_" class="st88" points="175.5,97.4 175.5,101.9 120.3,134.1 120.3,129.4 		"/>
		<polygon id="XMLID_205_" class="st92" points="81,149.2 81,153.7 120.3,176.5 120.3,171.9 		"/>
		<polygon id="XMLID_204_" class="st88" points="175.5,139.8 175.5,144.3 120.3,176.5 120.3,171.9 		"/>
		<polygon id="XMLID_203_" class="st92" points="136.2,79.7 136.2,84.2 93.7,109.1 89.6,106.8 		"/>
		<polygon id="XMLID_202_" class="st93" points="136.2,79.7 136.2,84.2 162.9,99.8 166.9,97.4 		"/>
		<polygon id="XMLID_201_" class="st46" points="157.6,122.1 157.6,139.2 122.5,159.7 122.5,142.6 		"/>
		<polygon id="XMLID_200_" class="st46" points="168.4,115.8 168.4,141.3 159.5,146.4 159.5,121.1 		"/>
		<g id="XMLID_199_">
			<polygon id="XMLID_980_" class="st94" points="132.1,154.1 147.3,128.2 143.4,130.4 128.2,156.4 			"/>
			<polygon id="XMLID_982_" class="st94" points="141.4,131.6 135.2,135.2 122.5,156.9 122.5,159.7 126.3,157.5 			"/>
		</g>
		<g id="XMLID_924_">
			<polygon id="XMLID_198_" class="st94" points="168.3,115.9 159.5,131 159.5,138.1 168.4,122.8 168.4,115.8 			"/>
			<polygon id="XMLID_197_" class="st94" points="168.4,129.4 168.4,125 159.5,140.2 159.5,144.7 			"/>
		</g>
		<g id="XMLID_177_">
			
				<linearGradient id="XMLID_56_" gradientUnits="userSpaceOnUse" x1="-51.3744" y1="136.2903" x2="-45.0925" y2="136.2903" gradientTransform="matrix(-1 0 0 -1 125.012 256)">
				<stop  offset="0" style="stop-color:#3C5185"/>
				<stop  offset="1" style="stop-color:#4A65A3"/>
			</linearGradient>
			<path id="XMLID_196_" class="st95" d="M176.4,115v3.5c0,1.9-1.4,4.3-3.1,5.4c-1.7,1.1-3.1,0.4-3.1-1.6v-3.6L176.4,115z"/>
			<path id="XMLID_195_" class="st96" d="M170.1,118.6v3.5c0,1.9-1.4,4.3-3.1,5.4c-1.7,1.1-3.1,0.4-3.1-1.6v-3.6L170.1,118.6z"/>
			
				<linearGradient id="XMLID_57_" gradientUnits="userSpaceOnUse" x1="-38.8105" y1="129.0903" x2="-32.5285" y2="129.0903" gradientTransform="matrix(-1 0 0 -1 125.012 256)">
				<stop  offset="0" style="stop-color:#3C5185"/>
				<stop  offset="1" style="stop-color:#4A65A3"/>
			</linearGradient>
			<path id="XMLID_194_" class="st97" d="M163.8,122.2v3.5c0,1.9-1.4,4.3-3.1,5.4c-1.7,1.1-3.1,0.4-3.1-1.6v-3.6L163.8,122.2z"/>
			
				<linearGradient id="XMLID_58_" gradientUnits="userSpaceOnUse" x1="-26.2467" y1="121.8903" x2="-19.9647" y2="121.8903" gradientTransform="matrix(-1 0 0 -1 125.012 256)">
				<stop  offset="0" style="stop-color:#3C5185"/>
				<stop  offset="1" style="stop-color:#4A65A3"/>
			</linearGradient>
			<path id="XMLID_193_" class="st98" d="M151.3,129.4v3.5c0,1.9-1.4,4.3-3.1,5.4c-1.7,1.1-3.1,0.4-3.1-1.6V133L151.3,129.4z"/>
			<path id="XMLID_192_" class="st96" d="M157.5,125.8v3.5c0,1.9-1.4,4.3-3.1,5.4c-1.7,1.1-3.1,0.4-3.1-1.6v-3.6L157.5,125.8z"/>
			<polygon id="XMLID_191_" class="st96" points="144.3,133.3 138.5,127.9 132.9,131.2 132.9,131.9 138,136.9 			"/>
			<path id="XMLID_187_" class="st96" d="M145,133v3.5c0,1.9-1.4,4.3-3.1,5.4c-1.7,1.1-3.1,0.4-3.1-1.6v-3.6L145,133z"/>
			
				<linearGradient id="XMLID_59_" gradientUnits="userSpaceOnUse" x1="-51.3744" y1="141.95" x2="-39.2744" y2="141.95" gradientTransform="matrix(-1 0 0 -1 125.012 256)">
				<stop  offset="0" style="stop-color:#3C5185"/>
				<stop  offset="1" style="stop-color:#4A65A3"/>
			</linearGradient>
			<polygon id="XMLID_186_" class="st99" points="176.4,115 170.6,109.5 164.3,113.2 170.1,118.6 			"/>
			<polygon id="XMLID_185_" class="st100" points="170.1,118.6 164.3,113.1 158,116.8 163.8,122.2 			"/>
			
				<linearGradient id="XMLID_60_" gradientUnits="userSpaceOnUse" x1="-38.8105" y1="134.75" x2="-26.7105" y2="134.75" gradientTransform="matrix(-1 0 0 -1 125.012 256)">
				<stop  offset="0" style="stop-color:#3C5185"/>
				<stop  offset="1" style="stop-color:#4A65A3"/>
			</linearGradient>
			<polygon id="XMLID_184_" class="st101" points="163.8,122.2 158,116.7 151.7,120.4 157.5,125.8 			"/>
			<polygon id="XMLID_183_" class="st100" points="157.5,125.8 151.7,120.4 145.4,124 151.3,129.4 			"/>
			
				<linearGradient id="XMLID_61_" gradientUnits="userSpaceOnUse" x1="-26.2467" y1="127.5" x2="-14.1368" y2="127.5" gradientTransform="matrix(-1 0 0 -1 125.012 256)">
				<stop  offset="0" style="stop-color:#3C5185"/>
				<stop  offset="1" style="stop-color:#4A65A3"/>
			</linearGradient>
			<polygon id="XMLID_182_" class="st102" points="151.3,129.4 145.4,124 139.1,127.6 145,133 			"/>
			<polygon id="XMLID_181_" class="st100" points="145,133 139.1,127.6 132.9,131.2 138.7,136.6 			"/>
			
				<linearGradient id="XMLID_62_" gradientUnits="userSpaceOnUse" x1="-13.688" y1="114.6903" x2="-7.406" y2="114.6903" gradientTransform="matrix(-1 0 0 -1 125.012 256)">
				<stop  offset="0" style="stop-color:#3C5185"/>
				<stop  offset="1" style="stop-color:#4A65A3"/>
			</linearGradient>
			<path id="XMLID_986_" class="st103" d="M138.7,136.6v3.5c0,1.9-1.4,4.3-3.1,5.4c-1.7,1.1-3.1,0.4-3.1-1.6v-3.6L138.7,136.6z"/>
			<path id="XMLID_984_" class="st96" d="M131.7,140.5v3.5c0,1.9-1.4,4.3-3.1,5.4c-1.7,1.1-3.1,0.4-3.1-1.6v-3.6L131.7,140.5z"/>
			<polygon id="XMLID_976_" class="st96" points="131.7,140.5 125.9,135.1 120.3,138.4 120.3,139.1 125.4,144.1 			"/>
			<path id="XMLID_180_" class="st96" d="M132.4,140.2v3.5c0,1.9-1.4,4.3-3.1,5.4c-1.7,1.1-3.1,0.4-3.1-1.6v-3.6L132.4,140.2z"/>
			
				<linearGradient id="XMLID_65_" gradientUnits="userSpaceOnUse" x1="-13.688" y1="120.3" x2="-1.588" y2="120.3" gradientTransform="matrix(-1 0 0 -1 125.012 256)">
				<stop  offset="0" style="stop-color:#3C5185"/>
				<stop  offset="1" style="stop-color:#4A65A3"/>
			</linearGradient>
			<polygon id="XMLID_179_" class="st104" points="138.7,136.6 132.9,131.2 126.6,134.8 132.4,140.2 			"/>
			<polygon id="XMLID_178_" class="st100" points="132.4,140.2 126.6,134.8 120.3,138.4 126.1,143.8 			"/>
		</g>
		<g id="XMLID_174_">
			
				<linearGradient id="XMLID_66_" gradientUnits="userSpaceOnUse" x1="133.5856" y1="133.0031" x2="153.9374" y2="161.401" gradientTransform="matrix(1 0 0 -1 0 256)">
				<stop  offset="0" style="stop-color:#4A65A3"/>
				<stop  offset="1" style="stop-color:#3C5185"/>
			</linearGradient>
			<path id="XMLID_176_" class="st105" d="M155.6,95.9v10.8c0,0.7-0.4,1.4-1,1.8l-18.4,10.6c-0.8,0.4-1.7-0.1-1.7-1v-10.8
				c0-0.7,0.4-1.4,1-1.8l18.4-10.6C154.6,94.4,155.6,95,155.6,95.9z"/>
			
				<linearGradient id="XMLID_67_" gradientUnits="userSpaceOnUse" x1="134.009" y1="132.8555" x2="154.2448" y2="161.0915" gradientTransform="matrix(1 0 0 -1 0 256)">
				<stop  offset="0" style="stop-color:#3C5185"/>
				<stop  offset="1" style="stop-color:#4A65A3"/>
			</linearGradient>
			<path id="XMLID_175_" class="st106" d="M154.6,95.3L136.2,106c-0.6,0.4-1,1-1,1.8v10.8c0,0.2,0.1,0.5,0.2,0.6
				c0.3,0.1,0.5,0,0.8-0.1l18.4-10.6c0.6-0.4,1-1,1-1.8V95.9c0-0.2-0.1-0.5-0.2-0.6C155.1,95.2,154.8,95.2,154.6,95.3z"/>
		</g>
		<g id="XMLID_6_">
			<g id="XMLID_226_">
				<path id="XMLID_292_" class="st96" d="M139.4,109.4c-0.1,0.1-0.1,0.2-0.1,0.4c0,0.1,0,0.2,0.1,0.3c0.1,0,0.2,0,0.5,0
					s0.5,0,0.6,0.1s0.2,0.4,0.2,0.8s-0.1,0.8-0.3,1.2c-0.2,0.4-0.5,0.6-0.8,0.8c-0.5,0.3-0.9,0.2-1.2-0.1l0.4-1
					c0.3,0.3,0.6,0.3,0.8,0.2c0.1-0.1,0.2-0.2,0.3-0.3c0.1-0.1,0.1-0.3,0.1-0.4s0-0.2-0.1-0.3c-0.1,0-0.2,0-0.4,0
					c-0.3,0.1-0.6,0-0.7-0.1c-0.2-0.1-0.2-0.4-0.2-0.8s0.1-0.8,0.3-1.2c0.2-0.4,0.5-0.6,0.8-0.8c0.2-0.1,0.4-0.2,0.6-0.2
					c0.2,0,0.4,0.1,0.5,0.2l-0.4,0.9c-0.2-0.2-0.5-0.2-0.8,0C139.5,109.2,139.4,109.3,139.4,109.4z"/>
				<path id="XMLID_290_" class="st96" d="M142.5,107.6l-0.1,3.8l-0.6,0.4l0.1-3.8l-0.8,0.5v-0.9l2.3-1.3v0.9L142.5,107.6z"/>
				<path id="XMLID_287_" class="st96" d="M146.1,108.7c-0.3,0.6-0.7,1.1-1.1,1.3c-0.4,0.2-0.8,0.2-1.1-0.1
					c-0.3-0.3-0.4-0.8-0.4-1.5s0.2-1.3,0.5-2c0.3-0.6,0.7-1.1,1.1-1.3c0.4-0.2,0.8-0.2,1.1,0.1c0.3,0.3,0.4,0.8,0.4,1.5
					C146.6,107.4,146.4,108.1,146.1,108.7z M145.9,107.1c0-0.4-0.1-0.7-0.2-0.9c-0.2-0.2-0.4-0.2-0.6-0.1c-0.2,0.1-0.5,0.4-0.6,0.8
					c-0.2,0.4-0.3,0.8-0.3,1.2c0,0.4,0.1,0.7,0.2,0.9c0.2,0.2,0.4,0.2,0.6,0.1c0.2-0.1,0.5-0.4,0.6-0.8
					C145.8,107.9,145.9,107.5,145.9,107.1z"/>
				<path id="XMLID_284_" class="st96" d="M149.5,104.3c0,0.8-0.2,1.3-0.6,1.8l0.7,1.3l-0.8,0.4l-0.6-1.1l-0.4,0.3v1.5l-0.6,0.4
					l0.1-4.7l1.1-0.6c0.5-0.3,0.8-0.3,1-0.2C149.5,103.5,149.5,103.8,149.5,104.3z M148.7,105.3c0.1-0.2,0.1-0.4,0.1-0.6
					c0-0.3,0-0.4-0.1-0.4s-0.2,0-0.4,0.1l-0.5,0.3v1.4l0.5-0.3C148.5,105.6,148.6,105.5,148.7,105.3z"/>
				<path id="XMLID_228_" class="st96" d="M152.3,101.2v0.9l-1.4,0.8v1l1.3-0.7v0.9l-1.3,0.7v1l1.5-0.8v0.9l-2.1,1.2l0.1-4.7
					L152.3,101.2z"/>
			</g>
		</g>
	</g>
	<g id="XMLID_40_">
		
			<linearGradient id="XMLID_68_" gradientUnits="userSpaceOnUse" x1="374.926" y1="161.6322" x2="364.7122" y2="198.9127" gradientTransform="matrix(-1 0 0 -1 490.4013 256)">
			<stop  offset="0" style="stop-color:#FFC107"/>
			<stop  offset="0.8501" style="stop-color:#FF9800"/>
		</linearGradient>
		<path id="XMLID_126_" class="st107" d="M133.3,57.1l1.2-0.6l-3.5-1.8c-0.2-0.1-0.4-0.2-0.6-0.3l0,0l0,0c-2.2-1-5-0.7-8.1,1.1
			c-6.7,3.9-12.1,13.3-12.1,21c0,1.3,0,2.2,0.1,3.1c0.2,1.4,0.8,2.6,1.7,3.7l0,0l9,10.9l4.2,2.2l2.2-7.6h-2l7.3-18.3l0,0
			c1.1-2.7,1.7-5.5,1.7-8.1C134.5,60.3,134.1,58.5,133.3,57.1z M122.4,77c-3.6,2.1-6.5,0.4-6.5-3.8c0-4.1,2.9-9.2,6.5-11.3
			s6.5-0.4,6.5,3.8S126,74.9,122.4,77z"/>
		<path id="XMLID_129_" class="st108" d="M133.3,57.1l1.2-0.6l-3.5-1.8c-0.2-0.1-0.4-0.2-0.6-0.3l0,0l0,0c-2.2-1-5-0.7-8.1,1.1
			c-6.7,3.9-12.1,13.3-12.1,21c0,1.3,0,2.2,0.1,3.1c0.2,1.4,0.8,2.6,1.7,3.7l0,0l9,10.9l4.2,2.2l2.2-7.6h-2l7.3-18.3l0,0
			c1.1-2.7,1.7-5.5,1.7-8.1C134.5,60.3,134.1,58.5,133.3,57.1z M122.4,77c-3.6,2.1-6.5,0.4-6.5-3.8c0-4.1,2.9-9.2,6.5-11.3
			s6.5-0.4,6.5,3.8S126,74.9,122.4,77z"/>
		
			<linearGradient id="XMLID_69_" gradientUnits="userSpaceOnUse" x1="113.6276" y1="179.9743" x2="137.9276" y2="179.9743" gradientTransform="matrix(1 0 0 -1 0 256)">
			<stop  offset="0.1499" style="stop-color:#FF9800"/>
			<stop  offset="1" style="stop-color:#FFC107"/>
		</linearGradient>
		<path id="XMLID_41_" class="st109" d="M137.9,64.2c0-8-5.3-11-12.2-6.9c-6.6,3.9-12.1,13.3-12.1,21c0,2.6,0.6,4.6,1.6,6.1l0,0
			l9.9,12c0.3,0.3,0.8,0.2,0.9-0.1l10.1-23.9l0,0C137.3,69.6,137.9,66.8,137.9,64.2z M125.8,78.8c-3.6,2.1-6.5,0.4-6.5-3.8
			s2.9-9.2,6.5-11.3c3.6-2.1,6.5-0.4,6.5,3.8S129.4,76.7,125.8,78.8z"/>
	</g>
	
		<radialGradient id="XMLID_70_" cx="125.5982" cy="-7470.8003" r="16.3511" gradientTransform="matrix(1 0 0 -0.5172 0 -3760.792)" gradientUnits="userSpaceOnUse">
		<stop  offset="0" style="stop-color:#3C5185"/>
		<stop  offset="5.292296e-003" style="stop-color:#3E5386"/>
		<stop  offset="0.1434" style="stop-color:#7180A6"/>
		<stop  offset="0.2843" style="stop-color:#9CA7C1"/>
		<stop  offset="0.4255" style="stop-color:#C0C7D8"/>
		<stop  offset="0.5672" style="stop-color:#DCDFE9"/>
		<stop  offset="0.7096" style="stop-color:#EFF1F5"/>
		<stop  offset="0.8532" style="stop-color:#FBFCFD"/>
		<stop  offset="1" style="stop-color:#FFFFFF"/>
	</radialGradient>
	<path id="XMLID_1375_" class="st110" d="M114.1,96.1c6.3-3.6,16.6-3.6,22.9,0s6.3,9.6,0,13.2s-16.6,3.6-22.9,0
		C107.8,105.7,107.8,99.8,114.1,96.1z"/>
	<g id="XMLID_136_">
		<g id="XMLID_447_">
			<g id="XMLID_372_">
				<path id="XMLID_373_" class="st43" d="M168.6,174.2c-0.3,0-0.5,0.1-0.8,0.2c-1.3,0.8-1.4,2.2-1.4,3.7l0.8,3.3
					c0,0.1,0.1,0.1,0.1,0.1c0.1,0,0.1-0.1,0.1-0.1l-0.8-3.3c0-1.4,0.1-2.8,1.3-3.5c0.4-0.2,0.9-0.2,1.3,0l0,0
					c0.8,0.5,1.4,1.2,1.6,2.1l0.6,2.1c0,0.1,0.1,0.1,0.1,0.1c0.1,0,0.1-0.1,0.1-0.1l-0.6-2.3c-0.3-0.9-0.9-1.7-1.7-2.2l0,0
					C169.2,174.2,168.9,174.2,168.6,174.2z"/>
			</g>
			<polygon id="XMLID_371_" class="st111" points="163.8,175.2 165.4,175.6 166.5,174.5 166.9,178.8 163.8,178.7 			"/>
			<polygon id="XMLID_370_" class="st112" points="166.5,174.5 167.7,186.6 175.6,191.1 174.2,179.1 			"/>
			
				<linearGradient id="XMLID_71_" gradientUnits="userSpaceOnUse" x1="-41.9803" y1="76.2398" x2="-34.2831" y2="67.0366" gradientTransform="matrix(-1 0 0 -1 129.5248 256)">
				<stop  offset="2.123250e-002" style="stop-color:#FFC107"/>
				<stop  offset="0.3187" style="stop-color:#FFAF04"/>
				<stop  offset="0.7097" style="stop-color:#FF9E01"/>
				<stop  offset="1" style="stop-color:#FF9800"/>
			</linearGradient>
			<polygon id="XMLID_369_" class="st113" points="163.8,175.2 163.8,188.7 171.7,193.3 171.7,179.7 			"/>
			
				<linearGradient id="XMLID_72_" gradientUnits="userSpaceOnUse" x1="-46.0318" y1="69.8" x2="-42.141" y2="69.8" gradientTransform="matrix(-1 0 0 -1 129.5248 256)">
				<stop  offset="2.123250e-002" style="stop-color:#FFC107"/>
				<stop  offset="0.3187" style="stop-color:#FFAF04"/>
				<stop  offset="0.7097" style="stop-color:#FF9E01"/>
				<stop  offset="1" style="stop-color:#FF9800"/>
			</linearGradient>
			<polygon id="XMLID_452_" class="st114" points="171.7,179.7 172.4,179.1 174.2,179.1 175.6,191.1 173.6,191.8 171.7,193.3 			"/>
			<path id="XMLID_451_" class="st112" d="M165.3,178.4c-0.2-0.1-0.3,0-0.3,0.2s0.1,0.4,0.3,0.5s0.3,0,0.3-0.2
				S165.5,178.5,165.3,178.4z"/>
			<path id="XMLID_450_" class="st112" d="M169.5,180.9c-0.2-0.1-0.3,0-0.3,0.2s0.1,0.4,0.3,0.5s0.3,0,0.3-0.2
				S169.7,181,169.5,180.9z"/>
			<g id="XMLID_448_">
				<path id="XMLID_449_" class="st43" d="M168.3,174.2c0.3,0,0.5,0.1,0.8,0.2c0.9,0.5,1.2,1.3,1.4,2.3c0.1,0.8,0,1.5-0.2,2.3
					l-0.6,2.4c0,0.1-0.1,0.1-0.1,0.1c-0.1,0-0.1-0.1-0.1-0.1l0.6-2.4c0.2-0.8,0.3-1.6,0.2-2.4c-0.1-0.8-0.4-1.5-1.2-2
					c-0.4-0.2-0.9-0.2-1.3,0l0,0c-0.8,0.5-1.4,1.2-1.6,2.1l-0.6,2.2c0,0.1-0.1,0.1-0.1,0.1c-0.1,0-0.1-0.1-0.1-0.1l0.6-2.3
					c0.3-0.9,0.9-1.7,1.7-2.2l0,0C167.8,174.2,168,174.2,168.3,174.2z"/>
			</g>
		</g>
		<g id="XMLID_368_">
			<path id="XMLID_446_" class="st115" d="M169,175.2C169,175.2,169.1,175.2,169,175.2c0.7,0,1.2-0.6,1.1-1.2l-0.4-5.2
				c-0.1-1.5-0.4-3-0.7-4.4l-1.2-4.9c-0.3-0.8-0.3-1.2-0.9-1.4c-0.6-0.2-1.2,0.1-1.4,0.7l1.9,7.5l0.6,7.9
				C167.9,174.7,168.4,175.2,169,175.2z"/>
		</g>
		<circle id="XMLID_367_" class="st115" cx="168.8" cy="174.5" r="1.3"/>
		<path id="XMLID_366_" class="st115" d="M169.5,174.2l0.4,0.6c0.1,0.1,0.3,0.2,0.4,0.1l0,0c0.1-0.1,0.2-0.3,0.1-0.4l-0.4-0.6
			c-0.1-0.1-0.3-0.2-0.4-0.1l0,0C169.5,173.9,169.4,174.1,169.5,174.2z"/>
		<path id="XMLID_360_" class="st43" d="M162.4,192.8l-1.7,2.9c-0.1,0.3-0.1,0.7,0.1,0.9l1.7,2.4l1,0.9c0.5,0.7,1.3,0.7,2.1,0.6
			l1.1-0.1c0.2,0,0.4-0.1,0.5-0.3l0.4-0.8c0.1-0.2-0.3,0.3-0.4,0.1l-2-1.9v-1.4l0.6-1.7L162.4,192.8z"/>
		<path id="XMLID_349_" class="st88" d="M161.9,193.2l-0.9,1.9c-0.1,0.3-0.1,0.7,0.1,0.9l1.9,2.7l0.6,0.6c0.5,0.7,1.5,0.7,2.3,0.6
			l1-0.1c0.5,0,0.8-0.6,0.5-1.1l-1.2-0.8l-0.8-1.2l0.3-1.7h-0.2L161.9,193.2z"/>
		<path id="XMLID_348_" class="st43" d="M162.7,192.8c-1,0.1-1.3,0.8-0.7,1.6s1.8,1.4,2.7,1.3c0.9-0.1,1.3-0.8,0.7-1.6
			C164.9,193.3,163.7,192.7,162.7,192.8z"/>
		<path id="XMLID_347_" class="st96" d="M163.1,193.4c-0.6,0.1-0.8,0.5-0.4,0.9c0.3,0.5,1,0.8,1.6,0.8s0.7-0.5,0.4-0.9
			C164.4,193.7,163.7,193.3,163.1,193.4z"/>
		<path id="XMLID_345_" class="st43" d="M159,197.9l-0.3,3.4c0,0.3,0.2,0.6,0.5,0.8l3.6,2.1c0.7,0.4,1.6,0.4,2.3,0l0.9-0.5
			c0.2-0.1,0.3-0.3,0.3-0.5v-0.9c0-0.2-0.1,0.4-0.3,0.2l-2.5-1.4l-0.6-1.2l-0.2-1.8L159,197.9z"/>
		<path id="XMLID_343_" class="st88" d="M158.7,198.4v2.1c0,0.3,0.2,0.6,0.5,0.8l3.6,2.1c0.7,0.4,1.6,0.4,2.3,0l0.9-0.5
			c0.4-0.3,0.4-0.9,0-1.2l-2.5-1.4l-0.5-1.7h-0.1L158.7,198.4z"/>
		<path id="XMLID_342_" class="st43" d="M159.3,197.7c-0.8,0.5-0.8,1.3,0,1.8s2.2,0.5,3,0s0.8-1.3,0-1.8S160.2,197.2,159.3,197.7z"
			/>
		<path id="XMLID_269_" class="st96" d="M160,198.1c-0.5,0.3-0.5,0.7,0,1s1.3,0.3,1.8,0s0.5-0.7,0-1
			C161.2,197.8,160.5,197.8,160,198.1z"/>
		<g id="XMLID_254_">
			<path id="XMLID_255_" class="st116" d="M160.8,199c0.6,0,1.1-0.5,1.1-1.1v-2.4c0-0.6-0.5-1.1-1.1-1.1s-1.1,0.5-1.1,1.1v2.4
				C159.7,198.5,160.2,199,160.8,199z"/>
		</g>
		<g id="XMLID_252_">
			<path id="XMLID_253_" class="st116" d="M164,194.8c0.4,0,0.8-0.2,1-0.6l1.1-2.1c0.3-0.6,0.1-1.2-0.5-1.5s-1.2-0.1-1.5,0.5
				l-1.1,2.1c-0.3,0.6-0.1,1.2,0.5,1.5C163.6,194.8,163.8,194.8,164,194.8z"/>
		</g>
		
			<linearGradient id="XMLID_73_" gradientUnits="userSpaceOnUse" x1="158.2583" y1="82.728" x2="167.1747" y2="82.728" gradientTransform="matrix(1 0 0 -1 0 256)">
			<stop  offset="0" style="stop-color:#4A65A3"/>
			<stop  offset="0.3998" style="stop-color:#445C95"/>
			<stop  offset="1" style="stop-color:#3C5185"/>
		</linearGradient>
		<path id="XMLID_251_" class="st117" d="M167.2,167.9v6.9l-6.2,3.6c-1.2,0.7-2.6-0.2-2.6-1.5l-0.1-3.9L167.2,167.9z"/>
		<g id="XMLID_249_">
			
				<linearGradient id="XMLID_74_" gradientUnits="userSpaceOnUse" x1="159.0325" y1="71.4" x2="163.3223" y2="71.4" gradientTransform="matrix(1 0 0 -1 0 256)">
				<stop  offset="0" style="stop-color:#4A65A3"/>
				<stop  offset="0.3998" style="stop-color:#445C95"/>
				<stop  offset="1" style="stop-color:#3C5185"/>
			</linearGradient>
			<path id="XMLID_250_" class="st118" d="M160.8,197.6c1,0,1.8-0.8,1.8-1.8l0.7-22.8c0-1-1.5-1.4-2.5-1.4s-1.8,0.8-1.8,1.8v22.4
				C159,196.8,159.8,197.6,160.8,197.6z"/>
		</g>
		<g id="XMLID_247_">
			
				<linearGradient id="XMLID_75_" gradientUnits="userSpaceOnUse" x1="162.8941" y1="73.3631" x2="171.1931" y2="73.3631" gradientTransform="matrix(1 0 0 -1 0 256)">
				<stop  offset="0" style="stop-color:#4A65A3"/>
				<stop  offset="0.3998" style="stop-color:#445C95"/>
				<stop  offset="1" style="stop-color:#3C5185"/>
			</linearGradient>
			<path id="XMLID_248_" class="st119" d="M164.7,194.2c0.6,0,1.2-0.3,1.6-0.9l4.5-7.5c0.5-0.9,0.6-1.9,0.3-2.8l-3.7-10.7
				c-0.3-0.9-1.4-1.5-2.3-1.1c-0.9,0.3-1.9,2.1-1.6,3l3.8,9c0.2,0.6,0.2,1.2-0.1,1.7l-3.9,6.6c-0.5,0.9-0.2,2,0.6,2.5
				C164.1,194.1,164.4,194.2,164.7,194.2z"/>
		</g>
		<g id="XMLID_144_">
			<g id="XMLID_245_">
				<path id="XMLID_246_" class="st43" d="M158.9,176.9c-0.3,0-0.5,0.1-0.8,0.2c-1.3,0.8-1.4,2.2-1.4,3.7l0.8,3.3
					c0,0.1,0.1,0.1,0.1,0.1l0.1-0.1l-0.8-3.3c0-1.4,0.1-2.8,1.3-3.5c0.4-0.2,0.9-0.2,1.3,0l0,0c0.8,0.5,1.4,1.2,1.6,2.1l0.6,2.1
					c0,0.1,0.1,0.1,0.1,0.1c0.1,0,0.1-0.1,0.1-0.1l-0.6-2.3c-0.3-0.9-0.9-1.7-1.7-2.2l0,0C159.4,177,159.2,176.9,158.9,176.9z"/>
			</g>
			<polygon id="XMLID_160_" class="st111" points="154.1,177.9 155.6,178.3 156.7,177.3 157.2,181.6 154.1,181.4 			"/>
			<polygon id="XMLID_159_" class="st112" points="156.7,177.3 158,189.3 165.8,193.9 164.5,181.9 			"/>
			
				<linearGradient id="XMLID_76_" gradientUnits="userSpaceOnUse" x1="-32.5843" y1="73.8868" x2="-23.8013" y2="63.5485" gradientTransform="matrix(-1 0 0 -1 129.5248 256)">
				<stop  offset="2.123250e-002" style="stop-color:#FFC107"/>
				<stop  offset="0.3187" style="stop-color:#FFAF04"/>
				<stop  offset="0.7097" style="stop-color:#FF9E01"/>
				<stop  offset="1" style="stop-color:#FF9800"/>
			</linearGradient>
			<polygon id="XMLID_158_" class="st120" points="154.1,177.9 154.1,191.5 161.9,196 161.9,182.4 			"/>
			
				<linearGradient id="XMLID_77_" gradientUnits="userSpaceOnUse" x1="-36.2833" y1="67.05" x2="-32.3926" y2="67.05" gradientTransform="matrix(-1 0 0 -1 129.5248 256)">
				<stop  offset="2.123250e-002" style="stop-color:#FFC107"/>
				<stop  offset="0.3187" style="stop-color:#FFAF04"/>
				<stop  offset="0.7097" style="stop-color:#FF9E01"/>
				<stop  offset="1" style="stop-color:#FF9800"/>
			</linearGradient>
			<polygon id="XMLID_157_" class="st121" points="161.9,182.4 162.6,181.9 164.5,181.9 165.8,193.9 163.9,194.5 161.9,196 			"/>
			<path id="XMLID_156_" class="st112" d="M155.6,181.1c-0.2-0.1-0.3,0-0.3,0.2s0.1,0.4,0.3,0.5s0.3,0,0.3-0.2
				S155.7,181.2,155.6,181.1z"/>
			<path id="XMLID_155_" class="st112" d="M159.8,183.6c-0.2-0.1-0.3,0-0.3,0.2s0.1,0.4,0.3,0.5s0.3,0,0.3-0.2
				S159.9,183.7,159.8,183.6z"/>
			<g id="XMLID_145_">
				<path id="XMLID_146_" class="st43" d="M158.5,176.9c0.3,0,0.5,0.1,0.8,0.2c0.9,0.5,1.2,1.3,1.4,2.3c0.1,0.8,0,1.5-0.2,2.3
					l-0.6,2.4c0,0.1-0.1,0.1-0.1,0.1l-0.1-0.1l0.6-2.4c0.2-0.8,0.3-1.6,0.2-2.4c-0.1-0.8-0.4-1.5-1.2-2c-0.4-0.2-0.9-0.2-1.3,0l0,0
					c-0.8,0.5-1.4,1.2-1.6,2.1l-0.6,2.2c0,0.1-0.1,0.1-0.1,0.1c-0.1,0-0.1-0.1-0.1-0.1l0.6-2.3c0.3-0.9,0.9-1.7,1.7-2.2l0,0
					C158,177,158.3,176.9,158.5,176.9z"/>
			</g>
		</g>
		<g id="XMLID_411_">
			
				<linearGradient id="XMLID_78_" gradientUnits="userSpaceOnUse" x1="-39.907" y1="102.4472" x2="-34.0163" y2="102.4472" gradientTransform="matrix(-1 0 0 -1 129.5248 256)">
				<stop  offset="2.123250e-002" style="stop-color:#FFC107"/>
				<stop  offset="0.3187" style="stop-color:#FFAF04"/>
				<stop  offset="0.7097" style="stop-color:#FF9E01"/>
				<stop  offset="1" style="stop-color:#FF9800"/>
			</linearGradient>
			<path id="XMLID_63_" class="st122" d="M164.7,150.6c0.2-0.3,0.4-0.6,0.5-0.9c0.3-0.5,0.7-1,1.1-1.4c1.2-0.9,3.1,0.1,3,1.6
				c0,0.6-0.6,1.3-0.8,1.9c-0.3,0.8-0.4,1.7-0.6,2.5c-0.1,0.3-0.2,0.6-0.4,0.8c-0.1,0.1-0.2,0.2-0.3,0.3s-0.2,0.3-0.3,0.5
				c-0.2,0.5-0.4,0.9-0.6,1.4c-0.2,0.6-0.5,1.2-1,1.6c-0.5,0.4-1.4,0.3-1.7-0.2c-0.1-0.2-0.1-0.4-0.2-0.6c-0.2-1.3-0.1-2.7,0.2-4.1
				C164.2,153,164.2,151.6,164.7,150.6z"/>
		</g>
		
			<linearGradient id="XMLID_79_" gradientUnits="userSpaceOnUse" x1="157.9262" y1="89.8141" x2="168.2973" y2="89.8141" gradientTransform="matrix(1 0 0 -1 0 256)">
			<stop  offset="0" style="stop-color:#A8D9FB"/>
			<stop  offset="9.338021e-002" style="stop-color:#B3DEFB"/>
			<stop  offset="0.4944" style="stop-color:#DCF0FD"/>
			<stop  offset="0.8103" style="stop-color:#F6FBFF"/>
			<stop  offset="1" style="stop-color:#FFFFFF"/>
		</linearGradient>
		<path id="XMLID_410_" class="st123" d="M164,156.8l-3.8,2.1c-0.9,0.5-1.1,1.5-1.4,2.4c-1.3,3.9-0.8,14.1-0.8,14.1
			c2.3,1.4,8.5-0.5,9.9-2.8c0,0-1.2-4.8-0.2-7.9l0,0c0.5-0.6,0.7-1.4,0.5-2.1l-0.5-1.9v-1.8C167.7,157.1,165.7,155.9,164,156.8z"/>
		<path id="XMLID_7_" class="st124" d="M158.8,161.4c0.3-1,0.5-1.9,1.4-2.4l3.8-2.1c0.5-0.3,0.9-0.3,1.4-0.3c-0.3,0-0.7,0.1-1,0.3
			l-3.7,2.1c-0.9,0.5-1.1,1.5-1.4,2.4c-1.3,3.9-0.8,14.1-0.8,14.1c0.5,0.3,1.2,0.4,1.9,0.5c-0.9,0-1.8-0.1-2.4-0.5
			C158,175.5,157.6,165.3,158.8,161.4z"/>
		<path id="XMLID_409_" class="st115" d="M162.3,155.8h1.2c2.6,0,4.8-2.1,4.8-4.8l0,0c0-1-0.8-1.9-1.9-1.9h-4.1V155.8z"/>
		<path id="XMLID_408_" class="st115" d="M163.5,158.9L163.5,158.9c0.7,0,1.2-0.5,1.2-1.2v-3.3h-2.4v3.3
			C162.3,158.3,162.9,158.9,163.5,158.9z"/>
		<path id="XMLID_4_" class="st125" d="M160.7,175.9c-0.9,0.1-1.7,0-2.3-0.2L158,169v-0.1l3.1-9.2c0.2-0.6,0.8-0.7,1.4-0.5
			c0.6,0.2,0.5,0.7,0.3,1.3l-2,7.2c-0.3,1-0.5,2.1-0.4,3.1L160.7,175.9z"/>
		<g id="XMLID_406_">
			<path id="XMLID_407_" class="st115" d="M159.3,177.9L159.3,177.9c0.7,0,1.2-0.6,1.1-1.2l-0.4-5.8c-0.1-1.1,0.1-2.1,0.4-3.1
				l2.4-7.2c0.2-0.6-0.1-1.2-0.6-1.5c-0.6-0.2-1.3,0.1-1.5,0.7l-2.7,7.9c-0.3,0.8-0.4,1.7-0.3,2.6l0.5,6.6
				C158.2,177.5,158.7,177.9,159.3,177.9z"/>
		</g>
		<path id="XMLID_3_" class="st124" d="M160.7,159.8c0.2-0.5,0.7-0.8,1.3-0.7c-0.4,0.1-0.7,0.3-0.9,0.7l-2.7,8
			c-0.3,0.8-0.4,1.6-0.3,2.4l0.5,6.7c0,0.5,0.4,0.9,0.9,1h-0.1h-0.1c-0.6,0-1.1-0.5-1.1-1l-0.5-6.7c-0.1-0.8,0-1.5,0.3-2.3
			L160.7,159.8z"/>
		<g id="XMLID_142_">
			
				<linearGradient id="XMLID_80_" gradientUnits="userSpaceOnUse" x1="158.5754" y1="93.18" x2="163.0954" y2="93.18" gradientTransform="matrix(1 0 0 -1 0 256)">
				<stop  offset="0" style="stop-color:#A8D9FB"/>
				<stop  offset="9.338021e-002" style="stop-color:#B3DEFB"/>
				<stop  offset="0.4944" style="stop-color:#DCF0FD"/>
				<stop  offset="0.8103" style="stop-color:#F6FBFF"/>
				<stop  offset="1" style="stop-color:#FFFFFF"/>
			</linearGradient>
			<path id="XMLID_143_" class="st126" d="M159.9,166.8c0.6,0,1.1-0.4,1.3-0.9l1.8-5.3c0.2-0.7-0.1-1.5-0.9-1.7
				c-0.7-0.2-1.5,0.1-1.7,0.9l-1.8,5.3c-0.2,0.7,0.1,1.5,0.9,1.7C159.6,166.8,159.8,166.8,159.9,166.8z"/>
		</g>
		<g id="XMLID_141_">
			
				<linearGradient id="XMLID_81_" gradientUnits="userSpaceOnUse" x1="-38.3655" y1="100.4855" x2="-27.8998" y2="100.4855" gradientTransform="matrix(-1 0 0 -1 129.5248 256)">
				<stop  offset="2.123250e-002" style="stop-color:#FFC107"/>
				<stop  offset="0.3187" style="stop-color:#FFAF04"/>
				<stop  offset="0.7097" style="stop-color:#FF9E01"/>
				<stop  offset="1" style="stop-color:#FF9800"/>
			</linearGradient>
			<path id="XMLID_64_" class="st127" d="M159.7,154.7c0.3-0.9,0.6-1.8,0.7-2.6c0.1-1.5-0.5-2.9,0.7-4.1c0.9-0.8,2.2-0.9,3.5-0.9
				c0.8,0,2.9-0.4,3.3,0.7c0.1,0.1,0.1,0.3,0,0.4c-0.1,0.8-0.3,1.6-0.8,2.1c-0.4,0.4-0.8,0.6-1.2,1c-0.4,0.5-0.3,1.1-0.6,1.6
				c-0.4,0.6-0.9,1.2-1.5,1.7c-1.3,1-1.1,1.8-1.1,3.4c0,1.4-0.1,3-1.2,3.9c-0.1,0.1-0.3,0.2-0.4,0.3c-0.2,0.2-0.2,0.4-0.4,0.7
				c-0.3,0.6-1,1.1-1.7,1.1c-0.3,0-0.7-0.1-0.9-0.3s-0.3-0.5-0.4-0.7c-0.5-1.8-0.3-3.8,0.5-5.4c0.2-0.4,0.5-0.8,0.7-1.2
				C159.2,155.9,159.4,155.3,159.7,154.7z"/>
		</g>
		<circle id="XMLID_140_" class="st115" cx="159" cy="177.3" r="1.3"/>
		<path id="XMLID_137_" class="st115" d="M159.8,176.9l0.4,0.6c0.1,0.1,0.3,0.2,0.4,0.1l0,0c0.1-0.1,0.2-0.3,0.1-0.4l-0.4-0.6
			c-0.1-0.1-0.3-0.2-0.4-0.1l0,0C159.7,176.6,159.7,176.8,159.8,176.9z"/>
	</g>
	<g id="XMLID_714_">
		
			<linearGradient id="XMLID_82_" gradientUnits="userSpaceOnUse" x1="-94.0267" y1="157.9648" x2="-64.3609" y2="157.9648" gradientTransform="matrix(1 0 0 -1 142.3267 256)">
			<stop  offset="3.802050e-003" style="stop-color:#A5CBEF"/>
			<stop  offset="0.2768" style="stop-color:#C1DBF4"/>
			<stop  offset="0.7571" style="stop-color:#EEF5FC"/>
			<stop  offset="1" style="stop-color:#FFFFFF"/>
		</linearGradient>
		<path id="XMLID_733_" class="st128" d="M49.7,96.7c-0.8,0.5-1.4,1.6-1.4,2.5v13.2c0,0.5,0.3,1,0.7,1.4l0.9,0.7
			c0.2,0.1-0.5-0.6-0.1-0.8l26.4-15.3c0.8-0.5,1.4-1.6,1.4-2.5l-0.2-13.5c0-0.3,0.6-0.4,0.6-0.4l-0.7-0.3c-0.6-0.2-1.3-0.2-1.9,0.1
			L49.7,96.7z"/>
		<path id="XMLID_732_" class="st129" d="M50.9,97.4c-0.8,0.5-1.4,1.6-1.4,2.5v13.6c0,0.9,0.6,1.3,1.4,0.8L77.3,99
			c0.8-0.5,1.4-1.6,1.4-2.5L78.5,83c0-0.9-0.7-1.3-1.4-0.8L50.9,97.4z"/>
		<g id="XMLID_767_">
			
				<linearGradient id="XMLID_83_" gradientUnits="userSpaceOnUse" x1="1112.7126" y1="161.8793" x2="1119.1115" y2="161.8793" gradientTransform="matrix(-1 0 0 -1 1188.6602 256)">
				<stop  offset="0.1499" style="stop-color:#FF9800"/>
				<stop  offset="1" style="stop-color:#FFC107"/>
			</linearGradient>
			<path id="XMLID_374_" class="st130" d="M73,90.3l0.8,1.7l2.1-1.2c0.1,0,0.2,0,0.1,0.1l-1.4,2.6l0.4,2.2c0,0.1-0.1,0.2-0.1,0.2
				l-1.8-0.2L71.2,98c-0.1,0.1-0.2,0-0.2-0.1l0.3-2.5l-1.7-1c-0.1,0-0.1-0.1,0-0.1l2.2-1.3l1-2.8C72.8,90.2,72.9,90.2,73,90.3z"/>
			
				<linearGradient id="XMLID_84_" gradientUnits="userSpaceOnUse" x1="1120.8311" y1="157.1793" x2="1127.23" y2="157.1793" gradientTransform="matrix(-1 0 0 -1 1188.6602 256)">
				<stop  offset="0.1499" style="stop-color:#FF9800"/>
				<stop  offset="1" style="stop-color:#FFC107"/>
			</linearGradient>
			<path id="XMLID_346_" class="st131" d="M64.8,95l0.8,1.7l2.1-1.2c0.1,0,0.2,0,0.1,0.1l-1.4,2.6l0.4,2.2c0,0.1-0.1,0.2-0.1,0.2
				l-1.8-0.2l-1.9,2.3c-0.1,0.1-0.2,0-0.2-0.1l0.3-2.5l-1.7-1c-0.1,0-0.1-0.1,0-0.1l2.2-1.3l1-2.8C64.7,94.9,64.8,94.9,64.8,95z"/>
			
				<linearGradient id="XMLID_85_" gradientUnits="userSpaceOnUse" x1="1128.9495" y1="152.4793" x2="1135.3484" y2="152.4793" gradientTransform="matrix(-1 0 0 -1 1188.6602 256)">
				<stop  offset="0.1499" style="stop-color:#FF9800"/>
				<stop  offset="1" style="stop-color:#FFC107"/>
			</linearGradient>
			<path id="XMLID_256_" class="st132" d="M56.7,99.7l0.8,1.7l2.1-1.2c0.1,0,0.2,0,0.1,0.1l-1.4,2.6l0.4,2.2c0,0.1-0.1,0.2-0.1,0.2
				l-1.8-0.2l-1.9,2.3c-0.1,0.1-0.2,0-0.2-0.1l0.3-2.5l-1.7-1c-0.1,0-0.1-0.1,0-0.1l2.2-1.3l1-2.8C56.6,99.7,56.7,99.7,56.7,99.7z"
				/>
		</g>
	</g>
	<g id="XMLID_1122_">
		
			<linearGradient id="XMLID_86_" gradientUnits="userSpaceOnUse" x1="689.2374" y1="193.0995" x2="722.1179" y2="193.0995" gradientTransform="matrix(-1 0 0 -1 865.474 256)">
			<stop  offset="0" style="stop-color:#3C5185"/>
			<stop  offset="1" style="stop-color:#4A65A3"/>
		</linearGradient>
		<path id="XMLID_713_" class="st133" d="M176.2,48.6c0-1.2-0.8-1.6-1.8-1L145.8,64c-0.5,0.3-0.8,0.9-0.8,1.4v3l-1.6,3
			c-0.2,0.4,0,0.8,0.3,1L145,73v4.9c0,0.5,0.4,0.7,0.8,0.5l29.6-17.1c0.5-0.3,0.8-0.9,0.8-1.4v-4.4v-5L176.2,48.6L176.2,48.6z"/>
		
			<linearGradient id="XMLID_87_" gradientUnits="userSpaceOnUse" x1="689.474" y1="193.1851" x2="722.1525" y2="193.1851" gradientTransform="matrix(-1 0 0 -1 865.474 256)">
			<stop  offset="0" style="stop-color:#4A65A3"/>
			<stop  offset="1" style="stop-color:#3C5185"/>
		</linearGradient>
		<path id="XMLID_710_" class="st134" d="M143.4,71.4l1.6-3v-3c0-0.5,0.4-1.2,0.8-1.4l28.6-16.5c0.7-0.4,1.3-0.3,1.6,0.2
			c-0.1,0-0.2,0.1-0.3,0.1l-29.1,16.8c-0.5,0.3-0.8,0.9-0.8,1.4v3l-1.6,3c-0.1,0.2-0.1,0.4,0,0.6l-0.4-0.2
			C143.4,72.2,143.2,71.8,143.4,71.4z M145,72.9v4.9c0,0.5,0.3,0.7,0.8,0.5v-5.1L145,72.9z"/>
		<g id="XMLID_708_">
			<polygon id="XMLID_709_" class="st135" points="147.9,66.8 174,51.7 174,50.6 147.9,65.7 			"/>
		</g>
		<g id="XMLID_706_">
			<polygon id="XMLID_707_" class="st135" points="147.9,70.5 174,55.5 174,54.4 147.9,69.4 			"/>
		</g>
		<g id="XMLID_704_">
			<polygon id="XMLID_705_" class="st135" points="147.9,74.5 166.4,63.9 166.4,62.8 147.9,73.4 			"/>
		</g>
	</g>
	<path id="XMLID_2_" class="st108" d="M100.8,95.9c-0.1,0-0.2,0-0.3,0.1L81,107.3v4l4.8,2.8v11.3l14.6-8.5c0.4-0.2,0.7-0.8,0.7-1.2
		V96.5C101.2,96.1,101,95.9,100.8,95.9z"/>
	<g>
		
			<linearGradient id="XMLID_88_" gradientUnits="userSpaceOnUse" x1="410.0711" y1="151.381" x2="439.9407" y2="133.436" gradientTransform="matrix(-1 0 0 -1 508.5042 256)">
			<stop  offset="0" style="stop-color:#4A65A3"/>
			<stop  offset="0.3559" style="stop-color:#48629E"/>
			<stop  offset="0.783" style="stop-color:#41588F"/>
			<stop  offset="1" style="stop-color:#3C5185"/>
		</linearGradient>
		<path id="XMLID_479_" class="st136" d="M98.5,94.5c0.4-0.2,0.7,0,0.7,0.4v19.2c0,0.4-0.3,1-0.7,1.2l-28.7,16.6
			c-0.4,0.2-0.7,0-0.7-0.4v-19.2c0-0.4,0.3-1,0.7-1.2L98.5,94.5z"/>
		
			<linearGradient id="XMLID_89_" gradientUnits="userSpaceOnUse" x1="410.2312" y1="151.6475" x2="440.1008" y2="133.7026" gradientTransform="matrix(-1 0 0 -1 508.5042 256)">
			<stop  offset="0" style="stop-color:#3C5185"/>
			<stop  offset="0.217" style="stop-color:#41588F"/>
			<stop  offset="0.6441" style="stop-color:#48629E"/>
			<stop  offset="1" style="stop-color:#4A65A3"/>
		</linearGradient>
		<path id="XMLID_1_" class="st137" d="M69.8,111.1l28.7-16.6c0.4-0.2,0.7,0,0.7,0.4v0.2l-28.5,16.4c-0.4,0.2-0.7,0.8-0.7,1.2v19
			l-0.2,0.1c-0.4,0.2-0.7,0-0.7-0.4v-19.2C69.1,111.8,69.4,111.3,69.8,111.1z"/>
		<polygon id="XMLID_478_" class="st96" points="97.8,101.2 78.4,112.6 78.4,113.8 97.8,102.4 		"/>
		<polygon id="XMLID_477_" class="st96" points="97.8,105 78.4,116.4 78.4,117.6 97.8,106.2 		"/>
		<polygon id="XMLID_405_" class="st96" points="88.6,114.3 78.6,120.1 78.6,121.3 88.6,115.6 		"/>
		<path id="XMLID_404_" class="st96" d="M73,119.2c-0.3-0.2-0.5-0.7-0.5-1.3c0-1.3,0.9-2.9,2.1-3.6c1.1-0.7,2.1-0.1,2.1,1.2
			c0,0.9-0.4,1.9-1.1,2.7c1.1,0.5,1.9,1.7,1.9,3v0.8l-6.2,3.6V124C71.3,122.2,71.9,120.5,73,119.2z"/>
	</g>
	<g id="XMLID_715_">
		
			<linearGradient id="XMLID_90_" gradientUnits="userSpaceOnUse" x1="63.973" y1="184.2286" x2="84.473" y2="184.2286" gradientTransform="matrix(-1 0 0 -1 167.6477 256)">
			<stop  offset="0" style="stop-color:#3C5185"/>
			<stop  offset="0.128" style="stop-color:#41588E"/>
			<stop  offset="0.6948" style="stop-color:#5573B1"/>
			<stop  offset="1" style="stop-color:#5D7DBE"/>
		</linearGradient>
		<path id="XMLID_487_" class="st138" d="M83.2,77.4c0-6.5,4.6-14.5,10.3-17.8c2-1.2,3.9-1.5,5.4-1.3l0,0H99
			c0.4,0.1,0.8,0.2,1.1,0.3l2.5,0.7l-0.8,0.5c1.2,1.2,1.9,3.2,1.9,5.7c0,6.5-4.6,14.5-10.3,17.8c-1.3,0.7-2.5,1.1-3.6,1.3l0.1,0.7
			l-2.2-0.7c-0.3-0.1-0.7-0.2-1-0.3h-0.1l0,0C84.5,83.4,83.2,81,83.2,77.4z"/>
		
			<linearGradient id="XMLID_91_" gradientUnits="userSpaceOnUse" x1="80.7857" y1="171.4527" x2="60.7341" y2="197.3312" gradientTransform="matrix(-1 0 0 -1 167.6477 256)">
			<stop  offset="0" style="stop-color:#3C5185"/>
			<stop  offset="0.128" style="stop-color:#41588E"/>
			<stop  offset="0.6948" style="stop-color:#5573B1"/>
			<stop  offset="1" style="stop-color:#5D7DBE"/>
		</linearGradient>
		<path id="XMLID_1119_" class="st139" d="M96.3,60.5c5.6-3.3,10.3-0.6,10.3,5.9S102,80.9,96.3,84.2C90.7,87.4,86,84.8,86,78.3
			C86,71.7,90.7,63.8,96.3,60.5z"/>
		<g id="XMLID_1117_">
			<path id="XMLID_1118_" class="st96" d="M95.6,77.5l6.5-7.9c0.5-0.6,0.4-1.5-0.2-2s-1.5-0.4-2,0.2l-4.7,5.8l-1.9-1.4
				c-0.6-0.5-1.5-0.4-2,0.2s-0.4,1.5,0.2,2L95.6,77.5z"/>
		</g>
	</g>
</g>
</svg>
