<?xml version="1.0" encoding="utf-8"?>
<!-- Generator: Adobe Illustrator 19.0.0, SVG Export Plug-In . SVG Version: 6.00 Build 0)  -->
<svg version="1.1" id="Layer_1" xmlns="http://www.w3.org/2000/svg" xmlns:xlink="http://www.w3.org/1999/xlink" x="0px" y="0px"
	 viewBox="0 0 256 256" style="enable-background:new 0 0 256 256;" xml:space="preserve">
<style type="text/css">
	.st0{fill:url(#XMLID_26_);}
	.st1{opacity:0.1;}
	.st2{opacity:0;fill:#3C5185;}
	.st3{opacity:2.439000e-002;fill:#3C5185;}
	.st4{opacity:4.878000e-002;fill:#3C5185;}
	.st5{opacity:7.317100e-002;fill:#3C5185;}
	.st6{opacity:9.756100e-002;fill:#3C5185;}
	.st7{opacity:0.122;fill:#3C5185;}
	.st8{opacity:0.1463;fill:#3C5185;}
	.st9{opacity:0.1707;fill:#3C5185;}
	.st10{opacity:0.1951;fill:#3C5185;}
	.st11{opacity:0.2195;fill:#3C5185;}
	.st12{opacity:0.2439;fill:#3C5185;}
	.st13{opacity:0.2683;fill:#3C5185;}
	.st14{opacity:0.2927;fill:#3C5185;}
	.st15{opacity:0.3171;fill:#3C5185;}
	.st16{opacity:0.3415;fill:#3C5185;}
	.st17{opacity:0.3659;fill:#3C5185;}
	.st18{opacity:0.3902;fill:#3C5185;}
	.st19{opacity:0.4146;fill:#3C5185;}
	.st20{opacity:0.439;fill:#3C5185;}
	.st21{opacity:0.4634;fill:#3C5185;}
	.st22{opacity:0.4878;fill:#3C5185;}
	.st23{opacity:0.5122;fill:#3C5185;}
	.st24{opacity:0.5366;fill:#3C5185;}
	.st25{opacity:0.561;fill:#3C5185;}
	.st26{opacity:0.5854;fill:#3C5185;}
	.st27{opacity:0.6098;fill:#3C5185;}
	.st28{opacity:0.6341;fill:#3C5185;}
	.st29{opacity:0.6585;fill:#3C5185;}
	.st30{opacity:0.6829;fill:#3C5185;}
	.st31{opacity:0.7073;fill:#3C5185;}
	.st32{opacity:0.7317;fill:#3C5185;}
	.st33{opacity:0.7561;fill:#3C5185;}
	.st34{opacity:0.7805;fill:#3C5185;}
	.st35{opacity:0.8049;fill:#3C5185;}
	.st36{opacity:0.8293;fill:#3C5185;}
	.st37{opacity:0.8537;fill:#3C5185;}
	.st38{opacity:0.878;fill:#3C5185;}
	.st39{opacity:0.9024;fill:#3C5185;}
	.st40{opacity:0.9268;fill:#3C5185;}
	.st41{opacity:0.9512;fill:#3C5185;}
	.st42{opacity:0.9756;fill:#3C5185;}
	.st43{fill:#3C5185;}
	.st44{fill:#D1E1F2;}
	.st45{fill:url(#XMLID_27_);}
	.st46{fill:#4A65A3;}
	.st47{fill:url(#XMLID_28_);}
	.st48{fill:url(#XMLID_29_);}
	.st49{fill:#FFFFFF;}
	.st50{fill:#DBEAF9;}
	.st51{fill:url(#XMLID_30_);}
	.st52{fill:url(#XMLID_31_);}
	.st53{opacity:0.3;fill:#4A65A3;}
	.st54{fill:#F2B1B5;}
	.st55{fill:url(#XMLID_33_);}
	.st56{fill:url(#XMLID_46_);}
	.st57{fill:#A5CBEF;}
	.st58{fill:url(#XMLID_52_);}
	.st59{fill:url(#XMLID_53_);}
	.st60{fill:#EDF3FA;}
	.st61{fill:#EF9EA3;}
	.st62{fill:url(#XMLID_54_);}
	.st63{fill:url(#XMLID_55_);}
	.st64{fill:url(#XMLID_56_);}
	.st65{fill:#FFC107;}
	.st66{fill:url(#XMLID_57_);}
	.st67{fill:url(#XMLID_58_);}
	.st68{fill:#FFDA6A;}
	.st69{fill:url(#XMLID_59_);}
	.st70{fill:url(#XMLID_60_);}
	.st71{fill:url(#XMLID_61_);}
	.st72{fill:#FFCD39;}
	.st73{fill:url(#XMLID_62_);}
	.st74{fill:url(#XMLID_63_);}
	.st75{fill:url(#XMLID_64_);}
	.st76{fill:url(#XMLID_65_);}
	.st77{fill:url(#XMLID_66_);}
	.st78{fill:url(#XMLID_67_);}
	.st79{fill:url(#XMLID_68_);}
	.st80{fill:url(#XMLID_69_);}
	.st81{fill:url(#XMLID_70_);}
	.st82{fill:url(#XMLID_71_);}
	.st83{opacity:0.6;fill:url(#XMLID_72_);}
	.st84{fill:url(#XMLID_73_);}
	.st85{fill:#5D7DBE;}
	.st86{fill:#F9F7F9;}
	.st87{fill:url(#XMLID_74_);}
	.st88{fill:url(#XMLID_75_);}
	.st89{fill:url(#XMLID_76_);}
	.st90{opacity:0.3;fill:#231F20;}
	.st91{fill:url(#XMLID_77_);}
</style>
<g>
	<linearGradient id="XMLID_26_" gradientUnits="userSpaceOnUse" x1="70.2493" y1="218.1242" x2="199.6051" y2="47.6097">
		<stop  offset="0.1" style="stop-color:#FFFFFF"/>
		<stop  offset="0.4303" style="stop-color:#F8FBFD"/>
		<stop  offset="0.8932" style="stop-color:#E6EEF8"/>
		<stop  offset="1" style="stop-color:#E1EBF7"/>
	</linearGradient>
	<path id="XMLID_42_" class="st0" d="M212.3,140.4c0,42.4-41.9,72.4-84.4,72.4S46,182.8,46,140.4s59.4-94.9,101.9-94.9
		S212.3,98,212.3,140.4z"/>
	<g id="XMLID_699_" class="st1">
		<polygon id="XMLID_701_" class="st2" points="126.9,115.3 101.4,129.2 180.4,175.8 205.9,160.9 		"/>
		<polygon id="XMLID_108_" class="st3" points="126.9,115.3 102,128.9 181,175.5 205.9,160.9 		"/>
		<polygon id="XMLID_107_" class="st4" points="126.9,115.3 102.6,128.6 181.5,175.2 205.9,160.9 		"/>
		<polygon id="XMLID_106_" class="st5" points="126.9,115.3 103.2,128.2 182.1,174.8 205.9,160.9 		"/>
		<polygon id="XMLID_105_" class="st6" points="126.9,115.3 103.8,127.9 182.7,174.5 205.9,160.9 		"/>
		<polygon id="XMLID_104_" class="st7" points="126.9,115.3 104.4,127.6 183.2,174.2 205.9,160.9 		"/>
		<polygon id="XMLID_103_" class="st8" points="126.9,115.3 104.9,127.3 183.8,173.8 205.9,160.9 		"/>
		<polygon id="XMLID_102_" class="st9" points="126.9,115.3 105.5,126.9 184.4,173.5 205.9,160.9 		"/>
		<polygon id="XMLID_782_" class="st10" points="126.9,115.3 106.1,126.6 184.9,173.2 205.9,160.9 		"/>
		<polygon id="XMLID_781_" class="st11" points="126.9,115.3 106.7,126.3 185.5,172.8 205.9,160.9 		"/>
		<polygon id="XMLID_780_" class="st12" points="126.9,115.3 107.3,126 186.1,172.5 205.9,160.9 		"/>
		<polygon id="XMLID_779_" class="st13" points="126.9,115.3 107.9,125.7 186.6,172.2 205.9,160.9 		"/>
		<polygon id="XMLID_778_" class="st14" points="126.9,115.3 108.4,125.3 187.2,171.8 205.9,160.9 		"/>
		<polygon id="XMLID_777_" class="st15" points="126.9,115.3 109,125 187.7,171.5 205.9,160.9 		"/>
		<polygon id="XMLID_776_" class="st16" points="126.9,115.3 109.6,124.7 188.3,171.2 205.9,160.9 		"/>
		<polygon id="XMLID_775_" class="st17" points="126.9,115.3 110.2,124.4 188.9,170.8 205.9,160.9 		"/>
		<polygon id="XMLID_774_" class="st18" points="126.9,115.3 110.8,124 189.4,170.5 205.9,160.9 		"/>
		<polygon id="XMLID_773_" class="st19" points="126.9,115.3 111.3,123.7 190,170.2 205.9,160.9 		"/>
		<polygon id="XMLID_772_" class="st20" points="126.9,115.3 111.9,123.4 190.6,169.8 205.9,160.9 		"/>
		<polygon id="XMLID_771_" class="st21" points="126.9,115.3 112.5,123.1 191.1,169.5 205.9,160.9 		"/>
		<polygon id="XMLID_770_" class="st22" points="126.9,115.3 113.1,122.7 191.7,169.2 205.9,160.9 		"/>
		<polygon id="XMLID_769_" class="st23" points="126.9,115.3 113.7,122.4 192.3,168.8 205.9,160.9 		"/>
		<polygon id="XMLID_768_" class="st24" points="126.9,115.3 114.3,122.1 192.8,168.5 205.9,160.9 		"/>
		<polygon id="XMLID_767_" class="st25" points="126.9,115.3 114.8,121.8 193.4,168.2 205.9,160.9 		"/>
		<polygon id="XMLID_766_" class="st26" points="126.9,115.3 115.4,121.4 194,167.8 205.9,160.9 		"/>
		<polygon id="XMLID_765_" class="st27" points="126.9,115.3 116,121.1 194.5,167.5 205.9,160.9 		"/>
		<polygon id="XMLID_764_" class="st28" points="126.9,115.3 116.6,120.8 195.1,167.2 205.9,160.9 		"/>
		<polygon id="XMLID_763_" class="st29" points="126.9,115.3 117.2,120.5 195.6,166.8 205.9,160.9 		"/>
		<polygon id="XMLID_762_" class="st30" points="126.9,115.3 117.8,120.2 196.2,166.5 205.9,160.9 		"/>
		<polygon id="XMLID_761_" class="st31" points="126.9,115.3 118.3,119.8 196.8,166.1 205.9,160.9 		"/>
		<polygon id="XMLID_760_" class="st32" points="126.9,115.3 118.9,119.5 197.3,165.8 205.9,160.9 		"/>
		<polygon id="XMLID_759_" class="st33" points="126.9,115.3 119.5,119.2 197.9,165.5 205.9,160.9 		"/>
		<polygon id="XMLID_758_" class="st34" points="126.9,115.3 120.1,118.9 198.5,165.1 205.9,160.9 		"/>
		<polygon id="XMLID_757_" class="st35" points="126.9,115.3 120.7,118.5 199,164.8 205.9,160.9 		"/>
		<polygon id="XMLID_756_" class="st36" points="126.9,115.3 121.3,118.2 199.6,164.5 205.9,160.9 		"/>
		<polygon id="XMLID_101_" class="st37" points="126.9,115.3 121.8,117.9 200.2,164.1 205.9,160.9 		"/>
		<polygon id="XMLID_100_" class="st38" points="126.9,115.3 122.4,117.6 200.7,163.8 205.9,160.9 		"/>
		<polygon id="XMLID_99_" class="st39" points="126.9,115.3 123,117.2 201.3,163.5 205.9,160.9 		"/>
		<polygon id="XMLID_37_" class="st40" points="126.9,115.3 123.6,116.9 201.9,163.1 205.9,160.9 		"/>
		<polygon id="XMLID_35_" class="st41" points="126.9,115.3 124.2,116.6 202.4,162.8 205.9,160.9 		"/>
		<polygon id="XMLID_22_" class="st42" points="126.9,115.3 124.8,116.3 203,162.5 205.9,160.9 		"/>
		<polygon id="XMLID_700_" class="st43" points="126.9,115.3 125.3,115.9 203.6,162.1 205.9,160.9 		"/>
	</g>
	<g id="XMLID_109_" class="st1">
		<polygon id="XMLID_197_" class="st2" points="86.9,125.2 58.1,140.9 147.3,193.6 176.1,176.8 		"/>
		<polygon id="XMLID_196_" class="st3" points="86.9,125.2 58.8,140.6 148,193.2 176.1,176.8 		"/>
		<polygon id="XMLID_195_" class="st4" points="86.9,125.2 59.4,140.2 148.6,192.9 176.1,176.8 		"/>
		<polygon id="XMLID_194_" class="st5" points="86.9,125.2 60.1,139.8 149.2,192.5 176.1,176.8 		"/>
		<polygon id="XMLID_193_" class="st6" points="86.9,125.2 60.8,139.5 149.9,192.1 176.1,176.8 		"/>
		<polygon id="XMLID_192_" class="st7" points="86.9,125.2 61.4,139.1 150.5,191.7 176.1,176.8 		"/>
		<polygon id="XMLID_191_" class="st8" points="86.9,125.2 62.1,138.8 151.1,191.3 176.1,176.8 		"/>
		<polygon id="XMLID_190_" class="st9" points="86.9,125.2 62.7,138.4 151.8,191 176.1,176.8 		"/>
		<polygon id="XMLID_189_" class="st10" points="86.9,125.2 63.4,138 152.4,190.6 176.1,176.8 		"/>
		<polygon id="XMLID_188_" class="st11" points="86.9,125.2 64.1,137.7 153.1,190.2 176.1,176.8 		"/>
		<polygon id="XMLID_187_" class="st12" points="86.9,125.2 64.7,137.3 153.7,189.8 176.1,176.8 		"/>
		<polygon id="XMLID_186_" class="st13" points="86.9,125.2 65.4,136.9 154.3,189.5 176.1,176.8 		"/>
		<polygon id="XMLID_185_" class="st14" points="86.9,125.2 66,136.6 155,189.1 176.1,176.8 		"/>
		<polygon id="XMLID_184_" class="st15" points="86.9,125.2 66.7,136.2 155.6,188.7 176.1,176.8 		"/>
		<polygon id="XMLID_183_" class="st16" points="86.9,125.2 67.3,135.8 156.2,188.3 176.1,176.8 		"/>
		<polygon id="XMLID_182_" class="st17" points="86.9,125.2 68,135.5 156.9,187.9 176.1,176.8 		"/>
		<polygon id="XMLID_181_" class="st18" points="86.9,125.2 68.7,135.1 157.5,187.6 176.1,176.8 		"/>
		<polygon id="XMLID_180_" class="st19" points="86.9,125.2 69.3,134.7 158.2,187.2 176.1,176.8 		"/>
		<polygon id="XMLID_179_" class="st20" points="86.9,125.2 70,134.4 158.8,186.8 176.1,176.8 		"/>
		<polygon id="XMLID_178_" class="st21" points="86.9,125.2 70.6,134 159.4,186.4 176.1,176.8 		"/>
		<polygon id="XMLID_177_" class="st22" points="86.9,125.2 71.3,133.6 160.1,186.1 176.1,176.8 		"/>
		<polygon id="XMLID_176_" class="st23" points="86.9,125.2 72,133.3 160.7,185.7 176.1,176.8 		"/>
		<polygon id="XMLID_175_" class="st24" points="86.9,125.2 72.6,132.9 161.3,185.3 176.1,176.8 		"/>
		<polygon id="XMLID_174_" class="st25" points="86.9,125.2 73.3,132.5 162,184.9 176.1,176.8 		"/>
		<polygon id="XMLID_173_" class="st26" points="86.9,125.2 73.9,132.2 162.6,184.5 176.1,176.8 		"/>
		<polygon id="XMLID_172_" class="st27" points="86.9,125.2 74.6,131.8 163.3,184.2 176.1,176.8 		"/>
		<polygon id="XMLID_171_" class="st28" points="86.9,125.2 75.2,131.4 163.9,183.8 176.1,176.8 		"/>
		<polygon id="XMLID_170_" class="st29" points="86.9,125.2 75.9,131.1 164.5,183.4 176.1,176.8 		"/>
		<polygon id="XMLID_169_" class="st30" points="86.9,125.2 76.6,130.7 165.2,183 176.1,176.8 		"/>
		<polygon id="XMLID_168_" class="st31" points="86.9,125.2 77.2,130.3 165.8,182.7 176.1,176.8 		"/>
		<polygon id="XMLID_167_" class="st32" points="86.9,125.2 77.9,130 166.4,182.3 176.1,176.8 		"/>
		<polygon id="XMLID_166_" class="st33" points="86.9,125.2 78.5,129.6 167.1,181.9 176.1,176.8 		"/>
		<polygon id="XMLID_165_" class="st34" points="86.9,125.2 79.2,129.3 167.7,181.5 176.1,176.8 		"/>
		<polygon id="XMLID_164_" class="st35" points="86.9,125.2 79.8,128.9 168.4,181.2 176.1,176.8 		"/>
		<polygon id="XMLID_162_" class="st36" points="86.9,125.2 80.5,128.5 169,180.8 176.1,176.8 		"/>
		<polygon id="XMLID_161_" class="st37" points="86.9,125.2 81.2,128.2 169.6,180.4 176.1,176.8 		"/>
		<polygon id="XMLID_160_" class="st38" points="86.9,125.2 81.8,127.8 170.3,180 176.1,176.8 		"/>
		<polygon id="XMLID_115_" class="st39" points="86.9,125.2 82.5,127.4 170.9,179.6 176.1,176.8 		"/>
		<polygon id="XMLID_114_" class="st40" points="86.9,125.2 83.1,127.1 171.5,179.3 176.1,176.8 		"/>
		<polygon id="XMLID_113_" class="st41" points="86.9,125.2 83.8,126.7 172.2,178.9 176.1,176.8 		"/>
		<polygon id="XMLID_112_" class="st42" points="86.9,125.2 84.5,126.3 172.8,178.5 176.1,176.8 		"/>
		<polygon id="XMLID_111_" class="st43" points="86.9,125.2 85.1,126 173.5,178.1 176.1,176.8 		"/>
	</g>
	<g id="XMLID_737_">
		<path id="XMLID_21_" class="st44" d="M100.4,45.1l94.3,54L208,156c0.9,3.9-3.2,7-6.7,5l-87.1-48.7L100.4,45.1z"/>
		<linearGradient id="XMLID_27_" gradientUnits="userSpaceOnUse" x1="100.3606" y1="103.3302" x2="208.1131" y2="103.3302">
			<stop  offset="0" style="stop-color:#F4F9FD"/>
			<stop  offset="0.2091" style="stop-color:#E6F1FA"/>
			<stop  offset="0.8511" style="stop-color:#B2D2F1"/>
			<stop  offset="0.9962" style="stop-color:#A5CBEF"/>
		</linearGradient>
		<path id="XMLID_20_" class="st45" d="M208,156L194.7,99l-94.3-54l0.4,1.4l91.9,53.1l13.2,56.4c0.6,2.6-1.1,4.9-3.3,5.5
			C205.6,162.2,208.8,159.4,208,156z"/>
		<polygon id="XMLID_703_" class="st46" points="194.7,99 199,118 197.1,119.1 192.6,99.6 		"/>
		<linearGradient id="XMLID_28_" gradientUnits="userSpaceOnUse" x1="179.5814" y1="105.5446" x2="197.1414" y2="105.5446">
			<stop  offset="0" style="stop-color:#3C5185"/>
			<stop  offset="0.4" style="stop-color:#4D68A3"/>
			<stop  offset="0.7573" style="stop-color:#5977B7"/>
			<stop  offset="1" style="stop-color:#5D7DBE"/>
		</linearGradient>
		<polygon id="XMLID_19_" class="st47" points="197.1,119.1 180.4,109.5 179.6,92 192.6,99.6 		"/>
		<linearGradient id="XMLID_29_" gradientUnits="userSpaceOnUse" x1="98.229" y1="72.3115" x2="194.6885" y2="72.3115">
			<stop  offset="0" style="stop-color:#3C5185"/>
			<stop  offset="0.4" style="stop-color:#4D68A3"/>
			<stop  offset="0.7573" style="stop-color:#5977B7"/>
			<stop  offset="1" style="stop-color:#5D7DBE"/>
		</linearGradient>
		<polygon id="XMLID_702_" class="st48" points="194.7,99 100.4,45.1 98.2,45.1 192.6,99.6 		"/>
		<path id="XMLID_18_" class="st49" d="M98.2,45.1l94.4,54.5L178.4,173c-0.8,4-5.3,6-8.8,4l-82.1-47.4c-3-1.7-4.6-5.2-3.9-8.6
			L98.2,45.1z"/>
		<g id="XMLID_736_">
			<path id="XMLID_733_" class="st50" d="M102.5,82l7.2,4.1c0.8,0.5,1.3,1.4,1.1,2.4l-1.4,6.8c-0.2,1.1-1.5,1.6-2.4,1.1l-7.2-4.1
				c-0.8-0.5-1.3-1.4-1.1-2.4l1.4-6.8C100.3,82,101.5,81.4,102.5,82z"/>
			<path id="XMLID_720_" class="st50" d="M118.5,91.3l7.2,4.1c0.8,0.5,1.3,1.4,1.1,2.4l-1.4,6.8c-0.2,1.1-1.5,1.6-2.4,1.1l-7.2-4.1
				c-0.8-0.5-1.3-1.4-1.1-2.4l1.4-6.8C116.3,91.3,117.5,90.7,118.5,91.3z"/>
			<path id="XMLID_732_" class="st50" d="M134.5,100.6l7.2,4.1c0.8,0.5,1.3,1.4,1.1,2.4l-1.4,6.8c-0.2,1.1-1.5,1.6-2.4,1.1l-7.2-4.1
				c-0.8-0.5-1.3-1.4-1.1-2.4l1.4-6.8C132.3,100.6,133.6,100.1,134.5,100.6z"/>
			<path id="XMLID_734_" class="st50" d="M150.5,110l7.2,4.1c0.8,0.5,1.3,1.4,1.1,2.4l-1.4,6.8c-0.2,1.1-1.5,1.6-2.4,1.1l-7.2-4.1
				c-0.8-0.5-1.3-1.4-1.1-2.4l1.4-6.8C148.3,110,149.6,109.4,150.5,110z"/>
			<path id="XMLID_735_" class="st50" d="M166.5,119.3l7.2,4.1c0.8,0.5,1.3,1.4,1.1,2.4l-1.4,6.8c-0.2,1.1-1.5,1.6-2.4,1.1l-7.2-4.1
				c-0.8-0.5-1.3-1.4-1.1-2.4l1.4-6.8C164.3,119.3,165.6,118.7,166.5,119.3z"/>
			<path id="XMLID_742_" class="st50" d="M99.3,97.6l7.2,4.1c0.8,0.5,1.3,1.4,1.1,2.4l-1.4,6.8c-0.2,1.1-1.5,1.6-2.4,1.1l-7.2-4.1
				c-0.8-0.5-1.3-1.4-1.1-2.4l1.4-6.8C97.1,97.6,98.3,97.1,99.3,97.6z"/>
			<path id="XMLID_741_" class="st50" d="M115.3,107l7.2,4.1c0.8,0.5,1.3,1.4,1.1,2.4l-1.4,6.8c-0.2,1.1-1.5,1.6-2.4,1.1l-7.2-4.1
				c-0.8-0.5-1.3-1.4-1.1-2.4l1.4-6.8C113.1,106.9,114.3,106.4,115.3,107z"/>
			<path id="XMLID_740_" class="st50" d="M131.3,116.3l7.2,4.1c0.8,0.5,1.3,1.4,1.1,2.4l-1.4,6.8c-0.2,1.1-1.5,1.6-2.4,1.1l-7.2-4.1
				c-0.8-0.5-1.3-1.4-1.1-2.4l1.4-6.8C129.1,116.3,130.3,115.7,131.3,116.3z"/>
			<path id="XMLID_739_" class="st50" d="M147.3,125.6l7.2,4.1c0.8,0.5,1.3,1.4,1.1,2.4l-1.4,6.8c-0.2,1.1-1.5,1.6-2.4,1.1l-7.2-4.1
				c-0.8-0.5-1.3-1.4-1.1-2.4l1.4-6.8C145.1,125.6,146.3,125.1,147.3,125.6z"/>
			<path id="XMLID_738_" class="st50" d="M163.3,135l7.2,4.1c0.8,0.5,1.3,1.4,1.1,2.4l-1.4,6.8c-0.2,1.1-1.5,1.6-2.4,1.1l-7.2-4.1
				c-0.8-0.5-1.3-1.4-1.1-2.4l1.4-6.8C161.1,135,162.3,134.4,163.3,135z"/>
			<path id="XMLID_748_" class="st50" d="M96,113.3l7.2,4.1c0.8,0.5,1.3,1.4,1.1,2.4l-1.4,6.8c-0.2,1.1-1.5,1.6-2.4,1.1l-7.2-4.1
				c-0.8-0.5-1.3-1.4-1.1-2.4l1.4-6.8C93.8,113.3,95,112.7,96,113.3z"/>
			<path id="XMLID_747_" class="st50" d="M112,122.6l7.2,4.1c0.8,0.5,1.3,1.4,1.1,2.4l-1.4,6.8c-0.2,1.1-1.5,1.6-2.4,1.1l-7.2-4.1
				c-0.8-0.5-1.3-1.4-1.1-2.4l1.4-6.8C109.8,122.6,111,122.1,112,122.6z"/>
			<path id="XMLID_746_" class="st50" d="M128,131.9l7.2,4.1c0.8,0.5,1.3,1.4,1.1,2.4l-1.4,6.8c-0.2,1.1-1.5,1.6-2.4,1.1l-7.2-4.1
				c-0.8-0.5-1.3-1.4-1.1-2.4l1.4-6.8C125.8,131.9,127,131.4,128,131.9z"/>
			<path id="XMLID_745_" class="st50" d="M144,141.3l7.2,4.1c0.8,0.5,1.3,1.4,1.1,2.4l-1.4,6.8c-0.2,1.1-1.5,1.6-2.4,1.1l-7.2-4.1
				c-0.8-0.5-1.3-1.4-1.1-2.4l1.4-6.8C141.8,141.3,143.1,140.7,144,141.3z"/>
			<path id="XMLID_744_" class="st50" d="M160,150.6l7.2,4.1c0.8,0.5,1.3,1.4,1.1,2.4l-1.4,6.8c-0.2,1.1-1.5,1.6-2.4,1.1l-7.2-4.1
				c-0.8-0.5-1.3-1.4-1.1-2.4l1.4-6.8C157.8,150.6,159.1,150.1,160,150.6z"/>
		</g>
		<linearGradient id="XMLID_30_" gradientUnits="userSpaceOnUse" x1="98.0144" y1="111.4211" x2="192.6193" y2="111.4211">
			<stop  offset="0" style="stop-color:#F4F9FD"/>
			<stop  offset="0.2091" style="stop-color:#E6F1FA"/>
			<stop  offset="0.8511" style="stop-color:#B2D2F1"/>
			<stop  offset="0.9962" style="stop-color:#A5CBEF"/>
		</linearGradient>
		<path id="XMLID_562_" class="st51" d="M98.2,45.1L98,46.2l92.5,53.4L176.3,173c-0.5,2.5-2.5,4.3-4.8,4.7c3.1,0.6,6.2-1.4,6.9-4.7
			l14.2-73.4L98.2,45.1z"/>
		<linearGradient id="XMLID_31_" gradientUnits="userSpaceOnUse" x1="94.0945" y1="82.4035" x2="192.6193" y2="82.4035">
			<stop  offset="0" style="stop-color:#445C93"/>
			<stop  offset="1" style="stop-color:#5D7DBE"/>
		</linearGradient>
		<polygon id="XMLID_17_" class="st52" points="94.1,66.4 186.6,119.7 192.6,99.6 98.2,45.1 		"/>
		<polygon id="XMLID_16_" class="st46" points="190.5,99.6 186.6,119.7 188.8,119.5 192.6,99.6 		"/>
		<g id="XMLID_15_">
			<path id="XMLID_731_" class="st43" d="M111.4,63.3c-1.4,0-2.6-0.5-3.6-1.4c-0.9-0.8-2-2.4-2-5.1c0-4.6,3.1-10.1,7.2-12.4
				c2.3-1.3,4.6-1.5,6.4-0.4c1.8,1,2.9,3.2,2.9,5.8c0,2.2-0.7,4.6-1.9,6.8l-3.7-2.1c0.9-1.6,1.4-3.3,1.4-4.8c0-1-0.3-1.8-0.7-2.1
				c-0.4-0.3-1.3-0.1-2.2,0.4c-2.7,1.5-5,5.6-5,8.7c0,0.9,0.2,1.6,0.6,2c0.1,0.1,0.4,0.3,0.8,0.2l0.4,4.2
				C111.7,63.2,111.6,63.3,111.4,63.3z"/>
		</g>
		<g id="XMLID_14_">
			<path id="XMLID_730_" class="st43" d="M111.4,63.3c-1.4,0-2.6-0.5-3.6-1.4c-0.9-0.8-2-2.4-2-5.1c0-4.6,3.1-10.1,7.2-12.4
				c2.3-1.3,4.6-1.5,6.4-0.4c1.8,1,2.9,3.2,2.9,5.8c0,1.2-1,2.1-2.1,2.1s-2.1-1-2.1-2.1c0-1-0.3-1.8-0.7-2.1
				c-0.4-0.3-1.3-0.1-2.2,0.4c-2.7,1.5-5,5.6-5,8.7c0,0.9,0.2,1.6,0.6,2c0.1,0.1,0.4,0.3,0.8,0.2c1.2-0.1,2.2,0.8,2.3,1.9
				c0.1,1.2-0.8,2.2-1.9,2.3C111.7,63.2,111.6,63.3,111.4,63.3z"/>
		</g>
		<g id="XMLID_13_">
			<path id="XMLID_729_" class="st43" d="M127.5,72.7c-1.4,0-2.6-0.5-3.6-1.4c-0.9-0.8-2-2.4-2-5.1c0-4.6,3.1-10.1,7.2-12.4
				c2.3-1.3,4.6-1.5,6.4-0.4c1.8,1,2.9,3.2,2.9,5.8c0,2.2-0.7,4.6-1.9,6.8l-3.7-2.1c0.9-1.6,1.4-3.3,1.4-4.8c0-1-0.3-1.8-0.7-2.1
				c-0.4-0.3-1.3-0.1-2.2,0.4c-2.7,1.5-5,5.6-5,8.7c0,0.9,0.2,1.6,0.6,2c0.1,0.1,0.4,0.3,0.8,0.2l0.4,4.2
				C127.9,72.7,127.7,72.7,127.5,72.7z"/>
		</g>
		<g id="XMLID_12_">
			<path id="XMLID_728_" class="st43" d="M127.5,72.7c-1.4,0-2.6-0.5-3.6-1.4c-0.9-0.8-2-2.4-2-5.1c0-4.6,3.1-10.1,7.2-12.4
				c2.3-1.3,4.6-1.5,6.4-0.4c1.8,1,2.9,3.2,2.9,5.8c0,1.2-1,2.1-2.1,2.1c-1.2,0-2.1-1-2.1-2.1c0-1-0.3-1.8-0.7-2.1
				c-0.4-0.3-1.3-0.1-2.2,0.4c-2.7,1.5-5,5.6-5,8.7c0,0.9,0.2,1.6,0.6,2c0.1,0.1,0.4,0.3,0.8,0.2c1.2-0.1,2.2,0.8,2.3,1.9
				c0.1,1.2-0.8,2.2-1.9,2.3C127.9,72.7,127.7,72.7,127.5,72.7z"/>
		</g>
		<g id="XMLID_11_">
			<path id="XMLID_727_" class="st43" d="M143.8,82.1c-1.4,0-2.6-0.5-3.6-1.4c-0.9-0.8-2-2.4-2-5.1c0-4.6,3.1-10.1,7.2-12.4
				c2.3-1.3,4.6-1.5,6.4-0.4c1.8,1,2.9,3.2,2.9,5.8c0,2.2-0.7,4.6-1.9,6.8l-3.7-2.1c0.9-1.6,1.4-3.3,1.4-4.8c0-1-0.3-1.8-0.7-2.1
				c-0.4-0.3-1.3-0.1-2.2,0.4c-2.7,1.5-5,5.6-5,8.7c0,0.9,0.2,1.6,0.6,2c0.1,0.1,0.3,0.3,0.8,0.2l0.4,4.2
				C144.1,82.1,144,82.1,143.8,82.1z"/>
		</g>
		<g id="XMLID_10_">
			<path id="XMLID_726_" class="st43" d="M143.8,82.1c-1.4,0-2.6-0.5-3.6-1.4c-0.9-0.8-2-2.4-2-5.1c0-4.6,3.1-10.1,7.2-12.4
				c2.3-1.3,4.6-1.5,6.4-0.4c1.8,1,2.9,3.2,2.9,5.8c0,1.2-1,2.1-2.1,2.1c-1.2,0-2.1-1-2.1-2.1c0-1-0.3-1.8-0.7-2.1
				c-0.4-0.3-1.3-0.1-2.2,0.4c-2.7,1.5-5,5.6-5,8.7c0,0.9,0.2,1.6,0.6,2c0.1,0.1,0.3,0.3,0.8,0.2c1.2-0.1,2.2,0.8,2.3,1.9
				c0.1,1.2-0.8,2.2-1.9,2.3C144.1,82.1,144,82.1,143.8,82.1z"/>
		</g>
		<g id="XMLID_9_">
			<path id="XMLID_725_" class="st43" d="M159.8,91.3c-1.4,0-2.6-0.5-3.6-1.4c-0.9-0.8-2-2.4-2-5.1c0-4.6,3.1-10.1,7.2-12.4
				c2.3-1.3,4.6-1.5,6.4-0.4c1.8,1,2.9,3.2,2.9,5.8c0,2.2-0.7,4.6-1.9,6.8l-3.7-2.1c0.9-1.6,1.4-3.3,1.4-4.8c0-1-0.3-1.8-0.7-2.1
				c-0.5-0.3-1.3-0.1-2.2,0.4c-2.7,1.5-5,5.6-5,8.7c0,0.9,0.2,1.6,0.6,2c0.1,0.1,0.3,0.3,0.8,0.2l0.4,4.2
				C160.2,91.3,160,91.3,159.8,91.3z"/>
		</g>
		<g id="XMLID_7_">
			<path id="XMLID_724_" class="st43" d="M159.8,91.3c-1.4,0-2.6-0.5-3.6-1.4c-0.9-0.8-2-2.4-2-5.1c0-4.6,3.1-10.1,7.2-12.4
				c2.3-1.3,4.6-1.5,6.4-0.4c1.8,1,2.9,3.2,2.9,5.8c0,1.2-1,2.1-2.1,2.1c-1.2,0-2.1-1-2.1-2.1c0-1-0.3-1.8-0.7-2.1
				c-0.5-0.3-1.3-0.1-2.2,0.4c-2.7,1.5-5,5.6-5,8.7c0,0.9,0.2,1.6,0.6,2c0.1,0.1,0.3,0.3,0.8,0.2c1.2-0.1,2.2,0.8,2.3,1.9
				c0.1,1.2-0.8,2.2-1.9,2.3C160.2,91.3,160,91.3,159.8,91.3z"/>
		</g>
		<g id="XMLID_719_">
			<path id="XMLID_722_" class="st43" d="M176,100.6c-1.4,0-2.6-0.5-3.6-1.4c-0.9-0.8-2-2.4-2-5.1c0-4.6,3.1-10.1,7.2-12.4
				c2.3-1.3,4.6-1.5,6.4-0.4c1.8,1,2.9,3.2,2.9,5.8c0,2.2-0.7,4.6-1.9,6.8l-3.7-2.1c0.9-1.6,1.4-3.3,1.4-4.8c0-1-0.3-1.8-0.7-2.1
				c-0.4-0.3-1.3-0.1-2.2,0.4c-2.7,1.5-5,5.6-5,8.7c0,0.9,0.2,1.6,0.6,2c0.1,0.1,0.3,0.3,0.8,0.2l0.4,4.2
				C176.4,100.6,176.2,100.6,176,100.6z"/>
		</g>
		<g id="XMLID_1_">
			<path id="XMLID_721_" class="st43" d="M176,100.6c-1.4,0-2.6-0.5-3.6-1.4c-0.9-0.8-2-2.4-2-5.1c0-4.6,3.1-10.1,7.2-12.4
				c2.3-1.3,4.6-1.5,6.4-0.4c1.8,1,2.9,3.2,2.9,5.8c0,1.2-1,2.1-2.1,2.1c-1.2,0-2.1-1-2.1-2.1c0-1-0.3-1.8-0.7-2.1
				c-0.4-0.3-1.3-0.1-2.2,0.4c-2.7,1.5-5,5.6-5,8.7c0,0.9,0.2,1.6,0.6,2c0.1,0.1,0.3,0.3,0.8,0.2c1.2-0.1,2.2,0.8,2.3,1.9
				c0.1,1.2-0.8,2.2-1.9,2.3C176.4,100.6,176.2,100.6,176,100.6z"/>
		</g>
	</g>
	<path id="XMLID_41_" class="st53" d="M115.6,121.2c0.2,0.1,0.4,0.1,0.4-0.1l2.8-15c0-0.2-0.1-0.4-0.3-0.5L89.8,88.3l-3,15.5
		l28.6,17.3v0L115.6,121.2z"/>
	<g>
		<path id="XMLID_827_" class="st43" d="M64.4,121.8l1.1,2.5l1.6,1.2c0.4,0,0.7,0.3,0.7,0.7l0,0c0,0.5-0.4,0.9-0.9,0.9h-2.6
			c-0.7,0-1.3-0.3-1.7-0.7l-3.4-3.3c-0.7-0.7-0.6-1.8,0.2-2.3l0.9-0.6l0.9-0.5L64.4,121.8z"/>
		<path id="XMLID_826_" class="st43" d="M49.3,116.9l0.5,2.9l1.2,1.6c0.4,0.1,0.6,0.5,0.5,0.9l0,0c-0.1,0.5-0.6,0.8-1.1,0.6
			l-2.5-0.7c-0.6-0.2-1.2-0.6-1.5-1.2L44,117c-0.5-0.8-0.1-1.9,0.8-2.2l1-0.3l1-0.3L49.3,116.9z"/>
		<g id="XMLID_824_">
			<path id="XMLID_825_" class="st54" d="M84.6,91.8c0.6,0,1,0,1.3-0.7c0.4-0.9-0.1-1.7-0.9-2.1l-15.1-7.6c-0.9-0.4-1.9-0.1-2.3,0.8
				c-0.4,0.9-0.1,1.9,0.8,2.3l15.4,7.1C84.1,91.7,84.3,91.8,84.6,91.8z"/>
		</g>
		<g id="XMLID_822_">
			<path id="XMLID_823_" class="st44" d="M82.1,90.9c0.7,0,1.4-0.4,1.7-1.1c0.5-1,0.1-2.1-0.9-2.6l-12.4-6c-1-0.5-2.1-0.1-2.6,0.9
				c-0.5,1-0.1,2.1,0.9,2.6l12.4,6C81.5,90.9,81.8,90.9,82.1,90.9z"/>
		</g>
		<g id="XMLID_820_">
			
				<linearGradient id="XMLID_33_" gradientUnits="userSpaceOnUse" x1="845.6761" y1="96.9548" x2="873.0185" y2="114.7452" gradientTransform="matrix(-1 0 0 1 916.8612 0)">
				<stop  offset="0" style="stop-color:#3C5185"/>
				<stop  offset="4.299206e-002" style="stop-color:#3D5287"/>
				<stop  offset="0.618" style="stop-color:#46609B"/>
				<stop  offset="1" style="stop-color:#4A65A3"/>
			</linearGradient>
			<path id="XMLID_821_" class="st55" d="M49.6,116.9c0.6,0,8.2-3,8.2-3c0.7-0.3,1.2-0.9,1.5-1.6l4.4-11.5c0.6-1.7-0.1-3.6-1.7-4.3
				c-1.7-0.7-3.7,0.1-4.3,1.8l-4.2,10.8l-5.8,4.6c-1.5,1-1,0.9,0,2.4C48.4,117,48.5,116.9,49.6,116.9z"/>
		</g>
		<g id="XMLID_818_">
			
				<linearGradient id="XMLID_46_" gradientUnits="userSpaceOnUse" x1="845.0762" y1="119.7287" x2="864.8057" y2="91.089" gradientTransform="matrix(-1 0 0 1 916.8612 0)">
				<stop  offset="0" style="stop-color:#3C5185"/>
				<stop  offset="1" style="stop-color:#4A65A3"/>
			</linearGradient>
			<path id="XMLID_819_" class="st56" d="M63.1,122c0.9,0,1.8-0.4,2.5-1.1l8.4-9.4c1-0.8,1.3-2.2,0.6-3.4l-6.1-10.3
				c-1-1.7-3.2-2.1-4.8-0.9c-1.3,1-5.6,0.8-4.7,2.2l8.8,10.2L61,119.7c-0.4,0.5-0.4,1.2,0.1,1.6C61.7,121.8,62.4,122,63.1,122z"/>
		</g>
		<g id="XMLID_816_">
			<path id="XMLID_817_" class="st54" d="M79.8,100.2c0.7,0,1-0.2,1.3-0.9c0.4-0.9,0-1.5-0.9-1.9l-9.1-4.4l-4.9-6.7
				c-0.6-0.8-1.6-0.9-2.4-0.4c-0.8,0.6-0.9,1.6-0.4,2.4l5.5,7.4l10.2,4.3C79.3,100.1,79.6,100.2,79.8,100.2z"/>
		</g>
		<path class="st44" d="M58.7,89.9c1-3.9,1.9-6.9,5-8.6l3.6-1.9c2.5-1.5,5.7,0.4,5.7,3.3l-2.5,9.2l0.3,0.4l7.8,3.5
			c0.9,0.4,1.3,1.5,0.9,2.4c-0.3,0.7-0.9,1.4-1.6,1.4c-0.2,0-0.5-0.1-0.7-0.2L69.3,96l-0.7,2.5c-1.8,4.2-7.6,1.9-11.5-0.4L58.7,89.9
			z"/>
		
			<ellipse id="XMLID_814_" transform="matrix(-0.7105 -0.7037 0.7037 -0.7105 70.4434 225.2969)" class="st54" cx="81.6" cy="98.2" rx="1.4" ry="2.5"/>
		<path id="XMLID_813_" class="st54" d="M68.1,82.6l-1.5-0.2c-0.3,0-0.5-0.3-0.4-0.6l0.4-3.3c0-0.2,0.2-0.3,0.3-0.3l1.9,0.3
			c0.2,0,0.3,0.2,0.3,0.3l-0.4,3.3C68.6,82.4,68.4,82.6,68.1,82.6z"/>
		<path id="XMLID_812_" class="st54" d="M67.4,80.9l-1.6-0.5c-0.7-0.2-1.1-1-0.8-1.7l2.1-6.1l6.7,2.3l-1.2,3.5
			C71.9,80.5,69.5,81.6,67.4,80.9z"/>
		<g id="XMLID_811_">
			<path id="XMLID_48_" class="st43" d="M75,74.6c0-0.6-0.5-1.1-1-1.2c-0.5-0.1-1.1-0.3-1.4-0.8c-0.5-0.8-1.5-1.2-2.4-1.5
				c-0.9-0.3-2-0.2-2.7,0.4c-0.3-0.5-1.1-0.6-1.7-0.3c-0.5,0.3-0.9,0.9-1.1,1.5c-0.5,1.1-0.9,2.3-0.8,3.6c0,0.3,0.1,0.6,0.1,0.9
				c0.2,0.8,0.1,1.6,0.3,2.3c0,0.1,0.1,0.2,0.1,0.3c0.1,0.1,0.3,0.1,0.4,0c0.1-0.1,0.2-0.2,0.3-0.3c0.4-0.6,0.1-1,0.2-1.7
				c0.1-0.4,0.3-0.7,0.6-0.8c0.5-0.2,0.9,0.1,1.4,0.3c1.1,0.3,3.6-0.5,3.1-2C72,75.9,74.2,76.4,75,74.6L75,74.6z"/>
		</g>
		<path id="XMLID_39_" class="st57" d="M63.8,87.5c0-0.9-0.3-1.5,0-1.6c0.6-0.3,1.7,4.6,3.1,7.6c0.7,1.5,2.4,2.4,2.4,2.4l-0.4,1.5
			l0,0c-1.1-0.7-1.9-1.6-2.5-2.7L63.8,87.5z"/>
		<g id="XMLID_110_">
			<path id="XMLID_239_" class="st46" d="M84.9,88.7c0-0.2,0.2-0.2,0.4-0.1l30.7,18.5c0.2,0.1,0.3,0.3,0.3,0.5l-2.8,15
				c0,0.2-0.2,0.2-0.4,0.1l-30.7-18.5c-0.2-0.1-0.3-0.3-0.3-0.5L84.9,88.7z"/>
			
				<linearGradient id="XMLID_52_" gradientUnits="userSpaceOnUse" x1="100.2477" y1="106.8936" x2="89.6708" y2="93.365" gradientTransform="matrix(1.158 0.158 -0.158 0.842 10.9529 10.9529)">
				<stop  offset="0.1499" style="stop-color:#FF9800"/>
				<stop  offset="1" style="stop-color:#FFC107"/>
			</linearGradient>
			<path id="XMLID_234_" class="st58" d="M107.6,108.8c-0.2-0.3-0.4-0.6-0.6-0.9c-0.2-0.3-0.5-0.6-0.7-0.9c-0.3-0.3-0.5-0.5-0.8-0.8
				c-0.3-0.2-0.6-0.4-0.9-0.6c-0.3-0.2-0.6-0.3-0.8-0.4l1.2-1.8c0.4,0.2,0.9,0.4,1.3,0.6c0.4,0.2,0.8,0.5,1.2,0.8
				c0.4,0.3,0.7,0.6,1,1c0.3,0.3,0.6,0.7,0.9,1.1c0.3,0.4,0.5,0.8,0.7,1.2c0.2,0.4,0.4,0.8,0.6,1.2l-0.2,0l-2.4,0.4
				C108,109.5,107.8,109.1,107.6,108.8z M105.9,116.3c0.3,0,0.6,0.1,0.9,0.1c0.5,0,0.9-0.1,1.3-0.2c0.4-0.1,0.8-0.3,1.1-0.5
				c0.3-0.2,0.6-0.4,0.9-0.7c0.2-0.3,0.5-0.6,0.6-0.9c0.2-0.3,0.3-0.7,0.4-1.1c0.1-0.4,0.1-0.8,0.1-1.2l-2.8-0.1
				c0,0.3,0,0.6-0.1,0.9c0,0.3-0.1,0.5-0.2,0.7c-0.1,0.2-0.2,0.4-0.3,0.5c-0.1,0.1-0.2,0.2-0.4,0.3c-0.1,0.1-0.3,0.1-0.4,0.2
				c-0.1,0-0.3,0.1-0.5,0.1c-0.2,0-0.4,0-0.6-0.1c-0.2,0-0.5-0.1-0.7-0.2c-0.3-0.1-0.6-0.3-0.8-0.4c-0.3-0.2-0.6-0.4-0.9-0.6
				c-0.3-0.2-0.6-0.5-0.8-0.8c-0.3-0.3-0.5-0.6-0.7-0.9c-0.2-0.3-0.4-0.6-0.6-0.9c-0.2-0.3-0.3-0.7-0.5-1c-0.1-0.3-0.2-0.7-0.3-1
				c-0.1-0.3-0.1-0.6-0.1-0.9c0-0.3,0-0.6,0.1-0.9c0-0.3,0.1-0.5,0.2-0.7c0.1-0.2,0.2-0.4,0.3-0.5c0.1-0.1,0.2-0.2,0.4-0.3
				c0.1-0.1,0.3-0.1,0.4-0.2c0.1,0,0.3-0.1,0.5-0.1l0.4-1.9l-0.2,0c-0.3,0-0.7-0.1-1,0c-0.3,0-0.5,0.1-0.7,0.1
				c-0.4,0.1-0.8,0.3-1.1,0.5c-0.3,0.2-0.6,0.4-0.9,0.7c-0.2,0.3-0.5,0.6-0.6,0.9c-0.2,0.3-0.3,0.7-0.3,1.1
				c-0.1,0.4-0.1,0.8-0.1,1.2c0,0.4,0.1,0.8,0.2,1.2c0.1,0.4,0.2,0.8,0.4,1.2c0.2,0.4,0.3,0.8,0.6,1.2c0.2,0.4,0.5,0.8,0.7,1.2
				c0.3,0.4,0.6,0.7,0.9,1.1c0.3,0.4,0.7,0.7,1,1c0.4,0.3,0.8,0.6,1.2,0.8c0.4,0.3,0.9,0.5,1.3,0.6c0.4,0.2,0.9,0.3,1.3,0.4
				C105.6,116.2,105.8,116.2,105.9,116.3z"/>
			
				<linearGradient id="XMLID_53_" gradientUnits="userSpaceOnUse" x1="1152.082" y1="96.4945" x2="1181.4529" y2="96.4945" gradientTransform="matrix(-1.158 -0.158 -0.158 0.842 1465.5708 208.7632)">
				<stop  offset="3.802050e-003" style="stop-color:#3C5185"/>
				<stop  offset="1" style="stop-color:#5D7DBE"/>
			</linearGradient>
			<path id="XMLID_233_" class="st59" d="M116,107.1L85.3,88.6c-0.2-0.1-0.4-0.1-0.4,0.1l0,0.1l30.5,18.4c0.2,0.1,0.3,0.3,0.3,0.5
				l-2.8,14.8l0.1,0.1c0.2,0.1,0.4,0.1,0.4-0.1l2.8-15C116.3,107.5,116.2,107.2,116,107.1z"/>
			<polygon id="XMLID_232_" class="st60" points="93.2,97.3 93.1,98.3 86.2,94.2 86.4,93.1 			"/>
			<polygon id="XMLID_231_" class="st60" points="97.2,103.3 97,104.3 85.6,97.5 85.8,96.4 			"/>
			<polygon id="XMLID_230_" class="st60" points="96.7,106 96.5,107 85.1,100.2 85.3,99.1 			"/>
			<polygon id="XMLID_743_" class="st60" points="96.2,108.5 96,109.6 84.6,102.8 84.8,101.7 			"/>
		</g>
		<path id="XMLID_38_" class="st54" d="M83.8,90.6L83.8,90.6c0.2-0.2,0.5-0.2,0.7,0l1.5,1.6c0.2,0.2,0.2,0.5,0,0.7l0,0
			c-0.2,0.2-0.5,0.2-0.7,0l-1.5-1.6C83.6,91.1,83.6,90.8,83.8,90.6z"/>
		<path id="XMLID_36_" class="st54" d="M82.7,96.4L82.7,96.4c0.2-0.2,0.5-0.2,0.7,0l1.5,1.6c0.2,0.2,0.2,0.5,0,0.7l0,0
			c-0.2,0.2-0.5,0.2-0.7,0l-1.5-1.6C82.5,96.9,82.5,96.6,82.7,96.4z"/>
		<path id="XMLID_32_" class="st54" d="M82,97.4L82,97.4c0.2-0.2,0.5-0.2,0.7,0l1.5,1.6c0.2,0.2,0.2,0.5,0,0.7l0,0
			c-0.2,0.2-0.5,0.2-0.7,0L82,98.1C81.8,97.9,81.8,97.6,82,97.4z"/>
		<path id="XMLID_25_" class="st54" d="M81.4,98.3L81.4,98.3c0.2-0.2,0.5-0.2,0.7,0l1.5,1.6c0.2,0.2,0.2,0.5,0,0.7l0,0
			c-0.2,0.2-0.5,0.2-0.7,0L81.4,99C81.2,98.8,81.2,98.5,81.4,98.3z"/>
		<path id="XMLID_23_" class="st54" d="M80.4,99L80.4,99c0.2-0.2,0.5-0.2,0.7,0l1.5,1.6c0.2,0.2,0.2,0.5,0,0.7l0,0
			c-0.2,0.2-0.5,0.2-0.7,0l-1.5-1.6C80.2,99.5,80.3,99.2,80.4,99z"/>
	</g>
	<g>
		<g id="XMLID_348_">
			<path id="XMLID_349_" class="st61" d="M173.9,153.2c-0.1,0-0.2,0-0.3,0c-2.7-0.1-5.2-1.4-6.8-3.6l-0.8-1.1
				c-0.5-0.6-0.3-1.5,0.3-2c0.6-0.5,1.5-0.3,2,0.3l0.8,1.1c1.1,1.5,2.8,2.4,4.6,2.4c1.8,0.1,3.6-0.7,4.8-2.1l3.2-3.8
				c0.5-0.6,1.4-0.7,2-0.2c0.6,0.5,0.7,1.4,0.2,2l-3.2,3.8C178.9,152.1,176.5,153.2,173.9,153.2z"/>
		</g>
		<circle id="XMLID_240_" class="st61" cx="167" cy="146.9" r="1.7"/>
		<path id="XMLID_8_" class="st53" d="M167.4,137l-30.7-18.5c-0.2-0.1-0.4-0.1-0.4,0.1l-2.1,10.7c0,0.2,0.1,0.4,0.3,0.5l30.5,18.4v0
			l0.1,0.1c0.2,0.1,0.4,0.1,0.4-0.1l2.1-10.7C167.8,137.3,167.6,137.1,167.4,137z"/>
		<g id="XMLID_340_">
			<path id="XMLID_366_" class="st46" d="M137.4,121c0-0.2,0.2-0.2,0.4-0.1l30.7,18.5c0.2,0.1,0.3,0.3,0.3,0.5l-2.1,10.7
				c0,0.2-0.2,0.2-0.4,0.1l-30.7-18.5c-0.2-0.1-0.3-0.3-0.3-0.5L137.4,121z"/>
			
				<linearGradient id="XMLID_54_" gradientUnits="userSpaceOnUse" x1="1102.8142" y1="123.133" x2="1132.1842" y2="123.133" gradientTransform="matrix(-1.158 -0.158 -0.158 0.842 1465.5708 208.7632)">
				<stop  offset="3.802050e-003" style="stop-color:#3C5185"/>
				<stop  offset="1" style="stop-color:#5D7DBE"/>
			</linearGradient>
			<path id="XMLID_360_" class="st62" d="M168.4,139.5l-30.7-18.5c-0.2-0.1-0.4-0.1-0.4,0.1l0,0.1l30.5,18.4
				c0.2,0.1,0.3,0.3,0.3,0.5l-2.1,10.6l0.1,0.1c0.2,0.1,0.4,0.1,0.4-0.1l2.1-10.7C168.8,139.8,168.6,139.6,168.4,139.5z"/>
			<polygon id="XMLID_343_" class="st60" points="165.9,141.4 165.7,142.4 138.7,126.3 138.9,125.3 			"/>
			<polygon id="XMLID_342_" class="st60" points="165.3,144.1 165.2,145.2 138.2,129.1 138.4,128 			"/>
			<polygon id="XMLID_341_" class="st60" points="164.9,146.7 164.7,147.7 137.7,131.6 137.9,130.5 			"/>
		</g>
		<path id="XMLID_274_" class="st46" d="M171.3,198.7l3.8,1l2.2,1.4c0.3,0.2,0.4,0.4,0.4,0.7v4.2l-1.2,0.7c-0.4,0.3-1,0.3-1.4,0
			l-6.6-3.8c-0.5-0.3-0.8-0.8-0.8-1.4l0,0C167.7,199.6,169.5,198.2,171.3,198.7z"/>
		<path id="XMLID_273_" class="st43" d="M175.1,205.5l-6.6-3.8c-0.4-0.2-0.6-0.6-0.7-0.9c0,0.2-0.1,0.4-0.1,0.6
			c0,0.6,0.3,1.1,0.8,1.4l6.6,3.8c0.4,0.3,1,0.3,1.4,0l1.2-0.7v-1.1l-1.2,0.7C176.1,205.8,175.5,205.8,175.1,205.5z"/>
		<path id="XMLID_254_" class="st43" d="M177.3,201.1l-2.2-1.4l-1.4-0.4v2.6c0,0.9,0.9,1.6,1.9,1.6c1.1,0,1.9-0.7,1.9-1.6v-0.6
			C177.4,201.2,177.3,201.1,177.3,201.1z"/>
		<path id="XMLID_253_" class="st46" d="M176.9,193.4l3.8,1l2.2,1.4c0.3,0.2,0.4,0.4,0.4,0.7v4.2l-1.2,0.7c-0.4,0.3-1,0.3-1.4,0
			l-6.6-3.8c-0.5-0.3-0.8-0.8-0.8-1.4l0,0C173.3,194.3,175.1,192.9,176.9,193.4z"/>
		<path id="XMLID_252_" class="st43" d="M180.7,200.3l-6.6-3.8c-0.4-0.2-0.6-0.6-0.7-0.9c0,0.2-0.1,0.4-0.1,0.6
			c0,0.6,0.3,1.1,0.8,1.4l6.6,3.8c0.4,0.3,1,0.3,1.4,0l1.2-0.7v-1.1l-1.2,0.7C181.6,200.5,181.1,200.5,180.7,200.3z"/>
		<path id="XMLID_251_" class="st43" d="M182.8,195.8l-2.2-1.4l-1.4-0.4v2.6c0,0.9,0.9,1.6,1.9,1.6s1.9-0.7,1.9-1.6V196
			C183,195.9,182.9,195.8,182.8,195.8z"/>
		<g id="XMLID_249_">
			<path id="XMLID_250_" class="st54" d="M175.6,202.9c-0.8,0-1.4-0.6-1.4-1.4v-17.4c0-0.8,0.6-1.4,1.4-1.4s3.1-3.3,3.1-2.5
				l-1.7,21.3C177,202.3,176.4,202.9,175.6,202.9z"/>
		</g>
		<g id="XMLID_247_">
			<path id="XMLID_248_" class="st54" d="M181.1,197.6c-0.8,0-1.4-0.6-1.4-1.4l-0.4-17.2c0-0.8,1,0.1,1.8,0.1c0.8,0,2.1-2.1,2.1-1.3
				l-0.7,18.4C182.5,197,181.9,197.6,181.1,197.6z"/>
		</g>
		<linearGradient id="XMLID_55_" gradientUnits="userSpaceOnUse" x1="172.4565" y1="153.8843" x2="183.6962" y2="153.8843">
			<stop  offset="0" style="stop-color:#A8D9FB"/>
			<stop  offset="1" style="stop-color:#FFFFFF"/>
		</linearGradient>
		<path id="XMLID_347_" class="st63" d="M175.5,143.8l3.1-2c2.3-1.5,5.2,0.3,5.1,3l-0.9,14.5l-0.1,4.2l-7.7,2.9l-0.4-2.4l-0.5-10.2
			l-1.6-2.1l1.3-4.7C173.7,145.8,174.4,144.5,175.5,143.8z"/>
		<linearGradient id="XMLID_56_" gradientUnits="userSpaceOnUse" x1="172.988" y1="173.7259" x2="185.2937" y2="173.7259">
			<stop  offset="0" style="stop-color:#A8D9FB"/>
			<stop  offset="1" style="stop-color:#FFFFFF"/>
		</linearGradient>
		<path id="XMLID_346_" class="st64" d="M174.5,164.9c-0.7,0.3-1.2,4.8-1.2,5.4c-0.3,2.9,0,7-0.1,9.9c-0.1,1.5-0.2,5.6-0.2,5.6
			c7.1,1.6,11.4-3.2,12.3-5.5c0.1-2,0.1-11.6-0.9-14.2c-0.3-0.8-0.6-1.7-0.8-2.5l-0.6-2.3C183,161.3,174.5,164.9,174.5,164.9z"/>
		<path id="XMLID_345_" class="st46" d="M174.5,162.8v2.1c2.2,0.2,7.5-1.7,8.4-3.6l-0.2-2C181.4,161.9,175.6,163.3,174.5,162.8z"/>
		<g id="XMLID_333_">
			<path id="XMLID_334_" class="st54" d="M169.3,153.2c-2.6,0-5-1.1-6.7-3.2l-3.2-3.8c-0.5-0.6-0.4-1.5,0.2-2c0.6-0.5,1.5-0.4,2,0.2
				l3.2,3.8c1.2,1.4,2.9,2.2,4.8,2.1c1.8-0.1,3.5-0.9,4.6-2.4l0.8-1.1c0.5-0.6,1.3-0.8,2-0.3c0.6,0.5,0.8,1.3,0.3,2l-0.8,1.1
				c-1.6,2.2-4.1,3.5-6.8,3.6C169.5,153.2,169.4,153.2,169.3,153.2z"/>
		</g>
		<g id="XMLID_245_">
			<path id="XMLID_246_" class="st65" d="M178.9,146.1c-0.8,0-1.4-0.6-1.4-1.4v-4.7c0-0.8,0.6-1.4,1.4-1.4s1.4,0.6,1.4,1.4v4.7
				C180.3,145.4,179.7,146.1,178.9,146.1z"/>
		</g>
		<g id="XMLID_243_">
			<path id="XMLID_244_" class="st54" d="M179,143.2h0.4v-8.8h-6.5v2.7C172.9,140.5,175.6,143.2,179,143.2z"/>
		</g>
		<g id="XMLID_242_">
			<path id="XMLID_49_" class="st43" d="M187,149.8c-0.3-1.4-1.1-2.6-1.6-4c-0.3-0.8-0.2-1.6-0.4-2.4c-0.3-1-1-1.9-1.4-2.8
				c-0.6-1.4-1-2.9-1.5-4.4c-0.5-1.5-1.5-2.6-3.1-3c-1.6-0.4-3.9-0.7-5.5-0.2c-2,0.6-1.3,2.5-0.6,4.1c0.9,1.9,2.6,3.4,3.2,5.4
				c0.6,2.1-0.1,4.3-0.4,6.4c-0.3,2.1-0.2,4.7,1.5,6c0.9,0.7,2.2,0.9,3.4,0.9c1.5,0,3.1-0.5,4.3-1.4c1.2-0.9,2.1-2.4,2-3.9
				C187.1,150.2,187,150,187,149.8z"/>
		</g>
		<circle id="XMLID_241_" class="st54" cx="160.2" cy="144.6" r="1.7"/>
	</g>
	<g>
		
			<radialGradient id="XMLID_57_" cx="138.474" cy="7875.8818" r="10.9004" gradientTransform="matrix(1 0 0 0.5172 0 -3892.8164)" gradientUnits="userSpaceOnUse">
			<stop  offset="9.125480e-002" style="stop-color:#48486A"/>
			<stop  offset="0.1179" style="stop-color:#505070"/>
			<stop  offset="0.3508" style="stop-color:#8D8DA3"/>
			<stop  offset="0.5638" style="stop-color:#BEBECA"/>
			<stop  offset="0.7497" style="stop-color:#E2E2E7"/>
			<stop  offset="0.9014" style="stop-color:#F7F7F9"/>
			<stop  offset="1" style="stop-color:#FFFFFF"/>
		</radialGradient>
		<path id="XMLID_961_" class="st66" d="M130.8,176.2c4.2-2.4,11.1-2.4,15.3,0c4.2,2.4,4.2,6.4,0,8.8c-4.2,2.4-11.1,2.4-15.3,0
			C126.6,182.6,126.6,178.6,130.8,176.2z"/>
		<linearGradient id="XMLID_58_" gradientUnits="userSpaceOnUse" x1="130.113" y1="179.6684" x2="146.835" y2="179.6684">
			<stop  offset="3.802050e-003" style="stop-color:#A5CBEF"/>
			<stop  offset="0.4419" style="stop-color:#CEE3F6"/>
			<stop  offset="1" style="stop-color:#FFFFFF"/>
		</linearGradient>
		<path id="XMLID_960_" class="st67" d="M146.8,177.4h-0.9c-0.4-0.4-0.9-0.8-1.5-1.2c-3.3-1.9-8.6-1.9-11.8,0
			c-0.6,0.4-1.1,0.8-1.5,1.2h-0.9v2.2h0c0,1.2,0.8,2.5,2.4,3.4c3.3,1.9,8.6,1.9,11.8,0c1.6-0.9,2.4-2.2,2.4-3.4h0V177.4z"/>
		<path id="XMLID_959_" class="st49" d="M132.6,174c3.3-1.9,8.6-1.9,11.8,0c3.3,1.9,3.3,5,0,6.8c-3.3,1.9-8.6,1.9-11.8,0
			C129.3,179,129.3,175.9,132.6,174z"/>
		<path id="XMLID_958_" class="st68" d="M146.8,177.5C146.8,177.5,146.8,177.4,146.8,177.5v-1.9h-0.6c-0.4-0.6-1-1.1-1.8-1.5
			c-2.3-1.3-0.8,3.7,0,6.8v2.2c1.6-0.9,2.4-2.1,2.4-3.3L146.8,177.5z"/>
		<linearGradient id="XMLID_59_" gradientUnits="userSpaceOnUse" x1="140.4261" y1="167.7616" x2="136.4148" y2="172.9189">
			<stop  offset="0" style="stop-color:#5D7DBE"/>
			<stop  offset="1" style="stop-color:#3C5185"/>
		</linearGradient>
		<path id="XMLID_957_" class="st69" d="M144.4,170.3c-3.3-1.9-8.6-1.9-11.8,0l5.9,4L144.4,170.3z"/>
		<linearGradient id="XMLID_60_" gradientUnits="userSpaceOnUse" x1="134.5986" y1="175.2318" x2="136.5469" y2="172.9682">
			<stop  offset="0" style="stop-color:#3C5185"/>
			<stop  offset="1" style="stop-color:#5D7DBE"/>
		</linearGradient>
		<polygon id="XMLID_956_" class="st70" points="132.6,170.3 132.6,174 138.5,178.1 138.5,174.3 		"/>
		<polygon id="XMLID_953_" class="st43" points="138.5,174.3 144.4,170.3 144.4,174 138.5,178.1 		"/>
		<linearGradient id="XMLID_61_" gradientUnits="userSpaceOnUse" x1="138.474" y1="175.5641" x2="146.835" y2="175.5641">
			<stop  offset="0.1499" style="stop-color:#FF9800"/>
			<stop  offset="1" style="stop-color:#FFC107"/>
		</linearGradient>
		<path id="XMLID_952_" class="st71" d="M144.4,172.1c3.3,1.9,3.3,5,0,6.8l-5.9-2.8L144.4,172.1z"/>
		<polygon id="XMLID_950_" class="st72" points="138.5,176.2 138.5,178.1 144.4,180.9 144.4,179 		"/>
	</g>
	<g>
		
			<radialGradient id="XMLID_62_" cx="64.1772" cy="7800.9048" r="9.2434" gradientTransform="matrix(1 0 0 0.5172 0 -3892.8164)" gradientUnits="userSpaceOnUse">
			<stop  offset="9.125480e-002" style="stop-color:#3C5185"/>
			<stop  offset="0.2537" style="stop-color:#6F7FA5"/>
			<stop  offset="0.4365" style="stop-color:#A2ACC5"/>
			<stop  offset="0.6088" style="stop-color:#CAD0DE"/>
			<stop  offset="0.7654" style="stop-color:#E7EAF0"/>
			<stop  offset="0.9009" style="stop-color:#F9F9FB"/>
			<stop  offset="1" style="stop-color:#FFFFFF"/>
		</radialGradient>
		<path id="XMLID_894_" class="st73" d="M57.7,138.1c3.6-2.1,9.4-2.1,12.9,0c3.6,2.1,3.6,5.4,0,7.5c-3.6,2.1-9.4,2.1-12.9,0
			C54.1,143.5,54.1,140.1,57.7,138.1z"/>
		<linearGradient id="XMLID_63_" gradientUnits="userSpaceOnUse" x1="57.5133" y1="141.5362" x2="70.6004" y2="141.5362">
			<stop  offset="0" style="stop-color:#3C5185"/>
			<stop  offset="0.128" style="stop-color:#41588E"/>
			<stop  offset="0.6948" style="stop-color:#5573B1"/>
			<stop  offset="1" style="stop-color:#5D7DBE"/>
		</linearGradient>
		<path id="XMLID_893_" class="st74" d="M70.6,139.8h-0.7c-0.3-0.3-0.7-0.6-1.2-0.9c-2.5-1.5-6.7-1.5-9.3,0
			c-0.5,0.3-0.9,0.6-1.2,0.9h-0.7v1.7h0c0,1,0.6,1.9,1.9,2.7c2.5,1.5,6.7,1.5,9.3,0c1.3-0.7,1.9-1.7,1.9-2.7h0V139.8z"/>
		<path id="XMLID_892_" class="st46" d="M59.4,137.1c2.5-1.5,6.7-1.5,9.3,0c2.5,1.5,2.5,3.9,0,5.3c-2.5,1.5-6.7,1.5-9.3,0
			C56.9,141,56.9,138.6,59.4,137.1z"/>
		<path id="XMLID_34_" class="st49" d="M66.6,140.9c0.1-0.1,0-0.3-0.1-0.3l-0.1,0c0.2,0.1,0.5,0,0.6-0.1c0.1-0.1,0-0.3-0.1-0.3
			l-0.8-0.3l-0.7-0.3c0,0,0.1-0.1,0.3-0.2c0,0,0.1,0,0.1-0.1c0,0,0,0,0,0c0.2-0.1,0.3-0.2,0.4-0.3c0,0,0.1-0.1,0.1-0.1c0,0,0,0,0,0
			c0,0,0.1-0.1,0.1-0.1c0.1-0.1,0.1-0.1,0-0.2c0,0-0.1-0.1-0.1-0.1c-0.1-0.1-0.3,0-0.5,0.1c-0.2,0.2-0.5,0.4-0.7,0.4
			c-0.2,0.1-0.9,0.2-0.9,0.2l0,0l0,0l-0.3-0.1l0.2-0.2c0,0,0,0,0-0.1l-1-0.4l-1.4,1.3l-0.7,0.7l1,0.4l0,0c0,0,0.1,0,0.1,0l0,0
			l0.2-0.2l0.2,0.1c0,0,0,0,0,0l0,0c0,0,0,0,0,0c0,0,0,0,0,0.1l0.1,0.4c0,0.1,0.1,0.1,0.1,0.2l1.4,0.6c0.2,0.1,0.4,0.1,0.5,0
			c0.2-0.1,0.2-0.3,0-0.4l0.3,0.1c0.2,0.1,0.4,0.1,0.5,0c0.2-0.1,0.2-0.3,0-0.4L66,141C66.2,141.1,66.5,141,66.6,140.9z"/>
	</g>
	<g>
		
			<radialGradient id="XMLID_64_" cx="94.3225" cy="7862.7471" r="10.4252" gradientTransform="matrix(1 0 0 0.5172 0 -3892.8164)" gradientUnits="userSpaceOnUse">
			<stop  offset="9.125480e-002" style="stop-color:#3C5185"/>
			<stop  offset="0.2537" style="stop-color:#6F7FA5"/>
			<stop  offset="0.4365" style="stop-color:#A2ACC5"/>
			<stop  offset="0.6088" style="stop-color:#CAD0DE"/>
			<stop  offset="0.7654" style="stop-color:#E7EAF0"/>
			<stop  offset="0.9009" style="stop-color:#F9F9FB"/>
			<stop  offset="1" style="stop-color:#FFFFFF"/>
		</radialGradient>
		<path id="XMLID_1216_" class="st75" d="M87,169.6c4-2.3,10.6-2.3,14.6,0c4,2.3,4,6.1,0,8.4c-4,2.3-10.6,2.3-14.6,0
			C83,175.7,83,171.9,87,169.6z"/>
		<linearGradient id="XMLID_65_" gradientUnits="userSpaceOnUse" x1="86.8066" y1="173.4859" x2="101.5669" y2="173.4859">
			<stop  offset="0" style="stop-color:#FFC107"/>
			<stop  offset="0.8501" style="stop-color:#FF9800"/>
		</linearGradient>
		<path id="XMLID_1215_" class="st76" d="M101.6,171.5h-0.8c-0.3-0.4-0.8-0.7-1.3-1c-2.9-1.7-7.6-1.7-10.4,0c-0.5,0.3-1,0.7-1.3,1
			h-0.8v2h0c0,1.1,0.7,2.2,2.2,3c2.9,1.7,7.6,1.7,10.4,0c1.4-0.8,2.2-1.9,2.2-3h0V171.5z"/>
		<linearGradient id="XMLID_66_" gradientUnits="userSpaceOnUse" x1="86.8066" y1="171.5182" x2="101.5671" y2="171.5182">
			<stop  offset="0.1499" style="stop-color:#FF9800"/>
			<stop  offset="1" style="stop-color:#FFC107"/>
		</linearGradient>
		<path id="XMLID_1214_" class="st77" d="M89,168.5c2.9-1.7,7.6-1.7,10.4,0c2.9,1.7,2.9,4.4,0,6c-2.9,1.7-7.6,1.7-10.4,0
			C86.1,172.9,86.1,170.2,89,168.5z"/>
		<path id="XMLID_1117_" class="st49" d="M95.7,173c0,0-0.1,0-0.1,0l-3.3-0.3l-0.1-2.2c0-0.3,0.1-0.5,0.4-0.7
			c0.6-0.4,1.6-0.3,2.2,0.2c0.3,0.2,0.5,0.5,0.5,0.8c0.4,0,0.8,0.2,1.2,0.4c0.6,0.5,0.7,1.2,0.1,1.6C96.3,172.9,96,173,95.7,173z"/>
	</g>
	<g>
		
			<radialGradient id="XMLID_67_" cx="107.9405" cy="7901.2515" r="11.6253" gradientTransform="matrix(1 0 0 0.5172 0 -3892.8164)" gradientUnits="userSpaceOnUse">
			<stop  offset="9.125480e-002" style="stop-color:#3C5185"/>
			<stop  offset="0.2537" style="stop-color:#6F7FA5"/>
			<stop  offset="0.4365" style="stop-color:#A2ACC5"/>
			<stop  offset="0.6088" style="stop-color:#CAD0DE"/>
			<stop  offset="0.7654" style="stop-color:#E7EAF0"/>
			<stop  offset="0.9009" style="stop-color:#F9F9FB"/>
			<stop  offset="1" style="stop-color:#FFFFFF"/>
		</radialGradient>
		<path id="XMLID_1018_" class="st78" d="M99.8,189c4.5-2.6,11.8-2.6,16.3,0c4.5,2.6,4.5,6.8,0,9.4c-4.5,2.6-11.8,2.6-16.3,0
			C95.3,195.8,95.3,191.6,99.8,189z"/>
		<linearGradient id="XMLID_68_" gradientUnits="userSpaceOnUse" x1="99.5596" y1="193.3644" x2="116.0189" y2="193.3644">
			<stop  offset="0" style="stop-color:#FFC107"/>
			<stop  offset="0.8501" style="stop-color:#FF9800"/>
		</linearGradient>
		<path id="XMLID_1013_" class="st79" d="M116,191.2h-0.9c-0.4-0.4-0.9-0.8-1.5-1.2c-3.2-1.8-8.4-1.8-11.7,0
			c-0.6,0.4-1.1,0.7-1.5,1.2h-0.9v2.2h0c0,1.2,0.8,2.5,2.4,3.4c3.2,1.9,8.4,1.9,11.7,0c1.6-0.9,2.4-2.2,2.4-3.4h0V191.2z"/>
		<linearGradient id="XMLID_69_" gradientUnits="userSpaceOnUse" x1="99.5596" y1="191.1702" x2="116.019" y2="191.1702">
			<stop  offset="0.1499" style="stop-color:#FF9800"/>
			<stop  offset="1" style="stop-color:#FFC107"/>
		</linearGradient>
		<path id="XMLID_897_" class="st80" d="M102,187.8c3.2-1.8,8.4-1.8,11.7,0c3.2,1.9,3.2,4.9,0,6.7c-3.2,1.9-8.4,1.9-11.7,0
			C98.8,192.7,98.8,189.7,102,187.8z"/>
		<path id="XMLID_1069_" class="st49" d="M111.9,191.8c-0.1-0.8-0.9-1.6-2.1-2.3c-1.2-0.6-2.4-1-3.5-1c-1.1,0-1.9,0.3-2.4,0.9
			c-0.3,0.3-0.4,0.8-0.4,1.2c0.1,0.8,1,1.7,2.2,2.4c0.8,0.4,1.4,0.7,2.1,0.8l0.1,0l0.1-0.6l-0.1,0c-0.5-0.1-1.1-0.4-1.8-0.7
			c-1-0.5-1.6-1.2-1.7-1.8c-0.1-0.3,0-0.6,0.3-0.9c0.4-0.5,1.1-0.7,1.9-0.7c0.9,0,1.8,0.3,2.7,0.7c1,0.5,1.6,1.1,1.7,1.7
			c0,0.3,0,0.6-0.3,0.8c-0.3,0.3-0.7,0.5-1.1,0.5c-0.3,0-0.5-0.1-0.7-0.2c-0.1-0.1-0.2-0.1-0.2-0.2c0,0,0-0.2,0.4-0.4l1.4-0.8
			l-0.1-0.1c-0.3-0.2-0.7-0.5-1.1-0.8c-0.8-0.4-1.6-0.6-2.3-0.6c-0.7,0-1.2,0.2-1.5,0.5c-0.2,0.2-0.2,0.4-0.2,0.6
			c0.1,0.3,0.3,0.7,0.8,0.9c0.5,0.3,1,0.4,1.5,0.4c0.1,0,0.2,0,0.2,0c0,0.1,0,0.2,0,0.2c0,0.3,0.4,0.5,0.6,0.7
			c0.5,0.3,1.1,0.4,1.6,0.4c0.7,0,1.2-0.2,1.6-0.6C111.9,192.6,112,192.3,111.9,191.8z M106.3,191.2c0-0.1,0-0.1,0.1-0.2
			c0.2-0.2,0.6-0.3,1-0.3c0.5,0,1,0.1,1.4,0.4c0.1,0.1,0.2,0.1,0.3,0.2l-0.6,0.4c-0.2,0.1-0.5,0.2-0.9,0.2c-0.4,0-0.7-0.1-0.9-0.2
			C106.4,191.4,106.3,191.3,106.3,191.2z"/>
	</g>
	<g>
		
			<radialGradient id="XMLID_70_" cx="62.0058" cy="7847.0444" r="11.6703" gradientTransform="matrix(1 0 0 0.5172 0 -3892.8164)" gradientUnits="userSpaceOnUse">
			<stop  offset="9.125480e-002" style="stop-color:#3C5185"/>
			<stop  offset="0.2537" style="stop-color:#6F7FA5"/>
			<stop  offset="0.4365" style="stop-color:#A2ACC5"/>
			<stop  offset="0.6088" style="stop-color:#CAD0DE"/>
			<stop  offset="0.7654" style="stop-color:#E7EAF0"/>
			<stop  offset="0.9009" style="stop-color:#F9F9FB"/>
			<stop  offset="1" style="stop-color:#FFFFFF"/>
		</radialGradient>
		<path id="XMLID_1021_" class="st81" d="M53.8,161c4.5-2.6,11.9-2.6,16.3,0c4.5,2.6,4.5,6.8,0,9.4c-4.5,2.6-11.9,2.6-16.3,0
			C49.3,167.8,49.3,163.6,53.8,161z"/>
		<linearGradient id="XMLID_71_" gradientUnits="userSpaceOnUse" x1="53.5922" y1="165.3273" x2="70.1155" y2="165.3273">
			<stop  offset="0" style="stop-color:#3C5185"/>
			<stop  offset="0.128" style="stop-color:#41588E"/>
			<stop  offset="0.6948" style="stop-color:#5573B1"/>
			<stop  offset="1" style="stop-color:#5D7DBE"/>
		</linearGradient>
		<path id="XMLID_1020_" class="st82" d="M70.1,163.1h-0.9c-0.4-0.4-0.9-0.8-1.5-1.2c-3.2-1.9-8.5-1.9-11.7,0
			c-0.6,0.4-1.1,0.8-1.5,1.2h-0.9v2.2h0c0,1.2,0.8,2.5,2.4,3.4c3.2,1.9,8.5,1.9,11.7,0c1.6-0.9,2.4-2.2,2.4-3.4h0V163.1z"/>
		<path id="XMLID_1019_" class="st43" d="M56,159.7c3.2-1.9,8.5-1.9,11.7,0c3.2,1.9,3.2,4.9,0,6.8c-3.2,1.9-8.5,1.9-11.7,0
			C52.8,164.6,52.8,161.6,56,159.7z"/>
		<path id="XMLID_1014_" class="st49" d="M62.1,165.2c-0.6,0.3-1.6,0.2-2.2-0.1c-0.6-0.3-0.6-0.8,0-1.1c0.1-0.1,0.2-0.1,0.4-0.1
			l-0.4-1.2c-0.4,0-0.8-0.1-1-0.3c-0.6-0.3-0.6-0.8,0-1.1c0.6-0.3,1.6-0.2,2.2,0.1c0.3,0.2,0.4,0.4,0.4,0.6l2.3,0.4
			c0.1-0.1,0.2-0.1,0.3-0.2c0.6-0.3,1.6-0.2,2.2,0.1c0.6,0.3,0.6,0.8,0,1.1c-0.6,0.3-1.6,0.2-2.2-0.1c-0.3-0.2-0.4-0.4-0.4-0.5
			l-2.3-0.4c-0.1,0.1-0.2,0.1-0.3,0.2c-0.1,0.1-0.3,0.1-0.4,0.1l0.4,1.2c0.4,0,0.8,0.1,1.1,0.3C62.7,164.4,62.7,164.9,62.1,165.2z"
			/>
	</g>
	<g>
		
			<radialGradient id="XMLID_72_" cx="111.9168" cy="7775.6226" r="8.788" gradientTransform="matrix(1 0 0 0.6888 0 -5193.4614)" gradientUnits="userSpaceOnUse">
			<stop  offset="0" style="stop-color:#3C5185"/>
			<stop  offset="0.1767" style="stop-color:#6F7EA5"/>
			<stop  offset="0.3788" style="stop-color:#A2ACC5"/>
			<stop  offset="0.5691" style="stop-color:#CAD0DE"/>
			<stop  offset="0.7418" style="stop-color:#E7EAF0"/>
			<stop  offset="0.8911" style="stop-color:#F9F9FB"/>
			<stop  offset="1" style="stop-color:#FFFFFF"/>
		</radialGradient>
		<path id="XMLID_617_" class="st83" d="M105.8,157.7c3.4-2.6,8.9-2.6,12.3,0c3.4,2.6,3.4,6.9,0,9.5c-3.4,2.6-8.9,2.6-12.3,0
			C102.4,164.5,102.4,160.3,105.8,157.7z"/>
		<g>
			<path class="st43" d="M119.9,158.3c0-0.2-0.3-0.4-0.6-0.4l-1.3,0c-0.2,0-0.6,0.2-0.6,0.2c-0.1-0.1-0.1-0.2,0.1-0.3l0.9-0.5
				c0.2-0.1-1.3-0.1-1.5-0.2l0-1.2c-0.2-0.1-0.6-0.1-0.9,0l-0.9,0.5c-0.1,0.1-0.4,0.1-0.6,0.1c-0.1,0-0.3-0.1-0.4-0.1
				c-0.2,0-0.3-0.2-0.3-0.3v-0.8c0-0.2-0.3-0.4-0.6-0.4H111c-0.3,0-0.6,0.2-0.6,0.4v0.8c0,0.1-0.1,0.2-0.3,0.3
				c-0.1,0-0.3,0.1-0.4,0.1c-0.2,0.1-0.4,0-0.6-0.1l-0.9-0.5c-0.2-0.1-0.6-0.1-0.9,0l-0.1,1.3c-0.2,0.1-1.7,0-1.4,0.1l0.9,0.5
				c0.1,0.1,0.2,0.2,0.1,0.3c-0.1,0.1-0.4-0.2-0.6-0.2l-1.3,0c-0.3,0-0.6,0.2-0.6,0.4l0,1.8c0,0.2,0.3,0.4,0.6,0.4l0.8,0l0,1.5
				c0,0,0,0.1,0,0.1l0,0h0c0,0.1,0.1,0.2,0.2,0.2l1.5,0.9c0.1,0.1,0.4,0.1,0.5,0.1l0,0v0c0.1,0,0.2,0,0.3-0.1l0.9-0.5
				c0.1-0.1,0.4-0.1,0.6-0.1c0.1,0,0.3,0.1,0.4,0.1c0.2,0,0.3,0.2,0.3,0.3l0,0.8c0,0.2,0.3,0.4,0.6,0.4l2.2,0c0.3,0,0.6-0.2,0.6-0.4
				l0-0.8c0-0.1,0.1-0.2,0.3-0.3c0.1,0,0.2-0.1,0.4-0.1c0.2-0.1,0.4,0,0.6,0.1l0.9,0.5c0.1,0.1,0.2,0.1,0.3,0.1v0l0,0
				c0.2,0,0.4,0,0.5-0.1l1.5-0.9c0.1-0.1,0.2-0.1,0.2-0.2l0,0l0,0c0,0,0,0,0,0l0-1.5l0.8,0c0.3,0,0.6-0.2,0.6-0.4L119.9,158.3z
				 M115.1,159.8c-0.4,1.1-2.3,1.7-4.1,1.3c-1.4-0.3-2.2-1.1-1.9-2c0.4-1.1,2.3-1.7,4.1-1.3C114.5,158.2,115.3,159,115.1,159.8z"/>
			<path id="XMLID_4_" class="st43" d="M118.6,156.3l0-1h-1.4l-0.3-0.2c-0.2-0.1-0.6-0.1-0.9,0l-0.3,0.2h-1.9v-0.7
				c0-0.2-0.3-0.4-0.6-0.4H111c-0.3,0-0.6,0.2-0.6,0.4v0.7h-2l-0.3-0.2c-0.2-0.1-0.6-0.1-0.9,0l-0.3,0.2h-1.4v1
				c0,0.1,0.1,0.2,0.2,0.3l0.9,0.5l10.8,0l0.9-0.5C118.5,156.4,118.6,156.3,118.6,156.3L118.6,156.3z"/>
			<g id="XMLID_613_">
				<linearGradient id="XMLID_73_" gradientUnits="userSpaceOnUse" x1="104.1373" y1="157.8067" x2="119.9491" y2="157.8067">
					<stop  offset="0" style="stop-color:#4A65A3"/>
					<stop  offset="0.4402" style="stop-color:#5471B1"/>
					<stop  offset="1" style="stop-color:#5D7DBE"/>
				</linearGradient>
				<path id="XMLID_614_" class="st84" d="M117.6,158.8l1.7,0c0.3,0,0.6-0.2,0.6-0.4l0-1.2c0-0.2-0.3-0.4-0.6-0.4l-1.3,0
					c-0.2,0-0.4-0.1-0.5-0.2c0-0.1-0.1-0.1-0.2-0.2c-0.1-0.1-0.1-0.2,0.1-0.3l0.9-0.5c0.2-0.1,0.2-0.4,0-0.5l-1.5-0.9
					c-0.2-0.1-0.6-0.1-0.9,0l-0.9,0.5c-0.1,0.1-0.4,0.1-0.6,0.1c-0.1,0-0.3-0.1-0.4-0.1c-0.2,0-0.3-0.2-0.3-0.3v-0.8
					c0-0.2-0.3-0.4-0.6-0.4H111c-0.3,0-0.6,0.2-0.6,0.4v0.8c0,0.1-0.1,0.2-0.3,0.3c-0.1,0-0.3,0.1-0.4,0.1c-0.2,0.1-0.4,0-0.6-0.1
					l-0.9-0.5c-0.2-0.1-0.6-0.1-0.9,0l-1.5,0.9c-0.2,0.1-0.2,0.4,0,0.5l0.9,0.5c0.1,0.1,0.2,0.2,0.1,0.3c-0.1,0.1-0.1,0.2-0.2,0.2
					c-0.1,0.1-0.3,0.2-0.5,0.2l-1.3,0c-0.3,0-0.6,0.2-0.6,0.4l0,1.2c0,0.2,0.3,0.4,0.6,0.4l1.3,0c0.2,0,0.4,0.1,0.5,0.2
					c0,0.1,0.1,0.1,0.2,0.2c0.1,0.1,0.1,0.2-0.1,0.3l-0.9,0.5c-0.2,0.1-0.2,0.4,0,0.5l1.5,0.9c0.2,0.1,0.6,0.1,0.9,0l0.9-0.5
					c0.1-0.1,0.4-0.1,0.6-0.1c0.1,0,0.3,0.1,0.4,0.1c0.2,0,0.3,0.2,0.3,0.3l0,0.8c0,0.2,0.3,0.4,0.6,0.4l2.2,0
					c0.3,0,0.6-0.2,0.6-0.4l0-0.8c0-0.1,0.1-0.2,0.3-0.3c0.1,0,0.2-0.1,0.4-0.1c0.2-0.1,0.4,0,0.6,0.1l0.9,0.5
					c0.2,0.1,0.6,0.1,0.9,0l1.5-0.9c0.2-0.1,0.2-0.4,0-0.5l-0.9-0.5c-0.1-0.1-0.2-0.2-0.1-0.3C117.5,159,117.6,158.8,117.6,158.8z
					 M109,157.5c0.4-1.1,2.3-1.7,4.1-1.3c1.4,0.3,2.2,1.1,1.9,2c-0.4,1.1-2.3,1.7-4.1,1.3C109.6,159.1,108.8,158.3,109,157.5z"/>
			</g>
		</g>
	</g>
	<g id="XMLID_198_">
		<path id="XMLID_226_" class="st43" d="M88.3,198.6l-0.8-0.2c-1.3-0.4-2.6-0.1-3.7,0.6l-0.8-0.6l-0.8,1.9l-4-0.3l0.9,3.6
			c0.1,0.2,0.2,0.4,0.5,0.5l1.6,0.5c1.4,0.4,2.9,0,3.9-0.9l3.7-3.5C89.1,199.6,88.9,198.8,88.3,198.6z"/>
		<path id="XMLID_225_" class="st85" d="M88.3,198.6l-0.8-0.2c-1.3-0.4-2.6-0.1-3.7,0.6l-0.8-0.6l-0.8,1.9l-4-0.3l0.5,1.8
			c0.2,0.8,0.8,1.5,1.6,1.7l0.7,0.2c1.4,0.4,2.9,0,3.9-0.9l3.7-3.5c0.1-0.1,0.2-0.3,0.2-0.4C88.6,198.8,88.5,198.7,88.3,198.6z"/>
		<path id="XMLID_224_" class="st86" d="M82.7,199.9c0.8-0.8,0.6-1.7-0.5-2c-1.1-0.3-2.7,0.1-3.5,0.9c-0.8,0.8-0.6,1.7,0.5,2
			C80.2,201.1,81.8,200.7,82.7,199.9z"/>
		<g id="XMLID_222_">
			<path id="XMLID_223_" class="st61" d="M80.5,200.1c-0.7,0-1.3-0.6-1.3-1.3v-5.1c0-0.7,0.6-1.3,1.3-1.3c0.7,0,1.3,0.6,1.3,1.3v5.1
				C81.8,199.5,81.2,200.1,80.5,200.1z"/>
		</g>
		<g id="XMLID_220_">
			
				<linearGradient id="XMLID_74_" gradientUnits="userSpaceOnUse" x1="514.2183" y1="180.845" x2="519.6766" y2="180.845" gradientTransform="matrix(-1 0 0 1 598.0478 0)">
				<stop  offset="0" style="stop-color:#A8D9FB"/>
				<stop  offset="1" style="stop-color:#FFFFFF"/>
			</linearGradient>
			<path id="XMLID_221_" class="st87" d="M80.5,199.2C80.4,199.2,80.4,199.2,80.5,199.2c-1.2-0.1-2.1-1-2.1-2.2l0.6-12.5l-0.6-20
				c0-1.1,0.9-2.1,2-2.1c1.1,0,3.4,0.9,3.4,2l-0.7,20.1l0,0.1l-0.6,12.6C82.5,198.4,81.6,199.2,80.5,199.2z"/>
		</g>
		<path id="XMLID_219_" class="st43" d="M93.8,203.7l-0.7-0.4c-1.1-0.7-2.5-0.8-3.8-0.3l-0.6-0.8l-1.3,1.7l-3.8-1.3v3.7
			c0,0.2,0.1,0.5,0.3,0.6l1.5,0.9c1.2,0.7,2.8,0.7,4,0l4.4-2.5C94.4,204.9,94.4,204,93.8,203.7z"/>
		<path id="XMLID_218_" class="st85" d="M93.8,203.7l-0.7-0.4c-1.1-0.7-2.5-0.8-3.8-0.3l-0.6-0.8l-1.3,1.7l-3.8-1.3v1.9
			c0,0.8,0.4,1.6,1.2,2l0.6,0.4c1.2,0.7,2.8,0.7,4,0l4.4-2.5c0.2-0.1,0.3-0.2,0.3-0.4C94.1,203.9,94,203.8,93.8,203.7z"/>
		<path id="XMLID_217_" class="st86" d="M88.1,203.7c1-0.6,1-1.5,0-2.1c-1-0.6-2.7-0.6-3.7,0c-1,0.6-1,1.5,0,2.1
			C85.4,204.2,87,204.2,88.1,203.7z"/>
		<g id="XMLID_215_">
			<path id="XMLID_216_" class="st61" d="M86.2,203.4c-0.7,0-1.3-0.6-1.3-1.3V197c0-0.7,0.6-1.3,1.3-1.3s1.3,0.6,1.3,1.3v5.1
				C87.5,202.9,87,203.4,86.2,203.4z"/>
		</g>
		<g id="XMLID_213_">
			<path id="XMLID_214_" class="st85" d="M80.5,168c-0.5,0-1-0.3-1.3-0.8l-2.7-4.7c-2.8-4.9-1.6-11.2,2.9-14.7l0.7-0.6
				c0.7-0.5,1.6-0.4,2.1,0.3c0.5,0.7,0.4,1.6-0.3,2.1l-0.7,0.6c-3.3,2.5-4.2,7.2-2.2,10.8l2.7,4.7c0.4,0.7,0.2,1.6-0.6,2.1
				C81,167.9,80.7,168,80.5,168z"/>
		</g>
		
			<linearGradient id="XMLID_75_" gradientUnits="userSpaceOnUse" x1="508.6064" y1="181.6795" x2="519.6758" y2="181.6795" gradientTransform="matrix(-1 0 0 1 598.0478 0)">
			<stop  offset="0" style="stop-color:#A8D9FB"/>
			<stop  offset="1" style="stop-color:#FFFFFF"/>
		</linearGradient>
		<path id="XMLID_3_" class="st88" d="M78.5,169.8l-0.1-5.2l8.3-3.2l-0.1,4.6c0.9,0.2,1.6,0.9,1.7,1.9l1.1,18.2l-1.1,14
			c-0.1,1.1-1,1.9-2.1,1.9c-0.2,0-0.4,0-0.7-0.1c-0.9-0.3-1.5-1.2-1.4-2.2l1.1-13.6l-1.9-12.3l-3.7-2.1
			C79,171.2,78.5,170.5,78.5,169.8z"/>
		
			<linearGradient id="XMLID_76_" gradientUnits="userSpaceOnUse" x1="508.6064" y1="183.9471" x2="512.102" y2="183.9471" gradientTransform="matrix(-1 0 0 1 598.0478 0)">
			<stop  offset="0" style="stop-color:#A8D9FB"/>
			<stop  offset="1" style="stop-color:#FFFFFF"/>
		</linearGradient>
		<path id="XMLID_212_" class="st89" d="M88.3,167.9c-0.1-1.1-1.1-2-2.2-1.9c0,0-0.1,0-0.1,0c1,0.1,1.7,0.9,1.8,1.9l1.1,18.2
			l-1.1,14c-0.1,1-0.8,1.8-1.8,1.9c0,0,0.1,0,0.1,0c0.1,0,0.1,0,0.2,0c1.1,0,2-0.8,2.1-1.9l1.1-14L88.3,167.9z"/>
		<path id="XMLID_210_" class="st90" d="M77.6,164.6l0.2-2c0.2-1.4,0.3-2.7,0.3-4.1c0.2,0.8,0.5,1.7,0.9,2.5l2.7,4.7
			c0.4,0.7,0.2,1.6-0.6,2.1c-0.2,0.1-0.5,0.2-0.8,0.2c-0.5,0-1-0.3-1.3-0.8L77.6,164.6z"/>
		<path id="XMLID_209_" class="st85" d="M78,139.9l6.5,3.8c2.9,1.7,4.7,4.8,4.7,8.1v18.6c-2.7,1.9-9.8-0.7-11.2-3.6l0.4-4.1
			c0.2-1.6,0.3-3.2,0.2-4.9L78,139.9z"/>
		<path id="XMLID_208_" class="st54" d="M82.2,144h-1.7v-8.9h7.7v2.9C88.2,141.3,85.5,144,82.2,144z"/>
		<path id="XMLID_207_" class="st54" d="M83.4,145.5h-0.7c-0.7,0-1.2-0.6-1.2-1.2V139h3.2v5.2C84.7,144.9,84.1,145.5,83.4,145.5z"/>
		<path id="XMLID_206_" class="st90" d="M89.2,155.8c-0.3-0.1-0.8-0.4-0.9-1.1l-0.6-4.7c-0.1-0.8-0.9-1.4-1.7-1.3
			c-0.8,0.1-0.9,1-0.8,1.8l0.1,4.6c0.2,1.7,1.4,3.1,3.1,3.6c0.3,0.1,0.5,0.1,0.8,0.2V155.8z"/>
		<path id="XMLID_204_" class="st85" d="M89.7,158.1c-0.4,0-0.9-0.1-1.3-0.2c-1.7-0.5-2.9-1.9-3.1-3.6l-0.6-4.7
			c-0.1-0.8,0.5-1.6,1.3-1.7c0.8-0.1,1.6,0.5,1.7,1.3l0.6,4.7c0.1,0.8,0.8,1.1,1,1.1c0.2,0.1,0.9,0.2,1.4-0.4l4.4-5
			c0.6-0.6,1.5-0.7,2.1-0.1c0.6,0.6,0.7,1.5,0.1,2.1l-4.4,5C92.1,157.6,91,158.1,89.7,158.1z"/>
		<g id="XMLID_202_">
			<path id="XMLID_203_" class="st54" d="M94.4,150.5l0.7-0.8c0.6-0.6,1.5-0.7,2.1-0.1c0.6,0.6,0.7,1.5,0.1,2.1l-0.9,1L94.4,150.5z"
				/>
		</g>
		<circle id="XMLID_201_" class="st54" cx="97" cy="150.2" r="1.8"/>
		<path id="XMLID_200_" class="st54" d="M98.5,147l-2.3,2.4c-0.2,0.2-0.4,0.2-0.6,0l0,0c-0.2-0.2-0.2-0.4,0-0.6l2.3-2.4
			c0.2-0.2,0.4-0.2,0.6,0l0,0C98.7,146.6,98.7,146.9,98.5,147z"/>
		<g id="XMLID_199_">
			<linearGradient id="XMLID_77_" gradientUnits="userSpaceOnUse" x1="75.4034" y1="142.814" x2="89.2337" y2="142.814">
				<stop  offset="0.1499" style="stop-color:#FF9800"/>
				<stop  offset="1" style="stop-color:#FFC107"/>
			</linearGradient>
			<path id="XMLID_50_" class="st91" d="M88.8,133.5c-1.3-1.6-4.4-1.1-6.2-0.6c-2.1,0.7-4.8,1.5-5.2,4c-0.1,0.6,0,1.3,0,2
				c0,1.5-0.3,3-1,4.4c-1,1.9-1.4,3.2-0.4,5.2c0.6,1.2,1,3,2.2,3.8c1.3,0.8,4,1.2,5.2,0.3c1.7-1.3,2.6-4.4,2.4-6.4
				c-0.2-2.2-1.2-4.3-0.6-6.4c0.4-1.3,2.1-2.7,3.1-3.6C89.2,135.4,89.6,134.6,88.8,133.5z"/>
		</g>
		<g id="XMLID_2_">
			<path id="XMLID_51_" class="st72" d="M88.8,133.5c-0.8-0.9-2.2-1.1-3.5-1c1,0.1,2,0.3,2.6,1c0.9,1,0.4,1.8-0.4,2.6
				c-1,0.9-2.7,2.4-3.1,3.6c-0.7,2.1,0.4,4.2,0.6,6.4c0.2,2-0.7,5.1-2.4,6.4c-0.4,0.3-0.9,0.4-1.5,0.5c1,0.1,1.9,0,2.5-0.5
				c1.7-1.3,2.6-4.4,2.4-6.4c-0.2-2.2-1.2-4.3-0.6-6.4c0.4-1.3,2.1-2.7,3.1-3.6C89.2,135.4,89.6,134.6,88.8,133.5z"/>
		</g>
	</g>
</g>
</svg>
