<?xml version="1.0" encoding="utf-8"?>
<!-- Generator: Adobe Illustrator 19.0.0, SVG Export Plug-In . SVG Version: 6.00 Build 0)  -->
<svg version="1.1" id="Layer_1" xmlns="http://www.w3.org/2000/svg" xmlns:xlink="http://www.w3.org/1999/xlink" x="0px" y="0px"
	 viewBox="0 0 256 256" style="enable-background:new 0 0 256 256;" xml:space="preserve">
<style type="text/css">
	.st0{fill:url(#XMLID_34_);}
	.st1{opacity:0.1;}
	.st2{opacity:0;fill:#3C5185;}
	.st3{opacity:2.439000e-002;fill:#3C5185;}
	.st4{opacity:4.878000e-002;fill:#3C5185;}
	.st5{opacity:7.317100e-002;fill:#3C5185;}
	.st6{opacity:9.756100e-002;fill:#3C5185;}
	.st7{opacity:0.122;fill:#3C5185;}
	.st8{opacity:0.1463;fill:#3C5185;}
	.st9{opacity:0.1707;fill:#3C5185;}
	.st10{opacity:0.1951;fill:#3C5185;}
	.st11{opacity:0.2195;fill:#3C5185;}
	.st12{opacity:0.2439;fill:#3C5185;}
	.st13{opacity:0.2683;fill:#3C5185;}
	.st14{opacity:0.2927;fill:#3C5185;}
	.st15{opacity:0.3171;fill:#3C5185;}
	.st16{opacity:0.3415;fill:#3C5185;}
	.st17{opacity:0.3659;fill:#3C5185;}
	.st18{opacity:0.3902;fill:#3C5185;}
	.st19{opacity:0.4146;fill:#3C5185;}
	.st20{opacity:0.439;fill:#3C5185;}
	.st21{opacity:0.4634;fill:#3C5185;}
	.st22{opacity:0.4878;fill:#3C5185;}
	.st23{opacity:0.5122;fill:#3C5185;}
	.st24{opacity:0.5366;fill:#3C5185;}
	.st25{opacity:0.561;fill:#3C5185;}
	.st26{opacity:0.5854;fill:#3C5185;}
	.st27{opacity:0.6098;fill:#3C5185;}
	.st28{opacity:0.6341;fill:#3C5185;}
	.st29{opacity:0.6585;fill:#3C5185;}
	.st30{opacity:0.6829;fill:#3C5185;}
	.st31{opacity:0.7073;fill:#3C5185;}
	.st32{opacity:0.7317;fill:#3C5185;}
	.st33{opacity:0.7561;fill:#3C5185;}
	.st34{opacity:0.7805;fill:#3C5185;}
	.st35{opacity:0.8049;fill:#3C5185;}
	.st36{opacity:0.8293;fill:#3C5185;}
	.st37{opacity:0.8537;fill:#3C5185;}
	.st38{opacity:0.878;fill:#3C5185;}
	.st39{opacity:0.9024;fill:#3C5185;}
	.st40{opacity:0.9268;fill:#3C5185;}
	.st41{opacity:0.9512;fill:#3C5185;}
	.st42{opacity:0.9756;fill:#3C5185;}
	.st43{fill:#3C5185;}
	.st44{fill:url(#XMLID_35_);}
	.st45{fill:#FFFFFF;}
	.st46{fill:#7EA7DF;}
	.st47{fill:#EDF3FA;}
	.st48{fill:#F2B1B5;}
	.st49{fill:url(#XMLID_37_);}
	.st50{fill:url(#XMLID_118_);}
	.st51{fill:#D1E1F2;}
	.st52{opacity:0.3;fill:#231F20;}
	.st53{fill:url(#XMLID_119_);}
	.st54{fill:#B7D5F2;}
	.st55{fill:#A5CBEF;}
	.st56{fill:#AED0F1;}
	.st57{fill:#FFC107;}
	.st58{fill:#FF9800;}
	.st59{fill:url(#XMLID_120_);}
	.st60{fill:#63749D;}
	.st61{fill:#4F6291;}
	.st62{fill:url(#XMLID_121_);}
	.st63{fill:url(#XMLID_124_);}
	.st64{opacity:0.2;fill:#3C5185;}
	.st65{fill:url(#XMLID_127_);}
	.st66{fill:url(#XMLID_128_);}
	.st67{fill:#E3EDF7;}
	.st68{fill:url(#XMLID_129_);}
	.st69{fill:#4A65A3;}
	.st70{fill:url(#XMLID_130_);}
	.st71{fill:url(#XMLID_135_);}
	.st72{fill:url(#XMLID_136_);}
	.st73{fill:url(#XMLID_137_);}
	.st74{fill:url(#XMLID_140_);}
	.st75{fill:url(#XMLID_141_);}
	.st76{fill:#EF9EA3;}
	.st77{fill:url(#XMLID_142_);}
	.st78{fill:url(#XMLID_143_);}
	.st79{fill:url(#XMLID_144_);}
	.st80{opacity:0.2;}
	.st81{fill:#FEC55E;}
	.st82{fill:url(#XMLID_145_);}
	.st83{fill:url(#XMLID_146_);}
	.st84{fill:url(#XMLID_147_);}
	.st85{fill:url(#XMLID_148_);}
	.st86{fill:url(#XMLID_150_);}
	.st87{fill:url(#XMLID_151_);}
	.st88{fill:url(#XMLID_152_);}
	.st89{fill:url(#XMLID_153_);}
	.st90{fill:url(#XMLID_154_);}
	.st91{fill:url(#XMLID_155_);}
	.st92{fill:url(#XMLID_156_);}
	.st93{fill:url(#XMLID_157_);}
	.st94{fill:url(#XMLID_158_);}
	.st95{fill:url(#XMLID_159_);}
	.st96{fill:url(#XMLID_160_);}
</style>
<g>
	<linearGradient id="XMLID_34_" gradientUnits="userSpaceOnUse" x1="151.9698" y1="212.4505" x2="99.6348" y2="41.7928">
		<stop  offset="0.1217" style="stop-color:#FFFFFF"/>
		<stop  offset="1" style="stop-color:#E1EBF7"/>
	</linearGradient>
	<path id="XMLID_117_" class="st0" d="M211.1,132.3c0,42.4-41.9,80.9-84.4,80.9s-81.9-38.4-81.9-80.9s15.2-88.9,57.6-88.9
		S211.1,89.9,211.1,132.3z"/>
	<g id="XMLID_149_" class="st1">
		<polygon id="XMLID_6_" class="st2" points="173.7,133.8 207.9,152.7 109.6,210.8 75.4,190.5 		"/>
		<polygon id="XMLID_116_" class="st3" points="173.7,133.8 207.1,152.3 108.9,210.3 75.4,190.5 		"/>
		<polygon id="XMLID_115_" class="st4" points="173.7,133.8 206.4,151.9 108.1,209.9 75.4,190.5 		"/>
		<polygon id="XMLID_114_" class="st5" points="173.7,133.8 205.6,151.5 107.4,209.5 75.4,190.5 		"/>
		<polygon id="XMLID_113_" class="st6" points="173.7,133.8 204.8,151.1 106.6,209 75.4,190.5 		"/>
		<polygon id="XMLID_112_" class="st7" points="173.7,133.8 204.1,150.6 105.9,208.6 75.4,190.5 		"/>
		<polygon id="XMLID_111_" class="st8" points="173.7,133.8 203.3,150.2 105.2,208.2 75.4,190.5 		"/>
		<polygon id="XMLID_110_" class="st9" points="173.7,133.8 202.6,149.8 104.4,207.7 75.4,190.5 		"/>
		<polygon id="XMLID_109_" class="st10" points="173.7,133.8 201.8,149.4 103.7,207.3 75.4,190.5 		"/>
		<polygon id="XMLID_108_" class="st11" points="173.7,133.8 201.1,148.9 103,206.9 75.4,190.5 		"/>
		<polygon id="XMLID_107_" class="st12" points="173.7,133.8 200.3,148.5 102.2,206.4 75.4,190.5 		"/>
		<polygon id="XMLID_106_" class="st13" points="173.7,133.8 199.5,148.1 101.5,206 75.4,190.5 		"/>
		<polygon id="XMLID_105_" class="st14" points="173.7,133.8 198.8,147.7 100.8,205.5 75.4,190.5 		"/>
		<polygon id="XMLID_104_" class="st15" points="173.7,133.8 198,147.3 100,205.1 75.4,190.5 		"/>
		<polygon id="XMLID_103_" class="st16" points="173.7,133.8 197.3,146.8 99.3,204.7 75.4,190.5 		"/>
		<polygon id="XMLID_102_" class="st17" points="173.7,133.8 196.5,146.4 98.6,204.2 75.4,190.5 		"/>
		<polygon id="XMLID_101_" class="st18" points="173.7,133.8 195.7,146 97.8,203.8 75.4,190.5 		"/>
		<polygon id="XMLID_100_" class="st19" points="173.7,133.8 195,145.6 97.1,203.4 75.4,190.5 		"/>
		<polygon id="XMLID_99_" class="st20" points="173.7,133.8 194.2,145.2 96.3,202.9 75.4,190.5 		"/>
		<polygon id="XMLID_98_" class="st21" points="173.7,133.8 193.5,144.7 95.6,202.5 75.4,190.5 		"/>
		<polygon id="XMLID_97_" class="st22" points="173.7,133.8 192.7,144.3 94.9,202.1 75.4,190.5 		"/>
		<polygon id="XMLID_96_" class="st23" points="173.7,133.8 191.9,143.9 94.1,201.6 75.4,190.5 		"/>
		<polygon id="XMLID_95_" class="st24" points="173.7,133.8 191.2,143.5 93.4,201.2 75.4,190.5 		"/>
		<polygon id="XMLID_94_" class="st25" points="173.7,133.8 190.4,143 92.7,200.8 75.4,190.5 		"/>
		<polygon id="XMLID_93_" class="st26" points="173.7,133.8 189.7,142.6 91.9,200.3 75.4,190.5 		"/>
		<polygon id="XMLID_92_" class="st27" points="173.7,133.8 188.9,142.2 91.2,199.9 75.4,190.5 		"/>
		<polygon id="XMLID_91_" class="st28" points="173.7,133.8 188.1,141.8 90.5,199.5 75.4,190.5 		"/>
		<polygon id="XMLID_90_" class="st29" points="173.7,133.8 187.4,141.4 89.7,199 75.4,190.5 		"/>
		<polygon id="XMLID_89_" class="st30" points="173.7,133.8 186.6,140.9 89,198.6 75.4,190.5 		"/>
		<polygon id="XMLID_88_" class="st31" points="173.7,133.8 185.9,140.5 88.3,198.1 75.4,190.5 		"/>
		<polygon id="XMLID_87_" class="st32" points="173.7,133.8 185.1,140.1 87.5,197.7 75.4,190.5 		"/>
		<polygon id="XMLID_86_" class="st33" points="173.7,133.8 184.3,139.7 86.8,197.3 75.4,190.5 		"/>
		<polygon id="XMLID_85_" class="st34" points="173.7,133.8 183.6,139.3 86.1,196.8 75.4,190.5 		"/>
		<polygon id="XMLID_84_" class="st35" points="173.7,133.8 182.8,138.8 85.3,196.4 75.4,190.5 		"/>
		<polygon id="XMLID_83_" class="st36" points="173.7,133.8 182.1,138.4 84.6,196 75.4,190.5 		"/>
		<polygon id="XMLID_82_" class="st37" points="173.7,133.8 181.3,138 83.8,195.5 75.4,190.5 		"/>
		<polygon id="XMLID_81_" class="st38" points="173.7,133.8 180.6,137.6 83.1,195.1 75.4,190.5 		"/>
		<polygon id="XMLID_80_" class="st39" points="173.7,133.8 179.8,137.1 82.4,194.7 75.4,190.5 		"/>
		<polygon id="XMLID_79_" class="st40" points="173.7,133.8 179,136.7 81.6,194.2 75.4,190.5 		"/>
		<polygon id="XMLID_78_" class="st41" points="173.7,133.8 178.3,136.3 80.9,193.8 75.4,190.5 		"/>
		<polygon id="XMLID_77_" class="st42" points="173.7,133.8 177.5,135.9 80.2,193.4 75.4,190.5 		"/>
		<polygon id="XMLID_5_" class="st43" points="173.7,133.8 176.8,135.5 79.4,192.9 75.4,190.5 		"/>
	</g>
	<g id="XMLID_704_">
		<linearGradient id="XMLID_35_" gradientUnits="userSpaceOnUse" x1="75.2495" y1="116.7589" x2="152.5914" y2="116.7589">
			<stop  offset="3.802050e-003" style="stop-color:#A5CBEF"/>
			<stop  offset="0.2136" style="stop-color:#B2D3F1"/>
			<stop  offset="0.6044" style="stop-color:#D5E7F8"/>
			<stop  offset="1" style="stop-color:#FFFFFF"/>
		</linearGradient>
		<path id="XMLID_718_" class="st44" d="M75.2,88.6c0-1.2,0.8-2.6,1.8-3.2l73-42.4c0.4-0.2,0.9-0.3,1.4,0l1.1,0.6l-0.5,99.4
			c0,1.2-0.8,2.6-1.8,3.2L76.4,190l-1.1,0.7V88.6z"/>
		<path id="XMLID_717_" class="st45" d="M76.4,89.4c0-1.2,0.8-2.6,1.8-3.2l73.2-42.5c1-0.6,1.8-0.1,1.8,1.1v100.7L76.4,190V89.4z"/>
		<path id="XMLID_716_" class="st46" d="M78.2,86.2l73.2-42.5c1-0.6,1.8-0.1,1.8,1.1v4.8L76.4,94.2v-4.8
			C76.4,88.2,77.2,86.8,78.2,86.2z"/>
		<path id="XMLID_715_" class="st45" d="M87.1,84.1c0.3-0.2,0.6,0,0.6,0.3c0,0.4-0.3,0.8-0.6,1c-0.3,0.2-0.6,0-0.6-0.3
			C86.5,84.8,86.8,84.3,87.1,84.1z"/>
		<path id="XMLID_714_" class="st45" d="M84.5,85.6c0.3-0.2,0.6,0,0.6,0.3c0,0.4-0.3,0.8-0.6,1c-0.3,0.2-0.6,0-0.6-0.3
			C83.9,86.3,84.2,85.8,84.5,85.6z"/>
		<path id="XMLID_713_" class="st45" d="M81.9,87.2c0.3-0.2,0.6,0,0.6,0.3c0,0.4-0.3,0.8-0.6,1c-0.3,0.2-0.6,0-0.6-0.3
			C81.3,87.8,81.6,87.4,81.9,87.2z"/>
		<polygon id="XMLID_712_" class="st47" points="147.2,61.2 147.2,90.2 83,127.1 83,98.2 		"/>
		<g id="XMLID_708_">
			<polygon id="XMLID_711_" class="st47" points="147.3,127.2 147.3,129.4 83,166.7 83,164.5 			"/>
			<polygon id="XMLID_710_" class="st47" points="147.3,133.2 147.3,135.4 83,172.8 83,170.5 			"/>
			<polygon id="XMLID_709_" class="st47" points="147.3,139.6 147.3,141.8 83,179.1 83,176.9 			"/>
		</g>
		<polygon id="XMLID_707_" class="st47" points="147.2,94.7 147.2,117.8 128.7,128.7 128.7,105.7 		"/>
		<polygon id="XMLID_706_" class="st47" points="101.5,121 101.5,144.2 83,155.1 83,132 		"/>
		<polygon id="XMLID_705_" class="st47" points="124.3,107.9 124.3,131.1 105.9,142 105.9,118.9 		"/>
	</g>
	<g>
		<g>
			<circle id="XMLID_495_" class="st43" cx="76.3" cy="142.3" r="1.6"/>
			<circle id="XMLID_494_" class="st43" cx="76.7" cy="144.3" r="1.6"/>
			<path id="XMLID_493_" class="st43" d="M83,140.9l-0.1,4c0,1.3-0.6,2.2-1.7,2.9l0,0c-2.4,1.4-5.5-0.3-5.5-3.1v-3.8
				c0-1.3,0.7-2.4,1.8-3.1l0,0C79.9,136.5,83,138.2,83,140.9z"/>
			<g id="XMLID_491_">
				<path id="XMLID_492_" class="st48" d="M91.2,164.1c0.4,0,0.9-0.2,1.1-0.6c0.4-0.6,0.2-1.4-0.4-1.8l-10.1-6.3v-2.9
					c0-0.7-0.6-1.3-1.3-1.3c-0.7,0-1.3,0.6-1.3,1.3v4.3l11.4,7.1C90.7,164.1,90.9,164.1,91.2,164.1z"/>
			</g>
			<path id="XMLID_490_" class="st43" d="M88.1,195l0,1c0,0.4-0.3,0.7-0.7,0.8l-0.2,0c-0.5,0.1-1,0-1.4-0.3l-5.3-3.2l0-1.5l6.1,4
				L88.1,195z"/>
			<path id="XMLID_489_" class="st45" d="M84.3,190.3l0.5,2l2.7,1.8c0.8,0.5,0.8,1.6,0,2l0,0c-0.4,0.2-0.8,0.2-1.2,0l-5.8-3.6l0-2.2
				H84.3z"/>
			<path id="XMLID_488_" class="st43" d="M80.6,199.5l0,1c0,0.4-0.3,0.7-0.7,0.8l-0.2,0c-0.5,0.1-1,0-1.4-0.3l-5.3-3.2l0-1.5l6.1,4
				L80.6,199.5z"/>
			<path id="XMLID_487_" class="st45" d="M76.7,194.8l0.5,2l2.7,1.8c0.8,0.5,0.8,1.6,0,2l0,0c-0.4,0.2-0.8,0.2-1.2,0L73,197l0-2.2
				H76.7z"/>
			<linearGradient id="XMLID_37_" gradientUnits="userSpaceOnUse" x1="77.7262" y1="172.4372" x2="84.302" y2="172.4372">
				<stop  offset="0" style="stop-color:#3C5185"/>
				<stop  offset="0.128" style="stop-color:#41588E"/>
				<stop  offset="0.6948" style="stop-color:#5573B1"/>
				<stop  offset="1" style="stop-color:#5D7DBE"/>
			</linearGradient>
			<path id="XMLID_486_" class="st49" d="M84.3,152.5v38c0,0.7-0.4,1.3-0.9,1.6l0,0c-1.2,0.7-2.8-0.2-2.8-1.6l-2.9-35.6L84.3,152.5z
				"/>
			<polygon id="XMLID_76_" class="st43" points="79.3,154.4 79.3,174.1 79.5,177.4 84.3,169.3 84.3,162.8 83.4,152.8 			"/>
			<linearGradient id="XMLID_118_" gradientUnits="userSpaceOnUse" x1="73.0703" y1="174.0135" x2="84.302" y2="174.0135">
				<stop  offset="0" style="stop-color:#3C5185"/>
				<stop  offset="0.128" style="stop-color:#41588E"/>
				<stop  offset="0.6948" style="stop-color:#5573B1"/>
				<stop  offset="1" style="stop-color:#5D7DBE"/>
			</linearGradient>
			<path id="XMLID_75_" class="st50" d="M82.4,151.5l-8.1,4.7c-0.8,0.4-1.3,1.3-1.3,2.2v15.8v0l0,20.7c0,1.4,1.5,2.3,2.8,1.6
				c0.6-0.3,0.9-0.9,0.9-1.6l1.7-21.7l4.6-2.6c0.8-0.4,1.3-1.3,1.3-2.2v-15.8C84.3,151.6,83.3,151,82.4,151.5z"/>
			<path id="XMLID_482_" class="st51" d="M84.8,149.5v12.7c0,1.7,0.6,3.1-0.9,3.9c0,0-5.6,5.4-10.9,3.4c0,0-0.4-12.1-0.4-17
				c0-1,0.5-1.9,1.4-2.4l6-3.5C82.1,145.5,84.8,147,84.8,149.5z"/>
			<g id="XMLID_480_">
				<path id="XMLID_481_" class="st48" d="M85.5,167.5c0.4,0,0.9-0.2,1.1-0.6c0.4-0.6,0.2-1.4-0.4-1.8l-10.1-6.3v-2.9
					c0-0.7-0.6-1.3-1.3-1.3c-0.7,0-1.3,0.6-1.3,1.3v4.3l11.4,7.1C85,167.5,85.2,167.5,85.5,167.5z"/>
			</g>
			<g id="XMLID_478_">
				<path id="XMLID_479_" class="st51" d="M74.7,159.4c0.9,0,1.6-0.7,1.6-1.6V152c0-0.9-0.7-1.6-1.6-1.6c-0.9,0-1.6,0.7-1.6,1.6v5.8
					C73.2,158.7,73.9,159.4,74.7,159.4z"/>
			</g>
			<g id="XMLID_476_">
				<path id="XMLID_477_" class="st48" d="M78.3,151c0.7,0,1.3-0.6,1.3-1.3l0-4.2c0-0.7-0.6-1.3-1.3-1.3c-0.7,0-1.3,0.6-1.3,1.3
					l0,4.2C76.9,150.4,77.5,151,78.3,151C78.3,151,78.3,151,78.3,151z"/>
			</g>
			<path id="XMLID_475_" class="st52" d="M77,148.4V146l0-0.2c0-0.7,0.6-1.3,1.3-1.3c0.7,0,1.3,0.6,1.3,1.3l0,2.9
				c-0.4,0.1-0.9-0.2-1.3-0.2L77,148.4z"/>
			<path id="XMLID_474_" class="st48" d="M77,148.4h2c2.2,0,4-1.8,4-4v-4h-2c-2.2,0-4,1.8-4,4V148.4z"/>
			<circle id="XMLID_473_" class="st48" cx="77" cy="143.4" r="0.7"/>
			<path id="XMLID_472_" class="st43" d="M77.8,144.3L77.8,144.3c0.3,0,0.5-0.2,0.5-0.5v-3c0-0.3-0.2-0.5-0.5-0.5h0
				c-0.3,0-0.5,0.2-0.5,0.5v3C77.3,144,77.5,144.3,77.8,144.3z"/>
			<circle id="XMLID_471_" class="st43" cx="81.9" cy="140.7" r="1.1"/>
			<circle id="XMLID_470_" class="st43" cx="80" cy="140.4" r="1.1"/>
			<circle id="XMLID_469_" class="st43" cx="78.3" cy="140.9" r="1.1"/>
			<circle id="XMLID_468_" class="st43" cx="82.3" cy="139.3" r="1.6"/>
			<circle id="XMLID_467_" class="st43" cx="80" cy="138.7" r="1.6"/>
			<circle id="XMLID_466_" class="st43" cx="78.3" cy="138.7" r="1.6"/>
			<circle id="XMLID_465_" class="st43" cx="76.7" cy="140.2" r="1.6"/>
			<g>
				<linearGradient id="XMLID_119_" gradientUnits="userSpaceOnUse" x1="72.354" y1="160.8004" x2="96.0202" y2="160.8004">
					<stop  offset="3.802050e-003" style="stop-color:#A5CBEF"/>
					<stop  offset="0.2136" style="stop-color:#B2D3F1"/>
					<stop  offset="0.6044" style="stop-color:#D5E7F8"/>
					<stop  offset="1" style="stop-color:#FFFFFF"/>
				</linearGradient>
				<path id="XMLID_464_" class="st53" d="M87.6,154.3c-0.9-0.5-2.4-0.5-3.3,0L73,160.8c-0.9,0.5-0.9,1.4,0,1.9l7.7,4.6
					c0.9,0.5,2.4,0.5,3.3,0l11.3-6.5c0.9-0.5,0.9-1.4,0-1.9L87.6,154.3z"/>
				<g>
					<path id="XMLID_463_" class="st45" d="M87.6,153.7c-0.9-0.5-2.4-0.5-3.3,0L73,160.1c-0.9,0.5-0.9,1.4,0,1.9l7.7,4.6
						c0.9,0.5,2.4,0.5,3.3,0l11.3-6.5c0.9-0.5,0.9-1.4,0-1.9L87.6,153.7z"/>
				</g>
			</g>
		</g>
		<g>
			<polygon id="XMLID_359_" class="st54" points="85,143.2 87,142.1 88.9,143.2 87,144.3 			"/>
			<polygon id="XMLID_358_" class="st55" points="85,143.2 85,158.8 87,159.8 87,144.3 			"/>
			<polygon id="XMLID_357_" class="st56" points="88.9,143.2 88.9,158.7 87,159.8 87,144.3 			"/>
			<polygon id="XMLID_356_" class="st57" points="81.9,150.3 83.9,149.2 85.8,150.3 83.9,151.4 			"/>
			<polygon id="XMLID_355_" class="st58" points="81.9,150.3 81.9,160.5 83.9,161.6 83.9,151.4 			"/>
			<linearGradient id="XMLID_120_" gradientUnits="userSpaceOnUse" x1="83.8872" y1="155.9555" x2="85.7771" y2="155.9555">
				<stop  offset="0.1499" style="stop-color:#FF9800"/>
				<stop  offset="1" style="stop-color:#FFC107"/>
			</linearGradient>
			<polygon id="XMLID_354_" class="st59" points="85.8,150.3 85.8,160.5 83.9,161.6 83.9,151.4 			"/>
			<polygon id="XMLID_353_" class="st60" points="78.9,148.5 80.8,147.4 82.7,148.5 80.8,149.6 			"/>
			<polygon id="XMLID_352_" class="st43" points="78.9,148.5 78.9,162.3 80.8,163.4 80.8,149.6 			"/>
			<polygon id="XMLID_351_" class="st61" points="82.7,148.5 82.7,162.2 80.8,163.4 80.8,149.6 			"/>
		</g>
	</g>
	<g id="XMLID_53_">
		<path id="XMLID_57_" class="st43" d="M98.7,133.5l0.2,5.9c0,0.6,0.7,1,0.7,1v0c0,0,0,0,0,0c0.9,0.8,3.3,2.2,3.3,2.2l0.5-4.4l0,0
			c0.5-0.3,0.9-0.2,1.1,0.2c0.1,0.3,0.2,0.5,0.4,0.8c0.2,0.4,0.2,1.1-0.2,1.7l-2,3.9c-0.5,1-0.5,2.1,0.1,2.4l3.5,2.2
			c0.1,0.1,0.3-0.3,0.5-0.3v0l4.2,0v-3.3h-1.6l1.1-2.1c0.3-0.6,0.8-1.1,1.3-1.1c0.3,0,0.6-0.1,0.9-0.1c0.5-0.1,0.8,0.2,0.8,0.8
			l0.1,3.6c0,0.5,0.3,0.8,0.6,1v0l3.6,2.4l0.2-4.5l2-1.3c0.8-0.5,1.4-1.7,1.3-2.6l-0.1-3.6c0-0.6,0.3-1.3,0.7-1.8
			c0.3-0.3,0.5-0.6,0.8-1c0.4-0.5,1-0.8,1.3-0.6l7.5-6.6c0.5-1,0.5-2.1-0.1-2.4l-2.2-1.2c-0.4-0.2-0.5-0.7-0.3-1.4
			c0.1-0.4,0.2-0.9,0.3-1.3c0.2-0.6,0.6-1.3,1-1.6l3-2c0.8-0.5,1.4-1.7,1.3-2.6l-0.1-2.4l3.4-1.7l-0.1-0.5c-0.2-1.3-1.4-2.3-2.7-2.3
			h-1.5v0c-0.2,0-0.5,0.1-0.7,0.2l-3,2c-0.5,0.3-0.9,0.2-1.1-0.2c-0.1-0.3-0.3-0.5-0.4-0.8c-0.2-0.4-0.2-1.1,0.2-1.7l2-3.9
			c0.5-1,4.1,0.7,4.1,0.7L132,101c-0.3-0.4-0.8-0.7-1.3-0.7h-4.1v0c-0.5,0-1.2,0.6-1.6,1.4l-2,4c-0.3,0.6-0.8,1.1-1.3,1.1
			c-0.3,0-0.6,0.1-0.9,0.1c-0.5,0.1-0.8-0.2-0.8-0.8l0-0.3l3-0.2l0.4-1.4l-4.4-2.8v0c-0.2,0-0.4,0.1-0.6,0.2l-4.9,3.2
			c-0.8,0.5-1.4,1.7-1.3,2.6l0.2,3.6c0,0.6-0.3,1.3-0.7,1.8c-0.3,0.3-0.5,0.6-0.8,1c-0.1,0.2-0.3,0.3-0.4,0.4l-3.2-1
			c-0.2-0.1-0.4-0.1-0.6,0h0v0c-0.5,0.2-1,0.6-1.3,1.3l-3.3,6.4c-0.5,1-0.5,2.1,0.1,2.4l2.8,1.5c0,0.1-0.4,1.3-0.6,2.4
			c-0.2,0.6-0.6,1.3-1,1.6l-3,2C99.3,131.4,98.7,132.6,98.7,133.5z M110.8,123.7c1.7-4.5,5.3-8.1,8.4-8.5c4-0.5,5.7,4.4,3.4,10.4
			c-1.7,4.5-5.3,8.1-8.4,8.5C110.2,134.6,108.5,129.7,110.8,123.7z"/>
		<linearGradient id="XMLID_121_" gradientUnits="userSpaceOnUse" x1="108.2633" y1="147.2175" x2="134.5966" y2="104.2175">
			<stop  offset="0" style="stop-color:#3C5185"/>
			<stop  offset="0.128" style="stop-color:#41588E"/>
			<stop  offset="0.6948" style="stop-color:#5573B1"/>
			<stop  offset="1" style="stop-color:#5D7DBE"/>
		</linearGradient>
		<path id="XMLID_54_" class="st62" d="M107.9,129.8c-0.2,0.6-0.6,1.3-1,1.6l-3,2c-0.8,0.5-1.4,1.7-1.3,2.6l0.2,5.9
			c0,0.9,0.7,1.3,1.5,0.8l3-2c0.5-0.3,0.9-0.2,1.1,0.2c0.1,0.3,0.2,0.5,0.4,0.8c0.2,0.4,0.2,1.1-0.2,1.7l-2,3.9
			c-0.5,1-0.5,2.1,0.1,2.4l3.6,1.9c0.6,0.3,1.5-0.3,2-1.3l2-4c0.3-0.6,0.8-1.1,1.3-1.1c0.3,0,0.6-0.1,0.9-0.1
			c0.5-0.1,0.8,0.2,0.8,0.8l0.1,3.6c0,0.9,0.7,1.3,1.5,0.8l4.9-3.2c0.8-0.5,1.4-1.7,1.3-2.6l-0.1-3.6c0-0.6,0.3-1.3,0.7-1.8
			c0.3-0.3,0.5-0.6,0.8-1c0.4-0.5,1-0.8,1.3-0.6l2.2,1.2c0.6,0.3,1.5-0.3,2-1.3l3.3-6.4c0.5-1,0.5-2.1-0.1-2.4l-2.2-1.2
			c-0.4-0.2-0.5-0.7-0.3-1.4c0.1-0.4,0.2-0.9,0.3-1.3c0.2-0.6,0.6-1.3,1-1.6l3-2c0.8-0.5,1.4-1.7,1.3-2.6l-0.2-5.9
			c0-0.9-0.7-1.3-1.5-0.8l-3,2c-0.5,0.3-0.9,0.2-1.1-0.2c-0.1-0.3-0.3-0.5-0.4-0.8c-0.2-0.4-0.2-1.1,0.2-1.7l2-3.9
			c0.5-1,0.5-2.1-0.1-2.4l-3.6-1.9c-0.6-0.3-1.5,0.3-2,1.3l-2,4c-0.3,0.6-0.8,1.1-1.3,1.1c-0.3,0-0.6,0.1-0.9,0.1
			c-0.5,0.1-0.8-0.2-0.8-0.8l-0.2-3.6c0-0.9-0.7-1.3-1.5-0.8l-4.9,3.2c-0.8,0.5-1.4,1.7-1.3,2.6l0.2,3.6c0,0.6-0.3,1.3-0.7,1.8
			c-0.3,0.3-0.5,0.6-0.8,1c-0.4,0.5-1,0.8-1.3,0.6l-2.2-1.1c-0.6-0.3-1.5,0.3-2,1.3l-3.3,6.4c-0.5,1-0.5,2.1,0.1,2.4l2.8,1.5
			C108.5,127.5,108.2,128.7,107.9,129.8z M118.1,136.6c-4,0.5-5.7-4.4-3.4-10.4c1.7-4.5,5.3-8.1,8.4-8.5c4-0.5,5.7,4.4,3.4,10.4
			C124.7,132.6,121.1,136.2,118.1,136.6z"/>
	</g>
	<g id="XMLID_23_">
		<linearGradient id="XMLID_124_" gradientUnits="userSpaceOnUse" x1="135.2641" y1="88.7703" x2="166.6274" y2="88.7703">
			<stop  offset="0" style="stop-color:#FF9800"/>
			<stop  offset="0.6264" style="stop-color:#FFB004"/>
			<stop  offset="1" style="stop-color:#FFC107"/>
		</linearGradient>
		<path id="XMLID_30_" class="st63" d="M135.3,95.3l0.2,4.7c0,0.5,0.5,0.8,0.5,0.8v0h0c0.7,0.6,2.7,1.7,2.7,1.7L139,99l0,0
			c0.4-0.3,0.7-0.2,0.9,0.2c0.1,0.2,0.2,0.4,0.3,0.6c0.2,0.3,0.1,0.9-0.1,1.4l-1.6,3.1c-0.4,0.8-0.4,1.7,0.1,1.9l2.8,1.7
			c0.1,0,0.3-0.2,0.4-0.2v0l3.3,0v-2.6h-1.2l0.9-1.7c0.3-0.5,0.7-0.9,1-0.9c0.2,0,0.5-0.1,0.7-0.1c0.4-0.1,0.6,0.2,0.6,0.6l0.1,2.9
			c0,0.4,0.2,0.6,0.5,0.8v0l2.8,1.9l0.2-3.6l1.6-1c0.6-0.4,1.1-1.3,1.1-2.1l-0.1-2.9c0-0.5,0.2-1.1,0.6-1.5c0.2-0.2,0.4-0.5,0.6-0.8
			c0.4-0.4,0.8-0.6,1.1-0.5l6-5.2c0.4-0.8,0.4-1.7-0.1-1.9l-1.8-0.9c-0.3-0.1-0.4-0.6-0.2-1.1c0.1-0.3,0.2-0.7,0.3-1.1
			c0.1-0.5,0.5-1,0.8-1.3l2.4-1.6c0.6-0.4,1.1-1.3,1.1-2.1l-0.1-1.9l2.7-1.4l-0.1-0.4c-0.2-1-1.1-1.8-2.2-1.8h-1.2v0
			c-0.2,0-0.4,0-0.6,0.2l-2.4,1.6c-0.4,0.3-0.7,0.2-0.9-0.2c-0.1-0.2-0.2-0.4-0.3-0.6c-0.2-0.3-0.1-0.9,0.1-1.4l1.6-3.1
			c0.4-0.8,3.3,0.5,3.3,0.5l-2.2-3.4c-0.2-0.4-0.6-0.6-1.1-0.6h-3.3v0c-0.4,0-0.9,0.5-1.3,1.1l-1.6,3.2c-0.3,0.5-0.7,0.9-1,0.9
			c-0.2,0-0.5,0.1-0.7,0.1c-0.4,0.1-0.6-0.2-0.6-0.6l0-0.2l2.4-0.1l0.3-1.1l-3.5-2.2v0c-0.2,0-0.3,0.1-0.5,0.2l-3.9,2.6
			c-0.6,0.4-1.1,1.3-1.1,2.1l0.1,2.9c0,0.5-0.2,1.1-0.6,1.5c-0.2,0.2-0.4,0.5-0.6,0.8c-0.1,0.1-0.2,0.2-0.3,0.3l-2.5-0.8
			c-0.1-0.1-0.3-0.1-0.5,0h0v0c-0.4,0.1-0.8,0.5-1.1,1l-2.6,5.1c-0.4,0.8-0.4,1.7,0.1,1.9l2.3,1.2c0,0.1-0.3,1.1-0.5,1.9
			c-0.1,0.5-0.5,1-0.8,1.3l-2.4,1.6C135.7,93.7,135.2,94.6,135.3,95.3z M144.9,87.5c1.4-3.5,4.2-6.4,6.7-6.7
			c3.2-0.4,4.6,3.5,2.7,8.3c-1.4,3.5-4.2,6.4-6.7,6.7C144.4,96.2,143.1,92.3,144.9,87.5z"/>
		<path id="XMLID_27_" class="st64" d="M135.3,95.3l0.2,4.7c0,0.5,0.5,0.8,0.5,0.8v0h0c0.7,0.6,2.7,1.7,2.7,1.7L139,99l0,0
			c0.4-0.3,0.7-0.2,0.9,0.2c0.1,0.2,0.2,0.4,0.3,0.6c0.2,0.3,0.1,0.9-0.1,1.4l-1.6,3.1c-0.4,0.8-0.4,1.7,0.1,1.9l2.8,1.7
			c0.1,0,0.3-0.2,0.4-0.2v0l3.3,0v-2.6h-1.2l0.9-1.7c0.3-0.5,0.7-0.9,1-0.9c0.2,0,0.5-0.1,0.7-0.1c0.4-0.1,0.6,0.2,0.6,0.6l0.1,2.9
			c0,0.4,0.2,0.6,0.5,0.8v0l2.8,1.9l0.2-3.6l1.6-1c0.6-0.4,1.1-1.3,1.1-2.1l-0.1-2.9c0-0.5,0.2-1.1,0.6-1.5c0.2-0.2,0.4-0.5,0.6-0.8
			c0.4-0.4,0.8-0.6,1.1-0.5l6-5.2c0.4-0.8,0.4-1.7-0.1-1.9l-1.8-0.9c-0.3-0.1-0.4-0.6-0.2-1.1c0.1-0.3,0.2-0.7,0.3-1.1
			c0.1-0.5,0.5-1,0.8-1.3l2.4-1.6c0.6-0.4,1.1-1.3,1.1-2.1l-0.1-1.9l2.7-1.4l-0.1-0.4c-0.2-1-1.1-1.8-2.2-1.8h-1.2v0
			c-0.2,0-0.4,0-0.6,0.2l-2.4,1.6c-0.4,0.3-0.7,0.2-0.9-0.2c-0.1-0.2-0.2-0.4-0.3-0.6c-0.2-0.3-0.1-0.9,0.1-1.4l1.6-3.1
			c0.4-0.8,3.3,0.5,3.3,0.5l-2.2-3.4c-0.2-0.4-0.6-0.6-1.1-0.6h-3.3v0c-0.4,0-0.9,0.5-1.3,1.1l-1.6,3.2c-0.3,0.5-0.7,0.9-1,0.9
			c-0.2,0-0.5,0.1-0.7,0.1c-0.4,0.1-0.6-0.2-0.6-0.6l0-0.2l2.4-0.1l0.3-1.1l-3.5-2.2v0c-0.2,0-0.3,0.1-0.5,0.2l-3.9,2.6
			c-0.6,0.4-1.1,1.3-1.1,2.1l0.1,2.9c0,0.5-0.2,1.1-0.6,1.5c-0.2,0.2-0.4,0.5-0.6,0.8c-0.1,0.1-0.2,0.2-0.3,0.3l-2.5-0.8
			c-0.1-0.1-0.3-0.1-0.5,0h0v0c-0.4,0.1-0.8,0.5-1.1,1l-2.6,5.1c-0.4,0.8-0.4,1.7,0.1,1.9l2.3,1.2c0,0.1-0.3,1.1-0.5,1.9
			c-0.1,0.5-0.5,1-0.8,1.3l-2.4,1.6C135.7,93.7,135.2,94.6,135.3,95.3z M144.9,87.5c1.4-3.5,4.2-6.4,6.7-6.7
			c3.2-0.4,4.6,3.5,2.7,8.3c-1.4,3.5-4.2,6.4-6.7,6.7C144.4,96.2,143.1,92.3,144.9,87.5z"/>
		<linearGradient id="XMLID_127_" gradientUnits="userSpaceOnUse" x1="138.2935" y1="90.2943" x2="166.9985" y2="90.2943">
			<stop  offset="0" style="stop-color:#FF9800"/>
			<stop  offset="0.6264" style="stop-color:#FFB004"/>
			<stop  offset="1" style="stop-color:#FFC107"/>
		</linearGradient>
		<path id="XMLID_24_" class="st65" d="M142.6,92.4c-0.1,0.5-0.5,1-0.8,1.3l-2.4,1.6c-0.6,0.4-1.1,1.3-1.1,2.1l0.2,4.7
			c0,0.7,0.6,1,1.2,0.6l2.4-1.6c0.4-0.3,0.7-0.2,0.9,0.2c0.1,0.2,0.2,0.4,0.3,0.6c0.2,0.3,0.1,0.9-0.1,1.4l-1.6,3.1
			c-0.4,0.8-0.4,1.7,0.1,1.9l2.9,1.5c0.5,0.2,1.2-0.2,1.6-1l1.6-3.2c0.3-0.5,0.7-0.9,1-0.9c0.2,0,0.5-0.1,0.7-0.1
			c0.4-0.1,0.6,0.2,0.6,0.6l0.1,2.9c0,0.7,0.6,1,1.2,0.6l3.9-2.6c0.6-0.4,1.1-1.3,1.1-2.1l-0.1-2.9c0-0.5,0.2-1.1,0.6-1.5
			c0.2-0.2,0.4-0.5,0.6-0.8c0.4-0.4,0.8-0.6,1.1-0.5l1.8,0.9c0.5,0.2,1.2-0.2,1.6-1l2.6-5.1c0.4-0.8,0.4-1.7-0.1-1.9l-1.8-0.9
			c-0.3-0.1-0.4-0.6-0.2-1.1c0.1-0.3,0.2-0.7,0.3-1.1c0.1-0.5,0.5-1,0.8-1.3l2.4-1.6c0.6-0.4,1.1-1.3,1.1-2.1l-0.2-4.7
			c0-0.7-0.6-1-1.2-0.6l-2.4,1.6c-0.4,0.3-0.7,0.2-0.9-0.2c-0.1-0.2-0.2-0.4-0.3-0.6c-0.2-0.3-0.1-0.9,0.1-1.4l1.6-3.1
			c0.4-0.8,0.4-1.7-0.1-1.9l-2.9-1.5c-0.5-0.2-1.2,0.2-1.6,1l-1.6,3.2c-0.3,0.5-0.7,0.9-1,0.9c-0.2,0-0.5,0.1-0.7,0.1
			c-0.4,0.1-0.6-0.2-0.6-0.6l-0.1-2.9c0-0.7-0.6-1-1.2-0.6l-3.9,2.6c-0.6,0.4-1.1,1.3-1.1,2.1l0.1,2.9c0,0.5-0.2,1.1-0.6,1.5
			c-0.2,0.2-0.4,0.5-0.6,0.8c-0.4,0.4-0.8,0.6-1.1,0.5l-1.8-0.9c-0.5-0.2-1.2,0.2-1.6,1l-2.6,5.1c-0.4,0.8-0.4,1.7,0.1,1.9l2.3,1.2
			C143.1,90.5,142.8,91.5,142.6,92.4z M150.7,97.8c-3.2,0.4-4.6-3.5-2.7-8.3c1.4-3.5,4.2-6.4,6.7-6.7c3.2-0.4,4.6,3.5,2.7,8.3
			C156,94.6,153.1,97.5,150.7,97.8z"/>
	</g>
	<path id="XMLID_74_" class="st64" d="M129.7,64.4L129.7,64.4L129.7,64.4c-0.6-0.4-1.1-0.8-1.8-1l-0.5-0.3c-0.3-0.2-0.7-0.4-1-0.6
		l0,0l0,0c-2.5-1.2-5.8-0.8-9.4,1.3c-7.8,4.5-14.2,15.5-14.2,24.5c0,5.3,2.2,8.7,5.6,9.8l0,0l0,0c0.6,0.2,1.2,0.3,1.9,0.3l1.9,0.3
		l0-0.1c2,0.2,4.4-0.4,6.9-1.8c1.6-0.9,3.1-2.1,4.5-3.5h4.7c0.5,0,0.9-0.4,0.9-0.9V86c2.4-4.2,3.8-9,3.8-13.2
		C133,68.9,131.7,66,129.7,64.4z"/>
	<g>
		
			<linearGradient id="XMLID_128_" gradientUnits="userSpaceOnUse" x1="-72.2283" y1="80.7671" x2="-43.9034" y2="80.7671" gradientTransform="matrix(-1 0 0 1 61.3728 0)">
			<stop  offset="0" style="stop-color:#FFFFFF"/>
			<stop  offset="0.2097" style="stop-color:#F2F7FD"/>
			<stop  offset="0.6006" style="stop-color:#CFE3F6"/>
			<stop  offset="0.9962" style="stop-color:#A5CBEF"/>
		</linearGradient>
		<path id="XMLID_437_" class="st66" d="M105.3,88.8c0-9,6.4-20,14.2-24.5c3.6-2.1,6.9-2.4,9.4-1.3l0,0l0,0c0.4,0.2,0.7,0.4,1,0.6
			l2.3,1.3l-0.3,0.7c1.1,1.7,1.7,4,1.7,6.8c0,4.4-1.5,9.2-3.9,13.5v6.6c0,0.5-0.4,0.9-0.9,0.9H124c-1.4,1.4-3,2.6-4.6,3.5
			c-1.7,1-3.2,1.5-4.7,1.8l-0.1,0.4l-1.9-0.3c-0.7,0-1.3-0.1-1.9-0.3l0,0l0,0C107.5,97.5,105.3,94.1,105.3,88.8z"/>
		<path id="XMLID_436_" class="st43" d="M121.6,65.3c7.6-4.4,13.9-0.8,13.9,8c0,4.3-1.5,9-3.8,13.2V93c0,0.5-0.4,0.9-0.9,0.9h-4.7
			c-1.4,1.4-2.9,2.5-4.5,3.5c-7.6,4.4-13.9,0.8-13.9-8C107.7,80.5,114,69.7,121.6,65.3z"/>
		<path id="XMLID_435_" class="st67" d="M122,68.9c5.8-3.5,10.6-0.6,10.6,6.3s-4.8,15.6-10.6,19c-5.8,3.5-10.6,0.6-10.6-6.3
			S116.2,72.4,122,68.9z"/>
	</g>
	<path id="XMLID_73_" class="st64" d="M153.2,142.1v-32.6l-12.6,7.3c-0.8,0.5-1.5,1.7-1.5,2.6v29.3c0,0.3,0.2,0.5,0.4,0.7l0.6,0.3
		l0,0l0,0L153.2,142.1z"/>
	<g>
		
			<linearGradient id="XMLID_129_" gradientUnits="userSpaceOnUse" x1="-308.6475" y1="127.0756" x2="-277.0522" y2="127.0756" gradientTransform="matrix(-1 0 0 1 -135.4092 0)">
			<stop  offset="0" style="stop-color:#FFFFFF"/>
			<stop  offset="0.3956" style="stop-color:#D5E7F8"/>
			<stop  offset="0.7864" style="stop-color:#B2D3F1"/>
			<stop  offset="0.9962" style="stop-color:#A5CBEF"/>
		</linearGradient>
		<path id="XMLID_307_" class="st68" d="M173.2,104.2v-0.6c0-0.2-0.1-0.4-0.3-0.5l-0.7-0.4c-0.4-0.2-0.8-0.2-1.2,0l-28,16.2
			c-0.8,0.5-1.5,1.7-1.5,2.6v29.3c0,0.3,0.2,0.5,0.4,0.7l0.6,0.3l30.3-17.5L173.2,104.2z"/>
		<path id="XMLID_33_" class="st43" d="M173.6,104.2c0-1-0.7-1.3-1.5-0.9l-27.9,16.1c-0.8,0.5-1.5,1.7-1.5,2.6v29.6l30.9-17.9
			L173.6,104.2z"/>
		<path id="XMLID_305_" class="st69" d="M144.2,119.5l27.9-16.1c0.8-0.5,1.5-0.1,1.5,0.9v4.2l-30.9,17.9v-4.2
			C142.7,121.1,143.4,120,144.2,119.5z"/>
		<path id="XMLID_22_" class="st45" d="M151.2,117.8c0.3-0.2,0.6,0,0.6,0.3c0,0.4-0.3,0.8-0.6,1c-0.3,0.2-0.6,0-0.6-0.3
			S150.9,118,151.2,117.8z"/>
		<path id="XMLID_303_" class="st45" d="M148.4,119.4c0.3-0.2,0.6,0,0.6,0.3c0,0.4-0.3,0.8-0.6,1c-0.3,0.2-0.6,0-0.6-0.3
			C147.8,120.1,148.1,119.6,148.4,119.4z"/>
		<path id="XMLID_302_" class="st45" d="M145.6,121.1c0.3-0.2,0.6,0,0.6,0.3s-0.3,0.8-0.6,1c-0.3,0.2-0.6,0-0.6-0.3
			C145.1,121.7,145.3,121.2,145.6,121.1z"/>
		<polygon id="XMLID_301_" class="st45" points="158.3,119.7 144.1,127.9 144.1,128.8 158.3,120.6 		"/>
		<polygon id="XMLID_21_" class="st45" points="164,116.4 159.1,119.2 159.1,120.2 164,117.3 		"/>
		<linearGradient id="XMLID_130_" gradientUnits="userSpaceOnUse" x1="157.519" y1="122.1042" x2="161.5616" y2="122.1042">
			<stop  offset="0.1499" style="stop-color:#FF9800"/>
			<stop  offset="1" style="stop-color:#FFC107"/>
		</linearGradient>
		<polygon id="XMLID_299_" class="st70" points="161.6,120.5 157.5,122.8 157.5,123.7 161.6,121.4 		"/>
		<polygon id="XMLID_298_" class="st45" points="156.8,123.2 151.3,126.4 151.3,127.3 156.8,124.1 		"/>
		<polygon id="XMLID_297_" class="st45" points="156.2,126.3 144.1,133.3 144.1,134.2 156.2,127.2 		"/>
		<linearGradient id="XMLID_135_" gradientUnits="userSpaceOnUse" x1="157.4406" y1="125.1187" x2="160.634" y2="125.1187">
			<stop  offset="0.1499" style="stop-color:#FF9800"/>
			<stop  offset="1" style="stop-color:#FFC107"/>
		</linearGradient>
		<polygon id="XMLID_296_" class="st71" points="160.6,123.7 157.4,125.6 157.4,126.5 160.6,124.7 		"/>
		<polygon id="XMLID_295_" class="st45" points="172.2,117.1 162.1,122.9 162.1,123.8 172.2,118 		"/>
		<polygon id="XMLID_294_" class="st45" points="156,128.9 147.8,133.7 147.8,134.7 156,129.9 		"/>
		<linearGradient id="XMLID_136_" gradientUnits="userSpaceOnUse" x1="156.6544" y1="128.3822" x2="158.8631" y2="128.3822">
			<stop  offset="0.1499" style="stop-color:#FF9800"/>
			<stop  offset="1" style="stop-color:#FFC107"/>
		</linearGradient>
		<polygon id="XMLID_293_" class="st72" points="158.9,127.3 156.7,128.6 156.7,129.5 158.9,128.2 		"/>
		<polygon id="XMLID_292_" class="st45" points="163.6,127.4 146.3,137.4 146.3,138.3 163.6,128.3 		"/>
		<polygon id="XMLID_291_" class="st45" points="170.8,123.3 164.4,126.9 164.4,127.9 170.8,124.2 		"/>
		<polygon id="XMLID_290_" class="st45" points="160.1,132.1 144.1,141.3 144.1,142.2 160.1,133.1 		"/>
		<polygon id="XMLID_289_" class="st45" points="167.6,127.8 161,131.7 161,132.6 167.6,128.7 		"/>
		<linearGradient id="XMLID_137_" gradientUnits="userSpaceOnUse" x1="168.2455" y1="126.734" x2="172.1964" y2="126.734">
			<stop  offset="0.1499" style="stop-color:#FF9800"/>
			<stop  offset="1" style="stop-color:#FFC107"/>
		</linearGradient>
		<polygon id="XMLID_288_" class="st73" points="172.2,125.1 168.2,127.4 168.2,128.3 172.2,126.1 		"/>
		<linearGradient id="XMLID_140_" gradientUnits="userSpaceOnUse" x1="146.9554" y1="142.0107" x2="149.2292" y2="142.0107">
			<stop  offset="0.1499" style="stop-color:#FF9800"/>
			<stop  offset="1" style="stop-color:#FFC107"/>
		</linearGradient>
		<polygon id="XMLID_287_" class="st74" points="149.2,140.9 147,142.2 147,143.1 149.2,141.8 		"/>
		<polygon id="XMLID_286_" class="st45" points="152.1,139.2 149.9,140.4 149.9,141.4 152.1,140.1 		"/>
		<polygon id="XMLID_285_" class="st45" points="159.4,137.8 144.1,146.7 144.1,147.6 159.4,138.8 		"/>
		<polygon id="XMLID_284_" class="st45" points="166.3,133.9 161.4,136.7 161.4,137.6 166.3,134.8 		"/>
		<linearGradient id="XMLID_141_" gradientUnits="userSpaceOnUse" x1="169.6423" y1="131.6962" x2="172.1964" y2="131.6962">
			<stop  offset="0.1499" style="stop-color:#FF9800"/>
			<stop  offset="1" style="stop-color:#FFC107"/>
		</linearGradient>
		<polygon id="XMLID_283_" class="st75" points="172.2,130.5 169.6,132 169.6,132.9 172.2,131.4 		"/>
	</g>
	<g id="XMLID_3_">
		<path id="XMLID_163_" class="st43" d="M127.9,195.2l0.7-0.2c1.1-0.3,2.3-0.1,3.2,0.6l0.7-0.5l0.7,1.7l3.5-0.3l-0.8,3.1
			c0,0.2-0.2,0.4-0.4,0.4l-1.4,0.4c-1.2,0.3-2.5,0-3.4-0.8l-3.2-3C127.1,196.1,127.3,195.4,127.9,195.2z"/>
		<path id="XMLID_70_" class="st46" d="M127.9,195.2l0.7-0.2c1.1-0.3,2.3-0.1,3.2,0.6l0.7-0.5l0.7,1.7l3.5-0.3l-0.4,1.6
			c-0.2,0.7-0.7,1.3-1.4,1.5l-0.6,0.2c-1.2,0.3-2.5,0-3.4-0.8l-3.2-3c-0.1-0.1-0.2-0.2-0.2-0.4C127.6,195.4,127.7,195.3,127.9,195.2
			z"/>
		<path id="XMLID_69_" class="st43" d="M132.8,196.4c-0.7-0.7-0.5-1.5,0.4-1.8c1-0.3,2.4,0.1,3.1,0.8c0.7,0.7,0.5,1.5-0.4,1.8
			C134.9,197.4,133.5,197.1,132.8,196.4z"/>
		<g id="XMLID_66_">
			<path id="XMLID_68_" class="st76" d="M134.7,196.5c0.6,0,1.1-0.5,1.1-1.1v-4.4c0-0.6-0.5-1.1-1.1-1.1c-0.6,0-1.1,0.5-1.1,1.1v4.4
				C133.5,196,134,196.5,134.7,196.5z"/>
		</g>
		<g id="XMLID_64_">
			<linearGradient id="XMLID_142_" gradientUnits="userSpaceOnUse" x1="132.362" y1="179.5968" x2="136.4607" y2="179.5968">
				<stop  offset="0" style="stop-color:#FFFFFF"/>
				<stop  offset="1" style="stop-color:#A8D9FB"/>
			</linearGradient>
			<path id="XMLID_65_" class="st77" d="M134.7,195.1C134.7,195.1,134.7,195.1,134.7,195.1c1.1,0,1.8,0.4,1.8-0.6l-0.5-11.5
				l0.5-17.3c0-1-0.8-1.8-1.8-1.9c-1,0-2.3,0.8-2.3,1.8l0,17.5l0,0.1l0.5,11.5C132.9,195.7,133.7,195.1,134.7,195.1z"/>
		</g>
		<path id="XMLID_62_" class="st43" d="M123,199.6l0.6-0.4c1-0.6,2.2-0.7,3.3-0.2l0.6-0.7l1.1,1.4l3.3-1.1v3.2
			c0,0.2-0.1,0.4-0.3,0.5l-1.3,0.7c-1.1,0.6-2.4,0.6-3.5,0L123,201C122.5,200.7,122.5,199.9,123,199.6z"/>
		<path id="XMLID_61_" class="st46" d="M123,199.6l0.6-0.4c1-0.6,2.2-0.7,3.3-0.2l0.6-0.7l1.1,1.4l3.3-1.1v1.7c0,0.7-0.4,1.4-1,1.8
			l-0.5,0.3c-1.1,0.6-2.4,0.6-3.5,0l-3.8-2.2c-0.1-0.1-0.2-0.2-0.3-0.3C122.8,199.8,122.9,199.7,123,199.6z"/>
		<path id="XMLID_60_" class="st43" d="M128.1,199.6c-0.9-0.5-0.9-1.3,0-1.8c0.9-0.5,2.3-0.5,3.2,0c0.9,0.5,0.9,1.3,0,1.8
			C130.4,200.1,128.9,200.1,128.1,199.6z"/>
		<g id="XMLID_55_">
			<path id="XMLID_58_" class="st76" d="M129.7,199.4c0.6,0,1.1-0.5,1.1-1.1v-4.4c0-0.6-0.5-1.1-1.1-1.1c-0.6,0-1.1,0.5-1.1,1.1v4.4
				C128.5,198.9,129,199.4,129.7,199.4z"/>
		</g>
		<g id="XMLID_51_">
			<path id="XMLID_52_" class="st46" d="M134.7,168.7c0.5,0,0.9-0.2,1.1-0.7l2.4-4.1c2.5-4.3,1.4-9.7-2.6-12.7l-0.6-0.5
				c-0.6-0.4-1.4-0.3-1.8,0.2c-0.4,0.6-0.3,1.4,0.2,1.8l0.6,0.5c2.9,2.2,3.7,6.2,1.9,9.3l-2.4,4.1c-0.4,0.6-0.1,1.4,0.5,1.8
				C134.2,168.7,134.4,168.7,134.7,168.7z"/>
		</g>
		<g id="XMLID_48_">
			<linearGradient id="XMLID_143_" gradientUnits="userSpaceOnUse" x1="126.8678" y1="182.6248" x2="134.4121" y2="182.6248">
				<stop  offset="0" style="stop-color:#FFFFFF"/>
				<stop  offset="1" style="stop-color:#A8D9FB"/>
			</linearGradient>
			<path id="XMLID_50_" class="st78" d="M129.7,198.5c0,0,0.1,0,0.1,0c1-0.1,1.7,0,1.6-1l-1-13.2l3.9-17c0.1-1-3.6-0.3-4.6-0.4
				c-1-0.1-1.9,0.7-1.9,1.7l-1,15.8l1,13.4C127.9,198.7,128.7,198.5,129.7,198.5z"/>
		</g>
		<path id="XMLID_45_" class="st52" d="M135.8,168.1c-0.2,0.4-0.7,0.7-1.1,0.7c-0.2,0-0.4-0.1-0.7-0.2c-0.6-0.4-0.8-1.2-0.5-1.8
			l2.4-4.1c0.4-0.7,0.7-1.4,0.8-2.1c0,1.2,0.1,2.4,0.2,3.6l0.2,1.7L135.8,168.1z"/>
		<path id="XMLID_44_" class="st46" d="M136.8,144.4l-5.7,3.3c-2.5,1.4-4.1,4.1-4.1,7v16.1c2.3,1.6,8.5-0.6,9.7-3.2l-0.4-3.5
			c-0.2-1.4-0.3-2.8-0.2-4.2L136.8,144.4z"/>
		<path id="XMLID_43_" class="st48" d="M134.6,147.9L134.6,147.9v-7.7h-6.7v1C127.9,144.9,130.9,147.9,134.6,147.9z"/>
		<path id="XMLID_42_" class="st48" d="M132.4,149.2L132.4,149.2c0.8,0,1.4-0.6,1.4-1.4v-4.2H131v4.2
			C131,148.6,131.6,149.2,132.4,149.2z"/>
		<path id="XMLID_41_" class="st52" d="M127.1,158.2c0.2-0.1,0.7-0.3,0.7-1l0.5-4.1c0.1-0.7,0.7-1.2,1.5-1.1
			c0.7,0.1,0.8,0.8,0.7,1.6l-0.1,4c-0.2,1.5-1.2,2.7-2.7,3.2c-0.2,0.1-0.4,0.1-0.7,0.1V158.2z"/>
		<path id="XMLID_20_" class="st46" d="M123.8,158.9l-3.8-4.3c-0.5-0.5-0.4-1.4,0.1-1.9c0.5-0.5,1.4-0.4,1.9,0.1l3.8,4.3
			c0.5,0.5,1.1,0.4,1.2,0.4c0.2-0.1,0.7-0.3,0.8-1l0.5-4.1c0.1-0.7,0.7-1.2,1.5-1.1c0.7,0.1,1.2,0.8,1.1,1.5l-0.5,4.1
			c-0.2,1.5-1.2,2.7-2.7,3.2c-0.4,0.1-0.8,0.2-1.1,0.2C125.6,160.2,124.5,159.7,123.8,158.9z"/>
		<g id="XMLID_18_">
			<path id="XMLID_19_" class="st48" d="M122.6,153.5l-0.6-0.7c-0.5-0.5-1.3-0.6-1.9-0.1c-0.5,0.5-0.6,1.3-0.1,1.9l0.8,0.9
				L122.6,153.5z"/>
		</g>
		<circle id="XMLID_17_" class="st48" cx="120.3" cy="153.3" r="1.6"/>
		<path id="XMLID_14_" class="st48" d="M119,150.6l2,2.1c0.1,0.1,0.4,0.1,0.5,0l0,0c0.1-0.1,0.1-0.4,0-0.5l-2-2.1
			c-0.1-0.1-0.4-0.1-0.5,0l0,0C118.9,150.2,118.9,150.4,119,150.6z"/>
		<g id="XMLID_8_">
			<linearGradient id="XMLID_144_" gradientUnits="userSpaceOnUse" x1="127.0477" y1="146.889" x2="139.0325" y2="146.889">
				<stop  offset="0" style="stop-color:#FF9800"/>
				<stop  offset="0.6264" style="stop-color:#FFB004"/>
				<stop  offset="1" style="stop-color:#FFC107"/>
			</linearGradient>
			<path id="XMLID_125_" class="st79" d="M127.5,138.9c1.2-1.4,3.8-1,5.3-0.5c1.8,0.6,4.1,1.3,4.5,3.5c0.1,0.6,0,1.1,0,1.7
				c0,1.3,0.3,2.6,0.9,3.8c0.8,1.7,1.2,2.7,0.4,4.5c-0.5,1-0.9,2.6-1.9,3.3c-1.1,0.7-3.4,1.1-4.5,0.3c-1.5-1.1-2.2-3.8-2.1-5.5
				c0.1-1.9,1.1-3.8,0.5-5.5c-0.4-1.1-1.9-2.4-2.7-3.2C127.1,140.5,126.7,139.8,127.5,138.9z"/>
		</g>
		<g id="XMLID_72_" class="st80">
			<path id="XMLID_126_" class="st81" d="M127.5,138.9c0.7-0.8,1.9-1,3.1-0.9c-0.9,0.1-1.7,0.3-2.2,0.9c-0.8,0.9-0.4,1.6,0.4,2.3
				c0.9,0.8,2.4,2,2.7,3.2c0.6,1.8-0.4,3.7-0.5,5.5c-0.1,1.7,0.6,4.4,2.1,5.5c0.3,0.3,0.8,0.4,1.3,0.4c-0.8,0.1-1.6,0-2.2-0.4
				c-1.5-1.1-2.2-3.8-2.1-5.5c0.1-1.9,1.1-3.8,0.5-5.5c-0.4-1.1-1.9-2.4-2.7-3.2C127.1,140.5,126.7,139.8,127.5,138.9z"/>
		</g>
	</g>
	<path id="XMLID_71_" class="st64" d="M75.2,128.8l20.6-12.1c0.7-0.4,1.2-1.2,1.2-2.1V101c0-0.3-0.1-0.6-0.3-0.8l0,0
		c-0.2-0.2-0.5-0.4-0.8-0.5c0,0,0,0-0.1,0c-0.1,0-0.2,0-0.4,0c0,0-0.1,0-0.1,0c-0.1,0-0.3,0.1-0.4,0.2l-19.7,11.5V128.8z"/>
	<g>
		<linearGradient id="XMLID_145_" gradientUnits="userSpaceOnUse" x1="59.9591" y1="138.598" x2="97.2925" y2="102.9313">
			<stop  offset="0" style="stop-color:#3C5185"/>
			<stop  offset="0.128" style="stop-color:#41588E"/>
			<stop  offset="0.6948" style="stop-color:#5573B1"/>
			<stop  offset="1" style="stop-color:#5D7DBE"/>
		</linearGradient>
		<path id="XMLID_567_" class="st82" d="M97,104v13.7c0,0.8-0.5,1.6-1.2,2.1L61,140.1c-0.9,0.5-2-0.1-2-1.2v-13.9
			c0-0.8,0.5-1.6,1.2-2.1L95,102.8C95.9,102.3,97,103,97,104z"/>
		<linearGradient id="XMLID_146_" gradientUnits="userSpaceOnUse" x1="58.9933" y1="121.4616" x2="96.6983" y2="121.4616">
			<stop  offset="3.802050e-003" style="stop-color:#A5CBEF"/>
			<stop  offset="0.2136" style="stop-color:#B2D3F1"/>
			<stop  offset="0.6044" style="stop-color:#D5E7F8"/>
			<stop  offset="1" style="stop-color:#FFFFFF"/>
		</linearGradient>
		<path id="XMLID_417_" class="st83" d="M60,139.4v-13.9c0-0.8,0.5-1.6,1.2-2.1L96,103.3c0.2-0.1,0.5-0.2,0.7-0.2
			c-0.4-0.5-1.1-0.7-1.7-0.3L60.2,123c-0.7,0.4-1.2,1.2-1.2,2.1v13.9c0,0.8,0.6,1.3,1.3,1.3C60.1,140.1,60,139.8,60,139.4z"/>
		<path id="XMLID_566_" class="st45" d="M89.4,114.4c0.1-1.1,0.8-2.2,1.5-2.5c0.4-0.1,0.7,0,0.9,0.3c0.3-0.5,0.6-0.8,1-0.9
			c0.7-0.3,1.3,0.4,1.2,1.5c0,0.5-0.2,1.1-0.5,1.5l-1.6,3.1c0,0-1.8-1.4-2.3-1.9C89.4,115.3,89.4,114.9,89.4,114.4z"/>
		<path id="XMLID_413_" class="st45" d="M74.1,122.5c1.3-0.7,2.3-0.1,2.3,1.3c0,0.7-0.2,1.5-0.6,2.2v1.1c0,0.1-0.1,0.1-0.1,0.1h-0.8
			c-0.2,0.2-0.5,0.4-0.7,0.6c-1.3,0.7-2.3,0.1-2.3-1.3C71.8,125,72.9,123.3,74.1,122.5z"/>
		<g id="XMLID_597_">
			<path class="st45" d="M66.6,129c0.1-0.2,0.1-0.3,0.1-0.4c0-0.1,0-0.2-0.1-0.3c0-0.1-0.1-0.1-0.2,0c-0.1,0.1-0.3,0.3-0.4,0.7
				l-0.4-0.2c0.1-0.3,0.2-0.6,0.4-0.8c0.1-0.2,0.3-0.4,0.5-0.5c0.2-0.1,0.4-0.1,0.5,0c0.1,0.1,0.2,0.3,0.2,0.7c0,0.2,0,0.4-0.1,0.6
				c-0.1,0.2-0.2,0.5-0.3,0.8l-0.4,0.9l0.9-0.5l0,0.7l-1.6,0.9l0-0.6l0.7-1.4C66.4,129.3,66.5,129.1,66.6,129z"/>
			<path class="st45" d="M69,126.2l0,0.7l-0.9,0.5l0,0.6c0.1-0.1,0.1-0.1,0.2-0.2c0.2-0.1,0.4-0.1,0.5,0c0.1,0.1,0.2,0.4,0.2,0.7
				c0,0.4-0.1,0.7-0.3,1c-0.2,0.3-0.4,0.5-0.6,0.7c-0.3,0.2-0.5,0.1-0.7-0.1l0.3-0.7c0,0,0,0,0.1,0.1c0,0,0.1,0.1,0.2,0.1
				c0.1,0,0.2,0,0.2,0c0.1,0,0.2-0.1,0.2-0.2c0.1-0.1,0.1-0.3,0.1-0.4c0-0.2,0-0.3-0.1-0.3c-0.1,0-0.2,0-0.3,0
				c-0.1,0.1-0.2,0.2-0.4,0.4l-0.2-0.2l0.1-1.7L69,126.2z"/>
			<path class="st45" d="M70.9,125.2l0,0.7l-0.9,0.5l0,0.6c0.1-0.1,0.1-0.1,0.2-0.2c0.2-0.1,0.4-0.1,0.5,0c0.1,0.1,0.2,0.4,0.2,0.7
				c0,0.4-0.1,0.7-0.3,1c-0.2,0.3-0.4,0.5-0.6,0.7c-0.3,0.2-0.5,0.1-0.7-0.1l0.3-0.7c0,0,0,0,0.1,0.1c0,0,0.1,0.1,0.2,0.1
				c0.1,0,0.2,0,0.2,0c0.1,0,0.2-0.1,0.2-0.2c0.1-0.1,0.1-0.3,0.1-0.4c0-0.2,0-0.3-0.1-0.3c-0.1,0-0.2,0-0.3,0
				c-0.1,0.1-0.2,0.2-0.4,0.4l-0.2-0.2l0.1-1.7L70.9,125.2z"/>
		</g>
		<g id="XMLID_414_">
			<path class="st45" d="M84.3,119.5l0-0.6l0.5-0.3l0,0.6l0.2-0.1l0,0.7l-0.2,0.1l0,0.8l-0.5,0.3l0-0.8l-0.9,0.5l0-0.6l0.8-2.5
				l0.5-0.3l-0.8,2.4L84.3,119.5z"/>
			<path class="st45" d="M86.3,117c-0.1,0.1-0.2,0.2-0.3,0.4c-0.1,0.2-0.1,0.4-0.2,0.7c0.1-0.2,0.3-0.4,0.4-0.5
				c0.2-0.1,0.4-0.1,0.5,0c0.1,0.1,0.2,0.4,0.2,0.8c0,0.4-0.1,0.7-0.2,1c-0.2,0.3-0.3,0.5-0.6,0.6c-0.2,0.1-0.3,0.1-0.4,0.1
				c-0.1,0-0.2-0.1-0.3-0.3c-0.1-0.3-0.2-0.6-0.2-1.2c0-0.3,0-0.6,0.1-0.9c0.1-0.3,0.1-0.5,0.2-0.7c0.2-0.4,0.4-0.6,0.6-0.8
				c0.1-0.1,0.2-0.1,0.3-0.1c0.1,0,0.2,0,0.2,0c0,0,0.1,0.1,0.2,0.1l-0.3,0.7c0,0,0,0-0.1,0c0,0-0.1,0-0.1-0.1
				C86.4,116.9,86.4,116.9,86.3,117z M86.2,118.3c-0.1,0.1-0.2,0.1-0.3,0.3c-0.1,0.1-0.1,0.3-0.1,0.4c0,0.1,0,0.3,0.1,0.3
				c0.1,0.1,0.1,0.1,0.2,0c0.1-0.1,0.2-0.1,0.2-0.3c0.1-0.1,0.1-0.3,0.1-0.4c0-0.2,0-0.3-0.1-0.3C86.4,118.2,86.3,118.2,86.2,118.3z
				"/>
			<path class="st45" d="M87.3,116.9l0-1.1l1.6-0.9l0,0.6l-1,3.5l-0.5,0.3l0.9-3.3l-0.6,0.3l0,0.5L87.3,116.9z"/>
		</g>
	</g>
	<g>
		<g id="XMLID_205_">
			<path id="XMLID_214_" class="st43" d="M115.9,83.9l0.1-2.5l3.5-2l0,1.3l-2.2,7.7l-1.2,0.7l2.1-7.4l-1.2,0.7l0,1L115.9,83.9z"/>
			<path id="XMLID_212_" class="st43" d="M119.9,81.6l0.1-2.5l3.5-2l0,1.3l-2.2,7.7l-1.2,0.7l2.1-7.4L121,80l0,1L119.9,81.6z"/>
			<path id="XMLID_206_" class="st43" d="M128.9,74.1l-3.7,9.9l-1.2,0.7l3.8-9.9L128.9,74.1z M126.2,77.4c0,0.4-0.1,0.9-0.3,1.3
				c-0.2,0.4-0.5,0.7-0.8,0.9c-0.3,0.2-0.5,0.1-0.7,0c-0.2-0.2-0.3-0.5-0.3-1c0-0.4,0.1-0.9,0.3-1.3c0.2-0.4,0.5-0.7,0.8-0.9
				c0.3-0.2,0.5-0.1,0.7,0C126.1,76.6,126.2,76.9,126.2,77.4z M124.9,78.5c0.1,0.1,0.1,0.1,0.2,0c0.1,0,0.2-0.1,0.2-0.3
				c0.1-0.1,0.1-0.3,0.1-0.4c0-0.2,0-0.3-0.1-0.4c-0.1-0.1-0.1-0.1-0.2,0c-0.1,0-0.2,0.1-0.2,0.3c-0.1,0.1-0.1,0.3-0.1,0.5
				C124.9,78.3,124.9,78.4,124.9,78.5z M128.8,80.4c0,0.4-0.1,0.9-0.3,1.3c-0.2,0.4-0.5,0.7-0.8,0.9c-0.3,0.2-0.5,0.2-0.7,0
				c-0.2-0.2-0.3-0.5-0.3-1c0-0.4,0.1-0.9,0.3-1.3c0.2-0.4,0.5-0.7,0.8-0.9c0.3-0.2,0.5-0.1,0.7,0C128.7,79.7,128.8,80,128.8,80.4z
				 M127.6,81.5c0.1,0.1,0.1,0.1,0.2,0c0.1,0,0.2-0.1,0.2-0.3c0.1-0.1,0.1-0.3,0.1-0.4s0-0.3-0.1-0.4c-0.1-0.1-0.1-0.1-0.2,0
				c-0.1,0-0.2,0.1-0.2,0.3c-0.1,0.1-0.1,0.3-0.1,0.5C127.5,81.3,127.5,81.4,127.6,81.5z"/>
		</g>
	</g>
	<g>
		<g>
			
				<radialGradient id="XMLID_147_" cx="-210.1469" cy="7842.7144" r="11.0735" gradientTransform="matrix(-1 0 0 0.5172 -39.5618 -3892.8164)" gradientUnits="userSpaceOnUse">
				<stop  offset="9.125480e-002" style="stop-color:#3C5185"/>
				<stop  offset="0.1563" style="stop-color:#506291"/>
				<stop  offset="0.379" style="stop-color:#8D9AB8"/>
				<stop  offset="0.5827" style="stop-color:#BEC5D7"/>
				<stop  offset="0.7606" style="stop-color:#E2E5ED"/>
				<stop  offset="0.9057" style="stop-color:#F7F8FA"/>
				<stop  offset="1" style="stop-color:#FFFFFF"/>
			</radialGradient>
			<path id="XMLID_483_" class="st84" d="M178.3,159c-4.3-2.5-11.2-2.5-15.5,0c-4.3,2.5-4.3,6.5,0,9c4.3,2.5,11.2,2.5,15.5,0
				C182.6,165.5,182.6,161.4,178.3,159z"/>
			<linearGradient id="XMLID_148_" gradientUnits="userSpaceOnUse" x1="162.89" y1="163.1055" x2="178.5683" y2="163.1055">
				<stop  offset="3.802050e-003" style="stop-color:#A5CBEF"/>
				<stop  offset="0.4419" style="stop-color:#CEE3F6"/>
				<stop  offset="1" style="stop-color:#FFFFFF"/>
			</linearGradient>
			<path id="XMLID_330_" class="st85" d="M162.9,161h0.9c0.4-0.4,0.8-0.8,1.4-1.1c3.1-1.8,8-1.8,11.1,0c0.6,0.3,1.1,0.7,1.4,1.1h0.9
				v2.1h0c0,1.2-0.8,2.3-2.3,3.2c-3.1,1.8-8,1.8-11.1,0c-1.5-0.9-2.3-2.1-2.3-3.2h0V161z"/>
			
				<linearGradient id="XMLID_150_" gradientUnits="userSpaceOnUse" x1="-218.1301" y1="162.7816" x2="-214.1899" y2="162.7816" gradientTransform="matrix(-1 0 0 1 -39.5618 0)">
				<stop  offset="0.1499" style="stop-color:#FF9800"/>
				<stop  offset="1" style="stop-color:#FFC107"/>
			</linearGradient>
			<path id="XMLID_329_" class="st86" d="M176.3,159.9c0.6,0.3,1.1,0.7,1.4,1.1h0.9v2.1h0c0,1.2-0.8,2.3-2.3,3.2
				c0,0-0.1,0.1-0.1,0.1v-2.1l-1.5-5.1C175.2,159.4,175.8,159.6,176.3,159.9z"/>
			<path id="XMLID_328_" class="st45" d="M176.3,157.8c-3.1-1.8-8-1.8-11.1,0c-3.1,1.8-3.1,4.6,0,6.4c3.1,1.8,8,1.8,11.1,0
				C179.3,162.5,179.3,159.6,176.3,157.8z"/>
			
				<linearGradient id="XMLID_151_" gradientUnits="userSpaceOnUse" x1="-218.1301" y1="160.3941" x2="-210.291" y2="160.3941" gradientTransform="matrix(-1 0 0 1 -39.5618 0)">
				<stop  offset="0.1499" style="stop-color:#FF9800"/>
				<stop  offset="1" style="stop-color:#FFC107"/>
			</linearGradient>
			<path id="XMLID_327_" class="st87" d="M170.7,156.5c2,0,4,0.4,5.5,1.3c3.1,1.8,3.1,4.6,0,6.4c0,0-0.1,0.1-0.1,0.1l-5.4-2.6V156.5
				z"/>
		</g>
		<g>
			
				<radialGradient id="XMLID_152_" cx="-226.7809" cy="7824.9331" r="10.7592" gradientTransform="matrix(-1 0 0 0.5172 -39.5618 -3892.8164)" gradientUnits="userSpaceOnUse">
				<stop  offset="9.125480e-002" style="stop-color:#3C5185"/>
				<stop  offset="0.1563" style="stop-color:#506291"/>
				<stop  offset="0.379" style="stop-color:#8D9AB8"/>
				<stop  offset="0.5827" style="stop-color:#BEC5D7"/>
				<stop  offset="0.7606" style="stop-color:#E2E5ED"/>
				<stop  offset="0.9057" style="stop-color:#F7F8FA"/>
				<stop  offset="1" style="stop-color:#FFFFFF"/>
			</radialGradient>
			<path id="XMLID_326_" class="st88" d="M194.8,149.9c-4.1-2.4-10.9-2.4-15.1,0c-4.1,2.4-4.1,6.3,0,8.7c4.1,2.4,10.9,2.4,15.1,0
				C198.9,156.2,198.9,152.3,194.8,149.9z"/>
			<linearGradient id="XMLID_153_" gradientUnits="userSpaceOnUse" x1="179.7424" y1="153.9185" x2="194.9756" y2="153.9185">
				<stop  offset="3.802050e-003" style="stop-color:#A5CBEF"/>
				<stop  offset="0.4419" style="stop-color:#CEE3F6"/>
				<stop  offset="1" style="stop-color:#FFFFFF"/>
			</linearGradient>
			<path id="XMLID_325_" class="st89" d="M179.7,151.9h0.9c0.3-0.4,0.8-0.8,1.4-1.1c3-1.7,7.8-1.7,10.8,0c0.6,0.3,1,0.7,1.4,1.1h0.9
				v2h0c0,1.1-0.7,2.3-2.2,3.1c-3,1.7-7.8,1.7-10.8,0c-1.5-0.9-2.2-2-2.2-3.1h0V151.9z"/>
			
				<linearGradient id="XMLID_154_" gradientUnits="userSpaceOnUse" x1="-234.5374" y1="153.6037" x2="-230.709" y2="153.6037" gradientTransform="matrix(-1 0 0 1 -39.5618 0)">
				<stop  offset="0.1499" style="stop-color:#FF9800"/>
				<stop  offset="1" style="stop-color:#FFC107"/>
			</linearGradient>
			<path id="XMLID_324_" class="st90" d="M192.8,150.8c0.6,0.3,1,0.7,1.4,1.1h0.9v2h0c0,1.1-0.7,2.3-2.2,3.1c0,0-0.1,0.1-0.1,0.1v-2
				l-1.5-5C191.7,150.3,192.3,150.5,192.8,150.8z"/>
			<path id="XMLID_323_" class="st45" d="M192.8,148.8c-3-1.7-7.8-1.7-10.8,0c-3,1.7-3,4.5,0,6.2c3,1.7,7.8,1.7,10.8,0
				C195.7,153.3,195.7,150.5,192.8,148.8z"/>
			
				<linearGradient id="XMLID_155_" gradientUnits="userSpaceOnUse" x1="-234.5375" y1="151.284" x2="-226.9209" y2="151.284" gradientTransform="matrix(-1 0 0 1 -39.5618 0)">
				<stop  offset="0.1499" style="stop-color:#FF9800"/>
				<stop  offset="1" style="stop-color:#FFC107"/>
			</linearGradient>
			<path id="XMLID_322_" class="st91" d="M187.4,147.5c2,0,3.9,0.4,5.4,1.3c3,1.7,3,4.5,0,6.2c0,0-0.1,0.1-0.1,0.1l-5.3-2.5V147.5z"
				/>
			<path id="XMLID_1_" class="st43" d="M194.9,152.6h-7.5v-5.1c2,0,3.9,0.4,5.4,1.3C194.5,149.8,195.2,151.2,194.9,152.6z"/>
		</g>
		<g>
			
				<radialGradient id="XMLID_156_" cx="-193.0304" cy="7863.4688" r="10.2656" gradientTransform="matrix(-1 0 0 0.5172 -39.5618 -3892.8164)" gradientUnits="userSpaceOnUse">
				<stop  offset="9.125480e-002" style="stop-color:#3C5185"/>
				<stop  offset="0.1563" style="stop-color:#506291"/>
				<stop  offset="0.379" style="stop-color:#8D9AB8"/>
				<stop  offset="0.5827" style="stop-color:#BEC5D7"/>
				<stop  offset="0.7606" style="stop-color:#E2E5ED"/>
				<stop  offset="0.9057" style="stop-color:#F7F8FA"/>
				<stop  offset="1" style="stop-color:#FFFFFF"/>
			</radialGradient>
			<path id="XMLID_321_" class="st92" d="M160.7,170c-4-2.3-10.4-2.3-14.4,0c-4,2.3-4,6,0,8.3c4,2.3,10.4,2.3,14.4,0
				C164.6,176,164.6,172.3,160.7,170z"/>
			<linearGradient id="XMLID_157_" gradientUnits="userSpaceOnUse" x1="145.5947" y1="173.3021" x2="161.3425" y2="173.3021">
				<stop  offset="3.802050e-003" style="stop-color:#A5CBEF"/>
				<stop  offset="0.4419" style="stop-color:#CEE3F6"/>
				<stop  offset="1" style="stop-color:#FFFFFF"/>
			</linearGradient>
			<path id="XMLID_320_" class="st93" d="M145.6,171.2h0.9c0.4-0.4,0.8-0.8,1.4-1.1c3.1-1.8,8.1-1.8,11.1,0c0.6,0.3,1.1,0.7,1.4,1.1
				h0.9v2.1h0c0,1.2-0.8,2.3-2.3,3.2c-3.1,1.8-8.1,1.8-11.1,0c-1.5-0.9-2.3-2.1-2.3-3.2h0V171.2z"/>
			<path id="XMLID_319_" class="st45" d="M159,168c-3.1-1.8-8.1-1.8-11.1,0c-3.1,1.8-3.1,4.7,0,6.4c3.1,1.8,8.1,1.8,11.1,0
				C162.1,172.7,162.1,169.8,159,168z"/>
			
				<linearGradient id="XMLID_158_" gradientUnits="userSpaceOnUse" x1="-189.2315" y1="173.3657" x2="-182.6989" y2="167.9559" gradientTransform="matrix(-1 0 0 1 -39.5618 0)">
				<stop  offset="0.1499" style="stop-color:#FF9800"/>
				<stop  offset="1" style="stop-color:#FFC107"/>
			</linearGradient>
			<path id="XMLID_139_" class="st94" d="M145.6,171.2C145.6,171.2,145.6,171.2,145.6,171.2v-1.8h0.6c0.4-0.5,0.9-1,1.7-1.5
				c2.2-1.3,0.7,3.5,0,6.4v2.1c-1.5-0.9-2.3-2-2.3-3.1L145.6,171.2z"/>
			<path id="XMLID_138_" class="st60" d="M147.9,164.5c3.1-1.8,8.1-1.8,11.1,0l-5.6,3.8L147.9,164.5z"/>
			<polygon id="XMLID_134_" class="st61" points="159,164.5 159,168 153.5,171.8 153.5,168.3 			"/>
			<polygon id="XMLID_133_" class="st43" points="153.5,168.3 147.9,164.5 147.9,168 153.5,171.8 			"/>
			
				<linearGradient id="XMLID_159_" gradientUnits="userSpaceOnUse" x1="-193.0304" y1="169.4367" x2="-185.1563" y2="169.4367" gradientTransform="matrix(-1 0 0 1 -39.5618 0)">
				<stop  offset="0.1499" style="stop-color:#FF9800"/>
				<stop  offset="1" style="stop-color:#FFC107"/>
			</linearGradient>
			<path id="XMLID_132_" class="st95" d="M147.9,166.2c-3.1,1.8-3.1,4.7,0,6.4l5.6-2.6L147.9,166.2z"/>
			
				<linearGradient id="XMLID_160_" gradientUnits="userSpaceOnUse" x1="-193.0304" y1="172.2233" x2="-187.4559" y2="172.2233" gradientTransform="matrix(-1 0 0 1 -39.5618 0)">
				<stop  offset="0.1499" style="stop-color:#FF9800"/>
				<stop  offset="1" style="stop-color:#FFC107"/>
			</linearGradient>
			<polygon id="XMLID_131_" class="st96" points="153.5,170 153.5,171.8 147.9,174.4 147.9,172.7 			"/>
		</g>
	</g>
</g>
</svg>
