<?xml version="1.0" encoding="utf-8"?>
<!-- Generator: Adobe Illustrator 19.0.0, SVG Export Plug-In . SVG Version: 6.00 Build 0)  -->
<svg version="1.1" id="Layer_1" xmlns="http://www.w3.org/2000/svg" xmlns:xlink="http://www.w3.org/1999/xlink" x="0px" y="0px"
	 viewBox="0 0 256 256" style="enable-background:new 0 0 256 256;" xml:space="preserve">
<style type="text/css">
	.st0{fill:url(#XMLID_182_);}
	.st1{opacity:0.3;}
	.st2{opacity:0;fill:#3C5185;}
	.st3{opacity:1.960800e-002;fill:#3C5185;}
	.st4{opacity:3.921600e-002;fill:#3C5185;}
	.st5{opacity:5.882400e-002;fill:#3C5185;}
	.st6{opacity:7.843100e-002;fill:#3C5185;}
	.st7{opacity:9.803900e-002;fill:#3C5185;}
	.st8{opacity:0.1176;fill:#3C5185;}
	.st9{opacity:0.1373;fill:#3C5185;}
	.st10{opacity:0.1569;fill:#3C5185;}
	.st11{opacity:0.1765;fill:#3C5185;}
	.st12{opacity:0.1961;fill:#3C5185;}
	.st13{opacity:0.2157;fill:#3C5185;}
	.st14{opacity:0.2353;fill:#3C5185;}
	.st15{opacity:0.2549;fill:#3C5185;}
	.st16{opacity:0.2745;fill:#3C5185;}
	.st17{opacity:0.2941;fill:#3C5185;}
	.st18{opacity:0.3137;fill:#3C5185;}
	.st19{opacity:0.3333;fill:#3C5185;}
	.st20{opacity:0.3529;fill:#3C5185;}
	.st21{opacity:0.3725;fill:#3C5185;}
	.st22{opacity:0.3922;fill:#3C5185;}
	.st23{opacity:0.4118;fill:#3C5185;}
	.st24{opacity:0.4314;fill:#3C5185;}
	.st25{opacity:0.451;fill:#3C5185;}
	.st26{opacity:0.4706;fill:#3C5185;}
	.st27{opacity:0.4902;fill:#3C5185;}
	.st28{opacity:0.5098;fill:#3C5185;}
	.st29{opacity:0.5294;fill:#3C5185;}
	.st30{opacity:0.549;fill:#3C5185;}
	.st31{opacity:0.5686;fill:#3C5185;}
	.st32{opacity:0.5882;fill:#3C5185;}
	.st33{opacity:0.6078;fill:#3C5185;}
	.st34{opacity:0.6275;fill:#3C5185;}
	.st35{opacity:0.6471;fill:#3C5185;}
	.st36{opacity:0.6667;fill:#3C5185;}
	.st37{opacity:0.6863;fill:#3C5185;}
	.st38{opacity:0.7059;fill:#3C5185;}
	.st39{opacity:0.7255;fill:#3C5185;}
	.st40{opacity:0.7451;fill:#3C5185;}
	.st41{opacity:0.7647;fill:#3C5185;}
	.st42{opacity:0.7843;fill:#3C5185;}
	.st43{opacity:0.8039;fill:#3C5185;}
	.st44{opacity:0.8235;fill:#3C5185;}
	.st45{opacity:0.8431;fill:#3C5185;}
	.st46{opacity:0.8627;fill:#3C5185;}
	.st47{opacity:0.8824;fill:#3C5185;}
	.st48{opacity:0.902;fill:#3C5185;}
	.st49{opacity:0.9216;fill:#3C5185;}
	.st50{opacity:0.9412;fill:#3C5185;}
	.st51{opacity:0.9608;fill:#3C5185;}
	.st52{opacity:0.9804;fill:#3C5185;}
	.st53{fill:#3C5185;}
	.st54{fill:#EDF3FA;}
	.st55{fill:url(#XMLID_183_);}
	.st56{fill:#D1E1F2;}
	.st57{fill:#7EA7DF;}
	.st58{fill:#4A65A3;}
	.st59{fill:url(#XMLID_184_);}
	.st60{opacity:0.1;fill:#FF9800;}
	.st61{fill:#FFAD33;}
	.st62{opacity:0.1;}
	.st63{opacity:2.439000e-002;fill:#3C5185;}
	.st64{opacity:4.878000e-002;fill:#3C5185;}
	.st65{opacity:7.317100e-002;fill:#3C5185;}
	.st66{opacity:9.756100e-002;fill:#3C5185;}
	.st67{opacity:0.122;fill:#3C5185;}
	.st68{opacity:0.1463;fill:#3C5185;}
	.st69{opacity:0.1707;fill:#3C5185;}
	.st70{opacity:0.1951;fill:#3C5185;}
	.st71{opacity:0.2195;fill:#3C5185;}
	.st72{opacity:0.2439;fill:#3C5185;}
	.st73{opacity:0.2683;fill:#3C5185;}
	.st74{opacity:0.2927;fill:#3C5185;}
	.st75{opacity:0.3171;fill:#3C5185;}
	.st76{opacity:0.3415;fill:#3C5185;}
	.st77{opacity:0.3659;fill:#3C5185;}
	.st78{opacity:0.3902;fill:#3C5185;}
	.st79{opacity:0.4146;fill:#3C5185;}
	.st80{opacity:0.439;fill:#3C5185;}
	.st81{opacity:0.4634;fill:#3C5185;}
	.st82{opacity:0.4878;fill:#3C5185;}
	.st83{opacity:0.5122;fill:#3C5185;}
	.st84{opacity:0.5366;fill:#3C5185;}
	.st85{opacity:0.561;fill:#3C5185;}
	.st86{opacity:0.5854;fill:#3C5185;}
	.st87{opacity:0.6098;fill:#3C5185;}
	.st88{opacity:0.6341;fill:#3C5185;}
	.st89{opacity:0.6585;fill:#3C5185;}
	.st90{opacity:0.6829;fill:#3C5185;}
	.st91{opacity:0.7073;fill:#3C5185;}
	.st92{opacity:0.7317;fill:#3C5185;}
	.st93{opacity:0.7561;fill:#3C5185;}
	.st94{opacity:0.7805;fill:#3C5185;}
	.st95{opacity:0.8049;fill:#3C5185;}
	.st96{opacity:0.8293;fill:#3C5185;}
	.st97{opacity:0.8537;fill:#3C5185;}
	.st98{opacity:0.878;fill:#3C5185;}
	.st99{opacity:0.9024;fill:#3C5185;}
	.st100{opacity:0.9268;fill:#3C5185;}
	.st101{opacity:0.9512;fill:#3C5185;}
	.st102{opacity:0.9756;fill:#3C5185;}
	.st103{fill:url(#XMLID_185_);}
	.st104{fill:#FFFFFF;}
	.st105{opacity:0.2;fill:#3C5185;}
	.st106{fill:url(#XMLID_186_);}
	.st107{fill:url(#XMLID_187_);}
	.st108{fill:url(#XMLID_188_);}
	.st109{fill:url(#XMLID_189_);}
	.st110{fill:#D3DAED;}
	.st111{fill:url(#XMLID_190_);}
	.st112{fill:url(#XMLID_191_);}
	.st113{fill:#F6F9FC;}
	.st114{fill:url(#XMLID_192_);}
	.st115{fill:url(#XMLID_193_);}
	.st116{fill:url(#XMLID_194_);}
	.st117{fill:url(#XMLID_195_);}
	.st118{fill:#A5CBEF;}
	.st119{fill:url(#XMLID_196_);}
	.st120{fill:url(#XMLID_197_);}
	.st121{fill:url(#XMLID_198_);}
	.st122{fill:url(#XMLID_199_);}
	.st123{fill:#F2B1B5;}
	.st124{fill:#63749D;}
	.st125{fill:url(#XMLID_200_);}
	.st126{fill:url(#XMLID_201_);}
	.st127{fill:url(#XMLID_202_);}
	.st128{fill:url(#XMLID_203_);}
	.st129{fill:url(#XMLID_204_);}
	.st130{fill:url(#XMLID_205_);}
	.st131{fill:#F9B888;}
	.st132{fill:url(#XMLID_206_);}
	.st133{fill:url(#XMLID_207_);}
	.st134{fill:url(#XMLID_208_);}
	.st135{fill:url(#XMLID_209_);}
</style>
<g>
	<linearGradient id="XMLID_182_" gradientUnits="userSpaceOnUse" x1="151.9698" y1="219.5446" x2="99.6348" y2="48.8868">
		<stop  offset="0.1217" style="stop-color:#FFFFFF"/>
		<stop  offset="1" style="stop-color:#E1EBF7"/>
	</linearGradient>
	<path id="XMLID_180_" class="st0" d="M211.1,139.4c0,42.4-41.9,80.9-84.4,80.9s-81.9-38.4-81.9-80.9s15.2-88.9,57.6-88.9
		S211.1,97,211.1,139.4z"/>
	<g>
		<g class="st1">
			<path id="XMLID_1418_" class="st2" d="M183.9,114.4c3.7-2.1,3.7-5.6,0-7.7c-3.7-2.1-9.7-2.1-13.4,0c-3.7,2.1-3.7,5.6,0,7.7
				C174.2,116.5,180.2,116.5,183.9,114.4z"/>
			<path id="XMLID_179_" class="st3" d="M183.8,114.3c3.6-2.1,3.6-5.5,0-7.6c-3.6-2.1-9.5-2.1-13.1,0c-3.6,2.1-3.6,5.5,0,7.6
				C174.3,116.4,180.2,116.4,183.8,114.3z"/>
			<path id="XMLID_178_" class="st4" d="M183.7,114.2c3.6-2,3.6-5.4,0-7.4c-3.6-2-9.4-2-12.9,0c-3.5,2-3.5,5.4,0,7.4
				C174.3,116.3,180.1,116.3,183.7,114.2z"/>
			<path id="XMLID_177_" class="st5" d="M183.6,114.2c3.5-2,3.5-5.3,0-7.3c-3.5-2-9.2-2-12.7,0c-3.5,2-3.5,5.3,0,7.3
				C174.4,116.2,180.1,116.2,183.6,114.2z"/>
			<path id="XMLID_176_" class="st6" d="M183.5,114.1c3.4-2,3.4-5.2,0-7.2c-3.4-2-9.1-2-12.5,0c-3.4,2-3.4,5.2,0,7.2
				C174.4,116.1,180.1,116.1,183.5,114.1z"/>
			<path id="XMLID_175_" class="st7" d="M183.4,114.1c3.4-1.9,3.4-5.1,0-7.1c-3.4-1.9-8.9-1.9-12.3,0c-3.4,1.9-3.4,5.1,0,7.1
				C174.5,116,180,116,183.4,114.1z"/>
			<path id="XMLID_174_" class="st8" d="M183.3,114c3.3-1.9,3.3-5,0-7c-3.3-1.9-8.8-1.9-12.1,0c-3.3,1.9-3.3,5,0,7
				C174.5,115.9,180,115.9,183.3,114z"/>
			<path id="XMLID_173_" class="st9" d="M183.2,113.9c3.3-1.9,3.3-5,0-6.8c-3.3-1.9-8.6-1.9-11.9,0c-3.3,1.9-3.3,5,0,6.8
				C174.6,115.8,179.9,115.8,183.2,113.9z"/>
			<path id="XMLID_172_" class="st10" d="M183.1,113.9c3.2-1.8,3.2-4.9,0-6.7c-3.2-1.8-8.5-1.8-11.7,0c-3.2,1.8-3.2,4.9,0,6.7
				C174.6,115.7,179.9,115.7,183.1,113.9z"/>
			<path id="XMLID_171_" class="st11" d="M183,113.8c3.2-1.8,3.2-4.8,0-6.6c-3.2-1.8-8.3-1.8-11.4,0c-3.1,1.8-3.1,4.8,0,6.6
				C174.7,115.6,179.8,115.6,183,113.8z"/>
			<path id="XMLID_170_" class="st12" d="M182.9,113.8c3.1-1.8,3.1-4.7,0-6.5c-3.1-1.8-8.2-1.8-11.2,0c-3.1,1.8-3.1,4.7,0,6.5
				C174.7,115.5,179.8,115.5,182.9,113.8z"/>
			<path id="XMLID_169_" class="st13" d="M182.8,113.7c3-1.7,3-4.6,0-6.3c-3-1.7-8-1.7-11,0c-3,1.7-3,4.6,0,6.3
				C174.8,115.4,179.7,115.4,182.8,113.7z"/>
			<path id="XMLID_168_" class="st14" d="M182.7,113.6c3-1.7,3-4.5,0-6.2c-3-1.7-7.8-1.7-10.8,0c-3,1.7-3,4.5,0,6.2
				C174.8,115.3,179.7,115.3,182.7,113.6z"/>
			<path id="XMLID_167_" class="st15" d="M182.5,113.6c2.9-1.7,2.9-4.4,0-6.1c-2.9-1.7-7.7-1.7-10.6,0c-2.9,1.7-2.9,4.4,0,6.1
				C174.9,115.2,179.6,115.2,182.5,113.6z"/>
			<path id="XMLID_166_" class="st16" d="M182.4,113.5c2.9-1.6,2.9-4.3,0-6c-2.9-1.6-7.5-1.6-10.4,0c-2.8,1.6-2.8,4.3,0,6
				C174.9,115.2,179.6,115.2,182.4,113.5z"/>
			<path id="XMLID_165_" class="st17" d="M182.3,113.4c2.8-1.6,2.8-4.2,0-5.9c-2.8-1.6-7.4-1.6-10.2,0c-2.8,1.6-2.8,4.2,0,5.9
				C175,115.1,179.5,115.1,182.3,113.4z"/>
			<path id="XMLID_164_" class="st18" d="M182.2,113.4c2.7-1.6,2.7-4.2,0-5.7c-2.7-1.6-7.2-1.6-10,0c-2.7,1.6-2.7,4.2,0,5.7
				C175,115,179.5,115,182.2,113.4z"/>
			<path id="XMLID_163_" class="st19" d="M182.1,113.3c2.7-1.5,2.7-4.1,0-5.6c-2.7-1.5-7.1-1.5-9.8,0c-2.7,1.5-2.7,4.1,0,5.6
				C175,114.9,179.4,114.9,182.1,113.3z"/>
			<path id="XMLID_162_" class="st20" d="M182,113.3c2.6-1.5,2.6-4,0-5.5c-2.6-1.5-6.9-1.5-9.5,0c-2.6,1.5-2.6,4,0,5.5
				C175.1,114.8,179.4,114.8,182,113.3z"/>
			<path id="XMLID_161_" class="st21" d="M181.9,113.2c2.6-1.5,2.6-3.9,0-5.4c-2.6-1.5-6.8-1.5-9.3,0c-2.6,1.5-2.6,3.9,0,5.4
				C175.1,114.7,179.3,114.7,181.9,113.2z"/>
			<path id="XMLID_160_" class="st22" d="M181.8,113.1c2.5-1.4,2.5-3.8,0-5.2c-2.5-1.4-6.6-1.4-9.1,0c-2.5,1.4-2.5,3.8,0,5.2
				C175.2,114.6,179.3,114.6,181.8,113.1z"/>
			<path id="XMLID_159_" class="st23" d="M181.7,113.1c2.5-1.4,2.5-3.7,0-5.1c-2.5-1.4-6.5-1.4-8.9,0c-2.4,1.4-2.4,3.7,0,5.1
				S179.2,114.5,181.7,113.1z"/>
			<path id="XMLID_158_" class="st24" d="M181.6,113c2.4-1.4,2.4-3.6,0-5c-2.4-1.4-6.3-1.4-8.7,0c-2.4,1.4-2.4,3.6,0,5
				C175.3,114.4,179.2,114.4,181.6,113z"/>
			<path id="XMLID_157_" class="st25" d="M181.5,113c2.3-1.3,2.3-3.5,0-4.9c-2.3-1.3-6.2-1.3-8.5,0c-2.3,1.3-2.3,3.5,0,4.9
				C175.3,114.3,179.2,114.3,181.5,113z"/>
			<path id="XMLID_156_" class="st26" d="M181.4,112.9c2.3-1.3,2.3-3.5,0-4.8c-2.3-1.3-6-1.3-8.3,0c-2.3,1.3-2.3,3.5,0,4.8
				C175.4,114.2,179.1,114.2,181.4,112.9z"/>
			<path id="XMLID_155_" class="st27" d="M181.3,112.8c2.2-1.3,2.2-3.4,0-4.6c-2.2-1.3-5.8-1.3-8.1,0c-2.2,1.3-2.2,3.4,0,4.6
				C175.4,114.1,179.1,114.1,181.3,112.8z"/>
			<path id="XMLID_154_" class="st28" d="M181.2,112.8c2.2-1.2,2.2-3.3,0-4.5c-2.2-1.2-5.7-1.2-7.8,0c-2.2,1.2-2.2,3.3,0,4.5
				C175.5,114,179,114,181.2,112.8z"/>
			<path id="XMLID_153_" class="st29" d="M181.1,112.7c2.1-1.2,2.1-3.2,0-4.4c-2.1-1.2-5.5-1.2-7.6,0c-2.1,1.2-2.1,3.2,0,4.4
				C175.5,113.9,179,113.9,181.1,112.7z"/>
			<path id="XMLID_152_" class="st30" d="M181,112.7c2-1.2,2-3.1,0-4.3c-2-1.2-5.4-1.2-7.4,0c-2,1.2-2,3.1,0,4.3
				C175.6,113.8,178.9,113.8,181,112.7z"/>
			<path id="XMLID_151_" class="st31" d="M180.9,112.6c2-1.1,2-3,0-4.2c-2-1.1-5.2-1.1-7.2,0c-2,1.1-2,3,0,4.2
				C175.6,113.7,178.9,113.7,180.9,112.6z"/>
			<path id="XMLID_150_" class="st32" d="M180.8,112.5c1.9-1.1,1.9-2.9,0-4c-1.9-1.1-5.1-1.1-7,0c-1.9,1.1-1.9,2.9,0,4
				C175.7,113.6,178.8,113.6,180.8,112.5z"/>
			<path id="XMLID_148_" class="st33" d="M180.6,112.5c1.9-1.1,1.9-2.8,0-3.9c-1.9-1.1-4.9-1.1-6.8,0s-1.9,2.8,0,3.9
				S178.8,113.5,180.6,112.5z"/>
			<path id="XMLID_147_" class="st34" d="M180.5,112.4c1.8-1,1.8-2.7,0-3.8c-1.8-1-4.8-1-6.6,0c-1.8,1-1.8,2.7,0,3.8
				C175.8,113.5,178.7,113.5,180.5,112.4z"/>
			<path id="XMLID_146_" class="st35" d="M180.4,112.4c1.8-1,1.8-2.7,0-3.7c-1.8-1-4.6-1-6.4,0c-1.7,1-1.7,2.7,0,3.7
				C175.8,113.4,178.7,113.4,180.4,112.4z"/>
			<path id="XMLID_145_" class="st36" d="M180.3,112.3c1.7-1,1.7-2.6,0-3.5c-1.7-1-4.5-1-6.2,0c-1.7,1-1.7,2.6,0,3.5
				C175.9,113.3,178.6,113.3,180.3,112.3z"/>
			<path id="XMLID_144_" class="st37" d="M180.2,112.2c1.6-0.9,1.6-2.5,0-3.4c-1.6-0.9-4.3-0.9-5.9,0c-1.6,0.9-1.6,2.5,0,3.4
				C175.9,113.2,178.6,113.2,180.2,112.2z"/>
			<path id="XMLID_143_" class="st38" d="M180.1,112.2c1.6-0.9,1.6-2.4,0-3.3c-1.6-0.9-4.2-0.9-5.7,0c-1.6,0.9-1.6,2.4,0,3.3
				C176,113.1,178.5,113.1,180.1,112.2z"/>
			<path id="XMLID_142_" class="st39" d="M180,112.1c1.5-0.9,1.5-2.3,0-3.2s-4-0.9-5.5,0c-1.5,0.9-1.5,2.3,0,3.2
				C176,113,178.5,113,180,112.1z"/>
			<path id="XMLID_141_" class="st40" d="M179.9,112c1.5-0.8,1.5-2.2,0-3.1c-1.5-0.8-3.8-0.8-5.3,0c-1.5,0.8-1.5,2.2,0,3.1
				C176.1,112.9,178.4,112.9,179.9,112z"/>
			<path id="XMLID_140_" class="st41" d="M179.8,112c1.4-0.8,1.4-2.1,0-2.9c-1.4-0.8-3.7-0.8-5.1,0c-1.4,0.8-1.4,2.1,0,2.9
				C176.1,112.8,178.4,112.8,179.8,112z"/>
			<path id="XMLID_139_" class="st42" d="M179.7,111.9c1.3-0.8,1.3-2,0-2.8c-1.3-0.8-3.5-0.8-4.9,0c-1.3,0.8-1.3,2,0,2.8
				C176.2,112.7,178.3,112.7,179.7,111.9z"/>
			<path id="XMLID_138_" class="st43" d="M179.6,111.9c1.3-0.7,1.3-1.9,0-2.7c-1.3-0.7-3.4-0.7-4.7,0s-1.3,1.9,0,2.7
				C176.2,112.6,178.3,112.6,179.6,111.9z"/>
			<path id="XMLID_137_" class="st44" d="M179.5,111.8c1.2-0.7,1.2-1.9,0-2.6c-1.2-0.7-3.2-0.7-4.5,0c-1.2,0.7-1.2,1.9,0,2.6
				C176.2,112.5,178.3,112.5,179.5,111.8z"/>
			<path id="XMLID_136_" class="st45" d="M179.4,111.7c1.2-0.7,1.2-1.8,0-2.4c-1.2-0.7-3.1-0.7-4.2,0c-1.2,0.7-1.2,1.8,0,2.4
				C176.3,112.4,178.2,112.4,179.4,111.7z"/>
			<path id="XMLID_135_" class="st46" d="M179.3,111.7c1.1-0.6,1.1-1.7,0-2.3c-1.1-0.6-2.9-0.6-4,0c-1.1,0.6-1.1,1.7,0,2.3
				C176.3,112.3,178.2,112.3,179.3,111.7z"/>
			<path id="XMLID_134_" class="st47" d="M179.2,111.6c1.1-0.6,1.1-1.6,0-2.2c-1.1-0.6-2.8-0.6-3.8,0c-1,0.6-1,1.6,0,2.2
				C176.4,112.2,178.1,112.2,179.2,111.6z"/>
			<path id="XMLID_133_" class="st48" d="M179.1,111.6c1-0.6,1-1.5,0-2.1c-1-0.6-2.6-0.6-3.6,0c-1,0.6-1,1.5,0,2.1
				C176.4,112.1,178.1,112.1,179.1,111.6z"/>
			<path id="XMLID_132_" class="st49" d="M179,111.5c0.9-0.5,0.9-1.4,0-2c-0.9-0.5-2.5-0.5-3.4,0c-0.9,0.5-0.9,1.4,0,2
				C176.5,112,178,112,179,111.5z"/>
			<path id="XMLID_131_" class="st50" d="M178.8,111.4c0.9-0.5,0.9-1.3,0-1.8c-0.9-0.5-2.3-0.5-3.2,0c-0.9,0.5-0.9,1.3,0,1.8
				C176.5,111.9,178,111.9,178.8,111.4z"/>
			<path id="XMLID_130_" class="st51" d="M178.7,111.4c0.8-0.5,0.8-1.2,0-1.7c-0.8-0.5-2.2-0.5-3,0c-0.8,0.5-0.8,1.2,0,1.7
				C176.6,111.8,177.9,111.8,178.7,111.4z"/>
			<path id="XMLID_129_" class="st52" d="M178.6,111.3c0.8-0.4,0.8-1.2,0-1.6c-0.8-0.4-2-0.4-2.8,0c-0.8,0.4-0.8,1.2,0,1.6
				C176.6,111.8,177.9,111.8,178.6,111.3z"/>
			<path id="XMLID_1417_" class="st53" d="M178.5,111.3c0.7-0.4,0.7-1.1,0-1.5c-0.7-0.4-1.9-0.4-2.5,0c-0.7,0.4-0.7,1.1,0,1.5
				C176.7,111.7,177.8,111.7,178.5,111.3z"/>
		</g>
		<path id="XMLID_1416_" class="st54" d="M181.7,111.6c2.3-1.3,2.3-7.6,0-9c-2.3-1.3-6.2-1.3-8.5,0c-2.3,1.3-2.3,7.6,0,9
			c1.2,0.7,2.7,1.3,4.2,1.3C178.9,112.9,180.5,112.3,181.7,111.6z"/>
		<linearGradient id="XMLID_183_" gradientUnits="userSpaceOnUse" x1="171.1739" y1="104.0493" x2="183.6452" y2="104.0493">
			<stop  offset="0" style="stop-color:#D1E1F2"/>
			<stop  offset="0.1932" style="stop-color:#C8DBF0"/>
			<stop  offset="0.5066" style="stop-color:#B0CAEA"/>
			<stop  offset="0.8991" style="stop-color:#89AFE2"/>
			<stop  offset="1" style="stop-color:#7EA7DF"/>
		</linearGradient>
		<path id="XMLID_1415_" class="st55" d="M183.6,104.1c0,0,0-0.1,0-0.1v-0.9h-0.2c-0.3-0.6-0.8-1.1-1.6-1.5c-2.4-1.4-6.4-1.4-8.8,0
			c-0.8,0.4-1.3,1-1.6,1.5h-0.2v0.7c0,0.2,0,0.4,0,0.6v0h0c0.1,0.8,0.7,1.6,1.8,2.2c2.4,1.4,6.4,1.4,8.8,0c1.1-0.6,1.7-1.4,1.8-2.2
			h0V104.1z"/>
		<path id="XMLID_1414_" class="st56" d="M181.8,105.7c2.4-1.4,2.4-3.7,0-5.1c-2.4-1.4-6.4-1.4-8.8,0c-2.4,1.4-2.4,3.7,0,5.1
			C175.4,107.1,179.4,107.1,181.8,105.7z"/>
		<path id="XMLID_1413_" class="st57" d="M181.5,105.5c2.2-1.3,2.2-3.4,0-4.7c-2.2-1.3-5.9-1.3-8.1,0c-2.2,1.3-2.2,3.4,0,4.7
			S179.2,106.8,181.5,105.5z"/>
		<path id="XMLID_1412_" class="st58" d="M180.7,105.7c1.8-1.1,1.8-2.8,0-3.8c-1.8-1.1-4.8-1.1-6.6,0c-1.8,1.1-1.8,2.8,0,3.8
			C175.9,106.7,178.9,106.7,180.7,105.7z"/>
		<g id="XMLID_1411_">
			<path id="XMLID_128_" class="st53" d="M177.4,104.7c-0.3,0-0.5-0.2-0.5-0.5V87c0-0.3,0.2-0.5,0.5-0.5c0.3,0,0.5,0.2,0.5,0.5v17.2
				C177.9,104.5,177.7,104.7,177.4,104.7z"/>
		</g>
		<linearGradient id="XMLID_184_" gradientUnits="userSpaceOnUse" x1="170.6539" y1="89.4667" x2="184.1651" y2="89.4667">
			<stop  offset="0.1499" style="stop-color:#FF9800"/>
			<stop  offset="1" style="stop-color:#FFC107"/>
		</linearGradient>
		<path id="XMLID_1410_" class="st59" d="M182.1,87.3c0.3-0.7,0.5-1.4,0.5-2.3c0-2.9-2.3-5.2-5.2-5.2c-2.9,0-5.2,2.3-5.2,5.2
			c0,0.8,0.2,1.6,0.5,2.3c-1.3,1.2-2.1,3-2.1,4.9c0,3.7,3,6.8,6.8,6.8c3.7,0,6.8-3,6.8-6.8C184.2,90.3,183.4,88.6,182.1,87.3z"/>
		<path id="XMLID_1409_" class="st60" d="M171,92.2c0-1.9,0.8-3.7,2.1-4.9c-0.3-0.7-0.5-1.4-0.5-2.3c0-2.8,2.2-5.1,5-5.2
			c0,0-0.1,0-0.1,0c-2.9,0-5.2,2.3-5.2,5.2c0,0.8,0.2,1.6,0.5,2.3c-1.3,1.2-2.1,3-2.1,4.9c0,3.7,3,6.8,6.8,6.8c0.1,0,0.1,0,0.1,0
			C173.9,98.9,171,95.9,171,92.2z"/>
		<path id="XMLID_1408_" class="st61" d="M182.1,87.3c0.3-0.7,0.5-1.4,0.5-2.3c0-2.9-2.3-5.2-5.2-5.2c-0.3,0-0.5,0-0.7,0.1
			c2.5,0.4,4.4,2.5,4.4,5.1c0,0.8-0.2,1.6-0.5,2.3c1.3,1.2,2.1,3,2.1,4.9c0,3.5-2.6,6.3-6,6.7c0.2,0,0.5,0,0.7,0
			c3.7,0,6.8-3,6.8-6.8C184.2,90.3,183.4,88.6,182.1,87.3z"/>
	</g>
	<g id="XMLID_149_" class="st62">
		<polygon id="XMLID_6_" class="st2" points="145.6,138.5 172.6,153.4 94.9,199.3 67.9,183.3 		"/>
		<polygon id="XMLID_127_" class="st63" points="145.6,138.5 172,153.1 94.4,198.9 67.9,183.3 		"/>
		<polygon id="XMLID_126_" class="st64" points="145.6,138.5 171.4,152.8 93.8,198.6 67.9,183.3 		"/>
		<polygon id="XMLID_125_" class="st65" points="145.6,138.5 170.8,152.4 93.2,198.2 67.9,183.3 		"/>
		<polygon id="XMLID_124_" class="st66" points="145.6,138.5 170.2,152.1 92.6,197.9 67.9,183.3 		"/>
		<polygon id="XMLID_123_" class="st67" points="145.6,138.5 169.6,151.8 92,197.5 67.9,183.3 		"/>
		<polygon id="XMLID_122_" class="st68" points="145.6,138.5 169,151.4 91.5,197.2 67.9,183.3 		"/>
		<polygon id="XMLID_121_" class="st69" points="145.6,138.5 168.4,151.1 90.9,196.9 67.9,183.3 		"/>
		<polygon id="XMLID_120_" class="st70" points="145.6,138.5 167.8,150.8 90.3,196.5 67.9,183.3 		"/>
		<polygon id="XMLID_119_" class="st71" points="145.6,138.5 167.2,150.4 89.7,196.2 67.9,183.3 		"/>
		<polygon id="XMLID_118_" class="st72" points="145.6,138.5 166.6,150.1 89.1,195.8 67.9,183.3 		"/>
		<polygon id="XMLID_117_" class="st73" points="145.6,138.5 166,149.8 88.6,195.5 67.9,183.3 		"/>
		<polygon id="XMLID_116_" class="st74" points="145.6,138.5 165.4,149.4 88,195.1 67.9,183.3 		"/>
		<polygon id="XMLID_115_" class="st75" points="145.6,138.5 164.8,149.1 87.4,194.8 67.9,183.3 		"/>
		<polygon id="XMLID_114_" class="st76" points="145.6,138.5 164.2,148.8 86.8,194.4 67.9,183.3 		"/>
		<polygon id="XMLID_113_" class="st77" points="145.6,138.5 163.6,148.4 86.2,194.1 67.9,183.3 		"/>
		<polygon id="XMLID_112_" class="st78" points="145.6,138.5 163,148.1 85.7,193.8 67.9,183.3 		"/>
		<polygon id="XMLID_111_" class="st79" points="145.6,138.5 162.4,147.8 85.1,193.4 67.9,183.3 		"/>
		<polygon id="XMLID_110_" class="st80" points="145.6,138.5 161.8,147.4 84.5,193.1 67.9,183.3 		"/>
		<polygon id="XMLID_109_" class="st81" points="145.6,138.5 161.2,147.1 83.9,192.7 67.9,183.3 		"/>
		<polygon id="XMLID_108_" class="st82" points="145.6,138.5 160.6,146.8 83.3,192.4 67.9,183.3 		"/>
		<polygon id="XMLID_107_" class="st83" points="145.6,138.5 160,146.4 82.7,192 67.9,183.3 		"/>
		<polygon id="XMLID_106_" class="st84" points="145.6,138.5 159.4,146.1 82.2,191.7 67.9,183.3 		"/>
		<polygon id="XMLID_105_" class="st85" points="145.6,138.5 158.8,145.8 81.6,191.4 67.9,183.3 		"/>
		<polygon id="XMLID_104_" class="st86" points="145.6,138.5 158.2,145.4 81,191 67.9,183.3 		"/>
		<polygon id="XMLID_103_" class="st87" points="145.6,138.5 157.6,145.1 80.4,190.7 67.9,183.3 		"/>
		<polygon id="XMLID_102_" class="st88" points="145.6,138.5 157,144.8 79.8,190.3 67.9,183.3 		"/>
		<polygon id="XMLID_101_" class="st89" points="145.6,138.5 156.4,144.4 79.3,190 67.9,183.3 		"/>
		<polygon id="XMLID_100_" class="st90" points="145.6,138.5 155.8,144.1 78.7,189.6 67.9,183.3 		"/>
		<polygon id="XMLID_99_" class="st91" points="145.6,138.5 155.2,143.8 78.1,189.3 67.9,183.3 		"/>
		<polygon id="XMLID_98_" class="st92" points="145.6,138.5 154.6,143.4 77.5,188.9 67.9,183.3 		"/>
		<polygon id="XMLID_97_" class="st93" points="145.6,138.5 154,143.1 76.9,188.6 67.9,183.3 		"/>
		<polygon id="XMLID_96_" class="st94" points="145.6,138.5 153.4,142.8 76.4,188.3 67.9,183.3 		"/>
		<polygon id="XMLID_95_" class="st95" points="145.6,138.5 152.8,142.5 75.8,187.9 67.9,183.3 		"/>
		<polygon id="XMLID_94_" class="st96" points="145.6,138.5 152.2,142.1 75.2,187.6 67.9,183.3 		"/>
		<polygon id="XMLID_93_" class="st97" points="145.6,138.5 151.6,141.8 74.6,187.2 67.9,183.3 		"/>
		<polygon id="XMLID_92_" class="st98" points="145.6,138.5 151,141.5 74,186.9 67.9,183.3 		"/>
		<polygon id="XMLID_91_" class="st99" points="145.6,138.5 150.4,141.1 73.5,186.5 67.9,183.3 		"/>
		<polygon id="XMLID_90_" class="st100" points="145.6,138.5 149.8,140.8 72.9,186.2 67.9,183.3 		"/>
		<polygon id="XMLID_89_" class="st101" points="145.6,138.5 149.2,140.5 72.3,185.8 67.9,183.3 		"/>
		<polygon id="XMLID_88_" class="st102" points="145.6,138.5 148.6,140.1 71.7,185.5 67.9,183.3 		"/>
		<polygon id="XMLID_5_" class="st53" points="145.6,138.5 148,139.8 71.1,185.2 67.9,183.3 		"/>
	</g>
	<g id="XMLID_704_">
		<linearGradient id="XMLID_185_" gradientUnits="userSpaceOnUse" x1="67.7964" y1="109.6648" x2="145.1382" y2="109.6648">
			<stop  offset="3.802050e-003" style="stop-color:#A5CBEF"/>
			<stop  offset="0.2136" style="stop-color:#B2D3F1"/>
			<stop  offset="0.6044" style="stop-color:#D5E7F8"/>
			<stop  offset="1" style="stop-color:#FFFFFF"/>
		</linearGradient>
		<path id="XMLID_718_" class="st103" d="M67.8,81.5c0-1.2,0.8-2.6,1.8-3.2l73-42.4c0.4-0.2,0.9-0.3,1.4,0l1.1,0.6l-0.5,99.4
			c0,1.2-0.8,2.6-1.8,3.2l-73.9,43.9l-1.1,0.7V81.5z"/>
		<path id="XMLID_717_" class="st104" d="M68.9,82.3c0-1.2,0.8-2.6,1.8-3.2l73.2-42.5c1-0.6,1.8-0.1,1.8,1.1v100.7l-76.8,44.6V82.3z
			"/>
		<path id="XMLID_716_" class="st57" d="M70.8,79.1l73.2-42.5c1-0.6,1.8-0.1,1.8,1.1v4.8L68.9,87.1v-4.8
			C68.9,81.1,69.8,79.7,70.8,79.1z"/>
		<path id="XMLID_715_" class="st104" d="M79.7,77c0.3-0.2,0.6,0,0.6,0.3c0,0.4-0.3,0.8-0.6,1c-0.3,0.2-0.6,0-0.6-0.3
			C79.1,77.7,79.3,77.2,79.7,77z"/>
		<path id="XMLID_714_" class="st104" d="M77.1,78.5c0.3-0.2,0.6,0,0.6,0.3c0,0.4-0.3,0.8-0.6,1c-0.3,0.2-0.6,0-0.6-0.3
			C76.5,79.2,76.7,78.7,77.1,78.5z"/>
		<path id="XMLID_713_" class="st104" d="M74.5,80.1c0.3-0.2,0.6,0,0.6,0.3c0,0.4-0.3,0.8-0.6,1c-0.3,0.2-0.6,0-0.6-0.3
			C73.9,80.7,74.1,80.3,74.5,80.1z"/>
		<polygon id="XMLID_712_" class="st54" points="139.7,54.1 139.7,83.1 75.6,120 75.6,91.2 		"/>
		<g id="XMLID_708_">
			<polygon id="XMLID_711_" class="st54" points="139.8,120.1 139.8,122.3 75.6,159.6 75.6,157.4 			"/>
			<polygon id="XMLID_710_" class="st54" points="139.8,126.1 139.8,128.4 75.6,165.7 75.6,163.5 			"/>
			<polygon id="XMLID_709_" class="st54" points="139.8,132.5 139.8,134.7 75.6,172 75.6,169.8 			"/>
		</g>
		<polygon id="XMLID_707_" class="st54" points="139.7,87.6 139.7,110.8 121.3,121.6 121.3,98.6 		"/>
		<polygon id="XMLID_706_" class="st54" points="94,113.9 94,137.1 75.6,148 75.6,124.9 		"/>
		<polygon id="XMLID_705_" class="st54" points="116.9,100.8 116.9,124 98.4,134.9 98.4,111.8 		"/>
	</g>
	<path id="XMLID_87_" class="st105" d="M145.8,86.5l-27.1,15.7c-0.8,0.5-1.3,1.4-1.3,2.3v15.7c0,0,0,0,0,0c0,0.1,0,0.3,0.1,0.4
		c0,0,0,0.1,0,0.1c0,0.1,0.1,0.2,0.1,0.2c0,0,0,0.1,0.1,0.1c0.1,0.1,0.1,0.2,0.2,0.3c0,0,0,0,0.1,0c0.1,0.1,0.1,0.1,0.2,0.2
		c0,0,0.1,0,0.1,0.1c0.1,0,0.1,0.1,0.2,0.1c0,0,0.1,0,0.1,0c0.1,0,0.2,0,0.3,0c0.3,0,0.5-0.1,0.8-0.2l26.1-15.3V86.5z"/>
	<g>
		<linearGradient id="XMLID_186_" gradientUnits="userSpaceOnUse" x1="120.9222" y1="120.7594" x2="163.1048" y2="80.4599">
			<stop  offset="0" style="stop-color:#3C5185"/>
			<stop  offset="0.128" style="stop-color:#41588E"/>
			<stop  offset="0.6948" style="stop-color:#5573B1"/>
			<stop  offset="1" style="stop-color:#5D7DBE"/>
		</linearGradient>
		<path id="XMLID_567_" class="st106" d="M162.8,81.6v15.4c0,1-0.5,1.8-1.3,2.3l-39.3,23c-1,0.6-2.3-0.1-2.3-1.3v-15.7
			c0-1,0.5-1.8,1.3-2.3l39.3-22.8C161.5,79.8,162.8,80.5,162.8,81.6z"/>
		<linearGradient id="XMLID_187_" gradientUnits="userSpaceOnUse" x1="119.8308" y1="101.3971" x2="162.4335" y2="101.3971">
			<stop  offset="3.802050e-003" style="stop-color:#A5CBEF"/>
			<stop  offset="0.2136" style="stop-color:#B2D3F1"/>
			<stop  offset="0.6044" style="stop-color:#D5E7F8"/>
			<stop  offset="1" style="stop-color:#FFFFFF"/>
		</linearGradient>
		<path id="XMLID_417_" class="st107" d="M121,121.7v-15.7c0-1,0.5-1.8,1.3-2.3l39.3-22.8c0.3-0.1,0.5-0.2,0.8-0.2
			c-0.4-0.5-1.2-0.8-1.9-0.4l-39.3,22.8c-0.8,0.5-1.3,1.4-1.3,2.3v15.7c0,0.9,0.7,1.5,1.5,1.5C121.1,122.4,121,122.1,121,121.7z"/>
		<path id="XMLID_566_" class="st104" d="M154.2,93.4c0.1-1.3,0.8-2.5,1.7-2.8c0.4-0.2,0.8,0,1,0.3c0.3-0.5,0.7-0.9,1.1-1.1
			c0.8-0.3,1.4,0.5,1.3,1.7c0,0.6-0.2,1.2-0.5,1.7l-1.9,3.6c0,0-2.1-1.5-2.6-2.2C154.2,94.4,154.2,93.9,154.2,93.4z"/>
		<path id="XMLID_413_" class="st104" d="M137,102.6c1.4-0.8,2.6-0.1,2.6,1.5c0,0.8-0.3,1.7-0.7,2.5v1.2c0,0.1-0.1,0.2-0.2,0.2h-0.9
			c-0.3,0.3-0.5,0.5-0.8,0.6c-1.4,0.8-2.6,0.1-2.6-1.5C134.4,105.4,135.5,103.4,137,102.6z"/>
		<g id="XMLID_597_">
			<path class="st104" d="M128.4,109.9c0.1-0.2,0.1-0.3,0.1-0.5c0-0.1,0-0.2-0.1-0.3c-0.1-0.1-0.1-0.1-0.2,0
				c-0.2,0.1-0.3,0.4-0.5,0.8l-0.4-0.2c0.1-0.4,0.3-0.6,0.4-0.9c0.1-0.2,0.3-0.4,0.5-0.5c0.2-0.1,0.4-0.1,0.6,0
				c0.2,0.1,0.2,0.4,0.2,0.8c0,0.2,0,0.4-0.1,0.6c-0.1,0.2-0.2,0.5-0.4,0.9l-0.5,1l1-0.6l0,0.8l-1.8,1l0-0.7l0.8-1.6
				C128.2,110.3,128.4,110.1,128.4,109.9z"/>
			<path class="st104" d="M131.2,106.8l0,0.8l-1,0.6l0,0.7c0.1-0.1,0.2-0.1,0.3-0.2c0.2-0.1,0.4-0.1,0.6,0c0.2,0.1,0.2,0.4,0.2,0.8
				c0,0.4-0.1,0.8-0.3,1.1c-0.2,0.4-0.4,0.6-0.7,0.8c-0.3,0.2-0.6,0.1-0.8-0.1l0.3-0.8c0,0,0,0,0.1,0.1c0,0,0.1,0.1,0.2,0.1
				c0.1,0,0.2,0,0.3,0c0.1-0.1,0.2-0.1,0.3-0.3c0.1-0.1,0.1-0.3,0.1-0.5c0-0.2,0-0.3-0.1-0.3c-0.1-0.1-0.2,0-0.3,0
				c-0.1,0.1-0.3,0.2-0.4,0.5l-0.2-0.3l0.1-2L131.2,106.8z"/>
			<path class="st104" d="M133.3,105.6l0,0.8l-1,0.6l0,0.7c0.1-0.1,0.2-0.1,0.3-0.2c0.2-0.1,0.4-0.1,0.6,0c0.2,0.1,0.2,0.4,0.2,0.8
				c0,0.4-0.1,0.8-0.3,1.1c-0.2,0.4-0.4,0.6-0.7,0.8c-0.3,0.2-0.6,0.1-0.8-0.1l0.3-0.8c0,0,0,0,0.1,0.1c0,0,0.1,0.1,0.2,0.1
				c0.1,0,0.2,0,0.3,0c0.1-0.1,0.2-0.1,0.3-0.3c0.1-0.1,0.1-0.3,0.1-0.5c0-0.2,0-0.3-0.1-0.3c-0.1-0.1-0.2,0-0.3,0
				c-0.1,0.1-0.3,0.2-0.4,0.5l-0.2-0.3l0.1-2L133.3,105.6z"/>
		</g>
		<g id="XMLID_414_">
			<path class="st104" d="M148.4,99.2l0-0.7l0.5-0.3l0,0.7l0.3-0.2l0,0.8l-0.3,0.2l0,1l-0.5,0.3l0-1l-1,0.6l0-0.7l1-2.9l0.6-0.3
				l-0.9,2.8L148.4,99.2z"/>
			<path class="st104" d="M150.7,96.3c-0.2,0.1-0.3,0.2-0.4,0.5c-0.1,0.2-0.1,0.5-0.2,0.8c0.2-0.2,0.3-0.4,0.5-0.5
				c0.2-0.1,0.4-0.1,0.6,0c0.1,0.2,0.2,0.4,0.2,0.8c0,0.4-0.1,0.8-0.3,1.1c-0.2,0.3-0.4,0.6-0.6,0.7c-0.2,0.1-0.3,0.1-0.5,0.1
				c-0.1,0-0.2-0.1-0.3-0.3c-0.1-0.3-0.2-0.7-0.2-1.3c0-0.4,0.1-0.7,0.1-1c0.1-0.3,0.1-0.6,0.2-0.8c0.2-0.4,0.4-0.7,0.7-0.9
				c0.1-0.1,0.2-0.1,0.3-0.1c0.1,0,0.2,0,0.2,0c0.1,0,0.1,0.1,0.2,0.1l-0.3,0.8c0,0,0,0-0.1-0.1c0,0-0.1,0-0.2-0.1
				C150.8,96.3,150.7,96.3,150.7,96.3z M150.6,97.8c-0.1,0.1-0.2,0.2-0.3,0.3c-0.1,0.1-0.1,0.3-0.1,0.5c0,0.2,0,0.3,0.1,0.4
				c0.1,0.1,0.2,0.1,0.3,0c0.1-0.1,0.2-0.2,0.3-0.3c0.1-0.1,0.1-0.3,0.1-0.5c0-0.2,0-0.3-0.1-0.4C150.8,97.7,150.7,97.7,150.6,97.8z
				"/>
			<path class="st104" d="M151.8,96.3l0-1.3l1.8-1l0,0.7l-1.1,3.9l-0.6,0.3l1.1-3.8l-0.6,0.4l0,0.5L151.8,96.3z"/>
		</g>
	</g>
	<g>
		
			<linearGradient id="XMLID_188_" gradientUnits="userSpaceOnUse" x1="371.239" y1="136.6651" x2="424.9164" y2="136.6651" gradientTransform="matrix(1 0 0 1 -318.1485 0)">
			<stop  offset="3.802050e-003" style="stop-color:#4A65A3"/>
			<stop  offset="0.1393" style="stop-color:#5E7BB4"/>
			<stop  offset="0.3843" style="stop-color:#7D9ECD"/>
			<stop  offset="0.6162" style="stop-color:#93B7E0"/>
			<stop  offset="0.8277" style="stop-color:#A0C6EB"/>
			<stop  offset="1" style="stop-color:#A5CBEF"/>
		</linearGradient>
		<path id="XMLID_1393_" class="st108" d="M106.6,110.6L106.6,110.6c-0.7-0.7-2.5-0.7-3.4-0.2l-48.7,28.2c-0.8,0.4-1.4,1.5-1.4,2.4
			v20.5c0,0.8,0.5,1.6,1.3,1.8l0,0c0.3,0.1,0.4,0,0.7-0.1l50.2-28.7c0.8-0.4,1.5-1.5,1.5-2.3v-21
			C106.8,110.9,106.7,110.7,106.6,110.6z"/>
		<linearGradient id="XMLID_189_" gradientUnits="userSpaceOnUse" x1="54.8682" y1="136.8748" x2="109.4662" y2="136.8748">
			<stop  offset="0" style="stop-color:#3C5185"/>
			<stop  offset="0.128" style="stop-color:#41588E"/>
			<stop  offset="0.6948" style="stop-color:#5573B1"/>
			<stop  offset="1" style="stop-color:#5D7DBE"/>
		</linearGradient>
		<path id="XMLID_1392_" class="st109" d="M106.8,111.6c0-0.9-0.6-1.2-1.4-0.8l-49.2,28.4c-0.8,0.4-1.4,1.5-1.4,2.4v20.6
			c0,0.9,0.6,1.2,1.4,0.8l49.2-28.4c0.8-0.4,1.4-1.5,1.4-2.4v-7.4l2.5-6.1c0.2-0.5,0-1.1-0.5-1.3l-2-0.9V111.6z"/>
		<g id="XMLID_1391_">
			<polygon id="XMLID_79_" class="st110" points="72.3,136.4 100.8,120 100.8,118.2 72.3,134.6 			"/>
		</g>
		<g id="XMLID_1390_">
			<polygon id="XMLID_78_" class="st110" points="72.3,142.7 100.8,126.4 100.8,124.5 72.3,140.9 			"/>
		</g>
		<g id="XMLID_1389_">
			<polygon id="XMLID_77_" class="st110" points="72.3,149.2 88.1,140.1 88.1,138.3 72.3,147.4 			"/>
		</g>
		
			<linearGradient id="XMLID_190_" gradientUnits="userSpaceOnUse" x1="376.0457" y1="146.2813" x2="388.8654" y2="146.2813" gradientTransform="matrix(1 0 0 1 -318.1485 0)">
			<stop  offset="0.1499" style="stop-color:#FF9800"/>
			<stop  offset="1" style="stop-color:#FFC107"/>
		</linearGradient>
		<polygon id="XMLID_1388_" class="st111" points="70.7,133.8 70.7,151.5 57.9,158.8 57.9,141 		"/>
	</g>
	<path id="XMLID_76_" class="st105" d="M145.8,49.6l-28.4,16.3c-1.2,0.7-2.1,2.4-2.1,3.7v19.8c0,0.8,0.4,1.6,1,2l1.3,1c0,0,0,0,0,0
		l0,0l0,0c0.4,0.2,0.9,0.2,1.5-0.1l26.7-15.4V49.6z"/>
	<g id="XMLID_1376_">
		
			<linearGradient id="XMLID_191_" gradientUnits="userSpaceOnUse" x1="647.4241" y1="69.8726" x2="692.0339" y2="69.8726" gradientTransform="matrix(1 0 0 1 -529.7212 0)">
			<stop  offset="3.802050e-003" style="stop-color:#A5CBEF"/>
			<stop  offset="0.2768" style="stop-color:#C1DBF4"/>
			<stop  offset="0.7571" style="stop-color:#EEF5FC"/>
			<stop  offset="1" style="stop-color:#FFFFFF"/>
		</linearGradient>
		<path id="XMLID_1387_" class="st112" d="M119.8,67.9c-1.2,0.7-2.1,2.4-2.1,3.7v19.8c0,0.8,0.4,1.6,1,2l1.3,1
			c0.4,0.1-0.7-0.9-0.2-1.1l39.8-23c1.2-0.7,2.1-2.4,2.1-3.7l-0.3-20.3c0-0.5,0.9-0.5,0.9-0.5l-1-0.4c-0.9-0.4-2-0.3-2.8,0.2
			L119.8,67.9z"/>
		<path id="XMLID_1386_" class="st113" d="M121.6,68.9c-1.2,0.7-2.1,2.4-2.1,3.7v20.5c0,1.4,1,1.9,2.1,1.2l39.8-23
			c1.2-0.7,2.1-2.4,2.1-3.7l-0.3-20.3c0-1.4-1-1.9-2.2-1.2L121.6,68.9z"/>
		<g id="XMLID_1381_">
			
				<linearGradient id="XMLID_192_" gradientUnits="userSpaceOnUse" x1="650.9866" y1="78.2505" x2="665.09" y2="78.2505" gradientTransform="matrix(1 0 0 1 -529.7212 0)">
				<stop  offset="0.1499" style="stop-color:#FF9800"/>
				<stop  offset="1" style="stop-color:#FFC107"/>
			</linearGradient>
			<path id="XMLID_1385_" class="st114" d="M128.3,70.1c-3.9,2.2-7.1,7.7-7.1,12.2c0,4.5,3.2,6.4,7.1,4.2c3.9-2.2,7.1-7.6,7.1-12.2
				S132.2,67.8,128.3,70.1z"/>
			<path id="XMLID_1384_" class="st104" d="M126.5,82.2c0,1.6,1.1,2.3,2.5,1.5c1.4-0.8,2.5-2.7,2.5-4.4L126.5,82.2z"/>
			<path id="XMLID_1383_" class="st53" d="M131.5,74c-0.4,0.2-0.8,0.9-0.8,1.3c0,0.5,0.4,0.7,0.8,0.5c0.4-0.2,0.8-0.8,0.8-1.3
				C132.3,73.9,131.9,73.7,131.5,74z"/>
			<path id="XMLID_1382_" class="st53" d="M126.4,77c-0.4,0.2-0.8,0.9-0.8,1.3s0.4,0.7,0.8,0.5c0.4-0.2,0.8-0.8,0.8-1.3
				C127.2,77,126.9,76.7,126.4,77z"/>
		</g>
		<polygon id="XMLID_1380_" class="st56" points="137.7,65.7 137.7,67.6 160.8,54.2 160.8,52.2 		"/>
		<polygon id="XMLID_1379_" class="st56" points="137.7,70.3 137.7,72.2 160.8,58.7 160.8,56.8 		"/>
		<polygon id="XMLID_1378_" class="st56" points="137.7,74.8 137.7,76.7 160.8,63.3 160.8,61.4 		"/>
		<polygon id="XMLID_1377_" class="st56" points="137.7,79.4 137.7,81.3 150.1,74.2 150.1,72.2 		"/>
	</g>
	<path id="XMLID_75_" class="st105" d="M111.9,74.9c0-0.7-0.3-1.1-0.8-1.2c0.1,0,0.1,0,0.1,0l-0.8-0.3c-0.7-0.3-1.6-0.2-2.3,0.2
		L76.9,91.5c-1,0.5-1.7,1.9-1.7,3l0.1,16.8c0,0.6,0.4,1.1,0.9,1.3l0.9,0.3l0,0c0.3,0.2,0.7,0.2,1.2-0.1l32.1-18.5
		c1-0.5,1.7-1.9,1.7-3L111.9,74.9z"/>
	<g>
		
			<linearGradient id="XMLID_193_" gradientUnits="userSpaceOnUse" x1="-731.8098" y1="94.5799" x2="-695.842" y2="94.5799" gradientTransform="matrix(-1 0 0 1 -617.6714 0)">
			<stop  offset="0" style="stop-color:#A5CBEF"/>
			<stop  offset="0.1723" style="stop-color:#A0C6EB"/>
			<stop  offset="0.3838" style="stop-color:#93B7E0"/>
			<stop  offset="0.6157" style="stop-color:#7D9ECD"/>
			<stop  offset="0.8607" style="stop-color:#5E7BB4"/>
			<stop  offset="0.9962" style="stop-color:#4A65A3"/>
		</linearGradient>
		<path id="XMLID_1375_" class="st115" d="M79.9,93c-1,0.5-1.7,1.9-1.7,3l0.1,16.8c0,0.6,0.4,1.1,0.9,1.3l0.9,0.3
			c0.3,0.1-0.6-0.7-0.2-0.9L112,95c1-0.5,1.7-1.9,1.7-3l-0.2-16.4c0-0.4,0.7-0.4,0.7-0.4l-0.8-0.3c-0.7-0.3-1.6-0.2-2.3,0.2L79.9,93
			z"/>
		<path id="XMLID_1374_" class="st57" d="M81.3,93.8c-1,0.5-1.7,1.9-1.7,3v16.5c0,1.1,0.8,1.5,1.7,1l32.1-18.5c1-0.5,1.7-1.9,1.7-3
			l-0.2-16.4c0-1.1-0.8-1.5-1.8-1L81.3,93.8z"/>
		<polygon id="XMLID_1373_" class="st53" points="93.6,91.2 93.6,92.7 112.3,81.9 112.3,80.3 		"/>
		<polygon id="XMLID_1372_" class="st53" points="93.6,94.9 93.6,96.4 112.3,85.6 112.3,84 		"/>
		<polygon id="XMLID_1371_" class="st53" points="93.6,98.6 93.6,100.1 112.3,89.3 112.3,87.7 		"/>
		<polygon id="XMLID_1370_" class="st53" points="93.6,102.2 93.6,103.7 104.2,97.6 104.2,96.1 		"/>
		<g id="XMLID_1363_">
			<path id="XMLID_1367_" class="st53" d="M83.1,96.6v12.3l0.8,0.4l1.2-1.5v-5.4l3.8-2.2v5.3l0.8,0.4l1.2-1.4V93.9
				c0-0.8-0.4-1.4-1-1.8c-0.7-0.4-1.4-0.4-2.1,0l-2.8,1.6C83.7,94.3,83.1,95.4,83.1,96.6z M85,100.2v-3.6c0-0.5,0.3-1,0.7-1.2
				l2.8-1.6c0.1,0,0.1,0,0.2,0c0.1,0,0.1,0.1,0.1,0.1V98L85,100.2z"/>
			<linearGradient id="XMLID_194_" gradientUnits="userSpaceOnUse" x1="83.8479" y1="100.7667" x2="91.4485" y2="100.7667">
				<stop  offset="0" style="stop-color:#4A65A3"/>
				<stop  offset="0.4402" style="stop-color:#5471B1"/>
				<stop  offset="1" style="stop-color:#5D7DBE"/>
			</linearGradient>
			<path id="XMLID_1364_" class="st116" d="M83.8,97v12.3l1.9-1.1v-5.4l3.8-2.2v5.3l1.9-1V94.3c0-0.8-0.4-1.4-1-1.8
				c-0.7-0.4-1.4-0.4-2.1,0l-2.8,1.6C84.5,94.7,83.8,95.8,83.8,97z M85.8,100.6V97c0-0.5,0.3-1,0.7-1.2l2.8-1.6c0.1,0,0.1,0,0.2,0
				c0.1,0,0.1,0.1,0.1,0.1v4.1L85.8,100.6z"/>
		</g>
	</g>
	<g>
		
			<linearGradient id="XMLID_195_" gradientUnits="userSpaceOnUse" x1="-795.9348" y1="139.8585" x2="-765.1536" y2="139.8585" gradientTransform="matrix(-1 0 0 1 -659.2789 0)">
			<stop  offset="0" style="stop-color:#FFFFFF"/>
			<stop  offset="0.2429" style="stop-color:#EEF5FC"/>
			<stop  offset="0.7232" style="stop-color:#C1DBF4"/>
			<stop  offset="0.9962" style="stop-color:#A5CBEF"/>
		</linearGradient>
		<path id="XMLID_1342_" class="st117" d="M136.2,120.2l0.1,0.2c0.2,0.3,0.3,0.6,0.3,1v20.9c0,0.9-0.6,2-1.4,2.4L108.6,160
			c-0.4,0.2-0.8,0.3-1.2,0.2l-0.1,0c-0.9-0.1-1.5-0.9-1.5-1.7v-21.2c0-0.9,0.6-2,1.4-2.4l26.6-15.2
			C134.7,119.2,135.7,119.5,136.2,120.2z"/>
		<path id="XMLID_1341_" class="st118" d="M135.3,120.4c0.8-0.4,1.4-0.1,1.4,0.8v20.9c0,0.9-0.6,2-1.4,2.4L108.6,160
			c-0.8,0.4-1.4,0.1-1.4-0.8v-21.1c0-0.9,0.6-2,1.4-2.4L135.3,120.4z"/>
		
			<linearGradient id="XMLID_196_" gradientUnits="userSpaceOnUse" x1="-791.7363" y1="129.4821" x2="-786.9438" y2="129.4821" gradientTransform="matrix(-1 0 0 1 -659.2789 0)">
			<stop  offset="0.1499" style="stop-color:#FF9800"/>
			<stop  offset="1" style="stop-color:#FFC107"/>
		</linearGradient>
		<path id="XMLID_1340_" class="st119" d="M130.1,126.7c1.3-0.8,2.4-0.2,2.4,1.3c0,1.5-1.1,3.4-2.4,4.2c-1.3,0.8-2.4,0.2-2.4-1.3
			S128.7,127.4,130.1,126.7z"/>
		<path id="XMLID_1339_" class="st53" d="M113.4,139.9l4.3,7.3l4.1-4.3l14.7-4.5v3.8c0,0.9-0.6,2-1.4,2.4L108.6,160
			c-0.8,0.4-1.4,0.1-1.4-0.8v-3.4l1.9-1.1L113.4,139.9z"/>
	</g>
	<g>
		
			<linearGradient id="XMLID_197_" gradientUnits="userSpaceOnUse" x1="-612.2051" y1="109.3166" x2="-586.0585" y2="109.3166" gradientTransform="matrix(-1 0 0 1 -540.9691 0)">
			<stop  offset="0" style="stop-color:#3C5185"/>
			<stop  offset="0.2406" style="stop-color:#40568B"/>
			<stop  offset="0.5747" style="stop-color:#4A649D"/>
			<stop  offset="0.9621" style="stop-color:#5B7ABB"/>
			<stop  offset="1" style="stop-color:#5D7DBE"/>
		</linearGradient>
		<path id="XMLID_1335_" class="st120" d="M45.1,116.7c0-8.3,5.9-18.5,13.1-22.6c3.3-1.9,6.4-2.2,8.7-1.2l0,0l0,0
			c0.3,0.2,0.6,0.3,0.9,0.5l2.1,1.2l-0.3,0.7c1,1.6,1.6,3.7,1.6,6.3c0,4-1.4,8.5-3.6,12.5v6.1c0,0.5-0.4,0.8-0.8,0.8h-4.4
			c-1.3,1.3-2.7,2.4-4.2,3.3c-1.5,0.9-3,1.4-4.4,1.6l0,0.4L52,126c-0.6,0-1.2-0.1-1.8-0.3l0,0l0,0C47.1,124.8,45.1,121.6,45.1,116.7
			z"/>
		<linearGradient id="XMLID_198_" gradientUnits="userSpaceOnUse" x1="47.3624" y1="109.8118" x2="72.9634" y2="109.8118">
			<stop  offset="0" style="stop-color:#3C5185"/>
			<stop  offset="0.128" style="stop-color:#41588E"/>
			<stop  offset="0.6948" style="stop-color:#5573B1"/>
			<stop  offset="1" style="stop-color:#5D7DBE"/>
		</linearGradient>
		<path id="XMLID_1334_" class="st121" d="M60.2,95c7-4.1,12.8-0.7,12.8,7.4c0,3.9-1.4,8.3-3.5,12.2v5.9c0,0.5-0.4,0.8-0.8,0.8h-4.3
			c-1.3,1.3-2.7,2.4-4.1,3.2c-7,4.1-12.8,0.7-12.8-7.4C47.4,109.1,53.1,99.1,60.2,95z"/>
		
			<linearGradient id="XMLID_199_" gradientUnits="userSpaceOnUse" x1="-611.2831" y1="110.0997" x2="-591.7567" y2="110.0997" gradientTransform="matrix(-1 0 0 1 -540.9691 0)">
			<stop  offset="0.1499" style="stop-color:#FF9800"/>
			<stop  offset="1" style="stop-color:#FFC107"/>
		</linearGradient>
		<path id="XMLID_1333_" class="st122" d="M60.6,98.4c5.4-3.2,9.8-0.6,9.8,5.9c0,6.4-4.4,14.4-9.8,17.6c-5.4,3.2-9.8,0.6-9.8-5.9
			S55.2,101.6,60.6,98.4z"/>
		<path id="XMLID_1332_" class="st104" d="M66.3,106.6c0.6-0.4,1.2-0.1,1.2,0.7c0,0.7-0.5,1.7-1.2,2c-0.6,0.4-1.2,0.1-1.2-0.7
			C65.1,107.9,65.6,106.9,66.3,106.6z"/>
		<path id="XMLID_1331_" class="st104" d="M60.8,109.6c0.6-0.4,1.2-0.1,1.2,0.7c0,0.7-0.5,1.7-1.2,2c-0.6,0.4-1.2,0.1-1.2-0.7
			S60.2,110,60.8,109.6z"/>
		<path id="XMLID_1330_" class="st104" d="M55.2,112.6c0.6-0.4,1.2-0.1,1.2,0.7s-0.5,1.7-1.2,2c-0.6,0.4-1.2,0.1-1.2-0.7
			C54,113.9,54.5,113,55.2,112.6z"/>
	</g>
	<g>
		<g id="XMLID_1138_">
			<path id="XMLID_1159_" class="st53" d="M178.5,184.2l-1.3-0.8l-1.4-0.8l-3.1-1.8c-0.8-0.5-0.7-1.6,0.2-1.9l0,0
				c0.6-0.2,1.3-0.2,1.8,0.1l2.4,1.2l2.9,1.1c0.2,0.1,0.4,0.3,0.4,0.6l0,0.8c-0.1,0.9-0.8,1.6-1.7,1.6H178.5z"/>
			<path id="XMLID_1158_" class="st123" d="M179,180.6l-1.9-0.5l-1.4-0.7c-0.7,0.4-0.8,1.4,0,1.8l2.1,1.2l0.1,0.1
				c0.6,0.3,1.3,0.2,1.8-0.2c0.4-0.4,0.7-0.7,0.5-0.9l-0.8-0.3C179.4,180.9,179.3,180.7,179,180.6z"/>
			<g id="XMLID_1154_">
				<path id="XMLID_1155_" class="st123" d="M178.6,182.8c-0.9,0-1.3-0.7-1.3-1.7l-2.2-29.2c0-0.9,2.9-2.9,3.8-2.9
					c0.9,0,1,1.3,1,2.2v16l0.3,13.9C180.3,182,179.5,182.8,178.6,182.8z"/>
			</g>
			<path id="XMLID_1163_" class="st124" d="M158.4,121.1l5.9-3.5c0.2-0.1,0.4,0,0.4,0.3l-0.1,3c0,0.2-0.1,0.4-0.3,0.5l-5.8,3.4
				c-0.2,0.1-0.4,0-0.4-0.2v-2.9C158.1,121.4,158.2,121.2,158.4,121.1z"/>
			<linearGradient id="XMLID_200_" gradientUnits="userSpaceOnUse" x1="158.6281" y1="121.2238" x2="164.508" y2="121.2238">
				<stop  offset="0.1499" style="stop-color:#FF9800"/>
				<stop  offset="1" style="stop-color:#FFC107"/>
			</linearGradient>
			<path id="XMLID_1162_" class="st125" d="M158.9,121.1l5.2-3.1c0.2-0.1,0.4,0,0.4,0.2l0,2.7c0,0.2-0.1,0.4-0.3,0.5l-5.2,3
				c-0.2,0.1-0.4,0-0.4-0.2v-2.6C158.6,121.4,158.7,121.2,158.9,121.1z"/>
			<g id="XMLID_1160_">
				<path id="XMLID_1161_" class="st123" d="M177,153.3c-0.2,0-0.4-0.1-0.6-0.2c-0.6-0.4-0.9-1.2-0.5-1.8l4.4-8
					c0.5-0.9,0.2-2-0.6-2.6l-5.7-3.9c-0.6-0.4-0.8-1.2-0.3-1.8c0.4-0.6,1.2-0.8,1.8-0.3l5.7,3.9c2,1.3,2.6,3.9,1.4,6l-4.4,8
					C177.9,153,177.5,153.3,177,153.3z"/>
			</g>
			<path id="XMLID_1157_" class="st53" d="M171.6,187.7l-1.3-0.8l-1.4-0.8l-3.1-1.8c-0.8-0.5-0.7-1.6,0.2-1.9l0,0
				c0.6-0.2,1.3-0.2,1.8,0.1l2.4,1.2l2.9,1.1c0.2,0.1,0.4,0.3,0.4,0.6l0,0.8c-0.1,0.9-0.8,1.6-1.7,1.6H171.6z"/>
			<path id="XMLID_1156_" class="st123" d="M172.1,184.1l-1.9-0.5l-1.4-0.7c-0.7,0.4-0.8,1.4,0,1.8l2.1,1.2l0.1,0.1
				c0.6,0.3,1.3,0.2,1.8-0.2c0.4-0.4,0.7-0.7,0.5-0.9l-0.8-0.3C172.5,184.4,172.4,184.2,172.1,184.1z"/>
			<g id="XMLID_1152_">
				<path id="XMLID_1153_" class="st123" d="M171.7,186.2c-0.9,0-1.3-0.7-1.3-1.7v-30.4c0-0.9,0.7-1.7,1.7-1.7s4.8,2.1,4.8,3
					l-2.6,14.4l-0.9,14.6C173.4,185.5,172.6,186.2,171.7,186.2z"/>
			</g>
			<g id="XMLID_1149_">
				<path id="XMLID_1150_" class="st123" d="M174.4,138.4c-0.1,0-0.1,0-0.2,0l-1.3-0.2c-5.8-1-10.7-4.8-13.2-10.1l-1.1-2.4
					c-0.3-0.7,0-1.5,0.7-1.8c0.7-0.3,1.5,0,1.8,0.7l1.1,2.4c2.1,4.6,6.3,7.8,11.2,8.6l1.3,0.2c0.7,0.1,1.2,0.8,1.1,1.5
					C175.6,137.9,175.1,138.4,174.4,138.4z"/>
			</g>
			<path id="XMLID_1148_" class="st123" d="M176.1,132.5L176.1,132.5c-0.5,0-1-0.4-1-1V127h2v4.5C177.1,132,176.6,132.5,176.1,132.5
				z"/>
			<path id="XMLID_1147_" class="st123" d="M178.1,130l-2,0.3c-1.4,0.2-2.8-1-2.6-2.4c0-0.1,0-0.2,0-0.2l1-4.6l4.8,1.1L178.1,130z"
				/>
			<path id="XMLID_1145_" class="st123" d="M160.6,124.7c-0.4,0.8-1.3,1.1-2,0.8c-0.8-0.4-1.1-1.3-0.8-2c0.4-0.8,1.2-0.3,2,0.1
				C160.6,123.9,161,123.9,160.6,124.7z"/>
			<path id="XMLID_1144_" class="st123" d="M158.2,124.1L158.2,124.1c-0.3,0-0.4-0.2-0.4-0.4v-2.2c0-0.2,0.2-0.4,0.4-0.4h0.1
				c0.2,0,0.4,0.2,0.4,0.4v2.2C158.5,124,158.4,124.1,158.2,124.1z"/>
			<path id="XMLID_1143_" class="st123" d="M157.9,121.9L157.9,121.9c-0.2-0.2-0.2-0.4,0-0.6l0.9-0.8c0.1-0.1,0.4-0.1,0.5,0l0,0.1
				c0.1,0.1,0.1,0.4,0,0.5l-0.9,0.8C158.2,122.1,158,122,157.9,121.9z"/>
			<path id="XMLID_1142_" class="st123" d="M160,124.4L160,124.4c-0.2-0.2-0.1-0.4,0-0.6l0.9-0.8c0.1-0.1,0.4-0.1,0.5,0l0,0.1
				c0.1,0.1,0.1,0.4,0,0.5l-0.9,0.8C160.4,124.6,160.2,124.5,160,124.4z"/>
			<linearGradient id="XMLID_201_" gradientUnits="userSpaceOnUse" x1="168.6882" y1="148.8534" x2="180.6591" y2="148.8534">
				<stop  offset="0" style="stop-color:#5D7DBE"/>
				<stop  offset="0.3052" style="stop-color:#5573B1"/>
				<stop  offset="0.872" style="stop-color:#41588E"/>
				<stop  offset="1" style="stop-color:#3C5185"/>
			</linearGradient>
			<path id="XMLID_74_" class="st126" d="M180.6,159.9c0.2-3.7-0.2-7.4-1.2-10.9l0.8-17c0-1.9-2-3.1-3.7-2.2l0,0
				c-0.3,0.1-0.6,0.5-0.8,0.7c-1.2,1.9-2.5,3.2-3.6,4.4c-0.4-0.1-0.8-0.2-1.2-0.4c-0.9-0.3-1.8,0.1-2.1,1c-0.3,0.9,0.1,1.8,1,2.1
				c0.2,0.1,0.3,0.1,0.5,0.1c-0.2,0.6-0.3,1.2-0.3,1.9l1,7.5l-1.2,7.4l-0.4,12.8c0.8,0.5,1.7,0.7,2.8,0.7c0.1,0,1.2-0.1,1.5-0.1
				c2.8-0.5,6-0.7,7-2.8L180.6,159.9z"/>
			<linearGradient id="XMLID_202_" gradientUnits="userSpaceOnUse" x1="181.2554" y1="139.4041" x2="175.0925" y2="121.9873">
				<stop  offset="0.1499" style="stop-color:#FF9800"/>
				<stop  offset="1" style="stop-color:#FFC107"/>
			</linearGradient>
			<path id="XMLID_1139_" class="st127" d="M182,135.3c-0.2-0.3-0.4-0.7-0.4-1c-0.1-0.8,0.6-1.4,0.7-2.2c0.2-1.1-0.6-2.2-0.5-3.3
				c0.1-1.3,0.4-2.3,0-3.6c-0.1-0.2-0.1-0.4-0.2-0.6c-0.7-1.6-2.3-2.4-3.9-2.7c-0.7-0.1-1.4-0.2-2.2-0.1c-0.4,0.1-0.9,0.1-1.2,0.3
				c-0.2,0.1-0.3,0.2-0.4,0.3c-0.1,0.2-0.2,0.5-0.2,0.8c0.1,0.6,0.9,0.9,0.9,1.5c0,0.3-0.2,0.6-0.2,0.9c0,0.4,0,0.8,0.2,1.2
				c0.3,0.7,1,1.3,0.9,2c0,0.3-0.2,0.7-0.2,1c-0.2,1.2,1.1,2.1,0.7,3.3c-0.2,0.8-1.1,1.3-1,2.1c0,0.3,0.2,0.6,0.3,0.9
				c0.1,0.7-0.4,1.4-0.1,2c1,2,4.4,1.7,6,0.8c0.4-0.2,0.8-0.5,1-0.9C182.8,137.2,182.4,136.1,182,135.3z"/>
			<path id="XMLID_1146_" class="st53" d="M175.1,151.9c1.7,0,3.3-0.2,4.8-0.7c-0.2-0.7-0.3-1.5-0.5-2.2l0-0.5c-2.6,0.9-6,0.9-8.6,0
				l-0.4,2.7C171.8,151.7,173.5,151.9,175.1,151.9z"/>
		</g>
	</g>
	<g id="XMLID_1034_">
		<g id="XMLID_1073_">
			<path id="XMLID_1074_" class="st123" d="M101.3,184.8c0.5,0,1-0.3,1.3-0.7l1.8-3c0.9-1.6,1.3-3.5,0.9-5.3l0-0.1l-2.5-9.4
				c-0.2-0.8-1-1.2-1.8-1c-0.8,0.2-1.2,1-1,1.8l2.5,9.4c0.2,1.1,0,2.2-0.6,3.2l-1.8,3c-0.4,0.7-0.2,1.6,0.5,2
				C100.8,184.8,101.1,184.8,101.3,184.8z"/>
		</g>
		<g id="XMLID_1067_">
			<linearGradient id="XMLID_203_" gradientUnits="userSpaceOnUse" x1="99.4057" y1="167.6725" x2="103.7" y2="167.6725">
				<stop  offset="0" style="stop-color:#FFFFFF"/>
				<stop  offset="1" style="stop-color:#A8D9FB"/>
			</linearGradient>
			<path id="XMLID_1068_" class="st128" d="M103.7,169.6L103.7,169.6l-1.2-4.5c-0.2-0.8-1.1-1.3-1.9-1.1c-0.8,0.2-1.3,1.1-1.1,1.9
				l1.2,4.4C100.9,172,104.1,171.6,103.7,169.6z"/>
		</g>
		<g id="XMLID_1065_">
			<path id="XMLID_1066_" class="st53" d="M96,191.2c-0.2,0.3-0.4,0.6-0.8,0.8l-4.9,2.8c-1,0.6-2.3,0.2-2.9-0.8
				c-0.6-1-0.2-2.3,0.8-2.9l4.9-2.8c1-0.6,2.3-0.2,2.9,0.8C96.4,189.8,96.4,190.6,96,191.2z"/>
		</g>
		<path id="XMLID_1064_" class="st104" d="M96,189.1c-0.3-0.5-0.8-0.9-1.4-1l-3.3,1.9c-0.8,0.4-1,1.4-0.6,2.2c0.4,0.8,1.4,1,2.2,0.6
			l3.1-1.8C96.4,190.4,96.4,189.7,96,189.1z"/>
		<g id="XMLID_1062_">
			<path id="XMLID_1063_" class="st58" d="M93.5,192.9c0.4,0,0.8-0.1,1.2-0.4l10-7c0.9-0.7,1.2-2,0.5-2.9c-0.7-0.9-2-1.2-2.9-0.5
				l-10,7c-0.9,0.7-1.2,2-0.5,2.9C92.2,192.6,92.8,192.9,93.5,192.9z"/>
		</g>
		<g id="XMLID_1060_">
			<path id="XMLID_1061_" class="st53" d="M101.6,190.4c0.4,0,0.7-0.1,1-0.3l4.9-2.8c1-0.6,1.3-1.9,0.8-2.8c-0.6-1-1.9-1.3-2.8-0.8
				l-4.9,2.8c-1,0.6-1.3,1.9-0.8,2.8C100.2,190,100.9,190.4,101.6,190.4z"/>
		</g>
		<path id="XMLID_1059_" class="st104" d="M99.8,189.3c-0.3-0.5-0.3-1.1-0.2-1.7l3.3-1.9c0.8-0.4,1.7-0.2,2.2,0.6
			c0.4,0.8,0.2,1.7-0.6,2.2l-3.1,1.8C100.7,190.3,100.1,189.9,99.8,189.3z"/>
		<path id="XMLID_1058_" class="st53" d="M101,168.8v14.1c0,0.8-0.5,1.5-1.2,1.9l-8,4.2c-0.8,0.4-1.8-0.1-1.8-1l1-9.6l-0.4-4.4
			c0-0.8-0.2-1.6,0.5-2l8-4.2C99.9,167.4,101,167.9,101,168.8z"/>
		<linearGradient id="XMLID_204_" gradientUnits="userSpaceOnUse" x1="89.4842" y1="174.0022" x2="101.4765" y2="174.0022">
			<stop  offset="0" style="stop-color:#FFFFFF"/>
			<stop  offset="1" style="stop-color:#A8D9FB"/>
		</linearGradient>
		<path id="XMLID_1057_" class="st129" d="M101.5,165.8v14.7c0,0.7-0.5,1.4-1.1,1.7l-1.7,0.7l-4.7,2c-1.9,1.1-4.4-0.3-4.4-2.4
			l0.8-2.9c0.2-0.6,0.2-1.1,0.1-1.7l-1-9.1c0-0.9,0.5-1.8,1.3-2.3l5.9-3.3C98.8,161.9,101.5,163.4,101.5,165.8z"/>
		<g id="XMLID_1055_">
			<path id="XMLID_1056_" class="st123" d="M96.3,166.8c0.7,0,1.3-0.6,1.3-1.3l0-4.2c0-0.7-0.6-1.3-1.3-1.3c-0.7,0-1.3,0.6-1.3,1.3
				l-0.1,1.6l0,2.5C95,166.2,95.6,166.8,96.3,166.8C96.3,166.8,96.3,166.8,96.3,166.8z"/>
		</g>
		<path id="XMLID_1054_" class="st123" d="M95.1,163.8l2.5,0.4c1.6,0.3,3.2-0.9,3.5-2.6l1-5.3l-3.2-0.6c-1.4-0.3-2.8,0.8-3.1,2.3
			L95.1,163.8z"/>
		<g id="XMLID_1052_">
			<path id="XMLID_1053_" class="st58" d="M97.5,191.6c1.7,0,3.3-0.4,4.8-1.3l1-0.6c1-0.6,1.3-1.9,0.8-2.8c-0.6-1-1.9-1.3-2.8-0.8
				l-1,0.6c-1,0.6-2.3,0.8-3.5,0.7l-8.4-1.2c-1.1-0.2-2.2,0.6-2.4,1.8c-0.2,1.1,0.6,2.2,1.8,2.4l8.4,1.2
				C96.6,191.6,97.1,191.6,97.5,191.6z"/>
		</g>
		<g id="XMLID_1050_">
			<path id="XMLID_1051_" class="st123" d="M98.6,186.3c0.6,0,1.2-0.4,1.4-1c0.3-0.8-0.1-1.6-0.9-1.9L92,181
				c-1.6-0.7-2.4-2.6-1.7-4.3l2.8-7.2c0.3-0.8-0.1-1.6-0.8-1.9c-0.8-0.3-1.6,0.1-1.9,0.8l-2.8,7.2c-1.2,3.1,0.2,6.7,3.3,8l0.1,0
				l7.1,2.5C98.3,186.3,98.4,186.3,98.6,186.3z"/>
		</g>
		<g id="XMLID_1047_">
			<linearGradient id="XMLID_205_" gradientUnits="userSpaceOnUse" x1="88.9663" y1="170.4091" x2="93.4397" y2="170.4091">
				<stop  offset="0" style="stop-color:#FFFFFF"/>
				<stop  offset="1" style="stop-color:#A8D9FB"/>
			</linearGradient>
			<path id="XMLID_1048_" class="st130" d="M92.1,172.5l1.2-3c0.3-0.8-0.1-1.8-0.9-2.1c-0.8-0.3-1.8,0.1-2.1,0.9l-1.2,3
				C88.3,173.6,91.4,174.3,92.1,172.5z"/>
		</g>
		<g id="XMLID_1045_">
			<path id="XMLID_1046_" class="st123" d="M101.3,184.8c0.5,0,1-0.3,1.3-0.7l1.8-3c0.9-1.6,1.3-3.5,0.9-5.3
				c-0.2-0.8-0.9-1.3-1.7-1.1c-0.8,0.2-1.3,0.9-1.1,1.7c0.2,1.1,0,2.2-0.5,3.2l-1.8,3c-0.4,0.7-0.2,1.6,0.5,2
				C100.8,184.8,101.1,184.8,101.3,184.8z"/>
		</g>
		<g id="XMLID_1040_">
			<path id="XMLID_1044_" class="st53" d="M97.5,184.4c0.1,0,0.1,0,0.2,0l4.1-2.4c0.1-0.1,0.2-0.3,0.1-0.4c-0.1-0.1-0.3-0.2-0.4-0.1
				l-4.1,2.4c-0.1,0.1-0.2,0.3-0.1,0.4C97.3,184.3,97.4,184.4,97.5,184.4z"/>
		</g>
		<circle id="XMLID_1039_" class="st123" cx="100.1" cy="184.4" r="1.4"/>
		<path id="XMLID_1038_" class="st123" d="M96.6,183.9l1.7-1c0.2-0.1,0.3-0.4,0.2-0.6l-0.1-0.1c-0.1-0.2-0.4-0.3-0.6-0.2l-1.7,1
			c-0.2,0.1-0.3,0.4-0.2,0.6l0.1,0.1C96.2,184,96.4,184,96.6,183.9z"/>
		<path id="XMLID_1037_" class="st123" d="M99.8,182l1.8-0.6c0.2-0.1,0.4-0.3,0.3-0.6l0,0c-0.1-0.2-0.3-0.4-0.6-0.3l-1.8,0.6
			c-0.2,0.1-0.4,0.3-0.3,0.6l0,0C99.2,181.9,99.5,182.1,99.8,182z"/>
		<path id="XMLID_1036_" class="st53" d="M99.3,158.8l-2.5-0.5l0,2.7h-0.9l-0.6,1.8c-0.1,0.4-0.6,0.6-0.9,0.4l0,0v-5.4
			c0-1.2,0.9-2.1,2.1-2.1h7.1l-1.2,1.9C101.7,158.5,100.5,159,99.3,158.8z"/>
		<circle id="XMLID_1035_" class="st123" cx="96.3" cy="160.4" r="1"/>
	</g>
	<g>
		<g id="XMLID_1098_">
			<path id="XMLID_1099_" class="st123" d="M153.4,167.3l-3.1,2.8c-0.3,0.3-0.8,0.2-1-0.2l-2.4-4.9c-0.5-0.8-0.7-1.3-1.4-1.4
				c-0.7-0.1-1.4,0.4-1.5,1.1l4.4,8.3c0.3,0.5,0.9,0.6,1.4,0.3l4.9-4.2L153.4,167.3z"/>
		</g>
		<circle id="XMLID_1097_" class="st131" cx="154.5" cy="167.7" r="1.5"/>
		<path id="XMLID_1096_" class="st53" d="M158,161l-2.1,1.9c-0.1,0.1-0.2,0.3-0.3,0.4l-1.9,5.6c-0.1,0.3,0.2,0.5,0.5,0.3l2.1-1.9
			c0.1-0.1,0.2-0.3,0.3-0.4l1.9-5.6C158.5,161,158.2,160.8,158,161z"/>
		<path id="XMLID_1095_" class="st123" d="M155.1,168.6L155.1,168.6c0.3,0.1,0.6,0,0.7-0.2l1.3-2.4c0.1-0.3,0-0.6-0.2-0.7l0,0
			c-0.3-0.1-0.6,0-0.7,0.2l-1.3,2.4C154.8,168.2,154.9,168.5,155.1,168.6z"/>
		<path id="XMLID_1094_" class="st123" d="M154.6,169.1L154.6,169.1c0.3,0.1,0.6-0.1,0.7-0.4l0.7-2.6c0.1-0.3-0.1-0.6-0.4-0.7l0,0
			c-0.3-0.1-0.6,0.1-0.7,0.4l-0.7,2.6C154.1,168.8,154.3,169,154.6,169.1z"/>
		<path id="XMLID_1093_" class="st123" d="M153.4,168.5L153.4,168.5c0.3,0,0.6-0.2,0.6-0.5l0.3-2.7c0-0.3-0.2-0.5-0.5-0.6l0,0
			c-0.3,0-0.6,0.2-0.6,0.5l-0.3,2.7C152.9,168.2,153.1,168.4,153.4,168.5z"/>
		<g id="XMLID_1092_">
			<path id="XMLID_73_" class="st118" d="M147.2,169.7c0.3,0,0.6-0.1,0.9-0.3c0.8-0.5,1-1.5,0.5-2.2l-2.5-3.8
				c-0.5-0.8-1.5-1-2.2-0.5c-0.8,0.5-1,1.5-0.5,2.2l2.5,3.8C146.1,169.5,146.6,169.7,147.2,169.7z"/>
		</g>
		<path id="XMLID_1091_" class="st58" d="M142.1,208.7v1.6c0,0.4,0.2,0.8,0.6,1.1l4.8,3c0.5,0.3,1.1,0.3,1.6,0l1.5-0.8
			c0.3-0.2,0.5-0.5,0.5-0.8l0-0.9c0,0-0.2,0.1-0.5-0.1l-3.2-1.9v-1H142.1z"/>
		<path id="XMLID_1090_" class="st118" d="M142.1,207.8v1.6c0,0.4,0.2,0.8,0.6,1.1l4.8,3c0.5,0.3,1.1,0.3,1.6,0l1.4-0.9
			c0.7-0.4,0.7-1.4,0-1.8l-3.2-1.9v-1H142.1z"/>
		<path id="XMLID_1089_" class="st58" d="M142.8,208.9c-1-0.6-1-1.6,0-2.1c1-0.6,2.7-0.6,3.7,0c1,0.6,1,1.6,0,2.1
			C145.5,209.5,143.9,209.5,142.8,208.9z"/>
		<path id="XMLID_1088_" class="st53" d="M143.5,208.5c-0.7-0.4-0.7-1,0-1.4c0.7-0.4,1.8-0.4,2.5,0c0.7,0.4,0.7,1,0,1.4
			C145.3,208.9,144.2,208.9,143.5,208.5z"/>
		<path id="XMLID_1087_" class="st58" d="M136.3,211.6v1.6c0,0.4,0.2,0.8,0.6,1.1l4.8,3c0.5,0.3,1.1,0.3,1.6,0l1.5-0.8
			c0.3-0.2,0.5-0.5,0.5-0.8l0-0.9c0,0-0.2,0.1-0.5-0.1l-3.2-1.9v-1H136.3z"/>
		<path id="XMLID_1086_" class="st118" d="M136.3,210.7v1.6c0,0.4,0.2,0.8,0.6,1.1l4.8,3c0.5,0.3,1.1,0.3,1.6,0l1.4-0.9
			c0.7-0.4,0.7-1.4,0-1.8l-3.2-1.9v-1H136.3z"/>
		<path id="XMLID_1085_" class="st58" d="M137.1,211.8c-1-0.6-1-1.6,0-2.1c1-0.6,2.7-0.6,3.7,0c1,0.6,1,1.6,0,2.1
			C139.8,212.4,138.1,212.4,137.1,211.8z"/>
		<path id="XMLID_1084_" class="st53" d="M137.7,211.4c-0.7-0.4-0.7-1,0-1.4c0.7-0.4,1.8-0.4,2.5,0c0.7,0.4,0.7,1,0,1.4
			C139.5,211.8,138.4,211.8,137.7,211.4z"/>
		<g id="XMLID_1082_">
			<linearGradient id="XMLID_206_" gradientUnits="userSpaceOnUse" x1="139.6426" y1="192.6547" x2="147.3531" y2="192.6547">
				<stop  offset="0" style="stop-color:#5D7DBE"/>
				<stop  offset="0.3052" style="stop-color:#5573B1"/>
				<stop  offset="0.872" style="stop-color:#41588E"/>
				<stop  offset="1" style="stop-color:#3C5185"/>
			</linearGradient>
			<path id="XMLID_1083_" class="st132" d="M144.7,208.5c0.9,0,1.7,0.2,1.7-0.7l0.9-14.2l-0.9-15.2c-0.1-1-0.9-1.7-1.8-1.6
				c-1,0.1-5.1,1.7-5,2.6l3.8,14.2l-0.4,13.9c-0.1,1,0.6,0.9,1.6,1C144.7,208.5,144.7,208.5,144.7,208.5z"/>
		</g>
		<g id="XMLID_1080_">
			<linearGradient id="XMLID_207_" gradientUnits="userSpaceOnUse" x1="137.3432" y1="195.3216" x2="145.938" y2="195.3216">
				<stop  offset="0" style="stop-color:#5D7DBE"/>
				<stop  offset="0.3052" style="stop-color:#5573B1"/>
				<stop  offset="0.872" style="stop-color:#41588E"/>
				<stop  offset="1" style="stop-color:#3C5185"/>
			</linearGradient>
			<path id="XMLID_1081_" class="st133" d="M139.1,211.2c1,0,1.7,0.1,1.7-0.9l2.1-22.6l3-5.9c0-1-5.9-2.3-6.9-2.3
				c-1,0-1.7,0.8-1.7,1.7v29.1C137.3,211.3,138.1,211.2,139.1,211.2z"/>
		</g>
		<path id="XMLID_1079_" class="st118" d="M142.8,161.4l-1,0.6c-3.5,2-5.3,4.6-5,8.6c0.3,4.6-0.1,13.9-0.1,13.9
			c5.9,0,10.6-2.6,10.6-2.6c-0.9-5.9,0-9.8,0-13.7C147.2,164.1,145.3,159.9,142.8,161.4z"/>
		<path id="XMLID_1078_" class="st123" d="M142.3,164.9L142.3,164.9c-0.7,0-1.2-0.5-1.2-1.2v-2.7h2.4v2.7
			C143.5,164.3,143,164.9,142.3,164.9z"/>
		<path id="XMLID_1077_" class="st123" d="M141.1,162.9L141.1,162.9c-1-0.2-1.7-1.2-1.5-2.2l1.1-5.5l6.7,1.3l-0.5,2.5
			C146.4,161.7,143.8,163.4,141.1,162.9z"/>
		<g id="XMLID_1076_">
			<path id="XMLID_72_" class="st123" d="M140.7,187c0.3,0.1,0.6,0.2,0.9,0.1c0.6-0.2,1-0.9,0.8-1.5l-2.5-7.4l0.5-10.2
				c0-0.7-0.5-1.2-1.1-1.3c-0.7,0-1.2,0.5-1.3,1.1l-0.6,10.7l2.6,7.9C140.2,186.6,140.5,186.8,140.7,187z"/>
		</g>
		<g id="XMLID_1075_">
			<path id="XMLID_71_" class="st118" d="M138.1,174.8c0.2,0.1,0.4,0.1,0.6,0.2c0.9,0.1,1.7-0.6,1.8-1.5l0.5-5.5
				c0.1-0.9-0.6-1.7-1.5-1.8c-0.9-0.1-1.7,0.6-1.8,1.5l-0.5,5.5C137.2,173.9,137.5,174.5,138.1,174.8z"/>
		</g>
		<path id="XMLID_70_" class="st58" d="M142.7,157.7c-0.5,0.2-0.9,0.8-1.1,1.3c-0.1,0.4,0,0.5,0.2,0.9c0.1,0.2,0.2,0.4,0.1,0.6
			c0,0,0,0,0,0.1c0,0,0,0-0.1,0c-0.2,0-0.4-0.2-0.5-0.3c-0.2-0.3-0.5-0.5-0.8-0.2c-0.3,0.3-0.1,0.6,0,1c0.2,0.4,0.3,1.2-0.1,1.5
			c-0.3,0.2-1.1-0.1-1.4-0.3c0,0-0.1-0.1-0.1-0.1c-0.9-0.7-0.8-2.1-0.9-3.1c-0.1-0.8,0.1-1.5,0.2-2.3c0.1-0.8,0.1-1.5,0.7-2.1
			c0.5-0.6,1.5-0.8,2.1-0.2c0.3-0.4,0.8-0.6,1.4-0.7c0.5-0.1,1,0,1.5,0.1c1,0.1,1.7,0.4,2.5,1c0.4,0.3,0.7,0.6,1,0.9
			c0.3,0.3,0.3,0.7,0.2,1.2c-0.1,0.5-0.3,0.9-0.5,1.4c0,0-0.1-0.1-0.1-0.2c-0.1-0.4-0.1-0.8-0.5-1.2c-0.3-0.3-0.6-0.3-1-0.1
			c-0.1,0-0.2,0.1-0.3,0.2c-0.3,0.2-0.2,0.6-0.5,0.7c-0.2,0.2-0.6,0.1-0.8,0.1c-0.3,0-0.6-0.1-0.9-0.1
			C142.9,157.6,142.8,157.6,142.7,157.7z"/>
		<path id="XMLID_69_" class="st123" d="M142.9,187.7L142.9,187.7c0.2-0.1,0.2-0.2,0.2-0.4l-0.8-2.3c-0.1-0.2-0.2-0.2-0.4-0.2l0,0
			c-0.2,0.1-0.2,0.2-0.2,0.4l0.8,2.3C142.6,187.7,142.8,187.8,142.9,187.7z"/>
		<path id="XMLID_68_" class="st123" d="M142.3,188.4L142.3,188.4c0.2-0.1,0.2-0.2,0.2-0.4l-0.8-2.3c-0.1-0.2-0.2-0.2-0.4-0.2l0,0
			c-0.2,0.1-0.2,0.2-0.2,0.4l0.8,2.3C142,188.4,142.2,188.5,142.3,188.4z"/>
		<path id="XMLID_67_" class="st123" d="M141.5,188.5L141.5,188.5c0.2-0.1,0.2-0.2,0.2-0.4l-0.8-2.3c-0.1-0.2-0.2-0.2-0.4-0.2l0,0
			c-0.2,0.1-0.2,0.2-0.2,0.4l0.8,2.3C141.2,188.5,141.4,188.6,141.5,188.5z"/>
		<path id="XMLID_66_" class="st123" d="M140.2,188.3L140.2,188.3c0.2,0,0.3-0.1,0.3-0.3l0.3-2.4c0-0.2-0.1-0.3-0.3-0.3l0,0
			c-0.2,0-0.3,0.1-0.3,0.3l-0.3,2.4C139.9,188.1,140,188.3,140.2,188.3z"/>
		<path id="XMLID_65_" class="st123" d="M143.2,185.5L143.2,185.5c0.1-0.1,0.1-0.3-0.1-0.4l-1.9-1.5c-0.1-0.1-0.3-0.1-0.4,0.1l0,0
			c-0.1,0.1-0.1,0.3,0.1,0.4l1.9,1.5C142.9,185.7,143.1,185.6,143.2,185.5z"/>
	</g>
	<g>
		<g class="st1">
			<path id="XMLID_44_" class="st2" d="M75.3,198.2c3.7-2.1,3.7-5.6,0-7.7c-3.7-2.1-9.7-2.1-13.4,0c-3.7,2.1-3.7,5.6,0,7.7
				C65.6,200.3,71.6,200.3,75.3,198.2z"/>
			<path id="XMLID_64_" class="st3" d="M75.2,198.1c3.6-2.1,3.6-5.5,0-7.6s-9.5-2.1-13.1,0c-3.6,2.1-3.6,5.5,0,7.6
				C65.6,200.2,71.5,200.2,75.2,198.1z"/>
			<path id="XMLID_63_" class="st4" d="M75.1,198.1c3.6-2,3.6-5.4,0-7.4s-9.4-2-12.9,0c-3.5,2-3.5,5.4,0,7.4
				C65.7,200.1,71.5,200.1,75.1,198.1z"/>
			<path id="XMLID_62_" class="st5" d="M74.9,198c3.5-2,3.5-5.3,0-7.3c-3.5-2-9.2-2-12.7,0c-3.5,2-3.5,5.3,0,7.3
				C65.7,200,71.4,200,74.9,198z"/>
			<path id="XMLID_61_" class="st6" d="M74.8,198c3.4-2,3.4-5.2,0-7.2c-3.4-2-9.1-2-12.5,0c-3.4,2-3.4,5.2,0,7.2
				C65.8,199.9,71.4,199.9,74.8,198z"/>
			<path id="XMLID_60_" class="st7" d="M74.7,197.9c3.4-1.9,3.4-5.1,0-7.1c-3.4-1.9-8.9-1.9-12.3,0c-3.4,1.9-3.4,5.1,0,7.1
				C65.8,199.8,71.3,199.8,74.7,197.9z"/>
			<path id="XMLID_59_" class="st8" d="M74.6,197.8c3.3-1.9,3.3-5,0-7c-3.3-1.9-8.8-1.9-12.1,0c-3.3,1.9-3.3,5,0,7
				C65.9,199.7,71.3,199.7,74.6,197.8z"/>
			<path id="XMLID_58_" class="st9" d="M74.5,197.8c3.3-1.9,3.3-5,0-6.8c-3.3-1.9-8.6-1.9-11.9,0c-3.3,1.9-3.3,5,0,6.8
				C65.9,199.7,71.2,199.7,74.5,197.8z"/>
			<path id="XMLID_57_" class="st10" d="M74.4,197.7c3.2-1.8,3.2-4.9,0-6.7c-3.2-1.8-8.5-1.8-11.7,0c-3.2,1.8-3.2,4.9,0,6.7
				C66,199.6,71.2,199.6,74.4,197.7z"/>
			<path id="XMLID_56_" class="st11" d="M74.3,197.6c3.2-1.8,3.2-4.8,0-6.6c-3.2-1.8-8.3-1.8-11.4,0c-3.1,1.8-3.1,4.8,0,6.6
				C66,199.5,71.2,199.5,74.3,197.6z"/>
			<path id="XMLID_55_" class="st12" d="M74.2,197.6c3.1-1.8,3.1-4.7,0-6.5c-3.1-1.8-8.2-1.8-11.2,0c-3.1,1.8-3.1,4.7,0,6.5
				C66.1,199.4,71.1,199.4,74.2,197.6z"/>
			<path id="XMLID_54_" class="st13" d="M74.1,197.5c3-1.7,3-4.6,0-6.3c-3-1.7-8-1.7-11,0c-3,1.7-3,4.6,0,6.3
				C66.1,199.3,71.1,199.3,74.1,197.5z"/>
			<path id="XMLID_53_" class="st14" d="M74,197.5c3-1.7,3-4.5,0-6.2c-3-1.7-7.8-1.7-10.8,0c-3,1.7-3,4.5,0,6.2
				C66.1,199.2,71,199.2,74,197.5z"/>
			<path id="XMLID_52_" class="st15" d="M73.9,197.4c2.9-1.7,2.9-4.4,0-6.1c-2.9-1.7-7.7-1.7-10.6,0c-2.9,1.7-2.9,4.4,0,6.1
				C66.2,199.1,71,199.1,73.9,197.4z"/>
			<path id="XMLID_51_" class="st16" d="M73.8,197.3c2.9-1.6,2.9-4.3,0-6c-2.9-1.6-7.5-1.6-10.4,0c-2.8,1.6-2.8,4.3,0,6
				C66.2,199,70.9,199,73.8,197.3z"/>
			<path id="XMLID_50_" class="st17" d="M73.7,197.3c2.8-1.6,2.8-4.2,0-5.9c-2.8-1.6-7.4-1.6-10.2,0c-2.8,1.6-2.8,4.2,0,5.9
				C66.3,198.9,70.9,198.9,73.7,197.3z"/>
			<path id="XMLID_49_" class="st18" d="M73.6,197.2c2.7-1.6,2.7-4.2,0-5.7c-2.7-1.6-7.2-1.6-10,0c-2.7,1.6-2.7,4.2,0,5.7
				C66.3,198.8,70.8,198.8,73.6,197.2z"/>
			<path id="XMLID_48_" class="st19" d="M73.5,197.2c2.7-1.5,2.7-4.1,0-5.6c-2.7-1.5-7.1-1.5-9.8,0c-2.7,1.5-2.7,4.1,0,5.6
				C66.4,198.7,70.8,198.7,73.5,197.2z"/>
			<path id="XMLID_47_" class="st20" d="M73.4,197.1c2.6-1.5,2.6-4,0-5.5c-2.6-1.5-6.9-1.5-9.5,0c-2.6,1.5-2.6,4,0,5.5
				C66.4,198.6,70.7,198.6,73.4,197.1z"/>
			<path id="XMLID_46_" class="st21" d="M73.3,197c2.6-1.5,2.6-3.9,0-5.4c-2.6-1.5-6.8-1.5-9.3,0c-2.6,1.5-2.6,3.9,0,5.4
				C66.5,198.5,70.7,198.5,73.3,197z"/>
			<path id="XMLID_45_" class="st22" d="M73.1,197c2.5-1.4,2.5-3.8,0-5.2c-2.5-1.4-6.6-1.4-9.1,0c-2.5,1.4-2.5,3.8,0,5.2
				C66.5,198.4,70.6,198.4,73.1,197z"/>
			<path id="XMLID_39_" class="st23" d="M73,196.9c2.5-1.4,2.5-3.7,0-5.1c-2.5-1.4-6.5-1.4-8.9,0c-2.4,1.4-2.4,3.7,0,5.1
				C66.6,198.3,70.6,198.3,73,196.9z"/>
			<path id="XMLID_38_" class="st24" d="M72.9,196.9c2.4-1.4,2.4-3.6,0-5c-2.4-1.4-6.3-1.4-8.7,0c-2.4,1.4-2.4,3.6,0,5
				C66.6,198.2,70.5,198.2,72.9,196.9z"/>
			<path id="XMLID_37_" class="st25" d="M72.8,196.8c2.3-1.3,2.3-3.5,0-4.9s-6.2-1.3-8.5,0c-2.3,1.3-2.3,3.5,0,4.9
				C66.7,198.1,70.5,198.1,72.8,196.8z"/>
			<path id="XMLID_36_" class="st26" d="M72.7,196.7c2.3-1.3,2.3-3.5,0-4.8c-2.3-1.3-6-1.3-8.3,0c-2.3,1.3-2.3,3.5,0,4.8
				C66.7,198,70.4,198,72.7,196.7z"/>
			<path id="XMLID_35_" class="st27" d="M72.6,196.7c2.2-1.3,2.2-3.4,0-4.6c-2.2-1.3-5.8-1.3-8.1,0c-2.2,1.3-2.2,3.4,0,4.6
				C66.8,197.9,70.4,197.9,72.6,196.7z"/>
			<path id="XMLID_34_" class="st28" d="M72.5,196.6c2.2-1.2,2.2-3.3,0-4.5c-2.2-1.2-5.7-1.2-7.8,0c-2.2,1.2-2.2,3.3,0,4.5
				C66.8,197.9,70.3,197.9,72.5,196.6z"/>
			<path id="XMLID_27_" class="st29" d="M72.4,196.6c2.1-1.2,2.1-3.2,0-4.4c-2.1-1.2-5.5-1.2-7.6,0c-2.1,1.2-2.1,3.2,0,4.4
				C66.9,197.8,70.3,197.8,72.4,196.6z"/>
			<path id="XMLID_26_" class="st30" d="M72.3,196.5c2-1.2,2-3.1,0-4.3c-2-1.2-5.4-1.2-7.4,0c-2,1.2-2,3.1,0,4.3
				C66.9,197.7,70.3,197.7,72.3,196.5z"/>
			<path id="XMLID_25_" class="st31" d="M72.2,196.4c2-1.1,2-3,0-4.2c-2-1.1-5.2-1.1-7.2,0c-2,1.1-2,3,0,4.2
				C67,197.6,70.2,197.6,72.2,196.4z"/>
			<path id="XMLID_24_" class="st32" d="M72.1,196.4c1.9-1.1,1.9-2.9,0-4c-1.9-1.1-5.1-1.1-7,0c-1.9,1.1-1.9,2.9,0,4
				C67,197.5,70.2,197.5,72.1,196.4z"/>
			<path id="XMLID_23_" class="st33" d="M72,196.3c1.9-1.1,1.9-2.8,0-3.9c-1.9-1.1-4.9-1.1-6.8,0c-1.9,1.1-1.9,2.8,0,3.9
				C67.1,197.4,70.1,197.4,72,196.3z"/>
			<path id="XMLID_22_" class="st34" d="M71.9,196.2c1.8-1,1.8-2.7,0-3.8c-1.8-1-4.8-1-6.6,0c-1.8,1-1.8,2.7,0,3.8
				C67.1,197.3,70.1,197.3,71.9,196.2z"/>
			<path id="XMLID_21_" class="st35" d="M71.8,196.2c1.8-1,1.8-2.7,0-3.7c-1.8-1-4.6-1-6.4,0c-1.7,1-1.7,2.7,0,3.7
				C67.2,197.2,70,197.2,71.8,196.2z"/>
			<path id="XMLID_20_" class="st36" d="M71.7,196.1c1.7-1,1.7-2.6,0-3.5c-1.7-1-4.5-1-6.2,0c-1.7,1-1.7,2.6,0,3.5
				C67.2,197.1,70,197.1,71.7,196.1z"/>
			<path id="XMLID_19_" class="st37" d="M71.6,196.1c1.6-0.9,1.6-2.5,0-3.4c-1.6-0.9-4.3-0.9-5.9,0c-1.6,0.9-1.6,2.5,0,3.4
				C67.3,197,69.9,197,71.6,196.1z"/>
			<path id="XMLID_18_" class="st38" d="M71.5,196c1.6-0.9,1.6-2.4,0-3.3c-1.6-0.9-4.2-0.9-5.7,0c-1.6,0.9-1.6,2.4,0,3.3
				C67.3,196.9,69.9,196.9,71.5,196z"/>
			<path id="XMLID_17_" class="st39" d="M71.3,195.9c1.5-0.9,1.5-2.3,0-3.2c-1.5-0.9-4-0.9-5.5,0c-1.5,0.9-1.5,2.3,0,3.2
				C67.3,196.8,69.8,196.8,71.3,195.9z"/>
			<path id="XMLID_16_" class="st40" d="M71.2,195.9c1.5-0.8,1.5-2.2,0-3.1c-1.5-0.8-3.8-0.8-5.3,0c-1.5,0.8-1.5,2.2,0,3.1
				C67.4,196.7,69.8,196.7,71.2,195.9z"/>
			<path id="XMLID_15_" class="st41" d="M71.1,195.8c1.4-0.8,1.4-2.1,0-2.9c-1.4-0.8-3.7-0.8-5.1,0c-1.4,0.8-1.4,2.1,0,2.9
				C67.4,196.6,69.7,196.6,71.1,195.8z"/>
			<path id="XMLID_14_" class="st42" d="M71,195.8c1.3-0.8,1.3-2,0-2.8c-1.3-0.8-3.5-0.8-4.9,0c-1.3,0.8-1.3,2,0,2.8
				C67.5,196.5,69.7,196.5,71,195.8z"/>
			<path id="XMLID_13_" class="st43" d="M70.9,195.7c1.3-0.7,1.3-1.9,0-2.7c-1.3-0.7-3.4-0.7-4.7,0c-1.3,0.7-1.3,1.9,0,2.7
				C67.5,196.4,69.6,196.4,70.9,195.7z"/>
			<path id="XMLID_12_" class="st44" d="M70.8,195.6c1.2-0.7,1.2-1.9,0-2.6c-1.2-0.7-3.2-0.7-4.5,0c-1.2,0.7-1.2,1.9,0,2.6
				C67.6,196.3,69.6,196.3,70.8,195.6z"/>
			<path id="XMLID_11_" class="st45" d="M70.7,195.6c1.2-0.7,1.2-1.8,0-2.4c-1.2-0.7-3.1-0.7-4.2,0c-1.2,0.7-1.2,1.8,0,2.4
				C67.6,196.2,69.5,196.2,70.7,195.6z"/>
			<path id="XMLID_10_" class="st46" d="M70.6,195.5c1.1-0.6,1.1-1.7,0-2.3c-1.1-0.6-2.9-0.6-4,0c-1.1,0.6-1.1,1.7,0,2.3
				C67.7,196.2,69.5,196.2,70.6,195.5z"/>
			<path id="XMLID_9_" class="st47" d="M70.5,195.5c1.1-0.6,1.1-1.6,0-2.2c-1.1-0.6-2.8-0.6-3.8,0c-1,0.6-1,1.6,0,2.2
				C67.7,196.1,69.4,196.1,70.5,195.5z"/>
			<path id="XMLID_8_" class="st48" d="M70.4,195.4c1-0.6,1-1.5,0-2.1c-1-0.6-2.6-0.6-3.6,0c-1,0.6-1,1.5,0,2.1
				C67.8,196,69.4,196,70.4,195.4z"/>
			<path id="XMLID_7_" class="st49" d="M70.3,195.3c0.9-0.5,0.9-1.4,0-2c-0.9-0.5-2.5-0.5-3.4,0c-0.9,0.5-0.9,1.4,0,2
				C67.8,195.9,69.4,195.9,70.3,195.3z"/>
			<path id="XMLID_4_" class="st50" d="M70.2,195.3c0.9-0.5,0.9-1.3,0-1.8c-0.9-0.5-2.3-0.5-3.2,0c-0.9,0.5-0.9,1.3,0,1.8
				C67.9,195.8,69.3,195.8,70.2,195.3z"/>
			<path id="XMLID_3_" class="st51" d="M70.1,195.2c0.8-0.5,0.8-1.2,0-1.7c-0.8-0.5-2.2-0.5-3,0c-0.8,0.5-0.8,1.2,0,1.7
				C67.9,195.7,69.3,195.7,70.1,195.2z"/>
			<path id="XMLID_2_" class="st52" d="M70,195.1c0.8-0.4,0.8-1.2,0-1.6c-0.8-0.4-2-0.4-2.8,0c-0.8,0.4-0.8,1.2,0,1.6
				C68,195.6,69.2,195.6,70,195.1z"/>
			<path id="XMLID_43_" class="st53" d="M69.9,195.1c0.7-0.4,0.7-1.1,0-1.5c-0.7-0.4-1.9-0.4-2.5,0c-0.7,0.4-0.7,1.1,0,1.5
				C68,195.5,69.2,195.5,69.9,195.1z"/>
		</g>
		<path id="XMLID_42_" class="st54" d="M73,195.5c2.3-1.3,2.3-7.6,0-9c-2.3-1.3-6.2-1.3-8.5,0c-2.3,1.3-2.3,7.6,0,9
			c1.2,0.7,2.7,1.3,4.2,1.3C70.2,196.8,71.8,196.1,73,195.5z"/>
		<linearGradient id="XMLID_208_" gradientUnits="userSpaceOnUse" x1="62.514" y1="187.8837" x2="74.9853" y2="187.8837">
			<stop  offset="0" style="stop-color:#D1E1F2"/>
			<stop  offset="0.1932" style="stop-color:#C8DBF0"/>
			<stop  offset="0.5066" style="stop-color:#B0CAEA"/>
			<stop  offset="0.8991" style="stop-color:#89AFE2"/>
			<stop  offset="1" style="stop-color:#7EA7DF"/>
		</linearGradient>
		<path id="XMLID_41_" class="st134" d="M75,187.9c0,0,0-0.1,0-0.1v-0.9h-0.2c-0.3-0.6-0.8-1.1-1.6-1.5c-2.4-1.4-6.4-1.4-8.8,0
			c-0.8,0.4-1.3,1-1.6,1.5h-0.2v0.7c0,0.2,0,0.4,0,0.6v0h0c0.1,0.8,0.7,1.6,1.8,2.2c2.4,1.4,6.4,1.4,8.8,0c1.1-0.6,1.7-1.4,1.8-2.2
			h0V187.9z"/>
		<path id="XMLID_40_" class="st56" d="M73.2,189.5c2.4-1.4,2.4-3.7,0-5.1c-2.4-1.4-6.4-1.4-8.8,0c-2.4,1.4-2.4,3.7,0,5.1
			C66.8,190.9,70.7,190.9,73.2,189.5z"/>
		<path id="XMLID_33_" class="st57" d="M72.8,189.3c2.2-1.3,2.2-3.4,0-4.7c-2.2-1.3-5.9-1.3-8.1,0c-2.2,1.3-2.2,3.4,0,4.7
			S70.6,190.6,72.8,189.3z"/>
		<path id="XMLID_32_" class="st58" d="M72.1,189.5c1.8-1.1,1.8-2.8,0-3.8c-1.8-1.1-4.8-1.1-6.6,0c-1.8,1.1-1.8,2.8,0,3.8
			C67.2,190.6,70.2,190.6,72.1,189.5z"/>
		<g id="XMLID_31_">
			<path id="XMLID_1_" class="st53" d="M68.7,188.5c-0.3,0-0.5-0.2-0.5-0.5v-17.2c0-0.3,0.2-0.5,0.5-0.5c0.3,0,0.5,0.2,0.5,0.5V188
				C69.2,188.3,69,188.5,68.7,188.5z"/>
		</g>
		<linearGradient id="XMLID_209_" gradientUnits="userSpaceOnUse" x1="61.994" y1="173.3012" x2="75.5052" y2="173.3012">
			<stop  offset="0.1499" style="stop-color:#FF9800"/>
			<stop  offset="1" style="stop-color:#FFC107"/>
		</linearGradient>
		<path id="XMLID_30_" class="st135" d="M73.4,171.2c0.3-0.7,0.5-1.4,0.5-2.3c0-2.9-2.3-5.2-5.2-5.2c-2.9,0-5.2,2.3-5.2,5.2
			c0,0.8,0.2,1.6,0.5,2.3c-1.3,1.2-2.1,3-2.1,4.9c0,3.7,3,6.8,6.8,6.8c3.7,0,6.8-3,6.8-6.8C75.5,174.2,74.7,172.4,73.4,171.2z"/>
		<path id="XMLID_29_" class="st60" d="M62.3,176.1c0-1.9,0.8-3.7,2.1-4.9c-0.3-0.7-0.5-1.4-0.5-2.3c0-2.8,2.2-5.1,5-5.2
			c0,0-0.1,0-0.1,0c-2.9,0-5.2,2.3-5.2,5.2c0,0.8,0.2,1.6,0.5,2.3c-1.3,1.2-2.1,3-2.1,4.9c0,3.7,3,6.8,6.8,6.8c0.1,0,0.1,0,0.1,0
			C65.2,182.8,62.3,179.8,62.3,176.1z"/>
		<path id="XMLID_28_" class="st61" d="M73.4,171.2c0.3-0.7,0.5-1.4,0.5-2.3c0-2.9-2.3-5.2-5.2-5.2c-0.3,0-0.5,0-0.7,0.1
			c2.5,0.4,4.4,2.5,4.4,5.1c0,0.8-0.2,1.6-0.5,2.3c1.3,1.2,2.1,3,2.1,4.9c0,3.5-2.6,6.3-6,6.7c0.2,0,0.5,0,0.7,0
			c3.7,0,6.8-3,6.8-6.8C75.5,174.2,74.7,172.4,73.4,171.2z"/>
	</g>
</g>
</svg>
