<?xml version="1.0" encoding="utf-8"?>
<!-- Generator: Adobe Illustrator 19.0.0, SVG Export Plug-In . SVG Version: 6.00 Build 0)  -->
<svg version="1.1" id="Layer_1" xmlns="http://www.w3.org/2000/svg" xmlns:xlink="http://www.w3.org/1999/xlink" x="0px" y="0px"
	 viewBox="0 0 256 256" style="enable-background:new 0 0 256 256;" xml:space="preserve">
<style type="text/css">
	.st0{fill:url(#XMLID_10_);}
	.st1{fill:#3C5185;}
	.st2{fill:url(#XMLID_11_);}
	.st3{fill:#4A65A3;}
	.st4{opacity:0.3;}
	.st5{opacity:0;fill:#3C5185;}
	.st6{opacity:2.439000e-002;fill:#3C5185;}
	.st7{opacity:4.878000e-002;fill:#3C5185;}
	.st8{opacity:7.317100e-002;fill:#3C5185;}
	.st9{opacity:9.756100e-002;fill:#3C5185;}
	.st10{opacity:0.122;fill:#3C5185;}
	.st11{opacity:0.1463;fill:#3C5185;}
	.st12{opacity:0.1707;fill:#3C5185;}
	.st13{opacity:0.1951;fill:#3C5185;}
	.st14{opacity:0.2195;fill:#3C5185;}
	.st15{opacity:0.2439;fill:#3C5185;}
	.st16{opacity:0.2683;fill:#3C5185;}
	.st17{opacity:0.2927;fill:#3C5185;}
	.st18{opacity:0.3171;fill:#3C5185;}
	.st19{opacity:0.3415;fill:#3C5185;}
	.st20{opacity:0.3659;fill:#3C5185;}
	.st21{opacity:0.3902;fill:#3C5185;}
	.st22{opacity:0.4146;fill:#3C5185;}
	.st23{opacity:0.439;fill:#3C5185;}
	.st24{opacity:0.4634;fill:#3C5185;}
	.st25{opacity:0.4878;fill:#3C5185;}
	.st26{opacity:0.5122;fill:#3C5185;}
	.st27{opacity:0.5366;fill:#3C5185;}
	.st28{opacity:0.561;fill:#3C5185;}
	.st29{opacity:0.5854;fill:#3C5185;}
	.st30{opacity:0.6098;fill:#3C5185;}
	.st31{opacity:0.6341;fill:#3C5185;}
	.st32{opacity:0.6585;fill:#3C5185;}
	.st33{opacity:0.6829;fill:#3C5185;}
	.st34{opacity:0.7073;fill:#3C5185;}
	.st35{opacity:0.7317;fill:#3C5185;}
	.st36{opacity:0.7561;fill:#3C5185;}
	.st37{opacity:0.7805;fill:#3C5185;}
	.st38{opacity:0.8049;fill:#3C5185;}
	.st39{opacity:0.8293;fill:#3C5185;}
	.st40{opacity:0.8537;fill:#3C5185;}
	.st41{opacity:0.878;fill:#3C5185;}
	.st42{opacity:0.9024;fill:#3C5185;}
	.st43{opacity:0.9268;fill:#3C5185;}
	.st44{opacity:0.9512;fill:#3C5185;}
	.st45{opacity:0.9756;fill:#3C5185;}
	.st46{fill:url(#XMLID_13_);}
	.st47{fill:#F3F8FE;}
	.st48{fill:#A5CBEF;}
	.st49{opacity:0.1;fill:url(#XMLID_241_);}
	.st50{opacity:0.1;fill:url(#XMLID_242_);}
	.st51{opacity:0.1;fill:url(#XMLID_243_);}
	.st52{opacity:0.1;fill:url(#XMLID_244_);}
	.st53{fill:#FFFFFF;}
	.st54{fill:#9EB1D8;}
	.st55{fill:url(#XMLID_247_);}
	.st56{fill:url(#XMLID_250_);}
	.st57{fill:url(#XMLID_251_);}
	.st58{fill:#C9E0F5;}
	.st59{opacity:0.2;fill:url(#XMLID_252_);}
	.st60{fill:url(#XMLID_253_);}
	.st61{fill:url(#XMLID_254_);}
	.st62{fill:url(#XMLID_255_);}
	.st63{opacity:0.2;fill:url(#XMLID_256_);}
	.st64{fill:url(#XMLID_257_);}
	.st65{fill:url(#XMLID_258_);}
	.st66{fill:url(#XMLID_259_);}
	.st67{fill:#FFC107;}
	.st68{fill:url(#XMLID_260_);}
	.st69{fill:url(#XMLID_261_);}
	.st70{fill:#F6F9FC;}
	.st71{fill:#D1E1F2;}
	.st72{fill:url(#XMLID_262_);}
	.st73{fill:url(#XMLID_263_);}
	.st74{fill:url(#XMLID_264_);}
	.st75{fill:url(#XMLID_265_);}
	.st76{fill:url(#XMLID_266_);}
	.st77{fill:url(#XMLID_267_);}
	.st78{fill:url(#XMLID_268_);}
	.st79{fill:url(#XMLID_269_);}
	.st80{fill:url(#XMLID_270_);}
	.st81{opacity:0.14;}
	.st82{opacity:0;fill:#FFFFFF;}
	.st83{opacity:2.439000e-002;fill:#FAFBFC;}
	.st84{opacity:4.878000e-002;fill:#F5F7F9;}
	.st85{opacity:7.317100e-002;fill:#F1F2F6;}
	.st86{opacity:9.756100e-002;fill:#ECEEF3;}
	.st87{opacity:0.122;fill:#E7EAF0;}
	.st88{opacity:0.1463;fill:#E2E6ED;}
	.st89{opacity:0.1707;fill:#DEE1EA;}
	.st90{opacity:0.1951;fill:#D9DDE7;}
	.st91{opacity:0.2195;fill:#D4D9E4;}
	.st92{opacity:0.2439;fill:#CFD5E1;}
	.st93{opacity:0.2683;fill:#CBD0DE;}
	.st94{opacity:0.2927;fill:#C6CCDB;}
	.st95{opacity:0.3171;fill:#C1C8D8;}
	.st96{opacity:0.3415;fill:#BCC4D5;}
	.st97{opacity:0.3659;fill:#B8BFD2;}
	.st98{opacity:0.3902;fill:#B3BBCF;}
	.st99{opacity:0.4146;fill:#AEB7CC;}
	.st100{opacity:0.439;fill:#A9B3C9;}
	.st101{opacity:0.4634;fill:#A5AEC6;}
	.st102{opacity:0.4878;fill:#A0AAC3;}
	.st103{opacity:0.5122;fill:#9BA6C1;}
	.st104{opacity:0.5366;fill:#96A2BE;}
	.st105{opacity:0.561;fill:#929DBB;}
	.st106{opacity:0.5854;fill:#8D99B8;}
	.st107{opacity:0.6098;fill:#8895B5;}
	.st108{opacity:0.6341;fill:#8391B2;}
	.st109{opacity:0.6585;fill:#7F8CAF;}
	.st110{opacity:0.6829;fill:#7A88AC;}
	.st111{opacity:0.7073;fill:#7584A9;}
	.st112{opacity:0.7317;fill:#7080A6;}
	.st113{opacity:0.7561;fill:#6C7BA3;}
	.st114{opacity:0.7805;fill:#6777A0;}
	.st115{opacity:0.8049;fill:#62739D;}
	.st116{opacity:0.8293;fill:#5D6F9A;}
	.st117{opacity:0.8537;fill:#596A97;}
	.st118{opacity:0.878;fill:#546694;}
	.st119{opacity:0.9024;fill:#4F6291;}
	.st120{opacity:0.9268;fill:#4A5E8E;}
	.st121{opacity:0.9512;fill:#46598B;}
	.st122{opacity:0.9756;fill:#415588;}
	.st123{fill:url(#XMLID_271_);}
	.st124{fill:#EDF5FC;}
	.st125{fill:#5D7DBE;}
	.st126{fill:#F9F7F9;}
	.st127{fill:#EF9EA3;}
	.st128{fill:url(#XMLID_272_);}
	.st129{fill:url(#XMLID_273_);}
	.st130{fill:url(#XMLID_274_);}
	.st131{opacity:0.3;fill:#231F20;}
	.st132{fill:#F2B1B5;}
	.st133{fill:#63749D;}
	.st134{fill:#48486A;}
	.st135{fill:url(#XMLID_275_);}
	.st136{fill:url(#XMLID_276_);}
	.st137{fill:url(#XMLID_277_);}
	.st138{opacity:0.2;fill:#3C5185;}
	.st139{fill:url(#XMLID_278_);}
	.st140{fill:url(#XMLID_279_);}
	.st141{fill:url(#XMLID_280_);}
	.st142{fill:url(#XMLID_281_);}
	.st143{fill:url(#XMLID_282_);}
	.st144{fill:url(#XMLID_300_);}
	.st145{fill:url(#XMLID_304_);}
	.st146{fill:#4F6291;}
	.st147{fill:url(#XMLID_306_);}
	.st148{fill:url(#XMLID_308_);}
	.st149{fill:#B7D5F2;}
	.st150{fill:#DBEAF9;}
	.st151{opacity:0.5;fill:url(#XMLID_309_);}
	.st152{fill:#2842A2;}
	.st153{opacity:0.83;fill:url(#XMLID_310_);}
	.st154{opacity:0.49;fill:#6E84B5;}
	.st155{fill:url(#SVGID_1_);}
</style>
<g>
	<linearGradient id="XMLID_10_" gradientUnits="userSpaceOnUse" x1="151.6187" y1="212.2764" x2="105.4332" y2="61.6712">
		<stop  offset="0.1445" style="stop-color:#FFFFFF"/>
		<stop  offset="1" style="stop-color:#E1EBF7"/>
	</linearGradient>
	<path id="XMLID_240_" class="st0" d="M212.4,139.7c0,42.4-41.9,72.4-84.4,72.4s-81.9-29.9-81.9-72.4s40.4-81.9,82.9-81.9
		S212.4,97.3,212.4,139.7z"/>
	<g id="XMLID_417_">
		<path id="XMLID_239_" class="st1" d="M94.6,133.9l-10.9-6.3c-2.3-1.3-3.7-3.8-3.7-6.4v-7.5h0.8v7.5c0,2.4,1.3,4.6,3.3,5.8
			l10.9,6.3L94.6,133.9z"/>
	</g>
	<g id="XMLID_329_">
		<path id="XMLID_238_" class="st1" d="M96.6,132.9l-10.9-6.3c-2.3-1.3-3.7-3.8-3.7-6.4v-7.5h0.8v7.5c0,2.4,1.3,4.6,3.3,5.8
			l10.9,6.3L96.6,132.9z"/>
	</g>
	<g>
		
			<radialGradient id="XMLID_11_" cx="119.6611" cy="7915.5098" r="10.2394" gradientTransform="matrix(1 0 0 0.5172 0 -3893.1953)" gradientUnits="userSpaceOnUse">
			<stop  offset="0" style="stop-color:#3C5185"/>
			<stop  offset="5.744506e-002" style="stop-color:#506291"/>
			<stop  offset="0.2541" style="stop-color:#8D9AB8"/>
			<stop  offset="0.4339" style="stop-color:#BEC5D7"/>
			<stop  offset="0.5909" style="stop-color:#E2E5ED"/>
			<stop  offset="0.719" style="stop-color:#F7F8FA"/>
			<stop  offset="0.8023" style="stop-color:#FFFFFF"/>
		</radialGradient>
		<path id="XMLID_173_" class="st2" d="M112.5,196.2c3.9-2.3,10.4-2.3,14.3,0c3.9,2.3,3.9,6,0,8.3c-3.9,2.3-10.4,2.3-14.3,0
			C108.5,202.2,108.5,198.5,112.5,196.2z"/>
		<g>
			<path class="st1" d="M129.5,196.9c0-0.2-0.3-0.4-0.7-0.4l-1.4,0c-0.2,0-0.6,0.2-0.7,0.2c-0.1-0.1-0.1-0.3,0.1-0.4l1-0.6
				c0.3-0.1-1.4-0.1-1.6-0.2l0-1.2c-0.3-0.1-0.7-0.1-0.9,0l-1,0.6c-0.2,0.1-0.4,0.1-0.6,0.1c-0.1,0-0.3-0.1-0.4-0.1
				c-0.2,0-0.3-0.2-0.3-0.3v-0.8c0-0.2-0.3-0.4-0.7-0.4H120c-0.4,0-0.7,0.2-0.7,0.4v0.8c0,0.1-0.1,0.2-0.4,0.3
				c-0.1,0-0.3,0.1-0.4,0.1c-0.2,0.1-0.5,0-0.6-0.1l-1-0.6c-0.3-0.1-0.7-0.1-0.9,0l-0.1,1.3c-0.3,0.1-1.7,0-1.5,0.1l1,0.6
				c0.2,0.1,0.2,0.2,0.1,0.3c-0.1,0.1-0.5-0.2-0.7-0.2l-1.4,0c-0.4,0-0.7,0.2-0.7,0.4l0,1.9c0,0.2,0.3,0.4,0.7,0.4l0.8,0l0,1.6
				c0,0,0,0.1,0,0.1l0,0l0,0c0,0.1,0.1,0.2,0.2,0.2l1.6,0.9c0.2,0.1,0.4,0.1,0.6,0.1l0,0v0c0.1,0,0.2,0,0.3-0.1l1-0.6
				c0.2-0.1,0.4-0.1,0.6-0.1c0.1,0,0.3,0.1,0.4,0.1c0.2,0,0.3,0.2,0.3,0.3l0,0.8c0,0.2,0.3,0.4,0.7,0.4l2.3,0c0.4,0,0.7-0.2,0.7-0.4
				l0-0.8c0-0.1,0.1-0.2,0.4-0.3c0.1,0,0.3-0.1,0.4-0.1c0.2-0.1,0.5,0,0.6,0.1l1,0.6c0.1,0.1,0.2,0.1,0.3,0.1v0l0,0
				c0.2,0,0.4,0,0.6-0.1l1.6-0.9c0.1-0.1,0.2-0.1,0.2-0.2l0,0l0,0c0,0,0,0,0,0l0-1.6l0.8,0c0.4,0,0.7-0.2,0.7-0.4L129.5,196.9z
				 M124.3,198.5c-0.4,1.2-2.5,1.8-4.3,1.4c-1.4-0.3-2.3-1.2-2-2.1c0.4-1.2,2.5-1.8,4.3-1.4C123.7,196.7,124.6,197.6,124.3,198.5z"
				/>
			<path id="XMLID_235_" class="st1" d="M128,194.7l0-1h-1.5l-0.3-0.2c-0.3-0.1-0.7-0.1-0.9,0l-0.3,0.2h-2v-0.8
				c0-0.2-0.3-0.4-0.7-0.4H120c-0.4,0-0.7,0.2-0.7,0.4v0.8h-2.1l-0.3-0.2c-0.3-0.1-0.7-0.1-0.9,0l-0.3,0.2h-1.5v1
				c0,0.1,0.1,0.2,0.2,0.3l1,0.6l11.4,0l1-0.6C127.9,194.9,128,194.8,128,194.7L128,194.7z"/>
			<g id="XMLID_169_">
				<path id="XMLID_170_" class="st3" d="M127,197.4l1.8,0c0.4,0,0.7-0.2,0.7-0.4l0-1.3c0-0.2-0.3-0.4-0.7-0.4l-1.4,0
					c-0.2,0-0.4-0.1-0.5-0.2c0-0.1-0.1-0.1-0.2-0.2c-0.1-0.1-0.1-0.3,0.1-0.4l1-0.6c0.3-0.1,0.3-0.4,0-0.5l-1.6-0.9
					c-0.3-0.1-0.7-0.1-0.9,0l-1,0.6c-0.2,0.1-0.4,0.1-0.6,0.1c-0.1,0-0.3-0.1-0.4-0.1c-0.2,0-0.3-0.2-0.3-0.3v-0.8
					c0-0.2-0.3-0.4-0.7-0.4H120c-0.4,0-0.7,0.2-0.7,0.4v0.8c0,0.1-0.1,0.2-0.4,0.3c-0.1,0-0.3,0.1-0.4,0.1c-0.2,0.1-0.5,0-0.6-0.1
					l-1-0.6c-0.3-0.1-0.7-0.1-0.9,0l-1.6,0.9c-0.3,0.1-0.3,0.4,0,0.5l1,0.6c0.2,0.1,0.2,0.2,0.1,0.3c-0.1,0.1-0.1,0.2-0.2,0.2
					c-0.1,0.1-0.3,0.2-0.5,0.2l-1.4,0c-0.4,0-0.7,0.2-0.7,0.4l0,1.3c0,0.2,0.3,0.4,0.7,0.4l1.4,0c0.2,0,0.4,0.1,0.5,0.2
					c0,0.1,0.1,0.1,0.2,0.2c0.1,0.1,0.1,0.3-0.1,0.4l-1,0.6c-0.3,0.1-0.3,0.4,0,0.5l1.6,0.9c0.3,0.1,0.7,0.1,0.9,0l1-0.6
					c0.2-0.1,0.4-0.1,0.6-0.1c0.1,0,0.3,0.1,0.4,0.1c0.2,0,0.3,0.2,0.3,0.3l0,0.8c0,0.2,0.3,0.4,0.7,0.4l2.3,0
					c0.4,0,0.7-0.2,0.7-0.4l0-0.8c0-0.1,0.1-0.2,0.4-0.3c0.1,0,0.3-0.1,0.4-0.1c0.2-0.1,0.5,0,0.6,0.1l1,0.6c0.3,0.1,0.7,0.1,0.9,0
					l1.6-0.9c0.3-0.1,0.3-0.4,0-0.5l-1-0.6c-0.2-0.1-0.2-0.2-0.1-0.3C126.9,197.6,127,197.4,127,197.4z M118,196
					c0.4-1.2,2.5-1.8,4.3-1.4c1.4,0.3,2.3,1.2,2,2.1c-0.4,1.2-2.5,1.8-4.3,1.4C118.5,197.8,117.7,196.9,118,196z"/>
			</g>
		</g>
	</g>
	<g>
		<g class="st4">
			<path id="XMLID_234_" class="st5" d="M211.3,131.1l-0.3-0.6c-0.2-0.4-0.5-0.7-0.8-1c-0.1-0.1-0.1-0.1-0.2-0.2
				c0,0-0.1-0.1-0.1-0.1l-0.1,0c-0.1-0.1-0.2-0.1-0.2-0.2l-50.7-29.3c-1.8-1.1-4.9-1.1-6.7,0l-96.7,55.8c-1.1,0.7-1.6,1.6-1.3,2.4
				l-0.1,0v1.8c0,1.9,1,3.7,2.7,4.7l49.4,28.4c1.8,1.1,4.9,1.1,6.7,0l96.6-55.7C211.5,136,212.3,133.3,211.3,131.1z"/>
			<path id="XMLID_233_" class="st6" d="M210.9,131l-0.3-0.6c-0.2-0.4-0.5-0.7-0.8-1c-0.1-0.1-0.1-0.1-0.2-0.2c0,0-0.1-0.1-0.1-0.1
				l-0.1,0c-0.1-0.1-0.2-0.1-0.2-0.2l-50.5-29.1c-1.8-1.1-4.8-1.1-6.7,0l-96.4,55.7c-1.1,0.7-1.6,1.6-1.3,2.4l-0.1,0v1.8
				c0,1.9,1,3.7,2.7,4.7l49.2,28.3c1.8,1.1,4.8,1.1,6.7,0l96.2-55.5C211.2,136,212,133.3,210.9,131z"/>
			<path id="XMLID_232_" class="st7" d="M210.5,131l-0.3-0.6c-0.2-0.4-0.5-0.7-0.8-1c-0.1-0.1-0.1-0.1-0.2-0.2c0,0-0.1-0.1-0.1-0.1
				l-0.1,0c-0.1-0.1-0.2-0.1-0.2-0.2l-50.2-29c-1.8-1.1-4.8-1.1-6.6,0l-96,55.5c-1.1,0.6-1.5,1.5-1.3,2.4l-0.1,0v1.8
				c0,1.9,1,3.7,2.7,4.6l48.9,28.1c1.8,1.1,4.8,1.1,6.6,0l95.9-55.4C210.8,135.9,211.6,133.2,210.5,131z"/>
			<path id="XMLID_231_" class="st8" d="M210.2,130.9l-0.3-0.6c-0.2-0.4-0.5-0.7-0.8-0.9c-0.1-0.1-0.1-0.1-0.2-0.2
				c0,0-0.1-0.1-0.1-0.1l-0.1,0c-0.1-0.1-0.2-0.1-0.2-0.2l-49.9-28.8c-1.8-1-4.8-1-6.6,0l-95.7,55.3c-1.1,0.6-1.5,1.5-1.3,2.4
				l-0.1,0v1.8c0,1.9,1,3.7,2.7,4.6l48.6,28c1.8,1,4.8,1,6.6,0l95.5-55.2C210.5,135.8,211.3,133.2,210.2,130.9z"/>
			<path id="XMLID_230_" class="st9" d="M209.8,130.9l-0.3-0.6c-0.2-0.4-0.5-0.7-0.8-0.9c-0.1-0.1-0.1-0.1-0.2-0.2
				c0,0-0.1-0.1-0.1-0.1l-0.1,0c-0.1-0.1-0.2-0.1-0.2-0.2l-49.7-28.7c-1.8-1-4.8-1-6.6,0l-95.3,55.1c-1.1,0.6-1.5,1.5-1.3,2.4
				l-0.1,0v1.8c0,1.9,1,3.6,2.7,4.6l48.4,27.8c1.8,1,4.8,1,6.6,0l95.2-55C210.1,135.8,210.9,133.1,209.8,130.9z"/>
			<path id="XMLID_229_" class="st10" d="M209.5,130.9l-0.3-0.6c-0.2-0.4-0.5-0.7-0.8-0.9c-0.1-0.1-0.1-0.1-0.2-0.2
				c0,0-0.1-0.1-0.1-0.1l-0.1,0c-0.1-0.1-0.2-0.1-0.2-0.2l-49.4-28.5c-1.8-1-4.7-1-6.5,0l-95,54.9c-1.1,0.6-1.5,1.5-1.3,2.4l-0.1,0
				v1.8c0,1.9,1,3.6,2.6,4.6l48.1,27.7c1.8,1,4.7,1,6.5,0l94.8-54.8C209.7,135.7,210.6,133,209.5,130.9z"/>
			<path id="XMLID_228_" class="st11" d="M209.1,130.8l-0.3-0.6c-0.2-0.4-0.5-0.7-0.8-0.9c-0.1-0.1-0.1-0.1-0.2-0.2
				c0,0-0.1-0.1-0.1-0.1l-0.1,0c-0.1-0.1-0.1-0.1-0.2-0.2l-49.1-28.4c-1.8-1-4.7-1-6.5,0l-94.6,54.7c-1.1,0.6-1.5,1.5-1.3,2.3
				l-0.1,0v1.8c0,1.9,1,3.6,2.6,4.5l47.8,27.5c1.8,1,4.7,1,6.5,0l94.5-54.6C209.4,135.6,210.2,133,209.1,130.8z"/>
			<path id="XMLID_227_" class="st12" d="M208.8,130.8l-0.3-0.6c-0.2-0.4-0.5-0.7-0.8-0.9c-0.1-0.1-0.1-0.1-0.2-0.2
				c0,0-0.1-0.1-0.1-0.1l-0.1,0c-0.1-0.1-0.1-0.1-0.2-0.2l-48.9-28.2c-1.8-1-4.7-1-6.5,0l-94.3,54.5c-1.1,0.6-1.5,1.5-1.3,2.3
				l-0.1,0v1.8c0,1.9,1,3.6,2.6,4.5l47.6,27.4c1.8,1,4.7,1,6.5,0l94.1-54.4C209,135.6,209.8,132.9,208.8,130.8z"/>
			<path id="XMLID_226_" class="st13" d="M208.4,130.7l-0.3-0.6c-0.2-0.4-0.5-0.7-0.8-0.9c-0.1-0.1-0.1-0.1-0.2-0.2
				c0,0-0.1-0.1-0.1-0.1l-0.1,0c-0.1-0.1-0.1-0.1-0.2-0.2l-48.6-28.1c-1.8-1-4.7-1-6.4,0l-93.9,54.3c-1.1,0.6-1.5,1.5-1.3,2.3
				l-0.1,0v1.8c0,1.9,1,3.6,2.6,4.5l47.3,27.2c1.8,1,4.7,1,6.4,0l93.8-54.2C208.7,135.5,209.5,132.9,208.4,130.7z"/>
			<path id="XMLID_225_" class="st14" d="M208.1,130.7l-0.3-0.6c-0.2-0.4-0.5-0.7-0.8-0.9c-0.1-0.1-0.1-0.1-0.2-0.2
				c0,0-0.1-0.1-0.1-0.1l-0.1,0c-0.1-0.1-0.1-0.1-0.2-0.2l-48.3-27.9c-1.8-1-4.6-1-6.4,0L58.1,155c-1.1,0.6-1.5,1.5-1.2,2.3l-0.1,0
				v1.8c0,1.8,1,3.5,2.6,4.5l47.1,27.1c1.8,1,4.6,1,6.4,0l93.4-54.1C208.3,135.4,209.1,132.8,208.1,130.7z"/>
			<path id="XMLID_224_" class="st15" d="M207.7,130.7l-0.3-0.6c-0.2-0.4-0.5-0.7-0.8-0.9c-0.1-0.1-0.1-0.1-0.2-0.2
				c0,0-0.1-0.1-0.1-0.1l-0.1,0c-0.1-0.1-0.1-0.1-0.2-0.2L158,101c-1.7-1-4.6-1-6.4,0l-93.2,54c-1.1,0.6-1.5,1.5-1.2,2.3l-0.1,0v1.7
				c0,1.8,1,3.5,2.6,4.4l46.8,26.9c1.7,1,4.6,1,6.4,0l93.1-53.9C208,135.4,208.8,132.8,207.7,130.7z"/>
			<path id="XMLID_223_" class="st16" d="M207.4,130.6l-0.3-0.6c-0.2-0.4-0.5-0.7-0.8-0.9c-0.1-0.1-0.1-0.1-0.2-0.2
				c0,0-0.1-0.1-0.1-0.1l-0.1,0c-0.1-0.1-0.1-0.1-0.2-0.2l-47.8-27.6c-1.7-1-4.6-1-6.3,0l-92.9,53.8c-1.1,0.6-1.5,1.5-1.2,2.3
				l-0.1,0v1.7c0,1.8,1,3.5,2.6,4.4l46.5,26.8c1.7,1,4.6,1,6.3,0l92.7-53.7C207.6,135.3,208.4,132.7,207.4,130.6z"/>
			<path id="XMLID_222_" class="st17" d="M207,130.6l-0.3-0.6c-0.2-0.4-0.4-0.7-0.8-0.9c-0.1-0.1-0.1-0.1-0.2-0.2
				c0,0-0.1-0.1-0.1-0.1l-0.1,0c-0.1-0.1-0.1-0.1-0.2-0.2l-47.5-27.4c-1.7-1-4.6-1-6.3,0L59,154.8c-1.1,0.6-1.5,1.5-1.2,2.3l-0.1,0
				v1.7c0,1.8,1,3.5,2.5,4.4l46.3,26.6c1.7,1,4.6,1,6.3,0l92.4-53.5C207.3,135.2,208,132.7,207,130.6z"/>
			<path id="XMLID_221_" class="st18" d="M206.7,130.5l-0.3-0.6c-0.2-0.4-0.4-0.6-0.8-0.9c-0.1-0.1-0.1-0.1-0.2-0.2
				c0,0-0.1-0.1-0.1-0.1l-0.1,0c-0.1-0.1-0.1-0.1-0.2-0.2l-47.2-27.3c-1.7-1-4.5-1-6.3,0l-92.2,53.4c-1.1,0.6-1.5,1.5-1.2,2.2
				l-0.1,0v1.7c0,1.8,1,3.5,2.5,4.4l46,26.5c1.7,1,4.5,1,6.3,0l92.1-53.3C206.9,135.2,207.7,132.6,206.7,130.5z"/>
			<path id="XMLID_220_" class="st19" d="M206.3,130.5l-0.3-0.5c-0.2-0.4-0.4-0.6-0.8-0.9c-0.1-0.1-0.1-0.1-0.2-0.2
				c0,0-0.1-0.1-0.1-0.1l-0.1,0c-0.1-0.1-0.1-0.1-0.2-0.2l-47-27.1c-1.7-1-4.5-1-6.2,0l-91.9,53.2c-1,0.6-1.4,1.4-1.2,2.2l-0.1,0
				v1.7c0,1.8,1,3.4,2.5,4.3l45.7,26.3c1.7,1,4.5,1,6.2,0l91.7-53.1C206.6,135.1,207.3,132.6,206.3,130.5z"/>
			<path id="XMLID_219_" class="st20" d="M206,130.4l-0.3-0.5c-0.2-0.4-0.4-0.6-0.7-0.9c-0.1-0.1-0.1-0.1-0.2-0.2
				c0,0-0.1-0.1-0.1-0.1l-0.1,0c-0.1-0.1-0.1-0.1-0.2-0.2l-46.7-27c-1.7-1-4.5-1-6.2,0l-91.5,53c-1,0.6-1.4,1.4-1.2,2.2l-0.1,0v1.7
				c0,1.8,1,3.4,2.5,4.3l45.5,26.2c1.7,1,4.5,1,6.2,0l91.4-52.9C206.2,135,207,132.5,206,130.4z"/>
			<path id="XMLID_218_" class="st21" d="M205.6,130.4l-0.3-0.5c-0.2-0.4-0.4-0.6-0.7-0.9c-0.1-0.1-0.1-0.1-0.2-0.2
				c0,0-0.1-0.1-0.1-0.1l-0.1,0c-0.1-0.1-0.1-0.1-0.2-0.2l-46.4-26.8c-1.7-1-4.5-1-6.1,0l-91.2,52.9c-1,0.6-1.4,1.4-1.2,2.2l-0.1,0
				v1.7c0,1.8,0.9,3.4,2.5,4.3l45.2,26c1.7,1,4.5,1,6.1,0l91-52.8C205.8,135,206.6,132.5,205.6,130.4z"/>
			<path id="XMLID_217_" class="st22" d="M205.3,130.4l-0.3-0.5c-0.2-0.4-0.4-0.6-0.7-0.9c-0.1-0.1-0.1-0.1-0.2-0.1
				c0,0-0.1-0.1-0.1-0.1l-0.1,0c-0.1-0.1-0.1-0.1-0.2-0.2l-46.2-26.7c-1.7-1-4.4-1-6.1,0l-90.8,52.7c-1,0.6-1.4,1.4-1.2,2.2l-0.1,0
				v1.7c0,1.8,0.9,3.4,2.5,4.3l45,25.9c1.7,1,4.4,1,6.1,0l90.7-52.6C205.5,134.9,206.2,132.4,205.3,130.4z"/>
			<path id="XMLID_216_" class="st23" d="M204.9,130.3l-0.3-0.5c-0.2-0.3-0.4-0.6-0.7-0.9c-0.1-0.1-0.1-0.1-0.2-0.1
				c0,0-0.1-0.1-0.1-0.1l-0.1,0c-0.1-0.1-0.1-0.1-0.2-0.2L157.4,102c-1.7-1-4.4-1-6.1,0l-90.5,52.5c-1,0.6-1.4,1.4-1.2,2.2l-0.1,0
				v1.7c0,1.7,0.9,3.4,2.5,4.2l44.7,25.7c1.7,1,4.4,1,6.1,0l90.3-52.4C205.1,134.8,205.9,132.4,204.9,130.3z"/>
			<path id="XMLID_215_" class="st24" d="M204.5,130.3l-0.3-0.5c-0.2-0.3-0.4-0.6-0.7-0.9c-0.1-0.1-0.1-0.1-0.2-0.1
				c0,0-0.1-0.1-0.1-0.1l-0.1,0c-0.1-0.1-0.1-0.1-0.2-0.2l-45.6-26.3c-1.7-1-4.4-1-6,0l-90.1,52.3c-1,0.6-1.4,1.4-1.2,2.2l-0.1,0
				v1.7c0,1.7,0.9,3.3,2.4,4.2l44.4,25.6c1.7,1,4.4,1,6,0l90-52.2C204.8,134.8,205.5,132.3,204.5,130.3z"/>
			<path id="XMLID_214_" class="st25" d="M204.2,130.2l-0.3-0.5c-0.2-0.3-0.4-0.6-0.7-0.9c-0.1-0.1-0.1-0.1-0.2-0.1
				c0,0-0.1-0.1-0.1-0.1l-0.1,0c-0.1-0.1-0.1-0.1-0.2-0.2l-45.4-26.2c-1.7-1-4.4-1-6,0l-89.8,52.1c-1,0.6-1.4,1.4-1.2,2.2l-0.1,0
				v1.6c0,1.7,0.9,3.3,2.4,4.2l44.2,25.4c1.7,1,4.4,1,6,0l89.6-52C204.4,134.7,205.2,132.3,204.2,130.2z"/>
			<path id="XMLID_213_" class="st26" d="M203.8,130.2l-0.3-0.5c-0.2-0.3-0.4-0.6-0.7-0.9c-0.1-0.1-0.1-0.1-0.2-0.1
				c0,0-0.1-0.1-0.1-0.1l-0.1,0c-0.1-0.1-0.1-0.1-0.2-0.2l-45.1-26c-1.6-0.9-4.3-0.9-6,0l-89.4,51.9c-1,0.6-1.4,1.4-1.2,2.1l-0.1,0
				v1.6c0,1.7,0.9,3.3,2.4,4.2l43.9,25.3c1.6,0.9,4.3,0.9,6,0l89.3-51.8C204.1,134.6,204.8,132.2,203.8,130.2z"/>
			<path id="XMLID_212_" class="st27" d="M203.5,130.2l-0.3-0.5c-0.2-0.3-0.4-0.6-0.7-0.8c-0.1-0.1-0.1-0.1-0.2-0.1
				c0,0-0.1-0.1-0.1-0.1l-0.1,0c-0.1-0.1-0.1-0.1-0.2-0.2l-44.8-25.9c-1.6-0.9-4.3-0.9-5.9,0l-89.1,51.7c-1,0.6-1.4,1.4-1.2,2.1
				l-0.1,0v1.6c0,1.7,0.9,3.3,2.4,4.1l43.6,25.1c1.6,0.9,4.3,0.9,5.9,0l88.9-51.6C203.7,134.6,204.5,132.2,203.5,130.2z"/>
			<path id="XMLID_211_" class="st28" d="M203.1,130.1l-0.3-0.5c-0.2-0.3-0.4-0.6-0.7-0.8c-0.1,0-0.1-0.1-0.2-0.1
				c0,0-0.1-0.1-0.1-0.1l-0.1,0c-0.1-0.1-0.1-0.1-0.2-0.2l-44.5-25.7c-1.6-0.9-4.3-0.9-5.9,0l-88.7,51.5c-1,0.6-1.4,1.4-1.1,2.1
				l-0.1,0v1.6c0,1.7,0.9,3.3,2.4,4.1l43.4,25c1.6,0.9,4.3,0.9,5.9,0l88.6-51.5C203.4,134.5,204.1,132.1,203.1,130.1z"/>
			<path id="XMLID_210_" class="st29" d="M202.8,130.1l-0.3-0.5c-0.2-0.3-0.4-0.6-0.7-0.8c-0.1,0-0.1-0.1-0.2-0.1
				c0,0-0.1-0.1-0.1-0.1l-0.1,0c-0.1-0.1-0.1-0.1-0.2-0.2L157,102.7c-1.6-0.9-4.2-0.9-5.9,0l-88.4,51.4c-1,0.6-1.4,1.4-1.1,2.1
				l-0.1,0v1.6c0,1.7,0.9,3.2,2.4,4.1l43.1,24.8c1.6,0.9,4.2,0.9,5.9,0l88.2-51.3C203,134.4,203.7,132.1,202.8,130.1z"/>
			<path id="XMLID_209_" class="st30" d="M202.4,130l-0.3-0.5c-0.2-0.3-0.4-0.6-0.7-0.8c-0.1,0-0.1-0.1-0.2-0.1c0,0-0.1-0.1-0.1-0.1
				l-0.1,0c-0.1-0.1-0.1-0.1-0.2-0.2l-44-25.4c-1.6-0.9-4.2-0.9-5.8,0L63,154c-1,0.6-1.4,1.4-1.1,2.1l-0.1,0v1.6
				c0,1.7,0.9,3.2,2.4,4.1l42.9,24.7c1.6,0.9,4.2,0.9,5.8,0l87.9-51.1C202.7,134.4,203.4,132,202.4,130z"/>
			<path id="XMLID_208_" class="st31" d="M202.1,130l-0.2-0.5c-0.2-0.3-0.4-0.6-0.7-0.8c-0.1,0-0.1-0.1-0.2-0.1c0,0-0.1-0.1-0.1-0.1
				l-0.1,0c-0.1-0.1-0.1-0.1-0.2-0.2L156.8,103c-1.6-0.9-4.2-0.9-5.8,0l-87.7,51c-1,0.6-1.3,1.3-1.1,2.1l-0.1,0v1.6
				c0,1.7,0.9,3.2,2.3,4l42.6,24.5c1.6,0.9,4.2,0.9,5.8,0l87.6-50.9C202.3,134.3,203,131.9,202.1,130z"/>
			<path id="XMLID_207_" class="st32" d="M201.7,130l-0.2-0.5c-0.2-0.3-0.4-0.6-0.7-0.8c-0.1,0-0.1-0.1-0.2-0.1c0,0-0.1-0.1-0.1-0.1
				l-0.1,0c-0.1,0-0.1-0.1-0.2-0.2l-43.5-25.1c-1.6-0.9-4.2-0.9-5.8,0l-87.3,50.8c-1,0.6-1.3,1.3-1.1,2.1l-0.1,0v1.6
				c0,1.7,0.9,3.2,2.3,4l42.3,24.4c1.6,0.9,4.2,0.9,5.8,0l87.2-50.7C201.9,134.2,202.7,131.9,201.7,130z"/>
			<path id="XMLID_206_" class="st33" d="M201.4,129.9l-0.2-0.5c-0.2-0.3-0.4-0.6-0.7-0.8c-0.1,0-0.1-0.1-0.2-0.1
				c0,0-0.1-0.1-0.1-0.1l-0.1,0c-0.1,0-0.1-0.1-0.2-0.2l-43.2-24.9c-1.6-0.9-4.1-0.9-5.7,0l-87,50.6c-1,0.6-1.3,1.3-1.1,2.1l-0.1,0
				v1.6c0,1.6,0.9,3.2,2.3,4l42.1,24.2c1.6,0.9,4.1,0.9,5.7,0l86.9-50.5C201.6,134.2,202.3,131.8,201.4,129.9z"/>
			<path id="XMLID_205_" class="st34" d="M201,129.9l-0.2-0.5c-0.2-0.3-0.4-0.6-0.7-0.8c-0.1,0-0.1-0.1-0.2-0.1c0,0-0.1-0.1-0.1-0.1
				l-0.1,0c-0.1,0-0.1-0.1-0.2-0.1l-42.9-24.8c-1.6-0.9-4.1-0.9-5.7,0l-86.7,50.4c-1,0.6-1.3,1.3-1.1,2l-0.1,0v1.6
				c0,1.6,0.9,3.1,2.3,4l41.8,24.1c1.6,0.9,4.1,0.9,5.7,0l86.5-50.3C201.2,134.1,201.9,131.8,201,129.9z"/>
			<path id="XMLID_204_" class="st35" d="M200.7,129.8l-0.2-0.5c-0.2-0.3-0.4-0.6-0.7-0.8c-0.1,0-0.1-0.1-0.2-0.1
				c0,0-0.1-0.1-0.1-0.1l-0.1,0c-0.1,0-0.1-0.1-0.2-0.1l-42.7-24.6c-1.6-0.9-4.1-0.9-5.6,0l-86.3,50.2c-1,0.6-1.3,1.3-1.1,2l-0.1,0
				v1.6c0,1.6,0.9,3.1,2.3,3.9l41.5,23.9c1.6,0.9,4.1,0.9,5.6,0l86.2-50.1C200.9,134,201.6,131.7,200.7,129.8z"/>
			<path id="XMLID_203_" class="st36" d="M200.3,129.8l-0.2-0.5c-0.2-0.3-0.4-0.6-0.7-0.8c-0.1,0-0.1-0.1-0.2-0.1
				c0,0-0.1-0.1-0.1-0.1l-0.1,0c-0.1,0-0.1-0.1-0.2-0.1l-42.4-24.5c-1.5-0.9-4.1-0.9-5.6,0l-86,50.1c-0.9,0.5-1.3,1.3-1.1,2l-0.1,0
				v1.5c0,1.6,0.9,3.1,2.3,3.9l41.3,23.8c1.5,0.9,4.1,0.9,5.6,0l85.8-50C200.5,134,201.2,131.7,200.3,129.8z"/>
			<path id="XMLID_202_" class="st37" d="M200,129.8l-0.2-0.5c-0.2-0.3-0.4-0.6-0.7-0.8c-0.1,0-0.1-0.1-0.2-0.1c0,0-0.1-0.1-0.1-0.1
				l-0.1,0c-0.1,0-0.1-0.1-0.2-0.1l-42.1-24.3c-1.5-0.9-4-0.9-5.6,0l-85.6,49.9c-0.9,0.5-1.3,1.3-1.1,2l-0.1,0v1.5
				c0,1.6,0.9,3.1,2.2,3.9l41,23.6c1.5,0.9,4,0.9,5.6,0l85.5-49.8C200.2,133.9,200.9,131.6,200,129.8z"/>
			<path id="XMLID_201_" class="st38" d="M199.6,129.7l-0.2-0.5c-0.2-0.3-0.4-0.6-0.7-0.8c-0.1,0-0.1-0.1-0.2-0.1
				c0,0-0.1-0.1-0.1-0.1l-0.1,0c-0.1,0-0.1-0.1-0.2-0.1l-41.9-24.2c-1.5-0.9-4-0.9-5.5,0l-85.3,49.7c-0.9,0.5-1.3,1.3-1.1,2l-0.1,0
				v1.5c0,1.6,0.9,3.1,2.2,3.9l40.8,23.5c1.5,0.9,4,0.9,5.5,0l85.1-49.6C199.8,133.8,200.5,131.6,199.6,129.7z"/>
			<path id="XMLID_200_" class="st39" d="M199.3,129.7l-0.2-0.5c-0.2-0.3-0.4-0.6-0.7-0.8c-0.1,0-0.1-0.1-0.2-0.1
				c0,0-0.1-0.1-0.1-0.1l-0.1,0c-0.1,0-0.1-0.1-0.2-0.1l-41.6-24c-1.5-0.9-4-0.9-5.5,0l-84.9,49.5c-0.9,0.5-1.3,1.3-1.1,2l-0.1,0
				v1.5c0,1.6,0.8,3.1,2.2,3.8l40.5,23.3c1.5,0.9,4,0.9,5.5,0l84.8-49.4C199.5,133.8,200.1,131.5,199.3,129.7z"/>
			<path id="XMLID_199_" class="st40" d="M198.9,129.6l-0.2-0.5c-0.2-0.3-0.4-0.6-0.7-0.8c-0.1,0-0.1-0.1-0.2-0.1
				c0,0-0.1-0.1-0.1-0.1l-0.1,0c-0.1,0-0.1-0.1-0.2-0.1l-41.3-23.9c-1.5-0.9-4-0.9-5.5,0l-84.6,49.3c-0.9,0.5-1.3,1.3-1.1,2l-0.1,0
				v1.5c0,1.6,0.8,3,2.2,3.8l40.2,23.2c1.5,0.9,4,0.9,5.5,0l84.4-49.2C199.1,133.7,199.8,131.5,198.9,129.6z"/>
			<path id="XMLID_198_" class="st41" d="M198.5,129.6l-0.2-0.5c-0.2-0.3-0.4-0.6-0.7-0.8c-0.1,0-0.1-0.1-0.2-0.1
				c0,0-0.1-0.1-0.1-0.1l-0.1,0c-0.1,0-0.1-0.1-0.2-0.1l-41-23.7c-1.5-0.9-3.9-0.9-5.4,0l-84.2,49.1c-0.9,0.5-1.3,1.3-1.1,2l-0.1,0
				v1.5c0,1.6,0.8,3,2.2,3.8l40,23c1.5,0.9,3.9,0.9,5.4,0l84.1-49C198.8,133.6,199.4,131.4,198.5,129.6z"/>
			<path id="XMLID_197_" class="st42" d="M198.2,129.6l-0.2-0.5c-0.2-0.3-0.4-0.6-0.7-0.8c0,0-0.1-0.1-0.2-0.1c0,0-0.1-0.1-0.1-0.1
				l-0.1,0c-0.1,0-0.1-0.1-0.2-0.1L156,104.4c-1.5-0.9-3.9-0.9-5.4,0l-83.9,48.9c-0.9,0.5-1.3,1.3-1,1.9l-0.1,0v1.5
				c0,1.6,0.8,3,2.2,3.8l39.7,22.9c1.5,0.9,3.9,0.9,5.4,0l83.8-48.8C198.4,133.5,199.1,131.4,198.2,129.6z"/>
			<path id="XMLID_196_" class="st43" d="M197.8,129.5l-0.2-0.5c-0.1-0.3-0.4-0.6-0.6-0.8c0,0-0.1-0.1-0.2-0.1c0,0-0.1-0.1-0.1-0.1
				l-0.1,0c-0.1,0-0.1-0.1-0.2-0.1l-40.5-23.4c-1.5-0.9-3.9-0.9-5.4,0L67,153.3c-0.9,0.5-1.2,1.2-1,1.9l-0.1,0v1.5
				c0,1.5,0.8,3,2.2,3.7l39.4,22.7c1.5,0.9,3.9,0.9,5.4,0l83.4-48.7C198.1,133.5,198.7,131.3,197.8,129.5z"/>
			<path id="XMLID_195_" class="st44" d="M197.5,129.5l-0.2-0.5c-0.1-0.3-0.4-0.6-0.6-0.8c0,0-0.1-0.1-0.2-0.1c0,0-0.1-0.1-0.1-0.1
				l-0.1,0c-0.1,0-0.1-0.1-0.2-0.1l-40.2-23.2c-1.5-0.8-3.9-0.8-5.3,0l-83.2,48.6c-0.9,0.5-1.2,1.2-1,1.9l-0.1,0v1.5
				c0,1.5,0.8,3,2.1,3.7l39.2,22.6c1.5,0.8,3.9,0.8,5.3,0l83.1-48.5C197.7,133.4,198.4,131.3,197.5,129.5z"/>
			<path id="XMLID_194_" class="st45" d="M197.1,129.4l-0.2-0.5c-0.1-0.3-0.4-0.5-0.6-0.8c0,0-0.1-0.1-0.2-0.1c0,0-0.1-0.1-0.1-0.1
				l-0.1,0c-0.1,0-0.1-0.1-0.2-0.1l-40-23.1c-1.5-0.8-3.8-0.8-5.3,0l-82.8,48.4c-0.9,0.5-1.2,1.2-1,1.9l-0.1,0v1.5
				c0,1.5,0.8,2.9,2.1,3.7l38.9,22.4c1.5,0.8,3.8,0.8,5.3,0l82.7-48.3C197.3,133.3,198,131.2,197.1,129.4z"/>
			<path id="XMLID_193_" class="st1" d="M196.8,129.4l-0.2-0.5c-0.1-0.3-0.4-0.5-0.6-0.8c0,0-0.1-0.1-0.2-0.1c0,0-0.1-0.1-0.1-0.1
				l-0.1,0c-0.1,0-0.1-0.1-0.2-0.1l-39.7-22.9c-1.4-0.8-3.8-0.8-5.3,0L68,153.1c-0.9,0.5-1.2,1.2-1,1.9l-0.1,0v1.4
				c0,1.5,0.8,2.9,2.1,3.7l38.7,22.3c1.4,0.8,3.8,0.8,5.3,0l82.4-48.1C197,133.3,197.6,131.2,196.8,129.4z"/>
		</g>
		<g>
			<g>
				
					<linearGradient id="XMLID_13_" gradientUnits="userSpaceOnUse" x1="144.6375" y1="171.6358" x2="-8.272" y2="104.2048" gradientTransform="matrix(-1 0 0 1 211.6783 0)">
					<stop  offset="3.802280e-002" style="stop-color:#A5CBEF"/>
					<stop  offset="0.2227" style="stop-color:#B9D7F2"/>
					<stop  offset="0.5251" style="stop-color:#D4E6F7"/>
					<stop  offset="0.794" style="stop-color:#E4F0FA"/>
					<stop  offset="1" style="stop-color:#EAF3FB"/>
				</linearGradient>
				<path id="XMLID_44_" class="st46" d="M57.7,154.9v-1.8l95.8-56.3c1.8-1,3.9-1.7,5.7-0.6l50.3,28.9c0.5,0.3,0.9,0.7,1.1,1.2
					l0.3,0.6c1.1,2.2,0.3,4.8-1.9,6.1l-94,54.3c-1.8,1-4.7,1-6.5,0l-48.1-27.7C58.7,158.6,57.7,156.8,57.7,154.9z"/>
				<path id="XMLID_43_" class="st47" d="M59,154.5c-1.8-1-1.8-2.7,0-3.8l94.2-54.4c1.8-1,4.7-1,6.5,0l49.4,28.5
					c1.8,1,1.8,2.7,0,3.8L115,183c-1.8,1-4.7,1-6.5,0L59,154.5z"/>
				<path id="XMLID_42_" class="st48" d="M61.1,154.4c-1.7-1-1.7-2.6,0-3.6l92.1-53.2c1.7-1,4.6-1,6.3,0l8.6,5.1
					c0.5,0.3,0.6,1.1,0.1,1.4l-1,0.7c-0.6,0.4-0.6,1.3,0,1.7l23.5,13.5c0.6,0.4,1.4,0.4,2,0l2-1.1c0.5-0.3,1-0.2,1.5,0L207,125
					c1.7,1,1.7,2.6,0,3.6L115,181.8c-1.7,1-4.6,1-6.3,0L61.1,154.4z"/>
				<g id="XMLID_40_">
					<path id="XMLID_41_" class="st48" d="M185.4,114.7c0,0-0.1,0-0.1,0l-10.4-6c-0.1-0.1-0.2-0.3-0.1-0.4c0.1-0.1,0.3-0.2,0.4-0.1
						l10.4,6c0.1,0.1,0.2,0.3,0.1,0.4C185.6,114.6,185.5,114.7,185.4,114.7z"/>
				</g>
			</g>
		</g>
	</g>
	<g>
		<linearGradient id="XMLID_241_" gradientUnits="userSpaceOnUse" x1="106.58" y1="66.9291" x2="106.3267" y2="167.7217">
			<stop  offset="6.415390e-002" style="stop-color:#FFFFFF"/>
			<stop  offset="0.1009" style="stop-color:#FFFDF7"/>
			<stop  offset="0.158" style="stop-color:#FFF8E1"/>
			<stop  offset="0.2282" style="stop-color:#FFEFBD"/>
			<stop  offset="0.3089" style="stop-color:#FFE28B"/>
			<stop  offset="0.3972" style="stop-color:#FFD24D"/>
			<stop  offset="0.4849" style="stop-color:#FFC107"/>
			<stop  offset="0.5005" style="stop-color:#FFC61A"/>
			<stop  offset="0.5531" style="stop-color:#FFD556"/>
			<stop  offset="0.6055" style="stop-color:#FFE28A"/>
			<stop  offset="0.6564" style="stop-color:#FFECB4"/>
			<stop  offset="0.7057" style="stop-color:#FFF4D5"/>
			<stop  offset="0.7527" style="stop-color:#FFFAEC"/>
			<stop  offset="0.7966" style="stop-color:#FFFEFA"/>
			<stop  offset="0.8343" style="stop-color:#FFFFFF"/>
		</linearGradient>
		<rect id="XMLID_192_" x="104.4" y="70.7" class="st49" width="4.2" height="80.3"/>
		<linearGradient id="XMLID_242_" gradientUnits="userSpaceOnUse" x1="115.0869" y1="65.6342" x2="114.8763" y2="149.4579">
			<stop  offset="6.415390e-002" style="stop-color:#FFFFFF"/>
			<stop  offset="0.1009" style="stop-color:#FFFDF7"/>
			<stop  offset="0.158" style="stop-color:#FFF8E1"/>
			<stop  offset="0.2282" style="stop-color:#FFEFBD"/>
			<stop  offset="0.3089" style="stop-color:#FFE28B"/>
			<stop  offset="0.3972" style="stop-color:#FFD24D"/>
			<stop  offset="0.4849" style="stop-color:#FFC107"/>
			<stop  offset="0.5005" style="stop-color:#FFC61A"/>
			<stop  offset="0.5531" style="stop-color:#FFD556"/>
			<stop  offset="0.6055" style="stop-color:#FFE28A"/>
			<stop  offset="0.6564" style="stop-color:#FFECB4"/>
			<stop  offset="0.7057" style="stop-color:#FFF4D5"/>
			<stop  offset="0.7527" style="stop-color:#FFFAEC"/>
			<stop  offset="0.7966" style="stop-color:#FFFEFA"/>
			<stop  offset="0.8343" style="stop-color:#FFFFFF"/>
		</linearGradient>
		<rect id="XMLID_191_" x="110.9" y="68.7" class="st50" width="8.2" height="66.8"/>
		<linearGradient id="XMLID_243_" gradientUnits="userSpaceOnUse" x1="147.7116" y1="65.2914" x2="147.4774" y2="158.4588">
			<stop  offset="6.415390e-002" style="stop-color:#FFFFFF"/>
			<stop  offset="0.1009" style="stop-color:#FFFDF7"/>
			<stop  offset="0.158" style="stop-color:#FFF8E1"/>
			<stop  offset="0.2282" style="stop-color:#FFEFBD"/>
			<stop  offset="0.3089" style="stop-color:#FFE28B"/>
			<stop  offset="0.3972" style="stop-color:#FFD24D"/>
			<stop  offset="0.4849" style="stop-color:#FFC107"/>
			<stop  offset="0.5005" style="stop-color:#FFC61A"/>
			<stop  offset="0.5531" style="stop-color:#FFD556"/>
			<stop  offset="0.6055" style="stop-color:#FFE28A"/>
			<stop  offset="0.6564" style="stop-color:#FFECB4"/>
			<stop  offset="0.7057" style="stop-color:#FFF4D5"/>
			<stop  offset="0.7527" style="stop-color:#FFFAEC"/>
			<stop  offset="0.7966" style="stop-color:#FFFEFA"/>
			<stop  offset="0.8343" style="stop-color:#FFFFFF"/>
		</linearGradient>
		<rect id="XMLID_190_" x="144.2" y="68.7" class="st51" width="6.8" height="74.2"/>
		<linearGradient id="XMLID_244_" gradientUnits="userSpaceOnUse" x1="156.2475" y1="68.1761" x2="156.0002" y2="166.5851">
			<stop  offset="6.415390e-002" style="stop-color:#FFFFFF"/>
			<stop  offset="0.1009" style="stop-color:#FFFDF7"/>
			<stop  offset="0.158" style="stop-color:#FFF8E1"/>
			<stop  offset="0.2282" style="stop-color:#FFEFBD"/>
			<stop  offset="0.3089" style="stop-color:#FFE28B"/>
			<stop  offset="0.3972" style="stop-color:#FFD24D"/>
			<stop  offset="0.4849" style="stop-color:#FFC107"/>
			<stop  offset="0.5005" style="stop-color:#FFC61A"/>
			<stop  offset="0.5531" style="stop-color:#FFD556"/>
			<stop  offset="0.6055" style="stop-color:#FFE28A"/>
			<stop  offset="0.6564" style="stop-color:#FFECB4"/>
			<stop  offset="0.7057" style="stop-color:#FFF4D5"/>
			<stop  offset="0.7527" style="stop-color:#FFFAEC"/>
			<stop  offset="0.7966" style="stop-color:#FFFEFA"/>
			<stop  offset="0.8343" style="stop-color:#FFFFFF"/>
		</linearGradient>
		<rect id="XMLID_189_" x="154.1" y="71.8" class="st52" width="4.2" height="78.4"/>
		<g id="XMLID_45_">
			<path id="XMLID_51_" class="st53" d="M138.4,138.4h-11.9l0,5.8c0,0.9,0.6,1.7,1.7,2.4c2.3,1.3,6.1,1.3,8.4,0
				c1.2-0.7,1.7-1.5,1.7-2.4h0L138.4,138.4z"/>
			<path id="XMLID_303_" class="st53" d="M138.6,143.4l3.6-14.5c2.4-9.6,3.9-19.5,4.4-29.4c0-0.7,0.1-1.3,0.1-1.9
				c0.6-16-3-31.9-10.2-46.2l-3.7-7.4h-0.6l-3.7,7.4c-7.2,14.3-10.8,30.2-10.2,46.2c0,0.6,0.1,1.3,0.1,1.9c0.5,9.9,2,19.7,4.4,29.4
				l3.6,14.5H138.6z"/>
			<polygon id="XMLID_302_" class="st54" points="120,108.8 107.8,119.3 101.8,156.9 125.6,137.2 120.8,109.6 			"/>
			<linearGradient id="XMLID_247_" gradientUnits="userSpaceOnUse" x1="101.7893" y1="133.2319" x2="126.3848" y2="133.2319">
				<stop  offset="0" style="stop-color:#3C5185"/>
				<stop  offset="1" style="stop-color:#5D7DBE"/>
			</linearGradient>
			<polygon id="XMLID_301_" class="st55" points="120.8,109.6 108.6,120.2 101.8,156.9 126.4,138 			"/>
			<polygon id="XMLID_50_" class="st54" points="144.7,108.8 156.9,119.3 162.9,156.9 139.1,137.2 143.9,109.6 			"/>
			<linearGradient id="XMLID_250_" gradientUnits="userSpaceOnUse" x1="138.2996" y1="133.2319" x2="162.8951" y2="133.2319">
				<stop  offset="0" style="stop-color:#3C5185"/>
				<stop  offset="1" style="stop-color:#5D7DBE"/>
			</linearGradient>
			<polygon id="XMLID_299_" class="st56" points="143.9,109.6 156.1,120.2 162.9,156.9 138.3,138 			"/>
			<linearGradient id="XMLID_251_" gradientUnits="userSpaceOnUse" x1="132.2559" y1="66.6699" x2="133.3623" y2="45.0955">
				<stop  offset="0" style="stop-color:#3C5185"/>
				<stop  offset="1" style="stop-color:#5D7DBE"/>
			</linearGradient>
			<path id="XMLID_298_" class="st57" d="M141.2,62.4c-1.3-3.8-2.9-7.5-4.7-11.1l-3.7-7.4h-0.6l-3.7,7.4c-1.8,3.6-3.4,7.3-4.7,11.1
				C129.2,64,135.7,64,141.2,62.4z"/>
			<g id="XMLID_296_">
				<path id="XMLID_297_" class="st3" d="M119.2,104.1c-0.2-0.1-0.4-0.2-0.5-0.3c0.1,0.7,0.1,1.3,0.2,2c3.8,2.1,8.7,3.1,13.6,3.1
					c4.9,0,9.8-1.1,13.7-3.1c0.1-0.7,0.1-1.3,0.2-2c-0.2,0.1-0.4,0.2-0.6,0.4C138.4,108.3,126.5,108.3,119.2,104.1z"/>
			</g>
			<path id="XMLID_295_" class="st3" d="M140,85.3c-0.5,3.7-3.9,6.4-7.5,6.4c-3.7,0-7-2.6-7.5-6.4c-0.6-4.3,2.7-8.4,7.5-8.4
				C137.3,76.9,140.6,80.9,140,85.3z"/>
			<path id="XMLID_294_" class="st48" d="M138.7,85.1c-0.4,3.1-3.2,5.3-6.3,5.3c-3,0-5.8-2.2-6.3-5.3c-0.5-3.6,2.3-7,6.3-7
				S139.3,81.5,138.7,85.1z"/>
			<g id="XMLID_291_">
				<path id="XMLID_293_" class="st58" d="M132.5,78.1l-6.4,6.4c0,0.2,0,0.4,0.1,0.6c0.2,1.3,0.8,2.5,1.7,3.4l8.8-8.8
					C135.6,78.7,134.2,78.1,132.5,78.1z"/>
				<path id="XMLID_292_" class="st58" d="M138.2,81.7c-0.2-0.5-0.5-0.9-0.8-1.3l-8.7,8.7c0.4,0.3,0.9,0.6,1.3,0.7L138.2,81.7z"/>
			</g>
			<g id="XMLID_47_">
				<path id="XMLID_48_" class="st3" d="M139.7,138.9c-0.4,0.5-0.9,1-1.7,1.4c-3.3,1.9-8.6,1.9-11.9,0c-0.2-0.1-0.4-0.3-0.6-0.4
					l0.3,1.2c1.7,1,4,1.5,6.3,1.5c2.3,0,4.6-0.5,6.4-1.5c0.3-0.2,0.6-0.4,0.9-0.6L139.7,138.9z"/>
			</g>
		</g>
		<g>
			<linearGradient id="XMLID_252_" gradientUnits="userSpaceOnUse" x1="96.5656" y1="91.5699" x2="168.6266" y2="91.5699">
				<stop  offset="0.1445" style="stop-color:#FF9800"/>
				<stop  offset="0.73" style="stop-color:#F6CF2E"/>
			</linearGradient>
			<path id="XMLID_188_" class="st59" d="M158,79.7c-3.9-1.7-8.6-3-13.7-3.8l0.1,0.7c4.9,0.8,9.5,2,13.2,3.7
				c6.6,2.9,10.2,6.8,10.2,10.9c0,4.1-3.6,8-10.2,10.9c-13.8,6.1-36.3,6.1-50,0c-6.6-2.9-10.2-6.8-10.2-10.9c0-4.1,3.6-8,10.2-10.9
				c3.6-1.6,8-2.8,12.8-3.6l0.3-0.7c-5.1,0.8-9.7,2.1-13.5,3.7c-6.8,3-10.6,7.1-10.6,11.4c0,4.3,3.8,8.4,10.6,11.4
				c7,3.1,16.2,4.6,25.4,4.6c9.2,0,18.4-1.5,25.4-4.6c6.9-3,10.6-7.1,10.6-11.4C168.6,86.8,164.8,82.7,158,79.7z"/>
			<linearGradient id="XMLID_253_" gradientUnits="userSpaceOnUse" x1="95.6391" y1="91.4861" x2="97.9864" y2="93.8333">
				<stop  offset="0" style="stop-color:#FFC107"/>
				<stop  offset="0.8501" style="stop-color:#FF9800"/>
			</linearGradient>
			<circle id="XMLID_187_" class="st60" cx="97.3" cy="93.2" r="1.9"/>
			<linearGradient id="XMLID_254_" gradientUnits="userSpaceOnUse" x1="109.6192" y1="102.3564" x2="111.3836" y2="104.1208">
				<stop  offset="0" style="stop-color:#FFC107"/>
				<stop  offset="0.8501" style="stop-color:#FF9800"/>
			</linearGradient>
			<circle id="XMLID_186_" class="st61" cx="110.9" cy="103.6" r="1.4"/>
			<linearGradient id="XMLID_255_" gradientUnits="userSpaceOnUse" x1="140.1891" y1="105.5967" x2="141.3327" y2="106.7403">
				<stop  offset="0" style="stop-color:#FFC107"/>
				<stop  offset="0.8501" style="stop-color:#FF9800"/>
			</linearGradient>
			<circle id="XMLID_185_" class="st62" cx="141" cy="106.4" r="0.9"/>
			<linearGradient id="XMLID_256_" gradientUnits="userSpaceOnUse" x1="103.2985" y1="78.952" x2="161.6812" y2="78.952">
				<stop  offset="0.1445" style="stop-color:#FF9800"/>
				<stop  offset="0.73" style="stop-color:#F6CF2E"/>
			</linearGradient>
			<path id="XMLID_184_" class="st63" d="M153.1,69.4c-3.1-1.4-7-2.4-11.1-3.1l0.1,0.6c4,0.6,7.7,1.6,10.7,3
				c5.3,2.4,8.3,5.5,8.3,8.8s-2.9,6.4-8.3,8.8c-11.2,4.9-29.4,4.9-40.5,0c-5.3-2.4-8.2-5.5-8.2-8.8c0-3.3,2.9-6.4,8.2-8.8
				c2.9-1.3,6.5-2.3,10.4-2.9l0.2-0.6c-4.1,0.6-7.9,1.7-10.9,3c-5.5,2.4-8.6,5.7-8.6,9.2c0,3.5,3,6.8,8.6,9.2
				c5.7,2.5,13.1,3.8,20.6,3.8c7.5,0,14.9-1.3,20.6-3.8c5.6-2.4,8.6-5.7,8.6-9.2C161.7,75.1,158.6,71.8,153.1,69.4z"/>
			<linearGradient id="XMLID_257_" gradientUnits="userSpaceOnUse" x1="113.091" y1="87.1731" x2="114.9928" y2="89.0748">
				<stop  offset="0" style="stop-color:#FFC107"/>
				<stop  offset="0.8501" style="stop-color:#FF9800"/>
			</linearGradient>
			<circle id="XMLID_183_" class="st64" cx="114.4" cy="88.5" r="1.5"/>
			<linearGradient id="XMLID_258_" gradientUnits="userSpaceOnUse" x1="140.8927" y1="89.714" x2="142.3222" y2="91.1434">
				<stop  offset="0" style="stop-color:#FFC107"/>
				<stop  offset="0.8501" style="stop-color:#FF9800"/>
			</linearGradient>
			<circle id="XMLID_182_" class="st65" cx="141.9" cy="90.7" r="1.1"/>
			<linearGradient id="XMLID_259_" gradientUnits="userSpaceOnUse" x1="157.567" y1="83.6571" x2="158.4935" y2="84.5836">
				<stop  offset="0" style="stop-color:#FFC107"/>
				<stop  offset="0.8501" style="stop-color:#FF9800"/>
			</linearGradient>
			<circle id="XMLID_181_" class="st66" cx="158.2" cy="84.3" r="0.7"/>
			<circle id="XMLID_180_" class="st67" cx="160.8" cy="121.9" r="0.4"/>
			<circle id="XMLID_179_" class="st67" cx="147.3" cy="71.8" r="0.4"/>
			<circle id="XMLID_178_" class="st67" cx="163.3" cy="91.6" r="0.4"/>
			<circle id="XMLID_177_" class="st67" cx="110.5" cy="157.2" r="0.4"/>
			<circle id="XMLID_176_" class="st67" cx="151.6" cy="108.8" r="0.4"/>
			<circle id="XMLID_175_" class="st67" cx="159.3" cy="100.4" r="0.4"/>
			<circle id="XMLID_174_" class="st67" cx="147.6" cy="152.6" r="0.4"/>
			<circle id="XMLID_168_" class="st67" cx="143.6" cy="132.5" r="0.4"/>
			<circle id="XMLID_167_" class="st67" cx="151.3" cy="90.4" r="0.4"/>
			<circle id="XMLID_166_" class="st67" cx="117.4" cy="117.4" r="0.4"/>
			<circle id="XMLID_165_" class="st67" cx="152" cy="73.9" r="0.4"/>
			<circle id="XMLID_164_" class="st67" cx="105" cy="90" r="0.4"/>
			<circle id="XMLID_162_" class="st67" cx="108.6" cy="143.4" r="0.4"/>
			<circle id="XMLID_161_" class="st67" cx="149.9" cy="145" r="0.4"/>
			<circle id="XMLID_160_" class="st67" cx="115" cy="83.3" r="0.4"/>
			<circle id="XMLID_159_" class="st67" cx="101.4" cy="116.7" r="0.4"/>
			<circle id="XMLID_158_" class="st67" cx="118.7" cy="70.7" r="0.4"/>
			<circle id="XMLID_157_" class="st67" cx="114.1" cy="103.7" r="0.4"/>
			<circle id="XMLID_156_" class="st67" cx="150.3" cy="134.2" r="0.2"/>
			<circle id="XMLID_155_" class="st67" cx="159.7" cy="151.3" r="0.2"/>
			<circle id="XMLID_154_" class="st67" cx="158.2" cy="95.3" r="0.2"/>
			<circle id="XMLID_153_" class="st67" cx="166.9" cy="111" r="0.2"/>
			<circle id="XMLID_152_" class="st67" cx="161.4" cy="112.6" r="0.2"/>
			<circle id="XMLID_151_" class="st67" cx="103.3" cy="74.2" r="0.2"/>
			<circle id="XMLID_150_" class="st67" cx="162.9" cy="75.8" r="0.2"/>
			<circle id="XMLID_148_" class="st67" cx="112.1" cy="73.9" r="0.2"/>
			<circle id="XMLID_147_" class="st67" cx="141.2" cy="151.1" r="0.2"/>
			<circle id="XMLID_146_" class="st67" cx="121.1" cy="137.2" r="0.2"/>
			<circle id="XMLID_145_" class="st67" cx="97.3" cy="106.7" r="0.2"/>
			<circle id="XMLID_144_" class="st67" cx="143.8" cy="124.3" r="0.2"/>
			<circle id="XMLID_143_" class="st67" cx="149.5" cy="83.6" r="0.2"/>
			<circle id="XMLID_142_" class="st67" cx="112.3" cy="128.3" r="0.2"/>
			<circle id="XMLID_141_" class="st67" cx="110.5" cy="76.9" r="0.2"/>
			<circle id="XMLID_140_" class="st67" cx="150.1" cy="95.3" r="0.2"/>
			<circle id="XMLID_137_" class="st67" cx="115.4" cy="97.3" r="0.2"/>
			<circle id="XMLID_136_" class="st67" cx="150.9" cy="124.7" r="0.2"/>
			<circle id="XMLID_135_" class="st67" cx="107.2" cy="135.6" r="0.2"/>
			<circle id="XMLID_130_" class="st67" cx="102.7" cy="127.1" r="0.2"/>
			<circle id="XMLID_129_" class="st67" cx="114.1" cy="90.7" r="0.2"/>
			<circle id="XMLID_128_" class="st67" cx="104.3" cy="102.6" r="0.2"/>
			<circle id="XMLID_127_" class="st67" cx="152.8" cy="102.8" r="0.2"/>
			<circle id="XMLID_126_" class="st67" cx="108.2" cy="111.3" r="0.2"/>
			<circle id="XMLID_125_" class="st67" cx="96.6" cy="81.4" r="0.2"/>
			<circle id="XMLID_124_" class="st67" cx="118.8" cy="150.9" r="0.2"/>
			<circle id="XMLID_123_" class="st67" cx="161.2" cy="133.2" r="0.2"/>
			<circle id="XMLID_122_" class="st67" cx="124.7" cy="149.4" r="0.2"/>
		</g>
	</g>
	<g>
		<g id="XMLID_319_">
			
				<linearGradient id="XMLID_260_" gradientUnits="userSpaceOnUse" x1="-57.2887" y1="131.9915" x2="-34.2308" y2="131.9915" gradientTransform="matrix(-1 0 0 1 21.5363 0)">
				<stop  offset="0" style="stop-color:#F2F4FA"/>
				<stop  offset="0.8704" style="stop-color:#D6E4F3"/>
				<stop  offset="1" style="stop-color:#D1E1F2"/>
			</linearGradient>
			<polygon id="XMLID_328_" class="st68" points="63.5,138.7 78.8,129.8 78.8,128.8 71.3,125.3 55.8,133.3 55.8,134.3 			"/>
			<polygon id="XMLID_327_" class="st53" points="63.5,137.8 78.8,128.8 71.3,124.3 55.8,133.3 			"/>
			
				<linearGradient id="XMLID_261_" gradientUnits="userSpaceOnUse" x1="-44.8307" y1="134.6956" x2="-44.7163" y2="119.5973" gradientTransform="matrix(-1 0 0 1 21.5363 0)">
				<stop  offset="0" style="stop-color:#F2F4FA"/>
				<stop  offset="0.9216" style="stop-color:#D6DCEE"/>
				<stop  offset="1" style="stop-color:#D3DAED"/>
			</linearGradient>
			<path id="XMLID_326_" class="st69" d="M60.1,134.7L60,115.9c0-1.2,0.8-2.6,1.8-3.2l8.8-5.2c1-0.6,1.8-0.1,1.8,1v19.4l-11.4,7.2
				L60.1,134.7z"/>
			<path id="XMLID_325_" class="st70" d="M61.1,135.2v-19.3c0-1.2,0.8-2.6,1.8-3.2l8.8-5.2c1-0.6,1.8-0.1,1.8,1v19.4L61.1,135.2z"/>
			<path id="XMLID_324_" class="st71" d="M62.9,112.7l8.8-5.2c1-0.6,1.8-0.1,1.8,1v15.3L61.1,131v-15.2
				C61.1,114.7,61.9,113.3,62.9,112.7z"/>
			
				<linearGradient id="XMLID_262_" gradientUnits="userSpaceOnUse" x1="-66.8289" y1="107.4533" x2="-22.0486" y2="107.4533" gradientTransform="matrix(-1 0 0 1 21.5363 0)">
				<stop  offset="0" style="stop-color:#3C5185"/>
				<stop  offset="0.269" style="stop-color:#476098"/>
				<stop  offset="0.7307" style="stop-color:#5775B4"/>
				<stop  offset="1" style="stop-color:#5D7DBE"/>
			</linearGradient>
			<path id="XMLID_323_" class="st72" d="M87.7,77.9L87.7,77.9c0.4,0.4,0.6,0.9,0.6,1.4v31.6c0,1.2-0.8,2.6-1.8,3.2l-40.1,23.2
				c-0.5,0.3-1.3,0.4-1.8,0.1l-0.3-0.1c-0.5-0.2-0.8-0.8-0.8-1.3v-32.2c0-1.2,0.8-2.6,1.8-3.2l39.7-23C86,77.1,87,77.2,87.7,77.9z"
				/>
			<path id="XMLID_322_" class="st1" d="M86.5,78.2c1-0.6,1.8-0.1,1.8,1.1V111c0,1.2-0.8,2.6-1.8,3.2l-40.1,23.1
				c-1,0.6-1.8,0.1-1.8-1.1v-31.8c0-1.2,0.8-2.6,1.8-3.2L86.5,78.2z"/>
			<polygon id="XMLID_321_" class="st1" points="86.7,80.9 86.7,105 46.5,128 46.5,103.7 			"/>
			<path id="XMLID_320_" class="st53" d="M86.5,114.2l-40.1,23.1c-1,0.6-1.8,0.1-1.8-1.1v-5.1l43.7-25.3v5.2
				C88.4,112.2,87.5,113.6,86.5,114.2z"/>
		</g>
		<g id="XMLID_52_">
			<linearGradient id="XMLID_263_" gradientUnits="userSpaceOnUse" x1="50.4565" y1="103.7178" x2="70.1784" y2="92.1545">
				<stop  offset="0.1499" style="stop-color:#FF9800"/>
				<stop  offset="1" style="stop-color:#FFC107"/>
			</linearGradient>
			<polygon id="XMLID_307_" class="st73" points="64.9,94.7 58,98.7 58,99.9 64.9,95.8 			"/>
			<polygon id="XMLID_305_" class="st3" points="84,85.7 62.1,98.5 62.1,99.6 84,86.8 			"/>
			<polygon id="XMLID_290_" class="st3" points="83.7,95.1 61.7,107.9 61.7,109 83.7,96.2 			"/>
			<polygon id="XMLID_289_" class="st3" points="84.1,104 62.1,116.8 62.1,117.9 84.1,105.1 			"/>
			<polygon id="XMLID_288_" class="st3" points="60.3,99.5 53.4,103.5 53.4,104.6 60.3,100.6 			"/>
			<polygon id="XMLID_287_" class="st3" points="58.8,102.6 55.6,104.5 55.6,105.6 58.8,103.7 			"/>
			<linearGradient id="XMLID_264_" gradientUnits="userSpaceOnUse" x1="56.3743" y1="113.8106" x2="76.0957" y2="102.2476">
				<stop  offset="0.1499" style="stop-color:#FF9800"/>
				<stop  offset="1" style="stop-color:#FFC107"/>
			</linearGradient>
			<polygon id="XMLID_286_" class="st74" points="60.7,110.7 57.5,112.6 57.5,113.7 60.7,111.8 			"/>
			<linearGradient id="XMLID_265_" gradientUnits="userSpaceOnUse" x1="52.353" y1="106.9522" x2="72.0747" y2="95.389">
				<stop  offset="0.1499" style="stop-color:#FF9800"/>
				<stop  offset="1" style="stop-color:#FFC107"/>
			</linearGradient>
			<polygon id="XMLID_285_" class="st75" points="63.1,100.1 59.8,102 59.8,103.1 63.1,101.2 			"/>
			<polygon id="XMLID_284_" class="st3" points="80.4,90.1 65,98.9 65,100.1 80.4,91.3 			"/>
			<polygon id="XMLID_283_" class="st3" points="84.9,99 69.6,107.9 69.6,109 84.9,100.2 			"/>
			<polygon id="XMLID_163_" class="st3" points="80.5,94.8 65.1,103.6 65.1,104.7 80.5,95.9 			"/>
			<polygon id="XMLID_149_" class="st3" points="57.5,105.7 53.4,108.1 53.4,109.2 57.5,106.9 			"/>
			<linearGradient id="XMLID_266_" gradientUnits="userSpaceOnUse" x1="54.3749" y1="110.4008" x2="74.0974" y2="98.8371">
				<stop  offset="0.1499" style="stop-color:#FF9800"/>
				<stop  offset="1" style="stop-color:#FFC107"/>
			</linearGradient>
			<polygon id="XMLID_139_" class="st76" points="56.8,108.4 55.4,109.2 55.4,110.4 56.8,109.5 			"/>
			<linearGradient id="XMLID_267_" gradientUnits="userSpaceOnUse" x1="58.3869" y1="117.243" x2="78.1082" y2="105.6801">
				<stop  offset="0.1499" style="stop-color:#FF9800"/>
				<stop  offset="1" style="stop-color:#FFC107"/>
			</linearGradient>
			<polygon id="XMLID_138_" class="st77" points="65.7,112.4 64.3,113.2 64.3,114.3 65.7,113.5 			"/>
			<linearGradient id="XMLID_268_" gradientUnits="userSpaceOnUse" x1="58.3799" y1="117.2318" x2="78.102" y2="105.6684">
				<stop  offset="0.1499" style="stop-color:#FF9800"/>
				<stop  offset="1" style="stop-color:#FFC107"/>
			</linearGradient>
			<polygon id="XMLID_134_" class="st78" points="67.9,111.1 66.5,111.9 66.5,113.1 67.9,112.2 			"/>
			<linearGradient id="XMLID_269_" gradientUnits="userSpaceOnUse" x1="56.4663" y1="113.967" x2="76.1876" y2="102.4041">
				<stop  offset="0.1499" style="stop-color:#FF9800"/>
				<stop  offset="1" style="stop-color:#FFC107"/>
			</linearGradient>
			<polygon id="XMLID_133_" class="st79" points="69.9,105.5 68.5,106.3 68.5,107.5 69.9,106.6 			"/>
			<polygon id="XMLID_132_" class="st3" points="64.3,104.1 57.3,108.1 57.3,109.2 64.3,105.2 			"/>
			<linearGradient id="XMLID_270_" gradientUnits="userSpaceOnUse" x1="53.4365" y1="108.8001" x2="73.1583" y2="97.2369">
				<stop  offset="0.1499" style="stop-color:#FF9800"/>
				<stop  offset="1" style="stop-color:#FFC107"/>
			</linearGradient>
			<polygon id="XMLID_131_" class="st80" points="72.8,96.9 65.9,100.9 65.9,102.1 72.8,98 			"/>
			<polygon id="XMLID_70_" class="st3" points="69,108.2 62.1,112.2 62.1,113.4 69,109.3 			"/>
			<polygon id="XMLID_69_" class="st3" points="65.2,101.2 58.3,105.3 58.3,106.4 65.2,102.4 			"/>
			<polygon id="XMLID_68_" class="st3" points="60.8,108.4 53.8,112.4 53.8,113.5 60.8,109.5 			"/>
			<polygon id="XMLID_66_" class="st3" points="68.1,106.5 61.2,110.5 61.2,111.6 68.1,107.6 			"/>
			<polygon id="XMLID_65_" class="st3" points="61.2,112.7 54.2,116.7 54.2,117.9 61.2,113.9 			"/>
			<polygon id="XMLID_64_" class="st3" points="63.7,113.5 56.8,117.5 56.8,118.7 63.7,114.7 			"/>
			<polygon id="XMLID_62_" class="st3" points="61.2,117.3 54.2,121.3 54.2,122.5 61.2,118.5 			"/>
			<polygon id="XMLID_567_" class="st3" points="50.9,102.6 49.7,103.3 49.7,104.5 50.9,103.8 			"/>
			<polygon id="XMLID_566_" class="st3" points="50.9,104.9 49.7,105.6 49.7,106.8 50.9,106.1 			"/>
			<polygon id="XMLID_61_" class="st3" points="50.9,107.2 49.7,107.9 49.7,109.1 50.9,108.4 			"/>
			<polygon id="XMLID_60_" class="st3" points="50.9,109.5 49.7,110.2 49.7,111.4 50.9,110.7 			"/>
			<polygon id="XMLID_59_" class="st3" points="50.9,111.8 49.7,112.5 49.7,113.6 50.9,113 			"/>
			<polygon id="XMLID_58_" class="st3" points="50.9,114.1 49.7,114.8 49.7,115.9 50.9,115.3 			"/>
			<polygon id="XMLID_57_" class="st3" points="50.9,116.4 49.7,117.1 49.7,118.2 50.9,117.5 			"/>
			<polygon id="XMLID_56_" class="st3" points="50.9,118.7 49.7,119.4 49.7,120.5 50.9,119.8 			"/>
			<polygon id="XMLID_55_" class="st3" points="50.9,121 49.7,121.7 49.7,122.8 50.9,122.1 			"/>
			<polygon id="XMLID_54_" class="st3" points="50.9,123.3 49.7,124 49.7,125.1 50.9,124.4 			"/>
			<polygon id="XMLID_53_" class="st3" points="72.8,90.1 65.9,94.1 65.9,95.3 72.8,91.3 			"/>
		</g>
	</g>
	<g id="XMLID_478_">
		<g class="st81">
			<path id="XMLID_495_" class="st82" d="M183.8,165.3c0-1-0.7-1.4-1.6-0.9l-34.4,19.9c-0.9,0.5-1.6,1.7-1.6,2.7l0,12
				c0,1,0.7,1.4,1.6,0.9l34.4-19.9c0.9-0.5,1.6-1.7,1.6-2.7V165.3z"/>
			<path id="XMLID_121_" class="st83" d="M183.8,165.3c0-1-0.7-1.4-1.6-0.9l-34.4,19.9c-0.9,0.5-1.6,1.7-1.6,2.7l0,11.6
				c0,1,0.7,1.4,1.6,0.9l34.4-19.9c0.9-0.5,1.6-1.7,1.6-2.7V165.3z"/>
			<path id="XMLID_120_" class="st84" d="M183.8,165.3c0-1-0.7-1.4-1.6-0.9l-34.4,19.9c-0.9,0.5-1.6,1.7-1.6,2.7l0,11.3
				c0,1,0.7,1.4,1.6,0.9l34.4-19.9c0.9-0.5,1.6-1.7,1.6-2.7V165.3z"/>
			<path id="XMLID_119_" class="st85" d="M183.8,165.3c0-1-0.7-1.4-1.6-0.9l-34.4,19.9c-0.9,0.5-1.6,1.7-1.6,2.7l0,11
				c0,1,0.7,1.4,1.6,0.9l34.4-19.9c0.9-0.5,1.6-1.7,1.6-2.7V165.3z"/>
			<path id="XMLID_118_" class="st86" d="M183.8,165.3c0-1-0.7-1.4-1.6-0.9l-34.4,19.9c-0.9,0.5-1.6,1.7-1.6,2.7l0,10.7
				c0,1,0.7,1.4,1.6,0.9l34.4-19.9c0.9-0.5,1.6-1.7,1.6-2.7V165.3z"/>
			<path id="XMLID_117_" class="st87" d="M183.8,165.4c0-1-0.7-1.4-1.6-0.9l-34.4,19.9c-0.9,0.5-1.6,1.7-1.6,2.7l0,10.4
				c0,1,0.7,1.4,1.6,0.9l34.4-19.9c0.9-0.5,1.6-1.7,1.6-2.7V165.4z"/>
			<path id="XMLID_116_" class="st88" d="M183.8,165.4c0-1-0.7-1.4-1.6-0.9l-34.4,19.9c-0.9,0.5-1.6,1.7-1.6,2.7l0,10.1
				c0,1,0.7,1.4,1.6,0.9l34.4-19.9c0.9-0.5,1.6-1.7,1.6-2.7V165.4z"/>
			<path id="XMLID_115_" class="st89" d="M183.8,165.4c0-1-0.7-1.4-1.6-0.9l-34.4,19.9c-0.9,0.5-1.6,1.7-1.6,2.7l0,9.8
				c0,1,0.7,1.4,1.6,0.9l34.4-19.9c0.9-0.5,1.6-1.7,1.6-2.7V165.4z"/>
			<path id="XMLID_114_" class="st90" d="M183.8,165.4c0-1-0.7-1.4-1.6-0.9l-34.4,19.9c-0.9,0.5-1.6,1.7-1.6,2.7l0,9.5
				c0,1,0.7,1.4,1.6,0.9l34.4-19.9c0.9-0.5,1.6-1.7,1.6-2.7V165.4z"/>
			<path id="XMLID_113_" class="st91" d="M183.8,165.4c0-1-0.7-1.4-1.6-0.9l-34.4,19.9c-0.9,0.5-1.6,1.7-1.6,2.7l0,9.2
				c0,1,0.7,1.4,1.6,0.9l34.4-19.9c0.9-0.5,1.6-1.7,1.6-2.7V165.4z"/>
			<path id="XMLID_112_" class="st92" d="M183.8,165.4c0-1-0.7-1.4-1.6-0.9l-34.4,19.9c-0.9,0.5-1.6,1.7-1.6,2.7l0,8.9
				c0,1,0.7,1.4,1.6,0.9l34.4-19.9c0.9-0.5,1.6-1.7,1.6-2.7V165.4z"/>
			<path id="XMLID_111_" class="st93" d="M183.8,165.4c0-1-0.7-1.4-1.6-0.9l-34.4,19.9c-0.9,0.5-1.6,1.7-1.6,2.7l0,8.6
				c0,1,0.7,1.4,1.6,0.9l34.4-19.9c0.9-0.5,1.6-1.7,1.6-2.7V165.4z"/>
			<path id="XMLID_110_" class="st94" d="M183.8,165.4c0-1-0.7-1.4-1.6-0.9l-34.4,19.9c-0.9,0.5-1.6,1.7-1.6,2.7l0,8.3
				c0,1,0.7,1.4,1.6,0.9l34.4-19.9c0.9-0.5,1.6-1.7,1.6-2.7V165.4z"/>
			<path id="XMLID_109_" class="st95" d="M183.8,165.4c0-1-0.7-1.4-1.6-0.9l-34.4,19.9c-0.9,0.5-1.6,1.7-1.6,2.7l0,8
				c0,1,0.7,1.4,1.6,0.9l34.4-19.9c0.9-0.5,1.6-1.7,1.6-2.7V165.4z"/>
			<path id="XMLID_108_" class="st96" d="M183.8,165.4c0-1-0.7-1.4-1.6-0.9l-34.4,19.9c-0.9,0.5-1.6,1.7-1.6,2.7l0,7.7
				c0,1,0.7,1.4,1.6,0.9l34.4-19.9c0.9-0.5,1.6-1.7,1.6-2.7V165.4z"/>
			<path id="XMLID_107_" class="st97" d="M183.8,165.4c0-1-0.7-1.4-1.6-0.9l-34.4,19.9c-0.9,0.5-1.6,1.7-1.6,2.7l0,7.4
				c0,1,0.7,1.4,1.6,0.9l34.4-19.9c0.9-0.5,1.6-1.7,1.6-2.7V165.4z"/>
			<path id="XMLID_106_" class="st98" d="M183.8,165.4c0-1-0.7-1.4-1.6-0.9l-34.4,19.9c-0.9,0.5-1.6,1.7-1.6,2.7l0,7.1
				c0,1,0.7,1.4,1.6,0.9l34.4-19.9c0.9-0.5,1.6-1.7,1.6-2.7V165.4z"/>
			<path id="XMLID_105_" class="st99" d="M183.8,165.4c0-1-0.7-1.4-1.6-0.9l-34.4,19.9c-0.9,0.5-1.6,1.7-1.6,2.7l0,6.8
				c0,1,0.7,1.4,1.6,0.9l34.4-19.9c0.9-0.5,1.6-1.7,1.6-2.7V165.4z"/>
			<path id="XMLID_104_" class="st100" d="M183.8,165.4c0-1-0.7-1.4-1.6-0.9l-34.4,19.9c-0.9,0.5-1.6,1.7-1.6,2.7l0,6.5
				c0,1,0.7,1.4,1.6,0.9l34.4-19.9c0.9-0.5,1.6-1.7,1.6-2.7V165.4z"/>
			<path id="XMLID_103_" class="st101" d="M183.8,165.4c0-1-0.7-1.4-1.6-0.9l-34.4,19.9c-0.9,0.5-1.6,1.7-1.6,2.7l0,6.2
				c0,1,0.7,1.4,1.6,0.9l34.4-19.9c0.9-0.5,1.6-1.7,1.6-2.7V165.4z"/>
			<path id="XMLID_102_" class="st102" d="M183.8,165.4c0-1-0.7-1.4-1.6-0.9l-34.4,19.9c-0.9,0.5-1.6,1.7-1.6,2.7l0,5.8
				c0,1,0.7,1.4,1.6,0.9l34.4-19.9c0.9-0.5,1.6-1.7,1.6-2.7V165.4z"/>
			<path id="XMLID_101_" class="st103" d="M183.8,165.5c0-1-0.7-1.4-1.6-0.9l-34.4,19.9c-0.9,0.5-1.6,1.7-1.6,2.7l0,5.5
				c0,1,0.7,1.4,1.6,0.9l34.4-19.9c0.9-0.5,1.6-1.7,1.6-2.7V165.5z"/>
			<path id="XMLID_100_" class="st104" d="M183.8,165.5c0-1-0.7-1.4-1.6-0.9l-34.4,19.9c-0.9,0.5-1.6,1.7-1.6,2.7l0,5.2
				c0,1,0.7,1.4,1.6,0.9l34.4-19.9c0.9-0.5,1.6-1.7,1.6-2.7V165.5z"/>
			<path id="XMLID_99_" class="st105" d="M183.8,165.5c0-1-0.7-1.4-1.6-0.9l-34.4,19.9c-0.9,0.5-1.6,1.7-1.6,2.7l0,4.9
				c0,1,0.7,1.4,1.6,0.9l34.4-19.9c0.9-0.5,1.6-1.7,1.6-2.7V165.5z"/>
			<path id="XMLID_98_" class="st106" d="M183.8,165.5c0-1-0.7-1.4-1.6-0.9l-34.4,19.9c-0.9,0.5-1.6,1.7-1.6,2.7l0,4.6
				c0,1,0.7,1.4,1.6,0.9l34.4-19.9c0.9-0.5,1.6-1.7,1.6-2.7V165.5z"/>
			<path id="XMLID_97_" class="st107" d="M183.8,165.5c0-1-0.7-1.4-1.6-0.9l-34.4,19.9c-0.9,0.5-1.6,1.7-1.6,2.7l0,4.3
				c0,1,0.7,1.4,1.6,0.9l34.4-19.9c0.9-0.5,1.6-1.7,1.6-2.7V165.5z"/>
			<path id="XMLID_96_" class="st108" d="M183.8,165.5c0-1-0.7-1.4-1.6-0.9l-34.4,19.9c-0.9,0.5-1.6,1.7-1.6,2.7l0,4
				c0,1,0.7,1.4,1.6,0.9l34.4-19.9c0.9-0.5,1.6-1.7,1.6-2.7V165.5z"/>
			<path id="XMLID_95_" class="st109" d="M183.8,165.5c0-1-0.7-1.4-1.6-0.9l-34.4,19.9c-0.9,0.5-1.6,1.7-1.6,2.7l0,3.7
				c0,1,0.7,1.4,1.6,0.9l34.4-19.9c0.9-0.5,1.6-1.7,1.6-2.7V165.5z"/>
			<path id="XMLID_94_" class="st110" d="M183.8,165.5c0-1-0.7-1.4-1.6-0.9l-34.4,19.9c-0.9,0.5-1.6,1.7-1.6,2.7l0,3.4
				c0,1,0.7,1.4,1.6,0.9l34.4-19.9c0.9-0.5,1.6-1.7,1.6-2.7V165.5z"/>
			<path id="XMLID_93_" class="st111" d="M183.8,165.5c0-1-0.7-1.4-1.6-0.9l-34.4,19.9c-0.9,0.5-1.6,1.7-1.6,2.7l0,3.1
				c0,1,0.7,1.4,1.6,0.9l34.4-19.9c0.9-0.5,1.6-1.7,1.6-2.7V165.5z"/>
			<path id="XMLID_92_" class="st112" d="M183.8,165.5c0-1-0.7-1.4-1.6-0.9l-34.4,19.9c-0.9,0.5-1.6,1.7-1.6,2.7l0,2.8
				c0,1,0.7,1.4,1.6,0.9l34.4-19.9c0.9-0.5,1.6-1.7,1.6-2.7V165.5z"/>
			<path id="XMLID_91_" class="st113" d="M183.8,165.5c0-1-0.7-1.4-1.6-0.9l-34.4,19.9c-0.9,0.5-1.6,1.7-1.6,2.7l0,2.5
				c0,1,0.7,1.4,1.6,0.9l34.4-19.9c0.9-0.5,1.6-1.7,1.6-2.7V165.5z"/>
			<path id="XMLID_90_" class="st114" d="M183.8,165.5c0-1-0.7-1.4-1.6-0.9l-34.4,19.9c-0.9,0.5-1.6,1.7-1.6,2.7l0,2.2
				c0,1,0.7,1.4,1.6,0.9l34.4-19.9c0.9-0.5,1.6-1.7,1.6-2.7V165.5z"/>
			<path id="XMLID_89_" class="st115" d="M183.8,165.5c0-1-0.7-1.4-1.6-0.9l-34.4,19.9c-0.9,0.5-1.6,1.7-1.6,2.7l0,1.9
				c0,1,0.7,1.4,1.6,0.9l34.4-19.9c0.9-0.5,1.6-1.7,1.6-2.7V165.5z"/>
			<path id="XMLID_88_" class="st116" d="M183.8,165.5c0-1-0.7-1.4-1.6-0.9l-34.4,19.9c-0.9,0.5-1.6,1.7-1.6,2.7l0,1.6
				c0,1,0.7,1.4,1.6,0.9l34.4-19.9c0.9-0.5,1.6-1.7,1.6-2.7V165.5z"/>
			<path id="XMLID_87_" class="st117" d="M183.8,165.5c0-1-0.7-1.4-1.6-0.9l-34.4,19.9c-0.9,0.5-1.6,1.7-1.6,2.7l0,1.3
				c0,1,0.7,1.4,1.6,0.9l34.4-19.9c0.9-0.5,1.6-1.7,1.6-2.7V165.5z"/>
			<path id="XMLID_86_" class="st118" d="M183.8,165.5c0-1-0.7-1.4-1.6-0.9l-34.4,19.9c-0.9,0.5-1.6,1.7-1.6,2.7l0,1
				c0,1,0.7,1.4,1.6,0.9l34.4-19.9c0.9-0.5,1.6-1.7,1.6-2.7V165.5z"/>
			<path id="XMLID_85_" class="st119" d="M183.8,165.6c0-1-0.7-1.4-1.6-0.9l-34.4,19.9c-0.9,0.5-1.6,1.7-1.6,2.7l0,0.7
				c0,1,0.7,1.4,1.6,0.9l34.4-19.9c0.9-0.5,1.6-1.7,1.6-2.7V165.6z"/>
			<path id="XMLID_84_" class="st120" d="M183.8,165.6c0-1-0.7-1.4-1.6-0.9l-34.4,19.9c-0.9,0.5-1.6,1.7-1.6,2.7l0,0.3
				c0,1,0.7,1.4,1.6,0.9l34.4-19.9c0.9-0.5,1.6-1.7,1.6-2.7V165.6z"/>
			<path id="XMLID_83_" class="st121" d="M183.8,165.6c0-1-0.7-1.4-1.6-0.9l-34.4,19.9c-0.9,0.5-1.6,1.7-1.6,2.7l0,0
				c0,1,0.7,1.4,1.6,0.9l34.4-19.9C183.1,167.8,183.8,166.6,183.8,165.6L183.8,165.6z"/>
			<path id="XMLID_82_" class="st122" d="M183.8,165.6c0-1-0.7-1.4-1.6-0.9l-34.4,19.9c-0.9,0.5-1.6,1.7-1.6,2.7l0-0.3
				c0,1,0.7,1.4,1.6,0.9l34.4-19.9c0.9-0.5,1.6-1.7,1.6-2.7V165.6z"/>
			<path id="XMLID_493_" class="st1" d="M183.8,165.6c0-1-0.7-1.4-1.6-0.9l-34.4,19.9c-0.9,0.5-1.6,1.7-1.6,2.7l0-0.6
				c0,1,0.7,1.4,1.6,0.9l34.4-19.9c0.9-0.5,1.6-1.7,1.6-2.7V165.6z"/>
		</g>
		<path id="XMLID_488_" class="st1" d="M183.8,132.6c0-1-0.7-1.4-1.6-0.9l-34.4,19.9c-0.9,0.5-1.6,1.7-1.6,2.7l0,27.3
			c0,1,0.7,1.4,1.6,0.9l34.4-19.9c0.9-0.5,1.6-1.7,1.6-2.7V132.6z"/>
		<path id="XMLID_487_" class="st53" d="M181.6,137.2c0-0.8-0.6-1.2-1.3-0.8l-29.2,17c-0.7,0.4-1.3,1.5-1.3,2.3v21.9
			c0,0.8,0.6,1.2,1.3,0.8l29.2-17c0.7-0.4,1.3-1.5,1.3-2.3V137.2z"/>
		<linearGradient id="XMLID_271_" gradientUnits="userSpaceOnUse" x1="146.28" y1="157.1332" x2="183.7934" y2="157.1332">
			<stop  offset="0" style="stop-color:#5D7DBE"/>
			<stop  offset="0.9962" style="stop-color:#3C5185"/>
		</linearGradient>
		<path id="XMLID_486_" class="st123" d="M147.5,182.4V155c0-1,0.7-2.2,1.6-2.7l34.4-19.9c0.1-0.1,0.2-0.1,0.3-0.1
			c-0.1-0.8-0.8-1-1.5-0.6l-34.4,19.9c-0.9,0.5-1.6,1.7-1.6,2.7l0,27.3c0,0.9,0.6,1.3,1.3,1C147.6,182.6,147.5,182.5,147.5,182.4z"
			/>
		<polygon id="XMLID_483_" class="st58" points="151.1,156 165.1,148 165.1,158.4 151.1,166.4 		"/>
		<polygon id="XMLID_482_" class="st124" points="151.1,168.6 180.8,151.4 180.8,152.9 151.1,170.1 		"/>
		<polygon id="XMLID_481_" class="st124" points="151.1,171.6 180.8,154.4 180.8,156 151.1,173.1 		"/>
		<polygon id="XMLID_480_" class="st124" points="151.1,174.7 168.1,164.8 168.1,166.3 151.1,176.2 		"/>
		<polygon id="XMLID_479_" class="st124" points="166.2,149.5 180.8,141 180.8,146 166.2,154.4 		"/>
	</g>
	<g id="XMLID_330_">
		<path id="XMLID_476_" class="st1" d="M78.5,187.6l-0.6-0.2c-1-0.3-2.1-0.1-2.9,0.5l-0.6-0.5l-0.6,1.5l-3.1-0.3l0.7,2.8
			c0,0.2,0.2,0.3,0.4,0.4l1.3,0.4c1.1,0.3,2.2,0,3-0.7l2.8-2.7C79.2,188.4,79,187.7,78.5,187.6z"/>
		<path id="XMLID_475_" class="st125" d="M78.5,187.6l-0.6-0.2c-1-0.3-2.1-0.1-2.9,0.5l-0.6-0.5l-0.6,1.5l-3.1-0.3l0.4,1.4
			c0.2,0.6,0.6,1.1,1.3,1.3l0.5,0.2c1.1,0.3,2.2,0,3-0.7l2.8-2.7c0.1-0.1,0.2-0.2,0.2-0.3C78.7,187.7,78.6,187.6,78.5,187.6z"/>
		<path id="XMLID_474_" class="st126" d="M74.1,188.6c0.7-0.6,0.5-1.3-0.4-1.6c-0.9-0.3-2.1,0.1-2.8,0.7c-0.7,0.6-0.5,1.3,0.4,1.6
			C72.2,189.5,73.4,189.2,74.1,188.6z"/>
		<g id="XMLID_472_">
			<path id="XMLID_473_" class="st127" d="M72.4,188.7c-0.6,0-1-0.5-1-1v-4c0-0.6,0.5-1,1-1c0.6,0,1,0.5,1,1v4
				C73.4,188.2,73,188.7,72.4,188.7z"/>
		</g>
		<g id="XMLID_470_">
			
				<linearGradient id="XMLID_272_" gradientUnits="userSpaceOnUse" x1="523.0278" y1="173.7335" x2="527.2774" y2="173.7335" gradientTransform="matrix(-1 0 0 1 598.0478 0)">
				<stop  offset="0" style="stop-color:#A8D9FB"/>
				<stop  offset="1" style="stop-color:#FFFFFF"/>
			</linearGradient>
			<path id="XMLID_471_" class="st128" d="M72.4,188.1C72.4,188.1,72.3,188.1,72.4,188.1c-1,0-1.7-0.8-1.6-1.7l0.4-9.7l-0.4-15.6
				c0-0.9,0.7-1.6,1.6-1.7c0.9,0,2.7,0.7,2.7,1.6l-0.6,15.7l0,0.1l-0.4,9.8C74,187.4,73.3,188.1,72.4,188.1z"/>
		</g>
		<path id="XMLID_469_" class="st1" d="M82.8,191.5l-0.6-0.3c-0.9-0.5-2-0.6-2.9-0.2l-0.5-0.6l-1,1.3l-3-1v2.9
			c0,0.2,0.1,0.4,0.3,0.4l1.2,0.7c1,0.6,2.2,0.6,3.1,0l3.4-2C83.3,192.4,83.3,191.8,82.8,191.5z"/>
		<path id="XMLID_468_" class="st125" d="M82.8,191.5l-0.6-0.3c-0.9-0.5-2-0.6-2.9-0.2l-0.5-0.6l-1,1.3l-3-1v1.5
			c0,0.7,0.3,1.3,0.9,1.6l0.5,0.3c1,0.6,2.2,0.6,3.1,0l3.4-2c0.1-0.1,0.2-0.2,0.3-0.3C83,191.7,82.9,191.6,82.8,191.5z"/>
		<path id="XMLID_467_" class="st126" d="M78.3,191.5c0.8-0.5,0.8-1.2,0-1.6c-0.8-0.5-2.1-0.5-2.8,0c-0.8,0.5-0.8,1.2,0,1.6
			C76.2,191.9,77.5,191.9,78.3,191.5z"/>
		<g id="XMLID_465_">
			<path id="XMLID_466_" class="st127" d="M76.9,191.3c-0.6,0-1-0.5-1-1v-4c0-0.6,0.5-1,1-1c0.6,0,1,0.5,1,1v4
				C77.9,190.9,77.5,191.3,76.9,191.3z"/>
		</g>
		<g id="XMLID_463_">
			<path id="XMLID_464_" class="st125" d="M72.4,163.7c-0.4,0-0.8-0.2-1-0.6l-2.1-3.7c-2.2-3.8-1.2-8.8,2.3-11.4l0.6-0.4
				c0.5-0.4,1.3-0.3,1.7,0.2c0.4,0.5,0.3,1.3-0.2,1.7l-0.6,0.4c-2.6,2-3.3,5.6-1.7,8.4l2.1,3.7c0.3,0.6,0.1,1.3-0.4,1.6
				C72.8,163.7,72.6,163.7,72.4,163.7z"/>
		</g>
		
			<linearGradient id="XMLID_273_" gradientUnits="userSpaceOnUse" x1="518.6588" y1="174.3831" x2="527.2767" y2="174.3831" gradientTransform="matrix(-1 0 0 1 598.0478 0)">
			<stop  offset="0" style="stop-color:#A8D9FB"/>
			<stop  offset="1" style="stop-color:#FFFFFF"/>
		</linearGradient>
		<path id="XMLID_81_" class="st129" d="M70.9,165.1l-0.1-4l6.5-2.5l-0.1,3.6c0.7,0.1,1.3,0.7,1.3,1.5l0.9,14.2l-0.9,10.9
			c-0.1,0.8-0.8,1.5-1.6,1.5c-0.2,0-0.3,0-0.5-0.1c-0.7-0.2-1.2-1-1.1-1.7l0.9-10.6l-1.5-9.6l-2.9-1.7
			C71.2,166.2,70.9,165.7,70.9,165.1z"/>
		
			<linearGradient id="XMLID_274_" gradientUnits="userSpaceOnUse" x1="518.6588" y1="176.1486" x2="521.3802" y2="176.1486" gradientTransform="matrix(-1 0 0 1 598.0478 0)">
			<stop  offset="0" style="stop-color:#A8D9FB"/>
			<stop  offset="1" style="stop-color:#FFFFFF"/>
		</linearGradient>
		<path id="XMLID_437_" class="st130" d="M78.5,163.6c-0.1-0.9-0.8-1.6-1.7-1.5c0,0-0.1,0-0.1,0c0.7,0.1,1.3,0.7,1.4,1.5l0.9,14.2
			l-0.9,10.9c-0.1,0.8-0.7,1.4-1.4,1.5c0,0,0.1,0,0.1,0c0,0,0.1,0,0.1,0c0.8,0,1.5-0.6,1.6-1.5l0.9-10.9L78.5,163.6z"/>
		<path id="XMLID_435_" class="st131" d="M70.2,161.1l0.2-1.5c0.1-1.1,0.2-2.1,0.2-3.2c0.1,0.7,0.4,1.3,0.7,1.9l2.1,3.7
			c0.3,0.6,0.1,1.3-0.4,1.6c-0.2,0.1-0.4,0.2-0.6,0.2c-0.4,0-0.8-0.2-1-0.6L70.2,161.1z"/>
		<path id="XMLID_414_" class="st125" d="M70.5,141.8l5.1,2.9c2.3,1.3,3.6,3.7,3.6,6.3v14.5c-2.1,1.4-7.6-0.6-8.7-2.8l0.3-3.2
			c0.2-1.3,0.2-2.5,0.2-3.8L70.5,141.8z"/>
		<path id="XMLID_413_" class="st132" d="M72.5,145L72.5,145l0-6.9h6v1C78.4,142.4,75.8,145,72.5,145z"/>
		<path id="XMLID_359_" class="st132" d="M74.4,146.2L74.4,146.2c-0.7,0-1.3-0.6-1.3-1.2v-3.8h2.5v3.8
			C75.7,145.6,75.1,146.2,74.4,146.2z"/>
		<path id="XMLID_358_" class="st131" d="M79.2,154.3c-0.2-0.1-0.6-0.3-0.7-0.9l-0.5-3.7c-0.1-0.6-0.7-1.1-1.3-1
			c-0.6,0.1-0.7,0.8-0.6,1.4l0.1,3.6c0.2,1.4,1.1,2.4,2.4,2.8c0.2,0.1,0.4,0.1,0.6,0.1V154.3z"/>
		<path id="XMLID_356_" class="st125" d="M79.6,156.1c-0.3,0-0.7-0.1-1-0.2c-1.3-0.4-2.2-1.5-2.4-2.8l-0.5-3.7
			c-0.1-0.6,0.4-1.2,1-1.3c0.6-0.1,1.2,0.4,1.3,1l0.5,3.7c0.1,0.6,0.6,0.8,0.7,0.9c0.2,0,0.7,0.2,1.1-0.3l3.4-3.9
			c0.4-0.5,1.2-0.5,1.7-0.1c0.5,0.4,0.5,1.2,0.1,1.7l-3.4,3.9C81.5,155.6,80.6,156.1,79.6,156.1z"/>
		<g id="XMLID_354_">
			<path id="XMLID_355_" class="st132" d="M83.2,150.1l0.6-0.6c0.4-0.5,1.2-0.5,1.7-0.1c0.5,0.4,0.5,1.2,0.1,1.7l-0.7,0.8
				L83.2,150.1z"/>
		</g>
		<circle id="XMLID_353_" class="st132" cx="85.3" cy="149.9" r="1.4"/>
		<path id="XMLID_352_" class="st132" d="M86.5,147.4l-1.8,1.9c-0.1,0.1-0.3,0.1-0.4,0l0,0c-0.1-0.1-0.1-0.3,0-0.4L86,147
			c0.1-0.1,0.3-0.1,0.4,0l0,0C86.6,147.1,86.6,147.3,86.5,147.4z"/>
		<g id="XMLID_351_">
			<path id="XMLID_248_" class="st1" d="M78.9,136.9c-1-1.2-3.5-0.9-4.8-0.4c-1.7,0.5-3.7,1.1-4,3.1c-0.1,0.5,0,1,0,1.5
				c0,1.2-0.3,2.4-0.8,3.4c-0.8,1.5-1.1,2.5-0.3,4c0.5,0.9,0.8,2.4,1.7,2.9c1,0.6,3.1,1,4,0.2c1.3-1,2-3.4,1.9-5
				c-0.1-1.7-1-3.4-0.5-5c0.3-1,1.7-2.1,2.4-2.8C79.2,138.3,79.5,137.7,78.9,136.9z"/>
		</g>
		<g id="XMLID_80_">
			<path id="XMLID_249_" class="st133" d="M78.9,136.9c-0.6-0.7-1.7-0.9-2.8-0.8c0.8,0,1.5,0.3,2,0.8c0.7,0.8,0.3,1.4-0.3,2.1
				c-0.8,0.7-2.1,1.8-2.4,2.8c-0.5,1.6,0.3,3.3,0.5,5c0.1,1.6-0.5,4-1.9,5c-0.3,0.2-0.7,0.3-1.2,0.4c0.7,0.1,1.5,0,1.9-0.4
				c1.3-1,2-3.4,1.9-5c-0.1-1.7-1-3.4-0.5-5c0.3-1,1.7-2.1,2.4-2.8C79.2,138.3,79.5,137.7,78.9,136.9z"/>
		</g>
	</g>
	<g id="XMLID_477_">
		<path id="XMLID_79_" class="st1" d="M134.9,185.3c-0.5,0-1-0.1-1.5-0.4c-0.9-0.5-1.5-1.5-1.5-2.5V180c0-0.7-0.4-1.4-1-1.8
			l-2.2-1.3c-0.2-0.1-0.2-0.3-0.1-0.5c0.1-0.2,0.3-0.2,0.5-0.1l2.2,1.3c0.9,0.5,1.4,1.4,1.4,2.4v2.4c0,0.8,0.4,1.5,1.1,1.9
			c0.7,0.4,1.5,0.4,2.2,0l3.9-2.2c0.9-0.5,1.5-1.6,1.5-2.6v-14c0-1.1,0.6-2.1,1.5-2.6l3.7-2.1c0.2-0.1,0.4,0,0.5,0.1
			c0.1,0.2,0,0.4-0.1,0.5l-3.7,2.1c-0.7,0.4-1.1,1.2-1.1,2v14c0,1.4-0.7,2.6-1.9,3.3l-3.9,2.2C135.9,185.2,135.4,185.3,134.9,185.3z
			"/>
	</g>
	<g>
		<path id="XMLID_1044_" class="st132" d="M162,162.9L162,162.9c-0.1,0.2-0.4,0.2-0.5,0l-0.8-0.7c-0.2-0.1-0.2-0.4,0-0.5l0,0
			c0.1-0.2,0.4-0.2,0.5,0l0.8,0.7C162.1,162.5,162.1,162.8,162,162.9z"/>
		<path id="XMLID_1040_" class="st1" d="M172.7,199.5l-1.3-0.8v-0.6l-1.4-0.2l-3.1-1.8c-0.8-0.4-0.7-1.6,0.2-1.9l0,0
			c0.6-0.2,1.2-0.2,1.8,0.1l2.4,1.2l3.3,1.2l-0.1,1.2c-0.1,0.9-0.8,1.6-1.7,1.6H172.7z"/>
		<path id="XMLID_718_" class="st134" d="M173.2,199.1H173l-1.3-0.8v-0.6l-1.4-0.2l-3.1-1.8c-0.5-0.3-0.6-1-0.4-1.4
			c-0.7,0.4-0.7,1.4,0,1.8l3.1,1.8l1.4,0.2v0.6l1.3,0.8h0.1c0.6,0,1.1-0.3,1.4-0.7C173.9,199,173.5,199.1,173.2,199.1z"/>
		<path id="XMLID_717_" class="st1" d="M177.7,196l-1.3-0.8v-0.6l-1.4-0.2l-3.1-1.8c-0.8-0.4-0.7-1.6,0.2-1.9l0,0
			c0.6-0.2,1.2-0.2,1.8,0.1l2.4,1.2l3.3,1.2l-0.1,1.2c-0.1,0.9-0.8,1.6-1.7,1.6H177.7z"/>
		<path id="XMLID_716_" class="st134" d="M178.2,195.7h-0.1l-1.3-0.8v-0.6l-1.4-0.2l-3.1-1.8c-0.5-0.3-0.6-1-0.4-1.4
			c-0.7,0.4-0.7,1.4,0,1.8l3.1,1.8l1.4,0.2v0.6l1.3,0.8h0.1c0.6,0,1.1-0.3,1.4-0.7C178.9,195.5,178.6,195.7,178.2,195.7z"/>
		<g id="XMLID_714_">
			<linearGradient id="XMLID_275_" gradientUnits="userSpaceOnUse" x1="175.1418" y1="180.1383" x2="179.558" y2="180.1383">
				<stop  offset="0" style="stop-color:#5D7DBE"/>
				<stop  offset="1" style="stop-color:#3C5185"/>
			</linearGradient>
			<path id="XMLID_715_" class="st135" d="M177.8,194.5c-1,0-1.7-0.4-1.7-1.3l-1-25.6c0-1,1.7-1.7,2.7-1.7c1,0,1.7,0.8,1.7,1.7v25.6
				C179.6,194.1,178.8,194.5,177.8,194.5z"/>
		</g>
		<g id="XMLID_712_">
			<linearGradient id="XMLID_276_" gradientUnits="userSpaceOnUse" x1="170.2215" y1="181.5391" x2="177.0381" y2="181.5391">
				<stop  offset="0" style="stop-color:#5D7DBE"/>
				<stop  offset="1" style="stop-color:#3C5185"/>
			</linearGradient>
			<path id="XMLID_713_" class="st136" d="M172.9,197.4c-0.9,0-1.6-0.1-1.7-1l-1-15l0-0.1l1-14c0.1-1,0.9-1.7,1.8-1.6
				c1,0.1,4.1,0.9,4,1.9l-2.9,13.9l0.5,14.7c0.1,1-0.6,1.2-1.6,1.3C173,197.4,173,197.4,172.9,197.4z"/>
		</g>
		<g id="XMLID_492_">
			<path id="XMLID_494_" class="st132" d="M164.9,164.9c-0.2,0-0.5,0-0.7,0l-4.2-0.2c-0.6,0-1.1-0.6-1.1-1.2c0-0.6,0.6-1.1,1.2-1.1
				l4.2,0.2c3.3,0.2,6.4-1.6,7.6-4.7l0.8-1.9c0.2-0.6,0.9-0.9,1.5-0.6c0.6,0.2,0.9,0.9,0.6,1.5l-0.8,1.9
				C172.5,162.5,168.9,164.9,164.9,164.9z"/>
		</g>
		<linearGradient id="XMLID_277_" gradientUnits="userSpaceOnUse" x1="161.3123" y1="168.9778" x2="179.8371" y2="168.9778">
			<stop  offset="0" style="stop-color:#FFFFFF"/>
			<stop  offset="0.184" style="stop-color:#F9FCFF"/>
			<stop  offset="0.4309" style="stop-color:#E8F5FE"/>
			<stop  offset="0.7133" style="stop-color:#CCE9FD"/>
			<stop  offset="1" style="stop-color:#A8D9FB"/>
		</linearGradient>
		<path id="XMLID_78_" class="st137" d="M179.7,153.7c-0.2-1.6-1.8-2.7-3.2-1.9c-0.2,0.1-0.3,0.2-0.5,0.3c-3.1,1.9-4.4,4.3-4.9,6.9
			c-1.5,2.3-4.1,3.6-6.8,3.4l-1.6-0.1c-0.7-0.1-1.4,0.5-1.4,1.2c-0.1,0.7,0.5,1.4,1.2,1.4l1.6,0.1c0.3,0,0.5,0,0.7,0
			c2.2,0,4.3-0.7,6-2l0,2l-0.6,21.3c0.3,0.2,2.3,0,4.3-0.5c0.2,0,0.4-2.4,0.5-2.4c0.2,0,0.3,2.2,0.5,2.1c1.8-0.5,3.5-1.2,3.9-2
			l-0.3-22.7C179.4,160.9,180.1,156.4,179.7,153.7z"/>
		<path id="XMLID_77_" class="st138" d="M174.2,158.9c-0.7,1.7-1.9,3.2-3.3,4.2l0,1c1.4-1.2,2.5-2.8,3.1-4.7l0.2-0.6L174.2,158.9z"
			/>
		<path id="XMLID_705_" class="st132" d="M176.2,154.1L176.2,154.1c-0.5,0-0.8-0.4-0.8-0.8v-3.9h1.7v3.9
			C177,153.7,176.7,154.1,176.2,154.1z"/>
		<path id="XMLID_704_" class="st132" d="M178.2,152.4h-1.3c-2.1,0-3.8-1.7-3.8-3.8v-3.5h5.1V152.4z"/>
		<path id="XMLID_597_" class="st1" d="M179.9,148.8c0-0.2,0-0.4,0-0.6c0-0.7,0.1-1.5,0-2.2c-0.1-0.9-0.6-1.9-1.5-2.2
			c-0.5-0.2-1.1-0.2-1.6-0.2c-1.1,0-2.3,0-3.4,0c-0.5,0-1,0-1.5,0.3c-0.8,0.5-0.4,1.6,0.1,2.2c0.3,0.3,0.6,0.6,1,0.8
			c0.4,0.2,1,0,1.2,0.4c0.3,0.5-0.3,2.2,0.4,2.4c0.6,0.2,0.5-0.4,0.6-0.7c0.1-0.2,0.2-0.4,0.4-0.4c0.3,0,0.4,0.3,0.5,0.5
			c0.1,0.5-0.1,1-0.1,1.5c-0.1,0.5,0,1.1,0.4,1.4c0.1,0.1,0.3,0.2,0.5,0.3c0.5,0.2,1.5,0.4,1.9,0c0.7-0.5,1.1-1.1,1.2-1.9
			C179.9,149.9,179.9,149.4,179.9,148.8z"/>
	</g>
	<g>
		<g>
			
				<radialGradient id="XMLID_278_" cx="-304.2379" cy="7815.6094" r="7.2265" gradientTransform="matrix(-1 0 0 0.5172 -100.3713 -3892.8164)" gradientUnits="userSpaceOnUse">
				<stop  offset="9.125480e-002" style="stop-color:#3C5185"/>
				<stop  offset="0.1563" style="stop-color:#506291"/>
				<stop  offset="0.379" style="stop-color:#8D9AB8"/>
				<stop  offset="0.5827" style="stop-color:#BEC5D7"/>
				<stop  offset="0.7606" style="stop-color:#E2E5ED"/>
				<stop  offset="0.9057" style="stop-color:#F7F8FA"/>
				<stop  offset="1" style="stop-color:#FFFFFF"/>
			</radialGradient>
			<path id="XMLID_1107_" class="st139" d="M208.9,146.5c-2.8-1.6-7.3-1.6-10.1,0c-2.8,1.6-2.8,4.2,0,5.8c2.8,1.6,7.3,1.6,10.1,0
				C211.7,150.7,211.7,148.1,208.9,146.5z"/>
			
				<linearGradient id="XMLID_279_" gradientUnits="userSpaceOnUse" x1="259.6544" y1="149.2015" x2="269.8858" y2="149.2015" gradientTransform="matrix(1 0 0 1 -60.8095 0)">
				<stop  offset="3.802050e-003" style="stop-color:#A5CBEF"/>
				<stop  offset="0.4419" style="stop-color:#CEE3F6"/>
				<stop  offset="1" style="stop-color:#FFFFFF"/>
			</linearGradient>
			<path id="XMLID_1106_" class="st140" d="M198.8,147.8h0.6c0.2-0.3,0.5-0.5,0.9-0.7c2-1.1,5.3-1.1,7.2,0c0.4,0.2,0.7,0.5,0.9,0.7
				h0.6v1.4h0c0,0.8-0.5,1.5-1.5,2.1c-2,1.1-5.3,1.1-7.2,0c-1-0.6-1.5-1.3-1.5-2.1h0V147.8z"/>
			
				<linearGradient id="XMLID_280_" gradientUnits="userSpaceOnUse" x1="-309.4477" y1="148.9901" x2="-306.8763" y2="148.9901" gradientTransform="matrix(-1 0 0 1 -100.3713 0)">
				<stop  offset="0.1499" style="stop-color:#FF9800"/>
				<stop  offset="1" style="stop-color:#FFC107"/>
			</linearGradient>
			<path id="XMLID_1105_" class="st141" d="M207.6,147.1c0.4,0.2,0.7,0.5,0.9,0.7h0.6v1.4h0c0,0.8-0.5,1.5-1.5,2.1
				c0,0-0.1,0-0.1,0.1V150l-1-3.3C206.9,146.8,207.3,146.9,207.6,147.1z"/>
			<path id="XMLID_1104_" class="st53" d="M207.6,145.7c-2-1.2-5.3-1.2-7.2,0c-2,1.2-2,3,0,4.2c2,1.1,5.3,1.1,7.2,0
				C209.6,148.8,209.6,146.9,207.6,145.7z"/>
			
				<linearGradient id="XMLID_281_" gradientUnits="userSpaceOnUse" x1="-309.4477" y1="147.4321" x2="-304.3318" y2="147.4321" gradientTransform="matrix(-1 0 0 1 -100.3713 0)">
				<stop  offset="0.1499" style="stop-color:#FF9800"/>
				<stop  offset="1" style="stop-color:#FFC107"/>
			</linearGradient>
			<path id="XMLID_1103_" class="st142" d="M204,144.9c1.3,0,2.6,0.3,3.6,0.9c2,1.2,2,3,0,4.2c0,0-0.1,0-0.1,0.1l-3.5-1.7V144.9z"/>
		</g>
		<g>
			
				<radialGradient id="XMLID_282_" cx="-293.0677" cy="7829.1538" r="6.6992" gradientTransform="matrix(-1 0 0 0.5172 -100.3713 -3892.8164)" gradientUnits="userSpaceOnUse">
				<stop  offset="9.125480e-002" style="stop-color:#3C5185"/>
				<stop  offset="0.1563" style="stop-color:#506291"/>
				<stop  offset="0.379" style="stop-color:#8D9AB8"/>
				<stop  offset="0.5827" style="stop-color:#BEC5D7"/>
				<stop  offset="0.7606" style="stop-color:#E2E5ED"/>
				<stop  offset="0.9057" style="stop-color:#F7F8FA"/>
				<stop  offset="1" style="stop-color:#FFFFFF"/>
			</radialGradient>
			<path id="XMLID_1097_" class="st143" d="M197.4,153.7c-2.6-1.5-6.8-1.5-9.4,0c-2.6,1.5-2.6,3.9,0,5.4c2.6,1.5,6.8,1.5,9.4,0
				C200,157.6,200,155.2,197.4,153.7z"/>
			
				<linearGradient id="XMLID_300_" gradientUnits="userSpaceOnUse" x1="248.3674" y1="155.8557" x2="258.6444" y2="155.8557" gradientTransform="matrix(1 0 0 1 -60.8095 0)">
				<stop  offset="3.802050e-003" style="stop-color:#A5CBEF"/>
				<stop  offset="0.4419" style="stop-color:#CEE3F6"/>
				<stop  offset="1" style="stop-color:#FFFFFF"/>
			</linearGradient>
			<path id="XMLID_1096_" class="st144" d="M187.6,154.5h0.6c0.2-0.3,0.5-0.5,0.9-0.7c2-1.2,5.3-1.2,7.3,0c0.4,0.2,0.7,0.5,0.9,0.7
				h0.6v1.4h0c0,0.8-0.5,1.5-1.5,2.1c-2,1.2-5.3,1.2-7.3,0c-1-0.6-1.5-1.3-1.5-2.1h0V154.5z"/>
			<path id="XMLID_1095_" class="st53" d="M196.3,152.4c-2-1.2-5.3-1.2-7.3,0c-2,1.2-2,3,0,4.2c2,1.2,5.3,1.2,7.3,0
				C198.3,155.4,198.3,153.5,196.3,152.4z"/>
			
				<linearGradient id="XMLID_304_" gradientUnits="userSpaceOnUse" x1="-290.5887" y1="155.8972" x2="-286.3255" y2="152.3668" gradientTransform="matrix(-1 0 0 1 -100.3713 0)">
				<stop  offset="0.1499" style="stop-color:#FF9800"/>
				<stop  offset="1" style="stop-color:#FFC107"/>
			</linearGradient>
			<path id="XMLID_1094_" class="st145" d="M187.6,154.5C187.6,154.5,187.6,154.5,187.6,154.5v-1.2h0.4c0.2-0.3,0.6-0.7,1.1-0.9
				c1.4-0.8,0.5,2.3,0,4.2v1.4c-1-0.6-1.5-1.3-1.5-2.1L187.6,154.5z"/>
			<path id="XMLID_1093_" class="st133" d="M189.1,150.1c2-1.2,5.3-1.2,7.3,0l-3.6,2.5L189.1,150.1z"/>
			<polygon id="XMLID_1092_" class="st146" points="196.3,150.1 196.3,152.4 192.7,154.9 192.7,152.6 			"/>
			<polygon id="XMLID_1085_" class="st1" points="192.7,152.6 189.1,150.1 189.1,152.4 192.7,154.9 			"/>
			
				<linearGradient id="XMLID_306_" gradientUnits="userSpaceOnUse" x1="-293.0679" y1="153.3332" x2="-287.9293" y2="153.3332" gradientTransform="matrix(-1 0 0 1 -100.3713 0)">
				<stop  offset="0.1499" style="stop-color:#FF9800"/>
				<stop  offset="1" style="stop-color:#FFC107"/>
			</linearGradient>
			<path id="XMLID_1084_" class="st147" d="M189.1,151.2c-2,1.2-2,3,0,4.2l3.6-1.7L189.1,151.2z"/>
			
				<linearGradient id="XMLID_308_" gradientUnits="userSpaceOnUse" x1="-293.0679" y1="155.1517" x2="-289.4299" y2="155.1517" gradientTransform="matrix(-1 0 0 1 -100.3713 0)">
				<stop  offset="0.1499" style="stop-color:#FF9800"/>
				<stop  offset="1" style="stop-color:#FFC107"/>
			</linearGradient>
			<polygon id="XMLID_1083_" class="st148" points="192.7,153.7 192.7,154.9 189.1,156.6 189.1,155.4 			"/>
		</g>
	</g>
	<g>
		<g>
			<g class="st4">
				<path id="XMLID_1143_" class="st5" d="M178.1,105.1c-0.5-0.3-0.5-0.8,0-1.1l10.6-6.1c0.5-0.3,1.4-0.3,1.9,0l10.6,6.1
					c0.5,0.3,0.5,0.8,0,1.1l-10.6,6.1c-0.5,0.3-1.4,0.3-1.9,0L178.1,105.1z"/>
				<path id="XMLID_76_" class="st6" d="M178.2,105.1c-0.5-0.3-0.5-0.8,0-1.1l10.5-6.1c0.5-0.3,1.4-0.3,1.9,0l10.5,6.1
					c0.5,0.3,0.5,0.8,0,1.1l-10.5,6.1c-0.5,0.3-1.4,0.3-1.9,0L178.2,105.1z"/>
				<path id="XMLID_75_" class="st7" d="M178.3,105.1c-0.5-0.3-0.5-0.8,0-1.1l10.4-6c0.5-0.3,1.4-0.3,1.9,0l10.4,6
					c0.5,0.3,0.5,0.8,0,1.1l-10.4,6c-0.5,0.3-1.4,0.3-1.9,0L178.3,105.1z"/>
				<path id="XMLID_74_" class="st8" d="M178.4,105.1c-0.5-0.3-0.5-0.8,0-1.1l10.3-5.9c0.5-0.3,1.4-0.3,1.9,0l10.3,5.9
					c0.5,0.3,0.5,0.8,0,1.1l-10.3,5.9c-0.5,0.3-1.4,0.3-1.9,0L178.4,105.1z"/>
				<path id="XMLID_73_" class="st9" d="M178.5,105.1c-0.5-0.3-0.5-0.8,0-1.1l10.2-5.9c0.5-0.3,1.4-0.3,1.9,0l10.2,5.9
					c0.5,0.3,0.5,0.8,0,1.1l-10.2,5.9c-0.5,0.3-1.4,0.3-1.9,0L178.5,105.1z"/>
				<path id="XMLID_72_" class="st10" d="M178.6,105.1c-0.5-0.3-0.5-0.8,0-1.1l10.1-5.8c0.5-0.3,1.3-0.3,1.9,0l10.1,5.8
					c0.5,0.3,0.5,0.8,0,1.1l-10.1,5.8c-0.5,0.3-1.3,0.3-1.9,0L178.6,105.1z"/>
				<path id="XMLID_71_" class="st11" d="M178.7,105.1c-0.5-0.3-0.5-0.8,0-1.1l10-5.8c0.5-0.3,1.3-0.3,1.8,0l10,5.8
					c0.5,0.3,0.5,0.8,0,1.1l-10,5.8c-0.5,0.3-1.3,0.3-1.8,0L178.7,105.1z"/>
				<path id="XMLID_67_" class="st12" d="M178.8,105.1c-0.5-0.3-0.5-0.8,0-1l9.9-5.7c0.5-0.3,1.3-0.3,1.8,0l9.9,5.7
					c0.5,0.3,0.5,0.8,0,1l-9.9,5.7c-0.5,0.3-1.3,0.3-1.8,0L178.8,105.1z"/>
				<path id="XMLID_63_" class="st13" d="M178.9,105.1c-0.5-0.3-0.5-0.8,0-1l9.9-5.7c0.5-0.3,1.3-0.3,1.8,0l9.9,5.7
					c0.5,0.3,0.5,0.8,0,1l-9.9,5.7c-0.5,0.3-1.3,0.3-1.8,0L178.9,105.1z"/>
				<path id="XMLID_49_" class="st14" d="M179,105.1c-0.5-0.3-0.5-0.7,0-1l9.8-5.6c0.5-0.3,1.3-0.3,1.8,0l9.8,5.6
					c0.5,0.3,0.5,0.7,0,1l-9.8,5.6c-0.5,0.3-1.3,0.3-1.8,0L179,105.1z"/>
				<path id="XMLID_46_" class="st15" d="M179.1,105.1c-0.5-0.3-0.5-0.7,0-1l9.7-5.6c0.5-0.3,1.3-0.3,1.8,0l9.7,5.6
					c0.5,0.3,0.5,0.7,0,1l-9.7,5.6c-0.5,0.3-1.3,0.3-1.8,0L179.1,105.1z"/>
				<path id="XMLID_39_" class="st16" d="M179.1,105.1c-0.5-0.3-0.5-0.7,0-1l9.6-5.5c0.5-0.3,1.3-0.3,1.8,0l9.6,5.5
					c0.5,0.3,0.5,0.7,0,1l-9.6,5.5c-0.5,0.3-1.3,0.3-1.8,0L179.1,105.1z"/>
				<path id="XMLID_38_" class="st17" d="M179.2,105.1c-0.5-0.3-0.5-0.7,0-1l9.5-5.5c0.5-0.3,1.3-0.3,1.7,0l9.5,5.5
					c0.5,0.3,0.5,0.7,0,1l-9.5,5.5c-0.5,0.3-1.3,0.3-1.7,0L179.2,105.1z"/>
				<path id="XMLID_37_" class="st18" d="M179.3,105.1c-0.5-0.3-0.5-0.7,0-1l9.4-5.4c0.5-0.3,1.2-0.3,1.7,0l9.4,5.4
					c0.5,0.3,0.5,0.7,0,1l-9.4,5.4c-0.5,0.3-1.2,0.3-1.7,0L179.3,105.1z"/>
				<path id="XMLID_36_" class="st19" d="M179.4,105.1c-0.5-0.3-0.5-0.7,0-1l9.3-5.4c0.5-0.3,1.2-0.3,1.7,0l9.3,5.4
					c0.5,0.3,0.5,0.7,0,1l-9.3,5.4c-0.5,0.3-1.2,0.3-1.7,0L179.4,105.1z"/>
				<path id="XMLID_35_" class="st20" d="M179.5,105.1c-0.5-0.3-0.5-0.7,0-1l9.2-5.3c0.5-0.3,1.2-0.3,1.7,0l9.2,5.3
					c0.5,0.3,0.5,0.7,0,1l-9.2,5.3c-0.5,0.3-1.2,0.3-1.7,0L179.5,105.1z"/>
				<path id="XMLID_34_" class="st21" d="M179.6,105.1c-0.5-0.3-0.5-0.7,0-1l9.1-5.3c0.5-0.3,1.2-0.3,1.7,0l9.1,5.3
					c0.5,0.3,0.5,0.7,0,1l-9.1,5.3c-0.5,0.3-1.2,0.3-1.7,0L179.6,105.1z"/>
				<path id="XMLID_33_" class="st22" d="M179.7,105.1c-0.5-0.3-0.5-0.7,0-1l9.1-5.2c0.5-0.3,1.2-0.3,1.7,0l9.1,5.2
					c0.5,0.3,0.5,0.7,0,1l-9.1,5.2c-0.5,0.3-1.2,0.3-1.7,0L179.7,105.1z"/>
				<path id="XMLID_32_" class="st23" d="M179.8,105.1c-0.5-0.3-0.5-0.7,0-0.9l9-5.2c0.5-0.3,1.2-0.3,1.6,0l9,5.2
					c0.5,0.3,0.5,0.7,0,0.9l-9,5.2c-0.5,0.3-1.2,0.3-1.6,0L179.8,105.1z"/>
				<path id="XMLID_31_" class="st24" d="M179.9,105.1c-0.4-0.3-0.4-0.7,0-0.9l8.9-5.1c0.4-0.3,1.2-0.3,1.6,0l8.9,5.1
					c0.4,0.3,0.4,0.7,0,0.9l-8.9,5.1c-0.4,0.3-1.2,0.3-1.6,0L179.9,105.1z"/>
				<path id="XMLID_30_" class="st25" d="M180,105.1c-0.4-0.3-0.4-0.7,0-0.9l8.8-5.1c0.4-0.3,1.2-0.3,1.6,0l8.8,5.1
					c0.4,0.3,0.4,0.7,0,0.9l-8.8,5.1c-0.4,0.3-1.2,0.3-1.6,0L180,105.1z"/>
				<path id="XMLID_29_" class="st26" d="M180.1,105c-0.4-0.3-0.4-0.7,0-0.9l8.7-5c0.4-0.3,1.2-0.3,1.6,0l8.7,5
					c0.4,0.3,0.4,0.7,0,0.9l-8.7,5c-0.4,0.3-1.2,0.3-1.6,0L180.1,105z"/>
				<path id="XMLID_28_" class="st27" d="M180.2,105c-0.4-0.2-0.4-0.7,0-0.9l8.6-5c0.4-0.2,1.1-0.2,1.6,0l8.6,5
					c0.4,0.2,0.4,0.7,0,0.9l-8.6,5c-0.4,0.2-1.1,0.2-1.6,0L180.2,105z"/>
				<path id="XMLID_27_" class="st28" d="M180.3,105c-0.4-0.2-0.4-0.7,0-0.9l8.5-4.9c0.4-0.2,1.1-0.2,1.6,0l8.5,4.9
					c0.4,0.2,0.4,0.7,0,0.9l-8.5,4.9c-0.4,0.2-1.1,0.2-1.6,0L180.3,105z"/>
				<path id="XMLID_26_" class="st29" d="M180.4,105c-0.4-0.2-0.4-0.6,0-0.9l8.4-4.9c0.4-0.2,1.1-0.2,1.5,0l8.4,4.9
					c0.4,0.2,0.4,0.6,0,0.9l-8.4,4.9c-0.4,0.2-1.1,0.2-1.5,0L180.4,105z"/>
				<path id="XMLID_25_" class="st30" d="M180.5,105c-0.4-0.2-0.4-0.6,0-0.9l8.3-4.8c0.4-0.2,1.1-0.2,1.5,0l8.3,4.8
					c0.4,0.2,0.4,0.6,0,0.9l-8.3,4.8c-0.4,0.2-1.1,0.2-1.5,0L180.5,105z"/>
				<path id="XMLID_24_" class="st31" d="M180.6,105c-0.4-0.2-0.4-0.6,0-0.9l8.3-4.8c0.4-0.2,1.1-0.2,1.5,0l8.3,4.8
					c0.4,0.2,0.4,0.6,0,0.9l-8.3,4.8c-0.4,0.2-1.1,0.2-1.5,0L180.6,105z"/>
				<path id="XMLID_23_" class="st32" d="M180.7,105c-0.4-0.2-0.4-0.6,0-0.9l8.2-4.7c0.4-0.2,1.1-0.2,1.5,0l8.2,4.7
					c0.4,0.2,0.4,0.6,0,0.9l-8.2,4.7c-0.4,0.2-1.1,0.2-1.5,0L180.7,105z"/>
				<path id="XMLID_22_" class="st33" d="M180.8,105c-0.4-0.2-0.4-0.6,0-0.9l8.1-4.7c0.4-0.2,1.1-0.2,1.5,0l8.1,4.7
					c0.4,0.2,0.4,0.6,0,0.9l-8.1,4.7c-0.4,0.2-1.1,0.2-1.5,0L180.8,105z"/>
				<path id="XMLID_21_" class="st34" d="M180.9,105c-0.4-0.2-0.4-0.6,0-0.8l8-4.6c0.4-0.2,1.1-0.2,1.5,0l8,4.6
					c0.4,0.2,0.4,0.6,0,0.8l-8,4.6c-0.4,0.2-1.1,0.2-1.5,0L180.9,105z"/>
				<path id="XMLID_20_" class="st35" d="M181,105c-0.4-0.2-0.4-0.6,0-0.8l7.9-4.6c0.4-0.2,1-0.2,1.4,0l7.9,4.6
					c0.4,0.2,0.4,0.6,0,0.8l-7.9,4.6c-0.4,0.2-1,0.2-1.4,0L181,105z"/>
				<path id="XMLID_19_" class="st36" d="M181.1,105c-0.4-0.2-0.4-0.6,0-0.8l7.8-4.5c0.4-0.2,1-0.2,1.4,0l7.8,4.5
					c0.4,0.2,0.4,0.6,0,0.8l-7.8,4.5c-0.4,0.2-1,0.2-1.4,0L181.1,105z"/>
				<path id="XMLID_18_" class="st37" d="M181.2,105c-0.4-0.2-0.4-0.6,0-0.8l7.7-4.5c0.4-0.2,1-0.2,1.4,0l7.7,4.5
					c0.4,0.2,0.4,0.6,0,0.8l-7.7,4.5c-0.4,0.2-1,0.2-1.4,0L181.2,105z"/>
				<path id="XMLID_17_" class="st38" d="M181.3,105c-0.4-0.2-0.4-0.6,0-0.8l7.6-4.4c0.4-0.2,1-0.2,1.4,0l7.6,4.4
					c0.4,0.2,0.4,0.6,0,0.8l-7.6,4.4c-0.4,0.2-1,0.2-1.4,0L181.3,105z"/>
				<path id="XMLID_16_" class="st39" d="M181.4,105c-0.4-0.2-0.4-0.6,0-0.8l7.5-4.4c0.4-0.2,1-0.2,1.4,0l7.5,4.4
					c0.4,0.2,0.4,0.6,0,0.8l-7.5,4.4c-0.4,0.2-1,0.2-1.4,0L181.4,105z"/>
				<path id="XMLID_15_" class="st40" d="M181.5,105c-0.4-0.2-0.4-0.6,0-0.8l7.4-4.3c0.4-0.2,1-0.2,1.4,0l7.4,4.3
					c0.4,0.2,0.4,0.6,0,0.8l-7.4,4.3c-0.4,0.2-1,0.2-1.4,0L181.5,105z"/>
				<path id="XMLID_14_" class="st41" d="M181.6,105c-0.4-0.2-0.4-0.6,0-0.8l7.4-4.2c0.4-0.2,1-0.2,1.3,0l7.4,4.2
					c0.4,0.2,0.4,0.6,0,0.8l-7.4,4.2c-0.4,0.2-1,0.2-1.3,0L181.6,105z"/>
				<path id="XMLID_12_" class="st42" d="M181.7,105c-0.4-0.2-0.4-0.6,0-0.8l7.3-4.2c0.4-0.2,1-0.2,1.3,0l7.3,4.2
					c0.4,0.2,0.4,0.6,0,0.8l-7.3,4.2c-0.4,0.2-1,0.2-1.3,0L181.7,105z"/>
				<path id="XMLID_9_" class="st43" d="M181.8,105c-0.4-0.2-0.4-0.5,0-0.8l7.2-4.1c0.4-0.2,1-0.2,1.3,0l7.2,4.1
					c0.4,0.2,0.4,0.5,0,0.8l-7.2,4.1c-0.4,0.2-1,0.2-1.3,0L181.8,105z"/>
				<path id="XMLID_7_" class="st44" d="M181.9,105c-0.4-0.2-0.4-0.5,0-0.7l7.1-4.1c0.4-0.2,0.9-0.2,1.3,0l7.1,4.1
					c0.4,0.2,0.4,0.5,0,0.7l-7.1,4.1c-0.4,0.2-0.9,0.2-1.3,0L181.9,105z"/>
				<path id="XMLID_6_" class="st45" d="M182,105c-0.4-0.2-0.4-0.5,0-0.7l7-4c0.4-0.2,0.9-0.2,1.3,0l7,4c0.4,0.2,0.4,0.5,0,0.7l-7,4
					c-0.4,0.2-0.9,0.2-1.3,0L182,105z"/>
				<path id="XMLID_1142_" class="st1" d="M182.1,105c-0.3-0.2-0.3-0.5,0-0.7l6.9-4c0.3-0.2,0.9-0.2,1.3,0l6.9,4
					c0.3,0.2,0.3,0.5,0,0.7l-6.9,4c-0.3,0.2-0.9,0.2-1.3,0L182.1,105z"/>
			</g>
			<polygon id="XMLID_1141_" class="st149" points="189.7,89 180.8,94.2 189.7,99.4 189.7,89 			"/>
			<polygon id="XMLID_1140_" class="st58" points="189.7,89 189.7,99.4 198.7,94.2 			"/>
			<polygon id="XMLID_1139_" class="st58" points="180.8,94.2 180.8,104.5 189.7,109.7 189.7,99.4 			"/>
			<polygon id="XMLID_1138_" class="st149" points="189.7,109.7 198.7,104.5 198.7,94.2 189.7,99.4 			"/>
			<polygon id="XMLID_1137_" class="st150" points="180.8,94.2 177.5,90.1 186.5,85 189.7,89 			"/>
			<polygon id="XMLID_1136_" class="st150" points="198.7,94.2 202,90.1 193,85 189.7,89 			"/>
			<polygon id="XMLID_1135_" class="st131" points="198.7,98.8 198.7,94.7 189.7,99.4 192.1,102.7 			"/>
			<polygon id="XMLID_1134_" class="st150" points="189.8,99.4 192.5,101.9 201.4,96.8 198.7,94.2 			"/>
			<polygon id="XMLID_1128_" class="st131" points="180.8,94.7 180.8,98.9 187.4,102.7 189.7,99.4 189.7,99.4 180.8,94.7 			"/>
			<polygon id="XMLID_1127_" class="st150" points="189.7,99.4 187,101.9 178.1,96.8 180.8,94.2 			"/>
		</g>
		<g>
			
				<radialGradient id="XMLID_309_" cx="189.7139" cy="7714.8447" r="6.8638" gradientTransform="matrix(1 0 0 0.5172 0 -3893.1953)" gradientUnits="userSpaceOnUse">
				<stop  offset="0" style="stop-color:#3C5185"/>
				<stop  offset="0.1129" style="stop-color:#596B97"/>
				<stop  offset="0.4059" style="stop-color:#A0AAC3"/>
				<stop  offset="0.6504" style="stop-color:#D3D8E4"/>
				<stop  offset="0.8339" style="stop-color:#F3F4F8"/>
				<stop  offset="0.9354" style="stop-color:#FFFFFF"/>
			</radialGradient>
			<path id="XMLID_782_" class="st151" d="M184.9,93.8c2.6-1.5,7-1.5,9.6,0c2.6,1.5,2.6,4,0,5.6c-2.6,1.5-7,1.5-9.6,0
				C182.3,97.8,182.3,95.3,184.9,93.8z"/>
			<g id="XMLID_774_">
				<path id="XMLID_781_" class="st1" d="M191.1,93.1l-0.3,0.2h-2.4l-0.3-0.2c-0.8-0.7-1.2-1.7-1.2-2.7v-1h5.5v0.9
					C192.5,91.4,192,92.4,191.1,93.1z"/>
				<path id="XMLID_780_" class="st1" d="M190.1,94.1h-0.9c-0.4,0-0.8-0.4-0.8-0.8l0,0h2.5l0,0C190.9,93.7,190.5,94.1,190.1,94.1z"
					/>
				<path id="XMLID_779_" class="st152" d="M191.6,88.2c-1.1-0.6-2.8-0.6-3.9,0c-1.1,0.6-1.1,1.6,0,2.2c1.1,0.6,2.8,0.6,3.9,0
					C192.7,89.8,192.7,88.8,191.6,88.2z"/>
				<linearGradient id="XMLID_310_" gradientUnits="userSpaceOnUse" x1="184.7352" y1="84.9988" x2="194.7202" y2="84.9988">
					<stop  offset="2.123250e-002" style="stop-color:#FFC107"/>
					<stop  offset="0.1431" style="stop-color:#FFBC06"/>
					<stop  offset="1" style="stop-color:#FF9800"/>
				</linearGradient>
				<path id="XMLID_778_" class="st153" d="M189.7,79.1c-2.8,0-5,2.2-5,5c0,1.7,0.9,3.3,2.3,4.2v1.1l0,0c0,0.4,0.3,0.8,0.8,1.1
					c1.1,0.6,2.8,0.6,3.8,0c0.5-0.3,0.8-0.7,0.8-1.1h0v-1.1c1.4-0.9,2.3-2.4,2.3-4.2C194.7,81.3,192.5,79.1,189.7,79.1z"/>
				<path id="XMLID_777_" class="st53" d="M186.9,84.6c0-1.8,1.5-3.3,3.3-3.3c1.7,0,1.5-1.4-0.6-1.4c-2.1,0-3.9,1.7-3.9,3.9
					C185.8,85.2,186.9,85.8,186.9,84.6z"/>
				<path id="XMLID_776_" class="st154" d="M191.7,90.9c-1.1,0.6-2.8,0.6-3.8,0c-0.5-0.3-0.8-0.7-0.8-1.1v0.4c0,0.4,0.3,0.8,0.8,1.1
					c1.1,0.6,2.8,0.6,3.8,0c0.5-0.3,0.8-0.7,0.8-1.1h0v-0.4h0C192.4,90.2,192.2,90.6,191.7,90.9z"/>
				<path id="XMLID_775_" class="st154" d="M191.6,92c-1.1,0.6-2.8,0.6-3.8,0c-0.3-0.2-0.5-0.4-0.7-0.6c0.1,0.2,0.2,0.5,0.3,0.7
					c0.1,0.1,0.2,0.2,0.4,0.3c1.1,0.6,2.8,0.6,3.8,0c0.1-0.1,0.2-0.1,0.3-0.2c0.1-0.2,0.3-0.5,0.3-0.8
					C192.2,91.6,191.9,91.8,191.6,92z"/>
				<linearGradient id="SVGID_1_" gradientUnits="userSpaceOnUse" x1="181.5146" y1="78.1924" x2="197.9947" y2="78.1924">
					<stop  offset="2.123250e-002" style="stop-color:#FFC107"/>
					<stop  offset="0.1431" style="stop-color:#FFBC06"/>
					<stop  offset="1" style="stop-color:#FF9800"/>
				</linearGradient>
				<path class="st155" d="M189.7,78.7C189.7,78.7,189.7,78.7,189.7,78.7c-0.2,0-0.4-0.2-0.4-0.4l0-3.1c0-0.2,0.2-0.4,0.4-0.4
					c0,0,0,0,0,0c0.2,0,0.4,0.2,0.4,0.4l0,3.1C190.1,78.5,189.9,78.7,189.7,78.7z M193,79.3l1.6-2.7c0.1-0.2,0-0.4-0.1-0.6
					c-0.2-0.1-0.4,0-0.6,0.1l-1.6,2.7c-0.1,0.2,0,0.4,0.1,0.6c0.1,0,0.1,0.1,0.2,0.1C192.8,79.5,193,79.4,193,79.3z M195.1,81.6
					l2.7-1.5c0.2-0.1,0.3-0.4,0.2-0.6c-0.1-0.2-0.4-0.3-0.6-0.2l-2.7,1.5c-0.2,0.1-0.3,0.4-0.2,0.6c0.1,0.1,0.2,0.2,0.4,0.2
					C194.9,81.6,195,81.6,195.1,81.6z M184.9,81.4c0.1-0.2,0.1-0.4-0.1-0.6l-2.7-1.6c-0.2-0.1-0.4-0.1-0.6,0.1
					c-0.1,0.2-0.1,0.4,0.1,0.6l2.7,1.6c0.1,0,0.1,0.1,0.2,0.1C184.7,81.6,184.9,81.5,184.9,81.4z M187,79.4c0.2-0.1,0.3-0.4,0.2-0.6
					l-1.5-2.7c-0.1-0.2-0.4-0.3-0.6-0.2c-0.2,0.1-0.3,0.4-0.2,0.6l1.5,2.7c0.1,0.1,0.2,0.2,0.4,0.2C186.9,79.4,186.9,79.4,187,79.4z
					"/>
			</g>
		</g>
	</g>
</g>
</svg>
