<?xml version="1.0" encoding="utf-8"?>
<!-- Generator: Adobe Illustrator 19.0.0, SVG Export Plug-In . SVG Version: 6.00 Build 0)  -->
<svg version="1.1" id="Layer_1" xmlns="http://www.w3.org/2000/svg" xmlns:xlink="http://www.w3.org/1999/xlink" x="0px" y="0px"
	 viewBox="0 0 256 256" style="enable-background:new 0 0 256 256;" xml:space="preserve">
<style type="text/css">
	.st0{fill:url(#XMLID_9_);}
	.st1{fill:url(#XMLID_10_);}
	.st2{fill:url(#XMLID_11_);}
	.st3{fill:#FFFFFF;}
	.st4{fill:#FFDA6A;}
	.st5{fill:url(#XMLID_12_);}
	.st6{fill:url(#XMLID_13_);}
	.st7{fill:url(#XMLID_15_);}
	.st8{fill:url(#XMLID_16_);}
	.st9{fill:#FFCD39;}
	.st10{fill:url(#XMLID_20_);}
	.st11{fill:#A5CBEF;}
	.st12{fill:#3C5185;}
	.st13{fill:#363650;}
	.st14{fill:url(#XMLID_82_);}
	.st15{fill:url(#XMLID_83_);}
	.st16{fill:#F6F8FB;}
	.st17{fill:#E5E9F4;}
	.st18{fill:#EDF3FA;}
	.st19{opacity:0.15;fill:#FFFFFF;}
	.st20{fill:#F2B1B5;}
	.st21{fill:url(#XMLID_84_);}
	.st22{opacity:0.33;fill:#3C5185;}
	.st23{fill:url(#XMLID_85_);}
	.st24{fill:url(#XMLID_86_);}
	.st25{fill:#4A65A3;}
	.st26{fill:url(#XMLID_87_);}
	.st27{fill:url(#XMLID_88_);}
	.st28{fill:url(#XMLID_89_);}
	.st29{fill:url(#XMLID_90_);}
	.st30{fill:url(#XMLID_91_);}
	.st31{fill:url(#XMLID_92_);}
	.st32{fill:url(#XMLID_93_);}
	.st33{fill:url(#XMLID_94_);}
	.st34{fill:url(#XMLID_95_);}
	.st35{fill:url(#XMLID_96_);}
	.st36{fill:#48486A;}
	.st37{fill:url(#XMLID_97_);}
	.st38{opacity:0.3;fill:#B7D5F2;}
	.st39{fill:#B7D5F2;}
	.st40{fill:url(#XMLID_98_);}
	.st41{fill:#2D3D64;}
	.st42{opacity:0.1;fill:#05105D;}
	.st43{fill:url(#XMLID_99_);}
	.st44{opacity:0.3;fill:#2D3D64;}
	.st45{fill:url(#XMLID_100_);}
	.st46{fill:url(#XMLID_102_);}
	.st47{fill:url(#XMLID_103_);}
	.st48{fill:url(#XMLID_104_);}
	.st49{fill:url(#XMLID_105_);}
	.st50{fill:#5D7DBE;}
	.st51{fill:url(#XMLID_106_);}
	.st52{fill:url(#XMLID_107_);}
	.st53{fill:url(#XMLID_108_);}
	.st54{fill:url(#XMLID_109_);}
	.st55{fill:url(#XMLID_110_);}
	.st56{opacity:0.25;fill:#5D7DBE;}
	.st57{fill:url(#XMLID_111_);}
	.st58{fill:url(#XMLID_112_);}
	.st59{fill:#FEC55E;}
	.st60{opacity:0.3;fill:#EF9EA3;}
	.st61{fill:url(#XMLID_113_);}
	.st62{opacity:0.15;fill:#EF9EA3;}
	.st63{fill:#D1E1F2;}
	.st64{fill:url(#XMLID_114_);}
	.st65{opacity:0.15;fill:#7EA7DF;}
	.st66{opacity:0.33;fill:#7EA7DF;}
</style>
<g>
	<linearGradient id="XMLID_9_" gradientUnits="userSpaceOnUse" x1="69.0983" y1="218.9066" x2="198.4541" y2="48.3921">
		<stop  offset="0.1" style="stop-color:#FFFFFF"/>
		<stop  offset="0.4303" style="stop-color:#F8FBFD"/>
		<stop  offset="0.8932" style="stop-color:#E6EEF8"/>
		<stop  offset="1" style="stop-color:#E1EBF7"/>
	</linearGradient>
	<path id="XMLID_72_" class="st0" d="M211.1,141.2c0,42.4-41.9,72.4-84.4,72.4s-81.9-29.9-81.9-72.4s59.4-94.9,101.9-94.9
		S211.1,98.7,211.1,141.2z"/>
	<g>
		
			<radialGradient id="XMLID_10_" cx="124.559" cy="7867.8345" r="58.9926" gradientTransform="matrix(1 0 0 0.5172 0 -3892.8164)" gradientUnits="userSpaceOnUse">
			<stop  offset="9.125480e-002" style="stop-color:#48486A"/>
			<stop  offset="0.1179" style="stop-color:#505070"/>
			<stop  offset="0.3508" style="stop-color:#8D8DA3"/>
			<stop  offset="0.5638" style="stop-color:#BEBECA"/>
			<stop  offset="0.7497" style="stop-color:#E2E2E7"/>
			<stop  offset="0.9014" style="stop-color:#F7F7F9"/>
			<stop  offset="1" style="stop-color:#FFFFFF"/>
		</radialGradient>
		<path id="XMLID_961_" class="st1" d="M83.2,152.6c22.7-13.1,59.9-13.1,82.6,0c22.7,13.1,22.7,34.6,0,47.7
			c-22.7,13.1-59.9,13.1-82.6,0C60.5,187.2,60.5,165.7,83.2,152.6z"/>
		<linearGradient id="XMLID_11_" gradientUnits="userSpaceOnUse" x1="78.8097" y1="172.4413" x2="169.3085" y2="172.4413">
			<stop  offset="3.802050e-003" style="stop-color:#A5CBEF"/>
			<stop  offset="0.4419" style="stop-color:#CEE3F6"/>
			<stop  offset="1" style="stop-color:#FFFFFF"/>
		</linearGradient>
		<path id="XMLID_960_" class="st2" d="M169.3,160.4h-5.1c-2.1-2.3-4.8-4.5-8.1-6.4c-17.6-10.2-46.5-10.2-64.1,0
			c-3.4,1.9-6.1,4.1-8.1,6.4h-5.1v12h0c0,6.7,4.4,13.5,13.2,18.6c17.6,10.2,46.5,10.2,64.1,0c8.9-5.1,13.3-11.9,13.2-18.6h0V160.4z"
			/>
		<path id="XMLID_959_" class="st3" d="M92,141.9c17.6-10.2,46.5-10.2,64.1,0c17.6,10.2,17.6,26.8,0,37c-17.6,10.2-46.5,10.2-64.1,0
			C74.4,168.7,74.4,152.1,92,141.9z"/>
		<path id="XMLID_958_" class="st4" d="M169.3,160.6c0-0.2,0-0.3,0-0.5v-9.9h-3.5c-2.2-3-5.4-5.9-9.7-8.3c-12.4-7.2-4.1,20.3,0,37
			v12.1c8.6-5,13-11.5,13.2-18.1L169.3,160.6z"/>
		<linearGradient id="XMLID_12_" gradientUnits="userSpaceOnUse" x1="134.6235" y1="108.002" x2="112.9146" y2="135.9135">
			<stop  offset="0" style="stop-color:#3C5185"/>
			<stop  offset="1" style="stop-color:#7EA7DF"/>
		</linearGradient>
		<path id="XMLID_957_" class="st5" d="M156.1,121.6c-17.6-10.2-46.5-10.2-64.1,0l32,21.9L156.1,121.6z"/>
		<linearGradient id="XMLID_13_" gradientUnits="userSpaceOnUse" x1="103.085" y1="148.4305" x2="113.6292" y2="136.1806">
			<stop  offset="0" style="stop-color:#7EA7DF"/>
			<stop  offset="1" style="stop-color:#3C5185"/>
		</linearGradient>
		<polygon id="XMLID_956_" class="st6" points="92,121.6 92,141.9 124.1,163.8 124.1,143.5 		"/>
		<linearGradient id="XMLID_15_" gradientUnits="userSpaceOnUse" x1="124.0589" y1="142.6724" x2="156.0939" y2="142.6724">
			<stop  offset="0" style="stop-color:#7EA7DF"/>
			<stop  offset="1" style="stop-color:#3C5185"/>
		</linearGradient>
		<polygon id="XMLID_953_" class="st7" points="124.1,143.5 156.1,121.6 156.1,141.9 124.1,163.8 		"/>
		<linearGradient id="XMLID_16_" gradientUnits="userSpaceOnUse" x1="124.0589" y1="150.2289" x2="169.3085" y2="150.2289">
			<stop  offset="0.1499" style="stop-color:#FF9800"/>
			<stop  offset="1" style="stop-color:#FFC107"/>
		</linearGradient>
		<path id="XMLID_952_" class="st8" d="M156.1,131.7c17.6,10.2,17.6,26.8,0,37l-32-15.1L156.1,131.7z"/>
		<polygon id="XMLID_950_" class="st9" points="124.1,153.6 124.1,163.8 156.1,178.9 156.1,168.7 		"/>
	</g>
	<g id="XMLID_898_">
		<linearGradient id="XMLID_20_" gradientUnits="userSpaceOnUse" x1="153.6104" y1="154.338" x2="163.3461" y2="154.338">
			<stop  offset="0" style="stop-color:#5D7DBE"/>
			<stop  offset="0.3052" style="stop-color:#5573B1"/>
			<stop  offset="0.872" style="stop-color:#41588E"/>
			<stop  offset="1" style="stop-color:#3C5185"/>
		</linearGradient>
		<circle id="XMLID_944_" class="st10" cx="158.5" cy="154.3" r="4.9"/>
		<path id="XMLID_943_" class="st11" d="M170.7,175.2v1.5c0,0.4,0.2,0.8,0.6,1l4.7,2.9c0.5,0.3,1.1,0.3,1.6,0l1.4-0.8
			c0.3-0.2,0.5-0.5,0.5-0.8l0-0.9c0,0-0.2,0.1-0.5-0.1l-3.1-1.9v-1H170.7z"/>
		<path id="XMLID_942_" class="st12" d="M170.7,174.4v1.5c0,0.4,0.2,0.8,0.6,1l4.7,2.9c0.5,0.3,1.1,0.3,1.6,0l1.4-0.8
			c0.6-0.4,0.6-1.3,0-1.7l-3.1-1.9v-1H170.7z"/>
		<g id="XMLID_940_">
			<polygon id="XMLID_941_" class="st12" points="173.9,177.3 173.9,177 175.6,176 175.7,176.2 			"/>
		</g>
		<g id="XMLID_938_">
			<polygon id="XMLID_939_" class="st12" points="174.5,177.9 174.5,177.6 176.3,176.6 176.3,176.8 			"/>
		</g>
		<g id="XMLID_936_">
			<polygon id="XMLID_937_" class="st12" points="175.4,178.5 175.4,178.2 177.2,177.2 177.2,177.5 			"/>
		</g>
		<path id="XMLID_935_" class="st12" d="M171.5,175.4c-1-0.6-1-1.5,0-2.1c1-0.6,2.6-0.6,3.6,0c1,0.6,1,1.5,0,2.1
			C174.1,176,172.5,176,171.5,175.4z"/>
		<path id="XMLID_934_" class="st13" d="M172.1,175c-0.7-0.4-0.7-1,0-1.4c0.7-0.4,1.7-0.4,2.4,0c0.7,0.4,0.7,1,0,1.4
			C173.8,175.4,172.7,175.4,172.1,175z"/>
		<path id="XMLID_933_" class="st11" d="M166,178v1.5c0,0.4,0.2,0.8,0.6,1l4.7,2.9c0.5,0.3,1.1,0.3,1.6,0l1.4-0.8
			c0.3-0.2,0.5-0.5,0.5-0.8l0-0.9c0,0-0.2,0.1-0.5-0.1l-3.1-1.9v-1H166z"/>
		<path id="XMLID_932_" class="st12" d="M166,177.2v1.5c0,0.4,0.2,0.8,0.6,1l4.7,2.9c0.5,0.3,1.1,0.3,1.6,0l1.4-0.8
			c0.6-0.4,0.6-1.3,0-1.7l-3.1-1.9v-1H166z"/>
		<g id="XMLID_930_">
			<polygon id="XMLID_931_" class="st12" points="169.1,180.1 169.1,179.8 170.9,178.8 170.9,179.1 			"/>
		</g>
		<g id="XMLID_928_">
			<polygon id="XMLID_929_" class="st12" points="169.8,180.7 169.8,180.4 171.6,179.4 171.6,179.7 			"/>
		</g>
		<g id="XMLID_926_">
			<polygon id="XMLID_927_" class="st12" points="170.7,181.4 170.7,181.1 172.5,180 172.5,180.3 			"/>
		</g>
		<path id="XMLID_925_" class="st12" d="M166.7,178.2c-1-0.6-1-1.5,0-2.1c1-0.6,2.6-0.6,3.6,0c1,0.6,1,1.5,0,2.1
			C169.3,178.8,167.7,178.8,166.7,178.2z"/>
		<path id="XMLID_924_" class="st13" d="M167.3,177.9c-0.7-0.4-0.7-1,0-1.4c0.7-0.4,1.7-0.4,2.4,0c0.7,0.4,0.7,1,0,1.4
			C169.1,178.3,168,178.3,167.3,177.9z"/>
		<g id="XMLID_922_">
			<linearGradient id="XMLID_82_" gradientUnits="userSpaceOnUse" x1="158.8315" y1="161.6327" x2="175.2974" y2="161.6327">
				<stop  offset="0" style="stop-color:#5D7DBE"/>
				<stop  offset="0.3052" style="stop-color:#5573B1"/>
				<stop  offset="0.872" style="stop-color:#41588E"/>
				<stop  offset="1" style="stop-color:#3C5185"/>
			</linearGradient>
			<path id="XMLID_923_" class="st14" d="M173.2,175.4c-1.1,0-2.1,0.1-2.1-1v-10.9c0-1.9-1-3.6-2.6-4.5l-7.8-4.1
				c-1.6-0.9-2-2.6-2-4.5v-0.4c0-1.1,0.9-2.1,2.1-2.1c1.1,0,2.1,0.9,2.1,2.1v0.4c0,0.4,0.2,0.7,0.5,0.9l7.1,4.1
				c2.9,1.7,4.7,4.8,4.7,8.1v10.9C175.3,175.5,174.4,175.4,173.2,175.4z"/>
		</g>
		<g id="XMLID_920_">
			<linearGradient id="XMLID_83_" gradientUnits="userSpaceOnUse" x1="154.0921" y1="164.321" x2="170.5578" y2="164.321">
				<stop  offset="0" style="stop-color:#5D7DBE"/>
				<stop  offset="0.3052" style="stop-color:#5573B1"/>
				<stop  offset="0.872" style="stop-color:#41588E"/>
				<stop  offset="1" style="stop-color:#3C5185"/>
			</linearGradient>
			<path id="XMLID_921_" class="st15" d="M168.5,178.1c-1.1,0-2.1,0.1-2.1-1.1v-10.9c0-1.9-1-3.6-2.6-4.5l-8-3.7
				c-1.6-0.9-1.7-3-1.7-4.9v-0.4c0-1.1,0.9-2.1,2.1-2.1c1.1,0,2.1,0.9,2.1,2.1v0.4c0,0.4,0.2,0.7,0.5,0.9l7.1,4.1
				c2.9,1.7,4.7,3.8,4.7,7.1v11.9C170.6,178.2,169.7,178.1,168.5,178.1z"/>
		</g>
		<g id="XMLID_917_">
			<path id="XMLID_919_" class="st16" d="M162.2,160.7l-5.5-2.5c-0.5-0.3-0.5-1,0-1.4l8.4-4.9l6.2,3.7L162.2,160.7z"/>
			<path id="XMLID_918_" class="st17" d="M163,160.2l-4.8-2.2c-0.5-0.3-0.5-0.9,0-1.2l7.7-4.5l5.4,3.2L163,160.2z"/>
		</g>
		<g id="XMLID_915_">
			<path id="XMLID_916_" class="st18" d="M165.5,155.4c-0.7,0-1.2-0.6-1.2-1.2v-4.8c0-2.9-0.4-4.2-1.2-7l-1.4-5.1
				c-0.2-0.7,0.2-1.3,0.9-1.5c0.7-0.2,1.3,0.2,1.5,0.9l1.4,5.1c0.8,3,1.3,4.6,1.3,7.7v4.8C166.8,154.8,166.2,155.4,165.5,155.4z"/>
		</g>
		<path id="XMLID_914_" class="st18" d="M158.9,133l-1,0.6c-3.4,1.9-4.8,3.1-5.3,7c-0.6,4.4,0.6,16,0.6,16c5.1-0.3,10-6.6,10-6.6
			c-0.9-5.7,0.9-8.6,1-12.5C164.2,135.5,161.4,131.6,158.9,133z"/>
		<path id="XMLID_71_" class="st19" d="M164.2,137.5c0-2-2.8-6-5.3-4.5l-1,0.6c-1.1,0.6-2,1.4-2.8,2.2c0.8-0.7,1.6-1.4,2.5-1.9
			l1-0.6c2.4-1.4,5.3,2.5,5.3,4.5c0,3.8-1.9,6.7-1,12.5c0.2-0.2,0.3-0.3,0.3-0.3C162.3,144.3,164.2,141.4,164.2,137.5z"/>
		<path id="XMLID_913_" class="st20" d="M158.8,136.4h-0.5c-0.5,0-0.9-0.4-0.9-0.9v-2.9h2.3v2.9C159.7,136,159.2,136.4,158.8,136.4z
			"/>
		<polygon id="XMLID_912_" class="st3" points="157.3,133.7 156.7,134 157.6,139.5 159,136.3 		"/>
		<polygon id="XMLID_911_" class="st3" points="159,136.3 159.7,132.8 160,132.8 161.3,137.4 		"/>
		<g id="XMLID_909_">
			<path id="XMLID_910_" class="st20" d="M161,159c-0.4,0-0.7-0.2-1-0.5l-3.7-4.8c-2-2.6-3-5.8-2.9-9.1l0.3-4.6
				c0-0.7,0.6-1.2,1.3-1.2c0.7,0,1.2,0.6,1.2,1.3l-0.3,4.6c-0.1,2.7,0.7,5.3,2.4,7.5l3.7,4.8c0.4,0.5,0.3,1.3-0.2,1.7
				C161.6,158.9,161.3,159,161,159z"/>
		</g>
		<path id="XMLID_908_" class="st20" d="M162,156.5l-3.8-1.4c-0.2-0.1-0.3-0.3-0.2-0.4l0.1-0.3c0.1-0.2,0.3-0.3,0.4-0.2l3.8,1.4
			c0.2,0.1,0.3,0.3,0.2,0.4l-0.1,0.3C162.3,156.5,162.2,156.6,162,156.5z"/>
		<g id="XMLID_904_">
			<linearGradient id="XMLID_84_" gradientUnits="userSpaceOnUse" x1="161.6582" y1="154.6614" x2="172.4946" y2="154.6614">
				<stop  offset="0" style="stop-color:#D3DAED"/>
				<stop  offset="1" style="stop-color:#99A7D8"/>
			</linearGradient>
			<path id="XMLID_907_" class="st21" d="M172.5,148.5l-0.1,0c-0.1,0-0.2,0-0.3,0l-9.1,5.2c-0.2,0.1-0.4,0.4-0.4,0.7l-0.8,6.3
				c0,0.1,0,0.1,0.1,0.1l0.1,0.1l9.4-5.5c0.2-0.1,0.4-0.4,0.4-0.7L172.5,148.5z"/>
			<path id="XMLID_906_" class="st16" d="M172.6,148.7c0-0.2-0.2-0.3-0.4-0.2l-9.2,5.3c-0.2,0.1-0.4,0.4-0.4,0.7l-0.9,6.1
				c0,0.2,0.2,0.3,0.4,0.2l9.3-5.3c0.2-0.1,0.4-0.4,0.4-0.7L172.6,148.7z"/>
			<path id="XMLID_905_" class="st17" d="M168,154.2c-0.4,0.1-0.8,0.6-0.9,1.1c-0.1,0.4,0.1,0.7,0.5,0.6c0.4-0.1,0.8-0.6,0.9-1.1
				C168.6,154.3,168.4,154,168,154.2z"/>
		</g>
		<path id="XMLID_903_" class="st22" d="M157.6,149.2c-0.8-1.4-1.5-3.1-1.5-4.3c0,0-0.1-4.7-0.9-4.7c-0.8,0-1.2-0.9-1.2-0.1
			l-0.3,4.6c-0.2,3.3,0.9,6.6,2.9,9.2l0.8,1.4c1.1-0.5,2.1-1.6,2.9-2.2C159.5,152,158.3,150.4,157.6,149.2z"/>
		<g id="XMLID_901_">
			<path id="XMLID_902_" class="st18" d="M159.8,153.9l-1.2-1.7c0,0-2.5-4.8-2.4-7.4l0.3-4.6c0-0.8-0.6-1.5-1.4-1.5
				c-0.8,0-1.5,0.6-1.5,1.4l-0.3,4.6c-0.2,3.3,0.9,6.6,2.9,9.2l1.6,1.9L159.8,153.9z"/>
		</g>
		<path id="XMLID_900_" class="st20" d="M157.7,133.1l-0.3-0.1c-0.8-0.2-1.4-2.8-1.2-3.6l0.8-3.9l6.5,1.3l-1.1,5.5
			C161.8,134.6,160.1,133.5,157.7,133.1z"/>
		<g id="XMLID_899_">
			<path id="XMLID_23_" class="st12" d="M163.7,126.6c-0.1-0.5-0.5-1-0.9-1.4c-1.3-1.1-4.3-2.3-5.6-0.6c-0.4-0.5-1.1-0.4-1.6-0.1
				c-0.5,0.4-0.7,0.9-0.8,1.5c-0.2,0.7-0.4,1.3-0.2,2c0.3,1.2,0.8,2.3,1.4,3.4c0.1,0.2,0.5,0.9,0.7,0.5c0.4-0.8-0.8-1.8-0.1-2.4
				c0.3-0.3,0.8-0.2,1,0.1c0.2,0.2,0.3,0.6,0.5,0.8c0.2,0.1,0.4,0.2,0.7,0.1c0,0,0.1,0,0.1-0.1c0,0,0-0.1,0-0.1
				c-0.2-0.6-0.3-1.3-0.2-1.9c0-0.2,0.1-0.4,0.2-0.5c0.1-0.1,0.2-0.1,0.3-0.1c0.3-0.1,0.7-0.2,1-0.2c0.4,0,0.7,0.2,1.1,0.4
				c0.4,0.1,0.8,0.1,1-0.2c0.1-0.1,0.1-0.2,0.2-0.3c0.1-0.1,0.3,0,0.4,0.1c0.2,0.1,0.3,0.3,0.5,0.2
				C163.9,127.5,163.7,126.8,163.7,126.6z"/>
		</g>
		<g id="XMLID_70_">
			<path id="XMLID_74_" class="st12" d="M162.3,131.5c-0.1-0.3-0.2-0.6-0.5-0.7c-0.2-0.1-0.4-0.1-0.6-0.1c-0.3,0-0.6,0-0.8,0.2
				c-0.3,0.1-0.4,0.3-0.6,0.5c-0.1,0.2-0.1,0.6-0.2,0.7c-0.9-0.3-0.3-1.4-0.6-2.1c-0.1-0.2-0.3-0.4-0.5-0.5
				c-0.9-0.2-0.4,1.2-0.6,1.6c-0.2,0.4-0.6,0.8-0.6,1.2c0,0.6,0.7,1,1.1,1.3c0.5,0.3,0.9,0.9,1.5,0.9c0.3,0,0.6-0.1,0.8-0.2
				c0.5-0.2,1.1-0.3,1.5-0.8c0.3-0.5,0.3-1.1,0.2-1.7C162.4,131.7,162.4,131.6,162.3,131.5z"/>
		</g>
	</g>
	<g>
		
			<radialGradient id="XMLID_85_" cx="180.4798" cy="7793.9243" r="8.1965" gradientTransform="matrix(1 0 0 0.5172 0 -3892.8164)" gradientUnits="userSpaceOnUse">
			<stop  offset="9.125480e-002" style="stop-color:#3C5185"/>
			<stop  offset="0.2537" style="stop-color:#6F7FA5"/>
			<stop  offset="0.4365" style="stop-color:#A2ACC5"/>
			<stop  offset="0.6088" style="stop-color:#CAD0DE"/>
			<stop  offset="0.7654" style="stop-color:#E7EAF0"/>
			<stop  offset="0.9009" style="stop-color:#F9F9FB"/>
			<stop  offset="1" style="stop-color:#FFFFFF"/>
		</radialGradient>
		<path id="XMLID_894_" class="st23" d="M174.7,134.9c3.2-1.8,8.3-1.8,11.5,0c3.2,1.8,3.2,4.8,0,6.6c-3.2,1.8-8.3,1.8-11.5,0
			C171.6,139.7,171.6,136.7,174.7,134.9z"/>
		<linearGradient id="XMLID_86_" gradientUnits="userSpaceOnUse" x1="174.5706" y1="137.9571" x2="186.1756" y2="137.9571">
			<stop  offset="0" style="stop-color:#3C5185"/>
			<stop  offset="0.128" style="stop-color:#41588E"/>
			<stop  offset="0.6948" style="stop-color:#5573B1"/>
			<stop  offset="1" style="stop-color:#5D7DBE"/>
		</linearGradient>
		<path id="XMLID_893_" class="st24" d="M186.2,136.4h-0.6c-0.3-0.3-0.6-0.6-1-0.8c-2.3-1.3-6-1.3-8.2,0c-0.4,0.2-0.8,0.5-1,0.8
			h-0.6v1.5h0c0,0.9,0.6,1.7,1.7,2.4c2.3,1.3,6,1.3,8.2,0c1.1-0.7,1.7-1.5,1.7-2.4h0V136.4z"/>
		<path id="XMLID_892_" class="st25" d="M176.3,134c2.3-1.3,6-1.3,8.2,0c2.3,1.3,2.3,3.4,0,4.7c-2.3,1.3-6,1.3-8.2,0
			C174,137.5,174,135.3,176.3,134z"/>
		<path id="XMLID_34_" class="st3" d="M182.6,137.4c0.1-0.1,0-0.2-0.1-0.3l-0.1,0c0.2,0.1,0.4,0,0.5-0.1c0.1-0.1,0-0.2-0.1-0.3
			l-0.7-0.3l-0.6-0.3c0,0,0.1-0.1,0.3-0.2c0,0,0.1,0,0.1-0.1c0,0,0,0,0,0c0.1-0.1,0.3-0.2,0.4-0.3c0,0,0.1-0.1,0.1-0.1c0,0,0,0,0,0
			c0,0,0.1-0.1,0.1-0.1c0.1-0.1,0.1-0.1,0-0.2c0,0-0.1-0.1-0.1-0.1c-0.1-0.1-0.3,0-0.4,0c-0.2,0.1-0.5,0.3-0.7,0.4
			c-0.2,0-0.8,0.2-0.8,0.2l0,0l0,0l-0.2-0.1l0.2-0.2c0,0,0,0,0-0.1l-0.9-0.4l-1.2,1.2l-0.6,0.6l0.9,0.4l0,0c0,0,0.1,0,0.1,0l0,0
			l0.2-0.2l0.2,0.1c0,0,0,0,0,0l0,0c0,0,0,0,0,0c0,0,0,0,0,0.1l0.1,0.3c0,0.1,0.1,0.1,0.1,0.1l1.2,0.5c0.1,0.1,0.3,0,0.5,0
			c0.2-0.1,0.1-0.3,0-0.4l0.3,0.1c0.1,0.1,0.3,0,0.5,0c0.2-0.1,0.1-0.3,0-0.4l0.3,0.1C182.3,137.6,182.5,137.5,182.6,137.4z"/>
	</g>
	<g>
		
			<radialGradient id="XMLID_87_" cx="193.9575" cy="7829.8096" r="8.8703" gradientTransform="matrix(1 0 0 0.5172 0 -3892.8164)" gradientUnits="userSpaceOnUse">
			<stop  offset="9.125480e-002" style="stop-color:#3C5185"/>
			<stop  offset="0.2537" style="stop-color:#6F7FA5"/>
			<stop  offset="0.4365" style="stop-color:#A2ACC5"/>
			<stop  offset="0.6088" style="stop-color:#CAD0DE"/>
			<stop  offset="0.7654" style="stop-color:#E7EAF0"/>
			<stop  offset="0.9009" style="stop-color:#F9F9FB"/>
			<stop  offset="1" style="stop-color:#FFFFFF"/>
		</radialGradient>
		<path id="XMLID_1216_" class="st26" d="M187.7,153.2c3.4-2,9-2,12.4,0c3.4,2,3.4,5.2,0,7.2c-3.4,2-9,2-12.4,0
			C184.3,158.4,184.3,155.1,187.7,153.2z"/>
		<linearGradient id="XMLID_88_" gradientUnits="userSpaceOnUse" x1="187.5627" y1="156.4969" x2="200.1214" y2="156.4969">
			<stop  offset="0" style="stop-color:#FFC107"/>
			<stop  offset="0.8501" style="stop-color:#FF9800"/>
		</linearGradient>
		<path id="XMLID_1215_" class="st27" d="M200.1,154.8h-0.7c-0.3-0.3-0.7-0.6-1.1-0.9c-2.4-1.4-6.4-1.4-8.9,0
			c-0.5,0.3-0.8,0.6-1.1,0.9h-0.7v1.7h0c0,0.9,0.6,1.9,1.8,2.6c2.4,1.4,6.4,1.4,8.9,0c1.2-0.7,1.8-1.6,1.8-2.6h0V154.8z"/>
		<linearGradient id="XMLID_89_" gradientUnits="userSpaceOnUse" x1="187.5626" y1="154.8227" x2="200.1216" y2="154.8227">
			<stop  offset="0.1499" style="stop-color:#FF9800"/>
			<stop  offset="1" style="stop-color:#FFC107"/>
		</linearGradient>
		<path id="XMLID_1214_" class="st28" d="M189.4,152.3c2.4-1.4,6.4-1.4,8.9,0c2.4,1.4,2.4,3.7,0,5.1c-2.4,1.4-6.4,1.4-8.9,0
			C187,156,187,153.7,189.4,152.3z"/>
		<path id="XMLID_1117_" class="st3" d="M195.1,156.1c0,0-0.1,0-0.1,0l-2.8-0.2l-0.1-1.9c0-0.2,0.1-0.5,0.4-0.6
			c0.5-0.3,1.4-0.3,1.9,0.2c0.3,0.2,0.4,0.5,0.4,0.7c0.3,0,0.7,0.1,1,0.4c0.5,0.4,0.6,1,0.1,1.3C195.6,156,195.4,156.1,195.1,156.1z
			"/>
	</g>
	<g>
		
			<radialGradient id="XMLID_90_" cx="66.5687" cy="7825.4331" r="9.1273" gradientTransform="matrix(1 0 0 0.5172 0 -3892.8164)" gradientUnits="userSpaceOnUse">
			<stop  offset="9.125480e-002" style="stop-color:#3C5185"/>
			<stop  offset="0.2537" style="stop-color:#6F7FA5"/>
			<stop  offset="0.4365" style="stop-color:#A2ACC5"/>
			<stop  offset="0.6088" style="stop-color:#CAD0DE"/>
			<stop  offset="0.7654" style="stop-color:#E7EAF0"/>
			<stop  offset="0.9009" style="stop-color:#F9F9FB"/>
			<stop  offset="1" style="stop-color:#FFFFFF"/>
		</radialGradient>
		<path id="XMLID_1018_" class="st29" d="M60.2,150.8c3.5-2,9.3-2,12.8,0c3.5,2,3.5,5.4,0,7.4c-3.5,2-9.3,2-12.8,0
			C56.7,156.2,56.7,152.8,60.2,150.8z"/>
		<linearGradient id="XMLID_91_" gradientUnits="userSpaceOnUse" x1="59.9887" y1="154.2257" x2="72.9113" y2="154.2257">
			<stop  offset="0" style="stop-color:#FFC107"/>
			<stop  offset="0.8501" style="stop-color:#FF9800"/>
		</linearGradient>
		<path id="XMLID_1013_" class="st30" d="M72.9,152.5h-0.7c-0.3-0.3-0.7-0.6-1.2-0.9c-2.5-1.5-6.6-1.5-9.1,0
			c-0.5,0.3-0.9,0.6-1.2,0.9H60v1.7h0c0,1,0.6,1.9,1.9,2.7c2.5,1.5,6.6,1.5,9.1,0c1.3-0.7,1.9-1.7,1.9-2.7h0V152.5z"/>
		<linearGradient id="XMLID_92_" gradientUnits="userSpaceOnUse" x1="59.9886" y1="152.503" x2="72.9113" y2="152.503">
			<stop  offset="0.1499" style="stop-color:#FF9800"/>
			<stop  offset="1" style="stop-color:#FFC107"/>
		</linearGradient>
		<path id="XMLID_897_" class="st31" d="M61.9,149.9c2.5-1.5,6.6-1.5,9.1,0c2.5,1.5,2.5,3.8,0,5.3c-2.5,1.5-6.6,1.5-9.1,0
			C59.4,153.7,59.4,151.3,61.9,149.9z"/>
		<path id="XMLID_1069_" class="st3" d="M69.7,153c-0.1-0.6-0.7-1.3-1.7-1.8c-0.9-0.5-1.9-0.8-2.8-0.8c-0.8,0-1.5,0.2-1.9,0.7
			c-0.3,0.3-0.4,0.6-0.3,1c0.1,0.6,0.7,1.3,1.7,1.9c0.6,0.3,1.1,0.5,1.7,0.7l0.1,0l0-0.5l-0.1,0c-0.4-0.1-0.9-0.3-1.4-0.5
			c-0.8-0.4-1.3-0.9-1.4-1.4c0-0.3,0-0.5,0.2-0.7c0.3-0.4,0.9-0.5,1.5-0.5c0.7,0,1.5,0.2,2.2,0.6c0.8,0.4,1.2,0.9,1.3,1.3
			c0,0.2,0,0.4-0.2,0.6c-0.2,0.2-0.5,0.4-0.9,0.4c-0.2,0-0.4,0-0.6-0.1c-0.1,0-0.1-0.1-0.1-0.1c0,0,0-0.1,0.3-0.3l1.1-0.7l-0.1-0.1
			c-0.2-0.2-0.5-0.4-0.8-0.6c-0.6-0.3-1.2-0.5-1.8-0.5c-0.5,0-0.9,0.1-1.2,0.4c-0.1,0.1-0.2,0.3-0.1,0.5c0,0.3,0.3,0.5,0.6,0.7
			c0.4,0.2,0.8,0.3,1.2,0.3c0.1,0,0.1,0,0.2,0c0,0.1,0,0.1,0,0.2c0,0.3,0.3,0.4,0.5,0.5c0.4,0.2,0.8,0.3,1.3,0.3
			c0.5,0,1-0.2,1.3-0.5C69.7,153.7,69.8,153.4,69.7,153z M65.3,152.5c0-0.1,0-0.1,0.1-0.2c0.2-0.2,0.5-0.3,0.8-0.3
			c0.4,0,0.8,0.1,1.1,0.3c0.1,0.1,0.2,0.1,0.3,0.2l-0.5,0.3c-0.2,0.1-0.4,0.2-0.7,0.2c-0.3,0-0.5-0.1-0.7-0.2
			C65.4,152.7,65.3,152.6,65.3,152.5z"/>
	</g>
	<g>
		
			<radialGradient id="XMLID_93_" cx="99.1047" cy="7729.1069" r="10.6461" gradientTransform="matrix(1 0 0 0.5172 0 -3892.8164)" gradientUnits="userSpaceOnUse">
			<stop  offset="9.125480e-002" style="stop-color:#3C5185"/>
			<stop  offset="0.2537" style="stop-color:#6F7FA5"/>
			<stop  offset="0.4365" style="stop-color:#A2ACC5"/>
			<stop  offset="0.6088" style="stop-color:#CAD0DE"/>
			<stop  offset="0.7654" style="stop-color:#E7EAF0"/>
			<stop  offset="0.9009" style="stop-color:#F9F9FB"/>
			<stop  offset="1" style="stop-color:#FFFFFF"/>
		</radialGradient>
		<path id="XMLID_1021_" class="st32" d="M91.6,100.4c4.1-2.4,10.8-2.4,14.9,0c4.1,2.4,4.1,6.2,0,8.6c-4.1,2.4-10.8,2.4-14.9,0
			C87.5,106.6,87.5,102.7,91.6,100.4z"/>
		<linearGradient id="XMLID_94_" gradientUnits="userSpaceOnUse" x1="91.4296" y1="104.3606" x2="106.5026" y2="104.3606">
			<stop  offset="0" style="stop-color:#3C5185"/>
			<stop  offset="0.128" style="stop-color:#41588E"/>
			<stop  offset="0.6948" style="stop-color:#5573B1"/>
			<stop  offset="1" style="stop-color:#5D7DBE"/>
		</linearGradient>
		<path id="XMLID_1020_" class="st33" d="M106.5,102.4h-0.8c-0.3-0.4-0.8-0.7-1.4-1.1c-2.9-1.7-7.7-1.7-10.7,0
			c-0.6,0.3-1,0.7-1.4,1.1h-0.8v2h0c0,1.1,0.7,2.2,2.2,3.1c2.9,1.7,7.7,1.7,10.7,0c1.5-0.9,2.2-2,2.2-3.1h0V102.4z"/>
		<path id="XMLID_1019_" class="st12" d="M93.6,99.3c2.9-1.7,7.7-1.7,10.7,0c2.9,1.7,2.9,4.5,0,6.2c-2.9,1.7-7.7,1.7-10.7,0
			C90.7,103.7,90.7,101,93.6,99.3z"/>
		<path id="XMLID_1014_" class="st3" d="M99.2,104.2c-0.6,0.2-1.4,0.2-2-0.1c-0.5-0.3-0.5-0.7,0-1c0.1,0,0.2-0.1,0.3-0.1l-0.4-1.1
			c-0.3,0-0.7-0.1-1-0.3c-0.5-0.3-0.5-0.7,0-1c0.6-0.2,1.4-0.2,2,0.1c0.3,0.2,0.4,0.3,0.4,0.5l2.1,0.3c0.1-0.1,0.2-0.1,0.3-0.2
			c0.6-0.2,1.4-0.2,2,0.1c0.5,0.3,0.5,0.7,0,1c-0.6,0.2-1.4,0.2-2-0.1c-0.3-0.1-0.4-0.3-0.4-0.5l-2.1-0.3c-0.1,0.1-0.1,0.1-0.2,0.2
			c-0.1,0-0.2,0.1-0.4,0.1l0.4,1.1c0.4,0,0.7,0.1,1,0.3C99.7,103.5,99.7,104,99.2,104.2z"/>
	</g>
	<g id="XMLID_605_">
		<path id="XMLID_604_" class="st12" d="M113.6,121.9l-3.2,1.5c-0.3,0.1-0.6,0.4-0.7,0.7l0,0c-0.3,0.5-0.2,1.1,0.1,1.6l0,0
			c0.6,0.6,1.6,0.8,2.4,0.6l3.9-1.3l0.4-0.5h0.4l0.7,0.2l2.2-0.3l0.1-3.1l-3.5-1.2L113.6,121.9z"/>
		<g id="XMLID_602_">
			<linearGradient id="XMLID_95_" gradientUnits="userSpaceOnUse" x1="116.1417" y1="106.1579" x2="123.201" y2="106.1579">
				<stop  offset="0" style="stop-color:#5D7DBE"/>
				<stop  offset="2.764523e-003" style="stop-color:#5D7DBE"/>
				<stop  offset="0.4117" style="stop-color:#4B659F"/>
				<stop  offset="0.7585" style="stop-color:#40568C"/>
				<stop  offset="1" style="stop-color:#3C5185"/>
			</linearGradient>
			<path id="XMLID_603_" class="st34" d="M118.3,122.7c-1.1,0-1.7-0.9-1.7-2l-0.4-14.9l0.4-14.4c0.1-1.1,2-1.9,3.1-1.8
				c1.1,0.1,3.7,2.5,3.6,3.6l-3.3,12.7l0.1,14.7C120,121.8,119.4,122.7,118.3,122.7C118.3,122.7,118.3,122.7,118.3,122.7z"/>
		</g>
		<path id="XMLID_601_" class="st12" d="M123.9,125.5l-3.5,4.2c-0.2,0.3-0.4,0.6-0.6,0.9l-0.1,0.3c-0.2,0.5-0.1,1,0.3,1.4l0.2,0.2
			c0.4,0.4,0.9,0.4,1.4,0.2l0.5-0.2c0.5-0.2,0.9-0.5,1.3-0.9l2-1.9l0.4-1l0.2-0.2l0.3,0.3l0.9-0.8c0.3-0.2,0.4-0.6,0.3-1l-0.2-1.3
			L123.9,125.5z"/>
		<g id="XMLID_600_">
			<path id="XMLID_697_" class="st20" d="M118.8,94.8c-0.5,0-1-0.3-1.2-0.7l-3.7-7.8c-1-2.2-0.8-4.7,0.5-6.7l4.1-5.9
				c0.4-0.6,1.2-0.7,1.8-0.3c0.6,0.4,0.7,1.2,0.3,1.8l-4.1,5.9c-0.8,1.2-1,2.8-0.3,4.1l3.7,7.8c0.3,0.6,0,1.4-0.6,1.7
				C119.2,94.8,119,94.8,118.8,94.8z"/>
		</g>
		<g id="XMLID_599_">
			<path id="XMLID_695_" class="st3" d="M115.5,81.8c-0.3,0-0.6-0.1-0.9-0.3c-0.7-0.5-0.9-1.4-0.4-2.1l4.1-5.9
				c0.5-0.7,1.4-0.9,2.1-0.4c0.7,0.5,0.9,1.4,0.4,2.1l-4.1,5.9C116.5,81.6,116,81.8,115.5,81.8z"/>
		</g>
		<g id="XMLID_596_">
			<linearGradient id="XMLID_96_" gradientUnits="userSpaceOnUse" x1="117.1469" y1="108.5145" x2="128.6125" y2="108.5145">
				<stop  offset="0" style="stop-color:#5D7DBE"/>
				<stop  offset="0.3052" style="stop-color:#5573B1"/>
				<stop  offset="0.872" style="stop-color:#41588E"/>
				<stop  offset="1" style="stop-color:#3C5185"/>
			</linearGradient>
			<path id="XMLID_245_" class="st35" d="M125.7,127.2c-1.1,0-1.7-0.9-1.7-2l-1.5-18.4l-1.4-8.1l-3.9-5.1l3.7-3.4
				c0-1.1,3.8,0.3,5,0.3c1.1,0,2.9,4.1,2.8,5.2l-1.8,11.6l0.6,17.7C127.5,126.3,126.9,127.2,125.7,127.2
				C125.8,127.2,125.7,127.2,125.7,127.2z"/>
		</g>
		<path id="XMLID_595_" class="st3" d="M126.4,75c1.9,1.1,3,3,3,5.2l-0.2,0.9c-0.7,3.6-0.9,7.3-0.7,11l0.3,5.7
			c-3.6,1.7-10.5-1.2-12.4-4.6l0.3-9.5l-0.3-6c-0.2-3.6,3.6-6,6.7-4.4L126.4,75z"/>
		<path id="XMLID_586_" class="st20" d="M121.8,76.8h0.1c0.8,0,2.1-1.6,2.1-2.5v-2.5c0-0.5-0.4-0.9-0.9-0.9h-1.2
			c-0.5,0-0.9,0.4-0.9,0.9v2.5C121,75.2,121,76.8,121.8,76.8z"/>
		<path id="XMLID_585_" class="st20" d="M122.5,73.3L124,73c0.7-0.1,1.2-0.8,1-1.6l-1.1-5.7l-6.3,1.3l0.7,3.5
			C118.7,72.4,120.6,73.7,122.5,73.3z"/>
		<path id="XMLID_584_" class="st36" d="M122.2,68.2c0.5,0.2,0.9,0.8,1,1.2c0.1,0.4,0,0.5-0.2,0.8c-0.1,0.2-0.2,0.4-0.1,0.6
			c0,0,0,0,0,0.1c0,0,0,0,0.1,0c0.2,0,0.4-0.2,0.5-0.3c0.2-0.3,0.5-0.5,0.8-0.2c0.3,0.3,0.1,0.6,0,0.9c-0.1,0.4-0.3,1.2,0.1,1.5
			c0.3,0.2,1-0.1,1.3-0.3c0,0,0.1-0.1,0.1-0.1c0.9-0.7,0.7-2,0.9-3c0.1-0.8-0.1-1.5-0.2-2.2c-0.1-0.7-0.1-1.4-0.6-2
			c-0.5-0.5-1.4-0.7-2-0.2c-0.3-0.4-0.8-0.6-1.3-0.7c-0.5-0.1-1,0-1.5,0.1c-0.9,0.1-1.6,0.4-2.4,0.9c-0.4,0.2-0.6,0.6-1,0.9
			c-0.3,0.3-0.3,0.7-0.2,1.1c0.1,0.5,0.3,0.9,0.5,1.3c0,0,0.1-0.1,0.1-0.2c0.1-0.4,0.1-0.8,0.4-1.1c0.3-0.3,0.6-0.2,1-0.1
			c0.1,0,0.2,0.1,0.3,0.2c0.2,0.2,0.2,0.5,0.5,0.7c0.2,0.1,0.5,0.1,0.8,0.1c0.3,0,0.5-0.1,0.8-0.1C122,68.1,122.1,68.1,122.2,68.2z"
			/>
		<linearGradient id="XMLID_97_" gradientUnits="userSpaceOnUse" x1="114.7793" y1="73.0197" x2="114.3222" y2="69.553">
			<stop  offset="0" style="stop-color:#3C5185"/>
			<stop  offset="0.2415" style="stop-color:#40568C"/>
			<stop  offset="0.5883" style="stop-color:#4B659F"/>
			<stop  offset="0.9972" style="stop-color:#5D7DBE"/>
			<stop  offset="1" style="stop-color:#5D7DBE"/>
		</linearGradient>
		<path id="XMLID_583_" class="st37" d="M107.1,70l14.3-0.9c0.2,0.2,0.2,1,0,1.2l-11.9,4L107.1,70z"/>
		<path id="XMLID_582_" class="st25" d="M108.2,70.2c-1-0.6-1.8-0.1-1.8,1c0,1.1,0.8,2.5,1.8,3c1,0.6,1.8,0.1,1.8-1
			C110,72.1,109.2,70.7,108.2,70.2z"/>
		<path id="XMLID_415_" class="st11" d="M108.2,70.4c-0.8-0.5-1.5-0.1-1.5,0.9c0,1,0.7,2.2,1.5,2.7c0.8,0.5,1.5,0.1,1.5-0.9
			C109.7,72.1,109,70.9,108.2,70.4z"/>
		<path id="XMLID_684_" class="st38" d="M128.1,78.5c-0.4-0.6-1.2-0.8-1.8-0.4l-4.4,2.7c-0.6,0.4-1.3,0.4-1.9,0.2
			c-0.6-0.3-1.1-0.8-1.3-1.5l-1.3-5c-0.7,0.8-1.1,2-1.1,3.2l0.2,3.3c0.5,1.1,1.4,1.9,2.5,2.3c0.8,0.3,1.7,0.4,2.5,0.3
			c0.6-0.1,1.2-0.3,1.8-0.7l4.4-2.7C128.3,79.9,128.5,79.1,128.1,78.5z"/>
		<g id="XMLID_243_">
			<path id="XMLID_683_" class="st20" d="M121.1,82.7c-0.8,0-1.7-0.2-2.4-0.7c-1.3-0.8-2.1-2.1-2.3-3.6l-0.8-8
				c-0.1-0.7,0.4-1.4,1.2-1.4c0.7-0.1,1.4,0.4,1.4,1.2l0.8,8c0.1,0.7,0.4,1.3,1,1.6c0.6,0.3,1.3,0.4,1.9,0.1l4.8-2
				c0.7-0.3,1.4,0,1.7,0.7c0.3,0.7,0,1.4-0.7,1.7l-4.8,2C122.3,82.5,121.7,82.7,121.1,82.7z"/>
		</g>
		<g id="XMLID_232_">
			<path id="XMLID_681_" class="st3" d="M122.4,82.6c-0.6,0-1.2-0.3-1.4-0.9c-0.3-0.8,0-1.7,0.8-2l4.8-2c0.8-0.3,1.7,0,2,0.8
				c0.3,0.8,0,1.7-0.8,2l-4.8,2C122.8,82.6,122.6,82.6,122.4,82.6z"/>
		</g>
		<path id="XMLID_679_" class="st20" d="M118,73l-0.1,0c-0.2,0-0.3-0.2-0.2-0.3l0.6-2.9c0-0.2,0.2-0.3,0.3-0.2l0.1,0
			c0.2,0,0.3,0.2,0.2,0.3l-0.6,2.9C118.3,73,118.1,73.1,118,73z"/>
		<polygon id="XMLID_101_" class="st12" points="124,73.5 124.8,74 124,78.7 121.9,76.8 		"/>
		<polygon id="XMLID_565_" class="st12" points="121.9,76.8 121.1,73 120.2,72.9 119.2,77.4 		"/>
		<g>
			<path id="XMLID_69_" class="st39" d="M108.9,71l-1.5,2.2c0.2,0.2,0.3,0.4,0.5,0.5l1.4-2.1C109.2,71.4,109,71.2,108.9,71z"/>
			<path id="XMLID_68_" class="st39" d="M107.2,73l1.4-2.2c-0.2-0.1-0.3-0.3-0.5-0.4c-0.2-0.1-0.3-0.1-0.5-0.2l-1,1.5
				C106.8,72.2,107,72.6,107.2,73z"/>
		</g>
	</g>
	<g>
		<g id="XMLID_350_">
			<path id="XMLID_634_" class="st12" d="M181.2,87.2l-43-25c-0.5-0.3-1.2,0.1-1.2,0.7v30.8c0,0.9,0.5,1.6,1.2,2.1l43,25
				c0.5,0.3,1.2-0.1,1.2-0.7V89.2C182.4,88.4,182,87.6,181.2,87.2z"/>
			
				<linearGradient id="XMLID_98_" gradientUnits="userSpaceOnUse" x1="449.6911" y1="123.9956" x2="474.3726" y2="71.9538" gradientTransform="matrix(-1 0 0 1 632.3217 0)">
				<stop  offset="3.802050e-003" style="stop-color:#3C5185"/>
				<stop  offset="1" style="stop-color:#5D7DBE"/>
			</linearGradient>
			<path id="XMLID_633_" class="st40" d="M181.6,120.6V89.8c0-0.9-0.5-1.6-1.2-2.1l-43-25c-0.1-0.1-0.2-0.1-0.3-0.1
				c0.1-0.5,0.7-0.7,1.2-0.5l43,25c0.7,0.4,1.2,1.2,1.2,2.1V120c0,0.5-0.4,0.8-0.9,0.8C181.5,120.8,181.6,120.7,181.6,120.6z"/>
			<polygon id="XMLID_632_" class="st41" points="171.5,100 171.3,100 171.3,115 171.5,115.1 			"/>
			<polygon id="XMLID_631_" class="st41" points="144.2,99.3 144.4,99.4 144.4,84.8 144.2,84.8 			"/>
			<polygon id="XMLID_630_" class="st41" points="152.4,104 152.6,104.1 152.6,88.8 152.4,88.8 			"/>
			<polygon id="XMLID_629_" class="st41" points="162.1,109.6 162.3,109.7 162.3,84.8 162.1,84.8 			"/>
			<ellipse id="XMLID_628_" class="st41" cx="144.3" cy="84.8" rx="0.3" ry="0.4"/>
			<ellipse id="XMLID_627_" class="st41" cx="152.5" cy="88.8" rx="0.3" ry="0.4"/>
			<ellipse id="XMLID_626_" class="st41" cx="162.2" cy="84.8" rx="0.3" ry="0.4"/>
			<ellipse id="XMLID_624_" class="st41" cx="171.4" cy="99.7" rx="0.3" ry="0.4"/>
			<path id="XMLID_622_" class="st42" d="M137,93v-0.6c1,0.2,2.1,0,3.1-0.6l1-0.6c1.7-1,3.8-1.1,5.5-0.2l1.4,0.7
				c2.5,1.2,5.4,1.2,7.8-0.1l0.6-0.3c1.4-0.7,2.9-0.9,4.4-0.4c1.5,0.5,2.6,1.5,3.3,2.9l4.2,8.8c1.7,3.6,4.4,6.5,7.9,8.5l6.2,3.4v0.7
				l-6.5-3.6c-3.6-2-6.4-5-8.2-8.7l-4.2-8.8c-0.6-1.3-1.6-2.2-3-2.6c-1.3-0.4-2.7-0.3-3.9,0.3l-0.6,0.3c-2.6,1.4-5.7,1.4-8.3,0.1
				l-1.4-0.7c-1.6-0.8-3.4-0.7-5,0.2l-1,0.6C139.3,93,138.1,93.2,137,93z"/>
			<g id="XMLID_618_">
				
					<linearGradient id="XMLID_99_" gradientUnits="userSpaceOnUse" x1="448.8946" y1="101.698" x2="497.4342" y2="101.698" gradientTransform="matrix(-1 0 0 1 632.3217 0)">
					<stop  offset="0.1499" style="stop-color:#FF9800"/>
					<stop  offset="1" style="stop-color:#FFC107"/>
				</linearGradient>
				<path id="XMLID_620_" class="st43" d="M183.1,114.1c0.1,0,0.2-0.1,0.3-0.1c0.1-0.1,0-0.3-0.1-0.4l-6.5-3.6
					c-3.5-1.9-6.2-4.9-7.9-8.5l-4.2-8.8c-0.7-1.4-1.8-2.4-3.3-2.9c-1.5-0.5-3-0.4-4.4,0.4l-0.6,0.3c-2.4,1.3-5.3,1.3-7.8,0.1
					l-1.4-0.7c-1.8-0.9-3.8-0.8-5.5,0.2l-1,0.6c-1.4,0.8-3.1,0.9-4.5,0.1l-0.8-0.5c-0.1-0.1-0.3,0-0.4,0.1c-0.1,0.1,0,0.3,0.1,0.4
					l0.8,0.5c1.6,0.9,3.5,0.9,5-0.1l1-0.6c1.5-0.9,3.4-1,5-0.2l1.4,0.7c2.6,1.3,5.7,1.3,8.3-0.1l0.6-0.3c1.2-0.7,2.6-0.8,3.9-0.3
					c1.3,0.4,2.4,1.4,3,2.6l4.2,8.8c1.8,3.7,4.6,6.7,8.2,8.7l6.5,3.6C183,114.1,183.1,114.1,183.1,114.1z"/>
			</g>
		</g>
		<path id="XMLID_67_" class="st44" d="M181.2,87.2l-13-7.5v14.6c0,0.2,0.2,0.6,0.4,0.7l13.8,8V89.2C182.4,88.4,182,87.6,181.2,87.2
			z"/>
		<g>
			<path id="XMLID_384_" class="st25" d="M169.7,71c0-0.2,0.2-0.3,0.4-0.2l36,20.8c0.2,0.1,0.4,0.4,0.4,0.7v22.2
				c0,0.2-0.2,0.3-0.4,0.2l-36-20.8c-0.2-0.1-0.4-0.4-0.4-0.7V71z"/>
			<linearGradient id="XMLID_100_" gradientUnits="userSpaceOnUse" x1="201.8428" y1="106.6652" x2="188.6058" y2="89.7342">
				<stop  offset="0.1499" style="stop-color:#FF9800"/>
				<stop  offset="1" style="stop-color:#FFC107"/>
			</linearGradient>
			<path id="XMLID_379_" class="st45" d="M197.6,95.6c-0.2-0.4-0.5-0.9-0.8-1.2c-0.3-0.4-0.6-0.8-0.9-1.1c-0.3-0.3-0.7-0.7-1-0.9
				c-0.3-0.3-0.7-0.5-1-0.7c-0.3-0.2-0.7-0.3-1-0.4l0.9-2.8c0.5,0.2,1,0.4,1.5,0.7c0.5,0.3,1,0.6,1.4,1c0.4,0.4,0.9,0.8,1.3,1.2
				c0.4,0.4,0.8,0.9,1.2,1.4c0.4,0.5,0.7,1,1,1.5c0.3,0.5,0.6,1.1,0.8,1.6l-0.2,0.1l-2.5,1.1C198.1,96.5,197.9,96,197.6,95.6z
				 M197.3,106.7c0.3,0,0.7,0,1-0.1c0.5-0.1,0.9-0.3,1.4-0.5c0.4-0.2,0.8-0.5,1.1-0.9c0.3-0.4,0.6-0.8,0.8-1.2
				c0.2-0.4,0.4-0.9,0.5-1.5c0.1-0.5,0.2-1.1,0.2-1.6c0-0.6,0-1.1-0.1-1.7l-2.9,0.5c0.1,0.4,0.1,0.9,0.1,1.3c0,0.4,0,0.7-0.1,1.1
				c-0.1,0.3-0.1,0.6-0.2,0.8c-0.1,0.2-0.2,0.4-0.3,0.5c-0.1,0.1-0.2,0.2-0.4,0.3c-0.1,0.1-0.3,0.1-0.5,0.2c-0.2,0-0.4,0-0.6,0
				c-0.3,0-0.5-0.1-0.8-0.2c-0.3-0.1-0.6-0.3-1-0.4c-0.3-0.2-0.7-0.4-1-0.7c-0.3-0.3-0.7-0.6-1-0.9c-0.3-0.3-0.6-0.7-0.9-1.1
				c-0.3-0.4-0.6-0.8-0.8-1.2c-0.3-0.4-0.5-0.9-0.7-1.3c-0.2-0.5-0.4-0.9-0.5-1.4c-0.1-0.5-0.2-0.9-0.3-1.3
				c-0.1-0.4-0.1-0.9-0.1-1.3c0-0.4,0-0.7,0.1-1.1c0.1-0.3,0.1-0.6,0.2-0.8c0.1-0.2,0.2-0.4,0.3-0.5c0.1-0.1,0.2-0.2,0.4-0.3
				c0.1-0.1,0.3-0.1,0.5-0.2l0-2.9h-0.2c-0.4,0-0.7,0-1.1,0.2c-0.3,0.1-0.5,0.2-0.7,0.3c-0.4,0.2-0.8,0.5-1.1,0.9
				c-0.3,0.4-0.6,0.8-0.8,1.2c-0.2,0.4-0.4,0.9-0.5,1.5c-0.1,0.5-0.2,1.1-0.2,1.6c0,0.6,0,1.1,0.1,1.7c0.1,0.6,0.2,1.1,0.4,1.7
				c0.2,0.6,0.4,1.1,0.6,1.7c0.2,0.5,0.5,1.1,0.8,1.6c0.3,0.5,0.6,1,1,1.5c0.4,0.5,0.7,1,1.2,1.4c0.4,0.4,0.8,0.9,1.3,1.2
				c0.5,0.4,0.9,0.7,1.4,1c0.5,0.3,1,0.5,1.5,0.7c0.5,0.2,1,0.3,1.5,0.3C197,106.7,197.1,106.7,197.3,106.7z"/>
			
				<linearGradient id="XMLID_102_" gradientUnits="userSpaceOnUse" x1="1050.3186" y1="92.6928" x2="1087.0763" y2="92.6928" gradientTransform="matrix(-1 0 0 1 1256.8076 0)">
				<stop  offset="3.802050e-003" style="stop-color:#3C5185"/>
				<stop  offset="1" style="stop-color:#5D7DBE"/>
			</linearGradient>
			<path id="XMLID_373_" class="st46" d="M206.1,91.5l-36-20.8c-0.2-0.1-0.4,0-0.4,0.2v0.2l35.8,20.7c0.2,0.1,0.4,0.4,0.4,0.7v22
				l0.2,0.1c0.2,0.1,0.4,0,0.4-0.2V92.2C206.5,91.9,206.3,91.6,206.1,91.5z"/>
			<polygon id="XMLID_372_" class="st18" points="180.2,81.8 180.2,83.3 172.2,78.7 172.2,77.1 			"/>
			<polygon id="XMLID_371_" class="st18" points="185.5,89.6 185.5,91.2 172.2,83.5 172.2,81.9 			"/>
			<polygon id="XMLID_369_" class="st18" points="185.5,93.7 185.5,95.2 172.2,87.6 172.2,86 			"/>
			<polygon id="XMLID_367_" class="st18" points="185.5,97.5 185.5,99 172.2,91.4 172.2,89.8 			"/>
		</g>
		<g>
			<path id="XMLID_386_" class="st12" d="M210.4,140.4c0,1.2-0.9,1.7-1.9,1.1l-22.1-13.1c-1-0.6-1.9-2.1-1.9-3.3l-0.2-18.2
				c0-1.2,0.8-1.7,1.9-1.1l22.3,13.1c1,0.6,1.9,2.1,1.9,3.3V140.4z"/>
			<linearGradient id="XMLID_103_" gradientUnits="userSpaceOnUse" x1="184.4128" y1="131.7727" x2="210.3708" y2="131.7727">
				<stop  offset="0.1499" style="stop-color:#FF9800"/>
				<stop  offset="1" style="stop-color:#FFC107"/>
			</linearGradient>
			<path id="XMLID_66_" class="st47" d="M210.4,140.3v-12.7c-0.1-0.2-0.2-0.5-0.4-0.6c-0.5-0.6-1.3-0.7-2.1-0.5
				c-0.7,0.1-1.4,0.5-2.1,0.9c-1,0.5-2,0.9-3,1c-1.1,0.1-2.2-0.2-3-0.9c-0.8-0.8-1.2-2-2.2-2.4c-0.9-0.4-1.9,0-2.8,0.3
				c-2,0.6-4.5,0.6-6-0.9c-0.9-0.9-1.4-2.3-2.6-2.6c-0.1,0-0.1,0-0.2,0c-0.5-0.1-1,0.1-1.5,0.3l0,3c0,1.2,0.9,2.7,1.9,3.3l1.9,1.1
				c1.3,0.7,2.5,1.4,3.7,2.2c3.5,2.1,7,4.1,10.4,6.2l6.1,3.6c0.3,0.2,0.5,0.2,0.7,0.3c0.1,0,0.2,0,0.3,0c0.5-0.1,0.7-0.7,0.9-1.2
				C210.3,140.4,210.4,140.4,210.4,140.3z"/>
			<linearGradient id="XMLID_104_" gradientUnits="userSpaceOnUse" x1="184.4568" y1="123.6371" x2="210.3708" y2="123.6371">
				<stop  offset="0" style="stop-color:#5D7DBE"/>
				<stop  offset="0.9962" style="stop-color:#3C5185"/>
			</linearGradient>
			<path id="XMLID_385_" class="st48" d="M209.7,140.9v-18.2c0-1.2-0.9-2.7-1.9-3.3l-22.3-13.1c-0.4-0.2-0.7-0.3-1-0.3
				c0.3-0.5,0.9-0.6,1.7-0.2l22.3,13.1c1,0.6,1.9,2.1,1.9,3.3v18.2c0,0.8-0.4,1.3-0.9,1.3C209.6,141.5,209.7,141.2,209.7,140.9z"/>
		</g>
		<g>
			<path class="st3" d="M143.2,81.4c0-0.1,0.1-0.1,0-0.2c0-0.1,0-0.1-0.1-0.2c0-0.1-0.1-0.1-0.1-0.1c-0.1-0.1-0.2,0-0.3,0.1
				l-0.3-0.4c0.1-0.1,0.1-0.2,0.2-0.2c0.1,0,0.2,0,0.3,0.1c0.1,0.1,0.3,0.2,0.4,0.4c0.1,0.2,0.2,0.4,0.2,0.5c0,0.1,0,0.2,0,0.3
				c0,0.1-0.1,0.2-0.2,0.3l-0.3,0.2l0.6,0.3l0,0.4l-1.1-0.6l0-0.3l0.4-0.4C143.1,81.6,143.2,81.5,143.2,81.4z"/>
			<path class="st3" d="M144.6,83.5c-0.2-0.1-0.4-0.3-0.5-0.5c-0.1-0.3-0.2-0.5-0.2-0.9c0-0.3,0-0.6,0.1-0.7c0.1-0.1,0.3-0.2,0.5,0
				c0.2,0.1,0.4,0.3,0.5,0.6c0.1,0.3,0.2,0.5,0.2,0.9c0,0.3,0,0.6-0.1,0.7C144.9,83.6,144.8,83.6,144.6,83.5z M144.3,81.7
				c0,0.1-0.1,0.3-0.1,0.5c0,0.2,0,0.4,0.1,0.5c0.1,0.2,0.1,0.3,0.2,0.3c0.1,0.1,0.2,0,0.2-0.1c0-0.1,0.1-0.3,0.1-0.5
				c0-0.2,0-0.4-0.1-0.5c-0.1-0.2-0.1-0.3-0.2-0.3C144.4,81.6,144.3,81.6,144.3,81.7z"/>
			<path class="st3" d="M145.3,81.8l0.6,0.3l0.1,2.1l-0.3-0.2l-0.1-1.7l-0.3-0.2L145.3,81.8z"/>
			<path class="st3" d="M146.4,82.5c0.1-0.1,0.2,0,0.4,0c0.2,0.1,0.3,0.2,0.4,0.4c0.1,0.2,0.2,0.3,0.2,0.5c0,0.2,0,0.3-0.1,0.3
				c0.1,0.2,0.2,0.4,0.2,0.6c0,0.2,0,0.3-0.1,0.4c-0.1,0.1-0.2,0.1-0.4,0c-0.2-0.1-0.3-0.2-0.4-0.4c-0.1-0.2-0.2-0.4-0.2-0.6
				c0-0.2,0-0.4,0.2-0.4c-0.1-0.2-0.1-0.3-0.2-0.5C146.3,82.7,146.3,82.6,146.4,82.5z M146.7,84.2c0.1,0.1,0.1,0.1,0.2,0.2
				c0.1,0,0.1,0,0.2,0c0.1,0,0.1-0.1,0.1-0.2c0-0.1,0-0.2-0.1-0.2c-0.1-0.1-0.1-0.1-0.2-0.2c-0.1,0-0.1,0-0.2,0c0,0-0.1,0.1-0.1,0.2
				C146.6,84,146.7,84.1,146.7,84.2z M146.7,83.3c0,0.1,0.1,0.1,0.1,0.1c0.1,0,0.1,0,0.1,0c0,0,0.1-0.1,0.1-0.1c0-0.1,0-0.1-0.1-0.2
				c0-0.1-0.1-0.1-0.1-0.2c-0.1,0-0.1,0-0.1,0c0,0-0.1,0.1-0.1,0.1C146.6,83.1,146.7,83.2,146.7,83.3z"/>
		</g>
		<g>
			<path class="st3" d="M151.4,85.1c0-0.1,0.1-0.1,0-0.2c0-0.1,0-0.1-0.1-0.2c0-0.1-0.1-0.1-0.1-0.1c-0.1-0.1-0.2,0-0.3,0.1
				l-0.3-0.4c0.1-0.1,0.1-0.2,0.2-0.2c0.1,0,0.2,0,0.3,0.1c0.1,0.1,0.3,0.2,0.4,0.4c0.1,0.2,0.2,0.4,0.2,0.5c0,0.1,0,0.2,0,0.3
				c0,0.1-0.1,0.2-0.2,0.3l-0.3,0.2l0.6,0.3l0,0.4l-1.1-0.6l0-0.3l0.4-0.4C151.3,85.3,151.4,85.2,151.4,85.1z"/>
			<path class="st3" d="M152.8,87.1c-0.2-0.1-0.4-0.3-0.5-0.5c-0.1-0.3-0.2-0.5-0.2-0.9c0-0.3,0-0.6,0.1-0.7c0.1-0.1,0.3-0.2,0.5,0
				c0.2,0.1,0.4,0.3,0.5,0.6c0.1,0.3,0.2,0.5,0.2,0.9c0,0.3,0,0.6-0.1,0.7C153.1,87.2,153,87.3,152.8,87.1z M152.5,85.4
				c0,0.1-0.1,0.3-0.1,0.5c0,0.2,0,0.4,0.1,0.5c0.1,0.2,0.1,0.3,0.2,0.3c0.1,0.1,0.2,0,0.2-0.1c0-0.1,0.1-0.3,0.1-0.5
				c0-0.2,0-0.4-0.1-0.5c-0.1-0.2-0.1-0.3-0.2-0.3C152.6,85.3,152.5,85.3,152.5,85.4z"/>
			<path class="st3" d="M153.5,85.5l0.6,0.3l0.1,2.1l-0.3-0.2l-0.1-1.7l-0.3-0.2L153.5,85.5z"/>
			<path class="st3" d="M155,87.9c0.1,0.1,0.2,0,0.2,0c0-0.1,0.1-0.2,0.1-0.3c-0.1,0-0.2,0-0.3,0c-0.1-0.1-0.3-0.2-0.4-0.4
				c-0.1-0.2-0.2-0.4-0.2-0.6c0-0.2,0-0.4,0.1-0.4c0.1-0.1,0.2-0.1,0.4,0c0.1,0.1,0.2,0.1,0.3,0.2c0.1,0.1,0.1,0.2,0.2,0.3
				c0.1,0.2,0.1,0.5,0.2,0.8c0,0.2,0,0.4,0,0.5c0,0.1-0.1,0.2-0.1,0.3c-0.1,0.1-0.3,0.1-0.4,0c-0.1,0-0.1-0.1-0.2-0.2
				c-0.1-0.1-0.1-0.1-0.2-0.2c0,0-0.1-0.1-0.1-0.2l0.2-0.2c0,0,0,0,0,0.1c0,0,0.1,0.1,0.1,0.1C154.9,87.9,154.9,87.9,155,87.9z
				 M155,87.2c0.1,0,0.1,0,0.2,0c0,0,0.1-0.1,0.1-0.2c0-0.1,0-0.2-0.1-0.3c0-0.1-0.1-0.1-0.2-0.2c-0.1,0-0.1,0-0.2,0
				c0,0-0.1,0.1-0.1,0.2c0,0.1,0,0.2,0.1,0.3C154.9,87.1,154.9,87.2,155,87.2z"/>
		</g>
		<g>
			<path class="st3" d="M161,81.9c0-0.1,0.1-0.1,0-0.2c0-0.1,0-0.1-0.1-0.2c0-0.1-0.1-0.1-0.1-0.1c-0.1-0.1-0.2,0-0.3,0.1l-0.3-0.4
				c0.1-0.1,0.1-0.2,0.2-0.2c0.1,0,0.2,0,0.3,0.1c0.1,0.1,0.3,0.2,0.4,0.4c0.1,0.2,0.2,0.4,0.2,0.5c0,0.1,0,0.2,0,0.3
				c0,0.1-0.1,0.2-0.2,0.3l-0.3,0.2l0.6,0.3l0,0.4l-1.1-0.6l0-0.3l0.4-0.4C160.9,82,161,81.9,161,81.9z"/>
			<path class="st3" d="M162.4,83.9c-0.2-0.1-0.4-0.3-0.5-0.5c-0.1-0.3-0.2-0.5-0.2-0.9c0-0.3,0-0.6,0.1-0.7c0.1-0.1,0.3-0.2,0.5,0
				c0.2,0.1,0.4,0.3,0.5,0.6c0.1,0.3,0.2,0.5,0.2,0.9c0,0.3,0,0.6-0.1,0.7C162.8,84,162.6,84,162.4,83.9z M162.1,82.2
				c0,0.1-0.1,0.3-0.1,0.5c0,0.2,0,0.4,0.1,0.5c0.1,0.2,0.1,0.3,0.2,0.3c0.1,0.1,0.2,0,0.2-0.1c0-0.1,0.1-0.3,0.1-0.5
				c0-0.2,0-0.4-0.1-0.5c-0.1-0.2-0.1-0.3-0.2-0.3C162.2,82.1,162.2,82.1,162.1,82.2z"/>
			<path class="st3" d="M163.9,83.4c0-0.1,0.1-0.1,0-0.2c0-0.1,0-0.1-0.1-0.2c0-0.1-0.1-0.1-0.1-0.1c-0.1-0.1-0.2,0-0.3,0.1
				l-0.3-0.4c0.1-0.1,0.1-0.2,0.2-0.2c0.1,0,0.2,0,0.3,0.1c0.1,0.1,0.3,0.2,0.4,0.4c0.1,0.2,0.2,0.4,0.2,0.5c0,0.1,0,0.2,0,0.3
				c0,0.1-0.1,0.2-0.2,0.3l-0.3,0.2l0.6,0.3l0,0.4l-1.1-0.6l0-0.3l0.4-0.4C163.8,83.5,163.8,83.5,163.9,83.4z"/>
			<path class="st3" d="M165.2,85.4c-0.2-0.1-0.4-0.3-0.5-0.5c-0.1-0.3-0.2-0.5-0.2-0.9c0-0.3,0-0.6,0.1-0.7c0.1-0.1,0.3-0.2,0.5,0
				c0.2,0.1,0.4,0.3,0.5,0.6c0.1,0.3,0.2,0.5,0.2,0.9c0,0.3,0,0.6-0.1,0.7C165.6,85.5,165.4,85.5,165.2,85.4z M164.9,83.7
				c0,0.1-0.1,0.3-0.1,0.5c0,0.2,0,0.4,0.1,0.5c0.1,0.2,0.1,0.3,0.2,0.3c0.1,0.1,0.2,0,0.2-0.1c0-0.1,0.1-0.3,0.1-0.5
				c0-0.2,0-0.4-0.1-0.5c-0.1-0.2-0.1-0.3-0.2-0.3C165.1,83.6,165,83.6,164.9,83.7z"/>
		</g>
		<g>
			<path class="st3" d="M170.2,96.5c0-0.1,0.1-0.1,0-0.2c0-0.1,0-0.1-0.1-0.2c0-0.1-0.1-0.1-0.1-0.1c-0.1-0.1-0.2,0-0.3,0.1
				l-0.3-0.4c0.1-0.1,0.1-0.2,0.2-0.2c0.1,0,0.2,0,0.3,0.1c0.1,0.1,0.3,0.2,0.4,0.4c0.1,0.2,0.2,0.4,0.2,0.5c0,0.1,0,0.2,0,0.3
				c0,0.1-0.1,0.2-0.2,0.3l-0.3,0.2l0.6,0.3l0,0.4l-1.1-0.6l0-0.3l0.4-0.4C170.1,96.7,170.2,96.6,170.2,96.5z"/>
			<path class="st3" d="M171.6,98.6c-0.2-0.1-0.4-0.3-0.5-0.6c-0.1-0.3-0.2-0.5-0.2-0.9c0-0.3,0-0.6,0.1-0.7c0.1-0.1,0.3-0.2,0.5,0
				c0.2,0.1,0.4,0.3,0.5,0.5c0.1,0.3,0.2,0.5,0.2,0.9c0,0.3,0,0.6-0.1,0.7C171.9,98.7,171.8,98.7,171.6,98.6z M171.3,96.8
				c0,0.1-0.1,0.3-0.1,0.5c0,0.2,0,0.4,0.1,0.5c0.1,0.2,0.1,0.3,0.2,0.3c0.1,0.1,0.2,0,0.2-0.1c0-0.1,0.1-0.3,0.1-0.5
				c0-0.2,0-0.4-0.1-0.5c-0.1-0.2-0.1-0.3-0.2-0.3C171.4,96.7,171.3,96.7,171.3,96.8z"/>
			<path class="st3" d="M173.1,98.1c0-0.1,0.1-0.1,0-0.2c0-0.1,0-0.1-0.1-0.2c0-0.1-0.1-0.1-0.1-0.1c-0.1-0.1-0.2,0-0.3,0.1
				l-0.3-0.4c0.1-0.1,0.1-0.2,0.2-0.2c0.1,0,0.2,0,0.3,0.1c0.1,0.1,0.3,0.2,0.4,0.4c0.1,0.2,0.2,0.4,0.2,0.5c0,0.1,0,0.2,0,0.3
				c0,0.1-0.1,0.2-0.2,0.3l-0.3,0.2l0.6,0.3l0,0.4l-1.1-0.6l0-0.3l0.4-0.4C173,98.2,173,98.1,173.1,98.1z"/>
			<path class="st3" d="M173.6,97.6l0.6,0.3l0.1,2.1l-0.3-0.2l-0.1-1.7l-0.3-0.2L173.6,97.6z"/>
		</g>
		<g>
			<path id="XMLID_390_" class="st12" d="M168.4,74.3c0,1.7-1.2,2.4-2.7,1.5l-31.2-18.5c-1.5-0.9-2.7-3-2.7-4.7l-0.3-8.3
				c0-1.7,1.2-2.4,2.6-1.5l31.5,18.5c1.5,0.9,2.7,3,2.7,4.7V74.3z"/>
			<linearGradient id="XMLID_105_" gradientUnits="userSpaceOnUse" x1="131.8862" y1="59.3308" x2="168.4334" y2="59.3308">
				<stop  offset="3.802050e-003" style="stop-color:#3C5185"/>
				<stop  offset="1" style="stop-color:#5D7DBE"/>
			</linearGradient>
			<path id="XMLID_389_" class="st49" d="M167.5,74.9v-8.3c0-1.7-1.2-3.8-2.7-4.7l-31.5-18.5c-0.5-0.3-1-0.4-1.4-0.4
				c0.4-0.7,1.3-0.9,2.3-0.3l31.5,18.5c1.5,0.9,2.7,3,2.7,4.7v8.3c0,1.1-0.5,1.8-1.2,1.9C167.4,75.9,167.5,75.5,167.5,74.9z"/>
			<polygon id="XMLID_388_" class="st18" points="165.4,65.8 165.4,67 134.5,49.2 134.5,48 			"/>
			<polygon id="XMLID_387_" class="st18" points="165.4,69.2 165.4,70.4 134.5,52.6 134.5,51.3 			"/>
			<polygon id="XMLID_516_" class="st18" points="165.4,72.5 165.4,73.7 134.5,55.9 134.5,54.7 			"/>
		</g>
	</g>
	<g id="XMLID_370_">
		<path id="XMLID_491_" class="st12" d="M73,126.2v1.3c0,0.4,0.2,0.7,0.5,0.9l4,2.5c0.4,0.3,0.9,0.3,1.4,0l1.2-0.7
			c0.2-0.1,0.4-0.4,0.4-0.7l0-0.8c0,0-0.2,0.1-0.4-0.1l-2.7-1.6v-0.9H73z"/>
		<path id="XMLID_489_" class="st50" d="M73,125.5v1.3c0,0.4,0.2,0.7,0.5,0.9l4,2.5c0.4,0.3,0.9,0.3,1.4,0l1.2-0.7
			c0.6-0.3,0.6-1.2,0-1.5l-2.7-1.6v-0.9H73z"/>
		<g id="XMLID_484_">
			<polygon id="XMLID_485_" class="st3" points="75.7,128 75.7,127.7 77.3,126.8 77.3,127.1 			"/>
		</g>
		<g id="XMLID_461_">
			<polygon id="XMLID_462_" class="st3" points="76.3,128.5 76.3,128.3 77.8,127.4 77.8,127.6 			"/>
		</g>
		<g id="XMLID_459_">
			<polygon id="XMLID_460_" class="st3" points="77.1,129.1 77.1,128.8 78.6,127.9 78.6,128.2 			"/>
		</g>
		<path id="XMLID_458_" class="st12" d="M73.6,126.4c-0.9-0.5-0.9-1.3,0-1.8c0.9-0.5,2.3-0.5,3.1,0c0.9,0.5,0.9,1.3,0,1.8
			C75.9,126.9,74.5,126.9,73.6,126.4z"/>
		<path id="XMLID_457_" class="st3" d="M74.2,126.1c-0.6-0.3-0.6-0.9,0-1.2c0.6-0.3,1.5-0.3,2.1,0c0.6,0.3,0.6,0.9,0,1.2
			C75.7,126.4,74.7,126.4,74.2,126.1z"/>
		<g id="XMLID_453_">
			<path id="XMLID_454_" class="st20" d="M75.2,126.2c-0.6,0-1-0.5-1-1v-23.4c0-0.6,0.5-1,1-1c0.6,0,1,0.5,1,1v23.4
				C76.2,125.7,75.8,126.2,75.2,126.2z"/>
		</g>
		<g id="XMLID_443_">
			<g id="XMLID_445_">
				<linearGradient id="XMLID_106_" gradientUnits="userSpaceOnUse" x1="70.9705" y1="111.9248" x2="76.923" y2="111.9248">
					<stop  offset="0" style="stop-color:#5D7DBE"/>
					<stop  offset="0.3052" style="stop-color:#5573B1"/>
					<stop  offset="0.872" style="stop-color:#41588E"/>
					<stop  offset="1" style="stop-color:#3C5185"/>
				</linearGradient>
				<path id="XMLID_446_" class="st51" d="M75.2,125.3c-0.9,0-1.3-0.8-1.3-1.7l-0.1-7.1L71,103.7c0-0.9,3.3-5.2,4.2-5.2
					c0.9,0,1.7,0.8,1.7,1.7l-0.1,16l-0.3,7.3C76.5,124.6,76.2,125.3,75.2,125.3z"/>
			</g>
		</g>
		<g id="XMLID_510_">
			<path id="XMLID_511_" class="st20" d="M79.8,102.8c-0.4,0-0.8-0.3-1-0.7l-2.7-8.5l-1-8.5C75,84.5,75.4,84,76,83.9
				c0.6-0.1,1.1,0.3,1.1,0.9l0.9,8.3l2.7,8.3c0.2,0.5-0.1,1.1-0.7,1.3C80,102.8,79.9,102.8,79.8,102.8z"/>
		</g>
		<g id="XMLID_508_">
			<linearGradient id="XMLID_107_" gradientUnits="userSpaceOnUse" x1="75.2462" y1="87.1988" x2="77.9664" y2="87.1988">
				<stop  offset="0" style="stop-color:#A8D9FB"/>
				<stop  offset="1" style="stop-color:#FFFFFF"/>
			</linearGradient>
			<path id="XMLID_509_" class="st52" d="M77,90.6c-0.5,0-1-0.4-1.1-0.9l-0.7-4.8c-0.1-0.6,0.3-1.1,0.9-1.2c0.6-0.1,1.1,0.3,1.2,0.9
				l0.7,4.8C78,90,77.6,90.6,77,90.6C77,90.6,77,90.6,77,90.6z"/>
		</g>
		<path id="XMLID_505_" class="st12" d="M67.7,130.6v1.3c0,0.4,0.2,0.7,0.5,0.9l4,2.5c0.4,0.3,0.9,0.3,1.4,0l1.2-0.7
			c0.2-0.1,0.4-0.4,0.4-0.7l0-0.8c0,0-0.2,0.1-0.4-0.1l-2.7-1.6v-0.9H67.7z"/>
		<path id="XMLID_504_" class="st50" d="M67.7,129.9v1.3c0,0.4,0.2,0.7,0.5,0.9l4,2.5c0.4,0.3,0.9,0.3,1.4,0l1.2-0.7
			c0.6-0.3,0.6-1.2,0-1.5l-2.7-1.6v-0.9H67.7z"/>
		<g id="XMLID_502_">
			<polygon id="XMLID_503_" class="st3" points="70.4,132.4 70.4,132.1 72,131.3 72,131.5 			"/>
		</g>
		<g id="XMLID_500_">
			<polygon id="XMLID_501_" class="st3" points="71,132.9 71,132.7 72.5,131.8 72.6,132 			"/>
		</g>
		<g id="XMLID_498_">
			<polygon id="XMLID_499_" class="st3" points="71.8,133.5 71.8,133.2 73.3,132.3 73.3,132.6 			"/>
		</g>
		<path id="XMLID_497_" class="st12" d="M68.3,130.8c-0.9-0.5-0.9-1.3,0-1.8c0.9-0.5,2.3-0.5,3.1,0c0.9,0.5,0.9,1.3,0,1.8
			C70.6,131.3,69.2,131.3,68.3,130.8z"/>
		<path id="XMLID_496_" class="st3" d="M68.9,130.5c-0.6-0.3-0.6-0.9,0-1.2c0.6-0.3,1.5-0.3,2.1,0c0.6,0.3,0.6,0.9,0,1.2
			C70.4,130.8,69.4,130.8,68.9,130.5z"/>
		<g id="XMLID_41_">
			<linearGradient id="XMLID_108_" gradientUnits="userSpaceOnUse" x1="68.6148" y1="80.0141" x2="77.0411" y2="80.0141">
				<stop  offset="0.1499" style="stop-color:#FF9800"/>
				<stop  offset="1" style="stop-color:#FFC107"/>
			</linearGradient>
			<path id="XMLID_76_" class="st53" d="M76.5,76.1l-0.2-0.4c-0.1-0.4-0.5-0.6-0.9-0.6c-0.4,0-0.7,0.1-1.1,0.2
				c-0.6,0.2-1.3,0.5-1.9,0.7c-1.3,0.5-2.7,1.1-3,2.4c-0.2,0.9,0.1,1.9-0.2,2.8c-0.1,0.3-0.3,0.5-0.4,0.8c-0.3,0.8,0.1,1.6,0.5,2.3
				c0.1,0.2,0.3,0.4,0.5,0.5c0.4,0.2,0.9-0.1,1.2-0.4c0.3-0.3,0.5-0.7,0.9-1c0.5-0.4,1.3-0.5,1.9-0.9c1.1-0.8,1-2.6,2.1-3.5
				c0.3-0.3,0.8-0.4,1-0.8C77.3,77.6,76.9,76.8,76.5,76.1z"/>
		</g>
		<g id="XMLID_455_">
			<path id="XMLID_456_" class="st20" d="M69.9,130.6c-0.6,0-1-0.5-1-1v-23.1c0-0.6,0.5-1,1-1c0.6,0,1,0.5,1,1v23.1
				C71,130.2,70.5,130.6,69.9,130.6z"/>
		</g>
		<linearGradient id="XMLID_109_" gradientUnits="userSpaceOnUse" x1="66.7448" y1="107.3907" x2="76.7231" y2="107.3907">
			<stop  offset="0" style="stop-color:#5D7DBE"/>
			<stop  offset="0.3052" style="stop-color:#5573B1"/>
			<stop  offset="0.872" style="stop-color:#41588E"/>
			<stop  offset="1" style="stop-color:#3C5185"/>
		</linearGradient>
		<path id="XMLID_40_" class="st54" d="M76.7,100.9l-0.3-15.8l-9.1,5l0.9,7.1l-0.9,5.6l-0.1,0.4c-0.1,0.1-0.3,0.3-0.3,0.5
			c0,0.1-0.1,0.2-0.1,0.4c-0.2,1.2-0.1,2.4,0.4,3.4l0.5,1.1l0.7,9.9l0.2,9.1c0,0.9,0.3,1.7,1.2,1.8c1,0.1,1.5-0.7,1.5-1.7L72,119
			l1.7-13.5l0.4-0.2C75.8,104.4,76.8,102.7,76.7,100.9z"/>
		<g id="XMLID_412_">
			<path id="XMLID_442_" class="st12" d="M80.4,90.1c0.1,0,0.1,0,0.1-0.1l4-3.4c0.1-0.1,0.1-0.3,0-0.4c-0.1-0.1-0.3-0.1-0.4,0
				l-4,3.4c-0.1,0.1-0.1,0.3,0,0.4C80.2,90,80.3,90.1,80.4,90.1z"/>
		</g>
		<linearGradient id="XMLID_110_" gradientUnits="userSpaceOnUse" x1="66.6738" y1="94.1713" x2="77.6859" y2="94.1713">
			<stop  offset="0" style="stop-color:#A8D9FB"/>
			<stop  offset="1" style="stop-color:#FFFFFF"/>
		</linearGradient>
		<path id="XMLID_411_" class="st55" d="M66.8,88.1c0-0.9,0.7-2.1,1.5-2.6l4.5-2.6l2.4,0c0.5,0,1,0.2,1.3,0.6l0,0
			c0.3,0.3,0.4,0.7,0.4,1.2v1.6l0.7,2.5c0.1,0.5,0,1-0.3,1.4L77,90.8l0.1,10.9c-1.5-0.8-8,5-10.3,3.5c-0.3-0.2,0-1.4,0-1.4
			c0-0.2,0-0.3,0-0.5l0.7-3.5c0.2-1.5,0.2-3.1,0-4.7L66.8,88.1z"/>
		<g id="XMLID_409_">
			<path id="XMLID_39_" class="st20" d="M71.9,85.9c-0.7,0-1.2-0.5-1.2-1.2v-4.2c0-0.7,0.5-1.2,1.2-1.2c0.7,0,1.2,0.5,1.2,1.2v4.2
				C73.1,85.4,72.5,85.9,71.9,85.9z"/>
		</g>
		<path id="XMLID_408_" class="st20" d="M72.9,82.8H71v-6.6h5.1v3.4C76.1,81.3,74.7,82.8,72.9,82.8z"/>
		<path id="XMLID_407_" class="st56" d="M77,92.2l-5.1,3.6c0,0-0.1,0-0.2,0c-0.1,0-0.1-0.1-0.1-0.1l-2.2-6.9
			c-0.2-0.5-1.3-0.4-1.3-0.4l1.5,8c0.2,0.7,0.7,1.2,1.4,1.4c0.2,0.1,0.5,0.1,0.7,0.1c0.5,0,0.9-0.1,1.3-0.4l3.9-2.8L77,92.2z"/>
		<g id="XMLID_405_">
			<path id="XMLID_406_" class="st20" d="M72.5,97.1c-0.2,0-0.5,0-0.7-0.1c-0.7-0.2-1.2-0.8-1.4-1.4l-2.2-6.9
				c-0.2-0.5,0.1-1.1,0.7-1.3c0.5-0.2,1.1,0.1,1.3,0.7l2.2,6.9c0,0.1,0.1,0.1,0.1,0.1c0.1,0,0.1,0,0.2,0l8-5.7
				c0.5-0.3,1.1-0.2,1.4,0.2c0.3,0.5,0.2,1.1-0.2,1.4l-8,5.7C73.4,96.9,73,97.1,72.5,97.1z"/>
		</g>
		<g id="XMLID_403_">
			<linearGradient id="XMLID_111_" gradientUnits="userSpaceOnUse" x1="68.0286" y1="90.6387" x2="71.8297" y2="90.6387">
				<stop  offset="0" style="stop-color:#A8D9FB"/>
				<stop  offset="1" style="stop-color:#FFFFFF"/>
			</linearGradient>
			<path id="XMLID_404_" class="st57" d="M70.7,94.3c-0.5,0-0.9-0.3-1-0.8l-1.6-5c-0.2-0.6,0.1-1.2,0.7-1.4c0.6-0.2,1.2,0.1,1.4,0.7
				l1.6,5c0.2,0.6-0.1,1.2-0.7,1.4C71,94.2,70.8,94.3,70.7,94.3z"/>
		</g>
		<g id="XMLID_402_">
			<linearGradient id="XMLID_112_" gradientUnits="userSpaceOnUse" x1="65.5465" y1="82.2312" x2="76.7591" y2="82.2312">
				<stop  offset="0.1499" style="stop-color:#FF9800"/>
				<stop  offset="1" style="stop-color:#FFC107"/>
			</linearGradient>
			<path id="XMLID_79_" class="st58" d="M69,87c-0.1,0-0.2,0-0.2,0c-0.1,0-0.2,0-0.3,0.1c-0.1,0.1-0.2,0.2-0.3,0.4
				C68,87.7,68,88,67.8,88.3c-0.1,0.3-0.3,0.6-0.3,0.9c0,0.5,0.2,1.1,0.1,1.6c-0.1-0.2-0.3-0.3-0.5-0.3c-0.6-0.2-0.9-0.7-1-1.3
				c-0.1-0.8,0-1.5-0.3-2.2c-0.3-0.7-0.3-1.5-0.1-2.2c0.2-1.1,0.7-1.9,1.1-2.9c0.3-0.8,0.1-1.6,0.3-2.4c0.2-0.7,0.8-1.3,1-2
				c0.3-0.8,0.4-1.2,1-1.8c0.4-0.5,0.8-1,1.3-1.4c0.4-0.2,0.9-0.2,1.4-0.3c0.5-0.1,0.9-0.3,1.4-0.3c1-0.1,2,0.1,2.9,0.6
				c0.7,0.4,1,1.1,0.4,1.7c-0.7,0.7-1.6,0.6-2.4,0.8c-0.2,0-0.3,0.1-0.4,0.2c-0.1,0.1-0.2,0.4-0.1,0.5c0.1,0.7,0.4,1-0.3,1.5
				c-0.3,0.2-0.6,0.3-0.8,0.5c-0.2,0.2-0.4,0.4-0.5,0.7c0,0.3,0,0.5-0.1,0.8c-0.1,0.3-0.3,0.4-0.4,0.6c-0.3,0.6-0.1,1.3-0.4,1.8
				c-0.1,0.2-0.2,0.3-0.2,0.5c0,0.2,0.1,0.4,0.2,0.6c0.1,0.3,0.3,0.5,0.4,0.8c0.1,0.2,0.2,0.4,0.3,0.7c0.1,0.2,0,0.5,0,0.7
				c0,0.3-0.1,0.6-0.2,0.9c-0.1,0.2-0.2,0.4-0.4,0.5c-0.3,0.2-0.4,0.1-0.6-0.1C70,87.7,69.8,87,69,87C69.1,87,69,87,69,87z"/>
		</g>
		<g>
			<g id="XMLID_38_">
				<path id="XMLID_80_" class="st59" d="M76,74.3c-0.8-0.5-1.7-0.7-2.6-0.6c0.8,0,1.6,0.2,2.2,0.6c0.7,0.4,1,1.1,0.4,1.7
					c-0.7,0.7-1.6,0.6-2.4,0.8c-0.2,0-0.3,0.1-0.4,0.2C73,77.2,73,77.4,73,77.6c0.1,0.7,0.4,1-0.3,1.5c-0.3,0.2-0.6,0.3-0.8,0.5
					c-0.2,0.2-0.4,0.4-0.5,0.7c0,0.3,0,0.5-0.1,0.8c-0.1,0.3-0.3,0.4-0.4,0.6c-0.3,0.6-0.1,1.3-0.4,1.8c-0.1,0.2-0.2,0.3-0.2,0.5
					c0,0.2,0.1,0.4,0.2,0.6c0.1,0.3,0.3,0.5,0.4,0.8c0.1,0.2,0.2,0.4,0.3,0.7c0.1,0.2,0,0.5,0,0.7c0,0.3-0.1,0.6-0.2,0.9
					c-0.1,0.2-0.2,0.4-0.4,0.5c0,0,0,0,0,0c0.1,0.1,0.2,0.1,0.4,0c0.2-0.1,0.3-0.3,0.4-0.5c0.1-0.3,0.2-0.6,0.2-0.9
					c0-0.2,0-0.5,0-0.7c-0.1-0.2-0.2-0.5-0.3-0.7c-0.1-0.3-0.3-0.5-0.4-0.8c-0.1-0.2-0.2-0.4-0.2-0.6c0-0.2,0.2-0.3,0.2-0.5
					c0.3-0.6,0.1-1.3,0.4-1.8c0.1-0.2,0.4-0.4,0.4-0.6c0.1-0.3,0-0.5,0.1-0.8c0.1-0.3,0.2-0.5,0.5-0.7c0.3-0.2,0.6-0.3,0.8-0.5
					c0.6-0.5,0.4-0.9,0.3-1.5c0-0.2,0-0.4,0.1-0.5c0.1-0.1,0.3-0.2,0.4-0.2c0.9-0.2,1.7-0.1,2.4-0.8C77.1,75.4,76.7,74.7,76,74.3z"
					/>
			</g>
		</g>
		<g id="XMLID_400_">
			<path id="XMLID_401_" class="st20" d="M81.6,90.1c0,0,0.1-0.1,0.1-0.1l0.3-0.9c0-0.2,0-0.3-0.2-0.4c-0.2,0-0.3,0-0.4,0.2
				l-0.3,0.9c0,0.2,0,0.3,0.2,0.4C81.4,90.2,81.5,90.2,81.6,90.1z"/>
		</g>
		<g id="XMLID_398_">
			<path id="XMLID_399_" class="st20" d="M82,89.7c0,0,0.1-0.1,0.1-0.1l0.3-0.9c0-0.2,0-0.3-0.2-0.4c-0.2,0-0.3,0-0.4,0.2l-0.3,0.9
				c0,0.2,0,0.3,0.2,0.4C81.8,89.8,81.9,89.8,82,89.7z"/>
		</g>
		<g id="XMLID_396_">
			<path id="XMLID_397_" class="st20" d="M82.1,90.7c0,0,0.1-0.1,0.1-0.1l0.6-2.1c0-0.2,0-0.3-0.2-0.4c-0.2,0-0.3,0-0.4,0.2
				l-0.6,2.1c0,0.2,0,0.3,0.2,0.4C81.9,90.8,82,90.8,82.1,90.7z"/>
		</g>
		<g id="XMLID_394_">
			<path id="XMLID_395_" class="st20" d="M80.4,89.9c0.1,0,0.1-0.1,0.1-0.1l0.6-1c0.1-0.2,0.1-0.4-0.1-0.5c-0.2-0.1-0.4-0.1-0.5,0.1
				l-0.6,1c-0.1,0.2-0.1,0.4,0.1,0.5C80.1,90,80.3,90,80.4,89.9z"/>
		</g>
		<g id="XMLID_392_">
			<path id="XMLID_393_" class="st20" d="M78.4,102c0-0.1,0.1-0.1,0.1-0.2l0.5-2.1c0-0.2-0.1-0.4-0.3-0.4c-0.2,0-0.4,0.1-0.4,0.3
				l-0.5,2.1c0,0.2,0.1,0.4,0.3,0.4C78.2,102.2,78.3,102.1,78.4,102z"/>
		</g>
		<circle id="XMLID_391_" class="st20" cx="80.6" cy="89.8" r="0.9"/>
	</g>
	<g id="XMLID_447_">
		<g id="XMLID_521_">
			<path id="XMLID_37_" class="st20" d="M98.2,167.7c-0.3,0-0.7-0.1-0.9-0.3c-2.5-2-3.9-4.9-4.1-8.1c-0.2-3.2,0.9-6.2,3.1-8.5
				l0.3-0.3c0.5-0.6,1.4-0.6,2-0.1c0.6,0.5,0.6,1.4,0.1,2l-0.3,0.3c-1.7,1.8-2.5,4-2.4,6.5c0.1,2.4,1.2,4.6,3.1,6.1
				c0.6,0.5,0.7,1.4,0.2,2C99,167.5,98.6,167.7,98.2,167.7z"/>
		</g>
		<g id="XMLID_261_">
			<path id="XMLID_36_" class="st3" d="M95.1,156.3c-1-0.1-1.7-1.2-1.2-2.2c0.6-1.3,1.4-2.5,2.4-3.6l0.3-0.3
				c0.6-0.6,1.6-0.6,2.2-0.1c0.6,0.6,0.6,1.6,0.1,2.2l-0.3,0.3c-0.8,0.8-1.4,1.8-1.8,2.8C96.4,156,95.8,156.4,95.1,156.3L95.1,156.3
				z"/>
		</g>
		<path id="XMLID_538_" class="st12" d="M89.9,188.3l-6.6,3.9l0,0.7c0,0.6,0.3,1.2,0.8,1.5l1.3,0.8c0.3,0.2,0.8,0.2,1.1,0l5.1-3
			c0.5-0.3,0.8-0.8,0.8-1.4v-0.8L89.9,188.3z"/>
		<path id="XMLID_537_" class="st12" d="M88.4,188.6l-4.3,2.5c-0.9,0.6-0.9,1.9,0,2.5l1.2,0.7c0.5,0.3,1.1,0.3,1.6,0l4.9-2.9
			c1-0.6,1-2.2,0-2.8l-0.1-0.1C90.6,188,89.3,188,88.4,188.6z"/>
		<g id="XMLID_536_">
			<path id="XMLID_35_" class="st20" d="M91.4,190c-0.1-0.4-0.3-0.8-0.7-1l-0.1-0.1c-0.3-0.2-0.7-0.3-1.1-0.4
				c-0.3,0-0.5,0.1-0.8,0.3l-2.3,1.4c-0.6,0.4-0.6,1.2,0,1.6l0.8,0.5c0.3,0.2,0.7,0.2,1.1,0l2.7-1.6C91.2,190.5,91.4,190.2,91.4,190
				z"/>
		</g>
		<path id="XMLID_535_" class="st12" d="M95.7,191.5l-6.6,3.9l0,0.7c0,0.6,0.3,1.2,0.8,1.5l1.3,0.8c0.3,0.2,0.8,0.2,1.1,0l5.1-3
			c0.5-0.3,0.8-0.8,0.8-1.4V193L95.7,191.5z"/>
		<path id="XMLID_534_" class="st12" d="M94.1,191.7l-4.3,2.5c-0.9,0.6-0.9,1.9,0,2.5l1.2,0.7c0.5,0.3,1.1,0.3,1.6,0l4.9-2.9
			c1-0.6,1-2.2,0-2.8l-0.1-0.1C96.3,191.1,95.1,191.1,94.1,191.7z"/>
		<g id="XMLID_533_">
			<path id="XMLID_33_" class="st20" d="M97.2,193.1c-0.1-0.4-0.3-0.8-0.7-1l-0.1-0.1c-0.3-0.2-0.7-0.3-1.1-0.4
				c-0.3,0-0.5,0.1-0.8,0.3l-2.3,1.4c-0.6,0.4-0.6,1.2,0,1.6l0.8,0.5c0.3,0.2,0.7,0.2,1.1,0l2.7-1.6C97,193.6,97.1,193.3,97.2,193.1
				z"/>
		</g>
		<g id="XMLID_531_">
			<g id="XMLID_532_">
				<path id="XMLID_32_" class="st20" d="M90.1,190.9c-0.8,0-1.4-0.6-1.4-1.4v-9c0-0.8,0.6-1.4,1.4-1.4c0.8,0,1.4,0.6,1.4,1.4v9
					C91.5,190.3,90.9,190.9,90.1,190.9z"/>
			</g>
		</g>
		<path id="XMLID_31_" class="st60" d="M89.1,189.5v-9c0-0.7,0.5-1.3,1.2-1.4c-0.1,0-0.1,0-0.2,0c-0.8,0-1.4,0.6-1.4,1.4v9
			c0,0.8,0.6,1.4,1.4,1.4c0.1,0,0.1,0,0.2,0C89.6,190.8,89.1,190.2,89.1,189.5z"/>
		<g id="XMLID_529_">
			<g id="XMLID_530_">
				<path id="XMLID_30_" class="st20" d="M95.9,194c-0.8,0-1.4-0.6-1.4-1.4v-13.1c0-0.8,0.6-1.4,1.4-1.4c0.8,0,1.4,0.6,1.4,1.4v13.1
					C97.3,193.4,96.6,194,95.9,194z"/>
			</g>
		</g>
		<linearGradient id="XMLID_113_" gradientUnits="userSpaceOnUse" x1="88.1595" y1="171.846" x2="108.8935" y2="171.846">
			<stop  offset="0" style="stop-color:#5D7DBE"/>
			<stop  offset="0.3052" style="stop-color:#5573B1"/>
			<stop  offset="0.872" style="stop-color:#41588E"/>
			<stop  offset="1" style="stop-color:#3C5185"/>
		</linearGradient>
		<path id="XMLID_528_" class="st61" d="M99.6,160.3l-2.7,7.4l-4.7,2.5c-2.1,1.2-4,2.8-4,6.6c0,0-0.1,1.1-0.1,2.4
			c-0.1,2.5,8,3.4,9.7,4.1c0.9,0.4,1.2-4.2,1.2-4.2s0.1-1.2,1.7-2.2l5.5-3.2c3.5-2,3.5-7,0-9L99.6,160.3z"/>
		<path id="XMLID_29_" class="st62" d="M88.8,179.3c0-1.3,0.1-2.4,0.1-2.4c0-3.8,1.8-5.4,4-6.6l4.7-2.5l2.5-7.1l-0.5-0.3l-2.7,7.4
			l-4.7,2.5c-2.1,1.2-4,2.8-4,6.6c0,0-0.1,1.1-0.1,2.4c-0.1,2.5,8,3.4,9.7,4.1c0.1,0,0.2,0,0.3-0.1C96,182.5,88.7,181.6,88.8,179.3z
			"/>
		<g id="XMLID_522_">
			<path id="XMLID_527_" class="st63" d="M88.2,173v0.2c0,0.1,0.1,0.2,0.2,0.3l6,3.5c0.2,0.1,0.6,0.1,0.8,0l9.3-5.4
				c0.1-0.1,0.2-0.2,0.2-0.3v-0.1l-6.1-3.5c-0.2-0.1-0.6-0.1-0.8,0L88.2,173z"/>
			<path id="XMLID_526_" class="st3" d="M88.3,172.8c-0.2,0.1-0.2,0.3,0,0.5l6,3.5c0.2,0.1,0.6,0.1,0.8,0l9.4-5.4
				c0.2-0.1,0.2-0.3,0-0.5l-6-3.5c-0.2-0.1-0.6-0.1-0.8,0L88.3,172.8z"/>
			<linearGradient id="XMLID_114_" gradientUnits="userSpaceOnUse" x1="90.0002" y1="171.9049" x2="103.2699" y2="171.9049">
				<stop  offset="0.1499" style="stop-color:#FF9800"/>
				<stop  offset="1" style="stop-color:#FFC107"/>
			</linearGradient>
			<polygon id="XMLID_525_" class="st64" points="90,172.3 95.9,175.7 103.3,171.5 97.4,168.1 			"/>
			<g id="XMLID_523_">
				<path id="XMLID_524_" class="st12" d="M92.6,174.8C92.6,174.8,92.6,174.8,92.6,174.8l-1.3-0.7c-0.1,0-0.1-0.1,0-0.2
					c0-0.1,0.1-0.1,0.2,0l1.3,0.7C92.7,174.6,92.8,174.7,92.6,174.8C92.7,174.8,92.7,174.8,92.6,174.8z"/>
			</g>
		</g>
		<g id="XMLID_520_">
			<path id="XMLID_81_" class="st12" d="M94.9,142.7l0.1-0.5c0-0.4,0.4-0.8,0.8-1c0.4-0.1,0.9-0.1,1.3-0.1c0.8,0,1.6,0.1,2.4,0.1
				c1.6,0.1,3.3,0.3,4.2,1.6c0.6,0.9,0.5,2.2,1.2,3c0.2,0.3,0.5,0.5,0.7,0.8c0.6,0.8,0.5,1.8,0.2,2.7c-0.1,0.3-0.2,0.6-0.4,0.8
				c-0.4,0.3-1,0.2-1.5-0.1c-0.4-0.3-0.8-0.7-1.3-0.9c-0.8-0.3-1.6-0.1-2.4-0.3c-1.5-0.5-2-2.6-3.5-3.2c-0.5-0.2-1-0.2-1.4-0.5
				C94.6,144.7,94.7,143.6,94.9,142.7z"/>
		</g>
		<path id="XMLID_519_" class="st3" d="M108.4,154c-0.5-1.2-1.8-2.8-2.9-3.4l-4-2.3l-2.8,0c-0.6,0-1.1,0.3-1.5,0.7l0,0
			c-0.3,0.4-0.5,1.2-0.5,1.7v1.5l-0.8,2.9c-0.1,0.5,0,1.1,0.3,1.6l0.5,0.7c0.9,1.3,1.4,2.9,1.2,4.6l-0.3,5
			c2.1,4.4,11.5,0.5,11.5,0.5C108.2,160.7,110.4,159.2,108.4,154z"/>
		<path id="XMLID_28_" class="st65" d="M98.3,167l0.3-5c0.1-1.6-0.3-3.2-1.2-4.6l-0.5-0.7c-0.3-0.5-0.4-1-0.3-1.6l0.8-2.9v-1.5
			c0-0.5,0.2-1.4,0.5-1.7c0.4-0.4,0.9-0.7,1.5-0.7l2.2,0l0,0l-2.8,0c-0.6,0-1.1,0.3-1.5,0.7c-0.3,0.4-0.5,1.2-0.5,1.7v1.5l-0.8,2.9
			c-0.1,0.5,0,1.1,0.3,1.6l0.5,0.7c0.9,1.3,1.4,2.9,1.2,4.6l-0.3,5c0.8,1.7,2.7,2.1,4.7,2.1C100.6,169.1,99,168.5,98.3,167z"/>
		<g id="XMLID_517_">
			<g id="XMLID_518_">
				<path id="XMLID_27_" class="st20" d="M102.6,151.8c0.8,0,1.4-0.6,1.4-1.4v-4.9c0-0.8-0.6-1.4-1.4-1.4c-0.8,0-1.4,0.6-1.4,1.4
					v4.9C101.2,151.2,101.9,151.8,102.6,151.8z"/>
			</g>
		</g>
		<g id="XMLID_515_">
			<path id="XMLID_26_" class="st20" d="M102.5,148.6l0.8-0.2l-2.3-7.4l-5.6,1.7l0.8,2.5C97,147.9,99.8,149.4,102.5,148.6z"/>
		</g>
		<path id="XMLID_25_" class="st66" d="M101.4,168.4l-0.8,0.6c1.6,0.3,3.4,0,5-0.4c3.2-3.9,4-9.3,1.8-14c-0.4-0.8-1.5,1.3-1.5,1.3
			C107.9,160.2,105.3,165.5,101.4,168.4z"/>
		<g id="XMLID_513_">
			<path id="XMLID_24_" class="st20" d="M101,171.3c-0.4,0-0.9-0.1-1.2-0.5c-0.5-0.6-0.5-1.5,0.1-2l2.7-2.4c3.2-2.9,4-7.7,1.9-11.4
				c-0.4-0.7-0.2-1.5,0.5-1.9c0.7-0.4,1.5-0.2,1.9,0.5c2.8,4.9,1.8,11.2-2.4,14.9l-2.7,2.4C101.6,171.2,101.3,171.3,101,171.3z"/>
		</g>
		<g id="XMLID_251_">
			<path id="XMLID_22_" class="st3" d="M107,159.8c-0.8,0-1.4-0.6-1.6-1.4c-0.2-1.2-0.6-2.4-1.3-3.5c-0.5-0.8-0.2-1.8,0.6-2.3
				c0.8-0.5,1.8-0.2,2.3,0.6c0.8,1.4,1.4,3,1.6,4.5C108.9,158.8,108,159.8,107,159.8L107,159.8z"/>
		</g>
		<g id="XMLID_507_">
			<path id="XMLID_21_" class="st12" d="M107.1,155.5c0.4,0,0.8,0.1,1.2,0.2c0.4,0.2,0.7,0.4,1.1,0.3c0.5-0.1,0.7-0.7,0.8-1.3
				c0.1-0.4,0.1-0.9,0-1.3c-0.1-0.6-0.6-1-0.9-1.5c-0.5-0.7-0.8-1.6-0.9-2.4c-0.1-0.6,0-1.3-0.1-2c-0.1-0.8-0.4-1.3-0.8-1.9
				c-0.5-0.7-0.6-1.6-1.1-2.4c-0.5-0.7-1.3-1.2-1.8-1.9c-0.6-0.7-0.9-1.2-1.7-1.7c-0.6-0.4-1.2-0.9-2-1c-0.6-0.1-1,0.1-1.6,0.2
				c-0.6,0.1-1.1,0-1.7,0.1c-1.1,0.3-2.2,0.8-3,1.7c-0.6,0.7-0.8,1.5,0.1,2c1,0.5,1.9,0.1,3,0.1c0.2,0,0.4,0,0.6,0.1
				c0.4,0.3,0.2,1.4,0.4,1.9c0.1,0.5,0.4,1,0.8,1.3c0.4,0.3,0.8,0.4,1.3,0.6c0.4,0.2,0.9,0.4,1.1,0.8c0.4,0.8-0.1,1.7-0.1,2.5
				c0,0.5,0.2,1,0.6,1.4c0.3,0.2,0.6,0.4,0.8,0.7c0.2,0.3,0.2,0.7,0.3,1c0.1,0.5,0.1,0.9,0.3,1.4c0.4,0.9,1,1.3,2,1.3
				c0.4,0,0.7-0.1,1.1-0.1C107,155.5,107.1,155.5,107.1,155.5z"/>
		</g>
		<g id="XMLID_449_">
			<path id="XMLID_19_" class="st20" d="M100.2,168.8l-2.1,1.9c-0.2,0.1-0.2,0.4,0,0.6l0,0c0.1,0.1,0.4,0.1,0.5,0l2.1-1.9
				L100.2,168.8z"/>
		</g>
		<g id="XMLID_448_">
			<path id="XMLID_8_" class="st20" d="M102.4,168.1l-3.1,0.5c-0.2,0-0.4,0.3-0.4,0.5l0,0c0,0.2,0.3,0.4,0.5,0.3l3.1-0.4
				L102.4,168.1z"/>
		</g>
		<g id="XMLID_512_">
			<path id="XMLID_6_" class="st20" d="M98.2,167.7c-0.3,0-0.7-0.1-0.9-0.3c-3-2.5-4.5-6.3-4-10.1c0.1-0.8,0.6-0.6,1.3-0.5
				c0.8,0.1,1.5,0.1,1.4,0.8c-0.3,2.9,0.8,5.8,3.1,7.7c0.6,0.5,0.7,1.4,0.2,2C99,167.5,98.6,167.7,98.2,167.7z"/>
		</g>
		<g id="XMLID_506_">
			<path id="XMLID_5_" class="st20" d="M96.7,164.7l2.7,0.7c0.2,0.1,0.4-0.1,0.5-0.3l0,0c0-0.2-0.1-0.4-0.3-0.4l-2.7-0.7L96.7,164.7
				z"/>
		</g>
		<g id="XMLID_250_">
			<path id="XMLID_4_" class="st20" d="M96.2,166.2l1.7,2.2c0.1,0.2,0.4,0.2,0.5,0l0,0c0.2-0.1,0.2-0.4,0-0.5l-1.7-2.2L96.2,166.2z"
				/>
		</g>
		<g id="XMLID_262_">
			<path id="XMLID_3_" class="st20" d="M97.1,166.1l1.7,2.2c0.1,0.2,0.4,0.2,0.5,0l0,0c0.2-0.1,0.2-0.4,0-0.5l-1.7-2.2L97.1,166.1z"
				/>
		</g>
		<g id="XMLID_267_">
			<path id="XMLID_2_" class="st20" d="M97.9,165.9l1.7,2.2c0.1,0.2,0.4,0.2,0.5,0l0,0c0.2-0.1,0.2-0.4,0-0.5l-1.7-2.2L97.9,165.9z"
				/>
		</g>
		<g id="XMLID_266_">
			<path id="XMLID_1_" class="st20" d="M97.9,165.3l2.1,1.9c0.2,0.1,0.4,0.1,0.5,0l0,0c0.1-0.2,0.1-0.4,0-0.5l-2.1-1.9L97.9,165.3z"
				/>
		</g>
	</g>
</g>
</svg>
