<?xml version="1.0" encoding="utf-8"?>
<!-- Generator: Adobe Illustrator 19.0.0, SVG Export Plug-In . SVG Version: 6.00 Build 0)  -->
<svg version="1.1" id="Layer_1" xmlns="http://www.w3.org/2000/svg" xmlns:xlink="http://www.w3.org/1999/xlink" x="0px" y="0px"
	 viewBox="0 0 256 256" style="enable-background:new 0 0 256 256;" xml:space="preserve">
<style type="text/css">
	.st0{fill:url(#XMLID_19_);}
	.st1{fill:url(#XMLID_20_);}
	.st2{fill:#3C5185;}
	.st3{fill:#2842A2;}
	.st4{opacity:0.83;fill:url(#XMLID_22_);}
	.st5{fill:#FFFFFF;}
	.st6{opacity:0.49;fill:#6E84B5;}
	.st7{fill:url(#SVGID_1_);}
	.st8{opacity:0.7;}
	.st9{opacity:0;fill:#3C5185;}
	.st10{opacity:2.439000e-002;fill:#3C5185;}
	.st11{opacity:4.878000e-002;fill:#3C5185;}
	.st12{opacity:7.317100e-002;fill:#3C5185;}
	.st13{opacity:9.756100e-002;fill:#3C5185;}
	.st14{opacity:0.122;fill:#3C5185;}
	.st15{opacity:0.1463;fill:#3C5185;}
	.st16{opacity:0.1707;fill:#3C5185;}
	.st17{opacity:0.1951;fill:#3C5185;}
	.st18{opacity:0.2195;fill:#3C5185;}
	.st19{opacity:0.2439;fill:#3C5185;}
	.st20{opacity:0.2683;fill:#3C5185;}
	.st21{opacity:0.2927;fill:#3C5185;}
	.st22{opacity:0.3171;fill:#3C5185;}
	.st23{opacity:0.3415;fill:#3C5185;}
	.st24{opacity:0.3659;fill:#3C5185;}
	.st25{opacity:0.3902;fill:#3C5185;}
	.st26{opacity:0.4146;fill:#3C5185;}
	.st27{opacity:0.439;fill:#3C5185;}
	.st28{opacity:0.4634;fill:#3C5185;}
	.st29{opacity:0.4878;fill:#3C5185;}
	.st30{opacity:0.5122;fill:#3C5185;}
	.st31{opacity:0.5366;fill:#3C5185;}
	.st32{opacity:0.561;fill:#3C5185;}
	.st33{opacity:0.5854;fill:#3C5185;}
	.st34{opacity:0.6098;fill:#3C5185;}
	.st35{opacity:0.6341;fill:#3C5185;}
	.st36{opacity:0.6585;fill:#3C5185;}
	.st37{opacity:0.6829;fill:#3C5185;}
	.st38{opacity:0.7073;fill:#3C5185;}
	.st39{opacity:0.7317;fill:#3C5185;}
	.st40{opacity:0.7561;fill:#3C5185;}
	.st41{opacity:0.7805;fill:#3C5185;}
	.st42{opacity:0.8049;fill:#3C5185;}
	.st43{opacity:0.8293;fill:#3C5185;}
	.st44{opacity:0.8537;fill:#3C5185;}
	.st45{opacity:0.878;fill:#3C5185;}
	.st46{opacity:0.9024;fill:#3C5185;}
	.st47{opacity:0.9268;fill:#3C5185;}
	.st48{opacity:0.9512;fill:#3C5185;}
	.st49{opacity:0.9756;fill:#3C5185;}
	.st50{fill:url(#XMLID_409_);}
	.st51{fill:#EDF3FA;}
	.st52{fill:url(#XMLID_410_);}
	.st53{fill:#D1E1F2;}
	.st54{fill:url(#XMLID_411_);}
	.st55{fill:#7EA7DF;}
	.st56{fill:#E3EDF7;}
	.st57{opacity:0.15;fill:#3C5185;}
	.st58{fill:url(#XMLID_412_);}
	.st59{fill:#FFC107;}
	.st60{fill:url(#XMLID_415_);}
	.st61{fill:#F2B1B5;}
	.st62{fill:url(#XMLID_418_);}
	.st63{fill:url(#XMLID_419_);}
	.st64{fill:url(#XMLID_420_);}
	.st65{opacity:0.2;fill:#3C5185;}
	.st66{fill:url(#XMLID_421_);}
	.st67{fill:url(#XMLID_422_);}
	.st68{fill:url(#XMLID_423_);}
	.st69{fill:#4A65A3;}
	.st70{opacity:0.32;}
	.st71{fill:#231F20;}
	.st72{fill:#EBE9EC;}
	.st73{fill:url(#XMLID_424_);}
	.st74{fill:url(#XMLID_425_);}
	.st75{fill:url(#XMLID_426_);}
	.st76{fill:url(#XMLID_427_);}
	.st77{fill:url(#XMLID_428_);}
	.st78{opacity:0.4;}
	.st79{fill:url(#XMLID_429_);}
	.st80{fill:#F6F9FC;}
	.st81{fill:url(#XMLID_430_);}
	.st82{fill:url(#XMLID_431_);}
	.st83{fill:url(#XMLID_432_);}
	.st84{fill:url(#XMLID_433_);}
	.st85{fill:url(#XMLID_434_);}
	.st86{fill:url(#XMLID_435_);}
	.st87{fill:url(#XMLID_436_);}
	.st88{opacity:0.3;fill:#3C5185;}
	.st89{fill:url(#XMLID_437_);}
	.st90{fill:url(#XMLID_438_);}
	.st91{fill:url(#XMLID_439_);}
	.st92{fill:url(#XMLID_440_);}
	.st93{fill:url(#XMLID_441_);}
	.st94{fill:url(#XMLID_442_);}
	.st95{fill:url(#XMLID_443_);}
</style>
<g>
	<linearGradient id="XMLID_19_" gradientUnits="userSpaceOnUse" x1="142.3199" y1="213.9057" x2="96.1344" y2="63.3005">
		<stop  offset="0.1445" style="stop-color:#FFFFFF"/>
		<stop  offset="1" style="stop-color:#E1EBF7"/>
	</linearGradient>
	<path id="XMLID_408_" class="st0" d="M203.1,141.3c0,42.4-41.9,72.4-84.4,72.4s-81.9-29.9-81.9-72.4s40.4-81.9,82.9-81.9
		S203.1,98.9,203.1,141.3z"/>
	<g>
		
			<radialGradient id="XMLID_20_" cx="76.8505" cy="7760.0474" r="13.108" gradientTransform="matrix(1 0 0 0.5172 0 -3893.1953)" gradientUnits="userSpaceOnUse">
			<stop  offset="0" style="stop-color:#3C5185"/>
			<stop  offset="5.193542e-002" style="stop-color:#596B97"/>
			<stop  offset="0.1411" style="stop-color:#8592B3"/>
			<stop  offset="0.2346" style="stop-color:#ABB4CA"/>
			<stop  offset="0.3312" style="stop-color:#C9CFDD"/>
			<stop  offset="0.432" style="stop-color:#E1E4EC"/>
			<stop  offset="0.5389" style="stop-color:#F2F3F7"/>
			<stop  offset="0.6559" style="stop-color:#FCFCFD"/>
			<stop  offset="0.8023" style="stop-color:#FFFFFF"/>
		</radialGradient>
		<path id="XMLID_782_" class="st1" d="M67.7,114.6c5-2.9,13.3-2.9,18.4,0c5,2.9,5,7.7,0,10.6c-5,2.9-13.3,2.9-18.4,0
			C62.6,122.3,62.6,117.6,67.7,114.6z"/>
		<g id="XMLID_774_">
			<path id="XMLID_781_" class="st2" d="M79.5,119.1l-0.5,0.4h-4.6l-0.5-0.5c-1.5-1.3-2.3-3.2-2.3-5.2v-2h10.4v1.8
				C82.1,115.8,81.2,117.7,79.5,119.1z"/>
			<path id="XMLID_780_" class="st2" d="M77.5,120.9h-1.7c-0.8,0-1.5-0.7-1.5-1.5l0,0h4.7l0,0C79.1,120.3,78.4,120.9,77.5,120.9z"/>
			<path id="XMLID_779_" class="st3" d="M80.5,109.7c-2-1.2-5.3-1.2-7.4,0c-2,1.2-2,3.1,0,4.3c2,1.2,5.3,1.2,7.4,0
				C82.6,112.8,82.6,110.9,80.5,109.7z"/>
			<linearGradient id="XMLID_22_" gradientUnits="userSpaceOnUse" x1="67.3427" y1="103.5872" x2="86.4113" y2="103.5872">
				<stop  offset="2.123250e-002" style="stop-color:#FFC107"/>
				<stop  offset="0.1431" style="stop-color:#FFBC06"/>
				<stop  offset="1" style="stop-color:#FF9800"/>
			</linearGradient>
			<path id="XMLID_778_" class="st4" d="M76.9,92.3c-5.3,0-9.5,4.3-9.5,9.5c0,3.3,1.7,6.3,4.3,8v2.2l0,0c0,0.7,0.6,1.5,1.6,2.1
				c2,1.2,5.3,1.1,7.3,0c1-0.6,1.5-1.3,1.5-2h0v-2.2c2.6-1.7,4.3-4.6,4.3-8C86.4,96.6,82.1,92.3,76.9,92.3z"/>
			<path id="XMLID_777_" class="st5" d="M71.5,102.9c0-3.4,2.8-6.2,6.2-6.2c3.2,0,2.9-2.7-1.1-2.7c-4.1,0-7.4,3.3-7.4,7.4
				C69.3,103.9,71.5,105.1,71.5,102.9z"/>
			<path id="XMLID_776_" class="st6" d="M80.6,114.8c-2,1.2-5.3,1.2-7.3,0c-1-0.6-1.5-1.3-1.6-2.1v0.7c0,0.7,0.6,1.5,1.6,2.1
				c2,1.2,5.3,1.1,7.3,0c1-0.6,1.5-1.3,1.5-2h0v-0.7h0C82,113.5,81.5,114.3,80.6,114.8z"/>
			<path id="XMLID_775_" class="st6" d="M80.5,116.9c-2,1.2-5.3,1.2-7.3,0c-0.6-0.3-1-0.7-1.3-1.1c0.1,0.5,0.3,0.9,0.5,1.3
				c0.2,0.2,0.4,0.4,0.7,0.5c2,1.2,5.3,1.1,7.3,0c0.2-0.1,0.4-0.3,0.6-0.4c0.3-0.5,0.5-0.9,0.6-1.5
				C81.5,116.2,81.1,116.6,80.5,116.9z"/>
			<linearGradient id="SVGID_1_" gradientUnits="userSpaceOnUse" x1="61.192" y1="90.5888" x2="92.6647" y2="90.5888">
				<stop  offset="2.123250e-002" style="stop-color:#FFC107"/>
				<stop  offset="0.1431" style="stop-color:#FFBC06"/>
				<stop  offset="1" style="stop-color:#FF9800"/>
			</linearGradient>
			<path class="st7" d="M76.8,91.5C76.8,91.5,76.8,91.5,76.8,91.5c-0.4,0-0.8-0.4-0.8-0.8l0-6c0-0.4,0.3-0.8,0.8-0.8c0,0,0,0,0,0
				c0.4,0,0.8,0.4,0.8,0.8l0,6C77.6,91.2,77.3,91.5,76.8,91.5z M83.2,92.6l3-5.1c0.2-0.4,0.1-0.8-0.3-1.1c-0.4-0.2-0.8-0.1-1.1,0.3
				l-3,5.1c-0.2,0.4-0.1,0.8,0.3,1.1c0.1,0.1,0.3,0.1,0.4,0.1C82.8,93,83.1,92.9,83.2,92.6z M87.1,97.1l5.2-2.9
				c0.4-0.2,0.5-0.7,0.3-1.1c-0.2-0.4-0.7-0.5-1.1-0.3l-5.2,2.9c-0.4,0.2-0.5,0.7-0.3,1.1c0.1,0.3,0.4,0.4,0.7,0.4
				C86.8,97.2,87,97.1,87.1,97.1z M67.7,96.7c0.2-0.4,0.1-0.8-0.3-1.1l-5.1-3.1c-0.4-0.2-0.8-0.1-1.1,0.3c-0.2,0.4-0.1,0.8,0.3,1.1
				l5.1,3.1c0.1,0.1,0.3,0.1,0.4,0.1C67.3,97.1,67.6,97,67.7,96.7z M71.7,92.9c0.4-0.2,0.5-0.7,0.3-1.1l-2.9-5.2
				c-0.2-0.4-0.7-0.5-1.1-0.3c-0.4,0.2-0.5,0.7-0.3,1.1l2.9,5.2c0.1,0.3,0.4,0.4,0.7,0.4C71.4,93,71.5,92.9,71.7,92.9z"/>
		</g>
	</g>
	<g>
		<g class="st8">
			<path id="XMLID_773_" class="st9" d="M98.9,116.2l-45.8,26.2c-1,0.6-1,2,0,2.6l71.3,41.2c1.8,1.1,4.1,1.1,5.9,0l45.8-26.2
				c1-0.6,1-2,0-2.6l-71.3-41.2C103,115.2,100.8,115.2,98.9,116.2z"/>
			<path id="XMLID_370_" class="st10" d="M99,116.3l-45.7,26.1c-1,0.6-1,2,0,2.6l71.1,41.1c1.8,1,4.1,1.1,5.9,0l45.7-26.1
				c1-0.6,1-2,0-2.6l-71.1-41.1C103,115.3,100.8,115.2,99,116.3z"/>
			<path id="XMLID_369_" class="st11" d="M99,116.3l-45.5,26c-1,0.6-1,2,0,2.6l70.9,40.9c1.8,1,4,1,5.9,0l45.5-26c1-0.6,1-2,0-2.6
				l-70.9-40.9C103.1,115.3,100.8,115.3,99,116.3z"/>
			<path id="XMLID_368_" class="st12" d="M99.1,116.4l-45.4,26c-1,0.6-1,2,0,2.6l70.7,40.8c1.8,1,4,1,5.8,0l45.4-26c1-0.6,1-2,0-2.6
				l-70.7-40.8C103.1,115.3,100.9,115.3,99.1,116.4z"/>
			<path id="XMLID_367_" class="st13" d="M99.1,116.4l-45.3,25.9c-1,0.6-1,2,0,2.5l70.5,40.7c1.8,1,4,1,5.8,0l45.3-25.9
				c1-0.6,1-2,0-2.5l-70.5-40.7C103.1,115.4,100.9,115.4,99.1,116.4z"/>
			<path id="XMLID_366_" class="st14" d="M99.2,116.5L54,142.2c-1,0.6-1,2,0,2.5l70.3,40.6c1.8,1,4,1,5.8,0l45.1-25.8
				c1-0.6,1-2,0-2.5L105,116.5C103.2,115.4,101,115.4,99.2,116.5z"/>
			<path id="XMLID_365_" class="st15" d="M99.2,116.5l-45,25.7c-1,0.6-1,2,0,2.5l70,40.4c1.8,1,4,1,5.8,0l45-25.7c1-0.6,1-2,0-2.5
				l-70-40.4C103.2,115.5,101,115.5,99.2,116.5z"/>
			<path id="XMLID_364_" class="st16" d="M99.3,116.5l-44.8,25.6c-1,0.6-1,2,0,2.5l69.8,40.3c1.8,1,4,1,5.8,0l44.8-25.6
				c1-0.6,1-2,0-2.5L105,116.6C103.2,115.5,101.1,115.5,99.3,116.5z"/>
			<path id="XMLID_363_" class="st17" d="M99.3,116.6l-44.7,25.6c-1,0.6-1,2,0,2.5l69.6,40.2c1.8,1,4,1,5.7,0l44.7-25.6
				c1-0.6,1-2,0-2.5l-69.6-40.2C103.3,115.6,101.1,115.6,99.3,116.6z"/>
			<path id="XMLID_362_" class="st18" d="M99.4,116.6l-44.6,25.5c-1,0.6-1,1.9,0,2.5l69.4,40.1c1.8,1,4,1,5.7,0l44.6-25.5
				c1-0.6,1-1.9,0-2.5l-69.4-40.1C103.3,115.6,101.1,115.6,99.4,116.6z"/>
			<path id="XMLID_361_" class="st19" d="M99.4,116.7L55,142.1c-1,0.6-1,1.9,0,2.5l69.2,39.9c1.8,1,3.9,1,5.7,0l44.4-25.4
				c1-0.6,1-1.9,0-2.5l-69.2-39.9C103.4,115.7,101.2,115.7,99.4,116.7z"/>
			<path id="XMLID_360_" class="st20" d="M99.5,116.7L55.2,142c-1,0.6-1,1.9,0,2.5l68.9,39.8c1.8,1,3.9,1,5.7,0l44.3-25.3
				c1-0.6,1-1.9,0-2.5l-68.9-39.8C103.4,115.7,101.2,115.7,99.5,116.7z"/>
			<path id="XMLID_359_" class="st21" d="M99.5,116.8L55.4,142c-1,0.5-1,1.9,0,2.5l68.7,39.7c1.8,1,3.9,1,5.7,0l44.1-25.2
				c1-0.5,1-1.9,0-2.5l-68.7-39.7C103.4,115.8,101.3,115.7,99.5,116.8z"/>
			<path id="XMLID_358_" class="st22" d="M99.5,116.8l-44,25.2c-1,0.5-1,1.9,0,2.5l68.5,39.6c1.7,1,3.9,1,5.7,0l44-25.2
				c1-0.5,1-1.9,0-2.5l-68.5-39.6C103.5,115.8,101.3,115.8,99.5,116.8z"/>
			<path id="XMLID_357_" class="st23" d="M99.6,116.8l-43.9,25.1c-1,0.5-1,1.9,0,2.5l68.3,39.4c1.7,1,3.9,1,5.6,0l43.9-25.1
				c1-0.5,1-1.9,0-2.5l-68.3-39.4C103.5,115.8,101.3,115.8,99.6,116.8z"/>
			<path id="XMLID_356_" class="st24" d="M99.6,116.9l-43.7,25c-1,0.5-1,1.9,0,2.5l68.1,39.3c1.7,1,3.9,1,5.6,0l43.7-25
				c1-0.5,1-1.9,0-2.5l-68.1-39.3C103.5,115.9,101.4,115.9,99.6,116.9z"/>
			<path id="XMLID_355_" class="st25" d="M99.7,116.9l-43.6,24.9c-0.9,0.5-1,1.9,0,2.5l67.9,39.2c1.7,1,3.9,1,5.6,0l43.6-24.9
				c0.9-0.5,1-1.9,0-2.5l-67.9-39.2C103.6,115.9,101.4,115.9,99.7,116.9z"/>
			<path id="XMLID_354_" class="st26" d="M99.7,117l-43.4,24.8c-0.9,0.5-0.9,1.9,0,2.4l67.6,39.1c1.7,1,3.9,1,5.6,0l43.4-24.8
				c0.9-0.5,0.9-1.9,0-2.4L105.3,117C103.6,116,101.5,116,99.7,117z"/>
			<path id="XMLID_353_" class="st27" d="M99.8,117l-43.3,24.8c-0.9,0.5-0.9,1.9,0,2.4l67.4,38.9c1.7,1,3.8,1,5.6,0l43.3-24.8
				c0.9-0.5,0.9-1.9,0-2.4L105.4,117C103.6,116,101.5,116,99.8,117z"/>
			<path id="XMLID_352_" class="st28" d="M99.8,117.1l-43.2,24.7c-0.9,0.5-0.9,1.9,0,2.4l67.2,38.8c1.7,1,3.8,1,5.5,0l43.2-24.7
				c0.9-0.5,0.9-1.9,0-2.4l-67.2-38.8C103.7,116.1,101.6,116.1,99.8,117.1z"/>
			<path id="XMLID_351_" class="st29" d="M99.9,117.1l-43,24.6c-0.9,0.5-0.9,1.9,0,2.4l67,38.7c1.7,1,3.8,1,5.5,0l43-24.6
				c0.9-0.5,0.9-1.9,0-2.4l-67-38.7C103.7,116.1,101.6,116.1,99.9,117.1z"/>
			<path id="XMLID_350_" class="st30" d="M99.9,117.1L57,141.7c-0.9,0.5-0.9,1.9,0,2.4l66.8,38.6c1.7,1,3.8,1,5.5,0l42.9-24.5
				c0.9-0.5,0.9-1.9,0-2.4l-66.8-38.6C103.7,116.2,101.6,116.2,99.9,117.1z"/>
			<path id="XMLID_349_" class="st31" d="M100,117.2l-42.8,24.4c-0.9,0.5-0.9,1.9,0,2.4l66.6,38.4c1.7,1,3.8,1,5.5,0L172,158
				c0.9-0.5,0.9-1.9,0-2.4l-66.6-38.4C103.8,116.2,101.7,116.2,100,117.2z"/>
			<path id="XMLID_348_" class="st32" d="M100,117.2l-42.6,24.4c-0.9,0.5-0.9,1.9,0,2.4l66.3,38.3c1.7,1,3.8,1,5.5,0l42.6-24.4
				c0.9-0.5,0.9-1.9,0-2.4l-66.3-38.3C103.8,116.3,101.7,116.3,100,117.2z"/>
			<path id="XMLID_347_" class="st33" d="M100.1,117.3l-42.5,24.3c-0.9,0.5-0.9,1.9,0,2.4l66.1,38.2c1.7,1,3.8,1,5.5,0l42.5-24.3
				c0.9-0.5,0.9-1.9,0-2.4l-66.1-38.2C103.8,116.3,101.8,116.3,100.1,117.3z"/>
			<path id="XMLID_346_" class="st34" d="M100.1,117.3l-42.3,24.2c-0.9,0.5-0.9,1.9,0,2.4l65.9,38.1c1.7,1,3.8,1,5.4,0l42.3-24.2
				c0.9-0.5,0.9-1.9,0-2.4l-65.9-38.1C103.9,116.3,101.8,116.3,100.1,117.3z"/>
			<path id="XMLID_345_" class="st35" d="M100.2,117.3L58,141.5c-0.9,0.5-0.9,1.8,0,2.4l65.7,37.9c1.7,1,3.7,1,5.4,0l42.2-24.1
				c0.9-0.5,0.9-1.8,0-2.4l-65.7-37.9C103.9,116.4,101.9,116.4,100.2,117.3z"/>
			<path id="XMLID_344_" class="st36" d="M100.2,117.4l-42.1,24c-0.9,0.5-0.9,1.8,0,2.4l65.5,37.8c1.7,1,3.7,1,5.4,0l42.1-24
				c0.9-0.5,0.9-1.8,0-2.4l-65.5-37.8C104,116.4,101.9,116.4,100.2,117.4z"/>
			<path id="XMLID_343_" class="st37" d="M100.3,117.4l-41.9,24c-0.9,0.5-0.9,1.8,0,2.4l65.3,37.7c1.7,1,3.7,1,5.4,0l41.9-24
				c0.9-0.5,0.9-1.8,0-2.4l-65.3-37.7C104,116.5,101.9,116.5,100.3,117.4z"/>
			<path id="XMLID_342_" class="st38" d="M100.3,117.5l-41.8,23.9c-0.9,0.5-0.9,1.8,0,2.4l65,37.6c1.7,1,3.7,1,5.4,0l41.8-23.9
				c0.9-0.5,0.9-1.8,0-2.4l-65-37.6C104,116.5,102,116.5,100.3,117.5z"/>
			<path id="XMLID_341_" class="st39" d="M100.4,117.5l-41.6,23.8c-0.9,0.5-0.9,1.8,0,2.3l64.8,37.4c1.7,1,3.7,1,5.4,0l41.6-23.8
				c0.9-0.5,0.9-1.8,0-2.3l-64.8-37.4C104.1,116.6,102,116.6,100.4,117.5z"/>
			<path id="XMLID_340_" class="st40" d="M100.4,117.6l-41.5,23.7c-0.9,0.5-0.9,1.8,0,2.3l64.6,37.3c1.6,1,3.7,1,5.3,0l41.5-23.7
				c0.9-0.5,0.9-1.8,0-2.3l-64.6-37.3C104.1,116.6,102.1,116.6,100.4,117.6z"/>
			<path id="XMLID_339_" class="st41" d="M100.5,117.6l-41.4,23.6c-0.9,0.5-0.9,1.8,0,2.3l64.4,37.2c1.6,0.9,3.7,1,5.3,0l41.4-23.6
				c0.9-0.5,0.9-1.8,0-2.3l-64.4-37.2C104.1,116.7,102.1,116.7,100.5,117.6z"/>
			<path id="XMLID_338_" class="st42" d="M100.5,117.6l-41.2,23.6c-0.9,0.5-0.9,1.8,0,2.3l64.2,37.1c1.6,0.9,3.7,1,5.3,0L170,157
				c0.9-0.5,0.9-1.8,0-2.3l-64.2-37.1C104.2,116.7,102.1,116.7,100.5,117.6z"/>
			<path id="XMLID_337_" class="st43" d="M100.6,117.7l-41.1,23.5c-0.9,0.5-0.9,1.8,0,2.3l64,36.9c1.6,0.9,3.6,0.9,5.3,0l41.1-23.5
				c0.9-0.5,0.9-1.8,0-2.3l-64-36.9C104.2,116.8,102.2,116.8,100.6,117.7z"/>
			<path id="XMLID_336_" class="st44" d="M100.6,117.7l-40.9,23.4c-0.9,0.5-0.9,1.8,0,2.3l63.7,36.8c1.6,0.9,3.6,0.9,5.3,0
				l40.9-23.4c0.9-0.5,0.9-1.8,0-2.3l-63.7-36.8C104.2,116.8,102.2,116.8,100.6,117.7z"/>
			<path id="XMLID_335_" class="st45" d="M100.6,117.8l-40.8,23.3c-0.9,0.5-0.9,1.8,0,2.3l63.5,36.7c1.6,0.9,3.6,0.9,5.2,0
				l40.8-23.3c0.9-0.5,0.9-1.8,0-2.3l-63.5-36.7C104.3,116.8,102.3,116.8,100.6,117.8z"/>
			<path id="XMLID_334_" class="st46" d="M100.7,117.8L60,141.1c-0.9,0.5-0.9,1.8,0,2.3l63.3,36.6c1.6,0.9,3.6,0.9,5.2,0l40.7-23.2
				c0.9-0.5,0.9-1.8,0-2.3l-63.3-36.6C104.3,116.9,102.3,116.9,100.7,117.8z"/>
			<path id="XMLID_333_" class="st47" d="M100.7,117.9L60.2,141c-0.9,0.5-0.9,1.8,0,2.3l63.1,36.4c1.6,0.9,3.6,0.9,5.2,0l40.5-23.2
				c0.9-0.5,0.9-1.8,0-2.3L106,117.9C104.3,116.9,102.4,116.9,100.7,117.9z"/>
			<path id="XMLID_332_" class="st48" d="M100.8,117.9L60.4,141c-0.9,0.5-0.9,1.8,0,2.3l62.9,36.3c1.6,0.9,3.6,0.9,5.2,0l40.4-23.1
				c0.9-0.5,0.9-1.8,0-2.3L106,117.9C104.4,117,102.4,117,100.8,117.9z"/>
			<path id="XMLID_331_" class="st49" d="M100.8,117.9l-40.2,23c-0.9,0.5-0.9,1.8,0,2.3l62.7,36.2c1.6,0.9,3.6,0.9,5.2,0l40.2-23
				c0.9-0.5,0.9-1.8,0-2.3L106,118C104.4,117,102.4,117,100.8,117.9z"/>
			<path id="XMLID_772_" class="st2" d="M100.9,118l-40.1,22.9c-0.9,0.5-0.9,1.8,0,2.3l62.4,36c1.6,0.9,3.6,0.9,5.2,0l40.1-22.9
				c0.9-0.5,0.9-1.8,0-2.3L106,118C104.4,117.1,102.5,117.1,100.9,118z"/>
		</g>
		<g>
			<linearGradient id="XMLID_409_" gradientUnits="userSpaceOnUse" x1="103.7556" y1="105.1187" x2="176.5822" y2="105.1187">
				<stop  offset="0" style="stop-color:#FFFFFF"/>
				<stop  offset="0.3956" style="stop-color:#D5E7F8"/>
				<stop  offset="0.7864" style="stop-color:#B2D3F1"/>
				<stop  offset="0.9962" style="stop-color:#A5CBEF"/>
			</linearGradient>
			<path id="XMLID_771_" class="st50" d="M175.1,97.1l-69.2-40c-0.9-0.5-2.1,0.1-2.1,1.2v52.2c0,1.1,0.6,2.1,1.5,2.6l69.2,40
				c0.9,0.5,2.1-0.1,2.1-1.2V99.7C176.6,98.6,176,97.6,175.1,97.1z"/>
			<path id="XMLID_770_" class="st2" d="M174.2,97.7l-69.2-40c-0.9-0.5-2.1,0.1-2.1,1.2v52.2c0,1.1,0.6,2.1,1.5,2.6l69.2,40
				c0.9,0.5,2.1-0.1,2.1-1.2v-52.2C175.7,99.2,175.1,98.2,174.2,97.7z"/>
			<polygon id="XMLID_769_" class="st51" points="171.6,101 106.5,63.2 106.5,110.9 171.6,148.7 			"/>
			<linearGradient id="XMLID_410_" gradientUnits="userSpaceOnUse" x1="55.7136" y1="149.55" x2="174.5887" y2="149.55">
				<stop  offset="3.802050e-003" style="stop-color:#A5CBEF"/>
				<stop  offset="0.2136" style="stop-color:#B2D3F1"/>
				<stop  offset="0.6044" style="stop-color:#D5E7F8"/>
				<stop  offset="1" style="stop-color:#FFFFFF"/>
			</linearGradient>
			<path id="XMLID_768_" class="st52" d="M100.1,116.3l-44.3,23.4c0,0-0.2,3.5,0.7,4l67.9,39.2c1.7,1,3.9,1,5.6,0l43.6-24.9
				c1.8-1.1,0.7-4,0.7-4l-68.6-37.6C103.9,115.3,101.8,115.3,100.1,116.3z"/>
			<path id="XMLID_767_" class="st5" d="M100.1,113.6l-43.6,24.9c-0.9,0.5-1,1.9,0,2.5l67.9,39.2c1.7,1,3.9,1,5.6,0l43.6-24.9
				c0.9-0.5,1-1.9,0-2.5l-67.9-39.2C103.9,112.6,101.8,112.6,100.1,113.6z"/>
			<path id="XMLID_766_" class="st53" d="M96.2,145.8l-11.5,6.6c-0.2,0.1-0.3,0.5,0,0.6l17.9,10.3c0.5,0.3,1,0.3,1.5,0l11.5-6.6
				c0.2-0.1,0.3-0.5,0-0.6l-17.9-10.3C97.2,145.6,96.6,145.6,96.2,145.8z"/>
			<path id="XMLID_765_" class="st53" d="M104.9,117.4l3.8,2.2c0.1,0.1,0.1,0.3,0,0.4l-1.9,1.1c-0.1,0.1-0.3,0.1-0.5,0l-3.8-2.2
				c-0.1-0.1-0.1-0.3,0-0.4l1.9-1.1C104.5,117.3,104.7,117.3,104.9,117.4z"/>
			<path id="XMLID_764_" class="st53" d="M110.4,120.7l3.8,2.2c0.1,0.1,0.1,0.3,0,0.4l-1.9,1.1c-0.1,0.1-0.3,0.1-0.5,0l-3.8-2.2
				c-0.1-0.1-0.1-0.3,0-0.4l1.9-1.1C110,120.6,110.2,120.6,110.4,120.7z"/>
			<path id="XMLID_763_" class="st53" d="M115.9,123.8l3.8,2.2c0.1,0.1,0.1,0.3,0,0.4l-1.9,1.1c-0.1,0.1-0.3,0.1-0.5,0l-3.8-2.2
				c-0.1-0.1-0.1-0.3,0-0.4l1.9-1.1C115.6,123.7,115.7,123.7,115.9,123.8z"/>
			<path id="XMLID_762_" class="st53" d="M121.6,127l3.8,2.2c0.1,0.1,0.1,0.3,0,0.4l-1.9,1.1c-0.1,0.1-0.3,0.1-0.5,0l-3.8-2.2
				c-0.1-0.1-0.1-0.3,0-0.4l1.9-1.1C121.3,126.9,121.4,126.9,121.6,127z"/>
			<path id="XMLID_761_" class="st53" d="M127.1,130l3.8,2.2c0.1,0.1,0.1,0.3,0,0.4l-1.9,1.1c-0.1,0.1-0.3,0.1-0.5,0l-3.8-2.2
				c-0.1-0.1-0.1-0.3,0-0.4l1.9-1.1C126.7,129.9,126.9,129.9,127.1,130z"/>
			<path id="XMLID_760_" class="st53" d="M132.4,133.3l3.8,2.2c0.1,0.1,0.1,0.3,0,0.4l-1.9,1.1c-0.1,0.1-0.3,0.1-0.5,0l-3.8-2.2
				c-0.1-0.1-0.1-0.3,0-0.4l1.9-1.1C132,133.2,132.2,133.2,132.4,133.3z"/>
			<path id="XMLID_759_" class="st53" d="M137.9,136.4l3.8,2.2c0.1,0.1,0.1,0.3,0,0.4l-1.9,1.1c-0.1,0.1-0.3,0.1-0.5,0l-3.8-2.2
				c-0.1-0.1-0.1-0.3,0-0.4l1.9-1.1C137.6,136.3,137.8,136.3,137.9,136.4z"/>
			<path id="XMLID_758_" class="st53" d="M143.4,139.6l3.8,2.2c0.1,0.1,0.1,0.3,0,0.4l-1.9,1.1c-0.1,0.1-0.3,0.1-0.5,0l-3.8-2.2
				c-0.1-0.1-0.1-0.3,0-0.4l1.9-1.1C143.1,139.5,143.3,139.5,143.4,139.6z"/>
			<path id="XMLID_757_" class="st53" d="M148.8,142.8l3.8,2.2c0.1,0.1,0.1,0.3,0,0.4l-1.9,1.1c-0.1,0.1-0.3,0.1-0.5,0l-3.8-2.2
				c-0.1-0.1-0.1-0.3,0-0.4l1.9-1.1C148.5,142.7,148.7,142.7,148.8,142.8z"/>
			<path id="XMLID_756_" class="st53" d="M154.5,146.1l3.8,2.2c0.1,0.1,0.1,0.3,0,0.4l-1.9,1.1c-0.1,0.1-0.3,0.1-0.5,0l-3.8-2.2
				c-0.1-0.1-0.1-0.3,0-0.4l1.9-1.1C154.2,146,154.3,146,154.5,146.1z"/>
			<path id="XMLID_598_" class="st53" d="M160,149.2l3.8,2.2c0.1,0.1,0.1,0.3,0,0.4l-1.9,1.1c-0.1,0.1-0.3,0.1-0.5,0l-3.8-2.2
				c-0.1-0.1-0.1-0.3,0-0.4l1.9-1.1C159.7,149.1,159.9,149.1,160,149.2z"/>
			<g id="XMLID_585_">
				<path id="XMLID_596_" class="st53" d="M97.2,121.5l2.5-1.5c0.3-0.2,0.7-0.2,1.1,0l2.5,1.4c0.3,0.2,0.4,0.7,0,0.9l-2.5,1.5
					c-0.3,0.2-0.8,0.2-1.1,0l-2.6-1.5C96.9,122.2,96.9,121.7,97.2,121.5z"/>
				<path id="XMLID_595_" class="st53" d="M102.9,124.7l2.5-1.5c0.3-0.2,0.7-0.2,1.1,0l2.5,1.4c0.3,0.2,0.4,0.7,0,0.9l-2.5,1.5
					c-0.3,0.2-0.8,0.2-1.1,0l-2.6-1.5C102.6,125.5,102.6,125,102.9,124.7z"/>
				<path id="XMLID_594_" class="st53" d="M108.5,127.9l2.5-1.5c0.3-0.2,0.7-0.2,1.1,0l2.5,1.4c0.3,0.2,0.4,0.7,0,0.9l-2.5,1.5
					c-0.3,0.2-0.8,0.2-1.1,0l-2.6-1.5C108.1,128.6,108.1,128.1,108.5,127.9z"/>
				<path id="XMLID_593_" class="st53" d="M114.3,131.1l2.5-1.5c0.3-0.2,0.7-0.2,1.1,0l2.5,1.4c0.3,0.2,0.4,0.7,0,0.9l-2.5,1.5
					c-0.3,0.2-0.8,0.2-1.1,0l-2.6-1.5C114,131.8,114,131.3,114.3,131.1z"/>
				<path id="XMLID_592_" class="st53" d="M119.5,134.1l2.5-1.5c0.3-0.2,0.7-0.2,1.1,0l2.5,1.4c0.3,0.2,0.4,0.7,0,0.9l-2.5,1.5
					c-0.3,0.2-0.8,0.2-1.1,0l-2.6-1.5C119.2,134.8,119.2,134.3,119.5,134.1z"/>
				<path id="XMLID_591_" class="st53" d="M124.8,137.4l2.5-1.5c0.3-0.2,0.7-0.2,1.1,0l2.5,1.4c0.3,0.2,0.4,0.7,0,0.9l-2.5,1.5
					c-0.3,0.2-0.8,0.2-1.1,0l-2.6-1.5C124.4,138.1,124.4,137.6,124.8,137.4z"/>
				<path id="XMLID_590_" class="st53" d="M130.4,140.5l2.5-1.5c0.3-0.2,0.7-0.2,1.1,0l2.5,1.4c0.3,0.2,0.4,0.7,0,0.9l-2.5,1.5
					c-0.3,0.2-0.8,0.2-1.1,0l-2.6-1.5C130.1,141.2,130.1,140.7,130.4,140.5z"/>
				<path id="XMLID_589_" class="st53" d="M135.9,143.6l2.5-1.5c0.3-0.2,0.7-0.2,1.1,0l2.5,1.4c0.3,0.2,0.4,0.7,0,0.9l-2.5,1.5
					c-0.3,0.2-0.8,0.2-1.1,0l-2.6-1.5C135.6,144.3,135.6,143.8,135.9,143.6z"/>
				<path id="XMLID_588_" class="st53" d="M141.4,146.9l2.5-1.5c0.3-0.2,0.7-0.2,1.1,0l2.5,1.4c0.3,0.2,0.4,0.7,0,0.9l-2.5,1.5
					c-0.3,0.2-0.8,0.2-1.1,0l-2.6-1.5C141,147.6,141,147.1,141.4,146.9z"/>
				<path id="XMLID_587_" class="st53" d="M147.3,150.4l2.5-1.5c0.3-0.2,0.7-0.2,1.1,0l2.5,1.4c0.3,0.2,0.4,0.7,0,0.9l-2.5,1.5
					c-0.3,0.2-0.8,0.2-1.1,0l-2.6-1.5C146.9,151.1,146.9,150.6,147.3,150.4z"/>
				<path id="XMLID_586_" class="st53" d="M152.6,153.3l2.5-1.5c0.3-0.2,0.7-0.2,1.1,0l2.5,1.4c0.3,0.2,0.4,0.7,0,0.9l-2.5,1.5
					c-0.3,0.2-0.8,0.2-1.1,0l-2.6-1.5C152.2,154,152.2,153.5,152.6,153.3z"/>
			</g>
			<g id="XMLID_398_">
				<path id="XMLID_584_" class="st53" d="M91.6,124.6l2.5-1.5c0.3-0.2,0.7-0.2,1.1,0l2.5,1.4c0.3,0.2,0.4,0.7,0,0.9l-2.5,1.5
					c-0.3,0.2-0.8,0.2-1.1,0l-2.6-1.5C91.2,125.3,91.2,124.8,91.6,124.6z"/>
				<path id="XMLID_583_" class="st53" d="M97.2,127.8l2.5-1.5c0.3-0.2,0.7-0.2,1.1,0l2.5,1.4c0.3,0.2,0.4,0.7,0,0.9l-2.5,1.5
					c-0.3,0.2-0.8,0.2-1.1,0l-2.6-1.5C96.9,128.5,96.9,128,97.2,127.8z"/>
				<path id="XMLID_582_" class="st53" d="M102.8,130.9l2.5-1.5c0.3-0.2,0.7-0.2,1.1,0l2.5,1.4c0.3,0.2,0.4,0.7,0,0.9l-2.5,1.5
					c-0.3,0.2-0.8,0.2-1.1,0l-2.6-1.5C102.4,131.6,102.4,131.1,102.8,130.9z"/>
				<path id="XMLID_581_" class="st53" d="M108.7,134.1l2.5-1.5c0.3-0.2,0.7-0.2,1.1,0l2.5,1.4c0.3,0.2,0.4,0.7,0,0.9l-2.5,1.5
					c-0.3,0.2-0.8,0.2-1.1,0l-2.6-1.5C108.3,134.9,108.3,134.3,108.7,134.1z"/>
				<path id="XMLID_405_" class="st53" d="M113.9,137.2l2.5-1.5c0.3-0.2,0.7-0.2,1.1,0l2.5,1.4c0.3,0.2,0.4,0.7,0,0.9l-2.5,1.5
					c-0.3,0.2-0.8,0.2-1.1,0l-2.6-1.5C113.5,137.9,113.5,137.4,113.9,137.2z"/>
				<path id="XMLID_404_" class="st53" d="M119.1,140.5l2.5-1.5c0.3-0.2,0.7-0.2,1.1,0l2.5,1.4c0.3,0.2,0.4,0.7,0,0.9l-2.5,1.5
					c-0.3,0.2-0.8,0.2-1.1,0l-2.6-1.5C118.8,141.2,118.8,140.7,119.1,140.5z"/>
				<path id="XMLID_403_" class="st53" d="M124.8,143.5l2.5-1.5c0.3-0.2,0.7-0.2,1.1,0l2.5,1.4c0.3,0.2,0.4,0.7,0,0.9l-2.5,1.5
					c-0.3,0.2-0.8,0.2-1.1,0l-2.6-1.5C124.4,144.2,124.4,143.7,124.8,143.5z"/>
				<path id="XMLID_402_" class="st53" d="M130.3,146.7l2.5-1.5c0.3-0.2,0.7-0.2,1.1,0l2.5,1.4c0.3,0.2,0.4,0.7,0,0.9l-2.5,1.5
					c-0.3,0.2-0.8,0.2-1.1,0l-2.6-1.5C129.9,147.4,129.9,146.9,130.3,146.7z"/>
				<path id="XMLID_401_" class="st53" d="M135.7,150l2.5-1.5c0.3-0.2,0.7-0.2,1.1,0l2.5,1.4c0.3,0.2,0.4,0.7,0,0.9l-2.5,1.5
					c-0.3,0.2-0.8,0.2-1.1,0l-2.6-1.5C135.3,150.7,135.3,150.2,135.7,150z"/>
				<path id="XMLID_400_" class="st53" d="M141.6,153.5l2.5-1.5c0.3-0.2,0.7-0.2,1.1,0l2.5,1.4c0.3,0.2,0.4,0.7,0,0.9l-2.5,1.5
					c-0.3,0.2-0.8,0.2-1.1,0l-2.6-1.5C141.2,154.2,141.2,153.7,141.6,153.5z"/>
				<path id="XMLID_399_" class="st53" d="M146.9,156.4l2.5-1.5c0.3-0.2,0.7-0.2,1.1,0l2.5,1.4c0.3,0.2,0.4,0.7,0,0.9l-2.5,1.5
					c-0.3,0.2-0.8,0.2-1.1,0l-2.6-1.5C146.6,157.1,146.6,156.6,146.9,156.4z"/>
			</g>
			<g id="XMLID_386_">
				<path id="XMLID_397_" class="st53" d="M85.9,127.6l2.5-1.5c0.3-0.2,0.7-0.2,1.1,0l2.5,1.4c0.3,0.2,0.4,0.7,0,0.9l-2.5,1.5
					c-0.3,0.2-0.8,0.2-1.1,0l-2.6-1.5C85.5,128.3,85.5,127.8,85.9,127.6z"/>
				<path id="XMLID_396_" class="st53" d="M91.6,130.9l2.5-1.5c0.3-0.2,0.7-0.2,1.1,0l2.5,1.4c0.3,0.2,0.4,0.7,0,0.9l-2.5,1.5
					c-0.3,0.2-0.8,0.2-1.1,0l-2.6-1.5C91.2,131.6,91.2,131.1,91.6,130.9z"/>
				<path id="XMLID_395_" class="st53" d="M97.1,134l2.5-1.5c0.3-0.2,0.7-0.2,1.1,0l2.5,1.4c0.3,0.2,0.4,0.7,0,0.9l-2.5,1.5
					c-0.3,0.2-0.8,0.2-1.1,0l-2.6-1.5C96.8,134.7,96.8,134.2,97.1,134z"/>
				<path id="XMLID_394_" class="st53" d="M103,137.2l2.5-1.5c0.3-0.2,0.7-0.2,1.1,0l2.5,1.4c0.3,0.2,0.4,0.7,0,0.9l-2.5,1.5
					c-0.3,0.2-0.8,0.2-1.1,0l-2.6-1.5C102.6,137.9,102.6,137.4,103,137.2z"/>
				<path id="XMLID_393_" class="st53" d="M108.2,140.3l2.5-1.5c0.3-0.2,0.7-0.2,1.1,0l2.5,1.4c0.3,0.2,0.4,0.7,0,0.9l-2.5,1.5
					c-0.3,0.2-0.8,0.2-1.1,0l-2.6-1.5C107.8,141,107.8,140.5,108.2,140.3z"/>
				<path id="XMLID_392_" class="st53" d="M113.5,143.5l2.5-1.5c0.3-0.2,0.7-0.2,1.1,0l2.5,1.4c0.3,0.2,0.4,0.7,0,0.9l-2.5,1.5
					c-0.3,0.2-0.8,0.2-1.1,0l-2.6-1.5C113.1,144.2,113.1,143.7,113.5,143.5z"/>
				<path id="XMLID_391_" class="st53" d="M119.1,146.6l2.5-1.5c0.3-0.2,0.7-0.2,1.1,0l2.5,1.4c0.3,0.2,0.4,0.7,0,0.9l-2.5,1.5
					c-0.3,0.2-0.8,0.2-1.1,0l-2.6-1.5C118.7,147.3,118.7,146.8,119.1,146.6z"/>
				<path id="XMLID_390_" class="st53" d="M124.6,149.7l2.5-1.5c0.3-0.2,0.7-0.2,1.1,0l2.5,1.4c0.3,0.2,0.4,0.7,0,0.9l-2.5,1.5
					c-0.3,0.2-0.8,0.2-1.1,0l-2.6-1.5C124.2,150.5,124.2,150,124.6,149.7z"/>
				<path id="XMLID_389_" class="st53" d="M130,153.1l2.5-1.5c0.3-0.2,0.7-0.2,1.1,0l2.5,1.4c0.3,0.2,0.4,0.7,0,0.9l-2.5,1.5
					c-0.3,0.2-0.8,0.2-1.1,0L130,154C129.7,153.8,129.7,153.3,130,153.1z"/>
				<path id="XMLID_388_" class="st53" d="M135.9,156.5l2.5-1.5c0.3-0.2,0.7-0.2,1.1,0l2.5,1.4c0.3,0.2,0.4,0.7,0,0.9l-2.5,1.5
					c-0.3,0.2-0.8,0.2-1.1,0l-2.6-1.5C135.6,157.3,135.6,156.7,135.9,156.5z"/>
				<path id="XMLID_387_" class="st53" d="M141.3,159.4l2.5-1.5c0.3-0.2,0.7-0.2,1.1,0l2.5,1.4c0.3,0.2,0.4,0.7,0,0.9l-2.5,1.5
					c-0.3,0.2-0.8,0.2-1.1,0l-2.6-1.5C140.9,160.2,140.9,159.6,141.3,159.4z"/>
			</g>
			<g id="XMLID_376_">
				<path id="XMLID_385_" class="st53" d="M80.2,130.7l2.5-1.5c0.3-0.2,0.7-0.2,1.1,0l2.5,1.4c0.3,0.2,0.4,0.7,0,0.9l-2.5,1.5
					c-0.3,0.2-0.8,0.2-1.1,0l-2.6-1.5C79.9,131.4,79.9,130.9,80.2,130.7z"/>
				<path id="XMLID_384_" class="st53" d="M85.9,134l2.5-1.5c0.3-0.2,0.7-0.2,1.1,0l2.5,1.4c0.3,0.2,0.4,0.7,0,0.9l-2.5,1.5
					c-0.3,0.2-0.8,0.2-1.1,0l-2.6-1.5C85.6,134.7,85.6,134.2,85.9,134z"/>
				<path id="XMLID_383_" class="st53" d="M91.4,137.1l2.5-1.5c0.3-0.2,0.7-0.2,1.1,0l2.5,1.4c0.3,0.2,0.4,0.7,0,0.9l-2.5,1.5
					c-0.3,0.2-0.8,0.2-1.1,0l-2.6-1.5C91.1,137.8,91.1,137.3,91.4,137.1z"/>
				<path id="XMLID_382_" class="st53" d="M97.3,140.3l2.5-1.5c0.3-0.2,0.7-0.2,1.1,0l2.5,1.4c0.3,0.2,0.4,0.7,0,0.9l-2.5,1.5
					c-0.3,0.2-0.8,0.2-1.1,0l-2.6-1.5C97,141,97,140.5,97.3,140.3z"/>
				<path id="XMLID_381_" class="st53" d="M103,143.7l2.5-1.5c0.3-0.2,0.7-0.2,1.1,0l12.9,7.5c0.3,0.2,0.4,0.7,0,0.9l-2.5,1.5
					c-0.3,0.2-0.8,0.2-1.1,0l-13-7.5C102.6,144.4,102.6,143.9,103,143.7z"/>
				<path id="XMLID_380_" class="st53" d="M118.9,152.8l2.5-1.5c0.3-0.2,0.7-0.2,1.1,0l2.5,1.4c0.3,0.2,0.4,0.7,0,0.9l-2.5,1.5
					c-0.3,0.2-0.8,0.2-1.1,0l-2.6-1.5C118.6,153.5,118.6,153,118.9,152.8z"/>
				<path id="XMLID_379_" class="st53" d="M124.3,156.2l2.5-1.5c0.3-0.2,0.7-0.2,1.1,0l2.5,1.4c0.3,0.2,0.4,0.7,0,0.9l-2.5,1.5
					c-0.3,0.2-0.8,0.2-1.1,0l-2.6-1.5C124,156.9,124,156.4,124.3,156.2z"/>
				<path id="XMLID_378_" class="st53" d="M130.2,159.6l2.5-1.5c0.3-0.2,0.7-0.2,1.1,0l2.5,1.4c0.3,0.2,0.4,0.7,0,0.9l-2.5,1.5
					c-0.3,0.2-0.8,0.2-1.1,0l-2.6-1.5C129.9,160.3,129.9,159.8,130.2,159.6z"/>
				<path id="XMLID_377_" class="st53" d="M135.6,162.5l2.5-1.5c0.3-0.2,0.7-0.2,1.1,0l2.5,1.4c0.3,0.2,0.4,0.7,0,0.9l-2.5,1.5
					c-0.3,0.2-0.8,0.2-1.1,0l-2.6-1.5C135.2,163.2,135.2,162.7,135.6,162.5z"/>
			</g>
		</g>
	</g>
	<g>
		<linearGradient id="XMLID_411_" gradientUnits="userSpaceOnUse" x1="111.4561" y1="93.5831" x2="165.0793" y2="93.5831">
			<stop  offset="0" style="stop-color:#FFFFFF"/>
			<stop  offset="0.3956" style="stop-color:#D5E7F8"/>
			<stop  offset="0.7864" style="stop-color:#B2D3F1"/>
			<stop  offset="0.9962" style="stop-color:#A5CBEF"/>
		</linearGradient>
		<path id="XMLID_375_" class="st54" d="M165.1,74c0-0.8-0.6-1.8-1.3-2.2l-50.6-29.4c-0.3-0.2-0.6-0.2-0.9,0l-0.8,0.4l0.4,68.9
			c0,0.8,0.6,1.8,1.3,2.2l51.2,30.4l0.8,0.5V74z"/>
		<path id="XMLID_374_" class="st5" d="M164.3,74.6c0-0.8-0.6-1.8-1.3-2.2l-50.7-29.5c-0.7-0.4-1.3-0.1-1.3,0.7v69.8l53.3,30.9V74.6
			z"/>
		<path id="XMLID_318_" class="st55" d="M163,72.4l-50.7-29.5c-0.7-0.4-1.3-0.1-1.3,0.7V47l53.3,30.9v-3.3
			C164.3,73.8,163.7,72.8,163,72.4z"/>
		<path id="XMLID_317_" class="st5" d="M113.8,45.7c-0.2-0.1-0.4,0-0.4,0.2c0,0.3,0.2,0.6,0.4,0.7c0.2,0.1,0.4,0,0.4-0.2
			C114.3,46.2,114.1,45.9,113.8,45.7z"/>
		<path id="XMLID_316_" class="st5" d="M115.6,46.8c-0.2-0.1-0.4,0-0.4,0.2s0.2,0.6,0.4,0.7c0.2,0.1,0.4,0,0.4-0.2
			C116.1,47.3,115.9,46.9,115.6,46.8z"/>
		<path id="XMLID_315_" class="st5" d="M117.4,47.9c-0.2-0.1-0.4,0-0.4,0.2c0,0.3,0.2,0.6,0.4,0.7c0.2,0.1,0.4,0,0.4-0.2
			C117.9,48.3,117.7,48,117.4,47.9z"/>
		<polygon id="XMLID_314_" class="st56" points="115.2,55 115.2,75.2 159.7,100.8 159.7,80.7 		"/>
		<polygon id="XMLID_313_" class="st5" points="130.5,66.7 130.5,68.2 157.7,84 157.7,82.5 		"/>
		<g id="XMLID_309_">
			<polygon id="XMLID_312_" class="st51" points="115.2,100.8 115.2,102.4 159.7,128.2 159.7,126.7 			"/>
			<polygon id="XMLID_311_" class="st51" points="115.2,105 115.2,106.5 159.7,132.4 159.7,130.9 			"/>
			<polygon id="XMLID_310_" class="st51" points="115.2,109.4 115.2,110.9 159.7,136.8 159.7,135.3 			"/>
		</g>
		<polygon id="XMLID_308_" class="st5" points="130.5,70.9 130.5,72.4 157.7,88.2 157.7,86.6 		"/>
		<polygon id="XMLID_306_" class="st5" points="130.5,75.1 130.5,76.6 157.7,92.4 157.7,90.8 		"/>
		<polygon id="XMLID_304_" class="st5" points="130.5,79.3 130.5,80.8 143.2,88.2 143.2,86.6 		"/>
		<polygon id="XMLID_300_" class="st51" points="115.2,77.9 115.2,94 128,101.5 128,85.5 		"/>
		<polygon id="XMLID_282_" class="st51" points="146.9,96.5 146.9,112.6 159.7,120.1 159.7,104.2 		"/>
		<path id="XMLID_281_" class="st5" d="M122.2,62.2c-3.2-1.9-5.9-0.3-5.9,3.4c0,3.8,2.7,8.4,5.9,10.2c3.2,1.9,5.9,0.3,5.9-3.4
			C128.1,68.7,125.4,64.1,122.2,62.2z"/>
		<polygon id="XMLID_280_" class="st5" points="121.9,89.8 128,85.8 128,85.5 127.8,85.4 121.7,89.4 115.6,78.1 115.2,77.9 
			115.2,78.3 121.3,89.6 115.2,93.6 115.2,94 115.3,94 121.5,90 127.6,101.3 128,101.5 128,101.1 		"/>
		<polygon id="XMLID_279_" class="st5" points="159.7,104.2 159.6,104.1 153.4,108.2 147.2,96.7 146.9,96.5 146.9,97.1 153.1,108.4 
			146.9,112.4 146.9,112.6 147.2,112.8 153.3,108.8 159.3,119.9 159.7,120.1 159.7,119.8 153.6,108.6 159.7,104.6 		"/>
		<polygon id="XMLID_278_" class="st57" points="131.7,88 131.7,104.1 144.5,111.6 144.5,95.6 		"/>
		<polygon id="XMLID_277_" class="st57" points="128.4,89.1 128.4,105.1 141.2,112.7 141.2,96.7 		"/>
		<g id="XMLID_274_">
			<linearGradient id="XMLID_412_" gradientUnits="userSpaceOnUse" x1="123.8858" y1="104.102" x2="137.5064" y2="104.102">
				<stop  offset="0" style="stop-color:#FFFFFF"/>
				<stop  offset="0.363" style="stop-color:#E8F2FB"/>
				<stop  offset="1" style="stop-color:#C2DCF4"/>
			</linearGradient>
			<polygon id="XMLID_276_" class="st58" points="124.7,92.2 123.9,92.4 124.7,108.3 136.7,116 137.5,115.8 137.5,99.8 			"/>
			<polygon id="XMLID_275_" class="st56" points="123.9,92.4 123.9,108.5 136.7,116 136.7,100 			"/>
		</g>
		<path id="XMLID_273_" class="st56" d="M123.2,68.8c0.2-0.2,0.4-0.5,0.4-0.9c0-1-0.7-2.1-1.5-2.6c-0.8-0.5-1.5-0.1-1.5,0.9
			c0,0.7,0.3,1.4,0.8,2c-0.8,0.4-1.4,1.2-1.4,2.2V71l4.5,2.6v-1.2C124.5,71.1,124,69.8,123.2,68.8z"/>
	</g>
	<g id="XMLID_255_">
		<g class="st8">
			<path id="XMLID_272_" class="st9" d="M125.6,197.9c-1.5-0.9-1.5-2.3,0-3.2l79.3-45.8c1.5-0.9,4-0.9,5.5,0l7.5,4.5
				c1.5,0.9,1.5,2.4,0,3.3l-79,45.6c-1.5,0.9-4,0.9-5.6,0L125.6,197.9z"/>
			<path id="XMLID_330_" class="st10" d="M125.7,197.9c-1.5-0.9-1.5-2.3,0-3.2l79.2-45.7c1.5-0.9,4-0.9,5.5,0l7.4,4.4
				c1.5,0.9,1.5,2.4,0,3.2L139,202.2c-1.5,0.9-4,0.9-5.6,0L125.7,197.9z"/>
			<path id="XMLID_329_" class="st11" d="M125.8,197.8c-1.5-0.9-1.5-2.3,0-3.2l79.1-45.7c1.5-0.9,4-0.9,5.5,0l7.4,4.4
				c1.5,0.9,1.5,2.4,0,3.2L139,202.2c-1.5,0.9-4,0.9-5.5,0L125.8,197.8z"/>
			<path id="XMLID_328_" class="st12" d="M125.9,197.8c-1.5-0.9-1.5-2.3,0-3.2l78.9-45.6c1.5-0.9,4-0.9,5.5,0l7.4,4.4
				c1.5,0.9,1.5,2.3,0,3.2L139,202.1c-1.5,0.9-4,0.9-5.5,0L125.9,197.8z"/>
			<path id="XMLID_327_" class="st13" d="M126,197.7c-1.5-0.9-1.5-2.3,0-3.1l78.8-45.6c1.5-0.9,4-0.9,5.5,0l7.4,4.4
				c1.5,0.9,1.5,2.3,0,3.2l-78.5,45.4c-1.5,0.9-4,0.9-5.5,0L126,197.7z"/>
			<path id="XMLID_326_" class="st14" d="M126.1,197.7c-1.5-0.9-1.5-2.3,0-3.1l78.7-45.5c1.5-0.9,4-0.8,5.4,0l7.3,4.4
				c1.5,0.9,1.5,2.3,0,3.2L139.1,202c-1.5,0.9-4,0.9-5.5,0L126.1,197.7z"/>
			<path id="XMLID_325_" class="st15" d="M126.1,197.7c-1.5-0.9-1.5-2.3,0-3.1l78.6-45.4c1.5-0.9,3.9-0.8,5.4,0l7.3,4.4
				c1.5,0.9,1.5,2.3,0,3.2l-78.3,45.3c-1.5,0.9-3.9,0.9-5.5,0L126.1,197.7z"/>
			<path id="XMLID_324_" class="st16" d="M126.2,197.6c-1.5-0.9-1.5-2.3,0-3.1l78.5-45.4c1.5-0.9,3.9-0.8,5.4,0l7.3,4.3
				c1.5,0.9,1.5,2.3,0,3.2l-78.2,45.2c-1.5,0.9-3.9,0.9-5.4,0L126.2,197.6z"/>
			<path id="XMLID_323_" class="st17" d="M126.3,197.6c-1.5-0.8-1.5-2.2,0-3.1l78.3-45.3c1.5-0.9,3.9-0.8,5.4,0l7.2,4.3
				c1.5,0.9,1.5,2.3,0,3.2l-78,45.2c-1.5,0.9-3.9,0.9-5.4,0L126.3,197.6z"/>
			<path id="XMLID_322_" class="st18" d="M126.4,197.5c-1.5-0.8-1.5-2.2,0-3.1l78.2-45.3c1.5-0.9,3.9-0.8,5.4,0l7.2,4.3
				c1.5,0.9,1.5,2.3,0,3.1l-77.9,45.1c-1.5,0.9-3.9,0.9-5.4,0L126.4,197.5z"/>
			<path id="XMLID_321_" class="st19" d="M126.5,197.5c-1.5-0.8-1.5-2.2,0-3.1l78.1-45.2c1.5-0.9,3.9-0.8,5.3,0l7.2,4.3
				c1.5,0.9,1.5,2.3,0,3.1l-77.8,45c-1.5,0.9-3.9,0.9-5.4,0L126.5,197.5z"/>
			<path id="XMLID_320_" class="st20" d="M126.6,197.5c-1.5-0.8-1.5-2.2,0-3.1l78-45.2c1.5-0.8,3.9-0.8,5.3,0l7.2,4.3
				c1.5,0.9,1.4,2.3,0,3.1l-77.7,45c-1.5,0.8-3.9,0.9-5.3,0L126.6,197.5z"/>
			<path id="XMLID_319_" class="st21" d="M126.7,197.4c-1.5-0.8-1.5-2.2,0-3.1l77.8-45.1c1.5-0.8,3.8-0.8,5.3,0l7.1,4.3
				c1.5,0.9,1.4,2.3,0,3.1l-77.5,44.9c-1.5,0.8-3.9,0.9-5.3,0L126.7,197.4z"/>
			<path id="XMLID_307_" class="st22" d="M126.7,197.4c-1.5-0.8-1.5-2.2,0-3l77.7-45c1.5-0.8,3.8-0.8,5.3,0l7.1,4.2
				c1.4,0.9,1.4,2.3,0,3.1l-77.4,44.9c-1.5,0.8-3.8,0.8-5.3,0L126.7,197.4z"/>
			<path id="XMLID_305_" class="st23" d="M126.8,197.3c-1.5-0.8-1.5-2.2,0-3l77.6-45c1.5-0.8,3.8-0.8,5.3,0l7.1,4.2
				c1.4,0.9,1.4,2.2,0,3.1l-77.3,44.8c-1.5,0.8-3.8,0.8-5.3,0L126.8,197.3z"/>
			<path id="XMLID_303_" class="st24" d="M126.9,197.3c-1.5-0.8-1.5-2.2,0-3l77.5-44.9c1.4-0.8,3.8-0.8,5.2,0l7.1,4.2
				c1.4,0.9,1.4,2.2,0,3.1l-77.2,44.8c-1.4,0.8-3.8,0.8-5.3,0L126.9,197.3z"/>
			<path id="XMLID_302_" class="st25" d="M127,197.3c-1.4-0.8-1.4-2.2,0-3l77.3-44.9c1.4-0.8,3.8-0.8,5.2,0l7,4.2
				c1.4,0.9,1.4,2.2,0,3.1l-77.1,44.7c-1.4,0.8-3.8,0.8-5.2,0L127,197.3z"/>
			<path id="XMLID_301_" class="st26" d="M127.1,197.2c-1.4-0.8-1.4-2.2,0-3l77.2-44.8c1.4-0.8,3.8-0.8,5.2,0l7,4.2
				c1.4,0.8,1.4,2.2,0,3l-76.9,44.6c-1.4,0.8-3.8,0.8-5.2,0L127.1,197.2z"/>
			<path id="XMLID_299_" class="st27" d="M127.2,197.2c-1.4-0.8-1.4-2.2,0-3l77.1-44.7c1.4-0.8,3.8-0.8,5.2,0l7,4.2
				c1.4,0.8,1.4,2.2,0,3l-76.8,44.6c-1.4,0.8-3.8,0.8-5.2,0L127.2,197.2z"/>
			<path id="XMLID_298_" class="st28" d="M127.3,197.1c-1.4-0.8-1.4-2.2,0-3l77-44.7c1.4-0.8,3.7-0.8,5.2,0l6.9,4.1
				c1.4,0.8,1.4,2.2,0,3l-76.7,44.5c-1.4,0.8-3.8,0.8-5.2,0L127.3,197.1z"/>
			<path id="XMLID_297_" class="st29" d="M127.4,197.1c-1.4-0.8-1.4-2.1,0-3l76.8-44.6c1.4-0.8,3.7-0.8,5.1,0l6.9,4.1
				c1.4,0.8,1.4,2.2,0,3l-76.6,44.5c-1.4,0.8-3.7,0.8-5.2,0L127.4,197.1z"/>
			<path id="XMLID_296_" class="st30" d="M127.4,197.1c-1.4-0.8-1.4-2.1,0-2.9l76.7-44.6c1.4-0.8,3.7-0.8,5.1,0l6.9,4.1
				c1.4,0.8,1.4,2.2,0,3l-76.4,44.4c-1.4,0.8-3.7,0.8-5.1,0L127.4,197.1z"/>
			<path id="XMLID_295_" class="st31" d="M127.5,197c-1.4-0.8-1.4-2.1,0-2.9l76.6-44.5c1.4-0.8,3.7-0.8,5.1,0l6.9,4.1
				c1.4,0.8,1.4,2.2,0,3L139.7,201c-1.4,0.8-3.7,0.8-5.1,0L127.5,197z"/>
			<path id="XMLID_294_" class="st32" d="M127.6,197c-1.4-0.8-1.4-2.1,0-2.9l76.5-44.5c1.4-0.8,3.7-0.8,5.1,0l6.8,4.1
				c1.4,0.8,1.4,2.2,0,3L139.8,201c-1.4,0.8-3.7,0.8-5.1,0L127.6,197z"/>
			<path id="XMLID_293_" class="st33" d="M127.7,196.9c-1.4-0.8-1.4-2.1,0-2.9l76.4-44.4c1.4-0.8,3.7-0.8,5,0l6.8,4.1
				c1.4,0.8,1.4,2.2,0,3l-76.1,44.2c-1.4,0.8-3.7,0.8-5.1,0L127.7,196.9z"/>
			<path id="XMLID_292_" class="st34" d="M127.8,196.9c-1.4-0.8-1.4-2.1,0-2.9l76.2-44.3c1.4-0.8,3.7-0.8,5,0l6.8,4
				c1.4,0.8,1.4,2.1,0,3l-76,44.2c-1.4,0.8-3.7,0.8-5.1,0L127.8,196.9z"/>
			<path id="XMLID_291_" class="st35" d="M127.9,196.9c-1.4-0.8-1.4-2.1,0-2.9l76.1-44.3c1.4-0.8,3.6-0.8,5,0l6.8,4
				c1.4,0.8,1.4,2.1,0,2.9l-75.8,44.1c-1.4,0.8-3.7,0.8-5,0L127.9,196.9z"/>
			<path id="XMLID_290_" class="st36" d="M128,196.8c-1.4-0.8-1.4-2.1,0-2.9l76-44.2c1.4-0.8,3.6-0.8,5,0l6.7,4
				c1.4,0.8,1.4,2.1,0,2.9l-75.7,44.1c-1.4,0.8-3.6,0.8-5,0L128,196.8z"/>
			<path id="XMLID_289_" class="st37" d="M128,196.8c-1.4-0.8-1.4-2.1,0-2.9l75.9-44.2c1.4-0.8,3.6-0.8,5,0l6.7,4
				c1.4,0.8,1.4,2.1,0,2.9l-75.6,44c-1.4,0.8-3.6,0.8-5,0L128,196.8z"/>
			<path id="XMLID_288_" class="st38" d="M128.1,196.7c-1.4-0.8-1.4-2.1,0-2.9l75.7-44.1c1.4-0.8,3.6-0.8,4.9,0l6.7,4
				c1.4,0.8,1.3,2.1,0,2.9L140,200.6c-1.4,0.8-3.6,0.8-5,0L128.1,196.7z"/>
			<path id="XMLID_287_" class="st39" d="M128.2,196.7c-1.4-0.8-1.4-2.1,0-2.8l75.6-44c1.4-0.8,3.6-0.8,4.9,0l6.6,4
				c1.3,0.8,1.3,2.1,0,2.9L140,200.6c-1.4,0.8-3.6,0.8-5,0L128.2,196.7z"/>
			<path id="XMLID_286_" class="st40" d="M128.3,196.7c-1.4-0.8-1.4-2,0-2.8l75.5-44c1.4-0.8,3.6-0.8,4.9,0l6.6,3.9
				c1.3,0.8,1.3,2.1,0,2.9l-75.2,43.8c-1.4,0.8-3.6,0.8-4.9,0L128.3,196.7z"/>
			<path id="XMLID_285_" class="st41" d="M128.4,196.6c-1.4-0.8-1.4-2,0-2.8l75.4-43.9c1.3-0.8,3.5-0.8,4.9,0l6.6,3.9
				c1.3,0.8,1.3,2.1,0,2.9l-75.1,43.8c-1.3,0.8-3.6,0.8-4.9,0L128.4,196.6z"/>
			<path id="XMLID_284_" class="st42" d="M128.5,196.6c-1.3-0.8-1.4-2,0-2.8l75.2-43.9c1.3-0.8,3.5-0.8,4.9,0l6.6,3.9
				c1.3,0.8,1.3,2.1,0,2.9l-75,43.7c-1.3,0.8-3.5,0.8-4.9,0L128.5,196.6z"/>
			<path id="XMLID_283_" class="st43" d="M128.6,196.5c-1.3-0.8-1.3-2,0-2.8l75.1-43.8c1.3-0.8,3.5-0.8,4.8,0l6.5,3.9
				c1.3,0.8,1.3,2.1,0,2.8l-74.9,43.7c-1.3,0.8-3.5,0.8-4.9,0L128.6,196.5z"/>
			<path id="XMLID_234_" class="st44" d="M128.6,196.5c-1.3-0.8-1.3-2,0-2.8l75-43.8c1.3-0.8,3.5-0.8,4.8,0l6.5,3.9
				c1.3,0.8,1.3,2.1,0,2.8l-74.7,43.6c-1.3,0.8-3.5,0.8-4.9,0L128.6,196.5z"/>
			<path id="XMLID_163_" class="st45" d="M128.7,196.5c-1.3-0.8-1.3-2,0-2.8l74.9-43.7c1.3-0.8,3.5-0.8,4.8,0l6.5,3.9
				c1.3,0.8,1.3,2.1,0,2.8l-74.6,43.5c-1.3,0.8-3.5,0.8-4.8,0L128.7,196.5z"/>
			<path id="XMLID_149_" class="st46" d="M128.8,196.4c-1.3-0.8-1.3-2,0-2.8l74.8-43.6c1.3-0.8,3.5-0.7,4.8,0l6.4,3.8
				c1.3,0.8,1.3,2,0,2.8l-74.5,43.5c-1.3,0.8-3.5,0.8-4.8,0L128.8,196.4z"/>
			<path id="XMLID_139_" class="st47" d="M128.9,196.4c-1.3-0.8-1.3-2,0-2.7l74.6-43.6c1.3-0.8,3.5-0.7,4.8,0l6.4,3.8
				c1.3,0.8,1.3,2,0,2.8l-74.4,43.4c-1.3,0.8-3.5,0.8-4.8,0L128.9,196.4z"/>
			<path id="XMLID_138_" class="st48" d="M129,196.3c-1.3-0.7-1.3-2,0-2.7l74.5-43.5c1.3-0.8,3.4-0.7,4.7,0l6.4,3.8
				c1.3,0.8,1.3,2,0,2.8l-74.2,43.4c-1.3,0.8-3.5,0.8-4.8,0L129,196.3z"/>
			<path id="XMLID_134_" class="st49" d="M129.1,196.3c-1.3-0.7-1.3-2,0-2.7l74.4-43.5c1.3-0.8,3.4-0.7,4.7,0l6.4,3.8
				c1.3,0.8,1.3,2,0,2.8L140.4,200c-1.3,0.8-3.4,0.8-4.7,0L129.1,196.3z"/>
			<path id="XMLID_271_" class="st2" d="M129.2,196.3c-1.3-0.7-1.3-2,0-2.7l74.3-43.4c1.3-0.7,3.4-0.7,4.7,0l6.3,3.8
				c1.3,0.8,1.3,2,0,2.8l-74,43.3c-1.3,0.7-3.4,0.8-4.7,0L129.2,196.3z"/>
		</g>
		<path id="XMLID_270_" class="st59" d="M126.9,196.3c-1.5-0.8-1.5-2.2,0-3.1l76.7-44.3c1.5-0.9,3.9-0.8,5.4,0l7.2,4.3
			c1.5,0.9,1.5,2.3,0,3.1l-76.4,44.1c-1.5,0.9-3.9,0.9-5.4,0L126.9,196.3z"/>
		
			<linearGradient id="XMLID_415_" gradientUnits="userSpaceOnUse" x1="288.0306" y1="173.9196" x2="379.5018" y2="173.9196" gradientTransform="matrix(1 0 0 1 -162.2483 0)">
			<stop  offset="0" style="stop-color:#FF9800"/>
			<stop  offset="1" style="stop-color:#FFC107"/>
		</linearGradient>
		<path id="XMLID_269_" class="st60" d="M126.9,195.5c-1.5-0.8-1.5-2.2,0-3.1l76.7-44.3c1.5-0.9,3.9-0.8,5.4,0l7.2,4.3
			c1.5,0.9,1.5,2.3,0,3.1l-76.4,44.1c-1.5,0.9-3.9,0.9-5.4,0L126.9,195.5z"/>
		<polygon id="XMLID_268_" class="st2" points="129.6,190.9 134.5,193.8 135.6,193.1 130.7,190.3 		"/>
		<polygon id="XMLID_267_" class="st2" points="135.6,187.5 138.9,189.4 140,188.8 136.7,186.8 		"/>
		<polygon id="XMLID_266_" class="st2" points="141.5,184 144.9,185.9 146,185.3 142.7,183.4 		"/>
		<polygon id="XMLID_265_" class="st2" points="147.5,180.6 150.8,182.5 151.9,181.8 148.6,179.9 		"/>
		<polygon id="XMLID_264_" class="st2" points="153.5,177.1 158.4,179.9 159.5,179.3 154.6,176.4 		"/>
		<polygon id="XMLID_263_" class="st2" points="159.4,173.6 162.8,175.6 163.9,174.9 160.6,173 		"/>
		<polygon id="XMLID_262_" class="st2" points="165.4,170.2 168.7,172.1 169.8,171.5 166.6,169.5 		"/>
		<polygon id="XMLID_261_" class="st2" points="171.4,166.7 174.7,168.6 175.8,168 172.5,166.1 		"/>
		<polygon id="XMLID_260_" class="st2" points="177.4,163.3 182.3,166.1 183.4,165.5 178.5,162.6 		"/>
		<polygon id="XMLID_259_" class="st2" points="183.3,159.8 186.7,161.7 187.7,161.1 184.5,159.2 		"/>
		<polygon id="XMLID_258_" class="st2" points="189.3,156.4 192.6,158.3 193.7,157.6 190.4,155.7 		"/>
		<polygon id="XMLID_257_" class="st2" points="195.3,152.9 198.6,154.8 199.7,154.2 196.4,152.3 		"/>
		<polygon id="XMLID_256_" class="st2" points="201.2,149.4 206.1,152.3 207.2,151.7 202.4,148.8 		"/>
	</g>
	<g id="XMLID_232_">
		<g id="XMLID_253_">
			<path id="XMLID_254_" class="st61" d="M112.4,110.6c-0.5,0-1-0.3-1.1-0.8c-0.2-0.6,0.1-1.3,0.7-1.6l6.1-2.3
				c0.3-0.1,0.5-0.3,0.7-0.5l3.4-5.3c0.4-0.6,1.1-0.7,1.7-0.4c0.6,0.4,0.4,0.8,0.1,1.3l-3.4,5.3c-0.4,0.7-1.1,1.2-1.9,1.5l-5.8,2.6
				C112.7,110.5,112.5,110.6,112.4,110.6z"/>
		</g>
		<path id="XMLID_252_" class="st61" d="M123.9,98.2c-0.3-0.2-1.9,0.9-1.8,1.8c0.2,0.8,1,1.3,1.8,1.2c0.8-0.2,0.7-0.5,0.1-1
			C123.7,99.8,123.9,98.2,123.9,98.2z"/>
		<path id="XMLID_251_" class="st61" d="M123.3,100.6l1.3-0.9c0.2-0.1,0.5-0.1,0.6,0.1l0,0c0.1,0.2,0.1,0.5-0.1,0.6l-1.3,0.9
			c-0.2,0.1-0.5,0.1-0.6-0.1l0,0C123,101,123.1,100.8,123.3,100.6z"/>
		<path id="XMLID_250_" class="st2" d="M111.6,153.6l5.1-2.7c0.5-0.3,0.5-1,0-1.2l-0.1,0c-0.9-0.4-1.9-0.5-2.9-0.2l-3.8,0.9
			c-0.4,0.1-0.8,0.5-0.8,0.9l0,0.9c0,0.4,0.2,0.7,0.5,0.8l0.9,0.5C110.9,153.8,111.3,153.8,111.6,153.6z"/>
		<g id="XMLID_248_">
			<path id="XMLID_249_" class="st61" d="M110.9,152c-1.1,0-1-0.6-1.1-1.2l0.2-12.3l-0.6-12.8c0-1.1,0.9-2,2-2
				c1.1,0,2.1,1.1,2.1,2.2l-1.2,24.3C112.2,151.2,111.6,152,110.9,152z"/>
		</g>
		<path id="XMLID_247_" class="st2" d="M116.4,157.3l5.1-2.7c0.5-0.3,0.5-1,0-1.2l-0.1,0c-0.9-0.4-1.9-0.5-2.9-0.2l-3.8,0.9
			c-0.4,0.1-0.8,0.5-0.8,0.9l0,0.9c0,0.4,0.2,0.7,0.5,0.8l0.9,0.5C115.7,157.4,116.1,157.4,116.4,157.3z"/>
		<g id="XMLID_245_">
			<path id="XMLID_246_" class="st61" d="M115.7,155.6c-1.1,0-1-0.6-1.1-1.2l0.2-12.3l-0.6-12.8c0-1.1,0.9-2,2-2
				c1.1,0,2.1,1.1,2.1,2.2l-1.2,24.3C117.1,154.8,116.4,155.6,115.7,155.6z"/>
		</g>
		<linearGradient id="XMLID_418_" gradientUnits="userSpaceOnUse" x1="107.8822" y1="123.2886" x2="119.6686" y2="123.2886">
			<stop  offset="0" style="stop-color:#A8D9FB"/>
			<stop  offset="1" style="stop-color:#FFFFFF"/>
		</linearGradient>
		<path id="XMLID_244_" class="st62" d="M117.7,111.4l0.5,1.4c0.4,1.1,0.4,2.3,0.1,3.4l-0.7,1.7l-0.2,5.1l2.2,17
			c-2.4,1.4-10.4,0.6-11.8-1.7l1.6-15.7l-1.2-14.1c0-2,2.1-3.2,3.9-2.2l3.9,2.3C117.1,109.1,117.7,110.2,117.7,111.4z"/>
		<path id="XMLID_243_" class="st2" d="M117.7,124.9l-0.2-1.9l0-0.1c-2.5,0.3-6-0.1-8-1.1l0.1,0.8l-0.1,1.2
			C111.5,124.8,115.2,125.2,117.7,124.9z"/>
		<path id="XMLID_242_" class="st61" d="M112.8,107.2h-0.2c-1.2,0-2.1-0.9-2.1-2.1v-5.3h6.3v3.3C116.8,105.4,115,107.2,112.8,107.2z
			"/>
		<path id="XMLID_241_" class="st61" d="M112.6,109.3L112.6,109.3c-0.8,0-1.4-0.6-1.4-1.3v-3.7c0-0.2,0.1-0.3,0.3-0.3h2
			c0.2,0,0.3,0.1,0.3,0.3v3.7C113.9,108.7,113.4,109.3,112.6,109.3z"/>
		<g id="XMLID_239_">
			<path id="XMLID_240_" class="st61" d="M118.2,118.5l-4.1-7.1c-0.3-0.6-0.1-1.3,0.4-1.7c0.6-0.3,1.3-0.1,1.7,0.4l3.1,6l6.1,2.1
				c0.7-0.1,1.3,0.3,1.4,1c0.1,0.7-0.4,0.9-1,1L118.2,118.5z"/>
		</g>
		<g id="XMLID_237_">
			<linearGradient id="XMLID_419_" gradientUnits="userSpaceOnUse" x1="112.7299" y1="109.0414" x2="119.0633" y2="115.5414">
				<stop  offset="0" style="stop-color:#A8D9FB"/>
				<stop  offset="1" style="stop-color:#FFFFFF"/>
			</linearGradient>
			<path id="XMLID_238_" class="st63" d="M115.4,114.3l-1.6-2.7c-0.3-0.6-0.3-1.3,0.2-1.7c0.7-0.7,1.7-0.5,2.2,0.3l1.5,2.9
				c0.4,0.7,0.1,1.5-0.7,1.8l0,0C116.4,115.1,115.7,114.8,115.4,114.3z"/>
		</g>
		<path id="XMLID_236_" class="st61" d="M127.8,119.1c0.1,0.7-0.8,1.4-1.5,1.4c-0.7,0-1.3-0.6-1.3-1.3c0-0.7,0.2-1.4,0.9-1.4
			C126.6,117.8,127.7,118.6,127.8,119.1z"/>
		<circle id="XMLID_235_" class="st61" cx="124.8" cy="117.9" r="0.7"/>
		<g id="XMLID_233_">
			<linearGradient id="XMLID_420_" gradientUnits="userSpaceOnUse" x1="106.049" y1="106.3433" x2="117.9217" y2="106.3433">
				<stop  offset="0" style="stop-color:#FF9800"/>
				<stop  offset="1" style="stop-color:#FFC107"/>
			</linearGradient>
			<path id="XMLID_416_" class="st64" d="M117.9,98.9c0,0,0-0.1,0-0.1c-0.2-0.5-0.6-0.8-1.1-1.1c-0.9-0.4-1.9,0-2.8,0.2
				c-1.4,0.3-2.7,0.9-3.8,1.7c-0.5,0.3-1,0.7-1.3,1.2c-1.1,1.8,0.1,4.4-0.8,6.3c-0.5,0.9-1.4,1.6-1.8,2.6c-0.2,0.4-0.2,0.9-0.2,1.3
				c0,1,0.4,2.1,1.1,2.9c0.7,0.8,1.8,1.3,2.8,1.1c0.2,0,0.5-0.1,0.6-0.3c0.2-0.1,0.3-0.3,0.4-0.5c0.4-0.9,0.3-1.9,0.3-2.9
				c0-1,0-2,0.6-2.8c0.3-0.3,0.6-0.6,0.9-0.9c0.8-0.8,1.3-2.1,1.3-3.2c0-0.5-0.1-0.9-0.1-1.4c0-0.5,0.2-1,0.6-1.2
				c0.2-0.1,0.4-0.2,0.7-0.2c1.1-0.3,1.7-1,2.3-1.9C117.9,99.6,118,99.3,117.9,98.9z"/>
		</g>
	</g>
	<path id="XMLID_133_" class="st65" d="M163.8,71.8l-10.5-6.1v6.1c0,1.3,0.9,2.9,2.1,3.6l9.7,5.6v-7
		C165.1,73.2,164.5,72.2,163.8,71.8z"/>
	<g id="XMLID_222_">
		<linearGradient id="XMLID_421_" gradientUnits="userSpaceOnUse" x1="155.4576" y1="68.9896" x2="169.5281" y2="68.9896">
			<stop  offset="0" style="stop-color:#FFFFFF"/>
			<stop  offset="1" style="stop-color:#FF9800"/>
		</linearGradient>
		<path id="XMLID_231_" class="st66" d="M155.8,57.9l-0.4,0.3v12.5c0,1.3,0.9,2.9,2.1,3.6l10.7,6.2l0.8-0.4c0.3-0.2,0.5-0.5,0.5-0.8
			V67.2c0-1.3-0.9-2.9-2.1-3.5l-10.3-5.9C156.8,57.6,156.2,57.6,155.8,57.9z"/>
		<linearGradient id="XMLID_422_" gradientUnits="userSpaceOnUse" x1="154.8311" y1="69.2085" x2="168.9016" y2="69.2085">
			<stop  offset="0" style="stop-color:#FF9800"/>
			<stop  offset="1" style="stop-color:#FFC107"/>
		</linearGradient>
		<path id="XMLID_230_" class="st67" d="M156.9,58.3c-1.1-0.6-2.1-0.1-2.1,1.2v11.4c0,1.3,0.9,2.9,2.1,3.6l10,5.8
			c1.1,0.7,2.1,0.1,2.1-1.2V67.5c0-1.3-0.9-2.9-2.1-3.5L156.9,58.3z"/>
		<g id="XMLID_223_">
			<path id="XMLID_228_" class="st5" d="M158.4,68.7c0.5,0.3,0.8,0.3,1.1,0.1l0.6,0.9c-0.4,0.2-1,0.1-1.6-0.2
				c-0.6-0.4-1.2-0.8-1.6-1.4c-0.4-0.6-0.7-1.1-0.7-1.7c0-0.5,0.1-0.9,0.5-1c0.4-0.1,0.9,0,1.5,0.3c0.7,0.4,1.3,0.9,1.7,1.6
				l-0.5,0.3c-0.3-0.5-0.7-0.8-1.1-1.1c-0.3-0.2-0.6-0.3-0.9-0.2c-0.2,0.1-0.3,0.3-0.3,0.6c0,0.3,0.2,0.7,0.4,1
				C157.8,68.3,158.1,68.5,158.4,68.7z"/>
			<path id="XMLID_226_" class="st5" d="M161.7,70.7l-0.1-0.9l-1-0.6l0-0.6l1,0.6l-0.1-0.9l0.8,0.5l0.1,0.9l1,0.6l0,0.6l-1-0.6
				l0.1,0.9L161.7,70.7z"/>
			<path id="XMLID_224_" class="st5" d="M165.1,72.6l-0.1-0.9l-1-0.6l0-0.6l1,0.6l-0.1-0.9l0.8,0.5l0.1,0.9l1,0.6l0,0.6l-1-0.6
				l0.1,0.9L165.1,72.6z"/>
		</g>
	</g>
	<path id="XMLID_132_" class="st65" d="M165.1,85.6l-12.3-7c-0.6-0.3-1.4-0.3-1.9,0.1l-0.5,0.4v0c-0.5,0.3-0.9,1-0.9,1.9v16
		c0,1.8,1.3,4.1,2.9,5l12.7,7.4V85.6z"/>
	<g>
		<linearGradient id="XMLID_423_" gradientUnits="userSpaceOnUse" x1="152.8291" y1="92.3478" x2="172.6671" y2="92.3478">
			<stop  offset="0" style="stop-color:#FFFFFF"/>
			<stop  offset="1" style="stop-color:#4A65A3"/>
		</linearGradient>
		<path id="XMLID_221_" class="st68" d="M153.3,76.7l-0.5,0.4v17.6c0,1.8,1.3,4.1,2.9,5l15,8.7l1.2-0.6c0.4-0.2,0.7-0.7,0.7-1.2
			V89.8c0-1.8-1.3-4.1-2.9-5l-14.5-8.3C154.7,76.2,153.9,76.3,153.3,76.7z"/>
		<path id="XMLID_220_" class="st69" d="M154.9,77.2c-1.6-0.9-2.9-0.1-2.9,1.7v16c0,1.8,1.3,4.1,2.9,5l14,8.1
			c1.6,0.9,2.9,0.2,2.9-1.7V90.2c0-1.8-1.3-4.1-2.9-5L154.9,77.2z"/>
		<g id="XMLID_215_" class="st70">
			<path id="XMLID_218_" class="st71" d="M159.2,87.8l-0.2-0.1c-0.3-0.2-0.5-0.1-0.5,0.2l0,2.4c0,0.4-0.1,0.6-0.4,0.6
				c0.3,0.3,0.4,0.7,0.4,1.1l0,2.5c0,0.2,0.2,0.5,0.7,0.8l0,1.4l-0.6-0.4c-1.1-0.6-1.6-1.5-1.6-2.6l0-2.3c0-0.3-0.1-0.5-0.2-0.6
				l-0.5-0.3l0-1.4l0.5,0.3c0.2,0.1,0.2,0,0.3-0.3l0-2.3c0-1.1,0.5-1.3,1.6-0.6l0.6,0.4L159.2,87.8z"/>
			<path id="XMLID_216_" class="st71" d="M163.8,97.8L164,98c0.3,0.2,0.5,0.1,0.5-0.2l0-2.3c0-0.4,0.1-0.6,0.4-0.6
				c-0.3-0.3-0.4-0.7-0.4-1.1l0-2.5c0-0.2-0.2-0.5-0.7-0.8l0-1.4l0.6,0.4c1.1,0.6,1.6,1.5,1.6,2.6l0,2.3c0,0.3,0.1,0.5,0.2,0.6
				l0.5,0.3l0,1.4l-0.5-0.3c-0.2-0.1-0.3,0-0.3,0.3l0,2.3c0,1.1-0.5,1.3-1.6,0.6l-0.6-0.4L163.8,97.8z"/>
		</g>
		<g id="XMLID_210_">
			<path id="XMLID_213_" class="st72" d="M157.6,87.4l-0.8,0.4l0.1,2c0,0.4-0.1,0.6-0.4,0.6c0.3,0.3,0.4,0.7,0.4,1.1l0,2.5
				c0,0.2,0.2,0.5,0.7,0.8l0,1.4l-0.8,0.4c-1.1-0.6-1.4-2.2-1.4-3.3l0-2.3c0-0.3-0.1-0.5-0.2-0.6l-0.5-0.3l0-1.4l0.5,0.3
				c0.2,0.1,0.2,0,0.3-0.3l0-2.3c0-1.1,0.5-1.3,1.6-0.6l0.6,0.4L157.6,87.4z"/>
			<path id="XMLID_211_" class="st72" d="M162.2,97.5l0.2,0.1c0.3,0.2,0.5,0.1,0.5-0.2l0-2.3c0-0.4,0.1-0.6,0.4-0.6
				c-0.3-0.3-0.4-0.7-0.4-1.1l0-2.5c0-0.2-0.2-0.5-0.7-0.8l-0.8-1l0.8-0.4l0.6,0.4c1.1,0.6,1.6,1.5,1.6,2.6l0,2.3
				c0,0.3,0.1,0.5,0.2,0.6l0.5,0.3l0,1.4l-0.8,0.4c-0.2-0.1,0,1.9,0,1.9c0,1.1-1.4,1.4-1.4,1.4l-0.8-1.1L162.2,97.5z"/>
		</g>
		<polygon id="XMLID_131_" class="st72" points="153.8,89 155,89 155,89.8 154,89.6 		"/>
		<g id="XMLID_205_">
			<path id="XMLID_208_" class="st5" d="M156.8,87.8l-0.2-0.1c-0.3-0.2-0.5-0.1-0.5,0.2l0,2.4c0,0.4-0.1,0.6-0.4,0.6
				c0.3,0.3,0.4,0.7,0.4,1.1l0,2.5c0,0.2,0.2,0.5,0.7,0.8l0,1.4l-0.6-0.4c-1.1-0.6-1.6-1.5-1.6-2.6l0-2.3c0-0.3-0.1-0.5-0.2-0.6
				l-0.5-0.3l0-1.4l0.5,0.3c0.2,0.1,0.2,0,0.3-0.3l0-2.3c0-1.1,0.5-1.3,1.6-0.6l0.6,0.4L156.8,87.8z"/>
			<path id="XMLID_206_" class="st5" d="M161.4,97.8l0.2,0.1c0.3,0.2,0.5,0.1,0.5-0.2l0-2.3c0-0.4,0.1-0.6,0.4-0.6
				c-0.3-0.3-0.4-0.7-0.4-1.1l0-2.5c0-0.2-0.2-0.5-0.7-0.8l0-1.4l0.6,0.4c1.1,0.6,1.6,1.5,1.6,2.6l0,2.3c0,0.3,0.1,0.5,0.2,0.6
				l0.5,0.3l0,1.4l-0.5-0.3c-0.2-0.1-0.3,0-0.3,0.3l0,2.3c0,1.1-0.5,1.3-1.6,0.6l-0.6-0.4L161.4,97.8z"/>
		</g>
	</g>
	<g id="XMLID_193_">
		<linearGradient id="XMLID_424_" gradientUnits="userSpaceOnUse" x1="174.7534" y1="82.9549" x2="183.9244" y2="82.9549">
			<stop  offset="0" style="stop-color:#FFFFFF"/>
			<stop  offset="0.3956" style="stop-color:#D5E7F8"/>
			<stop  offset="0.7864" style="stop-color:#B2D3F1"/>
			<stop  offset="0.9962" style="stop-color:#A5CBEF"/>
		</linearGradient>
		<path id="XMLID_204_" class="st73" d="M175,75.7l-0.2,0.2V84c0,0.9,0.6,1.9,1.3,2.3l6.9,4l0.5-0.3c0.2-0.1,0.3-0.3,0.3-0.5v-7.8
			c0-0.9-0.6-1.9-1.3-2.3l-6.7-3.8C175.6,75.5,175.3,75.5,175,75.7z"/>
		<linearGradient id="XMLID_425_" gradientUnits="userSpaceOnUse" x1="183.2249" y1="90.4069" x2="174.7875" y2="75.9694">
			<stop  offset="0" style="stop-color:#5D7DBE"/>
			<stop  offset="1" style="stop-color:#A5CBEF"/>
		</linearGradient>
		<path id="XMLID_203_" class="st74" d="M175.7,76c-0.7-0.4-1.3-0.1-1.3,0.8v7.4c0,0.9,0.6,1.9,1.3,2.3l6.5,3.7
			c0.7,0.4,1.3,0.1,1.3-0.8V82c0-0.9-0.6-1.9-1.3-2.3L175.7,76z"/>
		<g id="XMLID_194_">
			<path id="XMLID_200_" class="st5" d="M177.1,81.3c0.2,0.3,0.2,0.6,0.2,0.9c0,0.4-0.1,0.6-0.3,0.6c-0.2,0.1-0.4,0-0.8-0.2
				l-0.3-0.2l0,0.8l-0.5-0.3l0-2.9l0.8,0.5C176.7,80.8,176.9,81.1,177.1,81.3z M176.7,82.2c0.1,0,0.1-0.2,0.1-0.3
				c0-0.2,0-0.3-0.1-0.4c-0.1-0.1-0.2-0.2-0.4-0.3L176,81l0,1l0.4,0.2C176.5,82.3,176.6,82.3,176.7,82.2z"/>
			<path id="XMLID_198_" class="st5" d="M179.3,82.3l0.5,0.3l0,2.9l-0.5-0.3l0-1.1l-0.9-0.5l0,1.1l-0.5-0.3l0-2.9l0.5,0.3l0,1.2
				l0.9,0.5L179.3,82.3z"/>
			<path id="XMLID_195_" class="st5" d="M182,84.2c0.2,0.3,0.2,0.6,0.2,0.9c0,0.4-0.1,0.6-0.3,0.6c-0.2,0.1-0.4,0-0.8-0.2l-0.3-0.2
				l0,0.8l-0.5-0.3l0-2.9l0.8,0.5C181.6,83.7,181.8,83.9,182,84.2z M181.6,85.1c0.1,0,0.1-0.2,0.1-0.3c0-0.2,0-0.3-0.1-0.4
				c-0.1-0.1-0.2-0.2-0.4-0.3l-0.3-0.2l0,1l0.4,0.2C181.4,85.1,181.5,85.1,181.6,85.1z"/>
		</g>
	</g>
	<g id="XMLID_181_">
		<linearGradient id="XMLID_426_" gradientUnits="userSpaceOnUse" x1="173.8642" y1="67.5803" x2="180.8821" y2="67.5803">
			<stop  offset="0" style="stop-color:#FFFFFF"/>
			<stop  offset="1" style="stop-color:#3C5185"/>
		</linearGradient>
		<path id="XMLID_192_" class="st75" d="M174,62l-0.2,0.1v6.2c0,0.7,0.5,1.5,1,1.8l5.3,3.1l0.4-0.2c0.2-0.1,0.3-0.2,0.3-0.4v-5.9
			c0-0.7-0.5-1.4-1-1.8l-5.1-2.9C174.5,61.9,174.2,61.9,174,62z"/>
		<path id="XMLID_191_" class="st2" d="M174.6,62.2c-0.6-0.3-1-0.1-1,0.6v5.7c0,0.7,0.5,1.5,1,1.8l5,2.9c0.6,0.3,1,0.1,1-0.6v-5.7
			c0-0.7-0.5-1.4-1-1.8L174.6,62.2z"/>
		<g id="XMLID_182_">
			<path id="XMLID_189_" class="st5" d="M175.1,65.7l0.3,0.2l0,1.7l-0.3-0.2l0-0.7l-0.6-0.3l0,0.7l-0.3-0.2l0-1.7l0.3,0.2l0,0.7
				l0.6,0.3L175.1,65.7z"/>
			<path id="XMLID_187_" class="st5" d="M176.4,66.8l0,1.4l-0.3-0.2l0-1.4l-0.4-0.2l0-0.3l1.2,0.7l0,0.3L176.4,66.8z"/>
			<path id="XMLID_185_" class="st5" d="M178.3,68.2l-0.4,0.7l-0.2-0.1l-0.4-1.2l0,1.1l-0.3-0.2l0-1.7l0.4,0.3l0.4,1.2l0.4-0.7
				l0.4,0.3l0,1.7l-0.3-0.2L178.3,68.2z"/>
			<path id="XMLID_183_" class="st5" d="M179,69.7l0-1.7l0.3,0.2l0,1.4l0.6,0.4l0,0.3L179,69.7z"/>
		</g>
	</g>
	<path id="XMLID_70_" class="st65" d="M134.1,71.4l11.2,6.5c0.6,0.3,1.1,0.4,1.5,0.2l0,0l0.1-0.1c0,0,0,0,0,0l0.8-0.4
		c0.4-0.2,0.6-0.5,0.6-0.9V63.3c0-0.1,0-0.3,0-0.4l-16.2-9.4c-0.2,0.3-0.3,0.7-0.3,1.1v12.8C131.8,68.8,132.8,70.6,134.1,71.4z"/>
	<g>
		<linearGradient id="XMLID_427_" gradientUnits="userSpaceOnUse" x1="134.4795" y1="63.7714" x2="150.3254" y2="63.7714">
			<stop  offset="0" style="stop-color:#FFFFFF"/>
			<stop  offset="1" style="stop-color:#3C5185"/>
		</linearGradient>
		<path id="XMLID_180_" class="st76" d="M134.9,51.3l-0.4,0.3v14c0,1.5,1,3.3,2.3,4l12,7l0.9-0.5c0.4-0.2,0.6-0.5,0.6-0.9V61.8
			c0-1.5-1-3.3-2.3-4l-11.6-6.6C135.9,50.9,135.3,50.9,134.9,51.3z"/>
		<path id="XMLID_179_" class="st2" d="M136.1,51.7c-1.3-0.7-2.3-0.1-2.3,1.4v12.8c0,1.5,1,3.3,2.3,4l11.2,6.5
			c1.3,0.7,2.3,0.1,2.3-1.3V62c0-1.5-1-3.3-2.3-4L136.1,51.7z"/>
		<g id="XMLID_174_">
			<path id="XMLID_177_" class="st5" d="M138.3,60.7l0-0.9l2.6,1.5l0,3.2c0,0.6-0.2,0.9-0.5,1.1s-0.7,0-1.2-0.2
				c-0.6-0.3-1.1-0.9-1.6-1.6l0.6-0.5c0.3,0.5,0.6,0.8,0.9,1c0.2,0.1,0.3,0.1,0.4,0.1c0.1-0.1,0.2-0.2,0.2-0.4l0-2.3L138.3,60.7z"/>
			<path id="XMLID_175_" class="st5" d="M143.3,63.6c-0.1,0-0.2,0.1-0.2,0.3c0,0.1,0.1,0.3,0.2,0.5c0.1,0.2,0.4,0.4,0.9,0.8
				c0.5,0.4,0.8,0.8,1.1,1.2c0.3,0.4,0.4,0.8,0.4,1.2c0,0.4-0.2,0.7-0.5,0.8c-0.3,0.1-0.8,0-1.3-0.3c-0.8-0.5-1.5-1.1-2.1-2.1
				l0.7-0.4c0.5,0.8,1,1.3,1.5,1.6c0.2,0.1,0.4,0.2,0.5,0.1c0.1,0,0.2-0.1,0.2-0.3c0-0.1-0.1-0.3-0.2-0.5c-0.1-0.2-0.4-0.4-0.7-0.7
				c-0.6-0.5-1-0.9-1.3-1.3c-0.3-0.4-0.4-0.8-0.4-1.3c0-0.5,0.2-0.7,0.5-0.8c0.3-0.1,0.8,0.1,1.3,0.3c0.3,0.2,0.7,0.4,1,0.7
				c0.3,0.3,0.6,0.6,0.9,1l-0.6,0.5c-0.4-0.6-0.9-1-1.3-1.3C143.5,63.6,143.4,63.5,143.3,63.6z"/>
		</g>
	</g>
	<g>
		
			<radialGradient id="XMLID_428_" cx="108.192" cy="7917.8115" r="15.4102" gradientTransform="matrix(1 0 0 0.5172 0 -3893.1953)" gradientUnits="userSpaceOnUse">
			<stop  offset="0" style="stop-color:#3C5185"/>
			<stop  offset="5.744506e-002" style="stop-color:#506291"/>
			<stop  offset="0.2541" style="stop-color:#8D9AB8"/>
			<stop  offset="0.4339" style="stop-color:#BEC5D7"/>
			<stop  offset="0.5909" style="stop-color:#E2E5ED"/>
			<stop  offset="0.719" style="stop-color:#F7F8FA"/>
			<stop  offset="0.8023" style="stop-color:#FFFFFF"/>
		</radialGradient>
		<path id="XMLID_173_" class="st77" d="M97.4,195.3c5.9-3.4,15.6-3.4,21.6,0c5.9,3.4,5.9,9,0,12.5c-5.9,3.4-15.6,3.4-21.6,0
			C91.5,204.3,91.5,198.7,97.4,195.3z"/>
		<g>
			<path class="st2" d="M122.9,196.3c0-0.3-0.4-0.6-1-0.6l-2.1,0c-0.3,0-0.9,0.4-1,0.3c-0.1-0.2-0.1-0.4,0.2-0.5l1.5-0.9
				c0.4-0.2-2.1-0.1-2.4-0.3l0-1.9c-0.4-0.2-1-0.2-1.4,0l-1.5,0.9c-0.2,0.1-0.6,0.2-0.9,0.1c-0.2-0.1-0.4-0.1-0.6-0.2
				c-0.3-0.1-0.5-0.2-0.5-0.4v-1.2c0-0.3-0.4-0.6-1-0.6h-3.4c-0.5,0-1,0.3-1,0.6v1.2c0,0.2-0.2,0.4-0.6,0.4c-0.2,0-0.4,0.1-0.6,0.1
				c-0.3,0.1-0.7,0.1-0.9-0.1l-1.5-0.9c-0.4-0.2-1-0.2-1.4,0l-0.2,2c-0.4,0.2-2.6,0-2.2,0.2l1.5,0.9c0.2,0.1,0.3,0.3,0.2,0.5
				c-0.1,0.1-0.7-0.2-1-0.2l-2.1,0c-0.5,0-1,0.3-1,0.6l0,2.9c0,0.3,0.4,0.6,1,0.6l1.2,0l0,2.4c0,0,0,0.1,0,0.1l0,0h0
				c0,0.1,0.1,0.2,0.3,0.3l2.4,1.4c0.2,0.1,0.6,0.2,0.9,0.1l0,0v0c0.2,0,0.4-0.1,0.5-0.1l1.5-0.9c0.2-0.1,0.6-0.2,0.9-0.1
				c0.2,0.1,0.4,0.1,0.6,0.1c0.3,0.1,0.5,0.2,0.5,0.4l0,1.2c0,0.3,0.4,0.6,1,0.6l3.4,0c0.5,0,1-0.3,1-0.6l0-1.2
				c0-0.2,0.2-0.4,0.6-0.4c0.2,0,0.4-0.1,0.6-0.1c0.3-0.1,0.7-0.1,0.9,0.1l1.5,0.9c0.1,0.1,0.3,0.1,0.5,0.1v0l0,0
				c0.3,0,0.6,0,0.9-0.1l2.4-1.4c0.2-0.1,0.2-0.2,0.3-0.3l0,0l0-0.1c0,0,0,0,0,0l0-2.4l1.2,0c0.5,0,1-0.3,1-0.6L122.9,196.3z
				 M115.2,198.7c-0.6,1.7-3.7,2.7-6.5,2.1c-2.1-0.5-3.5-1.8-3-3.1c0.6-1.7,3.7-2.7,6.5-2.1C114.3,196.1,115.6,197.4,115.2,198.7z"
				/>
			<path id="XMLID_66_" class="st2" d="M120.8,193.1l0-1.5h-2.2l-0.5-0.3c-0.4-0.2-1-0.2-1.4,0l-0.5,0.3h-3.1v-1.1
				c0-0.3-0.4-0.6-1-0.6h-3.4c-0.5,0-1,0.3-1,0.6v1.1h-3.1l-0.5-0.3c-0.4-0.2-1-0.2-1.4,0l-0.5,0.3H100v1.5c0,0.2,0.1,0.3,0.3,0.4
				l1.5,0.9l17.2,0l1.5-0.9C120.7,193.3,120.7,193.2,120.8,193.1L120.8,193.1z"/>
			<g id="XMLID_169_">
				<path id="XMLID_170_" class="st69" d="M119.3,197.1l2.7,0c0.5,0,1-0.3,1-0.6l0-2c0-0.3-0.4-0.6-1-0.6l-2.1,0
					c-0.3,0-0.6-0.1-0.8-0.3c-0.1-0.1-0.2-0.2-0.2-0.3c-0.1-0.2-0.1-0.4,0.2-0.5l1.5-0.9c0.4-0.2,0.4-0.6,0-0.8l-2.4-1.4
					c-0.4-0.2-1-0.2-1.4,0l-1.5,0.9c-0.2,0.1-0.6,0.2-0.9,0.1c-0.2-0.1-0.4-0.1-0.6-0.2c-0.3-0.1-0.5-0.2-0.5-0.4v-1.2
					c0-0.3-0.4-0.6-1-0.6h-3.4c-0.5,0-1,0.3-1,0.6v1.2c0,0.2-0.2,0.4-0.6,0.4c-0.2,0-0.4,0.1-0.6,0.1c-0.3,0.1-0.7,0.1-0.9-0.1
					l-1.5-0.9c-0.4-0.2-1-0.2-1.4,0l-2.4,1.4c-0.4,0.2-0.4,0.6,0,0.8l1.5,0.9c0.2,0.1,0.3,0.3,0.2,0.5c-0.1,0.1-0.2,0.3-0.3,0.4
					c-0.1,0.2-0.4,0.3-0.8,0.3l-2.1,0c-0.5,0-1,0.3-1,0.6l0,2c0,0.3,0.4,0.6,1,0.6l2.1,0c0.3,0,0.6,0.1,0.8,0.3
					c0.1,0.1,0.2,0.2,0.2,0.3c0.1,0.2,0.1,0.4-0.2,0.5l-1.5,0.9c-0.4,0.2-0.4,0.6,0,0.8l2.4,1.4c0.4,0.2,1,0.2,1.4,0l1.5-0.9
					c0.2-0.1,0.6-0.2,0.9-0.1c0.2,0.1,0.4,0.1,0.6,0.1c0.3,0.1,0.5,0.2,0.5,0.4l0,1.2c0,0.3,0.4,0.6,1,0.6l3.4,0c0.5,0,1-0.3,1-0.6
					l0-1.2c0-0.2,0.2-0.4,0.6-0.4c0.2,0,0.4-0.1,0.6-0.1c0.3-0.1,0.7-0.1,0.9,0.1l1.5,0.9c0.4,0.2,1,0.2,1.4,0l2.4-1.4
					c0.4-0.2,0.4-0.6,0-0.8l-1.5-0.9c-0.2-0.1-0.3-0.3-0.2-0.5C119,197.4,119.3,197.1,119.3,197.1z M105.6,195
					c0.6-1.7,3.7-2.7,6.5-2.1c2.1,0.5,3.5,1.8,3,3.1c-0.6,1.7-3.7,2.7-6.5,2.1C106.5,197.7,105.2,196.3,105.6,195z"/>
			</g>
		</g>
	</g>
	<g>
		<g class="st78">
			<path id="XMLID_65_" class="st9" d="M92.8,187.3l-28.4-16.1c-1.8-1-4.8-1-6.6,0l-12.4,7.4c-1.2,0.7-1.6,1.7-1.2,2.6
				c-0.4,0.9,0,1.9,1.2,2.6L73.8,200c1.8,1,4.8,1,6.5,0l12.5-7.5c1.2-0.7,1.6-1.7,1.2-2.6C94.4,189,94,188,92.8,187.3z"/>
			<path id="XMLID_64_" class="st10" d="M92.7,187.3l-28.2-16c-1.8-1-4.7-1-6.5,0l-12.4,7.4c-1.2,0.7-1.6,1.7-1.2,2.6
				c-0.4,0.9,0,1.9,1.2,2.6L73.8,200c1.8,1,4.7,1,6.5,0l12.4-7.5c1.2-0.7,1.6-1.7,1.2-2.6C94.3,189,93.9,188,92.7,187.3z"/>
			<path id="XMLID_62_" class="st11" d="M92.6,187.3l-28.1-16c-1.8-1-4.7-1-6.5,0l-12.3,7.3c-1.2,0.7-1.6,1.7-1.2,2.5
				c-0.4,0.9,0,1.9,1.2,2.5l28.1,16c1.8,1,4.7,1,6.5,0l12.3-7.4c1.2-0.7,1.5-1.7,1.2-2.5C94.2,189,93.8,188,92.6,187.3z"/>
			<path id="XMLID_61_" class="st12" d="M92.5,187.4l-28-15.9c-1.8-1-4.7-1-6.5,0l-12.2,7.3c-1.2,0.7-1.5,1.7-1.2,2.5
				c-0.4,0.9,0,1.9,1.2,2.5l28,16c1.8,1,4.7,1,6.4,0l12.2-7.4c1.2-0.7,1.5-1.7,1.2-2.5C94.1,189,93.7,188,92.5,187.4z"/>
			<path id="XMLID_60_" class="st13" d="M92.4,187.4l-27.9-15.8c-1.8-1-4.7-1-6.4,0l-12.2,7.3c-1.2,0.7-1.5,1.6-1.2,2.5
				c-0.4,0.9,0,1.8,1.2,2.5l27.9,15.9c1.8,1,4.7,1,6.4,0l12.2-7.3c1.2-0.7,1.5-1.6,1.2-2.5C94,189,93.6,188,92.4,187.4z"/>
			<path id="XMLID_59_" class="st14" d="M92.3,187.4l-27.8-15.8c-1.8-1-4.6-1-6.4,0L46,178.8c-1.2,0.7-1.5,1.6-1.2,2.5
				c-0.4,0.9,0,1.8,1.2,2.5l27.8,15.8c1.8,1,4.6,1,6.4,0l12.1-7.3c1.2-0.7,1.5-1.6,1.2-2.5C93.8,189,93.5,188,92.3,187.4z"/>
			<path id="XMLID_58_" class="st15" d="M92.2,187.4l-27.7-15.7c-1.8-1-4.6-1-6.4,0l-12,7.2c-1.1,0.7-1.5,1.6-1.2,2.5
				c-0.4,0.9,0,1.8,1.2,2.5l27.7,15.8c1.8,1,4.6,1,6.4,0l12-7.2c1.1-0.7,1.5-1.6,1.1-2.5C93.7,189,93.3,188,92.2,187.4z"/>
			<path id="XMLID_57_" class="st16" d="M92.1,187.4l-27.6-15.6c-1.7-1-4.6-1-6.3,0l-11.9,7.1c-1.1,0.7-1.5,1.6-1.1,2.5
				c-0.4,0.9,0,1.8,1.2,2.5l27.6,15.7c1.7,1,4.6,1,6.3,0l11.9-7.2c1.1-0.7,1.5-1.6,1.1-2.5C93.6,189,93.2,188,92.1,187.4z"/>
			<path id="XMLID_56_" class="st17" d="M92,187.4l-27.5-15.6c-1.7-1-4.6-1-6.3,0l-11.9,7.1c-1.1,0.7-1.5,1.6-1.1,2.5
				c-0.4,0.9,0,1.8,1.2,2.5l27.5,15.7c1.7,1,4.6,1,6.3,0l11.9-7.2c1.1-0.7,1.5-1.6,1.1-2.5C93.5,189,93.1,188,92,187.4z"/>
			<path id="XMLID_55_" class="st18" d="M91.9,187.4l-27.4-15.5c-1.7-1-4.6-1-6.3,0l-11.8,7c-1.1,0.7-1.5,1.6-1.1,2.5
				c-0.4,0.9,0,1.8,1.2,2.5l27.4,15.6c1.7,1,4.5,1,6.3,0l11.8-7.1c1.1-0.7,1.5-1.6,1.1-2.5C93.4,189,93,188,91.9,187.4z"/>
			<path id="XMLID_54_" class="st19" d="M91.8,187.4l-27.3-15.5c-1.7-1-4.5-1-6.2,0l-11.7,7c-1.1,0.7-1.5,1.6-1.1,2.4
				c-0.4,0.9,0,1.8,1.1,2.4l27.3,15.5c1.7,1,4.5,1,6.2,0l11.7-7.1c1.1-0.7,1.5-1.6,1.1-2.4C93.3,189,92.9,188,91.8,187.4z"/>
			<path id="XMLID_53_" class="st20" d="M91.6,187.4L64.5,172c-1.7-1-4.5-1-6.2,0l-11.6,7c-1.1,0.7-1.5,1.6-1.1,2.4
				c-0.4,0.8,0,1.8,1.1,2.4l27.2,15.5c1.7,1,4.5,1,6.2,0l11.6-7c1.1-0.7,1.5-1.6,1.1-2.4C93.2,189,92.8,188,91.6,187.4z"/>
			<path id="XMLID_52_" class="st21" d="M91.5,187.4l-27-15.3c-1.7-1-4.5-1-6.2,0L46.8,179c-1.1,0.7-1.5,1.6-1.1,2.4
				c-0.4,0.8,0,1.8,1.1,2.4l27.1,15.4c1.7,1,4.5,1,6.2,0l11.6-7c1.1-0.7,1.5-1.6,1.1-2.4C93,189,92.7,188,91.5,187.4z"/>
			<path id="XMLID_51_" class="st22" d="M91.4,187.4l-26.9-15.3c-1.7-1-4.5-1-6.1,0L46.9,179c-1.1,0.7-1.5,1.6-1.1,2.4
				c-0.4,0.8,0,1.8,1.1,2.4l26.9,15.3c1.7,1,4.5,1,6.1,0l11.5-6.9c1.1-0.7,1.5-1.6,1.1-2.4C92.9,189,92.6,188,91.4,187.4z"/>
			<path id="XMLID_50_" class="st23" d="M91.3,187.4l-26.8-15.2c-1.7-1-4.4-1-6.1,0L47,179c-1.1,0.6-1.5,1.6-1.1,2.4
				c-0.4,0.8,0,1.8,1.1,2.4l26.8,15.3c1.7,1,4.4,1,6.1,0l11.4-6.9c1.1-0.7,1.5-1.6,1.1-2.4C92.8,188.9,92.4,188,91.3,187.4z"/>
			<path id="XMLID_48_" class="st24" d="M91.2,187.4l-26.7-15.1c-1.7-1-4.4-0.9-6.1,0l-11.3,6.8c-1.1,0.6-1.5,1.6-1.1,2.4
				c-0.4,0.8,0,1.7,1.1,2.4L73.8,199c1.7,1,4.4,1,6.1,0l11.3-6.9c1.1-0.6,1.4-1.6,1.1-2.4C92.7,188.9,92.3,188,91.2,187.4z"/>
			<path id="XMLID_47_" class="st25" d="M91.1,187.4l-26.6-15.1c-1.7-1-4.4-0.9-6.1,0l-11.3,6.7c-1.1,0.6-1.4,1.5-1.1,2.4
				c-0.4,0.8,0,1.7,1.1,2.4L73.8,199c1.7,1,4.4,0.9,6,0l11.3-6.8c1.1-0.6,1.4-1.6,1.1-2.4C92.6,188.9,92.2,188,91.1,187.4z"/>
			<path id="XMLID_45_" class="st26" d="M91,187.4l-26.5-15c-1.7-1-4.4-0.9-6,0l-11.2,6.7c-1.1,0.6-1.4,1.5-1.1,2.4
				c-0.3,0.8,0,1.7,1.1,2.4l26.5,15.1c1.7,1,4.4,0.9,6,0l11.2-6.8c1.1-0.6,1.4-1.5,1.1-2.4C92.5,188.9,92.1,188,91,187.4z"/>
			<path id="XMLID_44_" class="st27" d="M90.9,187.4l-26.4-15c-1.7-0.9-4.3-0.9-6,0l-11.1,6.7c-1.1,0.6-1.4,1.5-1.1,2.3
				c-0.3,0.8,0,1.7,1.1,2.3l26.4,15c1.6,1,4.3,0.9,6,0l11.1-6.7c1.1-0.6,1.4-1.5,1.1-2.3C92.3,188.9,92,188,90.9,187.4z"/>
			<path id="XMLID_43_" class="st28" d="M90.8,187.4l-26.3-14.9c-1.6-0.9-4.3-0.9-6,0l-11,6.6c-1.1,0.6-1.4,1.5-1.1,2.3
				c-0.3,0.8,0,1.7,1.1,2.3l26.3,15c1.6,0.9,4.3,0.9,5.9,0l11.1-6.7c1.1-0.6,1.4-1.5,1.1-2.3C92.2,188.9,91.9,188,90.8,187.4z"/>
			<path id="XMLID_42_" class="st29" d="M90.7,187.4l-26.2-14.8c-1.6-0.9-4.3-0.9-5.9,0l-11,6.6c-1.1,0.6-1.4,1.5-1.1,2.3
				c-0.3,0.8,0,1.7,1.1,2.3l26.2,14.9c1.6,0.9,4.3,0.9,5.9,0l11-6.6c1.1-0.6,1.4-1.5,1.1-2.3C92.1,188.9,91.8,188,90.7,187.4z"/>
			<path id="XMLID_41_" class="st30" d="M90.6,187.4l-26.1-14.8c-1.6-0.9-4.3-0.9-5.9,0l-10.9,6.5c-1.1,0.6-1.4,1.5-1.1,2.3
				c-0.3,0.8,0,1.7,1.1,2.3l26.1,14.8c1.6,0.9,4.3,0.9,5.9,0l10.9-6.6c1.1-0.6,1.4-1.5,1.1-2.3C92,188.9,91.7,188,90.6,187.4z"/>
			<path id="XMLID_40_" class="st31" d="M90.5,187.4l-26-14.7c-1.6-0.9-4.3-0.9-5.9,0l-10.8,6.5c-1.1,0.6-1.4,1.5-1.1,2.3
				c-0.3,0.8,0,1.7,1.1,2.3l26,14.8c1.6,0.9,4.2,0.9,5.9,0l10.8-6.5c1.1-0.6,1.4-1.5,1.1-2.3C91.9,188.9,91.5,188,90.5,187.4z"/>
			<path id="XMLID_34_" class="st32" d="M90.4,187.4l-25.8-14.6c-1.6-0.9-4.2-0.9-5.8,0l-10.7,6.4c-1.1,0.6-1.4,1.5-1.1,2.3
				c-0.3,0.8,0,1.7,1.1,2.3l25.9,14.7c1.6,0.9,4.2,0.9,5.8,0l10.8-6.5c1-0.6,1.4-1.5,1.1-2.3C91.8,188.9,91.4,188,90.4,187.4z"/>
			<path id="XMLID_33_" class="st33" d="M90.3,187.4l-25.7-14.6c-1.6-0.9-4.2-0.9-5.8,0L48,179.3c-1,0.6-1.4,1.5-1.1,2.3
				c-0.3,0.8,0,1.7,1.1,2.3l25.7,14.7c1.6,0.9,4.2,0.9,5.8,0l10.7-6.5c1-0.6,1.4-1.5,1-2.3C91.7,188.9,91.3,188,90.3,187.4z"/>
			<path id="XMLID_32_" class="st34" d="M90.1,187.4l-25.6-14.5c-1.6-0.9-4.2-0.9-5.8,0l-10.6,6.3c-1,0.6-1.4,1.5-1,2.3
				c-0.3,0.8,0,1.7,1.1,2.3l25.6,14.6c1.6,0.9,4.2,0.9,5.8,0l10.6-6.4c1-0.6,1.4-1.5,1-2.3C91.5,188.9,91.2,188,90.1,187.4z"/>
			<path id="XMLID_31_" class="st35" d="M90,187.4L64.5,173c-1.6-0.9-4.2-0.9-5.7,0l-10.5,6.3c-1,0.6-1.4,1.5-1,2.2
				c-0.3,0.8,0,1.6,1.1,2.2l25.5,14.5c1.6,0.9,4.2,0.9,5.7,0l10.5-6.4c1-0.6,1.4-1.5,1-2.2C91.4,188.9,91.1,188,90,187.4z"/>
			<path id="XMLID_30_" class="st36" d="M89.9,187.4L64.5,173c-1.6-0.9-4.1-0.9-5.7,0l-10.4,6.3c-1,0.6-1.4,1.5-1,2.2
				c-0.3,0.8,0,1.6,1,2.2l25.4,14.5c1.6,0.9,4.1,0.9,5.7,0l10.5-6.3c1-0.6,1.4-1.5,1-2.2C91.3,188.9,91,188,89.9,187.4z"/>
			<path id="XMLID_29_" class="st37" d="M89.8,187.4l-25.3-14.3c-1.6-0.9-4.1-0.9-5.7,0l-10.4,6.2c-1,0.6-1.4,1.5-1,2.2
				c-0.3,0.8,0,1.6,1,2.2l25.3,14.4c1.6,0.9,4.1,0.9,5.7,0l10.4-6.3c1-0.6,1.4-1.5,1-2.2C91.2,188.9,90.9,188,89.8,187.4z"/>
			<path id="XMLID_28_" class="st38" d="M89.7,187.4l-25.2-14.3c-1.6-0.9-4.1-0.9-5.6,0l-10.3,6.2c-1,0.6-1.3,1.4-1,2.2
				c-0.3,0.8,0,1.6,1,2.2l25.2,14.3c1.6,0.9,4.1,0.9,5.6,0l10.3-6.2c1-0.6,1.3-1.4,1-2.2C91.1,188.9,90.7,188,89.7,187.4z"/>
			<path id="XMLID_27_" class="st39" d="M89.6,187.4l-25.1-14.2c-1.5-0.9-4.1-0.9-5.6,0l-10.2,6.1c-1,0.6-1.3,1.4-1,2.2
				c-0.3,0.8,0,1.6,1,2.2l25.1,14.3c1.5,0.9,4.1,0.9,5.6,0l10.2-6.2c1-0.6,1.3-1.4,1-2.2C91,188.9,90.6,188,89.6,187.4z"/>
			<path id="XMLID_26_" class="st40" d="M89.5,187.4l-25-14.1c-1.5-0.9-4-0.9-5.6,0l-10.2,6.1c-1,0.6-1.3,1.4-1,2.2
				c-0.3,0.8,0,1.6,1,2.2l25,14.2c1.5,0.9,4,0.9,5.6,0l10.2-6.1c1-0.6,1.3-1.4,1-2.2C90.9,188.9,90.5,188,89.5,187.4z"/>
			<path id="XMLID_25_" class="st41" d="M89.4,187.4l-24.9-14.1c-1.5-0.9-4-0.9-5.5,0l-10.1,6c-1,0.6-1.3,1.4-1,2.2
				c-0.3,0.8,0,1.6,1,2.2l24.9,14.1c1.5,0.9,4,0.9,5.5,0l10.1-6.1c1-0.6,1.3-1.4,1-2.2C90.7,188.9,90.4,188,89.4,187.4z"/>
			<path id="XMLID_24_" class="st42" d="M89.3,187.4l-24.8-14c-1.5-0.9-4-0.9-5.5,0l-10,6c-1,0.6-1.3,1.4-1,2.2
				c-0.3,0.8,0,1.6,1,2.2l24.8,14.1c1.5,0.9,4,0.9,5.5,0l10-6.1c1-0.6,1.3-1.4,1-2.2C90.6,188.9,90.3,188,89.3,187.4z"/>
			<path id="XMLID_23_" class="st43" d="M89.2,187.4l-24.6-14c-1.5-0.9-4-0.9-5.5,0l-9.9,6c-1,0.6-1.3,1.4-1,2.1
				c-0.3,0.7,0,1.6,1,2.1l24.7,14c1.5,0.9,4,0.9,5.5,0l9.9-6c1-0.6,1.3-1.4,1-2.1C90.5,188.8,90.2,188,89.2,187.4z"/>
			<path id="XMLID_21_" class="st44" d="M89.1,187.5l-24.5-13.9c-1.5-0.9-4-0.8-5.5,0l-9.9,5.9c-1,0.6-1.3,1.4-1,2.1
				c-0.3,0.7,0,1.6,1,2.1l24.5,14c1.5,0.9,4,0.9,5.4,0l9.9-6c1-0.6,1.3-1.4,1-2.1C90.4,188.8,90.1,188,89.1,187.5z"/>
			<path id="XMLID_18_" class="st45" d="M89,187.5l-24.4-13.8c-1.5-0.9-3.9-0.8-5.4,0l-9.8,5.9c-1,0.6-1.3,1.4-1,2.1
				c-0.3,0.7,0,1.6,1,2.1l24.4,13.9c1.5,0.9,3.9,0.8,5.4,0l9.8-5.9c1-0.6,1.3-1.4,1-2.1C90.3,188.8,90,188,89,187.5z"/>
			<path id="XMLID_15_" class="st46" d="M88.9,187.5l-24.3-13.8c-1.5-0.9-3.9-0.8-5.4,0l-9.7,5.8c-1,0.6-1.3,1.4-1,2.1
				c-0.3,0.7,0,1.5,1,2.1l24.3,13.8c1.5,0.9,3.9,0.8,5.4,0l9.7-5.9c1-0.6,1.3-1.4,1-2.1C90.2,188.8,89.8,188,88.9,187.5z"/>
			<path id="XMLID_14_" class="st47" d="M88.8,187.5l-24.2-13.7c-1.5-0.8-3.9-0.8-5.4,0l-9.6,5.8c-1,0.6-1.3,1.4-1,2.1
				c-0.3,0.7,0,1.5,1,2.1l24.2,13.8c1.5,0.9,3.9,0.8,5.3,0l9.6-5.8c1-0.6,1.3-1.4,1-2.1C90.1,188.8,89.7,188,88.8,187.5z"/>
			<path id="XMLID_13_" class="st48" d="M88.6,187.5l-24.1-13.6c-1.5-0.8-3.9-0.8-5.3,0l-9.6,5.7c-1,0.6-1.3,1.4-1,2.1
				c-0.3,0.7,0,1.5,1,2.1l24.1,13.7c1.5,0.8,3.9,0.8,5.3,0l9.6-5.8c1-0.6,1.3-1.4,1-2.1C89.9,188.8,89.6,188,88.6,187.5z"/>
			<path id="XMLID_8_" class="st49" d="M88.5,187.5l-24-13.6c-1.5-0.8-3.8-0.8-5.3,0l-9.5,5.7c-1,0.6-1.3,1.4-1,2.1
				c-0.3,0.7,0,1.5,1,2.1l24,13.6c1.5,0.8,3.8,0.8,5.3,0l9.5-5.8c1-0.6,1.3-1.4,1-2.1C89.8,188.8,89.5,188,88.5,187.5z"/>
			<path id="XMLID_6_" class="st2" d="M88.4,187.5L64.5,174c-1.5-0.8-3.8-0.8-5.3,0l-9.4,5.6c-0.9,0.6-1.3,1.3-1,2.1
				c-0.3,0.7,0,1.5,1,2.1l23.9,13.6c1.5,0.8,3.8,0.8,5.3,0l9.4-5.7c0.9-0.6,1.3-1.3,0.9-2.1C89.7,188.8,89.4,188,88.4,187.5z"/>
		</g>
		<g>
			<linearGradient id="XMLID_429_" gradientUnits="userSpaceOnUse" x1="81.7067" y1="196.5481" x2="59.266" y2="152.504">
				<stop  offset="0" style="stop-color:#A5CBEF"/>
				<stop  offset="1.784623e-002" style="stop-color:#A7CCEF"/>
				<stop  offset="0.2495" style="stop-color:#C1DAF5"/>
				<stop  offset="0.4874" style="stop-color:#D4E3F9"/>
				<stop  offset="0.7334" style="stop-color:#DFE9FB"/>
				<stop  offset="1" style="stop-color:#E3EBFC"/>
			</linearGradient>
			<path id="XMLID_168_" class="st79" d="M46.9,164.3c0,0,0.2-3.5,0.3-3.6l11.7-6.8c1.2-0.7,2.6-0.7,3.8,0l27.5,15.9
				c0.6,0.3,1,1.1,1,1.8v17.3c0,1.1-0.6,2.1-1.5,2.7l-12.4,7.2l-26.1-17.9L46.9,164.3z"/>
			<path id="XMLID_167_" class="st80" d="M46.9,161.4c0-0.7,0.5-0.9,1-0.6l28.9,16.7c0.6,0.3,1,1.1,1,1.8V198c0,0.7-0.8,1.2-1.4,0.8
				L48,182.3c-0.7-0.4-1.1-1.1-1.1-1.9V161.4z"/>
			<linearGradient id="XMLID_430_" gradientUnits="userSpaceOnUse" x1="46.8642" y1="171.3773" x2="77.8163" y2="171.3773">
				<stop  offset="0" style="stop-color:#3C5185"/>
				<stop  offset="0.128" style="stop-color:#41588E"/>
				<stop  offset="0.6948" style="stop-color:#5573B1"/>
				<stop  offset="1" style="stop-color:#5D7DBE"/>
			</linearGradient>
			<path id="XMLID_166_" class="st81" d="M76.8,177.4l-28.9-16.7c-0.6-0.3-1-0.1-1,0.6v2.9l31,17.9v-2.9
				C77.8,178.6,77.3,177.8,76.8,177.4z"/>
			<path id="XMLID_165_" class="st5" d="M48.3,162.7c-0.3-0.1-0.5,0-0.5,0.3c0,0.3,0.2,0.7,0.5,0.8c0.3,0.1,0.5,0,0.5-0.3
				C48.8,163.2,48.6,162.9,48.3,162.7z"/>
			<path id="XMLID_164_" class="st5" d="M50,163.6c-0.3-0.1-0.5,0-0.5,0.3c0,0.3,0.2,0.7,0.5,0.8c0.3,0.1,0.5,0,0.5-0.3
				C50.5,164.1,50.3,163.8,50,163.6z"/>
			<path id="XMLID_162_" class="st5" d="M51.7,164.5c-0.3-0.1-0.5,0-0.5,0.3c0,0.3,0.2,0.7,0.5,0.8c0.3,0.1,0.5,0,0.5-0.3
				C52.2,165.1,51.9,164.7,51.7,164.5z"/>
			<polygon id="XMLID_161_" class="st2" points="51.8,168.8 61.5,174.4 61.5,175 51.8,169.4 			"/>
			<polygon id="XMLID_160_" class="st2" points="47.8,166.5 51.2,168.4 51.2,169.1 47.8,167.1 			"/>
			<linearGradient id="XMLID_431_" gradientUnits="userSpaceOnUse" x1="49.5216" y1="170.424" x2="52.3052" y2="170.424">
				<stop  offset="0" style="stop-color:#FF9800"/>
				<stop  offset="0.6264" style="stop-color:#FFB004"/>
				<stop  offset="1" style="stop-color:#FFC107"/>
			</linearGradient>
			<polygon id="XMLID_159_" class="st82" points="49.5,169.3 52.3,170.9 52.3,171.5 49.5,169.9 			"/>
			<polygon id="XMLID_158_" class="st2" points="52.8,171.2 56.6,173.4 56.6,174 52.8,171.8 			"/>
			<polygon id="XMLID_157_" class="st2" points="58.9,176.6 76.8,186.9 76.8,187.6 58.9,177.2 			"/>
			<linearGradient id="XMLID_432_" gradientUnits="userSpaceOnUse" x1="55.8092" y1="175.7373" x2="58.008" y2="175.7373">
				<stop  offset="0" style="stop-color:#FF9800"/>
				<stop  offset="0.6264" style="stop-color:#FFB004"/>
				<stop  offset="1" style="stop-color:#FFC107"/>
			</linearGradient>
			<polygon id="XMLID_156_" class="st83" points="55.8,174.8 58,176.1 58,176.7 55.8,175.4 			"/>
			<polygon id="XMLID_155_" class="st2" points="47.8,170.2 54.8,174.2 54.8,174.9 47.8,170.8 			"/>
			<polygon id="XMLID_154_" class="st2" points="53,175 59.8,179 59.8,179.6 53,175.7 			"/>
			<linearGradient id="XMLID_433_" gradientUnits="userSpaceOnUse" x1="51.0378" y1="174.6606" x2="52.5586" y2="174.6606">
				<stop  offset="0" style="stop-color:#FF9800"/>
				<stop  offset="0.6264" style="stop-color:#FFB004"/>
				<stop  offset="1" style="stop-color:#FFC107"/>
			</linearGradient>
			<polygon id="XMLID_153_" class="st84" points="51,173.9 52.6,174.8 52.6,175.4 51,174.5 			"/>
			<polygon id="XMLID_152_" class="st2" points="53.8,177.3 75.4,189.8 75.4,190.4 53.8,178 			"/>
			<polygon id="XMLID_151_" class="st2" points="48.8,174.5 53.2,177 53.2,177.6 48.8,175.1 			"/>
			<polygon id="XMLID_150_" class="st2" points="56.2,180.6 76.8,192.5 76.8,193.1 56.2,181.2 			"/>
			<polygon id="XMLID_148_" class="st2" points="51,177.6 55.6,180.2 55.6,180.9 51,178.2 			"/>
			<linearGradient id="XMLID_434_" gradientUnits="userSpaceOnUse" x1="47.8476" y1="176.8496" x2="50.5681" y2="176.8496">
				<stop  offset="0" style="stop-color:#FF9800"/>
				<stop  offset="0.6264" style="stop-color:#FFB004"/>
				<stop  offset="1" style="stop-color:#FFC107"/>
			</linearGradient>
			<polygon id="XMLID_147_" class="st85" points="47.8,175.7 50.6,177.3 50.6,178 47.8,176.4 			"/>
			<linearGradient id="XMLID_435_" gradientUnits="userSpaceOnUse" x1="52.7823" y1="181.2171" x2="54.3479" y2="181.2171">
				<stop  offset="0" style="stop-color:#FF9800"/>
				<stop  offset="0.6264" style="stop-color:#FFB004"/>
				<stop  offset="1" style="stop-color:#FFC107"/>
			</linearGradient>
			<polygon id="XMLID_146_" class="st86" points="52.8,180.4 54.3,181.3 54.3,182 52.8,181.1 			"/>
			<polygon id="XMLID_145_" class="st2" points="50.8,179.3 52.3,180.1 52.3,180.8 50.8,179.9 			"/>
			<polygon id="XMLID_144_" class="st2" points="56.7,184.5 76.8,196.2 76.8,196.8 56.7,185.1 			"/>
			<polygon id="XMLID_143_" class="st2" points="51.9,181.8 55.3,183.7 55.3,184.4 51.9,182.4 			"/>
			<linearGradient id="XMLID_436_" gradientUnits="userSpaceOnUse" x1="47.8476" y1="180.2664" x2="49.6063" y2="180.2664">
				<stop  offset="0" style="stop-color:#FF9800"/>
				<stop  offset="0.6264" style="stop-color:#FFB004"/>
				<stop  offset="1" style="stop-color:#FFC107"/>
			</linearGradient>
			<polygon id="XMLID_142_" class="st87" points="47.8,179.4 49.6,180.4 49.6,181.1 47.8,180.1 			"/>
		</g>
		<g>
			<g id="XMLID_140_">
				<path id="XMLID_141_" class="st88" d="M77.3,165c-0.5,0.4-1,0.7-1.5,0.9l-0.1,0.1l0,0c-4.1,1.7-7.9-1.5-7.9-1.5
					c-0.8-0.7-1.1-2.6-1-3.9c-0.1-0.3-0.2-0.6-0.3-1.1c-0.2-1-0.4-2.3-0.4-3.7l16.6,9.6v0.3l-3.2-1.9L77.3,165z"/>
			</g>
			<g id="XMLID_136_">
				<linearGradient id="XMLID_437_" gradientUnits="userSpaceOnUse" x1="68.3746" y1="159.5897" x2="82.54" y2="159.5897">
					<stop  offset="0" style="stop-color:#3C5185"/>
					<stop  offset="0.128" style="stop-color:#41588E"/>
					<stop  offset="0.6948" style="stop-color:#5573B1"/>
					<stop  offset="1" style="stop-color:#5D7DBE"/>
				</linearGradient>
				<path id="XMLID_137_" class="st89" d="M70.5,162.7l7.7-4.4v4.7l4.3,2.5v-8c0-1.4-0.7-2.7-1.9-3.4c-1.2-0.7-2.7-0.7-3.9,0
					l-8.3,4.8L70.5,162.7z"/>
			</g>
			<g id="XMLID_130_">
				<linearGradient id="XMLID_438_" gradientUnits="userSpaceOnUse" x1="72.2989" y1="161.8507" x2="86.4641" y2="161.8507">
					<stop  offset="0" style="stop-color:#3C5185"/>
					<stop  offset="0.128" style="stop-color:#41588E"/>
					<stop  offset="0.6948" style="stop-color:#5573B1"/>
					<stop  offset="1" style="stop-color:#5D7DBE"/>
				</linearGradient>
				<path id="XMLID_135_" class="st90" d="M74.5,165l7.7-4.4v4.6l4.3,2.5v-7.9c0-1.4-0.7-2.7-1.9-3.4c-1.2-0.7-2.7-0.7-3.9,0
					l-8.3,4.8L74.5,165z"/>
			</g>
			<linearGradient id="XMLID_439_" gradientUnits="userSpaceOnUse" x1="65.5052" y1="161.4694" x2="76.099" y2="161.4694">
				<stop  offset="0" style="stop-color:#3C5185"/>
				<stop  offset="0.128" style="stop-color:#41588E"/>
				<stop  offset="0.6948" style="stop-color:#5573B1"/>
				<stop  offset="1" style="stop-color:#5D7DBE"/>
			</linearGradient>
			<path id="XMLID_129_" class="st91" d="M76.1,164.1c-4.7,3.5-9.6-0.5-9.6-0.5c-1-0.9-1.2-3.8-0.9-4.8l1.3-1.3l6.8,3.8L76.1,164.1z
				"/>
			<g id="XMLID_38_">
				<linearGradient id="XMLID_440_" gradientUnits="userSpaceOnUse" x1="73.7103" y1="150.1641" x2="86.7445" y2="150.1641">
					<stop  offset="3.802050e-003" style="stop-color:#A5CBEF"/>
					<stop  offset="0.2136" style="stop-color:#B2D3F1"/>
					<stop  offset="0.6044" style="stop-color:#D5E7F8"/>
					<stop  offset="1" style="stop-color:#FFFFFF"/>
				</linearGradient>
				<path id="XMLID_128_" class="st92" d="M86.5,149l-9.8-5.6c-0.1-0.1-0.3,0-0.3,0.2l-2.7,7.5c0,0.2,0.1,0.3,0.2,0.4l9.8,5.6
					c0.1,0.1,0.2,0,0.3-0.2l2.7-7.5C86.7,149.2,86.7,149,86.5,149z"/>
				<path id="XMLID_127_" class="st2" d="M86.4,149.1l-9.8-5.6c-0.1-0.1-0.2,0-0.3,0.2l-2.7,7.5c0,0.2,0.1,0.3,0.2,0.4l9.8,5.6
					c0.1,0.1,0.2,0,0.3-0.2l2.7-7.5C86.6,149.3,86.5,149.1,86.4,149.1z"/>
				
					<linearGradient id="XMLID_441_" gradientUnits="userSpaceOnUse" x1="1869.6858" y1="150.2629" x2="1881.6787" y2="150.2629" gradientTransform="matrix(-1 0 0 1 1955.7723 0)">
					<stop  offset="0" style="stop-color:#FF9800"/>
					<stop  offset="0.6264" style="stop-color:#FFB004"/>
					<stop  offset="1" style="stop-color:#FFC107"/>
				</linearGradient>
				<polygon id="XMLID_126_" class="st93" points="86.1,149.4 76.6,144.1 74.1,151 83.5,156.5 				"/>
				<linearGradient id="XMLID_442_" gradientUnits="userSpaceOnUse" x1="66.8863" y1="156.3816" x2="83.6777" y2="156.3816">
					<stop  offset="3.802050e-003" style="stop-color:#A5CBEF"/>
					<stop  offset="0.2136" style="stop-color:#B2D3F1"/>
					<stop  offset="0.6044" style="stop-color:#D5E7F8"/>
					<stop  offset="1" style="stop-color:#FFFFFF"/>
				</linearGradient>
				<path id="XMLID_125_" class="st94" d="M73.1,151.7l-6.3,3.3c0,0,0,0.5,0.1,0.6l9.6,5.5c0.2,0.1,0.5,0.1,0.8,0l6.2-3.5
					c0.3-0.2,0.1-0.6,0.1-0.6l-9.7-5.3C73.7,151.5,73.4,151.5,73.1,151.7z"/>
				<path id="XMLID_124_" class="st5" d="M73.1,151.3l-6.2,3.5c-0.1,0.1-0.1,0.3,0,0.3l9.6,5.5c0.2,0.1,0.5,0.1,0.8,0l6.2-3.5
					c0.1-0.1,0.1-0.3,0-0.3l-9.6-5.5C73.7,151.2,73.4,151.2,73.1,151.3z"/>
				<path id="XMLID_123_" class="st53" d="M72.6,155.9l-1.6,0.9c0,0,0,0.1,0,0.1l2.5,1.5c0.1,0,0.1,0,0.2,0l1.6-0.9c0,0,0-0.1,0-0.1
					l-2.5-1.5C72.7,155.8,72.7,155.8,72.6,155.9z"/>
				<path id="XMLID_122_" class="st53" d="M73.8,151.8l0.5,0.3c0,0,0,0,0,0.1l-0.3,0.2c0,0,0,0-0.1,0l-0.5-0.3c0,0,0,0,0-0.1
					L73.8,151.8C73.8,151.8,73.8,151.8,73.8,151.8z"/>
				<path id="XMLID_121_" class="st53" d="M74.6,152.3l0.5,0.3c0,0,0,0,0,0.1l-0.3,0.2c0,0,0,0-0.1,0l-0.5-0.3c0,0,0,0,0-0.1
					L74.6,152.3C74.6,152.3,74.6,152.3,74.6,152.3z"/>
				<path id="XMLID_120_" class="st53" d="M75.4,152.7l0.5,0.3c0,0,0,0,0,0.1l-0.3,0.2c0,0,0,0-0.1,0l-0.5-0.3c0,0,0,0,0-0.1
					L75.4,152.7C75.3,152.7,75.4,152.7,75.4,152.7z"/>
				<path id="XMLID_119_" class="st53" d="M76.2,153.2l0.5,0.3c0,0,0,0,0,0.1l-0.3,0.2c0,0,0,0-0.1,0l-0.5-0.3c0,0,0,0,0-0.1
					L76.2,153.2C76.1,153.2,76.2,153.2,76.2,153.2z"/>
				<path id="XMLID_118_" class="st53" d="M77,153.6l0.5,0.3c0,0,0,0,0,0.1l-0.3,0.2c0,0,0,0-0.1,0l-0.5-0.3c0,0,0,0,0-0.1L77,153.6
					C76.9,153.6,76.9,153.6,77,153.6z"/>
				<path id="XMLID_117_" class="st53" d="M77.7,154.1l0.5,0.3c0,0,0,0,0,0.1l-0.3,0.2c0,0,0,0-0.1,0l-0.5-0.3c0,0,0,0,0-0.1
					L77.7,154.1C77.7,154.1,77.7,154.1,77.7,154.1z"/>
				<path id="XMLID_116_" class="st53" d="M78.5,154.5l0.5,0.3c0,0,0,0,0,0.1l-0.3,0.2c0,0,0,0-0.1,0l-0.5-0.3c0,0,0,0,0-0.1
					L78.5,154.5C78.5,154.5,78.5,154.5,78.5,154.5z"/>
				<path id="XMLID_115_" class="st53" d="M79.3,155l0.5,0.3c0,0,0,0,0,0.1l-0.3,0.2c0,0,0,0-0.1,0l-0.5-0.3c0,0,0,0,0-0.1L79.3,155
					C79.2,155,79.3,155,79.3,155z"/>
				<path id="XMLID_114_" class="st53" d="M80,155.4l0.5,0.3c0,0,0,0,0,0.1l-0.3,0.2c0,0,0,0-0.1,0l-0.5-0.3c0,0,0,0,0-0.1L80,155.4
					C80,155.4,80,155.4,80,155.4z"/>
				<path id="XMLID_113_" class="st53" d="M80.8,155.9l0.5,0.3c0,0,0,0,0,0.1l-0.3,0.2c0,0,0,0-0.1,0l-0.5-0.3c0,0,0,0,0-0.1
					L80.8,155.9C80.8,155.9,80.8,155.9,80.8,155.9z"/>
				<path id="XMLID_112_" class="st53" d="M81.6,156.3l0.5,0.3c0,0,0,0,0,0.1l-0.3,0.2c0,0,0,0-0.1,0l-0.5-0.3c0,0,0,0,0-0.1
					L81.6,156.3C81.6,156.3,81.6,156.3,81.6,156.3z"/>
				<g id="XMLID_100_">
					<path id="XMLID_111_" class="st53" d="M72.7,152.4l0.4-0.2c0,0,0.1,0,0.2,0l0.4,0.2c0,0,0.1,0.1,0,0.1l-0.3,0.2
						c0,0-0.1,0-0.2,0l-0.4-0.2C72.7,152.5,72.7,152.4,72.7,152.4z"/>
					<path id="XMLID_110_" class="st53" d="M73.6,152.9l0.4-0.2c0,0,0.1,0,0.2,0l0.4,0.2c0,0,0.1,0.1,0,0.1l-0.3,0.2
						c0,0-0.1,0-0.2,0l-0.4-0.2C73.5,153,73.5,152.9,73.6,152.9z"/>
					<path id="XMLID_109_" class="st53" d="M74.3,153.3l0.4-0.2c0,0,0.1,0,0.2,0l0.4,0.2c0,0,0,0.1,0,0.1l-0.3,0.2c0,0-0.1,0-0.2,0
						l-0.4-0.2C74.3,153.4,74.3,153.3,74.3,153.3z"/>
					<path id="XMLID_108_" class="st53" d="M75.2,153.8l0.4-0.2c0,0,0.1,0,0.2,0l0.4,0.2c0,0,0.1,0.1,0,0.1l-0.3,0.2
						c0,0-0.1,0-0.2,0l-0.4-0.2C75.1,153.9,75.1,153.8,75.2,153.8z"/>
					<path id="XMLID_107_" class="st53" d="M75.9,154.2l0.4-0.2c0,0,0.1,0,0.2,0l0.4,0.2c0,0,0.1,0.1,0,0.1l-0.3,0.2
						c0,0-0.1,0-0.2,0l-0.4-0.2C75.9,154.3,75.9,154.2,75.9,154.2z"/>
					<path id="XMLID_106_" class="st53" d="M76.6,154.7l0.4-0.2c0,0,0.1,0,0.2,0l0.4,0.2c0,0,0.1,0.1,0,0.1l-0.3,0.2
						c0,0-0.1,0-0.2,0l-0.4-0.2C76.6,154.8,76.6,154.7,76.6,154.7z"/>
					<path id="XMLID_105_" class="st53" d="M77.4,155.1l0.4-0.2c0,0,0.1,0,0.2,0l0.4,0.2c0,0,0.1,0.1,0,0.1l-0.3,0.2
						c0,0-0.1,0-0.2,0l-0.4-0.2C77.4,155.2,77.4,155.1,77.4,155.1z"/>
					<path id="XMLID_104_" class="st53" d="M78.2,155.5l0.4-0.2c0,0,0.1,0,0.2,0l0.4,0.2c0,0,0.1,0.1,0,0.1l-0.3,0.2
						c0,0-0.1,0-0.2,0l-0.4-0.2C78.2,155.6,78.2,155.6,78.2,155.5z"/>
					<path id="XMLID_103_" class="st53" d="M79,156l0.4-0.2c0,0,0.1,0,0.2,0l0.4,0.2c0,0,0.1,0.1,0,0.1l-0.3,0.2c0,0-0.1,0-0.2,0
						l-0.4-0.2C78.9,156.1,78.9,156,79,156z"/>
					<path id="XMLID_102_" class="st53" d="M79.8,156.5l0.4-0.2c0,0,0.1,0,0.2,0l0.4,0.2c0,0,0.1,0.1,0,0.1l-0.3,0.2
						c0,0-0.1,0-0.2,0l-0.4-0.2C79.8,156.6,79.8,156.5,79.8,156.5z"/>
					<path id="XMLID_101_" class="st53" d="M80.6,156.9l0.4-0.2c0,0,0.1,0,0.2,0l0.4,0.2c0,0,0.1,0.1,0,0.1l-0.3,0.2
						c0,0-0.1,0-0.2,0l-0.4-0.2C80.5,157,80.5,156.9,80.6,156.9z"/>
				</g>
				<g id="XMLID_88_">
					<path id="XMLID_99_" class="st53" d="M71.9,152.9l0.4-0.2c0,0,0.1,0,0.2,0l0.4,0.2c0,0,0,0.1,0,0.1l-0.3,0.2c0,0-0.1,0-0.2,0
						l-0.4-0.2C71.9,153,71.9,152.9,71.9,152.9z"/>
					<path id="XMLID_98_" class="st53" d="M72.8,153.3l0.4-0.2c0,0,0.1,0,0.2,0l0.4,0.2c0,0,0.1,0.1,0,0.1l-0.3,0.2c0,0-0.1,0-0.2,0
						l-0.4-0.2C72.7,153.4,72.7,153.3,72.8,153.3z"/>
					<path id="XMLID_97_" class="st53" d="M73.5,153.8l0.4-0.2c0,0,0.1,0,0.2,0l0.4,0.2c0,0,0,0.1,0,0.1l-0.3,0.2c0,0-0.1,0-0.2,0
						l-0.4-0.2C73.5,153.9,73.5,153.8,73.5,153.8z"/>
					<path id="XMLID_96_" class="st53" d="M74.4,154.2l0.4-0.2c0,0,0.1,0,0.2,0l0.4,0.2c0,0,0.1,0.1,0,0.1l-0.3,0.2c0,0-0.1,0-0.2,0
						l-0.4-0.2C74.3,154.3,74.3,154.2,74.4,154.2z"/>
					<path id="XMLID_95_" class="st53" d="M75.1,154.6l0.4-0.2c0,0,0.1,0,0.2,0l0.4,0.2c0,0,0.1,0.1,0,0.1l-0.3,0.2c0,0-0.1,0-0.2,0
						l-0.4-0.2C75,154.7,75,154.7,75.1,154.6z"/>
					<path id="XMLID_94_" class="st53" d="M75.8,155.1l0.4-0.2c0,0,0.1,0,0.2,0l0.4,0.2c0,0,0.1,0.1,0,0.1l-0.3,0.2c0,0-0.1,0-0.2,0
						l-0.4-0.2C75.8,155.2,75.8,155.1,75.8,155.1z"/>
					<path id="XMLID_93_" class="st53" d="M76.6,155.5l0.4-0.2c0,0,0.1,0,0.2,0l0.4,0.2c0,0,0.1,0.1,0,0.1l-0.3,0.2c0,0-0.1,0-0.2,0
						l-0.4-0.2C76.6,155.6,76.6,155.6,76.6,155.5z"/>
					<path id="XMLID_92_" class="st53" d="M77.4,156l0.4-0.2c0,0,0.1,0,0.2,0l0.4,0.2c0,0,0.1,0.1,0,0.1l-0.3,0.2c0,0-0.1,0-0.2,0
						l-0.4-0.2C77.4,156.1,77.4,156,77.4,156z"/>
					<path id="XMLID_91_" class="st53" d="M78.2,156.4l0.4-0.2c0,0,0.1,0,0.2,0l0.4,0.2c0,0,0.1,0.1,0,0.1l-0.3,0.2c0,0-0.1,0-0.2,0
						l-0.4-0.2C78.1,156.5,78.1,156.5,78.2,156.4z"/>
					<path id="XMLID_90_" class="st53" d="M79,156.9l0.4-0.2c0,0,0.1,0,0.2,0l0.4,0.2c0,0,0.1,0.1,0,0.1l-0.3,0.2c0,0-0.1,0-0.2,0
						l-0.4-0.2C79,157,79,157,79,156.9z"/>
					<path id="XMLID_89_" class="st53" d="M79.8,157.3l0.4-0.2c0,0,0.1,0,0.2,0l0.4,0.2c0,0,0.1,0.1,0,0.1l-0.3,0.2c0,0-0.1,0-0.2,0
						l-0.4-0.2C79.7,157.4,79.7,157.4,79.8,157.3z"/>
				</g>
				<g id="XMLID_76_">
					<path id="XMLID_87_" class="st53" d="M71.1,153.3l0.4-0.2c0,0,0.1,0,0.2,0l0.4,0.2c0,0,0.1,0.1,0,0.1l-0.3,0.2c0,0-0.1,0-0.2,0
						l-0.4-0.2C71.1,153.4,71.1,153.3,71.1,153.3z"/>
					<path id="XMLID_86_" class="st53" d="M72,153.7l0.4-0.2c0,0,0.1,0,0.2,0l0.4,0.2c0,0,0.1,0.1,0,0.1l-0.3,0.2c0,0-0.1,0-0.2,0
						l-0.4-0.2C71.9,153.8,71.9,153.8,72,153.7z"/>
					<path id="XMLID_85_" class="st53" d="M72.7,154.2l0.4-0.2c0,0,0.1,0,0.2,0l0.4,0.2c0,0,0.1,0.1,0,0.1l-0.3,0.2c0,0-0.1,0-0.2,0
						l-0.4-0.2C72.7,154.3,72.7,154.2,72.7,154.2z"/>
					<path id="XMLID_84_" class="st53" d="M73.6,154.6l0.4-0.2c0,0,0.1,0,0.2,0l0.4,0.2c0,0,0.1,0.1,0,0.1l-0.3,0.2c0,0-0.1,0-0.2,0
						l-0.4-0.2C73.5,154.7,73.5,154.7,73.6,154.6z"/>
					<path id="XMLID_83_" class="st53" d="M74.3,155.1l0.4-0.2c0,0,0.1,0,0.2,0l0.4,0.2c0,0,0.1,0.1,0,0.1l-0.3,0.2c0,0-0.1,0-0.2,0
						l-0.4-0.2C74.2,155.2,74.2,155.1,74.3,155.1z"/>
					<path id="XMLID_82_" class="st53" d="M75,155.5l0.4-0.2c0,0,0.1,0,0.2,0l0.4,0.2c0,0,0.1,0.1,0,0.1l-0.3,0.2c0,0-0.1,0-0.2,0
						l-0.4-0.2C75,155.6,75,155.6,75,155.5z"/>
					<path id="XMLID_81_" class="st53" d="M75.8,156l0.4-0.2c0,0,0.1,0,0.2,0l0.4,0.2c0,0,0.1,0.1,0,0.1l-0.3,0.2c0,0-0.1,0-0.2,0
						l-0.4-0.2C75.8,156.1,75.8,156,75.8,156z"/>
					<path id="XMLID_80_" class="st53" d="M76.6,156.4l0.4-0.2c0,0,0.1,0,0.2,0l0.4,0.2c0,0,0,0.1,0,0.1l-0.3,0.2c0,0-0.1,0-0.2,0
						l-0.4-0.2C76.6,156.5,76.6,156.4,76.6,156.4z"/>
					<path id="XMLID_79_" class="st53" d="M77.4,156.9l0.4-0.2c0,0,0.1,0,0.2,0l0.4,0.2c0,0,0,0.1,0,0.1l-0.3,0.2c0,0-0.1,0-0.2,0
						l-0.4-0.2C77.3,157,77.3,156.9,77.4,156.9z"/>
					<path id="XMLID_78_" class="st53" d="M78.2,157.4l0.4-0.2c0,0,0.1,0,0.2,0l0.4,0.2c0,0,0,0.1,0,0.1l-0.3,0.2c0,0-0.1,0-0.2,0
						l-0.4-0.2C78.2,157.5,78.2,157.4,78.2,157.4z"/>
					<path id="XMLID_77_" class="st53" d="M79,157.8l0.4-0.2c0,0,0.1,0,0.2,0l0.4,0.2c0,0,0.1,0.1,0,0.1l-0.3,0.2c0,0-0.1,0-0.2,0
						l-0.4-0.2C78.9,157.9,78.9,157.8,79,157.8z"/>
				</g>
				<g id="XMLID_39_">
					<path id="XMLID_75_" class="st53" d="M70.3,153.7l0.4-0.2c0,0,0.1,0,0.2,0l0.4,0.2c0,0,0.1,0.1,0,0.1l-0.3,0.2c0,0-0.1,0-0.2,0
						l-0.4-0.2C70.3,153.8,70.3,153.8,70.3,153.7z"/>
					<path id="XMLID_74_" class="st53" d="M71.2,154.2l0.4-0.2c0,0,0.1,0,0.2,0l0.4,0.2c0,0,0.1,0.1,0,0.1l-0.3,0.2c0,0-0.1,0-0.2,0
						l-0.4-0.2C71.1,154.3,71.1,154.2,71.2,154.2z"/>
					<path id="XMLID_73_" class="st53" d="M71.9,154.6l0.4-0.2c0,0,0.1,0,0.2,0l0.4,0.2c0,0,0.1,0.1,0,0.1l-0.3,0.2c0,0-0.1,0-0.2,0
						l-0.4-0.2C71.9,154.7,71.9,154.7,71.9,154.6z"/>
					<path id="XMLID_72_" class="st53" d="M72.8,155.1l0.4-0.2c0,0,0.1,0,0.2,0l0.4,0.2c0,0,0.1,0.1,0,0.1l-0.3,0.2c0,0-0.1,0-0.2,0
						l-0.4-0.2C72.7,155.2,72.7,155.1,72.8,155.1z"/>
					<path id="XMLID_71_" class="st53" d="M73.6,155.6l0.4-0.2c0,0,0.1,0,0.2,0l1.8,1.1c0,0,0.1,0.1,0,0.1l-0.3,0.2c0,0-0.1,0-0.2,0
						l-1.8-1.1C73.5,155.7,73.5,155.6,73.6,155.6z"/>
					<path id="XMLID_67_" class="st53" d="M75.8,156.8l0.4-0.2c0,0,0.1,0,0.2,0l0.4,0.2c0,0,0.1,0.1,0,0.1l-0.3,0.2c0,0-0.1,0-0.2,0
						l-0.4-0.2C75.8,156.9,75.8,156.9,75.8,156.8z"/>
					<path id="XMLID_63_" class="st53" d="M76.6,157.3l0.4-0.2c0,0,0.1,0,0.2,0l0.4,0.2c0,0,0.1,0.1,0,0.1l-0.3,0.2c0,0-0.1,0-0.2,0
						l-0.4-0.2C76.5,157.4,76.5,157.3,76.6,157.3z"/>
					<path id="XMLID_49_" class="st53" d="M77.4,157.8l0.4-0.2c0,0,0.1,0,0.2,0l0.4,0.2c0,0,0,0.1,0,0.1l-0.3,0.2c0,0-0.1,0-0.2,0
						l-0.4-0.2C77.4,157.9,77.4,157.8,77.4,157.8z"/>
					<path id="XMLID_46_" class="st53" d="M78.2,158.2l0.4-0.2c0,0,0.1,0,0.2,0l0.4,0.2c0,0,0.1,0.1,0,0.1l-0.3,0.2c0,0-0.1,0-0.2,0
						l-0.4-0.2C78.1,158.3,78.1,158.2,78.2,158.2z"/>
				</g>
			</g>
			<g id="XMLID_37_">
				<path id="XMLID_5_" class="st61" d="M71.1,159.7c-0.2,0-0.4-0.1-0.5-0.2l-5.1-4.2c-1.7-1.4-2.3-3.9-1.3-5.9l2.4-5.3
					c0.2-0.5,0.8-0.7,1.3-0.5c0.5,0.2,0.7,0.8,0.5,1.3l-2.4,5.3c-0.6,1.3-0.2,2.7,0.8,3.6l5.1,4.2c0.4,0.3,0.5,0.9,0.1,1.3
					C71.7,159.7,71.4,159.8,71.1,159.7z"/>
			</g>
			<g id="XMLID_35_">
				<path id="XMLID_36_" class="st5" d="M64.6,151.2c-0.2,0-0.3-0.1-0.5-0.1c-0.8-0.4-1.1-1.3-0.8-2.1l2.6-5.6
					c0.4-0.8,1.3-1.1,2.1-0.8c0.8,0.4,1.1,1.3,0.8,2.1l-2.6,5.6C65.9,150.9,65.3,151.2,64.6,151.2z"/>
			</g>
			<path id="XMLID_16_" class="st5" d="M75.2,148.7c0.1-1.6-0.2-3.1-0.8-4.1c-0.7-1.3-1.8-2.5-3.1-3.2l-1.2-0.7
				c-1.6-0.9-2.7,0.4-3.6,2.1c-3,5.8-0.2,13.9-1.8,19.4c0,0,5.7,2.7,7.3,2.7c2.2,0,5.7-0.6,5.4-1.5
				C74.7,156.2,74.9,153.1,75.2,148.7z"/>
			<path id="XMLID_12_" class="st61" d="M70.7,142.9h0.2c0.5,0,1-0.4,1-1v-2.6c0-0.5-0.4-1-1-1h-0.2c-0.5,0-1,0.4-1,1v2.6
				C69.7,142.5,70.2,142.9,70.7,142.9z"/>
			<g id="XMLID_10_">
				<path id="XMLID_11_" class="st61" d="M79,159c-0.5,0-1.6,0-1.9-0.5l-3.2,0.4c-0.6,0.1-1.1-0.3-1.3-0.8c-0.9-2.2-1.3-4.5-1.2-6.9
					l0.2-5.2c0-0.7,0.6-1.2,1.3-1.2c0.7,0,1.3,0.6,1.2,1.3l-0.2,5.2c-0.1,2.3-0.2,2.4,0.8,4.4l4.6,1.4c0.7,0,1.2,0.7,1.1,1
					C80.4,158.6,79.2,159,79,159z"/>
			</g>
			<g id="XMLID_7_">
				<path id="XMLID_9_" class="st5" d="M72.7,154.1C72.7,154.1,72.7,154.1,72.7,154.1c-0.9,0-1.5-0.7-1.5-1.5l0.2-6.5
					c0-0.8,0.7-1.4,1.5-1.4c0.8,0,1.4,0.7,1.4,1.5l-0.2,6.5C74.1,153.5,73.5,154.1,72.7,154.1z"/>
			</g>
			<path id="XMLID_4_" class="st61" d="M69.5,141.8h-1.3v-7.4h6.4v2.3C74.6,139.5,72.3,141.8,69.5,141.8z"/>
			<path id="XMLID_2_" class="st61" d="M78.4,157.8l2.5,0c0.2,0,0.3-0.1,0.3-0.3l0,0c0-0.2-0.1-0.3-0.3-0.3l-2.5,0
				c-0.2,0-0.3,0.1-0.3,0.3l0,0C78.1,157.7,78.3,157.8,78.4,157.8z"/>
			<path id="XMLID_1_" class="st61" d="M77.2,157.7l2.4-0.5c0.2,0,0.3-0.2,0.2-0.3l0,0c0-0.2-0.2-0.3-0.3-0.2l-2.4,0.5
				c-0.2,0-0.3,0.2-0.2,0.3l0,0C76.9,157.6,77,157.7,77.2,157.7z"/>
			<g id="XMLID_3_">
				<linearGradient id="XMLID_443_" gradientUnits="userSpaceOnUse" x1="66.8591" y1="137.1185" x2="76.3056" y2="137.1185">
					<stop  offset="0" style="stop-color:#3C5185"/>
					<stop  offset="0.128" style="stop-color:#41588E"/>
					<stop  offset="0.6948" style="stop-color:#5573B1"/>
					<stop  offset="1" style="stop-color:#5D7DBE"/>
				</linearGradient>
				<path id="XMLID_417_" class="st95" d="M75.8,132.5c-0.5-0.3-1.3-0.3-1.9-0.1c-0.6,0.2-1.1,0.5-1.7,0.7c-0.5,0.2-1,0-1.6-0.1
					c-0.5-0.1-1.1-0.2-1.6,0c-0.5,0.2-0.8,0.9-0.5,1.3c-0.7,0.3-1.2,0.9-1.4,1.5c-0.1,0.4-0.1,0.6,0,1c0,0.4,0,0.9-0.1,1.3
					c-0.1,1.3-0.3,2.3,0.6,3.3c0.5,0.6,1.5,0.8,2.2,0.4c0.2-0.1,0.3-0.2,0.4-0.3c0.3-0.3,0.5-0.8,0.6-1.2c0.1-0.2,0.1-0.5,0.2-0.7
					c0.1-0.2,0.3-0.4,0.5-0.4c0.4,0,0.9,0.6,1.3,0.3c0.2-0.2,0.1-0.4,0-0.7c-0.1-0.2-0.4-0.4-0.5-0.6c-0.2-0.2-0.3-0.5-0.2-0.7
					c0.2-0.5,1.1-0.8,1.6-1c0.7-0.3,1.4-0.7,2-1.2c0.4-0.4,0.8-1,0.8-1.7C76.3,133,76.1,132.7,75.8,132.5z"/>
			</g>
		</g>
	</g>
</g>
</svg>
