<?xml version="1.0" encoding="utf-8"?>
<!-- Generator: Adobe Illustrator 23.0.3, SVG Export Plug-In . SVG Version: 6.00 Build 0)  -->
<svg version="1.1" id="Layer_1" xmlns="http://www.w3.org/2000/svg" xmlns:xlink="http://www.w3.org/1999/xlink" x="0px" y="0px"
	 viewBox="0 0 256 256" style="enable-background:new 0 0 256 256;" xml:space="preserve">
<style type="text/css">
	.st0{fill:#382B73;}
	.st1{fill:#009ADD;}
	.st2{fill:#1CAEE4;}
	.st3{fill:#27C1E6;}
	.st4{fill:#FEDE3A;}
	.st5{fill:#F7CB15;}
</style>
<g>
	<g>
		<path class="st0" d="M125.7,13.8c0,0-73.8,54.1-73.8,120.8c0,54.9,49.9,101.1,67.5,115.8c3.5,2.9,8.7,2.9,12.4,0
			c17.6-14.8,67.5-61,67.5-115.8C199.5,67.9,125.7,13.8,125.7,13.8z"/>
	</g>
	<g>
		<g>
			<g>
				<path class="st1" d="M199.5,123.2c0,54.9-49.9,101.1-67.5,115.8c-3.5,2.9-8.7,2.9-12.4,0c-17.6-14.8-67.5-61-67.5-115.8
					C52,56.5,125.8,2.4,125.8,2.4S199.5,56.6,199.5,123.2z"/>
			</g>
			<g>
				<path class="st2" d="M194.3,114.9c0,62.1-68.7,112.3-68.7,112.3S57,177,57,114.9S125.7,2.6,125.7,2.6S194.3,52.8,194.3,114.9z"
					/>
			</g>
			<g>
				<path class="st3" d="M125.7,2.6L125.7,2.6v224.6l0,0c0,0,68.7-50.2,68.7-112.3S125.7,2.6,125.7,2.6z"/>
			</g>
			<g>
				<g>
					<path class="st1" d="M83.6,45.3h62.3v25h-20.2v9.5h29.7V30.2c-3.2-3.5-6.4-6.9-9.5-9.9v15.6H91C88.6,38.8,86,41.9,83.6,45.3z"
						/>
				</g>
				<g>
					<path class="st1" d="M98.9,69.5v11.9h9.5V60H73.7c-1.8,3-3.5,6.3-5.1,9.5H98.9z"/>
				</g>
				<g>
					<path class="st1" d="M125.7,94.8v9.5h50.7V57.9c-2.4-4-5-7.9-7.7-11.6h-1.8v48.5C166.9,94.8,125.7,94.8,125.7,94.8z"/>
				</g>
				<g>
					<path class="st1" d="M125.7,25.4c2.2,0,4.2-1.9,4.2-4.2s-1.9-4.2-4.2-4.2c-2.2,0-4.2,1.9-4.2,4.2
						C121.5,23.4,123.4,25.4,125.7,25.4z"/>
				</g>
				<g>
					<path class="st1" d="M149.9,198.6v-20.7h-9.5v20.7h-27.1v9.5h34c2.9-2.9,5.9-6.1,8.8-9.5H149.9z"/>
				</g>
				<g>
					<path class="st1" d="M124.9,190.5c2.2,0,4.2-1.9,4.2-4.2c0-2.2-1.9-4.2-4.2-4.2c-2.2,0-4.2,1.9-4.2,4.2
						C120.7,188.7,122.6,190.5,124.9,190.5z"/>
				</g>
				<g>
					<path class="st1" d="M97.9,95.3c0,2.2,1.9,4.2,4.2,4.2s4.2-1.9,4.2-4.2s-1.9-4.2-4.2-4.2C99.8,91.1,97.9,92.9,97.9,95.3z"/>
				</g>
				<g>
					<path class="st1" d="M185.4,154.5h-64.7v17.6h9.5V164h50.7C182.5,160.8,184.1,157.7,185.4,154.5z"/>
				</g>
				<g>
					<path class="st1" d="M176.4,133.2v-19.7h-9.5v29.2h22.9c1-3,1.8-6.3,2.4-9.5H176.4z"/>
				</g>
				<g>
					<rect x="98.9" y="129.3" class="st1" width="9.5" height="54.1"/>
				</g>
				<g>
					<path class="st1" d="M67.6,112c2.2,0,4.2-1.9,4.2-4.2s-1.9-4.2-4.2-4.2s-4.2,1.9-4.2,4.2C63.4,110.1,65.2,112,67.6,112z"/>
				</g>
				<g>
					<path class="st1" d="M77.1,96.4v73.2h9.5V87h-25c-1,3-1.8,6.3-2.4,9.5H77.1z"/>
				</g>
			</g>
		</g>
		<g>
			<g>
				<g>
					<path class="st1" d="M152.6,145.9H98.9c-4.3,0-6.7-4.8-4.2-8.3l27-35.9c2.1-2.7,6.3-2.7,8.3,0l27,35.9
						C159.2,141,156.8,145.9,152.6,145.9z"/>
				</g>
			</g>
			<g>
				<path class="st4" d="M152.6,138H98.9c-4.3,0-6.7-4.8-4.2-8.3l27-35.9c2.1-2.7,6.3-2.7,8.3,0l27,35.9
					C159.2,133,156.8,138,152.6,138z"/>
			</g>
			<g>
				<path class="st5" d="M151.7,122.9H99.8l-5.1,6.9c-2.6,3.4-0.2,8.3,4.2,8.3h53.7c4.3,0,6.7-4.8,4.2-8.3L151.7,122.9z"/>
			</g>
		</g>
	</g>
</g>
</svg>
